<svg id="Layer_1" data-name="Layer 1" xmlns="http://www.w3.org/2000/svg" viewBox="0 0 206 241.1"><defs><radialGradient id="radial-gradient" cx="96.57" cy="50.92" r="50.92" gradientUnits="userSpaceOnUse"><stop offset="0" stop-color="#e3a4a3"/><stop offset="1" stop-color="#cd5853"/></radialGradient><radialGradient id="radial-gradient-2" cx="141.06" cy="98.92" r="64.97" gradientUnits="userSpaceOnUse"><stop offset="0" stop-color="#a2acd6"/><stop offset="1" stop-color="#5367b0"/></radialGradient><radialGradient id="radial-gradient-3" cx="81.36" cy="159.79" r="81.36" gradientUnits="userSpaceOnUse"><stop offset=".08" stop-color="#91cca0"/><stop offset="1" stop-color="#04b261"/></radialGradient><style>.cls-2,.cls-58{fill:#fff}.cls-2{opacity:0}.cls-58{opacity:.5}</style></defs><path d="M147.5 50.9A50.9 50.9 0 1196.6 0a50.9 50.9 0 0150.9 50.9z" fill="url(#radial-gradient)"/><path class="cls-2" d="M137 45.7c-5.4 5.4-17.2 2.4-26.3-6.6s-12.1-20.9-6.6-26.3 17.1-2.5 26.2 6.6 12.1 20.9 6.7 26.3z"/><path d="M136.7 45.4c-5.3 5.3-16.9 2.4-25.8-6.5S99 18.4 104.4 13s16.9-2.4 25.8 6.5 11.9 20.6 6.5 25.9z" opacity=".01" fill="#fff"/><path d="M136.5 45.1c-5.2 5.2-16.6 2.3-25.4-6.4s-11.7-20.2-6.4-25.4 16.6-2.4 25.4 6.4 11.6 20.1 6.4 25.4z" opacity=".02" fill="#fff"/><path d="M136.2 44.8c-5.1 5.1-16.3 2.3-24.9-6.3s-11.5-19.8-6.3-25 16.3-2.3 24.9 6.3 11.5 19.8 6.3 25z" opacity=".03" fill="#fff"/><path d="M136 44.5c-5.1 5-16 2.3-24.5-6.2s-11.3-19.5-6.2-24.6 16-2.2 24.5 6.2 11.3 19.5 6.2 24.6z" opacity=".04" fill="#fff"/><path d="M135.8 44.2c-5 4.9-15.8 2.2-24.1-6.1S100.6 19 105.6 14s15.8-2.2 24.1 6.1 11 19.1 6.1 24.1z" opacity=".04" fill="#fff"/><path d="M135.5 43.8c-4.9 4.9-15.4 2.3-23.6-5.9s-10.9-18.8-6-23.7 15.5-2.2 23.6 6 10.9 18.8 6 23.6z" opacity=".05" fill="#fff"/><path d="M135.3 43.5c-4.8 4.8-15.2 2.2-23.2-5.8s-10.7-18.4-5.9-23.2 15.2-2.2 23.2 5.8 10.7 18.5 5.9 23.2z" opacity=".06" fill="#fff"/><path d="M135 43.2c-4.7 4.7-14.9 2.2-22.7-5.7s-10.5-18.1-5.8-22.8 14.9-2.1 22.8 5.8 10.4 18 5.7 22.7z" opacity=".07" fill="#fff"/><path d="M134.8 42.9c-4.6 4.6-14.6 2.1-22.3-5.6s-10.3-17.7-5.7-22.3 14.6-2.1 22.4 5.6 10.2 17.7 5.6 22.3z" opacity=".08" fill="#fff"/><path d="M134.6 42.6c-4.6 4.5-14.4 2.1-21.9-5.5s-10.1-17.4-5.6-21.9 14.4-2 21.9 5.5 10.1 17.4 5.6 21.9z" opacity=".09" fill="#fff"/><path d="M134.3 42.3c-4.4 4.4-14 2-21.4-5.4s-9.9-17-5.5-21.5 14.1-2 21.5 5.5 9.8 17 5.4 21.4z" opacity=".1" fill="#fff"/><path d="M134.1 42c-4.4 4.3-13.8 2-21-5.3s-9.7-16.7-5.3-21 13.7-2 21 5.3 9.6 16.7 5.3 21z" opacity=".11" fill="#fff"/><path d="M133.8 41.7c-4.2 4.2-13.4 1.9-20.5-5.2s-9.5-16.3-5.2-20.6 13.4-1.9 20.5 5.2 9.5 16.4 5.2 20.6z" opacity=".12" fill="#fff"/><path d="M133.6 41.4c-4.2 4.1-13.2 1.9-20.1-5.1s-9.3-16-5.1-20.1 13.1-1.9 20.1 5 9.2 16 5.1 20.2z" opacity=".13" fill="#fff"/><path d="M133.4 41.1c-4.1 4-12.9 1.8-19.8-5s-9-15.6-4.9-19.7 12.9-1.8 19.7 5 9 15.6 5 19.7z" opacity=".13" fill="#fff"/><path d="M133.1 40.8c-4 4-12.6 1.8-19.3-4.9S105 20.6 109 16.6s12.6-1.7 19.2 4.9 8.9 15.3 4.9 19.3z" opacity=".14" fill="#fff"/><path d="M132.9 40.5c-3.9 3.9-12.3 1.7-18.9-4.8s-8.6-14.9-4.7-18.8 12.3-1.8 18.8 4.7 8.7 15 4.8 18.9z" opacity=".15" fill="#fff"/><path d="M132.6 40.2c-3.8 3.8-12 1.7-18.4-4.7s-8.4-14.6-4.6-18.4 12-1.7 18.4 4.7 8.4 14.6 4.6 18.4z" opacity=".16" fill="#fff"/><path d="M132.4 39.8c-3.7 3.8-11.8 1.7-18-4.5s-8.2-14.2-4.5-17.9 11.7-1.7 17.9 4.5 8.3 14.2 4.6 17.9z" opacity=".17" fill="#fff"/><path d="M132.1 39.5c-3.6 3.7-11.4 1.7-17.5-4.4s-8-13.9-4.4-17.5 11.5-1.6 17.5 4.4 8.1 13.9 4.4 17.5z" opacity=".18" fill="#fff"/><path d="M131.9 39.2c-3.5 3.6-11.2 1.6-17.1-4.3s-7.8-13.5-4.3-17 11.2-1.6 17.1 4.3 7.8 13.5 4.3 17z" opacity=".19" fill="#fff"/><path d="M131.7 38.9c-3.5 3.5-10.9 1.6-16.7-4.2s-7.6-13.2-4.2-16.6 10.9-1.5 16.7 4.2 7.6 13.2 4.2 16.6z" opacity=".2" fill="#fff"/><path d="M131.4 38.6c-3.3 3.4-10.6 1.5-16.2-4.1s-7.4-12.8-4.1-16.2 10.6-1.5 16.2 4.1 7.5 12.9 4.1 16.2z" opacity=".21" fill="#fff"/><path d="M131.2 38.3c-3.3 3.3-10.3 1.5-15.8-4s-7.2-12.5-4-15.7 10.4-1.5 15.8 4 7.2 12.5 4 15.7z" opacity=".21" fill="#fff"/><path d="M130.9 38c-3.1 3.2-10 1.4-15.3-3.9s-7-12.1-3.8-15.3 10-1.4 15.3 3.9 7 12.1 3.8 15.3z" opacity=".22" fill="#fff"/><path d="M130.7 37.7c-3.1 3.1-9.7 1.4-14.9-3.8s-6.8-11.8-3.7-14.8 9.7-1.4 14.8 3.7 6.9 11.8 3.8 14.9z" opacity=".23" fill="#fff"/><path d="M130.5 37.4c-3 3-9.5 1.3-14.5-3.7s-6.6-11.4-3.6-14.4 9.4-1.3 14.4 3.6 6.6 11.5 3.7 14.5z" opacity=".24" fill="#fff"/><path d="M130.2 37.1c-2.9 2.9-9.1 1.3-14-3.6s-6.4-11.1-3.5-14 9.1-1.3 14 3.6 6.4 11.1 3.5 14z" opacity=".25" fill="#fff"/><path d="M130 36.8c-2.8 2.8-8.9 1.2-13.6-3.5s-6.2-10.7-3.4-13.5 8.9-1.3 13.5 3.4 6.3 10.8 3.5 13.6z" opacity=".26" fill="#fff"/><path d="M129.7 36.5c-2.7 2.7-8.6 1.2-13.1-3.4s-6-10.4-3.3-13.1 8.6-1.2 13.1 3.3 6 10.5 3.3 13.2z" opacity=".27" fill="#fff"/><path d="M129.5 36.2c-2.6 2.6-8.3 1.1-12.7-3.2s-5.8-10.1-3.2-12.7 8.3-1.2 12.7 3.2 5.8 10 3.2 12.7z" opacity=".28" fill="#fff"/><path d="M129.3 35.9c-2.6 2.5-8.1 1.1-12.3-3.1s-5.6-9.8-3.1-12.3 8-1.1 12.2 3.1 5.7 9.7 3.2 12.3z" opacity=".29" fill="#fff"/><path d="M129 35.5c-2.4 2.5-7.7 1.1-11.8-2.9s-5.4-9.4-3-11.9 7.7-1 11.8 3 5.4 9.4 3 11.8z" opacity=".29" fill="#fff"/><path d="M128.8 35.2c-2.4 2.4-7.5 1.1-11.4-2.8s-5.2-9.1-2.9-11.4 7.5-1.1 11.4 2.9 5.2 9 2.9 11.3z" opacity=".3" fill="#fff"/><path d="M128.5 34.9c-2.2 2.3-7.1 1-10.9-2.7s-5-8.7-2.8-11 7.2-1 11 2.8 5 8.7 2.7 10.9z" opacity=".31" fill="#fff"/><path d="M128.3 34.6c-2.2 2.2-6.9 1-10.5-2.6s-4.8-8.4-2.7-10.5 6.9-1 10.5 2.6 4.8 8.4 2.7 10.5z" opacity=".32" fill="#fff"/><path d="M128 34.3c-2 2.1-6.5.9-10-2.5s-4.6-8-2.6-10.1 6.6-.9 10.1 2.6 4.6 7.9 2.5 10z" opacity=".33" fill="#fff"/><path d="M127.8 34c-2 2-6.3.9-9.6-2.4s-4.4-7.7-2.4-9.6 6.2-.9 9.6 2.4 4.4 7.6 2.4 9.6z" opacity=".34" fill="#fff"/><path d="M127.6 33.7c-1.9 1.9-6 .9-9.2-2.3s-4.2-7.3-2.3-9.2 6-.9 9.1 2.3 4.3 7.3 2.4 9.2z" opacity=".35" fill="#fff"/><path d="M127.3 33.4c-1.8 1.8-5.7.8-8.7-2.2s-4-7-2.2-8.8 5.7-.8 8.7 2.2 4 7 2.2 8.8z" opacity=".36" fill="#fff"/><path d="M127.1 33.1c-1.7 1.7-5.5.8-8.3-2.1s-3.8-6.6-2.1-8.3 5.4-.8 8.3 2.1 3.8 6.6 2.1 8.3z" opacity=".37" fill="#fff"/><path d="M126.8 32.8c-1.6 1.6-5.1.7-7.8-2s-3.6-6.2-2-7.9 5.1-.7 7.8 2 3.7 6.3 2 7.9z" opacity=".37" fill="#fff"/><path d="M126.6 32.5c-1.5 1.5-4.9.7-7.4-1.9s-3.4-5.9-1.9-7.4 4.8-.7 7.4 1.8 3.4 5.9 1.9 7.5z" opacity=".38" fill="#fff"/><path d="M126.4 32.2c-1.5 1.4-4.6.6-7-1.8s-3.2-5.5-1.8-7 4.6-.6 7 1.8 3.2 5.5 1.8 7z" opacity=".39" fill="#fff"/><path d="M126.1 31.9c-1.3 1.3-4.3.6-6.5-1.7s-3-5.2-1.7-6.6 4.3-.6 6.6 1.7 3 5.2 1.6 6.6z" opacity=".4" fill="#fff"/><path d="M125.9 31.5c-1.3 1.3-4 .6-6.1-1.5s-2.8-4.8-1.6-6.1 4-.6 6.1 1.5 2.8 4.9 1.6 6.1z" opacity=".41" fill="#fff"/><path d="M125.6 31.2c-1.1 1.2-3.7.6-5.6-1.4s-2.6-4.5-1.5-5.7 3.7-.5 5.7 1.5 2.6 4.5 1.4 5.6z" opacity=".42" fill="#fff"/><path d="M125.4 30.9c-1.1 1.1-3.4.5-5.3-1.3s-2.3-4.1-1.3-5.2 3.5-.5 5.3 1.3 2.4 4.2 1.3 5.2z" opacity=".43" fill="#fff"/><path d="M125.1 30.6c-.9 1-3.1.5-4.8-1.2s-2.2-3.8-1.2-4.8 3.2-.4 4.8 1.2 2.2 3.8 1.2 4.8z" opacity=".44" fill="#fff"/><path d="M124.9 30.3c-.9.9-2.8.4-4.4-1.1s-2-3.4-1.1-4.3 2.9-.4 4.4 1.1 2 3.4 1.1 4.3z" opacity=".45" fill="#fff"/><path d="M124.7 30c-.8.8-2.6.4-4-1s-1.8-3.1-.9-3.9 2.5-.4 3.9 1 1.8 3.1 1 3.9z" opacity=".46" fill="#fff"/><path d="M124.4 29.7c-.7.7-2.3.3-3.5-.9s-1.6-2.7-.8-3.5 2.2-.3 3.4.9 1.6 2.8.9 3.5z" opacity=".46" fill="#fff"/><path d="M124.2 29.4c-.6.6-2 .3-3.1-.8s-1.4-2.4-.7-3 2-.3 3 .7 1.4 2.5.8 3.1z" opacity=".47" fill="#fff"/><path d="M123.9 29.1c-.5.5-1.7.2-2.6-.7s-1.2-2-.6-2.6 1.7-.2 2.6.7 1.2 2 .6 2.6z" opacity=".48" fill="#fff"/><path d="M123.7 28.8c-.4.4-1.4.2-2.2-.6s-1-1.7-.5-2.1 1.4-.2 2.1.5 1 1.7.6 2.2z" opacity=".49" fill="#fff"/><path class="cls-58" d="M123.5 28.5c-.4.3-1.2.1-1.8-.5s-.8-1.3-.4-1.7 1.1-.2 1.7.4.8 1.4.5 1.8z"/><path d="M206 98.9a65 65 0 11-64.9-65 65 65 0 0164.9 65z" fill="url(#radial-gradient-2)"/><path class="cls-2" d="M192.6 92.2c-6.9 7-21.9 3.2-33.5-8.4s-15.4-26.6-8.5-33.5 21.9-3.2 33.5 8.4 15.4 26.6 8.5 33.5z"/><path d="M192.4 91.9c-6.9 6.9-21.7 3.1-33.1-8.3s-15.2-26.3-8.4-33.1 21.7-3.1 33.1 8.4 15.2 26.2 8.4 33z" opacity=".01" fill="#fff"/><path d="M192.1 91.6c-6.7 6.8-21.3 3.1-32.6-8.2s-15-25.9-8.3-32.7 21.4-3 32.7 8.3 15 25.9 8.2 32.6z" opacity=".01" fill="#fff"/><path d="M191.9 91.3c-6.7 6.7-21.1 3-32.2-8.1s-14.8-25.6-8.2-32.2 21.1-3 32.2 8.1 14.8 25.6 8.2 32.2z" opacity=".02" fill="#fff"/><path d="M191.6 91c-6.5 6.6-20.7 3-31.7-8s-14.6-25.2-8-31.8 20.7-2.9 31.7 8 14.6 25.3 8 31.8z" opacity=".03" fill="#fff"/><path d="M191.4 90.7c-6.5 6.5-20.5 2.9-31.3-7.9s-14.4-24.9-7.9-31.3 20.5-2.9 31.3 7.9 14.4 24.8 7.9 31.3z" opacity=".04" fill="#fff"/><path d="M191.2 90.4c-6.4 6.4-20.2 2.9-30.9-7.8s-14.2-24.5-7.8-30.9 20.2-2.9 30.8 7.8 14.2 24.5 7.9 30.9z" opacity=".04" fill="#fff"/><path d="M190.9 90.1c-6.3 6.3-19.9 2.8-30.4-7.7s-14-24.2-7.7-30.4 19.9-2.9 30.4 7.6 14 24.2 7.7 30.5z" opacity=".05" fill="#fff"/><path d="M190.7 89.8c-6.2 6.2-19.7 2.8-30-7.6s-13.8-23.8-7.6-30 19.6-2.8 30 7.6 13.8 23.8 7.6 30z" opacity=".06" fill="#fff"/><path d="M190.4 89.5c-6.1 6.1-19.3 2.7-29.5-7.5s-13.6-23.5-7.5-29.6 19.3-2.7 29.5 7.5 13.6 23.5 7.5 29.6z" opacity=".06" fill="#fff"/><path d="M190.2 89.1c-6 6.1-19.1 2.8-29.1-7.3s-13.4-23.1-7.4-29.1 19.1-2.7 29.1 7.3 13.4 23.1 7.4 29.1z" opacity=".07" fill="#fff"/><path d="M189.9 88.8c-5.9 6-18.7 2.7-28.6-7.2s-13.2-22.7-7.3-28.7 18.8-2.6 28.7 7.3 13.2 22.7 7.2 28.6z" opacity=".08" fill="#fff"/><path d="M189.7 88.5c-5.8 5.9-18.5 2.7-28.2-7.1s-13-22.4-7.2-28.2 18.5-2.7 28.3 7.1 12.9 22.4 7.1 28.2z" opacity=".08" fill="#fff"/><path d="M189.4 88.2c-5.7 5.8-18.1 2.6-27.7-7s-12.8-22-7.1-27.8 18.2-2.6 27.8 7 12.8 22.1 7 27.8z" opacity=".09" fill="#fff"/><path d="M189.2 87.9c-5.6 5.7-17.9 2.6-27.4-6.9s-12.5-21.7-6.8-27.3 17.8-2.6 27.3 6.9 12.5 21.7 6.9 27.3z" opacity=".1" fill="#fff"/><path d="M189 87.6c-5.6 5.6-17.6 2.5-27-6.8s-12.3-21.3-6.7-26.9 17.6-2.5 26.9 6.8 12.3 21.4 6.8 26.9z" opacity=".11" fill="#fff"/><path d="M188.7 87.3c-5.4 5.5-17.3 2.5-26.5-6.7s-12.1-21-6.6-26.5 17.3-2.4 26.4 6.7 12.2 21 6.7 26.5z" opacity=".11" fill="#fff"/><path d="M188.5 87c-5.4 5.4-17 2.4-26.1-6.6s-11.9-20.6-6.5-26 17-2.4 26 6.6 11.9 20.6 6.6 26z" opacity=".12" fill="#fff"/><path d="M188.2 86.7c-5.2 5.3-16.7 2.4-25.6-6.5s-11.7-20.3-6.4-25.6 16.7-2.4 25.6 6.5 11.7 20.3 6.4 25.6z" opacity=".13" fill="#fff"/><path d="M188 86.4c-5.2 5.2-16.5 2.3-25.2-6.4s-11.5-19.9-6.3-25.1 16.4-2.4 25.1 6.3 11.6 20 6.4 25.2z" opacity=".13" fill="#fff"/><path d="M187.7 86.1c-5 5.1-16.1 2.3-24.7-6.3s-11.3-19.6-6.2-24.7 16.2-2.3 24.7 6.3 11.3 19.6 6.2 24.7z" opacity=".14" fill="#fff"/><path d="M187.5 85.7c-5 5.1-15.9 2.3-24.3-6.1s-11.1-19.2-6.1-24.2 15.9-2.3 24.3 6.1 11.1 19.2 6.1 24.2z" opacity=".15" fill="#fff"/><path d="M187.3 85.4c-5 5-15.6 2.3-23.9-6s-10.9-18.9-6-23.8 15.6-2.2 23.8 6 11 18.9 6.1 23.8z" opacity=".15" fill="#fff"/><path d="M187 85.1c-4.8 4.9-15.3 2.2-23.4-5.9s-10.7-18.5-5.9-23.4 15.3-2.1 23.4 5.9 10.7 18.6 5.9 23.4z" opacity=".16" fill="#fff"/><path d="M186.8 84.8c-4.8 4.8-15 2.2-23-5.8s-10.5-18.2-5.8-22.9 15.1-2.1 23 5.8 10.5 18.2 5.8 22.9z" opacity=".17" fill="#fff"/><path d="M186.5 84.5c-4.6 4.7-14.7 2.1-22.5-5.7s-10.3-17.8-5.6-22.5 14.7-2.1 22.4 5.7 10.4 17.9 5.7 22.5z" opacity=".18" fill="#fff"/><path d="M186.3 84.2c-4.6 4.6-14.4 2.1-22.1-5.6s-10.1-17.5-5.5-22 14.4-2.1 22 5.5 10.1 17.6 5.6 22.1z" opacity=".18" fill="#fff"/><path d="M186 83.9c-4.4 4.5-14.1 2-21.6-5.5s-9.9-17.1-5.4-21.6 14.1-2 21.6 5.5 9.9 17.1 5.4 21.6z" opacity=".19" fill="#fff"/><path d="M185.8 83.6c-4.4 4.4-13.8 2-21.2-5.4s-9.7-16.8-5.3-21.1 13.8-2 21.2 5.3 9.7 16.8 5.3 21.2z" opacity=".2" fill="#fff"/><path d="M185.6 83.3c-4.3 4.3-13.6 1.9-20.8-5.3s-9.5-16.4-5.2-20.7 13.6-1.9 20.7 5.2 9.5 16.5 5.3 20.8z" opacity=".2" fill="#fff"/><path d="M185.3 83c-4.2 4.2-13.3 1.9-20.3-5.2s-9.3-16.1-5.1-20.3 13.3-1.8 20.3 5.2 9.3 16.1 5.1 20.3z" opacity=".21" fill="#fff"/><path d="M185.1 82.6c-4.1 4.1-13 1.9-19.9-5s-9.1-15.7-5-19.8 13-1.9 19.9 5 9.1 15.8 5 19.8z" opacity=".22" fill="#fff"/><path d="M184.8 82.3c-4 4-12.7 1.9-19.4-4.9S156.5 62 160.5 58s12.7-1.8 19.4 4.9 8.9 15.4 4.9 19.4z" opacity=".23" fill="#fff"/><path d="M184.6 82c-3.9 3.9-12.4 1.8-19-4.8s-8.7-15-4.8-18.9 12.4-1.8 19 4.8 8.7 15 4.8 18.9z" opacity=".23" fill="#fff"/><path d="M184.3 81.7c-3.8 3.8-12.1 1.8-18.5-4.7s-8.5-14.7-4.7-18.5 12.2-1.7 18.6 4.7 8.5 14.7 4.6 18.5z" opacity=".24" fill="#fff"/><path d="M184.1 81.4c-3.7 3.7-11.8 1.7-18.1-4.6s-8.3-14.3-4.5-18 11.8-1.7 18 4.5 8.3 14.4 4.6 18.1z" opacity=".25" fill="#fff"/><path d="M183.9 81.1c-3.7 3.6-11.6 1.7-17.7-4.5s-8.1-13.9-4.4-17.6 11.5-1.6 17.6 4.5 8.1 14 4.5 17.6z" opacity=".25" fill="#fff"/><path d="M183.6 80.8c-3.5 3.5-11.2 1.6-17.2-4.4s-7.9-13.6-4.3-17.2 11.2-1.6 17.2 4.4 7.9 13.6 4.3 17.2z" opacity=".26" fill="#fff"/><path d="M183.4 80.5c-3.5 3.4-11 1.6-16.8-4.2s-7.7-13.3-4.2-16.8 10.9-1.6 16.7 4.2 7.7 13.3 4.3 16.8z" opacity=".27" fill="#fff"/><path d="M183.1 80.2c-3.3 3.3-10.6 1.5-16.3-4.1s-7.5-13-4.1-16.4 10.7-1.5 16.3 4.2 7.5 12.9 4.1 16.3z" opacity=".27" fill="#fff"/><path d="M182.9 79.9c-3.3 3.2-10.4 1.5-15.9-4s-7.3-12.6-4-15.9 10.4-1.5 15.9 4 7.3 12.6 4 15.9z" opacity=".28" fill="#fff"/><path d="M182.6 79.6c-3.1 3.1-10.1 1.4-15.4-3.9s-7.1-12.3-3.9-15.5 10.1-1.4 15.4 3.9 7.1 12.3 3.9 15.5z" opacity=".29" fill="#fff"/><path d="M182.4 79.2c-3.1 3.1-9.8 1.4-15-3.7s-6.9-11.9-3.8-15 9.8-1.4 15 3.7 6.9 12 3.8 15z" opacity=".3" fill="#fff"/><path d="M182.2 78.9c-3 3-9.6 1.4-14.6-3.6s-6.7-11.6-3.7-14.6 9.6-1.3 14.6 3.7 6.7 11.5 3.7 14.5z" opacity=".3" fill="#fff"/><path d="M181.9 78.6c-2.9 2.9-9.2 1.3-14.1-3.5s-6.5-11.2-3.6-14.2 9.3-1.3 14.1 3.6 6.5 11.2 3.6 14.1z" opacity=".31" fill="#fff"/><path d="M181.7 78.3c-2.8 2.8-9 1.3-13.7-3.4s-6.3-10.9-3.4-13.7 8.9-1.3 13.6 3.4 6.3 10.9 3.5 13.7z" opacity=".32" fill="#fff"/><path d="M181.4 78c-2.7 2.7-8.6 1.2-13.2-3.3s-6.1-10.5-3.3-13.3 8.6-1.2 13.2 3.4 6.1 10.5 3.3 13.2z" opacity=".32" fill="#fff"/><path d="M181.2 77.7c-2.6 2.6-8.4 1.2-12.8-3.2s-5.9-10.2-3.2-12.8 8.3-1.2 12.8 3.2 5.8 10.2 3.2 12.8z" opacity=".33" fill="#fff"/><path d="M180.9 77.4c-2.5 2.5-8 1.1-12.3-3.1s-5.7-9.8-3.1-12.4 8.1-1.1 12.3 3.1 5.7 9.8 3.1 12.4z" opacity=".34" fill="#fff"/><path d="M180.7 77.1c-2.5 2.4-7.8 1.1-11.9-3s-5.5-9.5-3-11.9 7.8-1.1 11.9 3 5.5 9.4 3 11.9z" opacity=".35" fill="#fff"/><path d="M180.5 76.8c-2.4 2.3-7.5 1-11.5-2.9s-5.3-9.1-2.9-11.5 7.5-1.1 11.5 2.9 5.2 9.1 2.9 11.5z" opacity=".35" fill="#fff"/><path d="M180.2 76.5c-2.3 2.2-7.2 1-11-2.8s-5.1-8.8-2.8-11.1 7.2-1 11 2.8 5.1 8.8 2.8 11.1z" opacity=".36" fill="#fff"/><path d="M180 76.1c-2.2 2.2-7 1-10.6-2.6s-4.9-8.4-2.7-10.6 6.9-1 10.6 2.7 4.9 8.4 2.7 10.5z" opacity=".37" fill="#fff"/><path d="M179.7 75.8c-2.1 2.1-6.6 1-10.1-2.5s-4.7-8.1-2.6-10.2 6.7-.9 10.2 2.6 4.6 8.1 2.5 10.1z" opacity=".37" fill="#fff"/><path d="M179.5 75.5c-2 2-6.4.9-9.7-2.4s-4.5-7.7-2.5-9.7 6.4-.9 9.7 2.4 4.5 7.7 2.5 9.7z" opacity=".38" fill="#fff"/><path d="M179.2 75.2c-1.9 1.9-6 .9-9.2-2.3s-4.3-7.4-2.4-9.3 6.1-.8 9.3 2.4 4.3 7.3 2.3 9.2z" opacity=".39" fill="#fff"/><path d="M179 74.9c-1.8 1.8-5.8.8-8.8-2.2s-4.1-7-2.2-8.8 5.7-.9 8.8 2.2 4 7 2.2 8.8z" opacity=".39" fill="#fff"/><path d="M178.8 74.6c-1.8 1.7-5.5.8-8.4-2.1s-3.9-6.7-2.1-8.4 5.4-.8 8.3 2.1 3.9 6.7 2.2 8.4z" opacity=".4" fill="#fff"/><path d="M178.5 74.3c-1.6 1.6-5.2.7-7.9-2s-3.7-6.3-2-7.9 5.2-.8 7.9 2 3.6 6.3 2 7.9z" opacity=".41" fill="#fff"/><path d="M178.3 74c-1.6 1.5-4.9.7-7.5-1.9s-3.5-6-1.9-7.5 4.9-.7 7.5 1.9 3.4 5.9 1.9 7.5z" opacity=".42" fill="#fff"/><path d="M178 73.7c-1.4 1.4-4.6.6-7-1.8s-3.3-5.6-1.8-7.1 4.6-.6 7 1.8 3.3 5.6 1.8 7.1z" opacity=".42" fill="#fff"/><path d="M177.8 73.4c-1.4 1.3-4.3.6-6.6-1.7s-3.1-5.3-1.7-6.6 4.3-.6 6.6 1.7 3 5.2 1.7 6.6z" opacity=".43" fill="#fff"/><path d="M177.5 73.1c-1.2 1.2-4 .5-6.1-1.6s-2.9-4.9-1.6-6.2 4-.6 6.2 1.6 2.8 4.9 1.5 6.2z" opacity=".44" fill="#fff"/><path d="M177.3 72.7c-1.2 1.2-3.7.6-5.7-1.4s-2.7-4.5-1.5-5.7 3.8-.6 5.8 1.4 2.6 4.6 1.4 5.7z" opacity=".44" fill="#fff"/><path d="M177.1 72.4c-1.1 1.1-3.5.5-5.3-1.3s-2.5-4.2-1.4-5.3 3.5-.5 5.3 1.3 2.4 4.2 1.4 5.3z" opacity=".45" fill="#fff"/><path d="M176.8 72.1c-1 1-3.2.5-4.8-1.2s-2.3-3.8-1.3-4.8 3.2-.5 4.9 1.2 2.2 3.8 1.2 4.8z" opacity=".46" fill="#fff"/><path d="M176.6 71.8c-.9.9-2.9.4-4.4-1.1s-2.1-3.5-1.1-4.4 2.8-.4 4.4 1.1 2 3.5 1.1 4.4z" opacity=".46" fill="#fff"/><path d="M176.3 71.5c-.8.8-2.6.4-3.9-1s-1.9-3.1-1-4 2.6-.3 3.9 1 1.8 3.2 1 4z" opacity=".47" fill="#fff"/><path d="M176.1 71.2c-.7.7-2.3.3-3.5-.9s-1.7-2.8-.9-3.5 2.3-.3 3.5.9 1.6 2.8.9 3.5z" opacity=".48" fill="#fff"/><path d="M175.8 70.9c-.6.6-2 .3-3-.8s-1.5-2.4-.8-3.1 2-.3 3.1.8 1.4 2.5.7 3.1z" opacity=".49" fill="#fff"/><path d="M175.6 70.6c-.5.5-1.7.2-2.6-.7s-1.3-2.1-.7-2.6 1.7-.3 2.6.6 1.2 2.1.7 2.7z" opacity=".49" fill="#fff"/><path class="cls-58" d="M175.4 70.3a1.7 1.7 0 01-2.2-.6c-.8-.7-1.1-1.7-.6-2.2s1.4-.2 2.2.6a1.7 1.7 0 01.6 2.2z"/><path d="M162.7 159.8a81.4 81.4 0 11-81.3-81.4 81.3 81.3 0 0181.3 81.4z" fill="url(#radial-gradient-3)"/><path class="cls-2" d="M145.9 151.4c-8.7 8.7-27.5 4-42-10.6s-19.2-33.3-10.6-41.9 27.5-4 42 10.6 19.3 33.3 10.6 41.9z"/><path d="M145.7 151.1c-8.6 8.6-27.2 3.9-41.6-10.5s-19-32.9-10.5-41.5 27.2-3.9 41.6 10.5 19 33 10.5 41.5z" opacity=".01" fill="#fff"/><path d="M145.4 150.8c-8.5 8.5-26.9 3.9-41.1-10.4s-18.8-32.6-10.4-41.1 26.9-3.8 41.1 10.4 18.9 32.7 10.4 41.1z" opacity=".01" fill="#fff"/><path d="M145.2 150.5c-8.4 8.4-26.6 3.8-40.7-10.3S85.9 108 94.3 99.6s26.5-3.8 40.6 10.3 18.7 32.2 10.3 40.6z" opacity=".02" fill="#fff"/><path d="M144.9 150.2c-8.3 8.3-26.3 3.8-40.2-10.2s-18.4-31.9-10.1-40.2 26.3-3.7 40.2 10.2 18.4 31.9 10.1 40.2z" opacity=".02" fill="#fff"/><path d="M144.7 149.9c-8.2 8.2-26 3.7-39.8-10.1s-18.2-31.5-10-39.7 26-3.7 39.7 10 18.3 31.6 10.1 39.8z" opacity=".03" fill="#fff"/><path d="M144.5 149.6c-8.2 8.1-25.8 3.7-39.4-10s-18-31.2-9.9-39.3 25.7-3.6 39.3 9.9 18.1 31.3 10 39.4z" opacity=".03" fill="#fff"/><path d="M144.2 149.3c-8 8-25.4 3.6-38.9-9.9s-17.8-30.8-9.8-38.8 25.4-3.7 38.9 9.8 17.8 30.9 9.8 38.9z" opacity=".04" fill="#fff"/><path d="M144 149c-8 7.9-25.2 3.6-38.5-9.8s-17.6-30.5-9.7-38.4 25.2-3.6 38.4 9.7S151.9 141 144 149z" opacity=".04" fill="#fff"/><path d="M143.7 148.7c-7.8 7.8-24.8 3.5-38-9.6s-17.4-30.2-9.6-38.1 24.9-3.5 38 9.6 17.5 30.2 9.6 38.1z" opacity=".05" fill="#fff"/><path d="M143.5 148.3c-7.8 7.8-24.6 3.6-37.6-9.4s-17.2-29.9-9.5-37.6 24.6-3.5 37.6 9.5 17.2 29.8 9.5 37.5z" opacity=".06" fill="#fff"/><path d="M143.2 148c-7.6 7.7-24.3 3.5-37.1-9.3s-17-29.5-9.4-37.2 24.3-3.4 37.1 9.4 17.1 29.5 9.4 37.1z" opacity=".06" fill="#fff"/><path d="M143 147.7c-7.6 7.6-24 3.5-36.7-9.2s-16.8-29.2-9.3-36.7 24-3.4 36.7 9.2 16.9 29.2 9.3 36.7z" opacity=".07" fill="#fff"/><path d="M142.8 147.4c-7.5 7.5-23.8 3.4-36.3-9.1s-16.6-28.8-9.2-36.3 23.8-3.4 36.3 9.2 16.6 28.7 9.2 36.2z" opacity=".07" fill="#fff"/><path d="M142.5 147.1c-7.4 7.4-23.4 3.4-35.8-9s-16.4-28.4-9-35.8 23.4-3.4 35.7 9 16.5 28.4 9.1 35.8z" opacity=".08" fill="#fff"/><path d="M142.3 146.8c-7.3 7.3-23.2 3.3-35.4-8.9s-16.2-28.1-8.9-35.4 23.1-3.3 35.3 8.9 16.3 28.1 9 35.4z" opacity=".08" fill="#fff"/><path d="M142 146.5c-7.2 7.2-22.8 3.3-34.9-8.8s-16-27.7-8.8-35 22.8-3.2 34.9 8.9 16 27.7 8.8 34.9z" opacity=".09" fill="#fff"/><path d="M141.8 146.2c-7.1 7.1-22.6 3.2-34.5-8.7s-15.8-27.4-8.7-34.5 22.5-3.2 34.5 8.7 15.8 27.4 8.7 34.5z" opacity=".1" fill="#fff"/><path d="M141.5 145.9c-7 7-22.2 3.2-34-8.6s-15.6-27-8.6-34.1 22.3-3.1 34 8.6 15.7 27.1 8.6 34.1z" opacity=".1" fill="#fff"/><path d="M141.3 145.6c-6.9 6.9-22 3.1-33.6-8.5s-15.4-26.7-8.5-33.6 22-3.2 33.6 8.5 15.4 26.6 8.5 33.6z" opacity=".11" fill="#fff"/><path d="M141.1 145.3c-6.9 6.8-21.7 3.1-33.2-8.4s-15.2-26.3-8.4-33.2 21.7-3.1 33.2 8.4 15.2 26.3 8.4 33.2z" opacity=".11" fill="#fff"/><path d="M140.8 144.9c-6.7 6.8-21.4 3.1-32.7-8.2s-15-26-8.3-32.7 21.4-3.1 32.7 8.2 15.1 26 8.3 32.7z" opacity=".12" fill="#fff"/><path d="M140.6 144.6c-6.7 6.7-21.2 3.1-32.3-8.1s-14.8-25.6-8.2-32.3 21.1-3 32.3 8.2 14.8 25.6 8.2 32.2z" opacity=".12" fill="#fff"/><path d="M140.3 144.3c-6.5 6.6-20.8 3-31.8-8s-14.6-25.3-8.1-31.9 20.9-2.9 31.9 8.1 14.6 25.3 8 31.8z" opacity=".13" fill="#fff"/><path d="M140.1 144c-6.5 6.5-20.6 3-31.4-7.9s-14.4-24.9-8-31.4 20.6-2.9 31.4 7.9 14.5 24.9 8 31.4z" opacity=".13" fill="#fff"/><path d="M139.8 143.7c-6.3 6.4-20.2 2.9-30.9-7.8s-14.2-24.6-7.8-31 20.2-2.9 30.9 7.8 14.2 24.6 7.8 31z" opacity=".14" fill="#fff"/><path d="M139.6 143.4c-6.3 6.3-20 2.9-30.5-7.7s-14-24.2-7.7-30.5 19.9-2.9 30.5 7.7 14 24.2 7.7 30.5z" opacity=".15" fill="#fff"/><path d="M139.4 143.1c-6.3 6.2-19.7 2.8-30.1-7.6s-13.8-23.9-7.6-30.1 19.7-2.8 30 7.6 13.9 23.9 7.7 30.1z" opacity=".15" fill="#fff"/><path d="M139.1 142.8c-6.1 6.1-19.4 2.7-29.6-7.5s-13.6-23.5-7.5-29.6 19.4-2.8 29.6 7.4 13.6 23.6 7.5 29.7z" opacity=".16" fill="#fff"/><path d="M138.9 142.5c-6.1 6-19.1 2.7-29.2-7.4s-13.4-23.2-7.4-29.2 19.1-2.7 29.2 7.4 13.4 23.2 7.4 29.2z" opacity=".16" fill="#fff"/><path d="M138.6 142.2c-5.9 5.9-18.8 2.6-28.7-7.3s-13.2-22.8-7.3-28.8 18.8-2.6 28.7 7.3 13.3 22.8 7.3 28.8z" opacity=".17" fill="#fff"/><path d="M138.4 141.9c-5.9 5.8-18.5 2.6-28.3-7.2s-13-22.5-7.2-28.3 18.5-2.7 28.3 7.1 13 22.5 7.2 28.4z" opacity=".17" fill="#fff"/><path d="M138.1 141.5c-5.7 5.8-18.2 2.6-27.8-7s-12.8-22.1-7.1-27.9 18.3-2.6 27.9 7.1 12.8 22.1 7 27.8z" opacity=".18" fill="#fff"/><path d="M137.9 141.2c-5.7 5.7-18 2.6-27.4-6.9s-12.6-21.8-7-27.4 18-2.6 27.5 6.9 12.6 21.8 6.9 27.4z" opacity=".19" fill="#fff"/><path d="M137.7 140.9c-5.6 5.6-17.7 2.5-27-6.8s-12.4-21.4-6.9-27 17.7-2.5 27 6.8 12.4 21.5 6.9 27z" opacity=".19" fill="#fff"/><path d="M137.4 140.6c-5.5 5.5-17.4 2.5-26.6-6.7s-12.1-21.1-6.6-26.5 17.3-2.5 26.5 6.7 12.2 21 6.7 26.5z" opacity=".2" fill="#fff"/><path d="M137.2 140.3c-5.4 5.4-17.1 2.4-26.2-6.6s-11.9-20.7-6.5-26.1 17-2.4 26.1 6.6 12 20.7 6.6 26.1z" opacity=".2" fill="#fff"/><path d="M136.9 140c-5.3 5.3-16.8 2.4-25.7-6.5s-11.7-20.4-6.4-25.7 16.8-2.4 25.6 6.5 11.8 20.4 6.5 25.7z" opacity=".21" fill="#fff"/><path d="M136.7 139.7c-5.2 5.2-16.5 2.3-25.3-6.4s-11.5-20-6.3-25.2 16.5-2.4 25.2 6.4 11.6 20 6.4 25.2z" opacity=".21" fill="#fff"/><path d="M136.4 139.4c-5.1 5.1-16.2 2.3-24.8-6.3s-11.3-19.7-6.2-24.8 16.2-2.3 24.8 6.3 11.4 19.7 6.2 24.8z" opacity=".22" fill="#fff"/><path d="M136.2 139.1c-5 5-15.9 2.2-24.4-6.2s-11.1-19.3-6.1-24.3 15.9-2.3 24.3 6.1 11.2 19.4 6.2 24.4z" opacity=".22" fill="#fff"/><path d="M136 138.8c-5 4.9-15.7 2.2-24-6.1s-10.9-19-6-23.9 15.6-2.2 23.9 6 11 19 6.1 24z" opacity=".23" fill="#fff"/><path d="M135.7 138.5c-4.8 4.8-15.3 2.1-23.5-6s-10.7-18.6-5.9-23.4 15.4-2.2 23.5 5.9 10.8 18.6 5.9 23.5z" opacity=".24" fill="#fff"/><path d="M135.5 138.1c-4.8 4.8-15.1 2.2-23.1-5.8s-10.5-18.2-5.8-23 15.1-2.1 23 5.8 10.6 18.3 5.9 23z" opacity=".24" fill="#fff"/><path d="M135.2 137.8c-4.6 4.7-14.8 2.1-22.6-5.7s-10.3-17.9-5.7-22.6 14.8-2.1 22.6 5.7 10.4 18 5.7 22.6z" opacity=".25" fill="#fff"/><path d="M135 137.5c-4.6 4.6-14.5 2.1-22.2-5.6s-10.1-17.5-5.6-22.1 14.5-2.1 22.2 5.6 10.2 17.6 5.6 22.1z" opacity=".25" fill="#fff"/><path d="M134.7 137.2c-4.4 4.5-14.2 2-21.7-5.5s-9.9-17.2-5.4-21.7 14.2-2 21.6 5.5 10 17.2 5.5 21.7z" opacity=".26" fill="#fff"/><path d="M134.5 136.9c-4.4 4.4-13.9 2-21.3-5.4s-9.7-16.8-5.3-21.2 13.9-2 21.2 5.3 9.8 16.9 5.4 21.3z" opacity=".26" fill="#fff"/><path d="M134.3 136.6c-4.3 4.3-13.7 1.9-20.9-5.3s-9.5-16.5-5.2-20.8 13.6-1.9 20.8 5.3 9.6 16.5 5.3 20.8z" opacity=".27" fill="#fff"/><path d="M134 136.3c-4.2 4.2-13.3 1.9-20.4-5.2s-9.3-16.1-5.1-20.3 13.3-1.9 20.4 5.1 9.3 16.2 5.1 20.4z" opacity=".28" fill="#fff"/><path d="M133.8 136c-4.1 4.1-13.1 1.8-20-5.1s-9.1-15.8-5-19.9 13-1.9 19.9 5 9.2 15.9 5.1 20z" opacity=".28" fill="#fff"/><path d="M133.5 135.7c-4 4-12.7 1.8-19.5-5s-8.9-15.4-4.9-19.5 12.8-1.8 19.5 5 8.9 15.5 4.9 19.5z" opacity=".29" fill="#fff"/><path d="M133.3 135.4c-3.9 3.9-12.5 1.7-19.1-4.9s-8.7-15.1-4.8-19 12.5-1.8 19.1 4.8 8.7 15.1 4.8 19.1z" opacity=".29" fill="#fff"/><path d="M133 135c-3.8 3.9-12.1 1.8-18.6-4.7s-8.5-14.7-4.7-18.6 12.2-1.7 18.6 4.7 8.6 14.8 4.7 18.6z" opacity=".3" fill="#fff"/><path d="M132.8 134.7c-3.8 3.8-11.9 1.7-18.2-4.6s-8.3-14.4-4.6-18.1 11.9-1.7 18.2 4.6 8.3 14.4 4.6 18.1z" opacity=".3" fill="#fff"/><path d="M132.6 134.4c-3.7 3.7-11.6 1.7-17.8-4.4s-8.1-14.1-4.5-17.8 11.6-1.6 17.8 4.5 8.1 14.1 4.5 17.7z" opacity=".31" fill="#fff"/><path d="M132.3 134.1c-3.6 3.6-11.3 1.6-17.3-4.3s-7.9-13.8-4.4-17.4 11.4-1.6 17.3 4.4 8 13.8 4.4 17.3z" opacity=".31" fill="#fff"/><path d="M132.1 133.8c-3.5 3.5-11.1 1.6-16.9-4.2s-7.7-13.4-4.2-16.9 11-1.6 16.8 4.3 7.7 13.3 4.3 16.8z" opacity=".32" fill="#fff"/><path d="M131.8 133.5c-3.4 3.4-10.7 1.5-16.4-4.1s-7.5-13.1-4.1-16.5 10.7-1.5 16.4 4.2 7.5 13 4.1 16.4z" opacity=".33" fill="#fff"/><path d="M131.6 133.2c-3.3 3.3-10.5 1.5-16-4s-7.3-12.7-4-16 10.4-1.5 15.9 4 7.4 12.7 4.1 16z" opacity=".33" fill="#fff"/><path d="M131.3 132.9c-3.2 3.2-10.1 1.4-15.5-3.9s-7.1-12.4-3.9-15.6 10.1-1.4 15.5 3.9 7.1 12.4 3.9 15.6z" opacity=".34" fill="#fff"/><path d="M131.1 132.6c-3.1 3.1-9.9 1.4-15.1-3.8s-6.9-12-3.8-15.1 9.9-1.4 15.1 3.8 6.9 12 3.8 15.1z" opacity=".34" fill="#fff"/><path d="M130.9 132.3c-3.1 3-9.6 1.3-14.7-3.7s-6.7-11.7-3.7-14.7 9.6-1.4 14.6 3.7 6.8 11.7 3.8 14.7z" opacity=".35" fill="#fff"/><path d="M130.6 132c-2.9 2.9-9.3 1.3-14.2-3.6s-6.5-11.3-3.6-14.3 9.3-1.3 14.2 3.6 6.5 11.3 3.6 14.3z" opacity=".35" fill="#fff"/><path d="M130.4 131.6c-2.9 2.9-9 1.3-13.8-3.4s-6.3-11-3.5-13.8 9-1.3 13.8 3.5 6.3 10.9 3.5 13.7z" opacity=".36" fill="#fff"/><path d="M130.1 131.3c-2.7 2.8-8.7 1.3-13.3-3.3s-6.1-10.6-3.4-13.4 8.8-1.2 13.4 3.4 6.1 10.6 3.3 13.3z" opacity=".37" fill="#fff"/><path d="M129.9 131c-2.7 2.7-8.4 1.2-12.9-3.2s-5.9-10.3-3.3-12.9 8.5-1.2 12.9 3.2 5.9 10.3 3.3 12.9z" opacity=".37" fill="#fff"/><path d="M129.6 130.7c-2.5 2.6-8.1 1.2-12.4-3.1s-5.7-9.9-3.2-12.5 8.2-1.1 12.5 3.2 5.7 9.9 3.1 12.4z" opacity=".38" fill="#fff"/><path d="M129.4 130.4c-2.5 2.5-7.9 1.1-12-3s-5.5-9.6-3-12 7.8-1.2 12 3 5.5 9.5 3 12z" opacity=".38" fill="#fff"/><path d="M129.2 130.1c-2.4 2.4-7.6 1.1-11.6-2.9s-5.3-9.2-2.9-11.6 7.5-1.1 11.5 2.9 5.3 9.2 3 11.6z" opacity=".39" fill="#fff"/><path d="M128.9 129.8c-2.3 2.3-7.3 1-11.1-2.8s-5.1-8.8-2.8-11.2 7.3-1 11.1 2.9 5.1 8.8 2.8 11.1z" opacity=".39" fill="#fff"/><path d="M128.7 129.5c-2.2 2.2-7 1-10.7-2.7s-4.9-8.5-2.7-10.7 7-1 10.7 2.7 4.9 8.5 2.7 10.7z" opacity=".4" fill="#fff"/><path d="M128.4 129.2c-2.1 2.1-6.7.9-10.2-2.6s-4.7-8.1-2.6-10.3 6.7-.9 10.2 2.6 4.7 8.2 2.6 10.3z" opacity=".4" fill="#fff"/><path d="M128.2 128.9c-2 2-6.4.9-9.8-2.5s-4.5-7.8-2.5-9.8 6.4-.9 9.8 2.5 4.5 7.7 2.5 9.8z" opacity=".41" fill="#fff"/><path d="M127.9 128.6c-1.9 1.9-6.1.8-9.3-2.4s-4.3-7.4-2.4-9.4 6.1-.9 9.4 2.4 4.3 7.4 2.3 9.4z" opacity=".42" fill="#fff"/><path d="M127.7 128.2c-1.8 1.9-5.8.9-8.9-2.2s-4.1-7.1-2.3-8.9 5.9-.9 8.9 2.2 4.1 7.1 2.3 8.9z" opacity=".42" fill="#fff"/><path d="M127.5 127.9c-1.8 1.8-5.6.8-8.5-2.1s-3.9-6.7-2.2-8.5 5.6-.8 8.5 2.1 3.9 6.8 2.2 8.5z" opacity=".43" fill="#fff"/><path d="M127.2 127.6c-1.6 1.7-5.2.8-8-2s-3.7-6.4-2.1-8.1 5.3-.7 8.1 2.1 3.7 6.4 2 8z" opacity=".43" fill="#fff"/><path d="M127 127.3c-1.6 1.6-5 .7-7.6-1.9s-3.5-6-2-7.6 5-.7 7.6 1.9 3.5 6.1 2 7.6z" opacity=".44" fill="#fff"/><path d="M126.7 127c-1.4 1.5-4.7.7-7.1-1.8s-3.3-5.7-1.8-7.2 4.6-.6 7.1 1.8 3.3 5.7 1.8 7.2z" opacity=".44" fill="#fff"/><path d="M126.5 126.7c-1.4 1.4-4.4.6-6.7-1.7s-3.1-5.3-1.7-6.7 4.4-.6 6.7 1.7 3.1 5.3 1.7 6.7z" opacity=".45" fill="#fff"/><path d="M126.2 126.4c-1.2 1.3-4.1.6-6.2-1.6s-2.9-5-1.6-6.3 4.1-.6 6.3 1.6 2.8 5 1.5 6.3z" opacity=".46" fill="#fff"/><path d="M126 126.1c-1.2 1.2-3.8.5-5.8-1.5s-2.7-4.6-1.5-5.8 3.8-.6 5.8 1.4 2.7 4.7 1.5 5.9z" opacity=".46" fill="#fff"/><path d="M125.8 125.8c-1.2 1.1-3.6.5-5.4-1.4s-2.5-4.3-1.4-5.4 3.5-.5 5.4 1.4 2.5 4.3 1.4 5.4z" opacity=".47" fill="#fff"/><path d="M125.5 125.5c-1 1-3.2.4-4.9-1.3s-2.3-3.9-1.3-5 3.3-.4 5 1.3 2.2 3.9 1.2 5z" opacity=".47" fill="#fff"/><path d="M125.3 125.2c-1 .9-3 .4-4.5-1.2s-2.1-3.6-1.2-4.5 3-.4 4.5 1.1 2.1 3.6 1.2 4.6z" opacity=".48" fill="#fff"/><path d="M125 124.8c-.8.9-2.6.4-4-1s-1.9-3.2-1.1-4.1 2.7-.3 4.1 1.1 1.9 3.2 1 4z" opacity=".48" fill="#fff"/><path d="M124.8 124.5c-.8.8-2.4.4-3.7-.9s-1.6-2.9-.9-3.6 2.4-.4 3.7.9 1.6 2.9.9 3.6z" opacity=".49" fill="#fff"/><path d="M124.5 124.2c-.6.7-2 .3-3.2-.8s-1.4-2.5-.8-3.2 2.1-.3 3.2.8 1.5 2.6.8 3.2z" opacity=".49" fill="#fff"/><path class="cls-58" d="M124.3 123.9c-.6.6-1.8.3-2.8-.7s-1.2-2.2-.6-2.7 1.8-.3 2.7.7 1.3 2.2.7 2.7z"/></svg>