<svg xmlns="http://www.w3.org/2000/svg" id="Layer_1" x="0" y="0" viewBox="0 0 600 600" xml:space="preserve"><style>.st0{fill:#201e1f}</style><path class="st0" d="M121.5 371.3c1.1-5.4.6-10.9.7-16.3-.1-7.1.6-14.5-1.9-21.3-2.4-7.1-8.7-12.7-16-14.5-7-1.8-14.2-.7-21.3-1-7.2-.3-14.9.5-20.8 5-6.6 4.6-9.6 12.9-9.7 20.7v41.2c0 7 2 14.4 7.1 19.4 5 5.1 12.4 7.2 19.4 7.2 13.8 0 27.7.1 41.5-.1 1-3.7 1-7.7 0-11.4-13.5-.2-27 .1-40.5-.1-5 0-10.5-2.3-12.6-7.2-2.9-6.8-1.2-14.3-1.7-21.4 18.6-.4 37.2.1 55.8-.2zM65.7 344c.2-4.6 2-9.6 6.2-12 4.9-2.8 10.7-2.1 16-2.2 5 .1 10.5-.5 14.9 2.3 4.1 2.4 6 7.3 5.9 11.9 0 5.8.1 11.7-.1 17.5-14.3.1-28.6.2-42.9 0V344zM367 333c-2.5-6.6-8.4-11.7-15.2-13.6-5.8-1.8-11.9-1-17.8-1.2-6.4.1-13-.7-19.2 1.7-8 2.7-14 10-15.2 18.3-1.4 9.5-.5 19.2-.8 28.8.2 8.7-.7 17.4 1 26 1.7 8 7.9 14.9 15.8 17.3 7.9 2.5 16.2 1.1 24.3 1.5 7.7.4 16.1-1.3 21.8-7 5.5-4.9 7.3-12.6 7.5-19.7v-34c.1-6.1.1-12.4-2.2-18.1zm-11.2 13c-.1 13.7.1 27.3-.1 41 0 5.7-4 11.3-9.8 12.4-6.6 1.1-13.3.7-20 .5-4.3-.1-8.9-1.8-11.2-5.6-2-3-2.5-6.7-2.4-10.2.1-13.4 0-26.7.1-40.1-.1-5.7 3.2-11.8 9-13.2 5.4-1.4 11.1-.6 16.6-.8 4.9-.1 10.5.2 14 4 3.2 3 3.9 7.7 3.8 12zm101.5 54V288c0-1.8-.3-3.5-.7-5.3-4-.1-8.1-.1-12.1.1-.8 15.2-.1 30.5-.4 45.8-2-2.6-3.6-5.6-6.4-7.2-4.4-2.7-9.6-3.3-14.7-3.2-7.8.2-16-1-23.2 2.8-8.2 4-12.6 13.2-12.6 22-.1 14.7-.1 29.4 0 44.1 0 8.6 4.4 17.6 12.3 21.6 8.4 4.5 18.3 2.7 27.4 3 7.2 0 13.6-3.9 17.2-10 .1 3.3.1 6.6.3 9.9 4.1.2 8.1.2 12.2.1 1-3.9.7-7.8.7-11.7zm-16-6.5c-2.9 4.4-8.2 6.4-13.3 6.4-5.1 0-10.1.2-15.2-.1-4.2-.3-8.3-2.6-10.3-6.3-1.9-3.5-2.1-7.5-2-11.4.1-12.7-.1-25.3 0-38 .1-5.6 3-11.7 8.8-13.3 5.1-1.4 10.4-.7 15.5-.9 5-.2 10.4.5 14.1 4 4 3.5 4.9 9.1 5 14.1v33c.2 4.2-.2 8.8-2.6 12.5zM546.7 358c-.2-7.6.8-15.4-1.3-22.8-2-6.7-7-12.5-13.5-15-7.9-3.3-16.6-1.7-24.9-2.1-7.1-.3-14.8.7-20.5 5.2-6.4 4.7-9.3 12.9-9.3 20.6v42c0 7 2.4 14.3 7.6 19 5.3 5.1 13 6.9 20.2 6.7 13.5-.2 27 .3 40.5-.3.3-3.7.4-7.4-.1-11.1-13.8-.5-27.6.1-41.4-.3-5.2-.2-10.8-2.9-12.4-8.1-2.2-6.6-.9-13.7-1.1-20.5 18.5-.5 37.1.3 55.7-.4 1.1-4.1.3-8.6.5-12.9zm-13.3 3.5c-14.3.1-28.6.1-43 0-.2-5.5-.1-11-.1-16.5 0-4.3 1.1-9 4.6-12 4.5-3.7 10.6-3.3 16-3.3 5 .2 10.2-.6 15 1.4 4.8 1.8 7.4 6.9 7.6 11.8.2 6.3.1 12.4-.1 18.6z"/><path d="M58.8 117.7c3.3-1.1 6.8-.8 10.2-.7 2.9.2 6-.1 8.5 1.7 2.1 1.3 3.1 3.5 4.2 5.6 20.2 39.5 40.5 78.9 60.7 118.4.1-38.2 0-76.5.1-114.7-.2-3.3 1-6.8 3.7-8.8 3.3-2.7 7.9-2.3 11.9-2.2 6.3.5 12.7-.3 19-.1 11.3.5 22.6-.4 33.9.2 21-.3 42.1.4 63.1-.2 12.6.4 25.3-.3 37.9.3 39.4-.6 78.7.2 118-.2 7.3.5 14.6-.3 22 .3 12.7-.6 25.3.4 38-.1 7.7-.5 15.4.4 23.1-.1 9.6.9 19.2-1 28.7.5 6.2 1.2 9 9 6.1 14.3-1.8 3.1-5.2 5.2-8.8 5H162.4c-.1 42.8 0 85.5-.1 128.3.1 4.4-2.7 9-7.1 10-4 .8-8 .4-12 .4-3.7.1-7.2-2.1-8.9-5.4L72.5 149.6v57.7c.1 5.3-4.9 10.1-10.2 9.7-5.1 0-9.6-4.6-9.6-9.7v-80c-.3-4.3 2.3-8.2 6.1-9.6z" fill="#94cbf1"/><path d="M202.4 166.6c8.4-2.4 17.7 3.7 18.9 12.4 1.6 8.6-5.5 17.5-14.3 17.6-8.1.6-15.9-6.3-15.9-14.4-.6-7.1 4.5-14 11.3-15.6zm45-.1c8.6-2.2 17.9 4.5 18.3 13.4 1.2 8.8-6.9 17.4-15.8 16.6-7.3-.1-13.7-6.3-14.5-13.5-.8-7.5 4.7-15 12-16.5zm49.1.3c7.5-2.4 16.3 1.9 18.8 9.4 2.9 7.4-1.2 16.7-8.7 19.3-7.7 3.2-17.7-1.2-20-9.3-3.1-7.8 2-17.1 9.9-19.4zm94 0c9.5-3.3 20.4 5.1 19.6 15.2.1 9.4-10.1 16.7-19 14.1-6.3-1.6-11.3-7.6-11.3-14.1-.5-6.8 4.2-13.4 10.7-15.2zm44.2 0c8.5-2.9 18.6 3.2 19.7 12.2 1.7 8.7-5.7 17.4-14.4 17.6-8 .5-15.7-6.4-15.8-14.5-.5-6.7 4.1-13.3 10.5-15.3zm50.8-.1c8.5-2.6 18.2 3.6 19.2 12.5 1.5 8.7-5.9 17.4-14.7 17.4-7.7.4-15-6-15.5-13.7-1-7.2 4-14.5 11-16.2zm-145.3 39.4c8.6-2.7 18.4 3.9 19.2 12.9 1.3 8.7-6.5 17.5-15.4 16.9-8 .3-15.2-6.9-14.9-14.9-.3-6.8 4.6-13.2 11.1-14.9zm92.2.3c8.3-3.3 18.4 2.5 19.9 11.3 1.9 8.1-4 17-12.3 18-7.3 1.4-15.3-3.3-17.2-10.6-2.4-7.5 2.1-16.3 9.6-18.7zm94 .3c7.1-3.1 16.4.4 19.5 7.6 3.9 7.5 0 17.7-8 20.6-7.1 3-16-.3-19.4-7.3-3.9-7.6-.2-18 7.9-20.9zm-230 39c7.9-2.7 17.2 2.3 19.2 10.4 2.5 7.8-2.7 16.8-10.5 18.7-7.8 2.4-17.1-2.8-18.8-10.8-2.3-7.6 2.7-16 10.1-18.3z" fill="#acacae"/><path class="st0" d="M67.5 459.9c-.5-1.7-1.3-3-2.4-3.9-1.1-.9-2.6-1.4-4.3-1.4-1.3 0-2.5.3-3.4.8-1 .6-1.7 1.3-2.3 2.2-.6.9-1.1 1.9-1.3 3.1-.3 1.1-.4 2.3-.4 3.5 0 1.2.1 2.3.4 3.5.3 1.1.7 2.1 1.3 3 .6.9 1.4 1.6 2.3 2.2 1 .5 2.1.8 3.5.8 1.9 0 3.5-.5 4.7-1.6 1.2-1.1 1.9-2.6 2.2-4.4h2.8c-.2 1.2-.6 2.4-1.1 3.4-.5 1-1.2 1.9-2 2.7-.8.7-1.7 1.3-2.8 1.7-1.1.4-2.4.6-3.8.6-1.8 0-3.3-.3-4.7-.9-1.3-.6-2.4-1.4-3.2-2.5-.8-1.1-1.5-2.3-1.9-3.8-.4-1.4-.6-3-.6-4.7 0-1.6.2-3.1.7-4.5.4-1.4 1.1-2.7 2-3.8.9-1.1 1.9-2 3.2-2.6 1.3-.7 2.8-1 4.5-1 2.6 0 4.7.6 6.3 1.9 1.6 1.2 2.6 3.2 3 5.8h-2.7zm8.1 21.5c.3.1.7.1 1.1.2.4.1.7.1 1.1.1.7 0 1.3-.2 1.8-.7.5-.5.8-1 1.2-1.7.3-.7.6-1.3.8-2 .2-.7.4-1.3.7-1.8l-8.7-22.7h2.9l7.2 19.3 7.2-19.3h2.8L85.2 475c-.5 1.4-1 2.7-1.5 3.8-.5 1.1-1 2.1-1.5 2.9-.5.8-1.1 1.4-1.8 1.8-.7.4-1.4.6-2.3.6-.5 0-.9 0-1.3-.1s-.8-.1-1.2-.2v-2.4zm24.8-6.1h-2.6V444h2.6v12.4c.8-1.4 2-2.4 3.5-3.2 1.5-.7 3-1.1 4.6-1.1 1.7 0 3.2.3 4.5 1 1.3.7 2.3 1.5 3.1 2.6.8 1.1 1.4 2.4 1.8 3.8.4 1.4.6 3 .6 4.5 0 1.7-.2 3.2-.6 4.7-.4 1.4-1 2.7-1.8 3.8-.8 1.1-1.9 1.9-3.2 2.5-1.3.6-2.8.9-4.7.9-.7 0-1.5-.1-2.2-.3-.8-.2-1.5-.5-2.2-.9-.7-.4-1.4-.8-2-1.4-.6-.6-1.1-1.2-1.5-2h-.1v4zm0-11.3c0 1.4.2 2.6.5 3.8.3 1.2.8 2.2 1.5 3 .6.9 1.4 1.5 2.4 2s2 .7 3.3.7c1.1 0 2.1-.2 3-.6.9-.4 1.7-1 2.4-1.7.7-.8 1.2-1.7 1.6-2.8.4-1.1.6-2.3.6-3.8.1-1.4-.1-2.7-.3-4-.3-1.2-.8-2.3-1.4-3.2-.6-.9-1.5-1.7-2.5-2.2-1-.5-2.2-.8-3.5-.8-1.2 0-2.3.3-3.2.8-.9.5-1.7 1.2-2.4 2-.7.9-1.2 1.9-1.5 3s-.5 2.5-.5 3.8zm25.3.7c0 1.2.2 2.4.5 3.5s.8 2 1.4 2.8c.6.8 1.4 1.4 2.4 1.9s2.1.7 3.3.7c1.7 0 3.2-.4 4.4-1.3 1.2-.9 2-2.2 2.4-3.8h2.9c-.3 1.1-.7 2.1-1.3 3-.5.9-1.2 1.7-2 2.4s-1.7 1.2-2.8 1.6c-1.1.4-2.3.6-3.7.6-1.8 0-3.3-.3-4.7-.9-1.3-.6-2.4-1.4-3.2-2.5-.8-1.1-1.5-2.3-1.9-3.7-.4-1.4-.6-3-.6-4.6s.2-3.2.7-4.7c.5-1.4 1.2-2.7 2-3.8.9-1.1 2-1.9 3.2-2.6 1.3-.6 2.7-.9 4.3-.9 3.1 0 5.5 1.1 7.3 3.2 1.8 2.1 2.6 5.2 2.6 9.3h-17.2zm14.7-2.2c0-1.1-.2-2.1-.5-3.1s-.8-1.8-1.3-2.5c-.6-.7-1.3-1.3-2.2-1.7-.9-.4-1.9-.6-3.1-.6-1.2 0-2.2.2-3.1.7-.9.4-1.6 1-2.3 1.7-.6.7-1.1 1.6-1.5 2.5-.4 1-.6 2-.7 3h14.7zm10.6 12.8h-2.6v-22.5h2.6v4.2h.1c.7-1.8 1.7-3 2.8-3.8 1.1-.7 2.7-1.1 4.5-1.1v2.8c-1.5 0-2.7.2-3.7.7-1 .5-1.7 1.2-2.3 2-.6.8-1 1.8-1.2 3-.2 1.1-.3 2.3-.3 3.6v11.1zm31.7.1c-.3.1-.7.2-1.3.3-.5.1-1.1.2-1.7.2-1.3 0-2.3-.3-3-1-.7-.7-1-1.8-1-3.5V455h-3.2v-2.2h3.2v-6.3h2.6v6.3h4.2v2.2h-4.2v16.8c0 .4.1.7.3 1 .1.3.4.4.7.6.3.1.7.2 1.3.2.3 0 .7 0 1.1-.1.4-.1.7-.1 1.1-.2v2.1zm4.2-.1V444h2.6v11.9c1-1.1 2.1-2 3.2-2.7 1.1-.7 2.5-1 4-1 1.4 0 2.7.2 3.9.7 1.2.5 2.2 1.3 3 2.5.6.8.9 1.6 1 2.5.1.9.2 1.7.2 2.7v14.7h-2.6v-14.7c0-2-.4-3.6-1.3-4.6-.9-1-2.4-1.5-4.5-1.5-.8 0-1.6.1-2.2.4-.7.2-1.3.6-1.8 1s-1 .9-1.4 1.4c-.4.5-.7 1.1-.9 1.7-.3.7-.4 1.4-.5 2.1-.1.7-.1 1.4-.1 2.2v12.1h-2.6zm26.9 0h-2.6v-22.5h2.6v4.2h.1c.7-1.8 1.7-3 2.8-3.8 1.1-.7 2.7-1.1 4.5-1.1v2.8c-1.5 0-2.7.2-3.7.7-1 .5-1.7 1.2-2.3 2-.6.8-1 1.8-1.2 3-.2 1.1-.3 2.3-.3 3.6v11.1zm13.3-10.6c0 1.2.2 2.4.5 3.5s.8 2 1.4 2.8c.6.8 1.4 1.4 2.4 1.9s2.1.7 3.3.7c1.7 0 3.2-.4 4.4-1.3 1.2-.9 2-2.2 2.4-3.8h2.9c-.3 1.1-.7 2.1-1.3 3-.5.9-1.2 1.7-2 2.4s-1.7 1.2-2.8 1.6c-1.1.4-2.3.6-3.7.6-1.8 0-3.3-.3-4.7-.9-1.3-.6-2.4-1.4-3.2-2.5-.8-1.1-1.5-2.3-1.9-3.7-.4-1.4-.6-3-.6-4.6s.2-3.2.7-4.7c.5-1.4 1.2-2.7 2-3.8.9-1.1 2-1.9 3.2-2.6 1.3-.6 2.7-.9 4.3-.9 3.1 0 5.5 1.1 7.3 3.2 1.8 2.1 2.6 5.2 2.6 9.3h-17.2zm14.7-2.2c0-1.1-.2-2.1-.5-3.1s-.8-1.8-1.3-2.5c-.6-.7-1.3-1.3-2.2-1.7-.9-.4-1.9-.6-3.1-.6-1.2 0-2.2.2-3.1.7-.9.4-1.6 1-2.3 1.7-.6.7-1.1 1.6-1.5 2.5-.4 1-.6 2-.7 3h14.7zm18.3-.3c.5-.1 1.1-.1 1.8-.3.7-.1 1.2-.3 1.7-.5.4-.2.7-.5.8-1 .1-.5.2-.9.2-1.3 0-1.3-.4-2.4-1.3-3.3-.9-.9-2.3-1.3-4.3-1.3-.9 0-1.7.1-2.5.2-.8.2-1.4.4-2 .8-.6.4-1 .9-1.4 1.6-.4.7-.6 1.5-.7 2.5h-2.7c.1-1.3.4-2.5.9-3.4.5-.9 1.2-1.7 2-2.3.8-.6 1.8-1 2.9-1.3s2.2-.4 3.5-.4c1.1 0 2.2.1 3.2.4 1 .2 1.9.6 2.6 1.2.7.5 1.3 1.3 1.7 2.2.4.9.6 2 .6 3.3v12.3c0 1 .2 1.7.5 1.9.4.3 1.1.2 2.2-.2v2c-.2.1-.5.1-.9.3-.4.1-.8.2-1.2.2-.4 0-.8 0-1.2-.1-.4-.1-.8-.2-1-.4-.3-.2-.5-.5-.6-.8-.2-.3-.3-.6-.3-1-.1-.4-.1-.7-.1-1.2-1.1 1.2-2.4 2.1-3.8 2.8-1.4.6-3 1-4.6 1-1 0-1.9-.1-2.8-.4-.9-.3-1.7-.7-2.4-1.2s-1.2-1.2-1.7-2c-.4-.8-.6-1.7-.6-2.8 0-3.8 2.6-6.1 7.9-6.8l3.6-.7zm4.4 1.3c-1.1.5-2.2.8-3.3.9-1.1.1-2.3.3-3.4.3-2 .1-3.6.6-4.7 1.3-1.1.8-1.7 1.9-1.7 3.4 0 .7.1 1.3.4 1.8.3.5.6.9 1.1 1.3.4.3 1 .6 1.6.7.6.2 1.2.2 1.8.2 1 0 2.1-.1 3-.4 1-.3 1.9-.7 2.6-1.2.8-.5 1.4-1.2 1.8-2 .5-.8.7-1.8.7-2.9v-3.4zm17.3 11.9c-.3.1-.7.2-1.3.3-.5.1-1.1.2-1.7.2-1.3 0-2.3-.3-3-1-.7-.7-1-1.8-1-3.5V455h-3.2v-2.2h3.2v-6.3h2.6v6.3h4.2v2.2h-4.2v16.8c0 .4.1.7.3 1 .1.3.4.4.7.6.3.1.7.2 1.3.2.3 0 .7 0 1.1-.1.4-.1.7-.1 1.1-.2v2.1zm18.5-.1h-2.6v-22.5h2.6v3.4h.1c.7-1.3 1.6-2.3 2.9-3 1.2-.7 2.6-1 4.1-1 1 0 1.9.1 2.7.3.7.2 1.3.5 1.8.9s.9.8 1.3 1.4c.3.5.6 1.1.8 1.7.8-1.5 1.8-2.6 3-3.3 1.3-.7 2.7-1.1 4.3-1.1 1.5 0 2.8.3 3.7.8.9.5 1.6 1.2 2.1 2s.8 1.8 1 2.8c.2 1.1.2 2.2.2 3.3v14.2h-2.6v-15.6c0-1.6-.3-2.9-1-3.8-.7-.9-1.9-1.4-3.8-1.4-1 0-1.9.2-2.8.6-.9.4-1.7 1.1-2.3 1.9-.3.4-.5.8-.7 1.3-.2.5-.3 1-.5 1.6-.1.6-.2 1.1-.2 1.7 0 .6-.1 1.1-.1 1.5v12.1h-2.6v-15.6c0-1.6-.3-2.9-1-3.8-.7-.9-1.9-1.4-3.8-1.4-1 0-1.9.2-2.8.6-.9.4-1.7 1.1-2.3 1.9-.3.4-.5.8-.7 1.3-.2.5-.3 1-.5 1.6-.1.6-.2 1.1-.2 1.7 0 .6-.1 1.1-.1 1.5v12.4zm44.3-13.1c.5-.1 1.1-.1 1.8-.3.7-.1 1.2-.3 1.7-.5.4-.2.7-.5.8-1 .1-.5.2-.9.2-1.3 0-1.3-.4-2.4-1.3-3.3-.9-.9-2.3-1.3-4.3-1.3-.9 0-1.7.1-2.5.2-.8.2-1.4.4-2 .8-.6.4-1 .9-1.4 1.6s-.6 1.5-.7 2.5h-2.7c.1-1.3.4-2.5.9-3.4.5-.9 1.2-1.7 2-2.3.8-.6 1.8-1 2.9-1.3 1.1-.3 2.2-.4 3.5-.4 1.1 0 2.2.1 3.2.4 1 .2 1.9.6 2.6 1.2.7.5 1.3 1.3 1.7 2.2.4.9.6 2 .6 3.3v12.3c0 1 .2 1.7.5 1.9.4.3 1.1.2 2.2-.2v2c-.2.1-.5.1-.9.3-.4.1-.8.2-1.2.2-.4 0-.8 0-1.2-.1-.4-.1-.8-.2-1-.4-.3-.2-.5-.5-.6-.8-.2-.3-.3-.6-.3-1-.1-.4-.1-.7-.1-1.2-1.1 1.2-2.4 2.1-3.8 2.8-1.4.6-3 1-4.6 1-1 0-1.9-.1-2.8-.4-.9-.3-1.7-.7-2.4-1.2s-1.2-1.2-1.7-2c-.4-.8-.6-1.7-.6-2.8 0-3.8 2.6-6.1 7.9-6.8l3.6-.7zm4.4 1.3c-1.1.5-2.2.8-3.3.9-1.1.1-2.3.3-3.4.3-2 .1-3.6.6-4.7 1.3-1.1.8-1.7 1.9-1.7 3.4 0 .7.1 1.3.4 1.8.3.5.6.9 1.1 1.3.4.3 1 .6 1.6.7.6.2 1.2.2 1.8.2 1 0 2.1-.1 3-.4 1-.3 1.9-.7 2.6-1.2.8-.5 1.4-1.2 1.8-2 .5-.8.7-1.8.7-2.9v-3.4zm12.1 11.8h-2.6v-22.5h2.6v3.1c1-1.1 2.1-2 3.2-2.7 1.1-.7 2.5-1 4-1 1.4 0 2.7.2 3.9.7 1.2.5 2.2 1.3 3 2.5.6.8.9 1.6 1 2.5.1.9.2 1.7.2 2.7v14.7h-2.6v-14.7c0-2-.4-3.6-1.3-4.6s-2.4-1.5-4.5-1.5c-.8 0-1.6.1-2.2.4-.7.2-1.3.6-1.8 1s-1 .9-1.4 1.4c-.4.5-.7 1.1-.9 1.7-.3.7-.4 1.4-.5 2.1-.1.7-.1 1.4-.1 2.2v12zm31.9-13.1c.5-.1 1.1-.1 1.8-.3.7-.1 1.2-.3 1.7-.5.4-.2.7-.5.8-1 .1-.5.2-.9.2-1.3 0-1.3-.4-2.4-1.3-3.3-.9-.9-2.3-1.3-4.3-1.3-.9 0-1.7.1-2.5.2-.8.2-1.4.4-2 .8-.6.4-1 .9-1.4 1.6-.4.7-.6 1.5-.7 2.5h-2.7c.1-1.3.4-2.5.9-3.4.5-.9 1.2-1.7 2-2.3.8-.6 1.8-1 2.9-1.3 1.1-.3 2.2-.4 3.5-.4 1.1 0 2.2.1 3.2.4 1 .2 1.9.6 2.6 1.2.7.5 1.3 1.3 1.7 2.2.4.9.6 2 .6 3.3v12.3c0 1 .2 1.7.5 1.9.4.3 1.1.2 2.2-.2v2c-.2.1-.5.1-.9.3-.4.1-.8.2-1.2.2-.4 0-.8 0-1.2-.1-.4-.1-.8-.2-1-.4-.3-.2-.5-.5-.6-.8-.2-.3-.3-.6-.3-1-.1-.4-.1-.7-.1-1.2-1.1 1.2-2.4 2.1-3.8 2.8-1.4.6-3 1-4.6 1-1 0-1.9-.1-2.8-.4-.9-.3-1.7-.7-2.4-1.2s-1.2-1.2-1.7-2c-.4-.8-.6-1.7-.6-2.8 0-3.8 2.6-6.1 7.9-6.8l3.6-.7zm4.4 1.3c-1.1.5-2.2.8-3.3.9-1.1.1-2.3.3-3.4.3-2 .1-3.6.6-4.7 1.3-1.1.8-1.7 1.9-1.7 3.4 0 .7.1 1.3.4 1.8.3.5.6.9 1.1 1.3.4.3 1 .6 1.6.7.6.2 1.2.2 1.8.2 1 0 2.1-.1 3-.4 1-.3 1.9-.7 2.6-1.2.8-.5 1.4-1.2 1.8-2 .5-.8.7-1.8.7-2.9v-3.4zm26.8-10.7h2.6v20.3c0 1.5-.2 2.9-.5 4.3s-.8 2.6-1.6 3.6-1.9 1.9-3.2 2.5c-1.4.6-3.1.9-5.3.9-1.7 0-3.1-.2-4.3-.6-1.2-.4-2.2-.9-2.9-1.6-.8-.6-1.3-1.3-1.7-2.1-.4-.8-.6-1.5-.6-2.2h2.8c.2.8.5 1.5 1 2.1.4.5.9 1 1.5 1.3.6.3 1.3.5 2 .6.7.1 1.5.2 2.3.2 1.8 0 3.2-.3 4.3-.9 1.1-.6 1.9-1.4 2.4-2.4.6-1 .9-2.1 1.1-3.3.2-1.2.2-2.5.2-3.8-.8 1.4-2 2.4-3.5 3.2-1.5.7-3 1.1-4.6 1.1-1.7 0-3.2-.3-4.5-1s-2.3-1.5-3.1-2.6c-.8-1.1-1.4-2.4-1.8-3.8-.4-1.4-.6-3-.6-4.5 0-1.7.2-3.2.6-4.7.4-1.4 1-2.7 1.8-3.8.8-1.1 1.9-1.9 3.2-2.5 1.3-.6 2.8-.9 4.7-.9.7 0 1.5.1 2.2.3.8.2 1.5.5 2.2.9.7.4 1.4.9 2 1.4.6.6 1.1 1.2 1.5 2h.1v-4zm0 11.3c0-1.4-.2-2.6-.5-3.8-.3-1.2-.8-2.2-1.5-3-.6-.9-1.4-1.5-2.4-2s-2-.7-3.3-.7c-1.1 0-2.1.2-3 .6-.9.4-1.7 1-2.4 1.7s-1.2 1.7-1.6 2.8-.6 2.3-.6 3.8c-.1 1.4.1 2.7.3 4 .3 1.2.8 2.3 1.4 3.2.6.9 1.4 1.7 2.4 2.2 1 .5 2.2.8 3.5.8 1.2 0 2.3-.3 3.2-.8s1.7-1.2 2.4-2c.7-.9 1.2-1.9 1.5-3 .4-1.3.6-2.5.6-3.8zm10.8.6c0 1.2.2 2.4.5 3.5s.8 2 1.4 2.8c.6.8 1.4 1.4 2.4 1.9s2.1.7 3.3.7c1.7 0 3.2-.4 4.4-1.3 1.2-.9 2-2.2 2.4-3.8h2.9c-.3 1.1-.7 2.1-1.3 3-.5.9-1.2 1.7-2 2.4s-1.7 1.2-2.8 1.6-2.3.6-3.7.6c-1.8 0-3.3-.3-4.7-.9-1.3-.6-2.4-1.4-3.2-2.5-.8-1.1-1.5-2.3-1.9-3.7-.4-1.4-.6-3-.6-4.6s.2-3.2.7-4.7c.5-1.4 1.2-2.7 2-3.8.9-1.1 2-1.9 3.2-2.6 1.3-.6 2.7-.9 4.3-.9 3.1 0 5.5 1.1 7.3 3.2 1.8 2.1 2.6 5.2 2.6 9.3H435zm14.7-2.2c0-1.1-.2-2.1-.5-3.1s-.8-1.8-1.3-2.5c-.6-.7-1.3-1.3-2.2-1.7-.9-.4-1.9-.6-3.1-.6-1.2 0-2.2.2-3.1.7-.9.4-1.6 1-2.3 1.7-.6.7-1.1 1.6-1.5 2.5-.4 1-.6 2-.7 3h14.7zm10.1 12.8h-2.6v-22.5h2.6v3.4h.1c.7-1.3 1.6-2.3 2.9-3 1.2-.7 2.6-1 4.1-1 1 0 1.9.1 2.7.3.7.2 1.3.5 1.8.9s.9.8 1.3 1.4c.3.5.6 1.1.8 1.7.8-1.5 1.8-2.6 3-3.3 1.3-.7 2.7-1.1 4.3-1.1 1.5 0 2.8.3 3.7.8.9.5 1.6 1.2 2.1 2s.8 1.8 1 2.8c.2 1.1.2 2.2.2 3.3v14.2h-2.6v-15.6c0-1.6-.3-2.9-1-3.8-.7-.9-1.9-1.4-3.8-1.4-1 0-1.9.2-2.8.6-.9.4-1.7 1.1-2.3 1.9-.3.4-.5.8-.7 1.3-.2.5-.3 1-.5 1.6-.1.6-.2 1.1-.2 1.7 0 .6-.1 1.1-.1 1.5v12.1h-2.6v-15.6c0-1.6-.3-2.9-1-3.8-.7-.9-1.9-1.4-3.8-1.4-1 0-1.9.2-2.8.6-.9.4-1.7 1.1-2.3 1.9-.3.4-.5.8-.7 1.3-.2.5-.3 1-.5 1.6-.1.6-.2 1.1-.2 1.7 0 .6-.1 1.1-.1 1.5v12.4zm35.6-10.6c0 1.2.2 2.4.5 3.5s.8 2 1.4 2.8c.6.8 1.4 1.4 2.4 1.9s2.1.7 3.3.7c1.7 0 3.2-.4 4.4-1.3 1.2-.9 2-2.2 2.4-3.8h2.9c-.3 1.1-.7 2.1-1.3 3-.5.9-1.2 1.7-2 2.4s-1.7 1.2-2.8 1.6c-1.1.4-2.3.6-3.7.6-1.8 0-3.3-.3-4.7-.9-1.3-.6-2.4-1.4-3.2-2.5-.8-1.1-1.5-2.3-1.9-3.7-.4-1.4-.6-3-.6-4.6s.2-3.2.7-4.7c.5-1.4 1.2-2.7 2-3.8.9-1.1 2-1.9 3.2-2.6 1.3-.6 2.7-.9 4.3-.9 3.1 0 5.5 1.1 7.3 3.2 1.8 2.1 2.6 5.2 2.6 9.3h-17.2zm14.7-2.2c0-1.1-.2-2.1-.5-3.1s-.8-1.8-1.3-2.5c-.6-.7-1.3-1.3-2.2-1.7-.9-.4-1.9-.6-3.1-.6-1.2 0-2.2.2-3.1.7-.9.4-1.6 1-2.3 1.7-.6.7-1.1 1.6-1.5 2.5-.4 1-.6 2-.7 3h14.7zm10.4 12.8h-2.6v-22.5h2.6v3.1c1-1.1 2.1-2 3.2-2.7 1.1-.7 2.5-1 4-1 1.4 0 2.7.2 3.9.7 1.2.5 2.2 1.3 3 2.5.6.8.9 1.6 1 2.5.1.9.2 1.7.2 2.7v14.7h-2.6v-14.7c0-2-.4-3.6-1.3-4.6s-2.4-1.5-4.5-1.5c-.8 0-1.6.1-2.2.4-.7.2-1.3.6-1.8 1s-1 .9-1.4 1.4c-.4.5-.7 1.1-.9 1.7-.3.7-.4 1.4-.5 2.1-.1.7-.1 1.4-.1 2.2v12zm29.5.1c-.3.1-.7.2-1.3.3-.5.1-1.1.2-1.7.2-1.3 0-2.3-.3-3-1-.7-.7-1-1.8-1-3.5V455h-3.2v-2.2h3.2v-6.3h2.6v6.3h4.2v2.2h-4.2v16.8c0 .4.1.7.3 1 .1.3.4.4.7.6.3.1.7.2 1.3.2.3 0 .7 0 1.1-.1.4-.1.7-.1 1.1-.2v2.1zM175 329.8c5.3.2 11.2-.7 16 2.3 4.4 2.7 5.9 8 6.1 12.9.3 22.2-.3 44.4.3 66.5 4.2.2 8.5.6 12.7-.2.5-2.4.4-4.9.4-7.3-.1-20.2.1-40.4-.1-60.6-.1-8.7-4-17.8-11.9-22-7.4-4.3-16.3-3-24.5-3.2-4.5-.1-9.1.6-13.1 2.9-2.8 1.8-4.6 4.6-6.6 7.2-.2-3.2.7-6.7-.6-9.8-4.1-.7-8.2-.3-12.3-.2-.3 2.2-.7 4.5-.6 6.7v72c0 4.9-.3 9.8.6 14.6 4.2 0 8.6.9 12.6-.5.5-2.3.3-4.7.3-7V348c-.2-5 .8-10.4 4.6-14 4.3-4.1 10.6-4.3 16.1-4.2zm81.9 70.1c-3.6-.2-7.5-1-10-3.8-3.2-3.2-4-7.9-4.1-12.2V350c-.1-4.7-.1-9.6 2.2-13.8 2-3.6 6-5.8 10-6.1 10.2-.6 20.4.3 30.5-.5.3-3.7.3-7.5 0-11.2-9.8-.4-19.6-.1-29.4-.2-7.1-.1-14.6 2-19.6 7.3-5.1 5.1-7.1 12.5-7 19.5 0 13.9-.1 27.8.1 41.7.1 8.7 4.5 17.7 12.4 21.8 5.8 3.3 12.7 3.4 19.2 3.3 8.1-.1 16.3.2 24.4-.2.3-3.8.4-7.6-.1-11.3-9.6-.6-19.1-.2-28.6-.4z"/></svg>