<?xml version="1.0" encoding="UTF-8"?> <!-- Generator: Adobe Illustrator 24.1.3, SVG Export Plug-In . SVG Version: 6.00 Build 0) --> <svg xmlns="http://www.w3.org/2000/svg" xmlns:xlink="http://www.w3.org/1999/xlink" id="Layer_1" x="0px" y="0px" viewBox="0 0 646.8 696.3" style="enable-background:new 0 0 646.8 696.3;" xml:space="preserve"> <style type="text/css"> .st0{fill:#197A69;} .st1{fill:#1A796A;} .st2{fill:#CAD9D4;} .st3{fill:#4A8A7C;} .st4{fill:#B6CDC5;} .st5{fill:#9FBEB6;} .st6{fill:#8AB2A7;} .st7{fill:#76A49A;} .st8{fill:#5F978A;} </style> <image style="display:none;overflow:visible;opacity:0.6;" width="200" height="200" xlink:href="0.png" transform="matrix(3.0642 0 0 3.0642 19.1155 25.52)"> </image> <path class="st0" d="M506.5,422c19.3,0.1,38.6,0.1,57.9,0c0.1,28,0.2,55.9,0,83.9c-19.3,0-38.5-0.1-57.8,0 C506.4,477.9,506.5,450,506.5,422z"></path> <g> <path class="st1" d="M565.1,56.1c-7,0-14.1,0-21.1,0c-0.1,57.5,0,115.1-0.1,172.6c7.1,0,14.1,0,21.2,0 C565.2,171.1,565.2,113.6,565.1,56.1z"></path> <path class="st1" d="M177.1,110.7c-8.4-7.4-19.6-10.9-30.7-11.2c-14.3-0.5-29.3,3.1-40.4,12.5c-13,10.9-19.4,27.7-21.2,44.2 c-2.1,18.2-0.2,37.9,10.4,53.3c8.7,13.5,24.3,21.7,40.2,22.5c10.8,0.3,22.1,0.1,32.1-4.5c15.1-7.1,26.2-22,29-38.4 c-7.1,0.1-14.1,0-21.2,0.1c-2.5,14.3-16.9,24.4-31,24.5c-10.4,0.5-21.6-2.6-28.6-10.8c-7-8.4-9.1-19.7-9-30.3 c30.5,0.2,60.9,0.1,91.4,0.1c0.3-10.4-0.9-20.8-3.4-30.9C191.8,130.1,186.4,118.6,177.1,110.7z M106.8,155.6 c0.1-11.3,5.5-22.5,14.2-29.6c12-9.9,30.9-9.8,43-0.2c8.5,7.3,11.8,18.9,12.2,29.8C153.1,155.6,129.9,155.7,106.8,155.6z"></path> <path class="st1" d="M407.7,100c-7.1-0.8-14.5-0.4-20.9,2.9c-8.9,4.6-15.9,12.5-20.1,21.4c-0.5-7.1-0.3-14.2-0.2-21.2 c-6.7-0.4-13.4-0.2-20.2-0.1c0.1,41.9-0.1,83.8,0.1,125.6c7,0.1,14,0,21.1,0.1c0-26-0.2-52.1,0.1-78.1c1.8-9.2,6.4-18.3,14.6-23.4 c7.5-5.2,16.9-5.1,25.6-5.2C407.7,114.7,407.7,107.3,407.7,100z"></path> <path class="st1" d="M525,172.6c0-10.8-0.9-21.7-3.8-32.2c-3.4-12.7-10.1-25.1-21.1-32.7c-12.3-8.7-28.3-9.6-42.7-7.1 c-12.9,2.3-24.9,9.3-32.7,19.9c-10.8,14.5-14.2,33.2-13.9,50.9c0.3,14.4,4.2,29,12.9,40.5c8.8,11.8,23.1,19.1,37.8,19.9 c11.8,0.5,24.3,0.1,35-5.6c14-7.4,24-21.8,26.8-37.3c-7,0-14,0-21,0c-2.9,14.1-16.8,24.4-30.9,24.5c-9.9,0.4-20.7-2-27.6-9.6 c-8.1-8.2-10.1-20.3-10.3-31.4C464,172.7,494.5,172.7,525,172.6z M433.5,155.6c0.1-13.3,7.6-26.4,19.3-32.9 c7.5-4.4,16.5-4.8,24.8-3c7.9,1.6,15.3,6.4,19.2,13.5c4.1,6.7,5.6,14.7,6.2,22.5C479.9,155.6,456.7,155.7,433.5,155.6z"></path> <path class="st1" d="M297.3,103c0,22.8,0,45.6,0,68.4c0,10.1-2,20.7-7.8,29.1c-5.5,8.2-15.3,13.2-25.1,13.2 c-6.8,0.4-14.2-1.2-18.9-6.4c-5.6-5.8-6.7-14.2-6.8-21.9c-0.1-27.5,0-55,0-82.5c-7-0.1-13.9-0.1-20.9,0c0,29.8,0,59.6,0,89.5 c-0.1,4.3,0.1,8.7,1.2,12.9c2.2,9.5,8.7,18,17.6,22.1c10.3,5.3,22.5,5.5,33.8,3.8c12.2-2,22.2-10.8,28-21.4 c0.1,6.3,0,12.5,0.2,18.8c6.6,0.1,13.3,0.1,19.9,0.1c0-41.9,0-83.8,0-125.8C311.4,102.9,304.4,102.8,297.3,103z"></path> </g> <g> <path class="st2" d="M82.8,325.8c18.2,0.1,36.4,0.1,54.7,0c1.1,0.2,3.4-0.5,3.2,1.4c0.2,27.4,0.1,54.9,0.1,82.4 c-18.8,0.1-37.6,0-56.4,0c-2,0.4-1.4-2-1.6-3.2C82.8,379.6,82.7,352.7,82.8,325.8z"></path> </g> <g> <path class="st3" d="M506.4,325.9c19.3,0,38.7,0,58,0c0,27.9,0.1,55.9,0,83.8c-19.3-0.1-38.6-0.1-57.9,0 C506.3,381.7,506.4,353.8,506.4,325.9z"></path> <path class="st3" d="M435.8,505.9c0-28-0.1-55.9,0.1-83.9c19.4,0.1,38.8,0,58.2,0.1c-0.1,27.9,0,55.8,0,83.7 C474.6,505.9,455.2,505.7,435.8,505.9z"></path> </g> <g> <path class="st4" d="M153.1,325.9c19.3,0,38.7,0,58-0.1c0.4,20.1,0.1,40.3,0.2,60.5c-0.1,7.8,0.3,15.6-0.3,23.4 c-14.2-0.2-28.3,0-42.4-0.1c-5.2-0.1-10.4,0.4-15.5-0.5C153.4,381.4,153.1,353.6,153.1,325.9z"></path> <path class="st4" d="M82.6,426.4c0.4-1.4-0.8-4.5,1.6-4.2c18.4-0.2,36.9-0.1,55.4,0c0.2,0.2,0.7,0.7,0.9,0.9 c0.1,27.5,0.1,55.1,0,82.6c-3.7,0.6-7.5,0.2-11.2,0.3c-15.5,0-31,0-46.5,0C82.4,479.3,82.8,452.8,82.6,426.4z"></path> </g> <g> <path class="st5" d="M223.9,325.9c19.3,0.1,38.7,0,58,0c0,27.9,0.1,55.9,0,83.9c-19.3-0.1-38.6,0-58-0.1 C223.9,381.7,223.9,353.8,223.9,325.9z"></path> <path class="st5" d="M153.1,426.4c0.3-1.4-0.7-3.6,1-4.2c19-0.2,38,0.2,57-0.2c0.3,28,0.3,56,0,84c-19.3-0.1-38.7,0.1-58-0.1 C153.3,479.3,153.1,452.9,153.1,426.4z"></path> </g> <g> <path class="st6" d="M294.4,325.9c19.2-0.1,38.5,0.1,57.7-0.1c0.4,3.8,0.5,7.6,0.4,11.5c0,24.1,0.1,48.3-0.1,72.4 c-19.3-0.1-38.6,0-57.9,0C294.3,381.8,294.4,353.9,294.4,325.9z"></path> <path class="st6" d="M223.9,505.9c0.2-27.9-0.1-55.9,0.1-83.8c19.3,0,38.6,0,57.9,0c0.1,27.9,0,55.8,0.1,83.7 C262.6,506,243.2,505.8,223.9,505.9z"></path> </g> <g> <path class="st7" d="M365.1,325.9c19.3-0.1,38.6,0,58,0c0.2,27.9,0.2,55.9,0,83.8c-19.3-0.1-38.6-0.1-57.9,0 C365.2,381.7,365.2,353.8,365.1,325.9z"></path> <path class="st7" d="M294.5,422.1c19.2-0.1,38.4,0.1,57.6-0.1c0.5,4.4,0.4,8.9,0.4,13.4c0.1,23.5-0.1,47,0.1,70.5 c-19.4,0.1-38.7,0-58,0C294.3,478,294.4,450,294.5,422.1z"></path> </g> <g> <path class="st8" d="M435.9,409.7c-0.4-27.9-0.2-55.9-0.1-83.8c19.4,0.1,38.8,0,58.2,0.1c-0.1,27.9-0.1,55.7,0,83.6 C474.6,409.7,455.3,409.5,435.9,409.7z"></path> <path class="st8" d="M365.1,422.1c19.3,0,38.7,0,58,0c0.3,27.9,0,55.9,0.1,83.8c-19.3-0.1-38.7,0-58.1-0.1 C365.1,477.9,365.2,450,365.1,422.1z"></path> </g> <g> <path class="st1" d="M82.3,311.2l0.4-56.6l8.8,0.1l-0.4,56.6L82.3,311.2z M82.8,244.1l0.1-11l8.8,0.1l-0.1,11L82.8,244.1z"></path> <path class="st1" d="M104.5,311.4l0.4-56.6l7.9,0.1l-0.1,8.1c3.9-6.2,9.4-9.3,16.6-9.2c3.1,0,6,0.7,8.6,1.9 c2.6,1.2,4.6,2.9,5.9,4.9c1.3,2,2.2,4.4,2.7,7.1c0.3,1.8,0.5,4.9,0.4,9.3l-0.2,34.8l-8.8-0.1l0.2-34.4c0-3.9-0.3-6.8-1-8.8 c-0.7-1.9-1.9-3.5-3.6-4.7c-1.7-1.2-3.8-1.8-6.1-1.8c-3.7,0-7,1.3-9.7,3.8c-2.7,2.6-4.1,7.5-4.2,14.7l-0.2,30.9L104.5,311.4z"></path> <path class="st1" d="M162.3,311.7l0.3-49.2l-7.8-0.1l0.1-7.5l7.8,0.1l0-6c0-3.8,0.4-6.6,1-8.5c0.9-2.5,2.4-4.5,4.5-6 c2.1-1.5,5.1-2.3,9-2.3c2.5,0,5.2,0.4,8.2,1l-1.4,8.4c-1.8-0.4-3.5-0.6-5.2-0.6c-2.7,0-4.6,0.6-5.7,1.8c-1.1,1.2-1.7,3.6-1.7,7 l0,5.2l10.1,0.1l-0.1,7.5l-10.1-0.1l-0.3,49.2L162.3,311.7z"></path> <path class="st1" d="M184.9,283.6c0.1-10.5,2.8-18.2,8.2-23.2c4.5-4.2,9.9-6.2,16.4-6.2c7.1,0,12.9,2.6,17.4,7.8 c4.5,5.1,6.7,12.2,6.6,21.2c0,7.3-1.1,13-3.1,17.2c-2,4.2-5,7.4-8.8,9.7c-3.8,2.3-8,3.4-12.6,3.4c-7.3,0-13.1-2.6-17.6-7.7 C187,300.5,184.8,293.1,184.9,283.6z M193.9,283.6c0,7.3,1.4,12.7,4.2,16.3c2.9,3.6,6.5,5.5,10.9,5.5c4.4,0,8-1.8,10.9-5.4 c2.9-3.6,4.4-9.1,4.5-16.6c0-7-1.4-12.3-4.3-15.9c-2.9-3.6-6.5-5.5-10.8-5.5c-4.4,0-8.1,1.7-11,5.3 C195.5,271,194,276.4,193.9,283.6z"></path> <path class="st1" d="M243.5,312.3l0.4-56.6l7.9,0.1l-0.1,8.6c2-4,3.9-6.6,5.6-7.9c1.7-1.3,3.6-1.9,5.7-1.9c3,0,6,1.1,9,3.2 l-3.1,8.9c-2.1-1.4-4.3-2.1-6.4-2.1c-1.9,0-3.7,0.6-5.2,1.9c-1.5,1.3-2.6,3-3.3,5.2c-1,3.4-1.5,7.1-1.5,11.2l-0.2,29.6L243.5,312.3 z"></path> <path class="st1" d="M276.9,312.5l0.4-56.6l7.9,0.1l-0.1,7.9c1.6-2.8,3.8-5,6.5-6.6c2.7-1.7,5.8-2.5,9.3-2.5c3.8,0,7,0.9,9.4,2.7 c2.4,1.8,4.2,4.2,5.2,7.3c4.1-6.6,9.5-9.9,16.1-9.8c5.1,0,9.1,1.6,11.8,4.7c2.7,3.1,4.1,7.9,4.1,14.4l-0.3,38.9l-8.7-0.1l0.2-35.7 c0-3.8-0.2-6.6-0.8-8.3c-0.6-1.7-1.6-3.1-3.1-4.1c-1.5-1-3.2-1.6-5.3-1.6c-3.6,0-6.7,1.3-9.1,3.9c-2.4,2.6-3.7,6.9-3.7,12.7 l-0.2,32.9l-8.8-0.1l0.3-36.8c0-4.3-0.7-7.5-2.1-9.6c-1.4-2.1-3.8-3.2-7-3.2c-2.5,0-4.8,0.7-6.9,2.1c-2.1,1.4-3.6,3.5-4.6,6.2 c-1,2.7-1.5,6.7-1.5,11.8l-0.2,29.4L276.9,312.5z"></path> <path class="st1" d="M394.2,306.3c-3.3,3-6.4,5.1-9.4,6.3c-3,1.2-6.3,1.8-9.7,1.8c-5.7,0-10.1-1.6-13.1-4.6c-3-3.1-4.5-7-4.5-11.7 c0-2.8,0.6-5.3,1.8-7.6c1.2-2.3,2.7-4.1,4.6-5.5c1.9-1.4,4-2.4,6.3-3.1c1.7-0.5,4.3-0.9,7.8-1.4c7.1-0.9,12.3-1.9,15.7-3.2 c0-1.3,0.1-2.1,0.1-2.5c0-3.9-0.8-6.7-2.4-8.3c-2.2-2.2-5.6-3.3-10-3.3c-4.1,0-7.2,0.7-9.2,2.3c-2,1.6-3.5,4.4-4.4,8.4l-8.6-1.3 c0.8-4,2.1-7.2,3.9-9.7c1.8-2.5,4.4-4.3,7.8-5.7c3.4-1.3,7.3-1.9,11.8-1.9c4.4,0,8,0.6,10.8,1.8c2.8,1.2,4.8,2.6,6.1,4.3 c1.3,1.7,2.2,3.9,2.7,6.6c0.3,1.6,0.4,4.6,0.4,8.9l-0.1,12.8c-0.1,8.9,0.1,14.6,0.4,16.9c0.4,2.4,1.1,4.6,2.2,6.8l-9.2-0.1 C395,311.3,394.4,309,394.2,306.3z M393.6,284.9c-3.2,1.4-8,2.6-14.4,3.5c-3.6,0.5-6.2,1.2-7.7,1.9c-1.5,0.7-2.7,1.7-3.5,3.1 c-0.8,1.4-1.2,2.9-1.3,4.6c0,2.6,0.9,4.7,2.6,6.4c1.8,1.7,4.4,2.6,7.8,2.6c3.4,0,6.4-0.8,9.1-2.4c2.6-1.6,4.6-3.8,5.9-6.6 c1-2.2,1.5-5.4,1.5-9.6L393.6,284.9z"></path> <path class="st1" d="M435.2,305l1.2,8.5c-2.5,0.6-4.7,0.8-6.7,0.8c-3.2,0-5.7-0.6-7.4-1.7c-1.8-1.1-3-2.6-3.7-4.4 c-0.7-1.8-1-5.6-1-11.3l0.2-32.6l-6.4,0l0.1-7.5l6.4,0l0.1-14l8.8-5.7l-0.1,19.8l8.8,0.1l-0.1,7.5l-8.8-0.1l-0.2,33.1 c0,2.7,0.1,4.5,0.4,5.3c0.3,0.8,0.8,1.4,1.5,1.9c0.7,0.5,1.7,0.7,3,0.7C432.3,305.4,433.6,305.3,435.2,305z"></path> <path class="st1" d="M443.8,313.7l0.4-56.6l8.8,0.1l-0.4,56.6L443.8,313.7z M444.3,246.5l0.1-11l8.8,0.1l-0.1,11L444.3,246.5z"></path> <path class="st1" d="M500,293.3l8.6,1.3c-1,6.5-3.4,11.6-7.4,15.2c-3.9,3.7-8.7,5.5-14.4,5.4c-7.1,0-12.8-2.6-17.1-7.7 c-4.3-5.1-6.4-12.4-6.3-21.8c0-6.1,1-11.5,2.9-16c1.9-4.6,4.7-8,8.5-10.3c3.8-2.3,7.9-3.4,12.4-3.4c5.6,0,10.2,1.6,13.8,4.8 c3.6,3.1,5.8,7.6,6.8,13.3l-8.6,1.4c-0.8-3.8-2.2-6.7-4.3-8.6c-2.1-1.9-4.5-2.9-7.5-2.9c-4.4,0-8,1.7-10.8,5.1 c-2.8,3.4-4.2,8.9-4.3,16.4c-0.1,7.6,1.2,13.1,3.9,16.6c2.6,3.5,6.1,5.2,10.4,5.2c3.5,0,6.3-1.1,8.7-3.4 C497.8,301.6,499.3,298.1,500,293.3z"></path> <path class="st1" d="M549.9,307.4c-3.3,3-6.4,5.1-9.4,6.3c-3,1.2-6.3,1.8-9.7,1.8c-5.7,0-10.1-1.6-13.1-4.6c-3-3.1-4.5-7-4.5-11.7 c0-2.8,0.6-5.3,1.8-7.6c1.2-2.3,2.7-4.1,4.6-5.5c1.9-1.4,4-2.4,6.3-3.1c1.7-0.5,4.3-0.9,7.8-1.4c7.1-0.9,12.3-1.9,15.7-3.2 c0-1.3,0.1-2.1,0.1-2.5c0-3.9-0.8-6.7-2.4-8.3c-2.2-2.2-5.6-3.3-10-3.3c-4.1,0-7.2,0.7-9.2,2.3c-2,1.6-3.5,4.4-4.4,8.4l-8.6-1.3 c0.8-4,2.1-7.2,3.9-9.7c1.8-2.5,4.4-4.3,7.8-5.7c3.4-1.3,7.3-1.9,11.8-1.9c4.4,0,8,0.6,10.8,1.8c2.8,1.2,4.8,2.6,6.1,4.3 c1.3,1.7,2.2,3.9,2.7,6.6c0.3,1.6,0.4,4.6,0.4,8.9l-0.1,12.8c-0.1,8.9,0.1,14.6,0.4,16.9c0.4,2.4,1.1,4.6,2.2,6.8l-9.2-0.1 C550.7,312.4,550.2,310.1,549.9,307.4z M549.3,286c-3.2,1.4-8,2.6-14.4,3.5c-3.6,0.5-6.2,1.2-7.7,1.9c-1.5,0.7-2.7,1.7-3.5,3.1 c-0.8,1.4-1.2,2.9-1.3,4.6c0,2.6,0.9,4.7,2.6,6.4c1.8,1.7,4.4,2.6,7.8,2.6c3.4,0,6.4-0.8,9.1-2.4c2.6-1.6,4.6-3.8,5.9-6.6 c1-2.2,1.5-5.4,1.5-9.6L549.3,286z"></path> </g> <g> <path class="st1" d="M80.5,558.1l5-0.8c0.3,2.1,1,3.8,2.3,4.9c1.3,1.1,3.1,1.7,5.4,1.7c2.3,0,4-0.5,5.2-1.5c1.1-1,1.7-2.2,1.7-3.5 c0-1.2-0.5-2.2-1.5-2.9c-0.7-0.5-2.4-1.1-5.1-1.9c-3.7-1-6.3-1.9-7.7-2.6c-1.4-0.7-2.5-1.7-3.2-3c-0.7-1.3-1.1-2.7-1.1-4.3 c0-1.4,0.3-2.7,0.9-3.9c0.6-1.2,1.4-2.2,2.5-3c0.8-0.6,1.9-1.1,3.2-1.5c1.4-0.4,2.8-0.6,4.4-0.6c2.3,0,4.4,0.4,6.1,1.1 c1.8,0.7,3.1,1.7,3.9,2.9c0.8,1.2,1.4,2.9,1.7,4.9l-4.9,0.7c-0.2-1.6-0.9-2.9-1.9-3.8c-1.1-0.9-2.6-1.4-4.5-1.4c-2.3,0-4,0.4-5,1.2 c-1,0.8-1.5,1.8-1.5,2.8c0,0.7,0.2,1.3,0.6,1.9c0.4,0.6,1,1.1,1.9,1.4c0.5,0.2,2,0.7,4.4,1.4c3.6,1,6,1.9,7.5,2.5 c1.4,0.7,2.5,1.6,3.3,2.8c0.8,1.2,1.2,2.8,1.2,4.6c0,1.8-0.5,3.5-1.5,5c-1,1.6-2.4,2.8-4.3,3.6c-1.9,0.9-4,1.3-6.3,1.3 c-3.9,0-6.8-0.9-8.8-2.6C82.3,564,81,561.4,80.5,558.1z"></path> <path class="st1" d="M113.3,567.7l0.2-31.6l5,0l-0.2,31.6L113.3,567.7z M113.5,530.2l0-6.2l5,0l0,6.2L113.5,530.2z"></path> <path class="st1" d="M126.1,558.4l5-0.8c0.3,2.1,1,3.8,2.3,4.9c1.3,1.1,3.1,1.7,5.4,1.7c2.3,0,4-0.5,5.2-1.5c1.1-1,1.7-2.2,1.7-3.5 c0-1.2-0.5-2.2-1.5-2.9c-0.7-0.5-2.4-1.1-5.1-1.9c-3.7-1-6.3-1.9-7.7-2.6c-1.4-0.7-2.5-1.7-3.2-3c-0.7-1.3-1.1-2.7-1.1-4.3 c0-1.4,0.3-2.7,0.9-3.9c0.6-1.2,1.4-2.2,2.5-3c0.8-0.6,1.9-1.1,3.2-1.5c1.4-0.4,2.8-0.6,4.4-0.6c2.3,0,4.4,0.4,6.1,1.1 c1.8,0.7,3.1,1.7,3.9,2.9c0.8,1.2,1.4,2.9,1.7,4.9l-4.9,0.7c-0.2-1.6-0.9-2.9-1.9-3.8c-1.1-0.9-2.6-1.4-4.5-1.4c-2.3,0-4,0.4-5,1.2 c-1,0.8-1.5,1.8-1.5,2.8c0,0.7,0.2,1.3,0.6,1.9c0.4,0.6,1,1.1,1.9,1.4c0.5,0.2,2,0.7,4.4,1.4c3.6,1,6,1.9,7.5,2.5 c1.4,0.7,2.5,1.6,3.3,2.8c0.8,1.2,1.2,2.8,1.2,4.6c0,1.8-0.5,3.5-1.5,5c-1,1.6-2.4,2.8-4.3,3.6c-1.9,0.9-4,1.3-6.3,1.3 c-3.9,0-6.8-0.9-8.8-2.6C127.9,564.3,126.7,561.7,126.1,558.4z"></path> <path class="st1" d="M169.9,563.3l0.7,4.7c-1.4,0.3-2.7,0.5-3.8,0.5c-1.8,0-3.3-0.3-4.3-1c-1-0.6-1.7-1.4-2.1-2.4 c-0.4-1-0.6-3.1-0.6-6.3l0.1-18.2l-3.7,0l0-4.2l3.7,0l0.1-7.8l5-3.2l-0.1,11l5.1,0l0,4.2l-5.1,0l-0.1,18.5c0,1.5,0.1,2.5,0.2,3 c0.2,0.4,0.5,0.8,0.9,1c0.4,0.3,1,0.4,1.7,0.4C168.2,563.5,169,563.5,169.9,563.3z"></path> <path class="st1" d="M197.3,558.1l5.2,0.7c-0.8,3.2-2.4,5.7-4.6,7.5c-2.2,1.8-5.1,2.6-8.5,2.6c-4.4,0-7.8-1.5-10.3-4.3 c-2.5-2.9-3.8-6.9-3.7-12c0-5.3,1.4-9.4,4-12.4c2.6-2.9,6-4.4,10.1-4.3c4,0,7.2,1.5,9.7,4.4c2.5,2.9,3.7,7,3.7,12.2 c0,0.3,0,0.8,0,1.4l-22.2-0.2c0.2,3.5,1.1,6.1,2.7,8c1.7,1.9,3.7,2.8,6.2,2.8c1.9,0,3.4-0.5,4.7-1.5 C195.5,562,196.5,560.4,197.3,558.1z M180.8,549.3l16.6,0.1c-0.2-2.7-0.8-4.7-1.9-6c-1.6-2.1-3.7-3.1-6.2-3.1 c-2.3,0-4.3,0.8-5.9,2.4C181.9,544.4,181,546.6,180.8,549.3z"></path> <path class="st1" d="M210.9,568.4l0.2-31.6l4.5,0l0,4.4c0.9-1.5,2.2-2.8,3.8-3.7c1.6-0.9,3.3-1.4,5.3-1.4c2.2,0,4,0.5,5.4,1.5 c1.4,1,2.4,2.3,3,4.1c2.4-3.7,5.5-5.5,9.2-5.5c3,0,5.2,0.9,6.8,2.7c1.6,1.7,2.4,4.4,2.3,8l-0.1,21.7l-5,0l0.1-19.9 c0-2.1-0.1-3.7-0.5-4.6c-0.3-0.9-0.9-1.7-1.8-2.3c-0.9-0.6-1.9-0.9-3-0.9c-2.1,0-3.8,0.7-5.2,2.2c-1.4,1.5-2.1,3.8-2.1,7.1 l-0.1,18.4l-5,0l0.1-20.6c0-2.4-0.4-4.2-1.2-5.4c-0.8-1.2-2.2-1.8-4-1.8c-1.4,0-2.7,0.4-3.9,1.2s-2.1,1.9-2.6,3.5 c-0.6,1.5-0.8,3.7-0.9,6.6l-0.1,16.4L210.9,568.4z"></path> <path class="st1" d="M260.8,568.7l0.2-31.6l5,0l-0.2,31.6L260.8,568.7z M261.1,531.2l0-6.2l5,0l0,6.2L261.1,531.2z"></path> <path class="st1" d="M293.6,569l0.2-31.6l5,0l-0.2,31.6L293.6,569z M293.9,531.5l0-6.2l5,0l0,6.2L293.9,531.5z"></path> <path class="st1" d="M308.4,569.1l0.2-31.6l4.5,0l0,4.5c2.2-3.5,5.4-5.2,9.5-5.1c1.8,0,3.4,0.4,4.9,1.1c1.5,0.7,2.6,1.6,3.4,2.7 c0.7,1.1,1.3,2.4,1.5,4c0.2,1,0.3,2.7,0.2,5.2l-0.1,19.4l-5,0l0.1-19.2c0-2.2-0.2-3.8-0.6-4.9s-1.1-2-2.1-2.6c-1-0.7-2.2-1-3.5-1 c-2.1,0-4,0.7-5.6,2.1s-2.4,4.2-2.4,8.2l-0.1,17.3L308.4,569.1z"></path> <path class="st1" d="M343.6,569.3l0.2-27.5l-4.5,0l0-4.2l4.5,0l0-3.4c0-2.1,0.2-3.7,0.6-4.7c0.5-1.4,1.4-2.5,2.6-3.4 c1.2-0.9,2.9-1.3,5.2-1.3c1.4,0,3,0.2,4.7,0.6l-0.8,4.7c-1-0.2-2-0.3-3-0.3c-1.5,0-2.6,0.3-3.3,1c-0.6,0.7-1,2-1,3.9l0,2.9l5.8,0 l0,4.2l-5.8,0l-0.2,27.5L343.6,569.3z"></path> <path class="st1" d="M358.7,553.6c0-5.9,1.6-10.2,4.7-13c2.6-2.3,5.7-3.5,9.4-3.5c4.1,0,7.4,1.5,10,4.3c2.6,2.9,3.9,6.8,3.8,11.8 c0,4.1-0.6,7.3-1.8,9.6c-1.2,2.3-2.9,4.1-5.1,5.4c-2.2,1.3-4.6,1.9-7.2,1.9c-4.2,0-7.5-1.5-10.1-4.3 C359.9,563,358.7,558.9,358.7,553.6z M363.9,553.6c0,4.1,0.8,7.1,2.4,9.1c1.6,2,3.7,3,6.3,3.1c2.5,0,4.6-1,6.3-3 c1.7-2,2.5-5.1,2.6-9.2c0-3.9-0.8-6.9-2.4-8.9c-1.7-2-3.7-3-6.2-3.1c-2.5,0-4.6,1-6.3,3C364.8,546.5,363.9,549.6,363.9,553.6z"></path> <path class="st1" d="M394.4,569.6l0.2-31.6l4.5,0l0,4.8c1.2-2.2,2.3-3.7,3.2-4.4s2.1-1.1,3.2-1.1c1.7,0,3.4,0.6,5.2,1.8l-1.8,5 c-1.2-0.8-2.5-1.2-3.7-1.2c-1.1,0-2.1,0.3-3,1s-1.5,1.7-1.9,2.9c-0.6,1.9-0.9,4-0.9,6.2l-0.1,16.6L394.4,569.6z"></path> <path class="st1" d="M415.7,569.8l0.2-31.6l4.5,0l0,4.4c0.9-1.5,2.2-2.8,3.8-3.7c1.6-0.9,3.3-1.4,5.3-1.4c2.2,0,4,0.5,5.4,1.5 c1.4,1,2.4,2.3,3,4.1c2.4-3.7,5.5-5.5,9.2-5.5c3,0,5.2,0.9,6.8,2.7c1.6,1.7,2.4,4.4,2.3,8l-0.1,21.7l-5,0l0.1-19.9 c0-2.1-0.1-3.7-0.5-4.6c-0.3-0.9-0.9-1.7-1.8-2.3c-0.9-0.6-1.9-0.9-3-0.9c-2.1,0-3.8,0.7-5.2,2.2c-1.4,1.5-2.1,3.8-2.1,7.1 l-0.1,18.4l-5,0l0.1-20.6c0-2.4-0.4-4.2-1.2-5.4c-0.8-1.2-2.2-1.8-4-1.8c-1.4,0-2.7,0.4-3.9,1.2c-1.2,0.8-2.1,1.9-2.6,3.5 s-0.8,3.7-0.9,6.6l-0.1,16.4L415.7,569.8z"></path> <path class="st1" d="M485,566.4c-1.9,1.7-3.7,2.9-5.4,3.5c-1.7,0.7-3.6,1-5.6,1c-3.3,0-5.8-0.9-7.5-2.6c-1.7-1.7-2.6-3.9-2.6-6.5 c0-1.5,0.4-3,1-4.2c0.7-1.3,1.5-2.3,2.6-3.1c1.1-0.8,2.3-1.3,3.6-1.7c1-0.3,2.5-0.5,4.5-0.8c4.1-0.5,7.1-1.1,9-1.8 c0-0.7,0-1.2,0-1.4c0-2.2-0.5-3.7-1.4-4.6c-1.3-1.2-3.2-1.8-5.7-1.9c-2.4,0-4.1,0.4-5.3,1.3c-1.1,0.9-2,2.4-2.5,4.7l-4.9-0.7 c0.5-2.2,1.2-4,2.3-5.4c1-1.4,2.5-2.4,4.5-3.2c1.9-0.7,4.2-1.1,6.8-1.1c2.5,0,4.6,0.3,6.2,1c1.6,0.6,2.7,1.5,3.5,2.4 c0.7,1,1.3,2.2,1.5,3.7c0.2,0.9,0.2,2.6,0.2,4.9l0,7.1c0,5,0.1,8.1,0.3,9.5c0.2,1.3,0.6,2.6,1.2,3.8l-5.3,0 C485.5,569.2,485.2,567.9,485,566.4z M484.7,554.4c-1.8,0.8-4.6,1.4-8.3,2c-2.1,0.3-3.5,0.7-4.4,1c-0.9,0.4-1.5,1-2,1.7 c-0.5,0.8-0.7,1.6-0.7,2.5c0,1.4,0.5,2.6,1.5,3.6c1,1,2.5,1.4,4.5,1.5c1.9,0,3.7-0.4,5.2-1.3c1.5-0.9,2.6-2.1,3.4-3.7 c0.6-1.2,0.8-3,0.8-5.4L484.7,554.4z"></path> <path class="st1" d="M510.6,565.6l0.7,4.7c-1.4,0.3-2.7,0.5-3.8,0.5c-1.8,0-3.3-0.3-4.3-1c-1-0.6-1.7-1.4-2.1-2.4s-0.6-3.1-0.6-6.3 l0.1-18.2l-3.7,0l0-4.2l3.7,0l0.1-7.8l5-3.2l-0.1,11l5.1,0l0,4.2l-5.1,0l-0.1,18.5c0,1.5,0.1,2.5,0.2,3c0.2,0.4,0.5,0.8,0.9,1 c0.4,0.3,1,0.4,1.7,0.4C509,565.8,509.7,565.8,510.6,565.6z"></path> <path class="st1" d="M517.6,570.5l0.2-31.6l5,0l-0.2,31.6L517.6,570.5z M517.9,533l0-6.2l5,0l0,6.2L517.9,533z"></path> <path class="st1" d="M551.9,559.1l5,0.7c-0.6,3.6-2,6.5-4.2,8.5c-2.2,2-5,3-8.2,3c-4.1,0-7.3-1.5-9.8-4.3 c-2.5-2.8-3.7-6.9-3.6-12.2c0-3.4,0.6-6.4,1.7-9c1.1-2.6,2.7-4.5,4.9-5.7c2.2-1.3,4.6-1.9,7.1-1.9c3.2,0,5.9,0.9,7.9,2.7 c2,1.8,3.3,4.2,3.9,7.4l-4.9,0.8c-0.5-2.1-1.3-3.7-2.4-4.8c-1.2-1.1-2.6-1.6-4.3-1.6c-2.5,0-4.6,0.9-6.2,2.9 c-1.6,1.9-2.4,5-2.4,9.2c0,4.2,0.7,7.3,2.2,9.3s3.5,2.9,6,2.9c2,0,3.6-0.6,5-1.9C550.7,563.8,551.5,561.8,551.9,559.1z"></path> <path class="st1" d="M563.2,570.8l0.2-31.6l5,0l-0.2,31.6L563.2,570.8z M563.5,533.3l0-6.2l5,0l0,6.2L563.5,533.3z"></path> <path class="st1" d="M101.6,614.8c-1.9,1.7-3.7,2.9-5.4,3.5c-1.7,0.7-3.6,1-5.6,1c-3.3,0-5.8-0.9-7.5-2.6c-1.7-1.7-2.6-3.9-2.6-6.5 c0-1.5,0.4-3,1-4.2c0.7-1.3,1.5-2.3,2.6-3.1c1.1-0.8,2.3-1.3,3.6-1.7c1-0.3,2.5-0.5,4.5-0.8c4.1-0.5,7.1-1.1,9-1.8 c0-0.7,0-1.2,0-1.4c0-2.2-0.5-3.7-1.4-4.6c-1.3-1.2-3.2-1.8-5.7-1.9c-2.4,0-4.1,0.4-5.3,1.3c-1.1,0.9-2,2.4-2.5,4.7l-4.9-0.7 c0.5-2.2,1.2-4,2.3-5.4c1-1.4,2.5-2.4,4.5-3.2c1.9-0.7,4.2-1.1,6.8-1.1c2.5,0,4.6,0.3,6.2,1c1.6,0.6,2.7,1.5,3.5,2.4 c0.7,1,1.3,2.2,1.5,3.7c0.2,0.9,0.2,2.6,0.2,4.9l0,7.1c0,5,0.1,8.1,0.3,9.5c0.2,1.3,0.6,2.6,1.2,3.8l-5.3,0 C102,617.5,101.7,616.2,101.6,614.8z M101.2,602.8c-1.8,0.8-4.6,1.4-8.3,2c-2.1,0.3-3.5,0.7-4.4,1c-0.9,0.4-1.5,1-2,1.7 c-0.5,0.8-0.7,1.6-0.7,2.5c0,1.4,0.5,2.6,1.5,3.6c1,1,2.5,1.4,4.5,1.5c1.9,0,3.7-0.4,5.2-1.3s2.6-2.1,3.4-3.7 c0.6-1.2,0.8-3,0.8-5.4L101.2,602.8z"></path> <path class="st1" d="M135.4,618.9l0-4c-1.9,3.1-4.7,4.7-8.4,4.6c-2.4,0-4.6-0.7-6.5-2.1c-2-1.4-3.5-3.4-4.6-5.9 c-1.1-2.5-1.6-5.4-1.6-8.6c0-3.2,0.5-6,1.5-8.6c1-2.6,2.5-4.5,4.5-5.9s4.2-2,6.7-2c1.8,0,3.4,0.4,4.8,1.2c1.4,0.8,2.5,1.9,3.4,3.2 l0.1-15.7l5,0l-0.3,43.7L135.4,618.9z M119.6,603c0,4.1,0.8,7.1,2.3,9.1s3.5,3,5.7,3c2.2,0,4.1-0.9,5.6-2.8 c1.6-1.9,2.3-4.8,2.4-8.8c0-4.3-0.7-7.5-2.3-9.5s-3.5-3.1-5.8-3.1c-2.2,0-4.1,0.9-5.6,2.9C120.4,595.7,119.6,598.8,119.6,603z"></path> <path class="st1" d="M187.6,615.3c-1.9,1.7-3.7,2.9-5.4,3.5c-1.7,0.7-3.6,1-5.6,1c-3.3,0-5.8-0.9-7.5-2.6c-1.7-1.7-2.6-3.9-2.6-6.5 c0-1.5,0.4-3,1-4.2c0.7-1.3,1.5-2.3,2.6-3.1c1.1-0.8,2.3-1.3,3.6-1.7c1-0.3,2.5-0.5,4.5-0.8c4.1-0.5,7.1-1.1,9-1.8 c0-0.7,0-1.2,0-1.4c0-2.2-0.5-3.7-1.4-4.6c-1.3-1.2-3.2-1.8-5.7-1.9c-2.4,0-4.1,0.4-5.3,1.3c-1.1,0.9-2,2.4-2.5,4.7l-4.9-0.7 c0.5-2.2,1.2-4,2.3-5.4s2.5-2.4,4.5-3.2c1.9-0.7,4.2-1.1,6.8-1.1c2.5,0,4.6,0.3,6.2,1c1.6,0.6,2.7,1.5,3.5,2.4 c0.7,1,1.3,2.2,1.5,3.7c0.2,0.9,0.2,2.6,0.2,4.9l0,7.1c0,5,0.1,8.1,0.3,9.5c0.2,1.3,0.6,2.6,1.2,3.8l-5.3,0 C188.1,618.1,187.7,616.8,187.6,615.3z M187.3,603.4c-1.8,0.8-4.6,1.4-8.3,2c-2.1,0.3-3.5,0.7-4.4,1c-0.9,0.4-1.5,1-2,1.7 c-0.5,0.8-0.7,1.6-0.7,2.5c0,1.4,0.5,2.6,1.5,3.6c1,1,2.5,1.4,4.5,1.5c1.9,0,3.7-0.4,5.2-1.3c1.5-0.9,2.6-2.1,3.4-3.7 c0.6-1.2,0.8-3,0.8-5.4L187.3,603.4z"></path> <path class="st1" d="M202,619.3l0.3-43.7l5,0l-0.3,43.7L202,619.3z"></path> <path class="st1" d="M228,614.7l0.7,4.7c-1.4,0.3-2.7,0.5-3.8,0.5c-1.8,0-3.3-0.3-4.3-1c-1-0.6-1.7-1.4-2.1-2.4 c-0.4-1-0.6-3.1-0.6-6.3l0.1-18.2l-3.7,0l0-4.2l3.7,0l0.1-7.8l5-3.2l-0.1,11.1l5.1,0l0,4.2l-5.1,0l-0.1,18.5c0,1.5,0.1,2.5,0.2,3 c0.2,0.4,0.5,0.8,0.9,1c0.4,0.3,1,0.4,1.7,0.4C226.4,614.9,227.1,614.9,228,614.7z"></path> <path class="st1" d="M254.4,615.8c-1.9,1.7-3.7,2.9-5.4,3.5c-1.7,0.7-3.6,1-5.6,1c-3.3,0-5.8-0.9-7.5-2.6c-1.7-1.7-2.6-3.9-2.6-6.5 c0-1.5,0.4-3,1-4.2c0.7-1.3,1.5-2.3,2.6-3.1c1.1-0.8,2.3-1.3,3.6-1.7c1-0.3,2.5-0.5,4.5-0.8c4.1-0.5,7.1-1.1,9-1.8 c0-0.7,0-1.2,0-1.4c0-2.2-0.5-3.7-1.4-4.6c-1.3-1.2-3.2-1.8-5.7-1.9c-2.4,0-4.1,0.4-5.3,1.3c-1.1,0.9-2,2.4-2.5,4.7l-4.9-0.7 c0.5-2.2,1.2-4,2.3-5.4s2.5-2.4,4.5-3.2c1.9-0.7,4.2-1.1,6.8-1.1c2.5,0,4.6,0.3,6.2,1c1.6,0.6,2.7,1.5,3.5,2.4 c0.7,1,1.3,2.2,1.5,3.7c0.2,0.9,0.2,2.6,0.2,4.9l0,7.1c0,5,0.1,8.1,0.3,9.5c0.2,1.3,0.6,2.6,1.2,3.8l-5.3,0 C254.9,618.6,254.6,617.3,254.4,615.8z M254.1,603.8c-1.8,0.8-4.6,1.4-8.3,2c-2.1,0.3-3.5,0.7-4.4,1c-0.9,0.4-1.5,1-2,1.7 c-0.5,0.8-0.7,1.6-0.7,2.5c0,1.4,0.5,2.6,1.5,3.6c1,1,2.5,1.4,4.5,1.5c1.9,0,3.7-0.4,5.2-1.3c1.5-0.9,2.6-2.1,3.4-3.7 c0.6-1.2,0.8-3,0.8-5.4L254.1,603.8z"></path> <path class="st1" d="M298.1,615.2l0.7,4.7c-1.4,0.3-2.7,0.5-3.8,0.5c-1.8,0-3.3-0.3-4.3-1c-1-0.6-1.7-1.4-2.1-2.4 c-0.4-1-0.6-3.1-0.6-6.3l0.1-18.2l-3.7,0l0-4.2l3.7,0l0.1-7.8l5-3.2l-0.1,11.1l5.1,0l0,4.2l-5.1,0L293,611c0,1.5,0.1,2.5,0.2,3 c0.2,0.4,0.5,0.8,0.9,1c0.4,0.3,1,0.4,1.7,0.4C296.4,615.4,297.2,615.3,298.1,615.2z"></path> <path class="st1" d="M326,610l5.2,0.7c-0.8,3.2-2.4,5.7-4.6,7.5c-2.2,1.8-5.1,2.6-8.5,2.6c-4.4,0-7.8-1.5-10.3-4.3 c-2.5-2.9-3.8-6.9-3.7-12c0-5.3,1.4-9.4,4-12.4c2.6-2.9,6-4.4,10.1-4.3c4,0,7.2,1.5,9.7,4.4s3.7,7,3.7,12.2c0,0.3,0,0.8,0,1.4 l-22.2-0.2c0.2,3.5,1.1,6.1,2.7,8c1.7,1.9,3.7,2.8,6.2,2.8c1.9,0,3.4-0.5,4.7-1.5C324.2,613.9,325.2,612.3,326,610z M309.5,601.2 l16.6,0.1c-0.2-2.7-0.8-4.7-1.9-6c-1.6-2.1-3.7-3.1-6.2-3.1c-2.3,0-4.3,0.8-5.9,2.4C310.6,596.3,309.7,598.5,309.5,601.2z"></path> <path class="st1" d="M359.6,608.8l5,0.7c-0.6,3.6-2,6.5-4.2,8.5c-2.2,2-5,3-8.2,3c-4.1,0-7.3-1.5-9.8-4.3 c-2.5-2.8-3.7-6.9-3.6-12.2c0-3.4,0.6-6.4,1.7-9c1.1-2.6,2.7-4.5,4.9-5.7c2.2-1.3,4.6-1.9,7.1-1.9c3.2,0,5.9,0.9,7.9,2.7 c2,1.8,3.3,4.2,3.9,7.4l-4.9,0.8c-0.5-2.1-1.3-3.7-2.4-4.8c-1.2-1.1-2.6-1.6-4.3-1.6c-2.5,0-4.6,0.9-6.2,2.9 c-1.6,1.9-2.4,5-2.4,9.2c0,4.2,0.7,7.3,2.2,9.3c1.5,1.9,3.5,2.9,6,2.9c2,0,3.6-0.6,5-1.9C358.4,613.5,359.2,611.5,359.6,608.8z"></path> <path class="st1" d="M371.4,620.5l0.2-31.6l4.5,0l0,4.5c2.2-3.5,5.4-5.2,9.5-5.1c1.8,0,3.4,0.4,4.9,1.1c1.5,0.7,2.6,1.6,3.4,2.7 c0.7,1.1,1.3,2.4,1.5,4c0.2,1,0.3,2.7,0.2,5.2l-0.1,19.4l-5,0l0.1-19.2c0-2.2-0.2-3.8-0.6-4.9s-1.1-2-2.1-2.6c-1-0.7-2.2-1-3.5-1 c-2.1,0-4,0.7-5.6,2.1s-2.4,4.2-2.4,8.2l-0.1,17.3L371.4,620.5z"></path> <path class="st1" d="M404.1,604.9c0-5.9,1.6-10.2,4.7-13c2.6-2.3,5.7-3.5,9.4-3.5c4.1,0,7.4,1.5,10,4.3c2.6,2.9,3.9,6.8,3.8,11.8 c0,4.1-0.6,7.3-1.8,9.6c-1.2,2.3-2.9,4.1-5.1,5.4c-2.2,1.3-4.6,1.9-7.2,1.9c-4.2,0-7.5-1.5-10.1-4.3 C405.3,614.3,404.1,610.2,404.1,604.9z M409.3,604.9c0,4.1,0.8,7.1,2.4,9.1c1.6,2,3.7,3,6.3,3.1c2.5,0,4.6-1,6.3-3 c1.7-2,2.5-5.1,2.6-9.2c0-3.9-0.8-6.9-2.4-8.9c-1.7-2-3.7-3-6.2-3.1c-2.5,0-4.6,1-6.3,3C410.2,597.9,409.3,600.9,409.3,604.9z"></path> <path class="st1" d="M440.3,621l0.3-43.7l5,0l-0.3,43.7L440.3,621z"></path> <path class="st1" d="M454,605.2c0-5.9,1.6-10.2,4.7-13c2.6-2.3,5.7-3.5,9.4-3.5c4.1,0,7.4,1.5,10,4.3s3.9,6.8,3.8,11.8 c0,4.1-0.6,7.3-1.8,9.6c-1.2,2.3-2.9,4.1-5.1,5.4c-2.2,1.3-4.6,1.9-7.2,1.9c-4.2,0-7.5-1.5-10.1-4.3 C455.2,614.7,453.9,610.6,454,605.2z M459.2,605.3c0,4.1,0.8,7.1,2.4,9.1c1.6,2,3.7,3,6.3,3.1c2.5,0,4.6-1,6.3-3 c1.7-2,2.5-5.1,2.6-9.2c0-3.9-0.8-6.9-2.4-8.9c-1.7-2-3.7-3-6.2-3.1c-2.5,0-4.6,1-6.3,3C460,598.2,459.2,601.2,459.2,605.3z"></path> <path class="st1" d="M489.3,623.9l4.9,0.8c0.2,1.6,0.8,2.8,1.7,3.5c1.2,1,3,1.5,5.1,1.5c2.3,0,4.1-0.5,5.4-1.5 c1.3-1,2.1-2.4,2.6-4.2c0.3-1.1,0.4-3.4,0.4-6.9c-2.2,2.7-5,4.1-8.3,4.1c-4.1,0-7.3-1.6-9.5-4.8c-2.2-3.2-3.3-6.9-3.3-11.3 c0-3,0.6-5.8,1.6-8.3c1-2.5,2.5-4.5,4.5-5.9c2-1.4,4.3-2.1,6.9-2c3.5,0,6.4,1.6,8.7,4.6l0-3.8l4.7,0l-0.2,27.3 c0,4.9-0.5,8.4-1.5,10.5c-1,2-2.5,3.7-4.5,4.8c-2.1,1.2-4.6,1.8-7.6,1.7c-3.6,0-6.4-0.9-8.6-2.6 C490.3,629.9,489.2,627.3,489.3,623.9z M493.6,604.9c0,4.2,0.7,7.2,2.3,9.1c1.5,1.9,3.5,2.9,5.8,2.9c2.3,0,4.3-0.9,5.9-2.8 c1.6-1.9,2.4-4.9,2.4-8.9c0-3.9-0.8-6.8-2.4-8.8c-1.6-2-3.5-3-5.8-3c-2.2,0-4.2,0.9-5.7,2.9C494.5,598.3,493.7,601.1,493.6,604.9z"></path> <path class="st1" d="M524.8,621.5l0.2-31.6l5,0l-0.2,31.6L524.8,621.5z M525.1,584l0-6.2l5,0l0,6.2L525.1,584z"></path> <path class="st1" d="M559.6,617.9c-1.9,1.7-3.7,2.9-5.4,3.5c-1.7,0.7-3.6,1-5.6,1c-3.3,0-5.8-0.9-7.5-2.6c-1.7-1.7-2.6-3.9-2.6-6.5 c0-1.5,0.4-3,1-4.2c0.7-1.3,1.5-2.3,2.6-3.1c1.1-0.8,2.3-1.3,3.6-1.7c1-0.3,2.5-0.5,4.5-0.8c4.1-0.5,7.1-1.1,9-1.8 c0-0.7,0-1.2,0-1.4c0-2.2-0.5-3.7-1.4-4.6c-1.3-1.2-3.2-1.8-5.7-1.9c-2.4,0-4.1,0.4-5.3,1.3s-2,2.4-2.5,4.7l-4.9-0.7 c0.5-2.2,1.2-4,2.3-5.4c1-1.4,2.5-2.4,4.5-3.2c1.9-0.7,4.2-1.1,6.8-1.1c2.5,0,4.6,0.3,6.2,1c1.6,0.6,2.7,1.5,3.5,2.4 c0.7,1,1.3,2.2,1.5,3.7c0.2,0.9,0.2,2.6,0.2,4.9l0,7.1c0,5,0.1,8.1,0.3,9.5c0.2,1.3,0.6,2.6,1.2,3.8l-5.3,0 C560.1,620.7,559.7,619.4,559.6,617.9z M559.2,605.9c-1.8,0.8-4.6,1.4-8.3,2c-2.1,0.3-3.5,0.7-4.4,1c-0.9,0.4-1.5,1-2,1.7 c-0.5,0.8-0.7,1.6-0.7,2.5c0,1.4,0.5,2.6,1.5,3.6c1,1,2.5,1.4,4.5,1.5c1.9,0,3.7-0.4,5.2-1.3c1.5-0.9,2.6-2.1,3.4-3.7 c0.6-1.2,0.8-3,0.8-5.4L559.2,605.9z"></path> </g> </svg> 