<?xml version="1.0" encoding="UTF-8"?> <svg xmlns="http://www.w3.org/2000/svg" xmlns:xlink="http://www.w3.org/1999/xlink" id="Layer_1" data-name="Layer 1" viewBox="0 0 1141.48 1106.73"><defs><style>.cls-1{fill:#f5f5f5;}.cls-2{fill:#fff;}.cls-13,.cls-24,.cls-3{fill:#035685;}.cls-21,.cls-4{fill:#2486c1;}.cls-5{fill:#3b8ebb;}.cls-6{fill:#82b1ca;}.cls-7{fill:#c0202b;}.cls-16,.cls-8{fill:#ee4652;}.cls-9{fill:#cde6f7;}.cls-10{fill:#2586c1;}.cls-11{fill:#fbdbdd;}.cls-12,.cls-20{fill:#005585;}.cls-13{opacity:0.44;}.cls-14,.cls-22{fill:#99cae4;}.cls-15{fill:#c1212b;}.cls-15,.cls-16,.cls-17,.cls-18,.cls-19,.cls-20,.cls-21,.cls-22,.cls-23,.cls-24{fill-rule:evenodd;}.cls-17{fill:#c9e5ff;}.cls-18{fill:#80adc8;}.cls-19{fill:#f5d5d5;}.cls-23{fill:#f1c6c6;}.cls-25{fill:#b41f28;}.cls-26{fill:none;stroke:#232a59;stroke-miterlimit:10;stroke-width:0.49px;}.cls-27{fill:#f5d1c1;}.cls-28{fill:#ee4753;}.cls-29{fill:url(#Новый_образец_градиента_1);}.cls-30{fill:url(#Новый_образец_градиента_1-2);}.cls-31{fill:url(#Новый_образец_градиента_1-3);}</style><linearGradient id="Новый_образец_градиента_1" x1="1026.81" y1="725.81" x2="1031.19" y2="725.81" gradientUnits="userSpaceOnUse"><stop offset="0" stop-color="#f7f8ff"></stop><stop offset="1" stop-color="#f3f3fa"></stop></linearGradient><linearGradient id="Новый_образец_градиента_1-2" x1="1035.39" y1="731.27" x2="1039.78" y2="731.27" xlink:href="#Новый_образец_градиента_1"></linearGradient><linearGradient id="Новый_образец_градиента_1-3" x1="984.22" y1="1051.67" x2="996.94" y2="1051.67" gradientTransform="translate(1980.19 1827.18) rotate(-177.7)" xlink:href="#Новый_образец_градиента_1"></linearGradient></defs><path class="cls-1" d="M427.94,954.08s-11.79-129.73,89.63-231.15S603.4,571.28,644.94,515.37c61.32-82.55,207.56-99.06,323.13-7.08s288.14-14.85,429.27,0C1576.6,527.16,1588.39,727.65,1553,840.86c-7.25,23.21-13.31,47.51-18.37,71.48a643.45,643.45,0,0,0,2,273.88c18.39,81.76,32.93,198.9-9.59,272.61-56.44,97.83-219.35,125-448.14,54.24s-216.43-11.92-342,16.52c-125,28.3-261-51.46-238.22-162.75,18.87-92,33-122.65,0-195.77C474.73,1118,430.3,1083.8,427.94,954.08Z" transform="translate(-427.52 -446.08)"></path><path class="cls-2" d="M1048.22,1290.4c-17.07,9.86-45,9.86-62.07,0L715.86,1134.35c-17.07-9.86-17.07-26,0-35.84l270.28-156c17.07-9.86,45-9.86,62.07,0l270.29,156c17.07,9.86,17.07,26,0,35.83Z" transform="translate(-427.52 -446.08)"></path><path class="cls-2" d="M740.27,1067.88c-9.84,5.69-26,5.69-35.8,0l-156-90c-9.85-5.69-9.85-15,0-20.68l155.94-90c9.85-5.69,26-5.69,35.81,0l156,90c9.84,5.68,9.84,15,0,20.67Z" transform="translate(-427.52 -446.08)"></path><path class="cls-2" d="M777.23,1387.09c-9.85,5.68-26,5.68-35.81,0l-155.95-90c-9.85-5.68-9.85-15,0-20.67l155.94-90c9.85-5.68,26-5.68,35.81,0l155.95,90c9.85,5.69,9.85,15,0,20.67Z" transform="translate(-427.52 -446.08)"></path><path class="cls-2" d="M1309.49,1375.29c-9.84,5.69-26,5.69-35.81,0l-155.94-90c-9.85-5.69-9.85-15,0-20.68l155.94-90c9.85-5.69,26-5.69,35.81,0l156,90c9.84,5.68,9.84,15,0,20.67Z" transform="translate(-427.52 -446.08)"></path><path class="cls-2" d="M1307.92,1056.88c-9.85,5.68-26,5.68-35.81,0l-155.95-90c-9.84-5.68-9.84-15,0-20.67l155.95-90c9.84-5.68,26-5.68,35.8,0l155.95,90c9.85,5.69,9.85,15,0,20.67Z" transform="translate(-427.52 -446.08)"></path><path class="cls-3" d="M1083.43,707.16v311.09a12,12,0,0,1-18.07,10.43L741.06,841.44a40.32,40.32,0,0,1-20.16-34.91V495.44A12,12,0,0,1,739,485l324.31,187.24A40.31,40.31,0,0,1,1083.43,707.16Z" transform="translate(-427.52 -446.08)"></path><path class="cls-4" d="M1075,712.22v311.09a12,12,0,0,1-18.07,10.43L732.59,846.51a40.34,40.34,0,0,1-20.16-34.92V500.51a12.05,12.05,0,0,1,18.07-10.44l324.31,187.24A40.31,40.31,0,0,1,1075,712.22Z" transform="translate(-427.52 -446.08)"></path><ellipse class="cls-5" cx="422.68" cy="904.17" rx="93.5" ry="54.75"></ellipse><rect class="cls-5" x="329.18" y="825.28" width="187" height="75.97"></rect><ellipse class="cls-6" cx="422.68" cy="829.66" rx="93.5" ry="54.75"></ellipse><ellipse class="cls-3" cx="422.68" cy="829.66" rx="81.6" ry="47.78"></ellipse><path class="cls-7" d="M804.21,1274.47v40.84s19.22,8.32,46.51,8.32c29.92,0,45.8-8.57,45.8-8.57l-.39-40.59Z" transform="translate(-427.52 -446.08)"></path><ellipse class="cls-8" cx="422.65" cy="828.39" rx="45.96" ry="26.91"></ellipse><ellipse class="cls-7" cx="422.65" cy="828.39" rx="35.8" ry="20.96"></ellipse><path class="cls-9" d="M814.06,1290.4v29.34s-.55,1.35,13.47,3.32a92.82,92.82,0,0,0,12.85.73V1290.4Z" transform="translate(-427.52 -446.08)"></path><path class="cls-10" d="M842.77,1290.78c0,5-7,9.11-15.55,9.11s-15.56-4.08-15.56-9.11a48.85,48.85,0,0,1,.08-5.55c1.45-4.15,8-3.56,15.48-3.56,7,0,13.46-.14,15.44,3.56C843.11,1286.09,842.77,1289.83,842.77,1290.78Z" transform="translate(-427.52 -446.08)"></path><ellipse class="cls-6" cx="399.69" cy="839.73" rx="15.56" ry="9.11"></ellipse><ellipse class="cls-10" cx="399.69" cy="839.88" rx="10.25" ry="6"></ellipse><path class="cls-9" d="M814.06,1224.49v33.07a52.17,52.17,0,0,1,14.28-6.72,86.1,86.1,0,0,1,12-2.63v-23.72Z" transform="translate(-427.52 -446.08)"></path><path class="cls-10" d="M842.77,1224.87c0,5-7,9.11-15.55,9.11s-15.56-4.08-15.56-9.11a48.85,48.85,0,0,1,.08-5.55c1.45-4.15,8-3.56,15.48-3.56,7,0,13.46-.14,15.44,3.56C843.11,1220.18,842.77,1223.93,842.77,1224.87Z" transform="translate(-427.52 -446.08)"></path><ellipse class="cls-6" cx="399.69" cy="773.82" rx="15.56" ry="9.11"></ellipse><ellipse class="cls-10" cx="399.69" cy="773.97" rx="10.25" ry="6"></ellipse><path class="cls-9" d="M888.5,1224.49v35a43.93,43.93,0,0,0-16-8.53,80.68,80.68,0,0,0-10.27-2.46v-24Z" transform="translate(-427.52 -446.08)"></path><path class="cls-10" d="M859.78,1224.87c0,5,7,9.11,15.56,9.11s15.55-4.08,15.55-9.11a51.29,51.29,0,0,0-.07-5.55c-1.45-4.15-8-3.56-15.48-3.56-7,0-13.47-.14-15.44,3.56C859.44,1220.18,859.78,1223.93,859.78,1224.87Z" transform="translate(-427.52 -446.08)"></path><ellipse class="cls-6" cx="447.81" cy="773.82" rx="15.56" ry="9.11"></ellipse><ellipse class="cls-10" cx="447.81" cy="773.97" rx="10.25" ry="6"></ellipse><path class="cls-9" d="M888.33,1290.4v28s-3.09,2.79-15.39,4.43c-6.22.83-10.93,1-10.93,1V1290.4Z" transform="translate(-427.52 -446.08)"></path><path class="cls-10" d="M859.62,1290.78c0,5,7,9.11,15.55,9.11s15.56-4.08,15.56-9.11a48.85,48.85,0,0,0-.08-5.55c-1.45-4.15-8-3.56-15.48-3.56-7,0-13.46-.14-15.44,3.56C859.28,1286.09,859.62,1289.83,859.62,1290.78Z" transform="translate(-427.52 -446.08)"></path><ellipse class="cls-6" cx="447.65" cy="839.73" rx="15.56" ry="9.11"></ellipse><ellipse class="cls-10" cx="447.65" cy="839.88" rx="10.25" ry="6"></ellipse><path class="cls-9" d="M926,1261.13l-.14,32s-.63,5.86-15.74,15.41a65.05,65.05,0,0,1-10.44,5.08v-52.5Z" transform="translate(-427.52 -446.08)"></path><path class="cls-10" d="M897.33,1261.51c0,5,7,9.11,15.55,9.11s15.56-4.07,15.56-9.11a48.67,48.67,0,0,0-.08-5.54c-1.45-4.15-8-3.56-15.48-3.56-7,0-13.46-.15-15.44,3.56C897,1256.83,897.33,1260.57,897.33,1261.51Z" transform="translate(-427.52 -446.08)"></path><ellipse class="cls-6" cx="485.36" cy="810.46" rx="15.56" ry="9.11"></ellipse><ellipse class="cls-10" cx="485.36" cy="810.61" rx="10.25" ry="6"></ellipse><path class="cls-3" d="M710.26,1155.75s40.85,49.45,20.43,107.5-34.25,64.21-34.25,64.21l-11.84-6.18s22.76-54.39,23.74-74.2c.89-18-30.51-60.15-30.51-60.15l6.36,160.1L669.12,1349S632.9,1161.18,637.2,1147.2,655.44,1121.35,710.26,1155.75Z" transform="translate(-427.52 -446.08)"></path><path class="cls-11" d="M741.11,1070.6s0-9.7.45-11,4-7.93,4.84-6.61-1.76,5.29-1.76,5.29,2.2,6.17,1.76,8.37S741.11,1070.6,741.11,1070.6Z" transform="translate(-427.52 -446.08)"></path><path class="cls-6" d="M695.29,1094.39s22.47,17.63,25.56,16.31,33-32.61,33-32.61l-6.61-11.46-40.09,24.24Z" transform="translate(-427.52 -446.08)"></path><path class="cls-9" d="M745,1018.28V1137.8s.42,20.26,13.68,20.26c12.89,0,12.64-18.83,12.64-18.83v-121Z" transform="translate(-427.52 -446.08)"></path><path class="cls-8" d="M745,1069.17v68.63s.42,20.26,13.68,20.26c12.89,0,12.64-18.83,12.64-18.83v-68.08" transform="translate(-427.52 -446.08)"></path><path class="cls-10" d="M773.67,1018.66c0,5-7,9.11-15.56,9.11s-15.56-4.08-15.56-9.11a48.67,48.67,0,0,1,.08-5.54c1.45-4.15,8-3.56,15.48-3.56,7,0,13.46-.15,15.44,3.56C774,1014,773.67,1017.72,773.67,1018.66Z" transform="translate(-427.52 -446.08)"></path><ellipse class="cls-6" cx="330.59" cy="567.61" rx="15.56" ry="9.11"></ellipse><ellipse class="cls-10" cx="330.63" cy="568.53" rx="10.25" ry="6"></ellipse><ellipse class="cls-7" cx="330.59" cy="622.62" rx="13.08" ry="7.66"></ellipse><path class="cls-11" d="M771.55,1063.8c3-8.57,5.05-5,3.26-13.56s-1.8-8.55-3.66-10.34c-2.66-2.56-6.47-2.63-6,3.12s1.6,8.63.85,9-3.37-1.62-3.68,0,1.17,1.84,2.78,3.1-1.38,7.47-1.38,7.47Z" transform="translate(-427.52 -446.08)"></path><polygon class="cls-11" points="267.45 877.07 262.87 884.45 257.12 881.72 262.28 873.65 267.45 877.07"></polygon><path class="cls-5" d="M668.59,1349s25.63-6.06,29.7-3-29.94,7.6-29.94,7.6Z" transform="translate(-427.52 -446.08)"></path><path class="cls-9" d="M723.6,1091s17.72,14.73,27.51,18.6c14.33,5.67,23.43-49.62,23.43-49.62l-11.12-5.56-12.64,30.37-21.57-27.92c-6.43-6.22-15.91-9-24.8-10.08l-26.51-3.26,10.87,1.44c-12.51-2-28.73-3-32.7,12.43,0,0-13.07,50.79-14.09,58s-20.53,91.35-20.53,91.35L651.21,1218l13.9-43.73,4.58,47.83s27.71,3.08,42.08,3.08S740.5,1219,740.5,1219s-9.56-61.41-11.61-76.81S723.6,1091,723.6,1091Z" transform="translate(-427.52 -446.08)"></path><path class="cls-11" d="M714.85,999.91l6.2,21.33a8.92,8.92,0,0,1-6.12,11.08l-5.73,2-3.08,12.83-18.73-2.31,7.79-38.74Z" transform="translate(-427.52 -446.08)"></path><path class="cls-7" d="M702.54,1034.45c2.39-1.74,5.92-5,5.82-9.24,0,0-9.05-.26-6.63-6.54,1.5-3.9,6.68-.81,6.68-.81s-2.06-7.82-.79-10.29c0,0,15.54,0,13-9.18,0,0-4.32-3.93-14.11-4.48s-15.17,16-15.17,16l8.25,23.64A1.91,1.91,0,0,0,702.54,1034.45Z" transform="translate(-427.52 -446.08)"></path><path class="cls-7" d="M717.29,1005.5c1.53-1.35,2.93-2.52,3.64-4.44s-.22-7-2-8.06c-2-1.26-4.59-.14-6.94.19-3.53.5-7-.88-10.57-1.26s-7.85.78-8.94,4.17c-.22.7-.4,1.57-1.11,1.78a2.65,2.65,0,0,1-.93,0c-2.75-.26-4.67,3-4.51,5.72s1.59,5.26,2.23,7.94c1.39,5.88-1.06,12.45,1.51,17.92,2,4.3,8.42,8.1,12.83,5l-5.63-24.89Z" transform="translate(-427.52 -446.08)"></path><path class="cls-5" d="M684.64,1327.8s24.08,10.67,25.45,15.59-28.45-12-28.45-12Z" transform="translate(-427.52 -446.08)"></path><path class="cls-5" d="M722,1016.82l-12,.13-1.88,11.16,7.7,7.19S728.23,1032.15,722,1016.82Z" transform="translate(-427.52 -446.08)"></path><polygon class="cls-6" points="269.42 593.01 244.41 600.94 245.74 604.03 260.94 599.4 269.09 606.45 272.06 605.57 269.42 593.01"></polygon><path class="cls-12" d="M806.79,649.39l-72.38-42.94a3.25,3.25,0,0,1-1.6-2.8V520.13a3.26,3.26,0,0,1,4.92-2.8l72.52,43a3.27,3.27,0,0,1,1.6,2.81c-.05,10.78-.3,65.32-.14,83.4A3.26,3.26,0,0,1,806.79,649.39Z" transform="translate(-427.52 -446.08)"></path><path class="cls-13" d="M1053.57,833.79l-236-141.94A3.27,3.27,0,0,1,816,689v-11.8a3.26,3.26,0,0,1,4.92-2.8l236.12,142a3.22,3.22,0,0,1,1.6,2.81c-.05,10.78-.29-6.4-.14,11.69A3.26,3.26,0,0,1,1053.57,833.79Z" transform="translate(-427.52 -446.08)"></path><path class="cls-13" d="M1053.57,903,817.58,761a3.24,3.24,0,0,1-1.59-2.8V746.42a3.26,3.26,0,0,1,4.92-2.8l236.12,142a3.24,3.24,0,0,1,1.6,2.82c-.05,10.77-.29-6.4-.14,11.68A3.26,3.26,0,0,1,1053.57,903Z" transform="translate(-427.52 -446.08)"></path><path class="cls-13" d="M1053.57,871.52l-236-141.94a3.24,3.24,0,0,1-1.59-2.8V715a3.26,3.26,0,0,1,4.92-2.81L1057,854.2a3.21,3.21,0,0,1,1.6,2.81c-.05,10.77-.29-6.4-.14,11.69A3.26,3.26,0,0,1,1053.57,871.52Z" transform="translate(-427.52 -446.08)"></path><path class="cls-13" d="M1053.57,941.5l-236-141.94a3.25,3.25,0,0,1-1.59-2.8V785a3.26,3.26,0,0,1,4.92-2.8l236.12,142a3.23,3.23,0,0,1,1.6,2.81c-.05,10.78-.29-6.4-.14,11.69A3.26,3.26,0,0,1,1053.57,941.5Z" transform="translate(-427.52 -446.08)"></path><path class="cls-13" d="M1053.57,1010.68l-236-141.94a3.24,3.24,0,0,1-1.59-2.8v-11.8a3.26,3.26,0,0,1,4.92-2.81l236.12,142a3.21,3.21,0,0,1,1.6,2.81c-.05,10.77-.29-6.4-.14,11.69A3.26,3.26,0,0,1,1053.57,1010.68Z" transform="translate(-427.52 -446.08)"></path><path class="cls-13" d="M1053.57,979.24l-236-141.94a3.27,3.27,0,0,1-1.59-2.81v-11.8a3.26,3.26,0,0,1,4.92-2.8l236.12,142a3.22,3.22,0,0,1,1.6,2.81c-.05,10.78-.29-6.4-.14,11.69A3.26,3.26,0,0,1,1053.57,979.24Z" transform="translate(-427.52 -446.08)"></path><path class="cls-13" d="M1053.57,724.5l-236-141.94a3.24,3.24,0,0,1-1.59-2.8V568a3.26,3.26,0,0,1,4.92-2.8l236.12,142a3.24,3.24,0,0,1,1.6,2.82c-.05,10.77-.29-6.4-.14,11.68A3.26,3.26,0,0,1,1053.57,724.5Z" transform="translate(-427.52 -446.08)"></path><path class="cls-13" d="M1053.57,793.69l-236-141.94A3.25,3.25,0,0,1,816,649V637.14a3.26,3.26,0,0,1,4.92-2.8l236.12,142a3.23,3.23,0,0,1,1.6,2.81c-.05,10.78-.29-6.39-.14,11.69A3.26,3.26,0,0,1,1053.57,793.69Z" transform="translate(-427.52 -446.08)"></path><path class="cls-13" d="M1053.57,762.24l-236-141.94a3.25,3.25,0,0,1-1.59-2.8V605.69a3.26,3.26,0,0,1,4.92-2.8l236.12,142a3.23,3.23,0,0,1,1.6,2.81c-.05,10.78-.29-6.39-.14,11.69A3.26,3.26,0,0,1,1053.57,762.24Z" transform="translate(-427.52 -446.08)"></path><path class="cls-14" d="M797.44,598.21s-9-23.09-27.43-32.12-23.76,2.68-23.76,2.68,2.25,19.31,23.92,32.78C788.54,613,797.44,598.21,797.44,598.21Z" transform="translate(-427.52 -446.08)"></path><path class="cls-8" d="M806.79,758.18l-72.38-42.94a3.25,3.25,0,0,1-1.6-2.8V628.92a3.26,3.26,0,0,1,4.92-2.8l72.52,43a3.27,3.27,0,0,1,1.6,2.81c-.05,10.77-.3,65.32-.14,83.4A3.26,3.26,0,0,1,806.79,758.18Z" transform="translate(-427.52 -446.08)"></path><path class="cls-12" d="M806.79,864.33l-72.38-42.94a3.26,3.26,0,0,1-1.6-2.8V735.06a3.26,3.26,0,0,1,4.92-2.8l72.52,43a3.28,3.28,0,0,1,1.6,2.81c-.05,10.78-.3,65.32-.14,83.41A3.26,3.26,0,0,1,806.79,864.33Z" transform="translate(-427.52 -446.08)"></path><path class="cls-12" d="M761.74,577.19c-.54,6.08,3.07,13.86,8.07,17.37s9.49,1.42,10-4.66-3.08-13.87-8.07-17.38S762.28,571.1,761.74,577.19Z" transform="translate(-427.52 -446.08)"></path><path class="cls-2" d="M771.72,679.53s9.49-4.5,16.32,6.15c9.09,14.2-2,21.81-2,21.81s-7.32,5.49-15.15,5.83c0,0-11.48-13.82-15.48-22.31s-9.32-19.47-1.33-23.8S769.56,674.37,771.72,679.53Z" transform="translate(-427.52 -446.08)"></path><path class="cls-14" d="M759.82,809.49c0-.5,1.5-10.35-1-13s-5.51-16.53-4-20.7,8-1.67,10.52-.67,10.18,5.84,13.52,6.84,13.69,7.18,8.51,15.86c-3.09,5.2-6.34,8.18-6.51,15-.06,2.69-.36,14.12-1.67,13.68-4-1.33-2.83-16.69-9-17.86-3.94-.74-6,.34-6.68,4s-.16,7.51-2.33,4.67S759.82,809.49,759.82,809.49Z" transform="translate(-427.52 -446.08)"></path><path id="Фигура_15" data-name="Фигура 15" class="cls-15" d="M611.68,953.8c-1.5-.38-9.1,5-9.48,7.19s6.15,5,7.94,8.73,6.22,17.08,16.93,16.94c10.63-1.24,1.41-8.26-1.28-8.47S616.42,955,611.68,953.8Z" transform="translate(-427.52 -446.08)"></path><path id="Фигура_19" data-name="Фигура 19" class="cls-16" d="M655.57,988.24c-.08,2.7-1.59,5.38,6.15,5.13,8.19-.26,13.6-3,20.51-4.62s7.9-5.59,6.67-7.44S655.64,985.54,655.57,988.24Z" transform="translate(-427.52 -446.08)"></path><path id="Фигура_20" data-name="Фигура 20" class="cls-17" d="M655.57,706.63c-5.51,6-11.16,16.2-10,33.88S661.08,700.63,655.57,706.63Z" transform="translate(-427.52 -446.08)"></path><path id="Фигура_21" data-name="Фигура 21" class="cls-18" d="M683.52,718.7s7,4.52,6.15,11.55-14.1-.26-14.1-.26Z" transform="translate(-427.52 -446.08)"></path><path id="Фигура_18" data-name="Фигура 18" class="cls-15" d="M678.13,977.2s7.76-.11,9.23,1.29,3.08,4,1.29,6.41-9.81,4.25-14.36,4.88-12.88,1.49-15.39,1-3.71-1.78-3.33-4.62,1-6.92,3.33-7.7S678.13,977.2,678.13,977.2Z" transform="translate(-427.52 -446.08)"></path><path id="Фигура_17" data-name="Фигура 17" class="cls-19" d="M660.7,965.65a47.73,47.73,0,0,1-1.8,12.58c-.83,2.62,11.29,4.83,17.18,5.39s8.79.46,6.92-1.8a61.26,61.26,0,0,0-4.36-4.62,32.15,32.15,0,0,1-4.61-1.28c-1.54-.66-2.88-2.62-2-8.73S660.7,965.65,660.7,965.65Z" transform="translate(-427.52 -446.08)"></path><path id="Фигура_14" data-name="Фигура 14" class="cls-19" d="M632.75,951.28s-4.68,5.31-5.9,10.52-2.24,14.1,0,16.94a2.29,2.29,0,0,1-.76,2.57c-.9.4-3-2.9-4.36-8.21s-7.05-16.77-9.75-18.48c.13.08,3.21,0,11-10.53S632.75,951.28,632.75,951.28Z" transform="translate(-427.52 -446.08)"></path><path id="Фигура_13" data-name="Фигура 13" class="cls-20" d="M648.13,791.94a73.29,73.29,0,0,0-7.51,17.93c-1.06,4.13-2.18,11.42,2.9,23.56s3.86,22.65,6.12,35.61c1.61,9.27,2,19.18.28,21.7-5.36,7.89-11.51,17.28-15.66,23.19S620.08,938.58,618,940.52s3.86,2.7,4.77,4.6c2.29,4.9,7.77,9.91,13.14,10.6,0,0,24.17-27.86,27-34.62,1.47-3.52.12-14,.12-14l8-25.38-1-47.23-14.47-39.14Z" transform="translate(-427.52 -446.08)"></path><path id="Фигура_12" data-name="Фигура 12" class="cls-21" d="M650.76,793.82c-.76,3.46-6.48,13.8-2.88,24.72,2.32,10.93,13,12.89,13.33,20,.64,14.64.94,25.15,1,37s-.46,17.76.26,22.58-1.62,6.76-2.31,19.23,0,33.54-.51,39.07-.77,7.45-.77,7.45,1.33,4,8.72,3.85,16-.6,16-.6,11.07-62.31,11.92-68.2-.44-33.19.28-41.14c1-11.52.57-12.11,1.41-22.26,0-6.76,2.57-21.3,3.1-23.66s-2.49-12.38-10.94-11S650.76,793.82,650.76,793.82Z" transform="translate(-427.52 -446.08)"></path><path id="Фигура_2" data-name="Фигура 2" class="cls-18" d="M698.7,800.93c.81,9,3.66,67.15,3.26,67.56-14.82,14.81-36.63,8.14-36.63,8.14s-26.86-2.44-37-17.91c-.7-1.07,11.6-41.77,17.1-68a75,75,0,0,0,.81-22.38S691.78,794,698.7,800.93Z" transform="translate(-427.52 -446.08)"></path><path id="Фигура_11" data-name="Фигура 11" class="cls-18" d="M696.12,801.42c3.39-3.66-3.1-7.59-1.69-5.91,5.1,6,7.9-39.77,6.2-44.8-1.42-4.23-8.9-14.57-9.58-18.6s-22.63,50.06-22.63,50.06S696.55,803.59,696.12,801.42Z" transform="translate(-427.52 -446.08)"></path><path id="Фигура_9" data-name="Фигура 9" class="cls-22" d="M676.34,729.22s3.71-4.49,10-1.54,6.14,9.24,4.1,13.35-6.48,22.23-11.22,31.09-9,9.58-9,9.58-11.38,1.26-14.64,2.54-6.22-5.55-5.12-9.33,9.35-19.51,12.82-26.18S676.34,729.22,676.34,729.22Z" transform="translate(-427.52 -446.08)"></path><path class="cls-20" d="M698.38,816.36l-13.81,14.08,4.51,7S698.1,823.4,698.38,816.36Z" transform="translate(-427.52 -446.08)"></path><path class="cls-20" d="M691.21,806s.31,10.73,2,15.91l-8.69,8.56S690.24,806.28,691.21,806Z" transform="translate(-427.52 -446.08)"></path><path class="cls-23" d="M669.67,781.84l.63,3.15s-9.21,7.13-11.84,6.57a8.74,8.74,0,0,1-3.92-1.76s-3.21-3.12-3.21-4.63,2.06-6.57,2.06-6.57S657.4,773.24,669.67,781.84Z" transform="translate(-427.52 -446.08)"></path><path id="Фигура_1" data-name="Фигура 1" class="cls-23" d="M669.67,781.84s-.93,2.89-4.87,5.39-10.26,2.57-10.26,2.57,15.68,9,25.64,12.06,11,4.11,11,4.11a15.49,15.49,0,0,1,.25,5.39c-.41,2.69,1.8,10.52,1.8,10.52s5.41-5.65,6.41-9,1.57-7.77,2.05-9.76-.67-4.68-4.62-6.16-13-6.16-17.17-8.47S669.67,781.84,669.67,781.84Z" transform="translate(-427.52 -446.08)"></path><path id="Фигура_5" data-name="Фигура 5" class="cls-23" d="M742.49,648.63s-5.72,8-8,8.72-2.83,5.9-7.18,9.76-26.67,17.45-26.67,17.45-11.2,25.4-1.28,19a72.56,72.56,0,0,0,13.08-11c3.85-3.85,12.55-14,14.1-15.4s1.85-1.67,3.85-1.8,4.87-5.13,4.87-5.13,2.43,1.41,4.1,0,1-2.06,1-2.06a2.94,2.94,0,0,0,1.8-2.31c.13-1.66,1.85-2,1-3.33s-4.61-2.06-4.61-2.06a38.43,38.43,0,0,1,3.07-6.41C743.07,652.16,744.67,649.07,742.49,648.63Z" transform="translate(-427.52 -446.08)"></path><path class="cls-18" d="M705.32,679.78s9.12,5.65,9.31,12l-2.82,3.76s.56,4.69-8.83,12.39c-3.5,2.87-13.45,14.08-14.09,15.78s-1.12-6.2-15.59-2.44c-1.55.4-3-16,0-20.66S705.32,679.78,705.32,679.78Z" transform="translate(-427.52 -446.08)"></path><path id="Фигура_6" data-name="Фигура 6" class="cls-19" d="M694.07,687.28s1.25,2.87,0,4.83-.12,2.36,0,3.22a6.77,6.77,0,0,1-.92,5.75c-1.83,2.82-.35,4.83-2.53,6s-7.12,2.07-7.12,2.07Z" transform="translate(-427.52 -446.08)"></path><path id="Фигура_7" data-name="Фигура 7" class="cls-19" d="M689.18,700s3.31,5,2.05,8.19-2.77,4.19-3.89,4.71-6.63.29-8.06,3.8-2.37-14.24-2.37-14.24Z" transform="translate(-427.52 -446.08)"></path><polygon class="cls-19" points="258.18 266.59 257.43 275.42 252.92 275.42 254.61 266.96 258.18 266.59"></polygon><path id="Фигура_3" data-name="Фигура 3" class="cls-24" d="M690.16,680.14s8.3,3.48,5.77,11.3c-3.33,10.26-10,8.9-12.27,16.27s0,15.88-4.35,22.8c-6.86,10.82-16.9,7.31-18.65,26.93-1.08,12-6.07,15.09-11.38,17.87-1.26,0-12.85,4.42-11.62-8.09.66-6.7,5.5-6.64,4.3-12.62s-7.57-8.53-4.8-15.66c2.45-6.31,13.91-10.46,10.1-19-3.33-7.42,9.45-10.73,8.42-15.45-2-9.07-.33-16.18,3.75-22.62,4.35-6.85,11.15-9.76,22-9.6C689.25,672.44,694,675.54,690.16,680.14Z" transform="translate(-427.52 -446.08)"></path><path class="cls-8" d="M997.92,788.79a4.5,4.5,0,0,1-4.25-3l-6.94-20a2,2,0,0,0-2.22-1.28l-47.4,9.28a4.54,4.54,0,0,1-4.48-1.74l-26.1-35.14a1.94,1.94,0,0,0-1.39-.78,1.92,1.92,0,0,0-1.51.52l-10.28,9.59a4.51,4.51,0,0,1-7.46-2.28L882,727a1.9,1.9,0,0,0-1.52-1.47,1.88,1.88,0,0,0-2,.79l-14.32,20.35a4.5,4.5,0,0,1-7.68-.52l-12.54-24.23a2,2,0,0,0-1.43-1,2,2,0,0,0-1.68.55L827,735.31l-1.81-1.81L839,719.62a4.5,4.5,0,0,1,7.18,1.11L858.74,745a1.95,1.95,0,0,0,3.33.22l14.32-20.35a4.51,4.51,0,0,1,8.07,1.58l3.92,17a1.93,1.93,0,0,0,1.33,1.42,1.9,1.9,0,0,0,1.9-.44l10.28-9.59a4.57,4.57,0,0,1,3.48-1.19,4.47,4.47,0,0,1,3.2,1.8l26.11,35.14a1.94,1.94,0,0,0,1.94.75L984,762a4.53,4.53,0,0,1,5.12,2.94l7,20a1.9,1.9,0,0,0,1.1,1.17,1.93,1.93,0,0,0,1.61-.07L1025,772.94l1.14,2.28-26.19,13.1A4.57,4.57,0,0,1,997.92,788.79Z" transform="translate(-427.52 -446.08)"></path><path class="cls-8" d="M924.28,670.34a4.47,4.47,0,0,1-3.89-2.25c-4.47-7.77-9.76-17.48-10.27-20.8-2.1-.84-13.43-.65-34.3,1.73a4.46,4.46,0,0,1-4-1.62l-27.82-34a2,2,0,0,0-2.43-.49l-14.66,7.82-1.2-2.25,14.67-7.82a4.5,4.5,0,0,1,5.6,1.12l27.81,34a2,2,0,0,0,1.72.7c22.11-2.53,34.39-2.87,36.47-1a1.8,1.8,0,0,1,.62,1.34c0,1.23,2.62,7.2,10,20a1.92,1.92,0,0,0,2.1.92l18.1-4,.55,2.49-18.09,4A4.84,4.84,0,0,1,924.28,670.34Z" transform="translate(-427.52 -446.08)"></path><path class="cls-8" d="M1006.11,882.45a3.77,3.77,0,0,1-.58,0l-59.48-7.71a2,2,0,0,0-1,.13l-9.6,4a4.48,4.48,0,0,1-6-2.73l-3.06-9.17a2,2,0,0,0-.86-1.06L897.08,849a2,2,0,0,0-1.44-.22l-20.11,4.79a4.46,4.46,0,0,1-5-2.27c-3.09-5.84-11.42-23.33-16.11-33.23a3,3,0,0,0-4.28-1.27l-22,13.39L826.8,828l22-13.39a5.54,5.54,0,0,1,7.9,2.36c4.69,9.88,13,27.33,16.06,33.14a1.94,1.94,0,0,0,2.17,1l20.11-4.79a4.47,4.47,0,0,1,3.33.51l28.45,16.86a4.45,4.45,0,0,1,2,2.45l3.06,9.17a1.92,1.92,0,0,0,1,1.16,2,2,0,0,0,1.56,0l9.6-4a4.45,4.45,0,0,1,2.31-.31l59.48,7.71a1.87,1.87,0,0,0,1-.14l15.06-6.45,1,2.34-15.06,6.45A4.32,4.32,0,0,1,1006.11,882.45Z" transform="translate(-427.52 -446.08)"></path><ellipse class="cls-5" cx="828.4" cy="488.4" rx="48.94" ry="28.65"></ellipse><ellipse class="cls-3" cx="828.4" cy="476.37" rx="48.94" ry="28.65"></ellipse><path class="cls-5" d="M1351.22,951.15l37.59,24.6,4-27.76S1380,937.3,1378.92,937.3,1351.22,951.15,1351.22,951.15Z" transform="translate(-427.52 -446.08)"></path><path class="cls-6" d="M1294.23,1030.37l-39.73-22.6V983s.73-9.11,6.56-15.67,9.84-8.75,9.84-8.75l66.35-39s4-2.55,7.65-2.55a9.63,9.63,0,0,1,5.83,1.82l39.37,23-60.51,30.62s-25.88,12.4-28.43,18.59S1294.23,1030.37,1294.23,1030.37Z" transform="translate(-427.52 -446.08)"></path><path class="cls-5" d="M1294.23,1030.37v-23.69s-.36-17.13,15-25.88l67.8-37.18s7.65-5.47,13.12-1.83a10.25,10.25,0,0,1,4.38,9.85v21.5l-5.47,3.65V952.73s.36-4.74-2.92-5.83-7.65,2.18-7.65,2.18l-66.35,36.46s-6.56,3.64-9.47,10.2a33.8,33.8,0,0,0-2.92,12.4v19.32Z" transform="translate(-427.52 -446.08)"></path><path class="cls-3" d="M1255,896.47l29.53,19.32,2.19-23.69s-2.92-9.48-4-9.48S1255,896.47,1255,896.47Z" transform="translate(-427.52 -446.08)"></path><path class="cls-6" d="M1183.9,963.54l-39.73-22.6V916.16s.73-9.12,6.56-15.68,9.84-8.75,9.84-8.75l66.35-39s4-2.55,7.65-2.55a9.63,9.63,0,0,1,5.83,1.82l39.37,23-60.51,30.62s-25.88,12.4-28.43,18.59S1183.9,963.54,1183.9,963.54Z" transform="translate(-427.52 -446.08)"></path><path class="cls-5" d="M1183.9,963.54V939.85s-.36-17.13,14.95-25.88l67.8-37.18s7.65-5.47,13.12-1.83a10.25,10.25,0,0,1,4.38,9.85v21.5l-5.47,3.65V885.9s.36-4.74-2.92-5.83-7.65,2.18-7.65,2.18l-66.35,36.46s-6.56,3.64-9.47,10.2a33.83,33.83,0,0,0-2.92,12.4v19.32Z" transform="translate(-427.52 -446.08)"></path><path class="cls-3" d="M1305.08,842.63c-.18-.14-.35-.29-.54-.42l-.34-.19-1.22-.84-.09.14c-8.51-3.74-21.46,3-29.91,15.91-8.17,12.49-9.33,26.47-3.24,33.09l-.3.44,24.31,16,32.56-49.58Z" transform="translate(-427.52 -446.08)"></path><ellipse class="cls-5" cx="1307.64" cy="880.8" rx="29.85" ry="18.19" transform="translate(-572.79 1046.92) rotate(-56.81)"></ellipse><ellipse class="cls-3" cx="1307.64" cy="880.8" rx="21.4" ry="13.04" transform="translate(-572.79 1046.92) rotate(-56.81)"></ellipse><path class="cls-6" d="M1304.44,688.08s21.38-4.37,35.48-.48,40.83,24.3,40.83,24.3l5.34,90.4L1336,886.87l-6.32,7.78-31.1-25.76s45.2-35.48,51-90.4c5.09-47.94-3.89-68-3.89-68L1319,723.08Z" transform="translate(-427.52 -446.08)"></path><path class="cls-5" d="M1314.89,710s45.69-27.22,73.88,10.2.48,105.47-3.89,114.71-21.87,41.79-35,53h-24.79s37.43-31.59,50.07-88.45-25.28-66.59-25.28-66.59l-30.62,3.4-6.32,2.43Z" transform="translate(-427.52 -446.08)"></path><path class="cls-3" d="M1358.3,880.05c-.18-.13-.34-.29-.54-.42s-.23-.11-.34-.18l-1.22-.84-.09.13c-8.51-3.73-21.46,3-29.91,15.91-8.17,12.49-9.33,26.47-3.24,33.09l-.3.44,24.31,16,32.56-49.57Z" transform="translate(-427.52 -446.08)"></path><ellipse class="cls-5" cx="1360.87" cy="918.22" rx="29.85" ry="18.19" transform="translate(-580.02 1108.39) rotate(-56.81)"></ellipse><ellipse class="cls-3" cx="1360.87" cy="918.22" rx="21.4" ry="13.04" transform="matrix(0.55, -0.84, 0.84, 0.55, -580.02, 1108.39)"></ellipse><path class="cls-5" d="M1185.8,904.82l.27-7.85,79.24-38.17,83.6,40.18v8.12a3,3,0,0,1-1.49,2.58l-78.66,45.47a3,3,0,0,1-3,0l-78.53-47.66A3,3,0,0,1,1185.8,904.82Z" transform="translate(-427.52 -446.08)"></path><path class="cls-6" d="M1187.57,893.58l76.29-43.78a3,3,0,0,1,2.92,0l81,45.23a3,3,0,0,1,0,5.16l-79,45.14a3,3,0,0,1-3,0l-78.24-46.58A3,3,0,0,1,1187.57,893.58Z" transform="translate(-427.52 -446.08)"></path><path class="cls-9" d="M1220.35,895.21l45.07-25.87a1.76,1.76,0,0,1,1.72,0L1315,896.05a1.75,1.75,0,0,1,0,3.05l-46.67,26.66a1.73,1.73,0,0,1-1.76,0l-46.22-27.52A1.75,1.75,0,0,1,1220.35,895.21Z" transform="translate(-427.52 -446.08)"></path><ellipse class="cls-8" cx="851.4" cy="408.95" rx="16.53" ry="9.68"></ellipse><rect class="cls-8" x="834.87" y="387.81" width="32.56" height="21.14"></rect><path class="cls-5" d="M1242.47,821.26V688.08h73.88v132.2S1242,820.77,1242.47,821.26Z" transform="translate(-427.52 -446.08)"></path><ellipse class="cls-5" cx="851.4" cy="239.33" rx="36.94" ry="21.63"></ellipse><ellipse class="cls-5" cx="851.76" cy="372.62" rx="36.94" ry="21.63"></ellipse><ellipse class="cls-3" cx="851.4" cy="229.12" rx="29.47" ry="17.25"></ellipse><rect class="cls-3" x="821.75" y="216.73" width="58.81" height="10.21"></rect><ellipse class="cls-5" cx="851.4" cy="216" rx="29.47" ry="17.25"></ellipse><ellipse class="cls-8" cx="851.36" cy="206.22" rx="18.02" ry="10.55"></ellipse><rect class="cls-8" x="833.24" y="165.66" width="35.96" height="39.22"></rect><path class="cls-3" d="M1332.06,699.25c-.19-.14-.35-.3-.54-.42l-.34-.19-1.23-.84-.08.14c-8.52-3.74-21.46,3-29.92,15.91-8.17,12.49-9.32,26.47-3.23,33.09l-.3.44,24.3,16,32.56-49.58Z" transform="translate(-427.52 -446.08)"></path><ellipse class="cls-5" cx="1334.62" cy="737.42" rx="29.85" ry="18.19" transform="translate(-440.59 1004.6) rotate(-56.81)"></ellipse><ellipse class="cls-3" cx="1334.62" cy="737.42" rx="21.4" ry="13.04" transform="translate(-440.59 1004.6) rotate(-56.81)"></ellipse><ellipse class="cls-7" cx="851.4" cy="166.42" rx="23.33" ry="13.66"></ellipse><rect class="cls-7" x="828.07" y="146.74" width="46.66" height="18.96"></rect><ellipse class="cls-8" cx="851.4" cy="147.83" rx="23.33" ry="13.66"></ellipse><path class="cls-7" d="M1296.78,594.8c-.3,4.85-8,8.79-17.86,8.79s-17.86-3.93-17.86-8.79,8-8.78,17.86-8.78C1287.61,586,1297.16,588.88,1296.78,594.8Z" transform="translate(-427.52 -446.08)"></path><path class="cls-25" d="M1295.86,594.66c0,3.45-7,7.32-16.89,7.53-11.3.24-18.23-4.62-18.23-7.29,0-3.77,7.88-8.26,17.74-8.26S1295.86,592.23,1295.86,594.66Z" transform="translate(-427.52 -446.08)"></path><path class="cls-6" d="M1035,914.34c-1.64.33-35,2-35,2s-2.17-4.87-4.43-9.9a33.19,33.19,0,0,0-5.53,12.1c-.84,4.31-.17,8.6.71,12.84,1.88,1.91,3.7,3.37,4.94,3.28,6.08-.45,44.12-7.62,45.39-10C1040.7,922.2,1040.28,918,1035,914.34Z" transform="translate(-427.52 -446.08)"></path><path class="cls-10" d="M980,1134.3c4.6.86,5.52,1.08,9.29-1.58,3.28-.12,24.71-9.9,27.55-3.68,2.5,5.46-4.85,11.15-8.89,12.42-8.82,2.78-15.16,7.7-18.71,8.7-2.65.75-6.1,1.36-8.38-.61C978.16,1147.19,977.76,1137.81,980,1134.3Z" transform="translate(-427.52 -446.08)"></path><path class="cls-11" d="M968.63,981.4c3.45,20.12,14.69,41.67,10,69.76-3.77,22.64,1.34,83.38,1.34,83.38s3,7,8.17,3.74a7.27,7.27,0,0,0,3.25-5.36c1.24-11.07,3.52-51.24,7.56-75.93,2.13-13.09,6.55-49.75,4.3-77.93Z" transform="translate(-427.52 -446.08)"></path><path class="cls-26" d="M1013.45,1126.37" transform="translate(-427.52 -446.08)"></path><path class="cls-10" d="M1011.42,1149.74c4.56.85,6.27-.72,10-3.35,3.24-.12,21.42-9.39,24.24-3.23,2.47,5.41-4.8,11-8.81,12.31-8.74,2.75-15,7.63-18.54,8.62-2.62.74-6,1.34-8.3-.61C1007.31,1161.14,1009.16,1153.21,1011.42,1149.74Z" transform="translate(-427.52 -446.08)"></path><path class="cls-11" d="M995,979.94c3.82.22,28.9-2.27,28.9-2.27,6.22,30.13,8.59,72.66,5.83,89.55-4.64,28.4-6.4,81.78-6.4,81.78-7,8.74-12.46,3.81-12.46,3.81s-5.25-74.73-1.47-97.37C1015.37,1019.87,995.49,1003.43,995,979.94Z" transform="translate(-427.52 -446.08)"></path><path class="cls-26" d="M1041.53,1140.35" transform="translate(-427.52 -446.08)"></path><path class="cls-9" d="M1068.2,931.44c-1.65.33-31.5.2-31.5.2s-8.73-19.63-9.38-20.77c-2.2-3.85-4.32-7.76-6.55-11.6-9.27-16-27.52-32.32-47.47-27.37a12.61,12.61,0,0,0-6,3,17.13,17.13,0,0,0-4.91,11.79,86.39,86.39,0,0,0,4.77,31.87c4.33,12.94,9.65,25.27,3.53,37.7-7.13,14.49-13.68,100.59-10.48,111.17,10.93,2,50.77,11.87,84.64-7.17-2.61-19.2-23.55-116.5-24.11-120,1.85,1.41,8.45,10,11.65,9.71,6.08-.45,41.68-6.82,42.95-9.24C1074.91,938.27,1073.45,935.11,1068.2,931.44Z" transform="translate(-427.52 -446.08)"></path><path class="cls-27" d="M1014.21,832.06a16.51,16.51,0,0,0-11.28-5.4,21.59,21.59,0,0,0-16.86,7.09,19.58,19.58,0,0,0-5.21,16.59c-.14.16,2.64,24.94,3.93,28.1,3.73.95,14.1,1.36,15.47,1.12-.08-3.2.91-9.38,3.06-11.7a10.22,10.22,0,0,0,6.9,1.32c5.67-1.38,8.06-10.68,9.1-15.47C1020.91,846.4,1019.37,837.69,1014.21,832.06Z" transform="translate(-427.52 -446.08)"></path><path class="cls-28" d="M981.62,832.12c3.64-6.5,11.79-9.14,19.18-9.18a28.31,28.31,0,0,1,16.57,5.23,23.76,23.76,0,0,1,5.58,5.65c3.5,5,1.43,15.83-1.1,16.4-4,.65-7.3.06-10.93-.19a1.83,1.83,0,0,0-.8.14,3.82,3.82,0,0,0-2.29,3.64c-.06,1.38.1,2.8.16,4.18,0,.8-1.18,1.38-1.61.56-.2-.38-.6-1.26-1.13-2.15a1.66,1.66,0,0,0-3.08.78,4.09,4.09,0,0,0,2.12,3.69s-2.24,4-12,5S967.15,858,981.62,832.12Z" transform="translate(-427.52 -446.08)"></path><path class="cls-27" d="M1067.55,908.18c-1.08-1.72-3.94,0-5.35.17-4.66.69-9.51,1.36-14,3-2,.72-3.85,1.6-5.77,2.43-1.34.57-6.79,1.1-6.61,1.32,0,0,4.63,5.79,4.77,7.23,0,0,.77-.45,2.14-1.3,1.21.72,10,.4,11,.26a8.1,8.1,0,0,0,2-.55,4.53,4.53,0,0,1,2.1-.68,25.53,25.53,0,0,1,4,.86,1,1,0,0,0,1.24-.64,2,2,0,0,0-.93-2.32,6,6,0,0,0-1.72-.81,14.06,14.06,0,0,0-3.09-.45c-.73,0-1.53-.57-.92-1.34a1.48,1.48,0,0,1,.25-.25c2.35-1.94,6-1.07,8.52-2.77C1066.23,911.59,1068.55,909.76,1067.55,908.18Z" transform="translate(-427.52 -446.08)"></path><polygon class="cls-5" points="629.51 463.9 654.58 430.75 693.93 450.19 658.72 495.31 622.83 472.09 629.51 463.9"></polygon><path class="cls-27" d="M1061.17,933.23c8.21.33,5.58.86,13.56-1.12,3.74-.94,8-2.43,13.09-1.93a24.51,24.51,0,0,1,4.8,1.07,18.48,18.48,0,0,0,6.82.64.55.55,0,0,1,.39.12.6.6,0,0,1,.71.56c.1,1.68-1.31,2.44-2.78,2.63a22.46,22.46,0,0,1-4.34.13,9.22,9.22,0,0,1-8.69,5.95c-1,0-9.74-1.06-10.83-2-7.65,2.51-8.69,4.45-8.69,4.45C1065.29,942.32,1061.17,933.23,1061.17,933.23Z" transform="translate(-427.52 -446.08)"></path><path class="cls-9" d="M1036.7,931.64l33.2-.9s4.94.35,5.44,10c0,0-8.15,4-21.85,5.9Z" transform="translate(-427.52 -446.08)"></path><path class="cls-28" d="M981.39,853.47s-10.33,2.34-13.32,16.3-.4,23.28-2.68,28.35-2.08,8,.88,8.13,3.28-4.8,3.28-4.8,4.35,1.34,5.74-2.36-.07-5.89.66-9.54,2.29-.16,9.15-10.12-.73-25.5-.73-25.5Z" transform="translate(-427.52 -446.08)"></path><path class="cls-9" d="M1364.12,1419.19c-6.7,5.62-8.08,5-8.94,8.94s9.84,1.56,14.91-.32c0,0,4.13-1.57,6.24-4.32s4.21-1.38,8.18-2.76,4.46-5.21,2.73-11.26-13.27-.11-15.76,1.83S1364.12,1419.19,1364.12,1419.19Z" transform="translate(-427.52 -446.08)"></path><path class="cls-11" d="M1368,1098.55c-6.27,1-14.07,2.2-15.86-6.61s3.7-25.66,16.43-34.06,20.83,1.67,22.23,16.49-8.37,26.69-8.37,26.69l-10.82,3.13Z" transform="translate(-427.52 -446.08)"></path><path class="cls-3" d="M1353,1217.77c4.74,33.51,7.64,81.68,10.15,107.28s5.81,65.73,8.86,80.53c2,9.87,15.54,8.84,14.69,0-.81-8.4,1.73-66.64,3.64-82s8.79-105.69,8.79-105.69l-47.09-10Z" transform="translate(-427.52 -446.08)"></path><path class="cls-9" d="M1331.72,1401.55c-6.7,5.62-8.08,5-9,8.94s9.85,1.57,14.91-.32c0,0,4.14-1.57,6.24-4.32s4.22-1.38,8.19-2.76,4.46-5.21,2.73-11.26-13.27-.11-15.77,1.84S1331.72,1401.55,1331.72,1401.55Z" transform="translate(-427.52 -446.08)"></path><path class="cls-3" d="M1344.91,1188.1c-9.91,33.52-16.7,93.72-14.18,119.31s5.8,65.73,8.86,80.53c2,9.87,15.54,8.84,14.68,0-.81-8.4-.66-72.32,1.25-87.72s17.81-81,17.81-81l-22.58-20.67Z" transform="translate(-427.52 -446.08)"></path><path class="cls-3" d="M1374.32,1081.2c-5-.17,0-6.13,2.15-8.72s2.46-2.3.78-4.92-2.68-2.38-6.07-2.35a33.43,33.43,0,0,1-8.09-.7l-2.53.36s-6.37-6.73-.29-11.77,17.24-6.32,23.67-1.44c0,0,7.88-1.56,12.5,10.29s-7.18,32.64-10.41,34.34c-2.51,1.32-4.63.15-5.76-4.67s-1.53-7.43,1.24-9,4.06-6.66,1.08-7.79-4.94,3.44-6.61,6.07" transform="translate(-427.52 -446.08)"></path><path class="cls-6" d="M1304.26,1185.79c21.22-2,31.73-20.49,31.73-20.49s-.7,13.33-.14,31.54c1.7,55.06,62.81,58,71.85,25.63,7.61-27.27.14-9.11,4.9-33.88,0,0,6.8-53-8.54-64.36,0,0-11.86-10.06-20.74-11.43-11.44-1.77-8.78,13.85-8.78,13.85-10.37,2.65-3-11.42-3-11.42s-7-11.21-9.14-8.64h0c-14.32,2.81-32.73,30.25-54.92,51.69q-1.77,1.71-3.59,3.38S1290.05,1187.11,1304.26,1185.79Z" transform="translate(-427.52 -446.08)"></path><path class="cls-11" d="M1362.6,1097.94s10,4.61,20.4,2c0,0-.85,12.58,7.32,15.29l1.38.91c-16.49,11.58-24.43,26.35-28.62,24-4.44-2.54-.63-33.46-.63-33.46h0C1364.62,1104,1362.6,1097.94,1362.6,1097.94Z" transform="translate(-427.52 -446.08)"></path><path class="cls-9" d="M1363.09,1166.29s-46.6-6.94-53.21-5.62-16.19,3.31-15.2,12.56c.88,8.24,2,14.54,16.19,13.88s50.9-8.92,50.9-8.92S1359.78,1172.9,1363.09,1166.29Z" transform="translate(-427.52 -446.08)"></path><polygon class="cls-5" points="926.97 780.02 913.42 733.76 952.75 738.72 965.97 785.64 926.97 780.02"></polygon><path class="cls-11" d="M1394.19,1206.7c-1.43-6.14-2-1.25-8.74,1.8-1.08.49-9.09,1.45-15.39.92s-4.92,10.07,5.08,12.67,10.74-1.45,15.55-2.74C1397,1217.66,1394.19,1206.7,1394.19,1206.7Z" transform="translate(-427.52 -446.08)"></path><path class="cls-9" d="M1406.89,1127.35c22.43,36.48,41.63,72.89,19.16,87-12.57,7.91-35.5,7.84-37.53,4.9-5-7.28,2-11.39,2-11.39s18.39-7.27,19.5-13.59c.45-2.62-14.57-33.41-13.77-38.27C1399.67,1135.34,1406.89,1127.35,1406.89,1127.35Z" transform="translate(-427.52 -446.08)"></path><path class="cls-11" d="M1363.09,1166.29s11.56,1.65,13.88,2.32,7.93,6.6,7.93,8.26,0,4.29-2.31,4.62-7.61.33-8.93-.33-10.57-1.65-11.89-3S1359.78,1171.91,1363.09,1166.29Z" transform="translate(-427.52 -446.08)"></path><path class="cls-1" d="M1053.73,783,972.57,734.3a3.25,3.25,0,0,1-1.6-2.8V660.63a3.26,3.26,0,0,1,4.92-2.8l81.3,48.73a3.26,3.26,0,0,1,1.6,2.81c0,10.78-.3,52.67-.14,70.76A3.26,3.26,0,0,1,1053.73,783Z" transform="translate(-427.52 -446.08)"></path><path class="cls-9" d="M995.59,748.09l-23-13.79a3.25,3.25,0,0,1-1.6-2.8V660.63a3.26,3.26,0,0,1,4.92-2.8l23.16,13.87" transform="translate(-427.52 -446.08)"></path><path class="cls-8" d="M1021.22,722c-.77,8.67,4.38,19.75,11.5,24.75s13.52,2,14.29-6.64-4.38-19.76-11.5-24.76S1022,713.33,1021.22,722Z" transform="translate(-427.52 -446.08)"></path><path class="cls-29" d="M1026.82,724.28a5.1,5.1,0,0,0,2,4.19c1.2.85,2.28.34,2.41-1.12a5.12,5.12,0,0,0-1.94-4.19C1028,722.31,1027,722.82,1026.82,724.28Z" transform="translate(-427.52 -446.08)"></path><path class="cls-30" d="M1035.4,729.74a5.08,5.08,0,0,0,1.95,4.18c1.2.85,2.28.35,2.42-1.12a5.13,5.13,0,0,0-2-4.19C1036.62,727.77,1035.53,728.27,1035.4,729.74Z" transform="translate(-427.52 -446.08)"></path><path class="cls-31" d="M1035.76,742.26a6.51,6.51,0,0,1-4.47-2.32,18.9,18.9,0,0,1-4.77-7.45,1.32,1.32,0,0,1,2.55-.72,16.82,16.82,0,0,0,4.1,6.31,4.12,4.12,0,0,0,2.63,1.53,1.06,1.06,0,0,0,.73-.31,1.35,1.35,0,0,1,1.85-.18,1.3,1.3,0,0,1,.23,1.82,3.63,3.63,0,0,1-2.6,1.31Z" transform="translate(-427.52 -446.08)"></path><path class="cls-4" d="M979.94,697.82c-.77,8.67,4.38,19.75,11.51,24.75s13.51,2,14.28-6.64-4.38-19.75-11.5-24.75S980.71,689.15,979.94,697.82Z" transform="translate(-427.52 -446.08)"></path><path class="cls-14" d="M985.54,700.11a5.11,5.11,0,0,0,2,4.18c1.2.85,2.29.35,2.42-1.12A5.13,5.13,0,0,0,988,699C986.76,698.14,985.67,698.64,985.54,700.11Z" transform="translate(-427.52 -446.08)"></path><path class="cls-14" d="M994.13,705.56a5.12,5.12,0,0,0,1.94,4.19c1.21.84,2.29.34,2.42-1.13a5.08,5.08,0,0,0-2-4.18C995.34,703.59,994.26,704.1,994.13,705.56Z" transform="translate(-427.52 -446.08)"></path><path class="cls-14" d="M996.42,719.14a1.33,1.33,0,0,1-1.26-.92,16.76,16.76,0,0,0-4.35-6.13,4.14,4.14,0,0,0-2.73-1.42,1,1,0,0,0-.65.3,1.33,1.33,0,1,1-2.18-1.52A3.66,3.66,0,0,1,987.8,708c1.51-.15,3.14.55,4.82,2.12a18.86,18.86,0,0,1,5.06,7.25,1.31,1.31,0,0,1-.85,1.67A1.14,1.14,0,0,1,996.42,719.14Z" transform="translate(-427.52 -446.08)"></path><path class="cls-7" d="M1309.46,1197.62c0-10.18-2.72-21.19-7.35-31.67h0l-.16-.33c-.82-1.84-1.71-3.67-2.65-5.48-.28-.54-.58-1.07-.87-1.6-.76-1.41-1.55-2.79-2.38-4.16-.35-.59-.71-1.17-1.07-1.74-.87-1.38-1.77-2.72-2.69-4-.34-.48-.65-1-1-1.43-1.28-1.76-2.59-3.47-4-5.12-.11-.14-.24-.27-.35-.41-1.25-1.48-2.53-2.9-3.85-4.28-.48-.5-1-1-1.45-1.45-1-1-2-2-3-2.88l-1.69-1.48c-1-.88-2.1-1.71-3.17-2.52-.53-.4-1.06-.82-1.6-1.21-1.52-1.07-3-2.09-4.62-3l-.24-.15h0c-18.33-10.58-33.88-6-39.67,9.51a92.39,92.39,0,0,0-4.92-14.08h0l-.16-.33c-.83-1.85-1.72-3.67-2.65-5.48l-.87-1.61q-1.15-2.1-2.38-4.16c-.35-.58-.71-1.16-1.07-1.74-.87-1.37-1.77-2.71-2.7-4-.33-.47-.65-1-1-1.42-1.28-1.76-2.59-3.48-4-5.13-.11-.14-.24-.26-.36-.4-1.24-1.48-2.53-2.91-3.84-4.28-.48-.5-1-1-1.45-1.45q-1.5-1.5-3-2.88c-.56-.51-1.12-1-1.69-1.48-1-.88-2.1-1.71-3.17-2.52-.53-.41-1.06-.83-1.6-1.21-1.52-1.08-3.06-2.09-4.62-3l-.24-.16h0c-10.33-6-19.64-6.7-27.13-4.24-10.6,3.48-53.58,17.87-53.58,32.8,0,2.07,38.74-.06,39,2.07h0s0,.26.11.76a80,80,0,0,0,3.71,16.32c6.94,24.85,5.4,89,54.9,151.93,0,0,105.08-28.14,104.19-74l-.15-.09A49.43,49.43,0,0,0,1309.46,1197.62Z" transform="translate(-427.52 -446.08)"></path><path class="cls-8" d="M1267.28,1217c0-10.18-2.72-21.19-7.35-31.67h0l-.16-.33c-.82-1.84-1.71-3.67-2.65-5.48-.28-.54-.58-1.07-.87-1.6-.76-1.41-1.55-2.79-2.38-4.16-.35-.59-.71-1.17-1.07-1.74-.87-1.38-1.77-2.72-2.69-4-.34-.47-.65-1-1-1.42-1.28-1.76-2.59-3.47-4-5.12-.12-.14-.25-.27-.36-.41-1.25-1.48-2.53-2.9-3.85-4.28-.47-.5-1-1-1.45-1.45-1-1-2-2-3-2.88l-1.69-1.48c-1-.88-2.1-1.71-3.16-2.52-.54-.4-1.07-.82-1.61-1.21-1.52-1.08-3-2.09-4.62-3-.08,0-.15-.11-.23-.15h0c-18.33-10.58-33.88-6-39.67,9.51a92.39,92.39,0,0,0-4.92-14.08h0l-.16-.33c-.83-1.85-1.71-3.67-2.65-5.48-.28-.54-.58-1.07-.87-1.61q-1.14-2.1-2.38-4.16c-.35-.58-.71-1.16-1.07-1.74-.87-1.37-1.77-2.71-2.7-4-.33-.47-.65-1-1-1.42-1.28-1.76-2.59-3.48-4-5.13-.11-.14-.24-.26-.35-.4q-1.87-2.22-3.85-4.28c-.48-.5-1-1-1.45-1.45-1-1-2-2-3-2.88-.56-.51-1.12-1-1.69-1.48-1-.88-2.1-1.71-3.17-2.52-.53-.41-1.06-.83-1.6-1.21-1.52-1.08-3.06-2.09-4.62-3l-.24-.16h0c-23.26-13.43-42.12-2.54-42.12,24.32a61.85,61.85,0,0,0,.37,6.32h0s0,.26.11.76a80,80,0,0,0,3.71,16.32c6.94,24.85,25.83,75,75.32,137.89,0,0,84.66-14.1,83.77-60l-.15-.09A49.43,49.43,0,0,0,1267.28,1217Z" transform="translate(-427.52 -446.08)"></path><path class="cls-7" d="M1194.12,1141.33l48.28-21.6,9.48,6.83L1236,1140.67l-12.13-3.31S1214.63,1133,1194.12,1141.33Z" transform="translate(-427.52 -446.08)"></path><path class="cls-3" d="M1261.25,1265.52a6,6,0,0,1-5.38-4l-9.44-27.4-6.93,6.06a6,6,0,0,1-9.84-3.54l-9.11-59.6-12.73,39.94a6,6,0,0,1-11.4-.09l-4.63-15-21.19,40.42a6,6,0,0,1-11.11-1.59l-12.33-62.12-9.29,15.24a6,6,0,0,1-10.21-1.13l-7.47-20.11-8,11.47a6,6,0,0,1-5.06,2.57,6.08,6.08,0,0,1-4.92-2.81l-16-25.56a4,4,0,0,1,1.25-5.47h0A4,4,0,0,1,1093,1154l14.45,23,8.41-12.12a6.11,6.11,0,0,1,5.46-2.54,6,6,0,0,1,4.9,3.48l7.36,19.83,9.57-15.73a6,6,0,0,1,6.28-2.57,5.92,5.92,0,0,1,4.56,4.59l12.24,61.6,20.81-39.71a6,6,0,0,1,11,1.08l4.19,13.56,13.37-42a6,6,0,0,1,6.19-4.1,5.9,5.9,0,0,1,5.4,5l9.84,64.35,6.44-5.63a6,6,0,0,1,9.59,2.56l9.82,28.5,22.84-5.38a4,4,0,0,1,4.74,3h0a4,4,0,0,1-3,4.74l-24.56,5.77A6.54,6.54,0,0,1,1261.25,1265.52Zm2.13-6.62Z" transform="translate(-427.52 -446.08)"></path></svg> 