<?xml version="1.0" encoding="UTF-8"?> <svg xmlns="http://www.w3.org/2000/svg" id="Layer_1" x="0" y="0" viewBox="0 0 798.7 709.1" xml:space="preserve"><style>.st0{fill:#01bdff}.st1{fill:#fff}.st2{fill:#3c6fff}.st4{enable-background:new}</style><path class="st0" d="M121.2 469.9H7.3L38 389.1 7.3 319.5h113.9z"></path><path class="st1" d="M122.7 471.4H5.1l31.3-82.3L5 318h117.7v153.4zm-113.2-3h110.2V321H9.6l30 68.1-30.1 79.3z"></path><path class="st2" d="M73.8 374.1l-19.2 36.6h28.5z"></path><path class="st1" d="M85 412.2H52.1l22.2-42.3L85 412.2zm-27.9-3h24.1l-7.9-30.9-16.2 30.9z"></path><path class="st0" d="M679.5 469.9h113.9l-30.8-80.8 30.8-69.6H679.5z"></path><path class="st1" d="M795.6 471.4H678V318h117.7l-31.5 71.1 31.4 82.3zm-114.6-3h110.2L761 389.1l.2-.6 29.9-67.5H681v147.4z"></path><path class="st2" d="M726.8 374.1l19.3 36.6h-28.5z"></path><path class="st1" d="M748.6 412.2h-32.9l10.6-42.3 22.3 42.3zm-29.1-3h24.1l-16.3-30.9-7.8 30.9z"></path><circle class="st2" cx="400.3" cy="355.4" r="332.1"></circle><path class="st1" d="M400.3 689c-89.1 0-172.9-34.7-235.9-97.7S66.7 444.5 66.7 355.4s34.7-172.9 97.7-235.9 146.8-97.7 235.9-97.7 172.9 34.7 235.9 97.7 97.7 146.8 97.7 235.9-34.7 172.9-97.7 235.9S489.4 689 400.3 689zm0-664.2C218 24.8 69.7 173.1 69.7 355.4S218 686 400.3 686s330.6-148.3 330.6-330.6S582.6 24.8 400.3 24.8z"></path><path d="M400.3 671.7c-84.5 0-163.9-32.9-223.7-92.6C116.9 519.4 84 439.9 84 355.4s32.9-163.9 92.6-223.7C236.3 72 315.8 39.1 400.3 39.1S564.2 72 624 131.7c59.7 59.7 92.6 139.2 92.6 223.7S683.7 519.3 624 579.1c-59.8 59.7-139.2 92.6-223.7 92.6zm0-629.6C227.5 42.1 87 182.6 87 355.4s140.5 313.3 313.3 313.3 313.3-140.5 313.3-313.3S573.1 42.1 400.3 42.1z" opacity=".57" fill="#fff"></path><path class="st0" d="M54.6 410.7H746v150.4H54.6z"></path><path class="st1" d="M747.5 562.6H53.1V409.2h694.4v153.4zm-691.4-3h688.4V412.2H56.1v147.4z"></path><path class="st0" d="M456.4 192.4c44-6.6 47.6-73.6 47.6-73.6h-42.9v-11.7h5.9V80.8H341.1v26.3h7.8v11.7h-45.8s3.8 70.2 50.7 74c7.4 16.5 22.3 28.5 40 32.2v18.7h-24.4l-8.8 33.2h96.6l-8.8-33.2h-26.3v-20.3c15.3-4.9 27.8-16.2 34.3-31zm27.1-56c-.6 21.5-13.2 31.4-22.5 35.8 0-.7.1-1.4.1-2.1v-33.7h22.4zm-160 0h25.4v33.7c0 1.1 0 2.3.1 3.4-9.2-3.6-24.8-13.2-25.5-37.1z"></path><path class="st1" d="M364.6 178v-66.5l23-.4s10.8-.2 18.5 7.7 10.4 14.9 10.4 14.9l12.1 21.3v-43.6h13.8v66.5h-14.9l-23.6-39.1c-1.1-3.7-3.3-7-6.2-9.6-5.1-4.7-11.3-4.2-19.5-4.2v39.1s10.2 2.8 18.7-3.2 8.1-17.6 8.1-17.6l9.8 16.6c-2.6 4.8-6.3 8.9-10.8 12.1-7 4.7-13.2 6.4-17.6 6.6-4.6 0-21.8-.6-21.8-.6zM140.7 451.5c14.7 0 27.1 11.2 27.1 26.8s-12.3 26.9-27.1 26.9h-15.6v-53.8l15.6.1zm-1.4 42.8c9.1 0 15.2-6.9 15.3-15.9s-6.2-16-15.3-16h-1.9v31.9h1.9zm64.9 3.7c-.8 1-1.6 1.9-2.5 2.9-7.1 7.1-18.6 7.4-25.5.5s-6.7-18.4.5-25.5 16.9-8.4 25.2-.1c.4.4.8.8 1.1 1.2l-17.1 17.1c3.6 3.6 7.9 1.8 10-.2.5-.5 1-1.1 1.5-1.7m-5.9-12.9c-2.9-2.1-5.6-1.4-8.3.6-3.9 3-3.7 7-1.7 9.3l10-9.9zm45.4-7l-.2 7.6s-8.7-.9-12.3-.9c-2.5 0-3.6.5-3.6 2 0 1.8 2.3 2.3 5.2 3.2 4.4 1.4 10.2 3.8 10.2 10.7 0 9.8-9 11.4-15.8 11.4-8.1 0-12.4-.1-12.4-.1l.6-8.7s8.2.2 11.9.2c1.6 0 3.6-.2 3.6-2.4 0-2.4-3.6-2.6-7.4-4.6-3.4-1.8-6.8-4.1-6.8-9.1 0-6.8 5.8-10.8 14.6-10.8 4.2.1 8.3.6 12.4 1.5zM649.2 498c-.8 1-1.6 1.9-2.5 2.9-7.1 7.1-18.6 7.4-25.5.5s-6.7-18.4.5-25.5 16.9-8.4 25.2-.1c.4.4.8.8 1.1 1.2l-17.1 17.1c3.6 3.6 7.9 1.8 10-.2.5-.5 1-1.1 1.5-1.7m-5.9-12.9c-2.9-2.1-5.6-1.4-8.3.6-3.9 3-3.7 7-1.7 9.3l10-9.9zM613.4 498c-.8 1-1.6 1.9-2.5 2.9-7.1 7.1-18.6 7.4-25.5.5s-6.7-18.4.5-25.5 16.9-8.4 25.2-.1c.4.4.8.8 1.1 1.2l-17.1 17.1c3.6 3.6 7.9 1.8 10-.2.5-.5 1-1.1 1.5-1.7m-6-12.9c-2.9-2.1-5.6-1.4-8.3.6-3.9 3-3.7 7-1.7 9.3l10-9.9zm81.3-7l-.2 7.6s-8.7-.9-12.3-.9c-2.5 0-3.6.5-3.6 2 0 1.8 2.3 2.3 5.2 3.2 4.4 1.4 10.2 3.8 10.2 10.7 0 9.8-9 11.4-15.8 11.4-8.1 0-12.4-.1-12.4-.1l.6-8.7s8.2.2 11.9.2c1.6 0 3.6-.2 3.6-2.4 0-2.4-3.6-2.6-7.4-4.6-3.4-1.8-6.8-4.1-6.8-9.1 0-6.8 5.8-10.8 14.6-10.8 4.2.1 8.3.6 12.4 1.5zm-427.1-11.9c0 3.8-3 6.8-6.8 6.8s-6.8-3-6.8-6.8 3-6.8 6.8-6.8 6.8 3 6.8 6.8zM242 505.3h11.5v-33.4H242v33.4zm29.7 7.5c1.9.2 3.9.4 5.8.4 3.2 0 8.1-1.9 8.1-7.8v-2.5c-2.5 2.7-6.4 3.4-10.9 3.4-9.8 0-16.6-7.9-16.6-17.7s6.8-17.7 16.6-17.7c4-.1 7.9 1.3 10.8 4h.2v-3h11.5v34.3c0 11.2-8.3 17-19.7 17-1 0-4.4 0-5.4-.1m6.1-26.7c4.2.1 7.7-3.2 7.8-7.3v-.5c0-4.3-3.5-7.8-7.8-7.8s-7.8 3.5-7.8 7.8c-.1 4.6 3.1 7.8 7.8 7.8zm26-24.6h11.5v3.5h.1c2.6-2.6 5.9-4.5 9.6-4.5 6.1 0 14.7 3.1 14.7 12.4v22h-11.5v-18.8c0-3.3-2.3-6.5-6-6.5-3.5 0-6.8 3.2-6.8 6.5v18.9h-11.6v-33.5zm69.2 33.5h-12.2v-53.8h12.2l21.4 33.4h.1v-33.4h12.2v53.8h-12.2l-21.4-33.4h-.1v33.4zm59.3-36.2c11.1 0 19.9 7.7 19.9 18.6s-8.4 18.6-19.9 18.6c-12 0-20.1-7.7-20.1-18.6s8.8-18.6 20.1-18.6zm-.1 26.8c4.5 0 7.7-3.4 7.7-8.2s-3.4-8.3-7.7-8.3-7.8 3.4-7.8 8.3 3.1 8.2 7.8 8.2zm24.1-24.1h11.5v3.5h.1c2.6-2.6 5.9-4.5 9.6-4.5 4.4 0 9.3 1.6 11.7 6.1 3.5-4.2 7.4-6.1 11.1-6.1 6.1 0 13 3.1 13 12.4v22h-11.5v-18.8c0-3.3-1.8-6.3-5.9-6.3-2.8-.1-5.2 2.1-5.3 4.9v20.2h-11.5v-18.8c0-3.3-1.8-6.3-5.9-6.3-3.8 0-5.3 2.9-5.3 5.6v19.5h-11.5l-.1-33.4zm77-11.4c0 3.8-3 6.8-6.8 6.8s-6.8-3-6.8-6.8 3-6.8 6.8-6.8 6.8 3 6.8 6.8zm-12.8 44.9h11.5v-33.4h-11.5v33.4zm19.7-33.5h11.6v3.5h.1c2.6-2.6 5.9-4.5 9.6-4.5 6.1 0 14.7 3.1 14.7 12.4v22h-11.5v-18.8c0-3.3-2.3-6.5-6-6.5-3.5 0-6.8 3.2-6.8 6.5v18.9h-11.5v-33.5h-.2z"></path><g class="st4"><path class="st1" d="M263.5 359.1h-8.6l-2.6-7H239l-2.6 7h-8.6l14.1-35h7.4l14.2 35zm-17.7-24.2l-4 10.2h7.9l-3.9-10.2zm33.7 24.8c-2.9 0-5.3-1-7.1-2.7v13.1h-7.5v-32.8h7.4v2.5h.1c1.6-1.8 4.2-3.1 7.1-3.1 6.4 0 10.8 5.1 10.8 11.5 0 6.3-4.4 11.5-10.8 11.5zm-2.2-16.6c-2.9 0-5 2.1-5 5.1s2.2 5.1 5 5.1 5.1-2.1 5.1-5.1c-.1-3-2.1-5.1-5.1-5.1zm31.1 16.6c-2.9 0-5.3-1-7.1-2.7v13.1h-7.5v-32.8h7.4v2.5h.1c1.6-1.8 4.2-3.1 7.1-3.1 6.4 0 10.8 5.1 10.8 11.5 0 6.3-4.4 11.5-10.8 11.5zm-2.2-16.6c-2.9 0-5 2.1-5 5.1s2.2 5.1 5 5.1 5.1-2.1 5.1-5.1-2.1-5.1-5.1-5.1zm44.2-19.6c9.7 0 17.6 7.9 17.6 18.1s-7.5 18.1-17.6 18.1c-10.3 0-17.6-7.9-17.6-18.1 0-10.3 8-18.1 17.6-18.1zm0 28.5c6.4 0 9-5.2 9-10.4s-2.8-10.4-9-10.4c-6.1 0-9 5.2-9 10.4s2.5 10.4 9 10.4zm22.4-19.3c0-6.4 3.1-10.7 8.5-10.7 3.8 0 6.2 1.9 6.2 1.9l-2.6 5.3s-1-.6-2.2-.6c-1.9 0-2.3 1.3-2.3 4.3v4.4h5v5.7h-5v16h-7.5v-16h-3.1v-5.7h3.1l-.1-4.6z"></path></g><g class="st4"><path class="st1" d="M394.7 324.1h24.6v7H411v28h-8v-28h-8.3v-7zm27.5-1.5h7.5v17h.1c1.7-1.7 3.9-2.9 6.2-2.9 4 0 9.5 2 9.5 8.1v14.3H438v-12.3c0-2.2-1.5-4.2-3.9-4.2-2.2 0-4.4 2.1-4.4 4.2v12.3h-7.5v-36.5zm34.2 26.6c0 3.3 2.8 4.5 4.7 4.5 2.4 0 3.5-.5 5.3-2.4l5.4 2.7c-2.5 4.1-6.4 5.7-11.3 5.7-6.6 0-11.9-5.2-11.9-11.5 0-6.4 5.4-11.5 11.9-11.5 6.6 0 11.7 3.9 11.7 11.5v1h-15.8zm8.5-4.1c-.3-2.3-1.9-3.5-4.1-3.5-2.6 0-4 1.5-4.2 3.5h8.3zm32.5-21c9.6 0 17.6 7.3 17.6 17.5s-8 17.5-17.6 17.5h-10.1v-35h10.1zm-.9 27.8c5.9 0 9.9-4.5 10-10.3 0-5.8-4-10.4-10-10.4h-1.2v20.7h1.2z"></path></g><g class="st4"><path class="st1" d="M527.8 336.7c2.9 0 5.3 1 7.1 2.7v-2.1h7.5V359H535v-2.5h-.1c-1.6 1.8-4.2 3.1-7.1 3.1-6.4 0-10.8-5.1-10.8-11.5s4.4-11.4 10.8-11.4zm2.2 16.6c2.9 0 5-2.1 5-5.1s-2.2-5.1-5-5.1-5.1 2.1-5.1 5.1c.1 3 2.1 5.1 5.1 5.1z"></path></g><g class="st4"><path class="st1" d="M572.5 337.3l-17.1 32.8h-8.6l7.5-14.4-10.3-18.3h8.6l6.1 11.1 5.2-11.1 8.6-.1z"></path></g><g class="st4"><path class="st0" d="M360.4 613.6l-5.7-2.8s2.9-8.8 11.1-8.8c10.4 0 11.7 6.8 11.7 10.6 0 7.1-10.6 14.1-10.6 14.1h11.2v6h-23.5V631s15.5-12.8 15.5-18.4c0-1.1-.3-4.8-4.3-4.8-3.3 0-5.4 5.8-5.4 5.8zm34.1-11.6c6.5 0 12.3 5.2 12.3 15.7 0 11.2-5.8 15.6-12.3 15.6s-12.3-4.4-12.3-15.6c0-10.5 5.8-15.7 12.3-15.7zm0 25.2c3.3 0 5.3-3.1 5.3-9.6 0-6.1-2-9.6-5.3-9.6s-5.3 3.5-5.3 9.6c0 6.6 2 9.6 5.3 9.6zm15.4-19.1l8.6-5.6h3.3v30.2h-6.9v-21l-5 3.2v-6.8zm28.1 14.3s-.8.4-2.2.4c-4.1 0-9.6-3.5-9.6-10.6s5.7-10.2 11.2-10.2c6.8 0 12 4.5 12 10.2 0 5.3-1.6 7.8-4.8 12l-7.1 8.4H429l9-10.2zm-.3-14.7c-2.7 0-4.6 1.9-4.6 4.6s2 4.7 4.6 4.7c2.5 0 4.6-2 4.6-4.7s-1.9-4.6-4.6-4.6z"></path></g></svg> 