<?xml version="1.0" encoding="UTF-8"?> <svg xmlns="http://www.w3.org/2000/svg" id="Layer_1" data-name="Layer 1" viewBox="0 0 624.7 508.2"><defs><style>.cls-1{fill:#8298a0;}.cls-2{fill:#416270;}.cls-3{fill:#c0cbcf;}.cls-4{fill:#224858;}.cls-5{fill:#8197a0;}.cls-6{fill:#859aa3;}.cls-7{fill:none;}.cls-8{fill:#022e40;}.cls-9{fill:#fff;}.cls-10{fill:#d9dce1;}.cls-11{fill:#516f7c;}.cls-12{fill:#ececec;}.cls-13{fill:#f1f1f1;}.cls-14{fill:#c2ccd0;}.cls-15{fill:#efeeee;}.cls-16{fill:#022d3f;}.cls-17{fill:#022e3f;}.cls-18{fill:#dce3e5;}.cls-19{fill:#dbe2e4;}.cls-20{fill:#d5dcdf;}.cls-21{fill:#e9e9e9;}.cls-22{fill:#a58b5d;}.cls-23{fill:#868b8e;}</style></defs><title>wh_icon</title><path class="cls-1" d="M318,26.2h7a20,20,0,0,0,1,2.6c.5.4,1.5,1.3,2,1.8-.2.5-.7,1.5-.9,2-.6.3-1.9.8-2.5,1.1.2.4.5,1.2.7,1.5a16,16,0,0,1-6.9-.3l-.5-.4-.1.3a9.67,9.67,0,0,0-.5,3.4l-.9.5c-1-3.8-.6-7.8-.6-11.7.9.3,1.7.6,2.6.9A10.46,10.46,0,0,1,318,26.2Zm5,2h0Zm-3,.5c-1.2,1.1-2.3,2.2-3.5,3.3a22.68,22.68,0,0,1,2.5-.6c.2.6.6,1.7.8,2.2q1.2,2.1,1.5-.3c-.3-.6-.9-1.7-1.3-2.3.3-.5.9-1.3,1.2-1.8A7.26,7.26,0,0,0,320,28.7Z"></path><path class="cls-2" d="M323,28.2h0Z"></path><path class="cls-3" d="M323,28.2h0Z"></path><path class="cls-3" d="M323.9,30.4"></path><path class="cls-4" d="M322.9,33.5"></path><path class="cls-5" d="M335.7,35.1"></path><path class="cls-6" d="M335.1,38c.2-1.4,2.6-1.3,3.6-.7C338.2,38.5,336.1,38.7,335.1,38Z"></path><path class="cls-7" d="M317.7,34.8l.1-.3.5.4a13.44,13.44,0,0,0,6.9.3c-.2-.4-.5-1.2-.7-1.5.6-.3,1.9-.8,2.5-1.1a17.6,17.6,0,0,1,.9-2c-.5-.4-1.5-1.3-2-1.8a27.73,27.73,0,0,1-1-2.6h-7a9.66,9.66,0,0,1,.3,1.8c-.9-.3-1.7-.6-2.6-.9,0,3.9-.4,7.9.6,11.7l.9-.5C317.4,37.1,317.2,35.9,317.7,34.8Zm2.3-6.1c.3.1.9.4,1.2.5-.3.4-.9,1.3-1.2,1.8.3.6.9,1.7,1.3,2.3q-.3,2.4-1.5.3c-.2-.6-.6-1.7-.8-2.2a22.68,22.68,0,0,1-2.5.6C317.7,30.9,318.9,29.8,320,28.7Z"></path><path class="cls-7" d="M338.7,37.3c-1-.6-3.5-.7-3.6.7C336.1,38.7,338.2,38.5,338.7,37.3Z"></path><path class="cls-8" d="M327.9,31.8c.7.2,2,.5,2.7.7a5.68,5.68,0,0,1-2.6,1.2,25.37,25.37,0,0,0,7.2,1.8c-1.1-.4-3.4-1.1-4.5-1.5,3.1-1.6,6.6-1,10-1l-.1-.8c-2.9.1-5.8.5-8.6-.3,2-2.6,6.5.2,9.2-1.5a56.63,56.63,0,0,0-10.1.2A3.24,3.24,0,0,1,327.9,31.8Z"></path><path class="cls-8" d="M0,0V508.2H624.7V0ZM525.4,357.7c4.5-17,10.6-33.5,15.7-50.3-2.2-.3-4.4-.7-6.6-1,0-1.9,0-3.8-.1-5.6h20.5v5.6c-2,.4-3.9.7-5.9,1.1-6.9,20.2-14.1,40.3-21,60.5-2.8,0-5.7,0-8.5.1-7.7-20.2-15-40.5-22.7-60.7-1.8-.3-3.6-.7-5.4-1,0-1.9-.1-3.7-.1-5.6,8.3-.1,16.5,0,24.8,0v5.6c-2.6.3-5.3.7-7.9,1C513.9,324.1,520.5,340.6,525.4,357.7ZM315.7,27c.9.3,1.7.6,2.6.9a9.66,9.66,0,0,1-.3-1.8h7a20,20,0,0,0,1,2.6l2.8-.4-2.5-.3-.3-1.4c1.9.5,3.8,1,5.8,1.5-1.2.7-2.5,1.3-3.7,2l3.5-.5a2.19,2.19,0,0,1-.3.5c.5-.5,1-1,1.5-1.6,3.1,1.4,6.6.6,9.6-.7a35.4,35.4,0,0,0-.2,4.6c-.2,2.1,1.1,6.1-2.2,5.9v.6c.8-.1,2.4-.3,3.2-.5a17.3,17.3,0,0,1-4.4,2.5c1.1-.1,3.3-.2,4.3-.3-4.8,4.7-11.6,1.1-17.2.2a28.64,28.64,0,0,1,4.1-1.5,7.82,7.82,0,0,1-4-1.2c-2.8.1-5.7-.1-8.5,0,2.6,1.1,5.5.3,8.1,1.2-1.8,2.4-6.4-.9-8,2.1l-1.4,2.5-.1-3.3c.5-.3,1.4-1,1.8-1.3-.6-.1-1.8-.2-2.4-.3l.8-.5C315.4,34.9,315.7,30.9,315.7,27ZM227.2,70.8c13.1-.8,26.2.3,39.3-.9,16.7-7.1,33.7-13.8,50.2-21.4C332.9,56,349.6,62.6,366,69.8c13.3,1.2,26.8.2,40.3,1,.1,5.7-.4,11.4-.3,17.1,5,2,10,4,15,6.2-.6,1.7-1.1,3.3-1.6,5H214.1c-.5-1.6-1.1-3.3-1.6-5,4.9-2.1,9.9-4.1,14.8-6.1C227.2,82.1,227.2,76.5,227.2,70.8Zm327.3,30.7V104h-4c0,4.3,0,8.5-.1,12.8-105.3-.1-210.7.1-316-.1H219.1c-45.3.1-90.5,0-135.8,0V103.9H79.1v-2.5Q316.55,101.4,554.5,101.5Zm-4.3,134H325.8v-43h-8v43.2l-1.9-.4c-.2-14.3,0-28.5-.1-42.8h-8v43H240.9c-4.7,0-9.4-.1-14,.1a21.12,21.12,0,0,1-2.6-.2c-47,.2-93.9,0-140.9.1-.1-38.7,0-77.3,0-116H193.9c8.1.1,16.3-.3,24.5.2,7.3-.5,14.7-.1,22.1-.2,4.8.5,10-1,14.4.9l.4.4c.2-.1.5-.5.7-.6.5-.2,1.4-.5,1.9-.7h24.8c4.3-.1,8.6-.1,12.8,0h40.9q6.45-.15,12.9,0c10.1.1,20.2-.2,30.3.2,7.3-.6,14.6-.1,22-.2H550.4C550.2,158.1,550.3,196.8,550.2,235.5ZM79,238.5H410.9c47.9-.1,95.7,0,143.6,0v8.7H79ZM164.9,435c-42,.3-84.1,0-126.1.1-1.3-.1-5,.4-3.4-2.1q64.95-.3,129.8,0l.3,1.2Zm7.3-128.5c-2.1.8-5.7-.1-6.2,2.8-5.9,19.6-11.8,39.1-17.7,58.7h-9.7c-4.4-14.2-8.8-28.5-13.2-42.7-4.3,14.2-8.5,28.4-12.8,42.7h-9.3q-9.45-30.15-19-60.3l-5.9-1.2v-5.7c8.3-.1,16.5,0,24.8,0v5.8c-2.6.4-5.2.7-7.8,1.1,3.8,13.5,8,26.8,11.9,40.2.9,3.8,1.5,7.6,2.3,11.4,3.4-14.9,8.4-29.3,12.6-44-.8-2.5-1.6-5-2.5-7.5-2-.3-4.1-.7-6.1-1.1,0-2,.1-3.9.1-5.8,8.5.1,17,0,25.4.1v5.8c-2.8.4-5.6.7-8.4,1.1,3.7,12.5,7.3,24.9,11,37.4,1.5,5,2.4,10.2,3.4,15.3,3.1-17.9,9-35.1,13.7-52.6-2.9-.5-5.9-.8-8.8-1.2V301h22A47.87,47.87,0,0,1,172.2,306.5Zm68.6,142c-3.2-2.2-6.3-4.5-9.4-6.8-3.2,2.3-6.3,4.7-9.6,6.7,1.2-3.7,2.4-7.4,3.5-11.1a84.92,84.92,0,0,1-9-6.8h11.3c1.3-3.7,2.4-7.4,3.6-11.1a83.6,83.6,0,0,1,3.7,11c3.9.2,7.9.2,11.8.2-3.1,2.3-6.3,4.6-9.4,6.9A94.15,94.15,0,0,1,240.8,448.5Zm10.7-86.6c2.3.3,4.6.7,7,1V368H233.7c0-1.7,0-3.5.1-5.2l7.2-.9V336.5H210.5c-.1,8.5,0,16.9-.1,25.3,2.5.4,5,.7,7.6,1.1V368H192.8c0-1.7,0-3.5.1-5.2l7.1-.9c.2-18.3,0-36.5.1-54.8-2.3-.4-4.6-.8-7-1.2,0-1.7-.1-3.5-.1-5.2,8.3-.1,16.7,0,25,0V306c-2.5.3-5,.7-7.5,1.1v23.4H241V307.1c-2.4-.4-4.8-.7-7.2-1.1,0-1.8-.1-3.5-.1-5.3h24.8v5.2c-2.3.4-4.7.8-7,1.1C251.5,325.3,251.4,343.6,251.5,361.9Zm37.9,4.6c-3.7-2.9-2.3-9,1.7-10.9,3.7-2.3,9.7-.3,9.9,4.5C302,366.2,293.9,370.4,289.4,366.5Zm36.7,81.9c-3.2-2.1-6.3-4.5-9.4-6.8-3.2,2.3-6.2,4.7-9.6,6.7,1.2-3.7,2.5-7.4,3.6-11.1-3.1-2.2-6.3-4.5-9.2-6.8H313c1.2-3.3,2-6.8,3.3-10.1h.8c1.3,3.3,2.2,6.7,3.4,10.1,3.8,0,7.6-.1,11.5,0-3,2.4-6.2,4.6-9.3,6.9C323.8,441,325.1,444.7,326.1,448.4Zm59.1-85.2c-5.5,1-10.8,3.3-16.4,4.1-9,1.4-18.9.6-26.6-4.7-8.8-5.7-13.3-16.3-13.3-26.6-.3-8.1,1.7-16.5,6.8-23,5.8-7.8,15.5-11.9,25-12.3a79.68,79.68,0,0,1,23.8,2.9c-.5,5-.7,10-1,15-2.4,0-4.7,0-7.1.1-.9-3.4-1.3-7-2.8-10.3-4.6-2.6-10.1-2.6-15.1-2-7.1,1-13,6.4-15.4,13.1-3.1,8.5-2.8,18.1-.3,26.7,1.9,6.7,6.4,13.1,13.3,15.4a23.18,23.18,0,0,0,18.5-2.5c.2-6.5.1-12.9.1-19.3l-10.6-.9c-.1-2-.1-3.9-.1-5.8,8.7-.1,17.5,0,26.2,0,0,1.9,0,3.9.1,5.8l-5,.9C385.2,347.5,385.2,355.4,385.2,363.2Zm26.3,85.1c-3.4-2-6.4-4.4-9.6-6.7-3.1,2.3-6.2,4.6-9.4,6.8,1-3.8,2.3-7.5,3.4-11.2-3.2-2.3-6.3-4.5-9.4-6.8,3.9,0,7.9.1,11.8-.2a88.86,88.86,0,0,1,3.7-11l3.6,11.1c3.8,0,7.5,0,11.3.1a101,101,0,0,1-9,6.8C409.1,441,410.3,444.6,411.5,448.3Zm15-83.9c-7.5-4.3-11.7-12.5-13-20.8-1.6-9.6-.9-19.9,4.1-28.4a28.37,28.37,0,0,1,19.2-13.8c9.1-1.7,19.4-.2,26.4,6.4,5.9,5.5,8.3,13.7,8.9,21.5.8,10-1.2,20.7-7.8,28.4C455.4,368.5,438.6,371,426.5,364.4ZM597.9,435c-43.1.1-86.3.2-129.5,0l-.5-.8.4-1.1c43.4-.2,86.7,0,130.1-.1C598.3,433.4,598,434.5,597.9,435Z"></path><path class="cls-8" d="M321.4,33.3a8,8,0,0,1-1.5.3Q321.1,35.7,321.4,33.3Z"></path><path class="cls-8" d="M327.1,34.7a2.34,2.34,0,0,0-2.5-1c.2.4.5,1.2.7,1.5C325.7,35.1,326.6,34.8,327.1,34.7Z"></path><path class="cls-8" d="M317.7,34.8c.1,0,.4.1.6.1l-.5-.4Z"></path><path class="cls-8" d="M327.2,36.9a19.15,19.15,0,0,0-9.8,0C320.6,37,323.9,37.1,327.2,36.9Z"></path><path class="cls-8" d="M333.4,37.1c-.4-1.3-1.2-1.6-2.4-.8C331.4,37.6,332.2,37.9,333.4,37.1Z"></path><path class="cls-8" d="M329.4,40.7c3.3.6,6.5-.6,9.7-1.1a26.73,26.73,0,0,0-4.9,0c-1-1.6-2.9-1.2-4.5-1.2,1.1.4,3.3,1.1,4.4,1.5C332.9,40.1,330.5,40.5,329.4,40.7Z"></path><path class="cls-8" d="M334.9,41.3c-.1,1.5,3.5,1.4,3.5,0A3.63,3.63,0,0,0,334.9,41.3Z"></path><path class="cls-8" d="M87.3,112.2a70.6,70.6,0,0,0,0-9.2c-1.6.8-1,2.8-1.2,4.2C86.4,108.8,85.5,111.2,87.3,112.2Z"></path><path class="cls-8" d="M90.1,112.2c.2-2.9.1-5.8.1-8.7a4.87,4.87,0,0,1-1.2-.1C89.5,106.2,87.7,110.1,90.1,112.2Z"></path><path class="cls-8" d="M93,107.2c-.1-1.5.3-3.3-1-4.4a28.1,28.1,0,0,0,.2,9.6C93.3,110.9,92.9,108.9,93,107.2Z"></path><path class="cls-8" d="M94.9,102.9a43.18,43.18,0,0,0,.1,9.5C96.4,109.7,96.8,105.4,94.9,102.9Z"></path><path class="cls-8" d="M97.6,102.9c0,3.2-.9,6.7.8,9.5C98.4,109.4,99.9,105.4,97.6,102.9Z"></path><path class="cls-8" d="M101.4,103.4c-.3,0-.9.1-1.2.1,0,2.9,0,5.8.1,8.7C102.8,110.2,100.9,106.1,101.4,103.4Z"></path><path class="cls-8" d="M104.2,107.2c-.2-1.4.5-3.5-1.2-4.2a57.76,57.76,0,0,0,.1,9.3C104.8,111.1,104.1,108.9,104.2,107.2Z"></path><path class="cls-8" d="M107.1,112.2c-.4-3,1.5-7.2-1.1-9.3C106.2,105.8,104.2,110.3,107.1,112.2Z"></path><path class="cls-8" d="M109.8,111.7c-.2-2.9,1.1-6.5-.9-8.9a47.15,47.15,0,0,0-.3,6.5C108.9,109.9,108.4,112.9,109.8,111.7Z"></path><path class="cls-8" d="M119.5,111.8c.4-.1,1.1-.2,1.5-.3,0-2.9,0-5.7-.2-8.6C117.9,104.7,120.1,109,119.5,111.8Z"></path><path class="cls-8" d="M123.4,102.8c-1.7,2.7-1.5,6.8,0,9.6A38.55,38.55,0,0,0,123.4,102.8Z"></path><path class="cls-8" d="M125.4,112.2c2.4-2.3.6-6.3.9-9.3C124,105.2,125.7,109.2,125.4,112.2Z"></path><path class="cls-8" d="M129.2,107.2c-.2-1.5.5-3.5-1.2-4.3a72.15,72.15,0,0,0,0,9.3C129.9,111.2,129,108.9,129.2,107.2Z"></path><path class="cls-8" d="M132.1,112.2c-.4-3,1.6-7.3-1.1-9.4C131.2,105.9,129.2,110.2,132.1,112.2Z"></path><path class="cls-8" d="M134,102.8c-.2,3.2-1.1,6.7.6,9.7C134.7,109.3,136,105.5,134,102.8Z"></path><path class="cls-8" d="M137.4,112.4c0-3,1.5-7-.8-9.5C136.7,106,135.6,109.6,137.4,112.4Z"></path><path class="cls-8" d="M140.3,112.2a72.15,72.15,0,0,0,0-9.3c-1.6.8-1,2.8-1.1,4.2C139.4,108.8,138.5,111.2,140.3,112.2Z"></path><path class="cls-8" d="M154.2,111.7c-.5-2.8,1.3-6.7-1.1-8.7a86.12,86.12,0,0,0-.1,8.8C153.3,111.8,153.9,111.7,154.2,111.7Z"></path><path class="cls-8" d="M155.9,102.9c-.1,3.2-.9,6.6.7,9.6C156.6,109.4,158.2,105.4,155.9,102.9Z"></path><path class="cls-8" d="M159.9,111.4c.2-2.7.1-5.3.1-8h-1.4a60,60,0,0,0,.2,8.5A11.73,11.73,0,0,1,159.9,111.4Z"></path><path class="cls-8" d="M162.5,102.9c-.2.3-.7,1-.9,1.3,0,2.7-.9,5.8.9,8.1A49.2,49.2,0,0,0,162.5,102.9Z"></path><path class="cls-8" d="M164.3,112.1a8.65,8.65,0,0,1,1-.7,40.25,40.25,0,0,0,0-8.5C162.9,105.2,164.7,109.2,164.3,112.1Z"></path><path class="cls-8" d="M168.1,112.2c-.4-2.9,1.5-7-1-9.2C167.4,105.9,165.7,110,168.1,112.2Z"></path><path class="cls-8" d="M171.1,112.1a58.88,58.88,0,0,0,0-8.4,10.47,10.47,0,0,1-1.1-.8,46,46,0,0,0-.1,8.3A5.38,5.38,0,0,0,171.1,112.1Z"></path><path class="cls-8" d="M173.7,112.3c0-3,1.4-6.9-.8-9.3C173,106,171.7,109.7,173.7,112.3Z"></path><path class="cls-8" d="M176.4,112.4a67.69,67.69,0,0,0,.3-9h-1.2C175.7,106.4,174.6,109.7,176.4,112.4Z"></path><path class="cls-8" d="M187.4,102.8c-1.8,2.7-1.3,6.8-.2,9.7A26.38,26.38,0,0,0,187.4,102.8Z"></path><path class="cls-8" d="M189.3,112.1c.3-.2.7-.5,1-.7a47.13,47.13,0,0,0,0-8.4C187.9,105.1,189.7,109.2,189.3,112.1Z"></path><path class="cls-8" d="M193.2,103.5c-.3,0-.9-.1-1.2-.1a88.13,88.13,0,0,0,.2,8.9C194.4,110,192.7,106.3,193.2,103.5Z"></path><path class="cls-8" d="M196.1,112.1c-.5-3,1.5-7.2-1.2-9.3a33.74,33.74,0,0,0-.1,8.4A10.14,10.14,0,0,0,196.1,112.1Z"></path><path class="cls-8" d="M198.8,103l-.9.8c-.4,2.9-.7,6,.5,8.8A31.11,31.11,0,0,0,198.8,103Z"></path><path class="cls-8" d="M200.6,102.8a34.24,34.24,0,0,0,.2,9.6C202,109.6,202.6,105.4,200.6,102.8Z"></path><path class="cls-8" d="M204.2,112.3a66.5,66.5,0,0,0,.2-8.9c-.3,0-.9.1-1.2.1C203.7,106.3,202.1,110,204.2,112.3Z"></path><path class="cls-8" d="M207.2,107.2c-.2-1.4.5-3.4-1.1-4.2a72.15,72.15,0,0,0,0,9.3C207.9,111.2,207,108.8,207.2,107.2Z"></path><path class="cls-8" d="M210.1,112.1a57.48,57.48,0,0,0,0-8.3,9.38,9.38,0,0,1-1.2-.9,46.14,46.14,0,0,0-.1,8.3A10.14,10.14,0,0,0,210.1,112.1Z"></path><path class="cls-8" d="M424.4,103.4a4.87,4.87,0,0,0-1.2.1c0,2.9,0,5.8.1,8.7C425.8,110.2,423.9,106.2,424.4,103.4Z"></path><path class="cls-8" d="M430.2,107.2c-.2-1.5.5-3.4-1.1-4.3a48.17,48.17,0,0,0,.1,9.3C430.8,111.1,430,108.9,430.2,107.2Z"></path><path class="cls-8" d="M432.8,102.9c-2.3,2.5-.8,6.5-.7,9.6C433.6,109.5,432.8,106.1,432.8,102.9Z"></path><path class="cls-8" d="M435.5,102.8c-1.8,2.7-1.5,6.8,0,9.6A51.31,51.31,0,0,0,435.5,102.8Z"></path><path class="cls-8" d="M437.3,112.2c2.9-2,.8-6.4,1.1-9.3C435.8,105,437.7,109.2,437.3,112.2Z"></path><path class="cls-8" d="M441.3,112.2a86.12,86.12,0,0,0,.1-8.8c-.3,0-.9.1-1.2.1C440.7,106.2,438.9,110.1,441.3,112.2Z"></path><path class="cls-8" d="M444.2,107.2c-.2-1.4.5-3.5-1.2-4.2a70.6,70.6,0,0,0,0,9.2C444.9,111.2,444,108.9,444.2,107.2Z"></path><path class="cls-8" d="M447,107.2c-.1-1.5.3-3.3-1-4.4a28.74,28.74,0,0,0,.2,9.7C447.2,110.9,446.9,109,447,107.2Z"></path><path class="cls-8" d="M457.8,102.9c-2.1,2.5-1.4,6.8-.2,9.6A44,44,0,0,0,457.8,102.9Z"></path><path class="cls-8" d="M460.5,102.9c-2,2.5-1.3,6.7-.2,9.5A33.54,33.54,0,0,0,460.5,102.9Z"></path><path class="cls-8" d="M463.3,103l-.9.9c.1,2.7-1.2,6.3.9,8.5A73.7,73.7,0,0,0,463.3,103Z"></path><path class="cls-8" d="M469.1,112.2c-.4-2.9,1.4-7-1-9.2C468.5,105.9,466.6,110,469.1,112.2Z"></path><path class="cls-8" d="M470.9,102.9a43.11,43.11,0,0,0,.1,9.5C472.3,109.7,472.9,105.3,470.9,102.9Z"></path><path class="cls-8" d="M474.4,112c.1-3,1.3-6.8-.8-9.2a61.54,61.54,0,0,0-.1,8.6C473.8,111.6,474.2,111.9,474.4,112Z"></path><path class="cls-8" d="M476.3,112.1l1.3-.9a47.14,47.14,0,0,0-.1-8.4C474.8,104.9,476.8,109.2,476.3,112.1Z"></path><path class="cls-8" d="M479.3,112.2c2.5-2.1.6-6.3,1-9.2C477.9,105.2,479.7,109.2,479.3,112.2Z"></path><path class="cls-8" d="M494,112.2c-.3-3,1.4-7-.9-9.3C493.4,105.9,491.7,109.9,494,112.2Z"></path><path class="cls-8" d="M496.8,102.9c-2.3,2.5-.8,6.5-.8,9.5C497.7,109.5,496.7,106,496.8,102.9Z"></path><path class="cls-8" d="M499.4,112.4c-.1-3,1.5-7.1-.8-9.4C498.7,106,497.5,109.6,499.4,112.4Z"></path><path class="cls-8" d="M502.5,103l-1.2.8a58.88,58.88,0,0,0,0,8.4C504.2,110.3,502.2,105.9,502.5,103Z"></path><path class="cls-8" d="M505.4,103.4c-.3,0-.9.1-1.2.1,0,2.9,0,5.8.1,8.6C506.8,110.2,504.9,106.1,505.4,103.4Z"></path><path class="cls-8" d="M508.1,112.1c.1-2.9.1-5.8.1-8.6-.3,0-.9-.1-1.2-.1C507.5,106.1,505.6,110.2,508.1,112.1Z"></path><path class="cls-8" d="M509.9,102.8a50.25,50.25,0,0,0,0,9.5A9.73,9.73,0,0,0,509.9,102.8Z"></path><path class="cls-8" d="M512.7,102.8c0,3.1-1.1,6.8.8,9.6C513.4,109.2,514.7,105.5,512.7,102.8Z"></path><path class="cls-8" d="M523.6,112.2c2.3-2.4.8-6.4.9-9.4C522.3,105.4,523.8,109.2,523.6,112.2Z"></path><path class="cls-8" d="M527.3,112.2a70.61,70.61,0,0,0,0-9.2c-1.6.8-1,2.8-1.2,4.2C526.4,108.8,525.5,111.2,527.3,112.2Z"></path><path class="cls-8" d="M533.2,103.5c-.3,0-.9-.1-1.2-.1a88.13,88.13,0,0,0,.2,8.9C534.4,110.1,532.7,106.3,533.2,103.5Z"></path><path class="cls-8" d="M534.9,102.9c-.2,3.2-.7,6.6.5,9.6C535.8,109.4,537,105.4,534.9,102.9Z"></path><path class="cls-8" d="M537.6,102.9a51.35,51.35,0,0,0,.2,9.6C539,109.7,539.7,105.3,537.6,102.9Z"></path><path class="cls-8" d="M540.3,112.2c2.9-1.9.8-6.3,1.2-9.3C538.8,104.9,540.7,109.2,540.3,112.2Z"></path><path class="cls-8" d="M543.3,112.1a8.65,8.65,0,0,1,1-.7,47.13,47.13,0,0,0,0-8.4C541.9,105.1,543.7,109.2,543.3,112.1Z"></path><path class="cls-8" d="M547.2,111.7v-8.3a4.87,4.87,0,0,1-1.2-.1v8.4A4.82,4.82,0,0,0,547.2,111.7Z"></path><path class="cls-8" d="M261.5,125.9c.3-1.4-.2-1.9-1.5-1.4C259.6,125.8,260.1,126.3,261.5,125.9Z"></path><path class="cls-8" d="M374,125.1c-.1-1.6-3.2-.5-2,.8Z"></path><path class="cls-8" d="M138.6,147.7c.1-3.4.1-6.9,0-10.3h-6.5v10.2C134.3,147.7,136.5,147.7,138.6,147.7Z"></path><path class="cls-8" d="M173.7,137.4H167v10.2h6.7Z"></path><path class="cls-8" d="M176,137.5v10.3h6.8V137.6C180.4,137.4,178.2,137.5,176,137.5Z"></path><path class="cls-8" d="M208.5,147.6V137.4H202c0,3.4,0,6.9.1,10.3C204.2,147.7,206.3,147.7,208.5,147.6Z"></path><path class="cls-8" d="M258.4,147.7c.1-3.4.1-6.8,0-10.3h-6.5c0,3.4,0,6.8.1,10.3Z"></path><path class="cls-8" d="M267.5,137.5H261v10.2h6.6C267.4,144.2,267.4,140.9,267.5,137.5Z"></path><path class="cls-8" d="M315.5,137.5H309c0,3.4,0,6.9.1,10.3,2.1,0,4.2-.1,6.4-.1C315.4,144.3,315.3,140.9,315.5,137.5Z"></path><path class="cls-8" d="M324.4,147.8c.1-3.4.1-6.9.1-10.3H318c.1,3.4.1,6.8.1,10.2C320.1,147.7,322.2,147.7,324.4,147.8Z"></path><path class="cls-8" d="M362.2,147.7h6.4c.1-3.4.1-6.9,0-10.3h-6.5C362.2,140.9,362.2,144.3,362.2,147.7Z"></path><path class="cls-8" d="M419.5,147.7V137.5h-6.8c-.1,3.4,0,6.9,0,10.3C415,147.7,417.2,147.7,419.5,147.7Z"></path><path class="cls-8" d="M428.5,137.5H422v10.2h6.6C428.4,144.3,428.4,140.9,428.5,137.5Z"></path><path class="cls-8" d="M456.7,147.7h6.5V137.5h-6.5Z"></path><path class="cls-8" d="M523.7,137.4H517v10.2c2.2,0,4.4,0,6.6.1C523.7,144.3,523.7,140.9,523.7,137.4Z"></path><path class="cls-8" d="M526.2,137.5v10.2h6.5c.1-3.4.1-6.9,0-10.3C530.5,137.5,528.4,137.5,526.2,137.5Z"></path><path class="cls-8" d="M104,137.5H97.2v10.3H104Z"></path><path class="cls-8" d="M106.5,147.7H113V137.4h-6.5Z"></path><path class="cls-8" d="M148,137.5h-6.8v10.3H148Z"></path><path class="cls-8" d="M371.2,147.7H378V137.4h-6.8Z"></path><path class="cls-8" d="M454.2,137.5h-6.8v10.3h6.8Z"></path><path class="cls-8" d="M489,137.5h-6.8v10.3H489C489,144.3,488.9,140.9,489,137.5Z"></path><path class="cls-8" d="M498,137.5h-6.5v10.3H498C497.9,144.3,497.9,140.9,498,137.5Z"></path><path class="cls-8" d="M173.6,149.7h-6.7v10.5h6.8C173.7,156.7,173.7,153.2,173.6,149.7Z"></path><path class="cls-8" d="M176,149.7v10.5h6.8c0-3.5,0-7-.1-10.5Z"></path><path class="cls-8" d="M208.4,149.7h-6.5v10.5h6.5C208.4,156.7,208.5,153.2,208.4,149.7Z"></path><path class="cls-8" d="M258.5,149.7H252v10.5h6.5C258.4,156.7,258.5,153.2,258.5,149.7Z"></path><path class="cls-8" d="M261,149.7v10.5h6.5V149.7Z"></path><path class="cls-8" d="M315.4,149.7H309v10.5h6.5C315.3,156.7,315.4,153.2,315.4,149.7Z"></path><path class="cls-8" d="M317.9,160.2h6.5V149.7H318C318,153.2,318.1,156.7,317.9,160.2Z"></path><path class="cls-8" d="M412.7,149.7c-.1,3.5-.1,7-.1,10.6h6.8V149.8C417.2,149.7,415,149.7,412.7,149.7Z"></path><path class="cls-8" d="M421.9,160.2h6.5V149.7h-6.5Q422.05,155,421.9,160.2Z"></path><path class="cls-8" d="M523.7,149.7H517v10.5h6.8C523.7,156.7,523.7,153.2,523.7,149.7Z"></path><ellipse class="cls-8" cx="100.6" cy="155" rx="4.8" ry="7.4"></ellipse><path class="cls-8" d="M106.5,160.2H113V149.7h-6.5Z"></path><path class="cls-8" d="M132.2,160.2h6.5V149.7h-6.5Z"></path><ellipse class="cls-8" cx="144.6" cy="155" rx="4.8" ry="7.4"></ellipse><path class="cls-8" d="M368.7,149.7h-6.5v10.5h6.5Z"></path><path class="cls-8" d="M371.2,160.2H378V149.7h-6.8Z"></path><path class="cls-8" d="M454.2,149.7h-6.8v10.5h6.8Z"></path><path class="cls-8" d="M456.7,160.2h6.5V149.7h-6.5Z"></path><path class="cls-8" d="M489,149.7h-6.8v10.5H489C489,156.7,488.9,153.2,489,149.7Z"></path><path class="cls-8" d="M498,149.7h-6.5v10.5H498C498,156.7,497.9,153.2,498,149.7Z"></path><path class="cls-8" d="M526.2,160.2h6.5V149.7h-6.5Z"></path><path class="cls-8" d="M102.6,168.4a8.24,8.24,0,0,0-5.2,5.1c3.6-5.2,11.8-5.1,15.4,0A8,8,0,0,0,102.6,168.4Z"></path><path class="cls-8" d="M178.3,168.7c-4.1-2.1-9.9.2-10.9,4.8,3.2-5.5,11.7-5,15.2-.1C181.6,171.5,180.5,169.5,178.3,168.7Z"></path><path class="cls-8" d="M256.7,168.6a7.57,7.57,0,0,0-4.6,4.8c3.7-5,11.5-4.9,15.3,0C265.9,169.2,260.8,166.7,256.7,168.6Z"></path><path class="cls-8" d="M373.3,168.7c-4.1-2.1-9.8.3-10.9,4.8,2.6-4,7.9-4.9,12.1-3a20.79,20.79,0,0,0,3.2,2.7C376.6,171.4,375.4,169.5,373.3,168.7Z"></path><path class="cls-8" d="M447.7,173.5c3.5-5.2,11.9-5.3,15.3.1C461.3,166.2,449.7,166.2,447.7,173.5Z"></path><path class="cls-8" d="M517.3,173.5c3.3-5.3,11.7-5.1,15.2,0C530.7,166.3,519.1,166.2,517.3,173.5Z"></path><path class="cls-8" d="M131.6,173.3c3-.6,5.7-2.1,8.4-3.4,2.9,1.2,5.6,2.9,8.8,3.3-2.8-1.8-5.8-3.5-8.7-5.2C137.2,169.8,134.2,171.3,131.6,173.3Z"></path><path class="cls-8" d="M201.1,173.4a58.58,58.58,0,0,0,8.7-3.5c2,.9,4.1,1.9,6.2,2.8.6.2,1.8.5,2.4.7l-2.7-1.8c-2-1.2-4-2.4-6-3.5A94.47,94.47,0,0,0,201.1,173.4Z"></path><path class="cls-8" d="M412.3,173.4a60.22,60.22,0,0,0,8.3-3.4c2.8,1.3,5.5,2.8,8.5,3.4-2.7-2-5.7-3.5-8.5-5.3C417.8,169.8,414.8,171.2,412.3,173.4Z"></path><path class="cls-8" d="M481.5,173.3c3-.5,5.7-2,8.5-3.4,2.9,1.2,5.6,2.9,8.8,3.3-2.9-1.8-5.8-3.4-8.7-5.2C487.2,169.8,484.3,171.4,481.5,173.3Z"></path><path class="cls-8" d="M316.3,173.4c-1,1.6-2.2,3.1-3.3,4.6h7.4a48.43,48.43,0,0,1-3.3-4.6c-.1-.3-.3-1-.4-1.3C316.6,172.5,316.4,173.1,316.3,173.4Z"></path><path class="cls-8" d="M312.7,185.7h3.5v-6.8h-3.5Z"></path><path class="cls-8" d="M317.2,185.7h3.5v-6.8h-3.5Z"></path><path class="cls-8" d="M97.7,180.4v12.5h6.5V180.4C102,180.5,99.9,180.4,97.7,180.4Z"></path><path class="cls-8" d="M112.7,180.4H106v12.5h6.7Z"></path><path class="cls-8" d="M141,180.5V193h6.5V180.5Z"></path><path class="cls-8" d="M175.7,180.4v12.5h6.7V180.4C180.2,180.5,178,180.4,175.7,180.4Z"></path><path class="cls-8" d="M252.2,180.5V193h6.7V180.5Z"></path><path class="cls-8" d="M260.5,180.4v12.5h6.7V180.4C265,180.5,262.7,180.5,260.5,180.4Z"></path><path class="cls-8" d="M371,180.5V193h6.5V180.5Z"></path><path class="cls-8" d="M419.7,180.4h-6.5v12.5h6.5Z"></path><path class="cls-8" d="M448,180.5V193h6.5V180.5Z"></path><path class="cls-8" d="M482.7,193h6.5V180.5h-6.5Z"></path><path class="cls-8" d="M497.7,180.4H491v12.5h6.7Z"></path><path class="cls-8" d="M525.7,180.4v12.5h6.7V180.4C530.2,180.5,528,180.4,525.7,180.4Z"></path><path class="cls-8" d="M132.5,193h6.8V180.5h-6.8Z"></path><path class="cls-8" d="M167.5,193H174V180.5h-6.5Z"></path><path class="cls-8" d="M202.2,193H209V180.5h-6.8Z"></path><path class="cls-8" d="M362.5,193h6.8V180.5h-6.8Z"></path><path class="cls-8" d="M421.5,193h6.8V180.5h-6.8Z"></path><path class="cls-8" d="M456.2,193H463V180.5h-6.8Z"></path><path class="cls-8" d="M517.5,193H524V180.5h-6.5Z"></path><path class="cls-8" d="M97.7,207.7h6.5V195.2H97.7Z"></path><path class="cls-8" d="M105.9,195.2v12.5h6.7c.1-4.2.1-8.4,0-12.5Z"></path><path class="cls-8" d="M132.5,207.7h6.8V195.2h-6.8Z"></path><path class="cls-8" d="M141,207.7h6.5V195.2H141Z"></path><path class="cls-8" d="M167.5,207.7H174V195.2h-6.5Z"></path><path class="cls-8" d="M175.7,207.7c2.3,0,4.5,0,6.8.1V195.3h-6.8Z"></path><ellipse class="cls-8" cx="205.6" cy="201.5" rx="4.8" ry="8.8"></ellipse><path class="cls-8" d="M252.2,207.7H259V195.2c-2.3,0-4.5,0-6.8.1Z"></path><path class="cls-8" d="M260.5,207.7h6.8V195.2h-6.8Z"></path><path class="cls-8" d="M362.5,195.2v12.5h6.8V195.2Z"></path><path class="cls-8" d="M371,207.7h6.5V195.2H371C371,199.4,370.9,203.5,371,207.7Z"></path><path class="cls-8" d="M413.2,207.7h6.5V195.2h-6.5Z"></path><path class="cls-8" d="M421.5,207.7h6.8V195.2h-6.8Z"></path><path class="cls-8" d="M448,207.7h6.5V195.2H448C448,199.4,447.9,203.5,448,207.7Z"></path><path class="cls-8" d="M456.2,207.7H463V195.2h-6.8Z"></path><path class="cls-8" d="M482.7,207.7h6.5V195.2h-6.5Z"></path><path class="cls-8" d="M490.9,195.2v12.5h6.7c.1-4.2.1-8.4.1-12.5Z"></path><path class="cls-8" d="M517.5,207.7H524V195.2h-6.5Z"></path><path class="cls-8" d="M525.7,207.7h6.7V195.2h-6.8C525.7,199.4,525.7,203.5,525.7,207.7Z"></path><path class="cls-8" d="M106,209.7v12.5h6.8V209.7Z"></path><path class="cls-8" d="M141,209.7v12.5h6.5V209.7Z"></path><path class="cls-8" d="M175.7,209.7c-.1,4.2-.1,8.4,0,12.5h6.8V209.7Z"></path><path class="cls-8" d="M252.2,222.2H259V209.7h-6.8Z"></path><path class="cls-8" d="M371,209.7v12.5h6.5V209.7Z"></path><path class="cls-8" d="M413.2,209.7v12.5c2.2,0,4.3,0,6.5.1V209.7Z"></path><path class="cls-8" d="M448,209.7v12.5h6.5V209.7Z"></path><path class="cls-8" d="M491,209.7v12.5h6.8c0-4.2,0-8.4-.1-12.5Z"></path><path class="cls-8" d="M525.8,209.7c-.1,4.2-.1,8.4-.1,12.5h6.8V209.7Z"></path><path class="cls-8" d="M97.7,222.2h6.5V209.7H97.7Z"></path><path class="cls-8" d="M132.5,222.2h6.8V209.7h-6.8Z"></path><path class="cls-8" d="M167.5,222.2H174V209.7h-6.5Z"></path><ellipse class="cls-8" cx="205.6" cy="216" rx="4.8" ry="8.8"></ellipse><path class="cls-8" d="M260.5,222.2h6.8V209.7h-6.8Z"></path><path class="cls-8" d="M362.5,222.2h6.8V209.7h-6.8Z"></path><path class="cls-8" d="M421.5,222.2h6.8V209.7h-6.8Z"></path><path class="cls-8" d="M456.2,222.2H463V209.7h-6.8Z"></path><path class="cls-8" d="M482.7,222.2h6.5V209.7h-6.5Z"></path><path class="cls-8" d="M517.5,222.2H524V209.7h-6.5Z"></path><path class="cls-8" d="M438.1,306.7c-8.1,2.1-11.8,10.8-12.9,18.4-1.4,10.3-1.2,21.9,4.8,30.8,4.7,7.3,16,8.8,22.5,3,5.8-5.2,7.5-13.3,8-20.7.4-8.9,0-18.6-5.5-26.1A16.08,16.08,0,0,0,438.1,306.7Z"></path><path class="cls-9" d="M318,39.5c-.5.3-1.4,1-1.8,1.3l.1,3.3,1.4-2.5c1.5-3,6.2.3,8-2.1-2.7-.8-5.6,0-8.1-1.2,2.8-.1,5.6.1,8.5,0a7,7,0,0,0,4,1.2A28.64,28.64,0,0,0,326,41c5.5.9,12.3,4.5,17.2-.2-1.1.1-3.3.2-4.3.3a19.2,19.2,0,0,0,4.4-2.5c-.8.1-2.4.3-3.2.5v-.6c3.4.2,2.1-3.8,2.2-5.9a35.4,35.4,0,0,1,.2-4.6c-3,1.3-6.5,2.1-9.6.7-.5.5-1,1-1.5,1.6a.76.76,0,0,0-.2.4,84.71,84.71,0,0,1,10.1-.2c-2.7,1.7-7.2-1-9.2,1.5,2.8.8,5.7.4,8.6.3l.1.8c-3.3,0-6.9-.6-10,1,1.1.4,3.4,1.1,4.5,1.5a25.37,25.37,0,0,1-7.2-1.8,5.68,5.68,0,0,0,2.6-1.2c-.7-.2-2-.5-2.7-.7a3.32,3.32,0,0,0,3.1-1.2H331c.1-.1.2-.3.4-.4s.2-.3.3-.5l-3.5.5c1.2-.7,2.5-1.3,3.7-2-1.9-.4-3.9-.9-5.8-1.5l.3,1.4,2.5.3-2.8.4c.5.4,1.5,1.3,2,1.8-.2.5-.7,1.5-.9,2-.6.3-1.9.8-2.5,1.1a2.2,2.2,0,0,1,2.5,1,9.5,9.5,0,0,0-1.8.6,16,16,0,0,1-6.9-.3c-.1,0-.4-.1-.6-.1a9.67,9.67,0,0,0-.5,3.4l-.9.5-.8.5A9.06,9.06,0,0,1,318,39.5Zm16.9,1.8a3.63,3.63,0,0,1,3.5,0C338.4,42.7,334.8,42.8,334.9,41.3Zm3.8-4c-.5,1.3-2.6,1.5-3.6.7C335.3,36.5,337.7,36.7,338.7,37.3Zm-5.3-.2c-1.2.8-2,.5-2.4-.8C332.2,35.5,333,35.8,333.4,37.1Zm.7,2.5a26.73,26.73,0,0,1,4.9,0c-3.2.5-6.4,1.7-9.7,1.1l4.7-.8c-1.1-.4-3.3-1.1-4.4-1.5C331.2,38.5,333.1,38,334.1,39.6Zm-6.9-2.7c-3.3.2-6.5.1-9.8,0A19.15,19.15,0,0,1,327.2,36.9Z"></path><path class="cls-9" d="M331,30.6a.52.52,0,0,0,.2-.4c-.1.1-.2.3-.4.4Z"></path><path class="cls-9" d="M214,98.9H419.3c.5-1.6,1.1-3.3,1.6-5-5-2.1-10-4.1-15-6.2-.2-5.7.4-11.4.3-17.1-13.4-.8-26.9.3-40.3-1-16.4-7.1-33-13.8-49.3-21.3-16.5,7.5-33.5,14.3-50.2,21.4-13,1.2-26.2,0-39.3.9V87.7c-4.9,2-9.9,4.1-14.8,6.1C213,95.6,213.5,97.3,214,98.9ZM311.6,63c2-.7,4.1-2.1,6.2-1,19.8,7.9,39.6,15.9,59.4,23.8,3.9,1.7,8.1,2.9,11.8,5.1-48.1.3-96.2.1-144.2.1C266.8,81.2,289.3,72.5,311.6,63Z"></path><path class="cls-9" d="M83.2,103.9v12.8c45.3,0,90.5.1,135.8,0,1.3-3.2,3.8-6.4,7.7-6,3.9-.5,6.4,2.8,7.7,6q158,.15,316,.1c.1-4.3.1-8.5.1-12.8h4v-2.5H79V104C80.4,104,81.8,103.9,83.2,103.9Zm462.8-.5a4.87,4.87,0,0,1,1.2.1v8.3H546Q545.85,107.6,546,103.4Zm-1.7-.4a58.87,58.87,0,0,1,0,8.4,8.65,8.65,0,0,1-1,.7C543.7,109.2,541.9,105.1,544.3,103Zm-2.8-.1c-.3,2.9,1.7,7.4-1.2,9.3C540.7,109.2,538.8,104.9,541.5,102.9Zm-3.9,0c2.1,2.4,1.4,6.8.2,9.6A44,44,0,0,1,537.6,102.9Zm-2.7,0c2.1,2.5.9,6.5.5,9.6C534.2,109.5,534.7,106.1,534.9,102.9Zm-2.9.5c.3,0,.9.1,1.2.1-.5,2.8,1.2,6.6-1,8.8A66.5,66.5,0,0,1,532,103.4Zm-3.3-.3c.5.1,1.4.3,1.8.4-.3,2.8,1.8,7.5-1.7,8.8C528.6,109.2,528.6,106.2,528.7,103.1Zm-2.5,4.1c.2-1.4-.5-3.4,1.2-4.2a70.61,70.61,0,0,1,0,9.2C525.5,111.2,526.4,108.8,526.2,107.2Zm-1.8-4.4c-.1,3,1.5,7-.9,9.4C523.8,109.2,522.3,105.4,524.4,102.8Zm-11.7,0c2.1,2.7.8,6.4.8,9.6C511.5,109.6,512.7,105.9,512.7,102.8Zm-2.8,0a9.73,9.73,0,0,1,0,9.5A50.25,50.25,0,0,1,509.9,102.8Zm-2.9.6c.3,0,.9.1,1.2.1,0,2.9,0,5.8-.1,8.6C505.6,110.2,507.5,106.1,507,103.4Zm-2.8.1c.3,0,.9-.1,1.2-.1-.5,2.8,1.4,6.9-1.1,8.8C504.2,109.2,504.2,106.4,504.2,103.5Zm-2.9.3,1.2-.8c-.4,2.9,1.7,7.3-1.2,9.2A58.88,58.88,0,0,1,501.3,103.8Zm-2.7-.9c2.3,2.4.7,6.4.8,9.4C497.5,109.6,498.7,106,498.6,102.9Zm-1.8,0c-.1,3.1.9,6.7-.8,9.5C496,109.4,494.5,105.3,496.8,102.9Zm-3.7.1c2.4,2.3.6,6.3.9,9.3C491.7,109.9,493.4,105.9,493.1,103Zm-3.3.1a16.69,16.69,0,0,1,1.8.5c-.3,2.7,1.8,7.6-1.7,8.7A70.81,70.81,0,0,1,489.8,103.1Zm-9.5-.1c-.4,2.9,1.5,7.1-1,9.2C479.7,109.2,477.9,105.2,480.3,103Zm-2.8-.1a47.14,47.14,0,0,1,.1,8.4l-1.3.9C476.8,109.2,474.8,104.9,477.5,102.9Zm-3.9,0c2.2,2.4.9,6.2.8,9.2a4.7,4.7,0,0,0-.9-.6A61.54,61.54,0,0,1,473.6,102.9Zm-2.7,0c2,2.4,1.4,6.8.1,9.5A43.11,43.11,0,0,1,470.9,102.9Zm-2.8.1c2.4,2.2.6,6.3,1,9.2C466.6,110,468.5,105.9,468.1,103Zm-3.3,0c.4.1,1.3.4,1.8.5a50.56,50.56,0,0,1-.1,8.7,15.05,15.05,0,0,1-1.7-1A56.09,56.09,0,0,1,464.8,103Zm-2.4.8.9-.9a57.76,57.76,0,0,1-.1,9.3C461.2,110.1,462.4,106.5,462.4,103.8Zm-1.9-.9a33.54,33.54,0,0,1-.2,9.5C459.2,109.6,458.5,105.4,460.5,102.9Zm-2.7,0a44,44,0,0,1-.2,9.6C456.4,109.6,455.7,105.4,457.8,102.9Zm-11.8-.1c1.3,1.1.9,2.9,1,4.4-.1,1.8.2,3.7-.8,5.2A25.8,25.8,0,0,1,446,102.8Zm-2.9.2c1.7.8,1,2.8,1.2,4.2-.3,1.7.6,4-1.1,5A56.4,56.4,0,0,1,443.1,103Zm-2.9.5c.3,0,.9-.1,1.2-.1,0,2.9.1,5.9-.1,8.8C438.9,110.1,440.7,106.2,440.2,103.5Zm-1.8-.7c-.3,3,1.8,7.4-1.1,9.3C437.7,109.2,435.8,105,438.4,102.8Zm-2.9,0a38.55,38.55,0,0,1,0,9.6C434,109.6,433.7,105.5,435.5,102.8Zm-2.7.1c0,3.2.8,6.6-.7,9.6C432,109.4,430.5,105.4,432.8,102.9Zm-3.7.1c1.6.8,1,2.8,1.1,4.3-.2,1.7.6,3.9-1.1,5A72.15,72.15,0,0,1,429.1,103Zm-3.3.1c.4.1,1.3.3,1.8.4-.3,2.8,1.8,7.5-1.6,8.8A47.17,47.17,0,0,1,425.8,103.1Zm-2.6.4c.3,0,.9-.1,1.2-.1-.5,2.8,1.3,6.8-1.1,8.8C423.2,109.2,423.2,106.4,423.2,103.5Zm-214.3-.6c.3.2.9.7,1.2.9a57.48,57.48,0,0,1,0,8.3l-1.3-.9A46.14,46.14,0,0,1,208.9,102.9Zm-2.8,0c1.6.8,1,2.8,1.1,4.2-.3,1.7.7,4-1.1,5A70.6,70.6,0,0,1,206.1,102.9Zm-2.9.6c.3,0,.9-.1,1.2-.1a87.47,87.47,0,0,1-.2,8.9C202.1,110,203.7,106.3,203.2,103.5Zm-2.6-.7c2,2.6,1.3,6.7.2,9.6A43.91,43.91,0,0,1,200.6,102.8Zm-2.7.9.9-.8a37.66,37.66,0,0,1-.3,9.5C197.3,109.7,197.5,106.6,197.9,103.7Zm-2.9-.8c2.7,2.1.7,6.3,1.2,9.3-.3-.2-1-.6-1.3-.8A34.48,34.48,0,0,1,195,102.9Zm-3,.5c.3,0,.9.1,1.2.1-.5,2.8,1.2,6.6-1,8.8A66.5,66.5,0,0,1,192,103.4Zm-1.7-.4a47.13,47.13,0,0,1,0,8.4,8.65,8.65,0,0,1-1,.7C189.7,109.2,187.9,105.1,190.3,103Zm-2.9-.2a28.74,28.74,0,0,1-.2,9.7C186.1,109.6,185.6,105.5,187.4,102.8Zm-11.9.6h1.2a45.19,45.19,0,0,1-.3,9C174.6,109.7,175.7,106.4,175.5,103.4Zm-2.6-.5c2.2,2.4.8,6.4.8,9.3C171.7,109.7,173,106,172.9,102.9Zm-3,0a10.47,10.47,0,0,1,1.1.8,58.88,58.88,0,0,1,0,8.4l-1.3-.9A57.88,57.88,0,0,1,169.9,102.9Zm-2.8.1c2.4,2.2.6,6.3,1,9.2C165.7,110,167.4,105.9,167.1,103Zm-1.8,0a48.26,48.26,0,0,1,0,8.5,8.65,8.65,0,0,1-1,.7C164.7,109.2,162.9,105.2,165.3,103Zm-3.8,1.2c.2-.3.7-1,.9-1.3a50.25,50.25,0,0,1,0,9.5C160.7,110,161.5,106.9,161.5,104.2Zm-3-.8h1.4c0,2.7.1,5.3-.1,8a6.72,6.72,0,0,0-1.2.6A61.72,61.72,0,0,1,158.5,103.4Zm-2.6-.5c2.3,2.5.7,6.5.7,9.6C155,109.5,155.8,106.1,155.9,102.9Zm-2.8.1c2.4,2,.6,5.9,1.1,8.7a4.87,4.87,0,0,0-1.2.1A86.12,86.12,0,0,1,153.1,103Zm-11.3.6a18.94,18.94,0,0,0,1.8-.6,56.4,56.4,0,0,1-.1,9.2C140,111.1,142.1,106.3,141.8,103.6Zm-2.6,3.6c.1-1.4-.5-3.4,1.1-4.2a72.15,72.15,0,0,1,0,9.3C138.5,111.2,139.4,108.8,139.2,107.2Zm-2.6-4.3c2.3,2.4.8,6.5.8,9.5C135.6,109.6,136.7,106,136.6,102.9Zm-2.6-.1c2,2.7.7,6.5.6,9.7C132.9,109.5,133.8,106,134,102.8Zm-3.1.1c2.7,2.1.7,6.4,1.1,9.4C129.2,110.2,131.2,105.9,130.9,102.9Zm-2.8.1c1.7.8,1,2.8,1.2,4.3-.2,1.7.6,3.9-1.1,5A57.88,57.88,0,0,1,128.1,103Zm-1.8-.1c-.3,3,1.4,7-.9,9.3C125.7,109.2,124,105.2,126.3,102.9Zm-2.9-.1a38.55,38.55,0,0,1,0,9.6A10.49,10.49,0,0,1,123.4,102.8Zm-2.6.1c.2,2.9.1,5.7.2,8.6-.4.1-1.1.2-1.5.3C120.1,109,117.9,104.7,120.8,102.9Zm-11.8-.1c2,2.4.7,6,.9,8.9-1.5,1.2-.9-1.7-1.2-2.4A35.4,35.4,0,0,1,109,102.8Zm-3,.1c2.7,2.1.7,6.4,1.1,9.3C104.2,110.3,106.2,105.8,106,102.9Zm-2.9.1c1.7.8,1,2.8,1.2,4.2-.2,1.7.5,3.9-1,5.1A48.2,48.2,0,0,1,103.1,103Zm-1.7.4c-.5,2.8,1.4,6.8-1.1,8.8-.1-2.9-.1-5.8-.1-8.7C100.5,103.5,101.1,103.4,101.4,103.4Zm-3.8-.5c2.3,2.5.8,6.5.8,9.5C96.7,109.5,97.6,106,97.6,102.9Zm-2.7,0c1.9,2.5,1.5,6.8.1,9.5A43.18,43.18,0,0,1,94.9,102.9Zm-2.9-.1c1.3,1.1.9,2.9,1,4.4-.1,1.8.3,3.8-.9,5.3A31.56,31.56,0,0,1,92,102.8Zm-3,.6a4.87,4.87,0,0,1,1.2.1c0,2.9,0,5.8-.1,8.7C87.7,110.1,89.5,106.2,89,103.4Zm-2.8,3.8c.2-1.4-.5-3.4,1.2-4.2a70.61,70.61,0,0,1,0,9.2C85.5,111.2,86.4,108.8,86.2,107.2Z"></path><path class="cls-9" d="M216.3,230.6c-1.7-2.5-2-5.5-2.7-8.4h-2.9V209.7h4.1v-2h-4.1V195.1c1.4,0,2.7,0,4.1.1v-2.3h-4.1V180.4h5.1c0-2.6.1-5.2.2-7.8-2.1-.8-4.1-1.8-6.2-2.8a65.85,65.85,0,0,1-8.7,3.5,95.44,95.44,0,0,1,8.6-5.4c2,1.1,4,2.3,6,3.5.2-3.8.2-7.6.2-11.3H211V149.6h4.9v-2H211V137.3h4.9c0-5.6,0-11.2.1-16.9.8-.2,2.4-.5,3.2-.7l-1-.2c-8.1-.4-16.3-.1-24.5-.2H83.2v116c46.9-.1,93.9.1,140.9-.1C221.3,234.2,218.3,233,216.3,230.6ZM202,137.5h6.5v10.2c-2.2,0-4.3.1-6.4.1C201.9,144.3,201.9,140.9,202,137.5Zm0,12.2h6.5v10.5H202ZM97.2,137.5H104v10.3H97.2Zm0,12.2H104v10.5H97.2Zm7,72.5H97.7V209.7h6.5Zm0-14.5H97.7V195.2h6.5ZM97.7,193V180.5h6.5V193Zm15,29.2h-6.8V209.7h6.7C112.7,213.8,112.7,218,112.7,222.2Zm-.1-14.5h-6.7V195.2h6.8C112.7,199.4,112.7,203.6,112.6,207.7ZM106,193V180.5h6.7V193Zm-8.6-19.5c1-2.3,2.7-4.5,5.2-5.1a8.1,8.1,0,0,1,10.2,5.1A9.55,9.55,0,0,0,97.4,173.5ZM113,160.2h-6.5V149.7H113Zm0-12.5h-6.5V137.4H113Zm28.2-10.2H148v10.3h-6.8Zm0,12.2H148v10.5h-6.8Zm-2.5-12.3v10.3c-2.2,0-4.3,0-6.4-.1V137.4C134.4,137.5,136.5,137.4,138.7,137.4Zm0,12.3v10.5h-6.5V149.7Zm.5,72.5h-6.8V209.7h6.8Zm0-14.5h-6.8V195.2h6.8Zm0-14.7h-6.8V180.5h6.8Zm1.7,29.2V209.7h6.5v12.5Zm6.5-14.5h-6.5V195.2h6.5C147.4,199.4,147.5,203.5,147.4,207.7ZM141,193V180.5h6.5V193Zm-1.1-23.1c-2.7,1.3-5.4,2.8-8.4,3.4,2.6-2,5.6-3.5,8.4-5.3,2.9,1.7,5.9,3.3,8.7,5.2C145.5,172.9,142.8,171.1,139.9,169.9ZM167,137.5h6.7v10.3H167Zm0,12.2h6.7c.1,3.5.1,7,.1,10.5H167Zm7,72.5h-6.5V209.7H174Zm0-14.5h-6.5V195.2H174Zm0-14.7h-6.5V180.5H174Zm1.7,29.2V209.7h6.7v12.5Zm6.7-14.5c-2.3,0-4.5,0-6.8-.1V195.1h6.8C182.4,199.4,182.5,203.5,182.4,207.7ZM175.7,193V180.5h6.7V193Zm-8.3-19.5c1-4.6,6.9-6.9,10.9-4.8,2.1.8,3.3,2.8,4.3,4.7C179,168.5,170.6,168,167.4,173.5Zm15.3-13.3h-6.8V149.7h6.7C182.7,153.2,182.7,156.7,182.7,160.2ZM176,147.7V137.4h6.7v10.2C180.5,147.7,178.2,147.7,176,147.7Zm33,74.5h-6.8V209.7H209Zm0-14.5h-6.8V195.2H209Zm0-14.7h-6.8V180.5H209Z"></path><path class="cls-9" d="M401.4,119.5l-.2,1c2.5,3.3,8,2.8,9.3,7.1,2.9,7.6.2,15.8.4,23.7.2,9.7-.2,19.4.2,29,1.2,12,.8,24,.8,36-.1,6.4,1.2,12.8,1,19.2H550.3c.1-38.7,0-77.3,0-116C500.6,119.4,451,119.5,401.4,119.5Zm46.1,18h6.8v10.3h-6.8C447.5,144.3,447.4,140.9,447.5,137.5Zm-25.5,0h6.5v10.2h-6.6C422,144.2,422,140.8,422,137.5Zm6.5,22.7H422V149.7h6.5C428.5,153.2,428.4,156.7,428.5,160.2Zm-15.8-22.8h6.8v10.2h-6.7C412.7,144.3,412.6,140.9,412.7,137.4Zm6.8,22.8h-6.8c0-3.5,0-7,.1-10.6h6.7C419.5,153.2,419.4,156.7,419.5,160.2Zm.2,62c-2.2,0-4.4,0-6.5-.1V209.6h6.5Zm0-14.5h-6.5V195.2h6.5Zm-6.5-14.8V180.4h6.5v12.5C417.5,193,415.3,193,413.2,192.9Zm15,29.3h-6.8V209.7h6.8Zm0-14.5h-6.8V195.2h6.8Zm0-14.7h-6.8V180.5h6.8Zm-7.6-23.1a42.61,42.61,0,0,1-8.3,3.4c2.5-2.1,5.6-3.6,8.4-5.3,2.8,1.7,5.8,3.3,8.5,5.3C426.1,172.7,423.4,171.2,420.6,169.9Zm26.9-20.2h6.8v10.5h-6.8C447.5,156.7,447.4,153.2,447.5,149.7Zm.4,72.5V209.7h6.5v12.5Zm6.6-14.5H448V195.2h6.5C454.4,199.4,454.5,203.5,454.5,207.7ZM448,193V180.5h6.5V193Zm15,29.2h-6.8V209.7H463Zm0-14.5h-6.8V195.2H463Zm0-14.7h-6.8V180.5H463Zm-15.3-19.5c1.9-7.3,13.5-7.3,15.3.1C459.6,168.2,451.2,168.3,447.7,173.5Zm15.5-13.3h-6.5V149.7h6.5Zm0-12.5h-6.5c-.1-3.4,0-6.9,0-10.3h6.5ZM517,137.5h6.7c0,3.4.1,6.9-.1,10.3-2.2,0-4.4-.1-6.6-.1Q516.85,142.6,517,137.5Zm-25.5,0H498v10.3h-6.5C491.5,144.3,491.4,140.9,491.5,137.5Zm0,12.2H498v10.5h-6.5C491.5,156.7,491.4,153.2,491.5,149.7Zm-9.3-12.2H489v10.3h-6.8Zm0,12.2H489v10.5h-6.8Zm7,72.5h-6.5V209.7h6.5Zm0-14.5h-6.5V195.2h6.5Zm0-14.8h-6.5V180.4h6.5Zm8.5,29.3h-6.8V209.7h6.7C497.7,213.8,497.7,218,497.7,222.2Zm-.1-14.5h-6.7V195.2h6.8C497.7,199.4,497.7,203.6,497.6,207.7ZM491,193V180.5h6.7V193Zm-1-23.1c-2.7,1.3-5.4,2.8-8.5,3.4,2.8-1.9,5.7-3.5,8.5-5.3,2.9,1.8,5.9,3.4,8.7,5.2C495.6,172.8,492.9,171.1,490,169.9Zm27-20.2h6.7q.15,5.25,0,10.5h-6.8C517,156.7,517,153.2,517,149.7Zm7,72.5h-6.5V209.7H524Zm0-14.5h-6.5V195.2H524Zm0-14.7h-6.5V180.5H524Zm1.7,29.2c0-4.2,0-8.4.1-12.5h6.7v12.5Zm6.8-14.5h-6.7c-.1-4.2-.1-8.4,0-12.5h6.8C532.4,199.4,532.5,203.5,532.5,207.7ZM525.7,193V180.5h6.7V193Zm-8.4-19.5c1.7-7.3,13.3-7.3,15.2,0C529.1,168.4,520.7,168.2,517.3,173.5Zm15.4-13.3h-6.5V149.7h6.5Zm0-12.5h-6.5V137.5h6.5Z"></path><path class="cls-9" d="M283.5,219.2c.3-20.7.6-41.3.7-62-.1-4.2,1.2-8.7-1-12.5a4.52,4.52,0,0,0,1.3-3.5c.2-7.3.1-14.7-2.1-21.8H257.6c-.5.2-1.4.5-1.9.7-.2.2-.6.5-.7.6l-.4-.4c-4.4-1.9-9.6-.4-14.4-.9-1,3.5-2.1,7.1-2.2,10.8-.2,29.7.8,59.3,1,89a42.9,42.9,0,0,0,1.8,16.3h40.8A45,45,0,0,0,283.5,219.2ZM260,124.5c1.3-.4,1.8.1,1.5,1.4C260.1,126.3,259.6,125.8,260,124.5Zm-1.5-2.3c-.7,1.1-1.4,1.2-2.4,0Q257.15,120.55,258.5,122.2ZM252,137.5h6.5v10.3h-6.4C251.9,144.3,251.9,140.9,252,137.5Zm0,12.2h6.5v10.5H252Zm7,45.5v12.5h-6.8V195.2Zm-6.8-2.2V180.5h6.7V193Zm6.8,29.2h-6.8V209.7H259C258.9,213.9,258.9,218.1,259,222.2Zm8.2,0h-6.8V209.7h6.8Zm0-14.5h-6.8V195.2h6.8ZM260.5,193c0-4.2-.1-8.4,0-12.5h6.7V193Zm-8.4-19.6c.9-2.1,2.4-4.1,4.6-4.8,4.1-1.9,9.1.7,10.6,4.8A9.58,9.58,0,0,0,252.1,173.4Zm8.8-13.2V149.7h6.5v10.5Zm0-12.6c.1-3.4,0-6.8,0-10.2h6.5v10.2C265.3,147.7,263.1,147.7,260.9,147.6Zm6.3-16c-1.8-1.5-3.8-2.8-5-4.9,2.9.7,4.8,3.2,7,5,2.7,2.6,6.1,4.5,8.1,7.8C273.4,137.5,270.5,134.2,267.2,131.6Zm13.2,10.2c-.8.8-3.1.2-2.5-1.2C278.7,139.8,281.1,140.4,280.4,141.8Z"></path><path class="cls-9" d="M337.9,156.2c-1.2.8-2.6,1.5-3.9,2.2-.9,2-2.8,3.3-4.4,4.7-3.1,2.5-5.8,5.7-9.5,7.3,3.9-4.9,9-8.7,14-12.3,0,.1-.1.2-.1.3,1.3-1.5,2.6-2.9,4-4.4.3-7.1,0-14.3.3-21.4.2-4.5-1.1-8.8-2-13.1H317.8c.2,6-.1,12,.2,18h6.5c0,3.4,0,6.9-.1,10.3-2.1,0-4.2-.1-6.3-.1v2.1h6.4v10.5H318c-.1,3.5-.7,7.1.1,10.6.4.3,1.2.9,1.5,1.2-.8.5-1.7,1-2.5,1.5,1,1.6,2.2,3.1,3.3,4.6H313c1.1-1.5,2.3-3,3.3-4.6-.8-.5-1.6-1-2.4-1.4.4-.3,1.1-.9,1.5-1.2.8-3.5.2-7.1.1-10.6H309V149.9h6.4v-2.1c-2.1,0-4.3.1-6.4.1-.1-3.4-.1-6.9-.1-10.3h6.5c.3-6,0-12,.2-18H295.2c-.9,4.5-2.2,9.1-2,13.8.1,6-.3,12,.3,18,.2,3,3.9,3.9,4.9,6.5a25.52,25.52,0,0,1-4.8-2.9c0,18.8.4,37.5.7,56.3.1,8.1-.5,16.4,1.7,24.3h11.7v-43h8c.1,14.3-.1,28.5.1,42.8l1.9.4c.1-14.4,0-28.8,0-43.2h8v43h9.8a39.13,39.13,0,0,0,1.8-11.2C337.2,201.5,338.1,178.9,337.9,156.2Zm-38.1,2.4a15.85,15.85,0,0,1,6.5,5.8C303.8,162.9,300.4,161.5,299.8,158.6Zm9.5,8.2c-1,.7-2.9-.6-2.3-1.8C308,164.2,309.8,165.7,309.3,166.8Zm3.3,3.1c-1.4.4-1.9-.2-1.6-1.5C312.3,168,312.9,168.5,312.6,169.9Zm3.6,15.8h-3.5v-6.8h3.5Zm4.5,0h-3.5v-6.8h3.5Z"></path><path class="cls-9" d="M390.3,129.2c0-3.2-1.3-6.2-2.5-9.1-2.8-.1-5.6-.2-8.4-.5-10.1-.4-20.2,0-30.3-.2a43.21,43.21,0,0,0-2.1,13.8c.2,4.5-1,9.2,1,13.4-1.4,6.1-.6,12.3-.7,18.5.1,16,.4,32,.6,48,.1,7.5-.7,15.1,2,22.3h37.7a42.94,42.94,0,0,0,1.8-11.2C389.3,192.5,390.7,160.9,390.3,129.2ZM376,121.3a1,1,0,1,1,.4,1.8A1,1,0,1,1,376,121.3Zm-2,3.8-2,.8C370.8,124.7,373.9,123.5,374,125.1Zm-5,2.2c1.6-.7,2.3,1.7.4,1.8C367.8,129.8,367.1,127.4,369,127.3Zm-.4,20.4h-6.4V137.5h6.5C368.7,140.9,368.7,144.3,368.6,147.7Zm-19.5-2.1c2.1-3.5,5.7-5.6,8.6-8.3,3.2-2.5,5.8-5.7,9.4-7.6-1.9,3.3-5.2,5.4-8,7.8C355.9,140.3,352.9,143.5,349.1,145.6Zm13.1,4.1h6.5v10.5h-6.5Zm7,72.5h-6.8V209.7h6.8Zm-6.7-14.5V195.2h6.7v12.5Zm6.7-14.7h-6.8V180.5h6.8Zm1.7,29.2V209.7h6.5v12.5Zm6.6-14.5H371V195.2h6.5C377.4,199.4,377.5,203.5,377.5,207.7ZM371,193V180.5h6.5V193Zm3.5-22.5c-4.2-1.8-9.5-1-12.1,3,1.1-4.5,6.8-6.9,10.9-4.8,2.1.7,3.3,2.7,4.4,4.5A13.9,13.9,0,0,1,374.5,170.5Zm3.5-10.3h-6.8V149.7H378Zm0-12.5h-6.8V137.4H378Z"></path><path class="cls-9" d="M554.5,238.5H410.9c-1.9,2.9-4.2,6.3-8.1,6.1-4.6,1-7.4-3.2-10-6.2H79v8.7H554.5C554.4,244.3,554.4,241.4,554.5,238.5Z"></path><path class="cls-9" d="M150.2,306.5l8.8,1.2c-4.7,17.5-10.6,34.7-13.7,52.6-1.1-5.1-1.9-10.3-3.4-15.3-3.7-12.5-7.3-24.9-11-37.4,2.8-.3,5.6-.7,8.4-1.1v-5.8c-8.5,0-17,0-25.4-.1,0,1.9-.1,3.9-.1,5.8,2,.4,4,.7,6.1,1.1.9,2.5,1.7,5,2.5,7.5-4.3,14.7-9.2,29.1-12.6,44-.8-3.8-1.3-7.6-2.3-11.4-3.9-13.4-8.1-26.7-11.9-40.2,2.6-.3,5.2-.7,7.8-1.1v-5.8H78.6v5.7l5.9,1.2q9.6,30.15,19,60.3h9.3c4.3-14.2,8.5-28.5,12.8-42.7,4.4,14.2,8.8,28.5,13.2,42.7h9.7c5.9-19.6,11.8-39.1,17.7-58.7.5-2.9,4.2-2,6.2-2.8v-5.8h-22C150.2,302.6,150.2,304.5,150.2,306.5Z"></path><path class="cls-9" d="M516.2,300.7H491.4c0,1.9,0,3.7.1,5.6,1.8.3,3.6.7,5.4,1,7.6,20.2,15,40.5,22.7,60.7,2.8,0,5.6,0,8.5-.1,6.9-20.2,14.2-40.3,21-60.5,1.9-.4,3.9-.8,5.9-1.1v-5.6H534.5c0,1.9,0,3.8.1,5.6,2.2.3,4.4.7,6.6,1-5.1,16.8-11.3,33.3-15.7,50.3-4.9-17-11.5-33.5-17.1-50.3,2.6-.3,5.3-.7,7.9-1C516.2,304.4,516.2,302.6,516.2,300.7Z"></path><path class="cls-9" d="M258.5,300.7c-8.3-.1-16.5,0-24.8,0,0,1.8,0,3.5.1,5.3,2.4.3,4.8.7,7.2,1.1v23.4H210.5V307.1c2.5-.4,5-.7,7.5-1.1v-5.3H193c0,1.7,0,3.5.1,5.2,2.3.4,4.6.8,7,1.2,0,18.3.1,36.5-.1,54.8l-7.1.9c0,1.7-.1,3.4-.1,5.2H218v-5.1c-2.5-.4-5.1-.7-7.6-1.1.1-8.5,0-16.9.1-25.3H241v25.4c-2.4.3-4.8.7-7.2.9,0,1.7-.1,3.4-.1,5.2h24.8v-5.1c-2.3-.3-4.7-.7-7-1V307.1c2.3-.4,4.7-.7,7-1.1C258.4,304.2,258.5,302.5,258.5,300.7Z"></path><path class="cls-9" d="M390.2,332.9c-8.8.1-17.5,0-26.2,0,0,1.9,0,3.9.1,5.8l10.6.9c0,6.4.1,12.9-.1,19.3a23.07,23.07,0,0,1-18.5,2.5c-6.8-2.2-11.3-8.7-13.3-15.4-2.5-8.6-2.8-18.2.3-26.7,2.4-6.6,8.3-12.1,15.4-13.1,5.1-.6,10.6-.6,15.1,2,1.5,3.2,1.8,6.8,2.8,10.3,2.3,0,4.7,0,7.1-.1.3-5,.4-10,1-15a80.07,80.07,0,0,0-23.8-2.9c-9.5.5-19.2,4.6-25,12.3-5.1,6.4-7.1,14.9-6.8,23,0,10.2,4.5,20.9,13.3,26.6,7.7,5.3,17.6,6.1,26.6,4.7,5.6-.9,10.9-3.1,16.4-4.1V339.4l5-.9Z"></path><path class="cls-9" d="M472,329.3c-.6-7.8-3-16-8.9-21.5-6.9-6.6-17.3-8.1-26.4-6.4a28.37,28.37,0,0,0-19.2,13.8c-5,8.5-5.7,18.9-4.1,28.4,1.3,8.3,5.6,16.5,13,20.8,12,6.6,28.8,4.1,37.7-6.6C470.9,350,472.9,339.3,472,329.3Zm-11.6,8.9c-.5,7.4-2.2,15.5-8,20.7-6.5,5.8-17.8,4.3-22.5-3-6-9-6.1-20.5-4.8-30.8,1.1-7.6,4.8-16.2,12.9-18.4,6-1.7,13.1.3,16.8,5.4C460.4,319.6,460.8,329.4,460.4,338.2Z"></path><path class="cls-9" d="M291.1,355.6c-4,1.9-5.4,8-1.7,10.9,4.5,4,12.7-.3,11.6-6.4C300.7,355.3,294.8,353.3,291.1,355.6Z"></path><path class="cls-10" d="M319.8,33.7a8,8,0,0,1,1.5-.3c-.3-.6-.9-1.7-1.3-2.3.3-.5.9-1.3,1.2-1.8-.3-.1-.9-.4-1.2-.5-1.2,1.1-2.3,2.2-3.5,3.3.6-.1,1.9-.5,2.5-.6A14.27,14.27,0,0,1,319.8,33.7Z"></path><path class="cls-10" d="M388.9,90.8c-3.7-2.2-7.9-3.4-11.8-5.1-19.8-7.9-39.6-15.9-59.4-23.8-2.1-1.1-4.2.3-6.2,1-22.2,9.5-44.7,18.3-66.9,27.9C292.8,90.9,340.8,91.1,388.9,90.8Z"></path><path class="cls-10" d="M239,219.2c-.2-29.7-1.2-59.3-1-89,0-3.7,1.1-7.3,2.2-10.8-7.4.1-14.7-.3-22.1.2l1,.2a19.8,19.8,0,0,1,2.6.6c.5,16.9.1,33.8.2,50.7-1.7,14.6-.7,29.3-1,44,0,3.2-.3,6.5.3,9.6,1,2.6,4.1,2.9,6.4,3.9-.3,2.3-.6,4.5-.9,6.8,4.7-.2,9.4,0,14-.1C239,230.2,238.8,224.7,239,219.2Z"></path><path class="cls-10" d="M406.3,220.6c-1-9.1.3-18.2-.9-27.3a80.86,80.86,0,0,1-.6-13c.1-13.7-.1-27.4.1-41.1a24.22,24.22,0,0,0-.5-6.6c-.9-2.3-4.7-1.2-5.2-3.7,0-2.9,1.3-5.6,1.9-8.4l.2-1c-7.3.1-14.6-.4-22,.2,2.8.2,5.6.4,8.4.5,1.2,2.9,2.5,5.9,2.5,9.1.4,31.7-1,63.4-.9,95a35.49,35.49,0,0,1-1.8,11.2h18.9A92.58,92.58,0,0,0,406.3,220.6Z"></path><path class="cls-10" d="M294.3,211.2c-.4-18.8-.7-37.5-.7-56.3a34,34,0,0,0,4.8,2.9c-.9-2.6-4.6-3.5-4.9-6.5-.5-6-.2-12-.3-18-.2-4.7,1.1-9.2,2-13.8-4.3-.1-8.6-.1-12.8,0,2.2,7.1,2.3,14.5,2.1,21.8a5.82,5.82,0,0,1-1.3,3.5c2.2,3.8.9,8.4,1,12.5-.1,20.7-.4,41.3-.7,62a41.06,41.06,0,0,1-1.9,16.3H296C293.7,227.5,294.4,219.3,294.3,211.2Z"></path><path class="cls-10" d="M348,213.2c-.2-16-.5-32-.6-48,0-6.2-.7-12.4.7-18.5-2-4.2-.8-8.9-1-13.4a43.21,43.21,0,0,1,2.1-13.8q-6.45-.15-12.9,0c.9,4.3,2.2,8.7,2,13.1-.3,7.1,0,14.3-.3,21.4-1.3,1.5-2.7,2.9-4,4.4h0c1.3-.7,2.6-1.4,3.9-2.2.2,22.7-.7,45.3-.5,68a38.58,38.58,0,0,1-1.8,11.2H350C347.3,228.3,348.1,220.6,348,213.2Z"></path><path class="cls-10" d="M269.2,131.7c-2.2-1.9-4.1-4.3-7-5,1.2,2.1,3.2,3.4,5,4.9,3.3,2.6,6.2,5.9,10,7.9C275.2,136.2,271.9,134.3,269.2,131.7Z"></path><path class="cls-10" d="M367.1,129.7c-3.6,1.9-6.3,5.1-9.4,7.6-3,2.7-6.5,4.8-8.6,8.3,3.8-2.1,6.8-5.3,10.1-8C362,135.1,365.3,133.1,367.1,129.7Z"></path><path class="cls-11" d="M143.5,112.2a70.81,70.81,0,0,0,.1-9.2c-.5.2-1.3.4-1.8.6C142.1,106.3,140,111.1,143.5,112.2Z"></path><path class="cls-11" d="M427.5,103.5c-.4-.1-1.3-.3-1.8-.4-.1,3.1-.1,6.1.1,9.2C429.3,111,427.3,106.3,427.5,103.5Z"></path><path class="cls-11" d="M466.5,112.3a50.56,50.56,0,0,0,.1-8.7c-.4-.1-1.3-.4-1.8-.5a57.48,57.48,0,0,0,0,8.3A7,7,0,0,1,466.5,112.3Z"></path><path class="cls-11" d="M491.5,103.5a16.69,16.69,0,0,1-1.8-.5c-.1,3-.1,6.1.1,9.2C493.4,111.1,491.2,106.2,491.5,103.5Z"></path><path class="cls-11" d="M530.6,103.5c-.5-.1-1.4-.3-1.8-.4a71,71,0,0,0,.2,9.2C532.3,111,530.2,106.3,530.6,103.5Z"></path><path class="cls-12" d="M226.7,110.7c-3.8-.4-6.4,2.8-7.7,6h15.3C233.1,113.5,230.6,110.2,226.7,110.7Z"></path><path class="cls-13" d="M221.2,224.8c-.7-3.2-.3-6.4-.3-9.6.3-14.7-.7-29.4,1-44-.1-16.9.3-33.8-.2-50.7a19.8,19.8,0,0,1-2.6-.6c-.8.2-2.4.5-3.2.7-.1,5.6-.1,11.2-.1,16.9h1.9v10.3h-1.9v2h1.9v10.5h-1.9c0,3.8,0,7.6-.2,11.3l2.7,1.8c-.6-.2-1.8-.5-2.4-.7,0,2.6-.1,5.2-.2,7.8h1.4v12.4h-2.4v2.3h2.4c-.1,4.1-.1,8.3,0,12.4h-2.4v2h2.4V222h-3.6c.7,2.8,1,5.9,2.7,8.4,2,2.4,5,3.6,7.8,4.8a22.75,22.75,0,0,1,2.6.2c.3-2.3.6-4.5.9-6.8C225.4,227.7,222.2,227.4,221.2,224.8Z"></path><path class="cls-14" d="M315.5,137.5c-.1,3.4-.1,6.8-.1,10.2v2.1c0,3.5,0,7,.1,10.4s.7,7.1-.1,10.6c-.4.3-1.1.9-1.5,1.2.8.5,1.6.9,2.4,1.4.1-.3.3-1,.4-1.3.1.3.3,1,.4,1.3.8-.5,1.6-1,2.5-1.5-.4-.3-1.2-.9-1.5-1.2-.8-3.5-.2-7.1-.1-10.6s.1-7,.1-10.4v-2.1c0-3.4,0-6.8-.1-10.2-.3-6,0-12-.2-18h-2C315.5,125.5,315.8,131.5,315.5,137.5Z"></path><path class="cls-15" d="M411.8,216.2c0-12,.4-24-.8-36-.3-9.7,0-19.3-.2-29-.2-7.9,2.5-16.1-.4-23.7-1.3-4.3-6.8-3.8-9.3-7.1-.7,2.8-2,5.5-1.9,8.4.4,2.5,4.3,1.4,5.2,3.7a24.22,24.22,0,0,1,.5,6.6c-.2,13.7,0,27.4-.1,41.1a70.79,70.79,0,0,0,.6,13c1.2,9.1-.1,18.2.9,27.3a123.11,123.11,0,0,1,.3,14.9h6.2C412.9,229,411.7,222.7,411.8,216.2Z"></path><path class="cls-16" d="M258.5,122.2c-1-1.1-1.7-1.1-2.4,0C257.1,123.4,257.9,123.3,258.5,122.2Z"></path><path class="cls-16" d="M376.4,123.1a1,1,0,1,0-.4-1.8A1,1,0,1,0,376.4,123.1Z"></path><path class="cls-16" d="M369.4,129.1a1,1,0,1,0-.4-1.8C367.1,127.4,367.8,129.8,369.4,129.1Z"></path><path class="cls-16" d="M210.7,193h6.5V180.6h-6.5Z"></path><path class="cls-16" d="M210.7,207.7h6.5V195.3h-2.4c-1.4,0-2.8,0-4.1-.1Z"></path><path class="cls-16" d="M210.7,222.2h6.5V209.8h-6.5Z"></path><path class="cls-17" d="M211,147.7h6.8V137.4H211Z"></path><path class="cls-17" d="M278,140.6c-.7,1.3,1.7,2,2.5,1.2C281.1,140.4,278.7,139.8,278,140.6Z"></path><path class="cls-17" d="M210.9,160.2h6.8V149.7h-6.8Q211.05,155,210.9,160.2Z"></path><path class="cls-17" d="M307.1,165c-.6,1.2,1.3,2.5,2.3,1.8C309.8,165.7,308,164.2,307.1,165Z"></path><path class="cls-18" d="M299.8,158.6c.7,3,4,4.4,6.5,5.8A15.11,15.11,0,0,0,299.8,158.6Z"></path><path class="cls-19" d="M320.1,170.4c3.7-1.7,6.4-4.8,9.5-7.3,1.6-1.4,3.5-2.7,4.4-4.7h0c0-.1.1-.2.1-.3C329.1,161.7,324,165.5,320.1,170.4Z"></path><path class="cls-19" d="M334,158.4Z"></path><path class="cls-20" d="M310.9,168.4c-.3,1.4.3,1.9,1.6,1.5C312.9,168.5,312.3,168,310.9,168.4Z"></path><path class="cls-21" d="M402.7,244.6c3.9.1,6.2-3.3,8.1-6.1H392.7C395.3,241.5,398.1,245.6,402.7,244.6Z"></path><path class="cls-22" d="M235,430.3a83.6,83.6,0,0,0-3.7-11l-3.6,11.1H216.4a101,101,0,0,0,9,6.8c-1.1,3.7-2.3,7.4-3.5,11.1,3.3-2,6.4-4.4,9.6-6.7,3.1,2.3,6.2,4.6,9.4,6.8-1-3.8-2.2-7.5-3.5-11.1,3.2-2.3,6.3-4.5,9.4-6.9C242.9,430.5,238.9,430.5,235,430.3Z"></path><path class="cls-22" d="M320.5,430.5c-1.2-3.3-2.1-6.8-3.4-10.1h-.8c-1.3,3.3-2.2,6.7-3.3,10.1H301.5c3,2.4,6.1,4.6,9.2,6.8-1.1,3.7-2.4,7.4-3.6,11.1,3.4-2,6.4-4.4,9.6-6.7,3.1,2.3,6.2,4.6,9.4,6.8-1-3.8-2.3-7.4-3.5-11.1,3.1-2.3,6.3-4.5,9.3-6.9Q326.2,430.35,320.5,430.5Z"></path><path class="cls-22" d="M405.7,430.4q-1.95-5.55-3.6-11.1a83.6,83.6,0,0,0-3.7,11c-3.9.3-7.9.2-11.8.2,3.1,2.3,6.3,4.6,9.4,6.8-1.2,3.7-2.4,7.4-3.4,11.2,3.2-2.2,6.3-4.5,9.4-6.8,3.2,2.2,6.2,4.7,9.6,6.7-1.2-3.7-2.5-7.4-3.5-11.1a84.92,84.92,0,0,0,9-6.8C413.2,430.4,409.5,430.5,405.7,430.4Z"></path><path class="cls-23" d="M35.3,433c-1.6,2.5,2.1,2,3.4,2.1,42-.2,84.1.1,126.1-.1l.6-.7-.3-1.2Q100.15,432.8,35.3,433Z"></path><path class="cls-23" d="M468.4,433l-.4,1.1.5.8c43.1.2,86.3.1,129.5,0,.1-.5.4-1.5.5-2.1C555.1,433,511.7,432.8,468.4,433Z"></path></svg> 