<?xml version="1.0" encoding="UTF-8"?> <svg xmlns="http://www.w3.org/2000/svg" id="НУЖЕН" width="831.09" height="833.09" viewBox="0 0 831.09 833.09"><defs><style> .cls-1 { fill: #f3f3f5; } .cls-1, .cls-3, .cls-4, .cls-5, .cls-6, .cls-7 { fill-rule: evenodd; } .cls-2 { fill: #f7ba2e; } .cls-3 { fill: #ee2d24; } .cls-4 { fill: #231f20; } .cls-5 { fill: #262626; } .cls-6 { fill: #fff; } .cls-7 { fill: #9fa6ac; } </style></defs><path id="Фигура_3_копия_2" data-name="Фигура 3 копия 2" class="cls-1" d="M2472.09,1614.09H1642.93V784.936h829.16V1614.09Z" transform="translate(-1641 -781)"></path><rect id="Прямоугольник_4" data-name="Прямоугольник 4" class="cls-2" x="626" y="3" width="205" height="830"></rect><path id="Прямоугольник_3_копия" data-name="Прямоугольник 3 копия" class="cls-3" d="M1641.01,1012.02h626V780.989h-626V1012.02Z" transform="translate(-1641 -781)"></path><path id="Прямоугольник_3" data-name="Прямоугольник 3" class="cls-4" d="M1641.35,1011.58h626.41v117.21H1641.35V1011.58Z" transform="translate(-1641 -781)"></path><path id="Фигура_3_копия" data-name="Фигура 3 копия" class="cls-5" d="M1714.99,1434.6h32.89v-18.15h-52.89v127.09h20v-52.47h25.8v-18.16h-25.8V1434.6Zm53.42,108.94h19.99V1416.45h-19.99v127.09Zm88.14,0h20.54V1416.45h-17.81v76.07l-20.54-76.07h-25.08v127.09h17.99v-92.05Zm90.14-127.09h-29.26l-20.36,127.09h18.36l3.45-23.06h24.54l3.45,23.06h20.18Zm-15.63,22.51,9.63,64.27h-19.26Zm56.15,104.58h52.89v-18.16h-32.9V1416.45h-19.99v127.09Zm72.51,0h19.99V1416.45h-19.99v127.09Zm42.89-96.59c0,36.31,39.07,41.21,39.07,67.36,0,9.08-3.99,12.35-10.36,12.35s-10.36-3.27-10.36-12.35v-9.08h-18.9v7.81c0,20.33,10.18,31.95,29.81,31.95s29.81-11.62,29.81-31.95c0-36.31-39.08-41.22-39.08-67.36,0-9.08,3.63-12.53,10-12.53s9.99,3.45,9.99,12.53v5.26h18.9v-3.99c0-20.34-9.99-31.96-29.44-31.96S2102.61,1426.61,2102.61,1446.95Zm75.6-12.35h20.9v108.94h19.99V1434.6H2240v-18.15h-61.79v18.15Zm256.41-441.742V970.017H2311.85v88.163h18.85V992.858h103.92Zm-36.38,181.612a58.786,58.786,0,0,0,19.87-12.65,58.049,58.049,0,0,0,13.12-19.62,65.611,65.611,0,0,0,4.75-25.38,66.528,66.528,0,0,0-4.71-25.43,57.522,57.522,0,0,0-13.12-19.7,58.89,58.89,0,0,0-19.91-12.69,71.694,71.694,0,0,0-50,0,58.89,58.89,0,0,0-19.91,12.69,57.522,57.522,0,0,0-13.12,19.7,70.87,70.87,0,0,0,0,50.81,57.187,57.187,0,0,0,13.12,19.62,59.256,59.256,0,0,0,19.91,12.65A71.694,71.694,0,0,0,2398.24,1174.47Zm-43.13-21.61a37.755,37.755,0,0,1-13.58-7.68,33.23,33.23,0,0,1-8.53-12.19,45.5,45.5,0,0,1,0-32.39,33.612,33.612,0,0,1,8.53-12.27,37.9,37.9,0,0,1,13.58-7.76,61.782,61.782,0,0,1,36.26,0,38.423,38.423,0,0,1,13.62,7.76,33.376,33.376,0,0,1,8.58,12.27,45.639,45.639,0,0,1,0,32.39,33,33,0,0,1-8.58,12.19,38.28,38.28,0,0,1-13.62,7.68A62.664,62.664,0,0,1,2355.11,1152.86Zm-43.26,100.66a61.165,61.165,0,0,0,2.72,19.01,41.283,41.283,0,0,0,7.52,14.01,31.678,31.678,0,0,0,11.41,8.66,34.75,34.75,0,0,0,14.44,2.98q21.645,0,27.34-25.31a40.887,40.887,0,0,0,4.75,9.81,29.709,29.709,0,0,0,6.24,6.79,23.84,23.84,0,0,0,7.39,3.95,26.754,26.754,0,0,0,8.28,1.27,34.534,34.534,0,0,0,13.58-2.54,25.4,25.4,0,0,0,10.28-8.03,39.438,39.438,0,0,0,6.53-14.01,80.117,80.117,0,0,0,2.29-20.58v-42.37H2311.85v46.36Zm53.83-.43a38.754,38.754,0,0,1-1.18,10.28,18.908,18.908,0,0,1-3.44,6.96,13.512,13.512,0,0,1-5.44,3.99,19.126,19.126,0,0,1-7.17,1.27,22.518,22.518,0,0,1-7.22-1.14,15.106,15.106,0,0,1-5.94-3.74,18.521,18.521,0,0,1-4.08-6.88,32,32,0,0,1-1.53-10.65V1230h36v23.09Zm51.29-23.09v19.53q0,11.535-4.08,16.98t-13.67,5.43q-9.255,0-13.5-6.03t-4.24-17.66V1230h35.49Zm17.65,157.66v-23.34l-122.77-48.23v17.74a7.507,7.507,0,0,0,1.62,4.89,7.972,7.972,0,0,0,3.56,2.67l25.05,9.17v50.86l-25.05,9.17a8.428,8.428,0,0,0-3.69,2.76,7.712,7.712,0,0,0-1.49,4.88v17.66Zm-35.74-16.3q2.8,1.11,6.54,2.25c2.49,0.77,5.18,1.54,8.06,2.34-2.88.79-5.56,1.6-8.02,2.42s-4.6,1.57-6.41,2.25l-40.84,14.94v-39.14Zm35.74,110.21v-22.84H2311.85v92.2h22.9v-69.36h99.87Zm-3.22-614.287a55.95,55.95,0,0,0-32.77-32.858,69.417,69.417,0,0,0-25.39-4.5,67.175,67.175,0,0,0-25.22,4.628,57.991,57.991,0,0,0-32.85,32.392,63.893,63.893,0,0,0-4.67,24.707,114.953,114.953,0,0,0,.8,14.092,83.577,83.577,0,0,0,2.42,12.27,63.01,63.01,0,0,0,3.32,8.7h-5.45V942.88l61.82-.32V897.68H2360.5a4.034,4.034,0,0,0-3.01,1.273,4.8,4.8,0,0,0-1.23,3.481V917.8h-22.33a53.22,53.22,0,0,1-5.26-24.368,42.282,42.282,0,0,1,3.01-16.13,35.859,35.859,0,0,1,8.7-12.736,39.589,39.589,0,0,1,13.97-8.32,55.63,55.63,0,0,1,18.89-2.972,53.52,53.52,0,0,1,17.83,2.8,39.385,39.385,0,0,1,13.67,7.98,34.674,34.674,0,0,1,8.74,12.523,42.343,42.343,0,0,1,3.06,16.429,56.886,56.886,0,0,1-.76,9.893,51.614,51.614,0,0,1-1.96,7.726,37.141,37.141,0,0,1-2.8,6.283c-1.07,1.9-2.15,3.75-3.22,5.56a7.674,7.674,0,0,0-1.36,4.161,5.883,5.883,0,0,0,3.14,5.18l10.36,6.621a60.256,60.256,0,0,0,11.59-18.636q4.455-11,4.45-26.024A72.793,72.793,0,0,0,2431.4,867.283ZM1866.25,1183.65a91.881,91.881,0,0,0-46.03,80.4q0,37.875,26.36,65.42t66.19,27.54q38.025,0,64.68-26.82t26.66-65.54q0-39.09-27.02-66.27t-64.56-27.18A90.748,90.748,0,0,0,1866.25,1183.65Zm87.21,38q16.965,17.5,16.97,42.76,0,25.38-16.85,42.69-16.86,17.325-40.81,17.32a57.738,57.738,0,0,1-37.56-13.35q-21.075-17.07-21.07-46.42,0-26.34,16.73-43.42t41.3-17.08Q1936.485,1204.15,1953.46,1221.65Zm134.43-38a91.826,91.826,0,0,0-46.03,80.4q0,37.875,26.35,65.42t66.19,27.54q38.025,0,64.69-26.82t26.65-65.54q0-39.09-27.01-66.27t-64.57-27.18A90.712,90.712,0,0,0,2087.89,1183.65Zm87.2,38q16.98,17.5,16.98,42.76,0,25.38-16.86,42.69-16.845,17.325-40.81,17.32a57.776,57.776,0,0,1-37.56-13.35q-21.06-17.07-21.07-46.42,0-26.34,16.74-43.42,16.725-17.07,41.29-17.08A55.375,55.375,0,0,1,2175.09,1221.65Zm-435.03-44.36c0.05,0.68.2,1.33,0.2,2.02a26.26,26.26,0,0,1-26.27,26.26c-0.69,0-1.35-.15-2.03-0.2v141.64h48.45V1177.29h-20.35Z" transform="translate(-1641 -781)"></path><path id="Прямоугольник_1" data-name="Прямоугольник 1" class="cls-6" d="M1770.77,940.006q5.265,0,7.96,1.579a15.348,15.348,0,0,1,4.94,5l36.34,58.59q4.485,7.635,14.49,7.64h35.68l-44.5-68.732a33.78,33.78,0,0,0-6-7.044,40.015,40.015,0,0,0-7.17-5.071,64.942,64.942,0,0,0,17.25-8.689,56.654,56.654,0,0,0,12.64-12.377,53.054,53.054,0,0,0,7.83-15.47,58.985,58.985,0,0,0,2.7-17.974,58.244,58.244,0,0,0-4.21-22.449,44.219,44.219,0,0,0-13.3-17.578q-9.09-7.374-23.31-11.52t-34.23-4.15h-80.25V1012.82h39.5V940.006h33.64Zm-33.64-88.218h40.75q18.435,0,27.45,7.5t9.02,21.068A36.591,36.591,0,0,1,1812.24,893a26.067,26.067,0,0,1-6.58,10.072,31.1,31.1,0,0,1-11.45,6.715,50.5,50.5,0,0,1-16.59,2.437h-40.49V851.788ZM1901,821.766V1012.82h141.86V981.877h-102.1V931.711h83.93V901.823h-83.93V852.709h102.1V821.766H1901Zm343.69,57.145a88.421,88.421,0,0,0-19.88-30.217,90.392,90.392,0,0,0-30.88-19.816q-18.03-7.113-40.02-7.112h-73.47V1012.82h73.47q21.975,0,40.02-7.11a90.931,90.931,0,0,0,30.88-19.751,87.567,87.567,0,0,0,19.88-30.219A108.182,108.182,0,0,0,2244.69,878.911Zm-37.46,65.439a57.592,57.592,0,0,1-11.32,20.344,48.485,48.485,0,0,1-17.97,12.773,62.085,62.085,0,0,1-24.03,4.41H2120.2V852.709h33.71a61.279,61.279,0,0,1,24.03,4.477,49.512,49.512,0,0,1,17.97,12.771,56.921,56.921,0,0,1,11.32,20.278A94.646,94.646,0,0,1,2207.23,944.35Z" transform="translate(-1641 -781)"></path><path id="Прямоугольник_2" data-name="Прямоугольник 2" class="cls-7" d="M1775.35,1011.96h-19.31v36.85h-40.87v-36.85h-19.31v86.8h19.31v-37.39h40.87v37.39h19.31v-86.8Zm19.44,0v86.8h59.09v-14.05H1814.1v-22.8h30.96v-13.58H1814.1v-22.31h39.78v-14.06h-59.09Zm99.12,53.72a8.216,8.216,0,0,1,3.87.72,7.4,7.4,0,0,1,2.4,2.27l17.65,26.62c1.45,2.32,3.79,3.47,7.03,3.47h17.33l-21.61-31.22a15.444,15.444,0,0,0-2.91-3.2,19.544,19.544,0,0,0-3.49-2.31,31.954,31.954,0,0,0,8.38-3.95,26.577,26.577,0,0,0,6.14-5.62,23.469,23.469,0,0,0,3.8-7.03,26.169,26.169,0,0,0-.73-18.36,20.3,20.3,0,0,0-6.46-7.99,32.754,32.754,0,0,0-11.32-5.23,63.668,63.668,0,0,0-16.63-1.89H1868.2v86.8h19.19v-33.08h6.52Zm-6.52-40.08h9.97q8.955,0,13.34,3.41a11.437,11.437,0,0,1,4.38,9.57,15.8,15.8,0,0,1-1.02,5.75,11.87,11.87,0,0,1-3.2,4.57,15.248,15.248,0,0,1-5.57,3.05,25.961,25.961,0,0,1-8.05,1.11h-9.85V1025.6Zm89.59,40.08a8.216,8.216,0,0,1,3.87.72,7.4,7.4,0,0,1,2.4,2.27l17.65,26.62c1.45,2.32,3.79,3.47,7.03,3.47h17.33l-21.61-31.22a15.728,15.728,0,0,0-2.91-3.2,19.544,19.544,0,0,0-3.49-2.31,31.954,31.954,0,0,0,8.38-3.95,26.577,26.577,0,0,0,6.14-5.62,23.469,23.469,0,0,0,3.8-7.03,26.319,26.319,0,0,0-.73-18.36,20.3,20.3,0,0,0-6.46-7.99,32.841,32.841,0,0,0-11.32-5.23,63.668,63.668,0,0,0-16.63-1.89h-29.16v86.8h19.19v-33.08h6.52Zm-6.52-40.08h9.97q8.955,0,13.34,3.41a11.437,11.437,0,0,1,4.38,9.57,15.591,15.591,0,0,1-1.03,5.75,11.739,11.739,0,0,1-3.19,4.57,15.248,15.248,0,0,1-5.57,3.05,25.961,25.961,0,0,1-8.05,1.11h-9.85V1025.6Zm83.19-13.64h-19.31v86.8h19.31v-86.8Zm29.55,0h-10.11v86.8h16.95v-50.19c0-1.15-.03-2.4-0.1-3.74s-0.16-2.7-.28-4.09l46.23,54.97a8.961,8.961,0,0,0,3.01,2.37,9.175,9.175,0,0,0,3.77.68h9.91v-86.8h-16.94v49.65c0,1.28.04,2.64,0.12,4.07s0.22,2.91.39,4.43l-46.56-55.34a11.987,11.987,0,0,0-1.41-1.43,5.908,5.908,0,0,0-1.34-.87,4.841,4.841,0,0,0-1.57-.42,20.2,20.2,0,0,0-2.07-.09h0Zm165.82,78.43v-35.84h-31.85v10a3,3,0,0,0,1.06,2.36,4.238,4.238,0,0,0,2.91.93h10.48v14.59a41.807,41.807,0,0,1-7.06,2.36,38.7,38.7,0,0,1-20.53-1.16,25.707,25.707,0,0,1-15.64-15.47,35.474,35.474,0,0,1-2.17-12.83,34.638,34.638,0,0,1,1.98-12.02,26.249,26.249,0,0,1,5.66-9.22,25.2,25.2,0,0,1,8.92-5.92,31.45,31.45,0,0,1,11.7-2.09,48.449,48.449,0,0,1,6.78.42,34.061,34.061,0,0,1,10.14,3.02c1.47,0.7,2.97,1.48,4.51,2.36a6.4,6.4,0,0,0,4.47.96,5.168,5.168,0,0,0,3.33-2.33l5.56-8.02a44.608,44.608,0,0,0-6.39-4.61,45.992,45.992,0,0,0-7.74-3.62,55.238,55.238,0,0,0-9.21-2.39,62.546,62.546,0,0,0-10.74-.87,58.223,58.223,0,0,0-20.11,3.29,45.112,45.112,0,0,0-15.32,9.16,39.941,39.941,0,0,0-9.75,13.99,45.743,45.743,0,0,0-3.42,17.89,43.572,43.572,0,0,0,3.58,17.77,40.645,40.645,0,0,0,10.17,14.06,47.025,47.025,0,0,0,15.86,9.24,61.168,61.168,0,0,0,20.71,3.32,63.019,63.019,0,0,0,16.98-2.24,51.321,51.321,0,0,0,15.13-7.09h0Z" transform="translate(-1641 -781)"></path></svg> 