<?xml version="1.0" encoding="UTF-8"?> <svg xmlns="http://www.w3.org/2000/svg" id="НУЖЕН" width="832.349" height="1096.38" viewBox="0 0 832.349 1096.38"><defs><style> .cls-1 { fill: #e42616; } .cls-1, .cls-3, .cls-5 { fill-rule: evenodd; } .cls-2 { fill: #ffe420; } .cls-3 { fill: #fff06d; } .cls-4 { fill: #f9cd00; } .cls-5 { fill: #ae8700; } </style></defs><path id="Фигура_2" data-name="Фигура 2" class="cls-1" d="M1365,1112l10.19,193.86,19.53,425.02-194.51-159.33L978.551,1729.43l29.249-414.69L1039,1074Z" transform="translate(-770.531 -634.5)"></path><circle id="Эллипс_1" data-name="Эллипс 1" class="cls-2" cx="415.469" cy="415.5" r="388"></circle><path id="Прямоугольник_7" data-name="Прямоугольник 7" class="cls-3" d="M1582.18,1096.08a5.957,5.957,0,0,1,.95-9.61h0c26.33-15.25,26.34-53.39.01-68.64v-0.01a5.95,5.95,0,0,1-.94-9.61l0.02-.02c22.85-20.111,15.45-57.5-13.33-67.317l-0.05-.014a5.954,5.954,0,0,1-2.79-9.244l0.01-.012c18.51-24.2,3.97-59.432-26.17-63.417l-0.02,0a5.947,5.947,0,0,1-4.54-8.519l0.01-.012c13.45-27.355-7.66-59.065-37.99-57.078l-0.02,0a5.937,5.937,0,0,1-6.11-7.467l0.01-.026c7.87-29.461-18.99-56.427-48.35-48.545l-0.05.014a5.922,5.922,0,0,1-7.43-6.13v-0.008c1.99-30.439-29.6-51.632-56.86-38.147l-0.03.014a5.92,5.92,0,0,1-8.49-4.554v-0.019c-3.96-30.248-39.07-44.847-63.19-26.275l-0.01.012a5.911,5.911,0,0,1-9.21-2.8l-0.01-.012c-9.76-28.888-47.03-36.333-67.07-13.4l-0.03.026a5.9,5.9,0,0,1-9.57-.949l-0.01-.017c-15.2-26.422-53.2-26.42-68.4,0l-0.01.012a5.9,5.9,0,0,1-9.57.949l-0.03-.034c-20.05-22.932-57.31-15.493-67.08,13.393l-0.01.026a5.911,5.911,0,0,1-9.21,2.8l-0.01-.01c-24.12-18.57-59.22-3.979-63.19,26.27v0.02a5.92,5.92,0,0,1-8.491,4.554l-0.016-.008c-27.263-13.5-58.857,7.69-56.868,38.133v0.016a5.925,5.925,0,0,1-7.438,6.128l-0.036-.008c-29.359-7.892-56.223,19.068-48.359,48.533l0.008,0.036a5.933,5.933,0,0,1-6.105,7.465l-0.016,0c-30.334-2-51.446,29.712-38,57.074l0.008,0.018a5.942,5.942,0,0,1-4.538,8.515l-0.012,0c-30.141,3.976-44.688,39.209-26.184,63.413l0.014,0.018a5.949,5.949,0,0,1-2.8,9.242l-0.036.012c-28.782,9.8-36.2,47.2-13.351,67.321l0.03,0.02a5.952,5.952,0,0,1-.946,9.61c-26.331,15.25-26.333,53.39-.008,68.64l0.012,0.01a5.953,5.953,0,0,1,.942,9.61l-0.028.03c-22.851,20.12-15.435,57.51,13.349,67.31l0.034,0.02a5.945,5.945,0,0,1,2.793,9.24l0,0.01c-18.51,24.2-3.973,59.43,26.166,63.42h0.016a5.945,5.945,0,0,1,4.536,8.52l-0.01.02c-13.445,27.36,7.665,59.07,38,57.07H876.1a5.938,5.938,0,0,1,6.105,7.47l-0.01.03c-7.866,29.47,19,56.43,48.36,48.53l0.035-.01a5.93,5.93,0,0,1,7.44,6.13l0,0.02c-1.991,30.44,29.607,51.63,56.868,38.14l0.02-.01a5.92,5.92,0,0,1,8.489,4.55v0.02c3.97,30.25,39.07,44.85,63.19,26.28l0.02-.02a5.91,5.91,0,0,1,9.21,2.8l0.01,0.03c9.77,28.88,47.03,36.33,67.07,13.4l0.02-.03a5.917,5.917,0,0,1,9.58.95l0.01,0.02c15.19,26.41,53.19,26.42,68.39.01l0.01-.03a5.912,5.912,0,0,1,9.58-.94l0.02,0.02c20.04,22.94,57.3,15.5,67.08-13.38l0.02-.05a5.91,5.91,0,0,1,9.21-2.8l0.01,0.01c24.11,18.57,59.22,3.98,63.19-26.27v-0.02a5.915,5.915,0,0,1,8.49-4.55h0.01c27.26,13.5,58.86-7.68,56.87-38.13v-0.02a5.923,5.923,0,0,1,7.44-6.12h0.03c29.36,7.91,56.23-19.05,48.37-48.52l-0.01-.04a5.941,5.941,0,0,1,6.11-7.47h0c30.33,2.01,51.45-29.7,38.01-57.06l-0.01-.03a5.947,5.947,0,0,1,4.54-8.52h0.01c30.14-3.98,44.69-39.2,26.19-63.41l-0.02-.02a5.95,5.95,0,0,1,2.79-9.24l0.03-.01c28.78-9.81,36.2-47.2,13.35-67.32Zm-389.79,320.17c-199.823,0-361.807-162.85-361.807-363.74S992.567,688.771,1192.39,688.771s361.8,162.853,361.8,363.739S1392.21,1416.25,1192.39,1416.25Z" transform="translate(-770.531 -634.5)"></path><circle class="cls-4" cx="419.469" cy="415.5" r="335"></circle><circle id="Ellipse_2_copy" data-name="Ellipse 2 copy" class="cls-2" cx="419.469" cy="415.5" r="302"></circle><path id="Прямоугольник_6" data-name="Прямоугольник 6" class="cls-5" d="M1011.88,943.383h47.56a119.812,119.812,0,0,0,12.35-1.221q6.99-.915,10.46-2.928a23.8,23.8,0,0,0,8.82-8.792,24.451,24.451,0,0,0,3.22-12.512q0-8.546-4.53-14.192t-14.14-7.964a21.927,21.927,0,0,0,9.61-5.984,20.042,20.042,0,0,0,4.93-13.612,20.763,20.763,0,0,0-6.91-15.869q-6.9-6.408-19.79-6.41h-51.58v89.484Zm27.8-71.356h12.16q6.27,0,8.79,2.2a7.673,7.673,0,0,1,2.52,6.1,8.138,8.138,0,0,1-2.52,6.44c-1.68,1.487-4.68,2.228-8.97,2.228h-11.98v-16.97Zm0,34h13.98q7.245,0,10.13,2.411a7.887,7.887,0,0,1,2.89,6.379,8.546,8.546,0,0,1-2.92,6.807q-2.925,2.532-10.03,2.531h-14.05V906.027Zm68.97,37.356h75.17V923.117h-47.56v-17.64h42.88V887.226h-42.88V873.005h46.22V853.9h-73.83v89.484Zm95.12-7.265q8.76,8.793,31.51,8.792,12.945,0,21.46-3.753A29.694,29.694,0,0,0,1270,930.139a28.4,28.4,0,0,0,4.75-15.872,25.231,25.231,0,0,0-3.56-13.244q-3.555-5.924-11.37-9.92-7.83-4-25.88-7.9-7.305-1.527-9.25-3.3a4.978,4.978,0,0,1-2-3.846,6.283,6.283,0,0,1,2.43-4.976q2.43-2.044,7.23-2.046,5.85,0,9.16,2.748t4.35,8.788l25.97-1.525q-1.71-13.914-10.68-20.294t-26.06-6.38q-13.92,0-21.92,3.511a26.444,26.444,0,0,0-11.99,9.643,23.562,23.562,0,0,0-3.98,13.032,21.89,21.89,0,0,0,7.79,17.275q7.71,6.774,25.84,10.865,11.07,2.442,14.12,5.189a8.247,8.247,0,0,1,3.04,6.225,8.33,8.33,0,0,1-3.2,6.439q-3.195,2.779-9.09,2.778-7.9,0-12.16-5.433-2.625-3.356-3.47-9.766l-26.21,1.648Q1195.015,927.329,1203.77,936.118ZM1282.35,876h28.1v67.387H1338V876h28.1V853.9h-83.75V876Zm-232.2,177.514h27.01l15.58-56.343,15.64,56.343h27.02l19.65-89.486h-26.03l-9.43,50.026-13.82-50.026h-26.08l-13.79,50.1-9.42-50.1h-26.17Zm113.84,0h75.18v-20.27H1191.6V1015.6h42.88V997.351H1191.6V983.13h46.23V964.024h-73.84v89.486Zm90.08,0h47.56a121.473,121.473,0,0,0,12.35-1.22q6.99-.915,10.46-2.93a23.842,23.842,0,0,0,8.82-8.79,24.56,24.56,0,0,0,3.22-12.51q0-8.55-4.53-14.2t-14.14-7.96a21.946,21.946,0,0,0,9.61-5.985,20.091,20.091,0,0,0,4.92-13.612,20.786,20.786,0,0,0-6.9-15.87q-6.9-6.409-19.8-6.409h-51.57v89.486Zm27.79-71.358h12.17q6.255,0,8.79,2.2a7.669,7.669,0,0,1,2.52,6.1,8.147,8.147,0,0,1-2.52,6.442q-2.535,2.227-8.98,2.228h-11.98v-16.97Zm0,34h13.99q7.245,0,10.13,2.41a7.928,7.928,0,0,1,2.89,6.38,8.583,8.583,0,0,1-2.92,6.81q-2.925,2.535-10.04,2.53h-14.05v-18.13Zm-281.08,80.09h28.1v67.39h27.55v-67.39h28.1v-22.09h-83.75v22.09Zm94.64,48.84a37.651,37.651,0,0,0,16.02,15.25q9.885,4.83,24.97,4.83,14.835,0,24.79-5.59a37.534,37.534,0,0,0,15.2-15.63q5.265-10.035,5.26-25.72,0-21.615-12.04-33.6t-34.3-12q-21.72,0-33.88,12.21t-12.16,34.12Q1089.28,1134.64,1095.42,1145.08Zm26.46-45.6a16.687,16.687,0,0,1,13.38-5.92q8.685,0,13.77,5.83t5.08,18.46q0,15.015-4.86,20.82-4.875,5.79-13.75,5.79-8.64,0-13.65-5.92t-5.02-19.47Q1116.83,1105.405,1121.88,1099.48Zm77.3,45.6a37.6,37.6,0,0,0,16.02,15.25q9.885,4.83,24.97,4.83,14.835,0,24.79-5.59a37.594,37.594,0,0,0,15.2-15.63q5.265-10.035,5.26-25.72,0-21.615-12.04-33.6t-34.3-12q-21.72,0-33.88,12.21t-12.17,34.12Q1193.03,1134.64,1199.18,1145.08Zm26.45-45.6a16.72,16.72,0,0,1,13.39-5.92q8.685,0,13.77,5.83t5.08,18.46q0,15.015-4.87,20.82-4.86,5.79-13.74,5.79-8.64,0-13.66-5.92t-5.01-19.47Q1220.59,1105.405,1225.63,1099.48Zm74.63,64.15h70.55V1141.6h-43v-67.45h-27.55v89.48Z" transform="translate(-770.531 -634.5)"></path><path id="Фигура_2_копия" data-name="Фигура 2 копия" class="cls-5" d="M1275.29,1218.78c11.38,0,18.9,14.2,26,24.38,5.29,7.42,15.24,18.01,25.4,18.01,5.69,0,13.21-2.75,13.21-12.92,0-7.53-5.28-11.03-8.23-11.77-1.32-.74-1.52-1.17-1.12-2.87a9.539,9.539,0,0,1,9.25-6.99c7.11,0,11.48,6.78,11.48,13.35,0,9.55-8.13,18.66-11.79,22.48a31.625,31.625,0,0,0-5.28,6.36c-6.9,12.3-26.01,18.02-39.83,18.02a69.558,69.558,0,0,1-41.65-13.15c-10.76-8.69-14.63-16.53-14.63-25.02,0-7.2,3.25-10.81,6.5-12.71-6.91-11.13-15.24-24.28-31.69-24.28-16.67,0-23.07,11.23-23.07,23.74,0,20.04,16.46,30.43,23.98,30.43,1.83,0,1.83,1.28.71,1.91-4.17,3.18-8.23,4.66-12.4,4.66-12.39,0-24.58-12.51-24.58-28.51,0-23.22,21.95-39.65,40.24-39.65,11.98,0,21.33,5.73,31.08,19.51,6.3,8.9,15.24,26.18,28.45,37.21,12.19,9.96,22.76,12.29,29.66,12.29h4.07v-1.06c-15.04-3.39-23.17-13.35-27.84-17.8-5.08-5.1-16.05-17.82-21.54-29.05,2.44-3.61,7.52-6.57,13.41-6.57h0.21Zm-186.34,0c-11.38,0-18.9,14.2-26.01,24.38-5.28,7.42-15.24,18.01-25.4,18.01-5.68,0-13.2-2.75-13.2-12.92,0-7.53,5.28-11.03,8.23-11.77,1.31-.74,1.52-1.17,1.12-2.87a9.539,9.539,0,0,0-9.25-6.99c-7.11,0-11.48,6.78-11.48,13.35,0,9.55,8.13,18.66,11.79,22.48a31.625,31.625,0,0,1,5.28,6.36c6.9,12.3,26.01,18.02,39.83,18.02a69.558,69.558,0,0,0,41.65-13.15c10.76-8.69,14.63-16.53,14.63-25.02,0-7.2-3.26-10.81-6.51-12.71,6.91-11.13,15.24-24.28,31.7-24.28,16.66,0,23.06,11.23,23.06,23.74,0,20.04-16.46,30.43-23.97,30.43-1.83,0-1.83,1.28-.71,1.91,4.16,3.18,8.22,4.66,12.39,4.66,12.4,0,24.59-12.51,24.59-28.51,0-23.22-21.95-39.65-40.24-39.65-11.99,0-21.33,5.73-31.08,19.51-6.3,8.9-15.24,26.18-28.45,37.21-12.19,9.96-22.76,12.29-29.67,12.29h-4.06v-1.06c15.04-3.39,23.16-13.35,27.84-17.8,5.08-5.1,16.05-17.82,21.54-29.05-2.44-3.61-7.52-6.57-13.41-6.57h-0.21Z" transform="translate(-770.531 -634.5)"></path></svg> 