<?xml version="1.0" encoding="UTF-8"?> <svg xmlns="http://www.w3.org/2000/svg" width="276" height="62" viewBox="0 0 276 62" fill="none"><path d="M28.4651 31.2807C28.4651 24.0605 23.5257 18.7702 16.7339 18.7702C9.94083 18.7702 5.06357 24.0605 5.06357 31.2807C5.06357 38.4378 9.94083 43.7913 16.7339 43.7913C23.5257 43.7913 28.4651 38.4378 28.4651 31.2807ZM0 31.2807C0 21.5706 7.1627 14.3503 16.7339 14.3503C26.3044 14.3503 33.4671 21.5706 33.4671 31.2807C33.4671 40.9908 26.3665 48.2731 16.7339 48.2731C7.03908 48.2731 0 40.9908 0 31.2807Z" fill="white"></path><path d="M55.0149 15.3464V19.7656H45.7537V47.2772H40.8137V15.3464H55.0149Z" fill="white"></path><path d="M86.4445 31.2808C86.4445 24.0605 81.5051 18.7703 74.5891 18.7703C67.7972 18.7703 62.7336 24.0605 62.7336 31.2808C62.7336 38.4379 67.7972 43.7294 74.5891 43.7294C81.5051 43.7294 86.4445 38.4379 86.4445 31.2808ZM74.0952 14.3504C79.2197 14.3504 84.2217 16.591 86.1978 20.3258H86.3824C86.3214 19.4541 86.2599 18.583 86.2599 16.9023V0.59375H91.1372V47.2769H86.5681V44.6637C86.5681 43.2315 86.6296 42.1738 86.7538 41.2395H86.5681C84.4069 45.8454 79.5911 48.2726 74.0331 48.2726C64.1538 48.2726 57.6707 41.1149 57.6707 31.2808C57.6707 21.5075 64.2159 14.3504 74.0952 14.3504Z" fill="white"></path><path d="M103.731 29.2272H125.898C125.529 23.1887 121.268 18.77 115.155 18.77C109.041 18.77 104.534 23.0014 103.731 29.2272ZM115.278 48.273C105.645 48.273 98.5447 40.9907 98.5447 31.2806C98.5447 21.5711 105.645 14.3508 115.216 14.3508C124.478 14.3508 130.838 21.6325 130.838 31.2806C130.838 31.9025 130.777 32.9608 130.715 33.4586H103.731C104.596 39.6212 109.103 43.7918 115.34 43.7918C119.601 43.7918 122.935 41.987 125.405 38.8741L128.307 41.8618C125.219 46.0324 120.712 48.273 115.278 48.273Z" fill="white"></path><path d="M152.14 15.3464V19.7656H142.879V47.2772H137.939V15.3464H152.14Z" fill="white"></path><path d="M165.539 28.1678L169.737 30.0978C173.812 31.9646 176.591 34.4544 176.591 39.1229C176.591 44.4764 172.392 48.2725 165.786 48.2725C159.425 48.2725 155.659 44.4131 154.671 39.9313L158.56 37.8159C159.178 40.9276 161.895 43.9153 166.094 43.9153C169.367 43.9153 171.651 42.2357 171.651 39.1229C171.651 36.8816 170.107 35.3881 166.835 33.8946L162.944 32.0892C158.87 30.223 156.029 27.8572 156.029 23.0642C156.029 18.0851 160.166 14.3503 165.909 14.3503C171.589 14.3503 175.109 17.524 176.591 21.5706L172.886 23.6246C171.897 20.7615 169.49 18.5829 166.032 18.5829C162.944 18.5829 160.846 20.4497 160.846 23.0015C160.846 25.3674 162.327 26.6737 165.539 28.1678Z" fill="white"></path><path d="M185.173 19.7029H181.529V15.3463H185.173V6.81909H190.113V15.3463H199.869V19.7029H190.113V42.8579H198.943V47.2771H185.173V19.7029Z" fill="white"></path><path d="M208.265 29.2272H230.433C230.062 23.1887 225.802 18.77 219.688 18.77C213.575 18.77 209.068 23.0014 208.265 29.2272ZM219.812 48.273C210.18 48.273 203.079 40.9907 203.079 31.2806C203.079 21.5711 210.18 14.3508 219.75 14.3508C229.013 14.3508 235.373 21.6325 235.373 31.2806C235.373 31.9025 235.31 32.9608 235.249 33.4586H208.265C209.129 39.6212 213.638 43.7918 219.874 43.7918C224.134 43.7918 227.469 41.987 229.939 38.8741L232.84 41.8618C229.753 46.0324 225.246 48.273 219.812 48.273Z" fill="white"></path><path d="M247.226 31.2806C247.226 38.5009 252.228 43.7918 259.143 43.7918C265.874 43.7918 270.937 38.5009 270.937 31.2806C270.937 24.0603 265.874 18.77 259.143 18.77C252.228 18.77 247.226 24.0603 247.226 31.2806ZM259.575 48.273C253.895 48.273 249.141 45.7832 247.412 42.049H247.226C247.349 42.8575 247.412 43.7918 247.412 45.4093V61.5938H242.472V15.3465H247.103V17.5239C247.103 19.0181 247.04 19.9517 246.917 20.886H247.103C249.202 17.2765 253.771 14.3508 259.823 14.3508C269.27 14.3508 276 21.5079 276 31.2806C276 41.1147 269.208 48.273 259.575 48.273Z" fill="white"></path></svg> 