<?xml version="1.0" encoding="UTF-8" standalone="no"?>
<svg width="180px" height="180px" viewBox="0 0 180 180" version="1.1" xmlns="http://www.w3.org/2000/svg" xmlns:xlink="http://www.w3.org/1999/xlink">
    <!-- Generator: Sketch 3.8.3 (29802) - http://www.bohemiancoding.com/sketch -->
    <title>australia</title>
    <desc>Created with Sketch.</desc>
    <defs></defs>
    <g id="Page-1" stroke="none" stroke-width="1" fill="none" fill-rule="evenodd">
        <g id="flags" transform="translate(-720.000000, -450.000000)">
            <g id="australia" transform="translate(720.000000, 450.000000)">
                <circle id="blue" fill="#227FBB" cx="90" cy="90" r="90"></circle>
                <path d="M127,29 L128.977964,35.3080401 L135.019377,32.9612453 L131.444444,38.4804478 L137,41.8620826 L130.564168,42.4363755 L131.450419,49 L127,44.196929 L122.549581,49 L123.435832,42.4363755 L117,41.8620826 L122.555556,38.4804478 L118.980623,32.9612453 L125.022036,35.3080401 L127,29 L127,29 L127,29 Z M153,71 L154.977964,77.3080401 L161.019377,74.9612453 L157.444444,80.4804478 L163,83.8620826 L156.564168,84.4363755 L157.450419,91 L153,86.196929 L148.549581,91 L149.435832,84.4363755 L143,83.8620826 L148.555556,80.4804478 L144.980623,74.9612453 L151.022036,77.3080401 L153,71 L153,71 L153,71 Z M106,60 L107.977964,66.3080401 L114.019377,63.9612453 L110.444444,69.4804478 L116,72.8620826 L109.564168,73.4363755 L110.450419,80 L106,75.196929 L101.549581,80 L102.435832,73.4363755 L96,72.8620826 L101.555556,69.4804478 L97.9806227,63.9612453 L104.022036,66.3080401 L106,60 L106,60 L106,60 Z M127,126 L128.977964,132.30804 L135.019377,129.961245 L131.444444,135.480448 L137,138.862083 L130.564168,139.436376 L131.450419,146 L127,141.196929 L122.549581,146 L123.435832,139.436376 L117,138.862083 L122.555556,135.480448 L118.980623,129.961245 L125.022036,132.30804 L127,126 L127,126 L127,126 Z M53,104 L57.1537242,117.246884 L69.8406924,112.318615 L62.3333332,123.90894 L74,131.010374 L60.4847521,132.216389 L62.3458794,146 L53,135.913551 L43.6541206,146 L45.5152479,132.216389 L32,131.010374 L43.6666668,123.90894 L36.1593076,112.318615 L48.8462758,117.246884 L53,104 L53,104 L53,104 Z M133.5,98 L134.7347,101.870933 L139,101.870933 L135.632503,104.236712 L136.86735,108 L133.5,105.634355 L130.13265,107.892355 L131.36735,104.236712 L128,101.870933 L132.153001,101.870933 L133.5,98 L133.5,98 L133.5,98 Z" id="Star7" fill="#FFFFFF"></path>
                <g id="UK-corner">
                    <path d="M58.6665316,5.60442783 L41.3956444,14.2398718 C16.4947453,30.2482972 0,58.1978704 0,90 L18,90 L18,64.0623044 L69.8753928,90 L90,90 L90,79.937694 L47.124612,58.5 L90,58.5 L90,31.5 L47.1246106,31.5 L90,10.062306 L90,0 C78.9808284,0 68.424181,1.98030051 58.6665316,5.60442783 L58.6665316,5.60442783 Z" id="white" fill="#FFFFFF"></path>
                    <path d="M17.9934072,35.9999997 L90,36 L90,54 L12,53.9999997 L12,89.9999997 L0,89.9999998 C4.3896494e-08,69.7390927 6.69500614,51.041889 17.9934072,35.9999997 L17.9934072,35.9999997 L17.9934072,35.9999997 Z M75.9120161,1.09619155 L24.8567236,27.9002201 C23.7407294,29.0705605 22.6559518,30.2709324 21.6037269,31.5 L30,31.5 L90,0 L89.9925529,0 C85.2024043,0.000387862029 80.4996778,0.374999182 75.9120161,1.09619155 L75.9120161,1.09619155 L75.9120161,1.09619155 Z M28,58.5 L40,58.5 L90,84 L90,90 L28,58.5 L28,58.5 Z" id="red" fill="#E94B35"></path>
                </g>
            </g>
        </g>
    </g>
</svg>