<?xml version="1.0" encoding="UTF-8"?> <svg xmlns="http://www.w3.org/2000/svg" width="100" height="60" viewBox="0 0 100 60" fill="none"><path fill-rule="evenodd" clip-rule="evenodd" d="M35.0672 23.9578C35.7328 23.9578 36.3071 24.0761 36.7902 24.3093C37.2754 24.5445 37.6764 24.8613 37.9974 25.2598C38.3143 25.6603 38.5502 26.1287 38.7025 26.6649C38.8538 27.2032 38.9297 27.7812 38.9297 28.4006C38.9297 29.3511 38.7548 30.2501 38.401 31.097C38.0477 31.945 37.5677 32.6807 36.9574 33.3083C36.3477 33.9353 35.6277 34.4292 34.7974 34.794C33.9682 35.1598 33.0672 35.3419 32.0995 35.3419C31.9743 35.3419 31.7543 35.3389 31.4436 35.3317C31.1328 35.3256 30.7754 35.294 30.3754 35.2399C29.9728 35.1843 29.5472 35.1016 29.0974 34.9909C28.6482 34.8822 28.2215 34.7297 27.8195 34.5363L31.4123 19.5169L34.6302 19.0205L33.3441 24.3501C33.6195 24.2266 33.8969 24.1307 34.1738 24.0613C34.4523 23.994 34.7492 23.9578 35.0672 23.9578ZM32.3682 32.8027C32.8528 32.8027 33.3092 32.6843 33.7384 32.4511C34.1687 32.2185 34.54 31.9037 34.8507 31.5113C35.1615 31.118 35.4082 30.6741 35.5877 30.1782C35.7671 29.6828 35.8579 29.1659 35.8579 28.6277C35.8579 27.9669 35.7471 27.4511 35.5256 27.0787C35.3041 26.7072 34.8948 26.521 34.3 26.521C34.1051 26.521 33.8538 26.5578 33.5425 26.6236C33.2302 26.6945 32.9507 26.8399 32.7 27.0588L31.3302 32.7195C31.4128 32.7333 31.4861 32.7475 31.5482 32.7603C31.6092 32.7741 31.6764 32.7843 31.7436 32.7914C31.8148 32.7996 31.8959 32.8032 31.9938 32.8032C32.0918 32.8032 32.2159 32.8027 32.3682 32.8027Z" fill="#4D4D4D"></path><path fill-rule="evenodd" clip-rule="evenodd" d="M42.2682 35.0538H39.1943L41.7902 24.1869H44.8851L42.2682 35.0538ZM43.7636 22.864C43.3343 22.864 42.9456 22.7364 42.6005 22.4824C42.2523 22.2293 42.08 21.8395 42.08 21.3145C42.08 21.0257 42.139 20.7543 42.2559 20.4992C42.3743 20.2441 42.5297 20.0237 42.7241 19.8375C42.9184 19.6523 43.1431 19.5043 43.3984 19.3926C43.6554 19.2829 43.9287 19.2283 44.22 19.2283C44.6487 19.2283 45.0359 19.3553 45.382 19.6099C45.7272 19.8655 45.901 20.2553 45.901 20.7773C45.901 21.067 45.8425 21.3395 45.7241 21.5946C45.6066 21.8497 45.4518 22.0691 45.2574 22.2563C45.0651 22.4415 44.8379 22.589 44.5831 22.6997C44.3261 22.8109 44.0543 22.864 43.7636 22.864Z" fill="#4D4D4D"></path><path fill-rule="evenodd" clip-rule="evenodd" d="M47.578 21.4808L50.7975 20.9844L50.0067 24.1869H53.4544L52.8318 26.7068H49.4046L48.4918 30.5084C48.4077 30.8252 48.36 31.1211 48.3467 31.3956C48.3318 31.6721 48.3667 31.9094 48.4498 32.1089C48.5323 32.3089 48.6811 32.4629 48.8964 32.5726C49.1108 32.6834 49.418 32.739 49.82 32.739C50.1513 32.739 50.4744 32.7078 50.7867 32.6451C51.097 32.5844 51.4118 32.4987 51.7303 32.3869L51.9595 34.7436C51.5441 34.8951 51.0944 35.0257 50.6098 35.1354C50.1246 35.2461 49.5498 35.2997 48.8857 35.2997C47.9308 35.2997 47.1903 35.1594 46.6631 34.8783C46.1364 34.5951 45.7641 34.2089 45.5411 33.7196C45.3211 33.2323 45.2231 32.6701 45.2508 32.0369C45.2795 31.4022 45.3754 30.7349 45.5411 30.0323L47.578 21.4808Z" fill="#4D4D4D"></path><path fill-rule="evenodd" clip-rule="evenodd" d="M53.319 30.7159C53.319 29.7797 53.4713 28.8975 53.7759 28.0705C54.0795 27.2434 54.5174 26.5205 55.0856 25.8996C55.6518 25.2817 56.341 24.7924 57.1523 24.4338C57.96 24.0761 58.8641 23.896 59.861 23.896C60.4846 23.896 61.042 23.9542 61.5323 24.072C62.0246 24.1904 62.4703 24.344 62.8728 24.5363L61.8128 26.9348C61.5359 26.823 61.2482 26.7246 60.9513 26.6348C60.6538 26.544 60.2908 26.5001 59.8615 26.5001C58.8359 26.5001 58.0246 26.8516 57.421 27.5526C56.82 28.2547 56.5169 29.1991 56.5169 30.3843C56.5169 31.0868 56.6692 31.6542 56.9749 32.0889C57.279 32.523 57.8405 32.7389 58.6564 32.7389C59.059 32.7389 59.4472 32.697 59.8195 32.6154C60.1944 32.5327 60.5251 32.4292 60.8169 32.3057L61.0461 34.7639C60.6574 34.9144 60.2287 35.0501 59.7585 35.1684C59.2872 35.2832 58.7261 35.3419 58.0754 35.3419C57.2169 35.3419 56.4897 35.2174 55.8954 34.971C55.3005 34.721 54.8087 34.3889 54.4215 33.9684C54.0323 33.547 53.7528 33.0547 53.58 32.4899C53.4067 31.9271 53.319 31.3343 53.319 30.7159H53.319Z" fill="#4D4D4D"></path><path fill-rule="evenodd" clip-rule="evenodd" d="M66.9722 35.3429C66.2384 35.3429 65.6015 35.2322 65.0609 35.0123C64.522 34.7918 64.0758 34.4832 63.7225 34.0827C63.3691 33.6842 63.104 33.2117 62.923 32.6679C62.7415 32.1245 62.6548 31.522 62.6548 30.8623C62.6548 30.0342 62.7886 29.2066 63.0584 28.3811C63.3271 27.5546 63.7256 26.8117 64.2538 26.151C64.7773 25.4893 65.423 24.9485 66.184 24.5265C66.9435 24.1082 67.8179 23.8975 68.7994 23.8975C69.5194 23.8975 70.1538 24.0087 70.7015 24.2286C71.2466 24.449 71.6958 24.7597 72.0512 25.1582C72.4025 25.5587 72.6697 26.0291 72.8491 26.574C73.0302 27.1163 73.1189 27.7204 73.1189 28.3806C73.1189 29.2061 72.9871 30.0337 72.7256 30.8617C72.4635 31.6852 72.0753 32.4301 71.5625 33.0918C71.0507 33.7526 70.4107 34.2929 69.642 34.7133C68.8732 35.1327 67.9825 35.3429 66.9722 35.3429ZM68.5081 26.501C68.0522 26.501 67.6497 26.6327 67.3045 26.8929C66.9584 27.1556 66.6676 27.4862 66.4332 27.8847C66.1963 28.2847 66.0204 28.7225 65.902 29.1964C65.7845 29.6725 65.7266 30.122 65.7266 30.5495C65.7266 31.2388 65.8384 31.7755 66.0579 32.1623C66.2809 32.5464 66.6809 32.7398 67.263 32.7398C67.7204 32.7398 68.1209 32.6092 68.4681 32.3464C68.8122 32.0857 69.103 31.7551 69.3394 31.3556C69.5748 30.9577 69.7522 30.5189 69.8707 30.0439C69.9871 29.5694 70.0461 29.1174 70.0461 28.6908C70.0461 28.0031 69.9348 27.4653 69.7132 27.0791C69.4917 26.6939 69.0897 26.501 68.5081 26.501Z" fill="#4D4D4D"></path><path fill-rule="evenodd" clip-rule="evenodd" d="M76.4676 35.0538H73.3917L75.9876 24.1869H79.084L76.4676 35.0538ZM77.961 22.864C77.5322 22.864 77.1435 22.7364 76.7989 22.4824C76.4522 22.2293 76.2784 21.8395 76.2784 21.3145C76.2784 21.0257 76.3379 20.7543 76.4553 20.4992C76.5727 20.2441 76.7286 20.0237 76.923 19.8375C77.1163 19.6523 77.343 19.5043 77.5979 19.3926C77.8533 19.2829 78.1266 19.2283 78.4174 19.2283C78.8471 19.2283 79.2353 19.3553 79.581 19.6099C79.9271 19.8655 80.1015 20.2553 80.1015 20.7773C80.1015 21.067 80.0394 21.3395 79.923 21.5946C79.8066 21.8497 79.6512 22.0691 79.4574 22.2563C79.2625 22.4415 79.0389 22.589 78.7835 22.6997C78.5261 22.8109 78.2533 22.864 77.961 22.864Z" fill="#4D4D4D"></path><path fill-rule="evenodd" clip-rule="evenodd" d="M81.2974 24.6821C81.5307 24.6143 81.7912 24.5326 82.0748 24.4439C82.3594 24.3551 82.6769 24.2724 83.0317 24.1979C83.383 24.1214 83.7789 24.0597 84.2148 24.0107C84.6507 23.9617 85.1466 23.9377 85.6989 23.9377C87.3194 23.9377 88.4374 24.4071 89.0543 25.3439C89.6702 26.2806 89.7774 27.5622 89.3769 29.1862L87.9635 35.0536H84.8697L86.24 29.3097C86.323 28.951 86.3892 28.6041 86.4374 28.2653C86.4866 27.9301 86.4835 27.6342 86.4266 27.3781C86.3728 27.125 86.2435 26.9184 86.0441 26.7576C85.841 26.599 85.5343 26.5204 85.1184 26.5204C84.7179 26.5204 84.3102 26.5633 83.8938 26.6459L81.8789 35.0536H78.7841L81.2974 24.6821Z" fill="#4D4D4D"></path><path fill-rule="evenodd" clip-rule="evenodd" d="M44.1605 41.53L43.5575 42.6198H42.9052C43.3646 41.7953 43.8128 41.0361 44.2498 40.3423C44.6867 39.6484 45.1185 38.9933 45.5452 38.377H46.1298C46.1913 38.6831 46.2477 38.9928 46.299 39.3045C46.3503 39.6167 46.4005 39.9443 46.4498 40.2872C46.499 40.63 46.5462 40.9938 46.5913 41.3775C46.6364 41.7611 46.6836 42.1749 46.7328 42.6203H46.1298C46.1093 42.4366 46.0908 42.252 46.0744 42.0662C46.058 41.8805 46.0395 41.702 46.019 41.5305H44.1605V41.53ZM45.9636 41.052C45.9308 40.7219 45.8928 40.3928 45.8498 40.0662C45.8067 39.7397 45.7564 39.403 45.699 39.056C45.5554 39.2642 45.3769 39.5331 45.1636 39.8611C44.9503 40.1902 44.7082 40.5866 44.4375 41.052H45.9636Z" fill="#4D4D4D"></path><path fill-rule="evenodd" clip-rule="evenodd" d="M48.9139 42.7112C48.6472 42.7112 48.4123 42.6724 48.2093 42.5949C48.0062 42.5173 47.8369 42.4071 47.7016 42.2643C47.5662 42.1219 47.4646 41.949 47.3969 41.7469C47.3293 41.5449 47.2954 41.3173 47.2954 41.0643C47.2954 40.6969 47.3539 40.3459 47.4708 40.0112C47.5877 39.677 47.7539 39.3811 47.9693 39.124C48.1846 38.8668 48.4441 38.6617 48.7477 38.5082C49.0513 38.3551 49.3893 38.2786 49.7631 38.2786C50.0831 38.2786 50.3385 38.3112 50.5293 38.3765C50.72 38.4418 50.8564 38.5031 50.9385 38.5602L50.6923 39.05C50.5975 38.9888 50.4698 38.9306 50.3077 38.8755C50.1457 38.8209 49.9539 38.7929 49.7323 38.7929C49.4493 38.7929 49.1949 38.8592 48.9693 38.9923C48.7436 39.125 48.5528 39.2964 48.3969 39.5066C48.2411 39.7168 48.1221 39.9536 48.04 40.2168C47.958 40.4801 47.9169 40.7403 47.9169 40.9974C47.9169 41.7934 48.2636 42.1913 48.9569 42.1913C49.1046 42.1913 49.2369 42.1806 49.3539 42.1602C49.4708 42.1403 49.5744 42.1163 49.6646 42.0898C49.7549 42.0633 49.8349 42.0342 49.9046 42.001C49.9744 41.9684 50.0359 41.9398 50.0893 41.9153L50.1631 42.4296C50.1139 42.4582 50.0493 42.4888 49.9693 42.5214C49.8893 42.5541 49.7959 42.5847 49.6893 42.6138C49.5826 42.6423 49.4636 42.6658 49.3323 42.6842C49.2011 42.7025 49.0616 42.7112 48.9139 42.7112Z" fill="#4D4D4D"></path><path fill-rule="evenodd" clip-rule="evenodd" d="M52.3713 42.7112C52.1046 42.7112 51.8697 42.6724 51.6667 42.5949C51.4636 42.5173 51.2943 42.4071 51.159 42.2643C51.0236 42.1219 50.922 41.949 50.8543 41.7469C50.7867 41.5449 50.7528 41.3173 50.7528 41.0643C50.7528 40.6969 50.8113 40.3459 50.9282 40.0112C51.0451 39.677 51.2113 39.3811 51.4267 39.124C51.642 38.8668 51.9015 38.6617 52.2051 38.5082C52.5087 38.3551 52.8467 38.2786 53.2205 38.2786C53.5405 38.2786 53.7959 38.3112 53.9867 38.3765C54.1774 38.4418 54.3138 38.5031 54.3959 38.5602L54.1497 39.05C54.0549 38.9888 53.9272 38.9306 53.7651 38.8755C53.6031 38.8209 53.4113 38.7929 53.1897 38.7929C52.9067 38.7929 52.6523 38.8592 52.4267 38.9923C52.201 39.125 52.0102 39.2964 51.8543 39.5066C51.6984 39.7168 51.5795 39.9536 51.4974 40.2168C51.4154 40.4801 51.3743 40.7403 51.3743 40.9974C51.3743 41.7934 51.721 42.1913 52.4143 42.1913C52.562 42.1913 52.6943 42.1806 52.8113 42.1602C52.9282 42.1403 53.0318 42.1163 53.122 42.0898C53.2123 42.0633 53.2923 42.0342 53.362 42.001C53.4318 41.9684 53.4933 41.9398 53.5467 41.9153L53.6205 42.4296C53.5713 42.4582 53.5067 42.4888 53.4267 42.5214C53.3467 42.5541 53.2533 42.5847 53.1467 42.6138C53.04 42.6423 52.921 42.6658 52.7897 42.6842C52.6584 42.7025 52.519 42.7112 52.3713 42.7112Z" fill="#4D4D4D"></path><path fill-rule="evenodd" clip-rule="evenodd" d="M54.0236 42.6193L55.0451 38.3765H57.562L57.4451 38.8724H55.5189L55.2113 40.152H56.922L56.8051 40.6356H55.1005L54.7374 42.1234H56.8051L56.6882 42.6193H54.0236H54.0236Z" fill="#4D4D4D"></path><path fill-rule="evenodd" clip-rule="evenodd" d="M59.3436 38.3337C59.84 38.3337 60.2144 38.4276 60.4667 38.6154C60.719 38.8031 60.8452 39.0766 60.8452 39.4358C60.8452 39.7133 60.7929 39.9536 60.6882 40.1552C60.5836 40.3572 60.4349 40.5235 60.2421 40.6547C60.0493 40.7853 59.8175 40.8817 59.5467 40.945C59.2759 41.0082 58.9744 41.0404 58.6421 41.0404H58.2175L57.8359 42.62H57.239L58.2482 38.4322C58.4206 38.3914 58.6031 38.3649 58.7959 38.3526C58.9888 38.3399 59.1713 38.3337 59.3436 38.3337ZM59.2698 38.8358C58.9785 38.8358 58.8021 38.8439 58.7406 38.8603L58.3344 40.5439H58.7221C58.8944 40.5439 59.0708 40.5291 59.2513 40.498C59.4318 40.4674 59.5939 40.4133 59.7375 40.3363C59.8811 40.2587 59.999 40.1516 60.0913 40.0144C60.1836 39.8776 60.2298 39.7016 60.2298 39.4853C60.2298 39.2526 60.1436 39.0863 59.9713 38.9858C59.799 38.8858 59.5652 38.8358 59.2698 38.8358Z" fill="#4D4D4D"></path><path fill-rule="evenodd" clip-rule="evenodd" d="M64.4856 38.3765L64.3687 38.8724H63.0825L62.1779 42.6193H61.581L62.4856 38.8724H61.1995L61.3164 38.3765H64.4856Z" fill="#4D4D4D"></path><path fill-rule="evenodd" clip-rule="evenodd" d="M63.9318 42.6193L64.9533 38.3765H67.4702L67.3533 38.8724H65.4271L65.1195 40.152H66.8302L66.7133 40.6356H65.0087L64.6456 42.1234H66.7133L66.5964 42.6193H63.9318H63.9318Z" fill="#4D4D4D"></path><path fill-rule="evenodd" clip-rule="evenodd" d="M69.2426 38.3337C69.8744 38.3337 70.3462 38.4817 70.658 38.7776C70.9698 39.0735 71.1257 39.4725 71.1257 39.9746C71.1257 40.3256 71.0703 40.6633 70.9596 40.9873C70.8488 41.3123 70.6765 41.5985 70.4426 41.848C70.2088 42.0965 69.9103 42.295 69.5473 42.4419C69.1842 42.5888 68.7503 42.6623 68.2457 42.6623C68.0734 42.6623 67.8868 42.6541 67.6857 42.6378C67.4847 42.6215 67.3083 42.5929 67.1565 42.5521L68.1473 38.4317C68.3196 38.3909 68.5021 38.3644 68.695 38.3521C68.8878 38.3399 69.0703 38.3337 69.2426 38.3337ZM69.1934 38.8358C68.8857 38.8358 68.7011 38.8439 68.6396 38.8603L67.8519 42.1297C67.8847 42.1378 67.9401 42.145 68.018 42.1511C68.096 42.1572 68.2232 42.1603 68.3996 42.1603C68.7237 42.1603 69.016 42.1067 69.2765 41.9985C69.537 41.8904 69.7575 41.7394 69.938 41.545C70.1185 41.3511 70.258 41.121 70.3565 40.8536C70.455 40.5863 70.5042 40.2934 70.5042 39.9751C70.5042 39.6159 70.3996 39.3363 70.1903 39.1358C69.9811 38.9363 69.6488 38.8358 69.1934 38.8358Z" fill="#4D4D4D"></path><path fill-rule="evenodd" clip-rule="evenodd" d="M75.7226 42.6193H75.1257L75.5995 40.6479H73.6241L73.1503 42.6193H72.5533L73.5749 38.3765H74.1718L73.741 40.152H75.7169L76.1477 38.3765H76.7446L75.7226 42.6193Z" fill="#4D4D4D"></path><path fill-rule="evenodd" clip-rule="evenodd" d="M76.6642 42.6193L77.6857 38.3765H80.2026L80.0852 38.8724H78.1591L77.8514 40.152H79.5621L79.4447 40.6356H77.7401L77.3775 42.1234H79.4447L79.3273 42.6193H76.6642H76.6642Z" fill="#4D4D4D"></path><path fill-rule="evenodd" clip-rule="evenodd" d="M81.9841 38.3337C82.4395 38.3337 82.8005 38.4256 83.0672 38.6093C83.3339 38.7929 83.4667 39.0623 83.4667 39.4169C83.4667 39.7761 83.3616 40.0776 83.1503 40.3205C82.939 40.5633 82.6426 40.7378 82.2611 40.8434C82.3103 40.9297 82.3677 41.0388 82.4334 41.1715C82.499 41.3041 82.5667 41.4511 82.6364 41.6123C82.7057 41.773 82.7739 41.9409 82.8395 42.1138C82.9052 42.2878 82.9621 42.4557 83.0118 42.6189H82.4026C82.3457 42.4638 82.2857 42.3067 82.2241 42.1475C82.1631 41.9883 82.1 41.8353 82.037 41.6883C81.9728 41.5414 81.9098 41.4036 81.8457 41.2751C81.7826 41.1465 81.7236 41.0327 81.6703 40.9353C81.617 40.9394 81.5636 40.9424 81.5103 40.9445C81.457 40.9465 81.4041 40.9475 81.3503 40.9475H80.8764L80.4764 42.6189H79.8795L80.8893 38.4312C81.0616 38.3904 81.2436 38.3638 81.437 38.3516C81.6293 38.3399 81.8118 38.3337 81.9841 38.3337ZM81.9103 38.8358C81.619 38.8358 81.4426 38.8439 81.3805 38.8603L80.9928 40.4649H81.3564C81.5246 40.4649 81.697 40.4526 81.8734 40.4281C82.0498 40.4036 82.2108 40.3557 82.3559 40.2843C82.5016 40.2128 82.6205 40.1128 82.7129 39.9843C82.8052 39.8557 82.8518 39.6853 82.8518 39.473C82.8518 39.2445 82.7646 39.0812 82.5903 38.9832C82.4159 38.8848 82.1887 38.8358 81.9103 38.8358Z" fill="#4D4D4D"></path><path fill-rule="evenodd" clip-rule="evenodd" d="M83.5123 42.6193L84.5339 38.3765H87.0508L86.9334 38.8724H85.0072L84.6995 40.152H86.4103L86.2928 40.6356H84.5882L84.2257 42.1234H86.2928L86.1754 42.6193H83.5123H83.5123Z" fill="#4D4D4D"></path><path fill-rule="evenodd" clip-rule="evenodd" d="M19.2277 35.3419C23.7576 35.3419 27.4297 31.6884 27.4297 27.1817C27.4297 22.6749 23.7576 19.0215 19.2277 19.0215C14.6978 19.0215 11.0256 22.6749 11.0256 27.1817C11.0256 31.6884 14.6978 35.3419 19.2277 35.3419ZM22.8441 26.0184C23.0072 24.9322 22.1759 24.3485 21.0395 23.9587L21.4082 22.4868L20.5082 22.2633L20.1492 23.6965C19.9128 23.6378 19.6697 23.5822 19.4277 23.5276L19.7892 22.0853L18.8897 21.8618L18.5205 23.3332C18.3246 23.2888 18.1323 23.245 17.9456 23.1985L17.9467 23.1939L16.7051 22.8858L16.4656 23.8424C16.4656 23.8424 17.1333 23.9944 17.1195 24.0041C17.4841 24.095 17.5503 24.3347 17.539 24.5251L17.119 26.2011C17.1441 26.2072 17.1764 26.2159 17.2128 26.2312C17.1826 26.223 17.1508 26.2154 17.1174 26.2072L16.5287 28.5562C16.4841 28.6659 16.3708 28.8312 16.1159 28.7684C16.1251 28.7812 15.4615 28.6062 15.4615 28.6062L15.0144 29.6317L16.1856 29.922C16.4036 29.9761 16.6174 30.0332 16.8272 30.0868L16.4549 31.5751L17.3538 31.7985L17.7231 30.3261C17.9687 30.3919 18.2072 30.4536 18.4405 30.5113L18.0728 31.9766L18.9728 32.2001L19.3456 30.7149C20.881 31.0036 22.0354 30.8873 22.521 29.5057C22.9128 28.3929 22.5015 27.7516 21.6938 27.3332C22.2826 27.1985 22.7256 26.8138 22.8441 26.0184ZM20.7872 28.8883C20.5087 30.0006 18.6267 29.399 18.0164 29.248L18.5108 27.2766C19.121 27.4281 21.0779 27.7281 20.7872 28.8883ZM21.0656 26.0026C20.8118 27.0138 19.2451 26.5001 18.7369 26.3745L19.1851 24.5858C19.6933 24.7123 21.3297 24.9475 21.0656 26.0026Z" fill="#F7931A"></path></svg> 