<svg id="Layer_1" data-name="Layer 1" xmlns="http://www.w3.org/2000/svg" viewBox="0 0 530 648"><defs><style>.cls-1{fill:#f2a672;}.cls-2{fill:#487e99;}.cls-3{fill:#ffb27d;}.cls-4{fill:#65a1c6;}.cls-5{fill:#558aa5;}.cls-6{fill:#ec955b;}.cls-7{fill:#d33;}.cls-8{fill:#ffb17b;}.cls-9{fill:#222;}</style></defs><path class="cls-1" d="M305.6,464.66s28.59,16.26,36.59,16.25,39.42-6.07,48.17-1.59,24.61,22.47,27.58,28.35c5.35,10.58-21.53,5.91-34.23-3.1a8,8,0,0,0-6.34-1.31c-6.58,1.43-20.25,3.92-26.85,1.48-8.88-3.29-55.63-6.94-55.63-6.94Z"/><path class="cls-2" d="M88.11,243.27s29.63,210.62,78.7,229.49C191,482.07,298,503.16,329.68,505.29c0,0,7.76-6.3,5.87-31.9,0,0-112.11-41.16-128-63.54-23.7-33.31,14.72-136.09-15-167.38S112.65,197.74,88.11,243.27Z"/><path class="cls-3" d="M204,230c-39.61,10.24-105.28-26.46-105.28-26.46s25.5-17.14,34.95-54.78c.48-1.9.91-3.84,1.3-5.84l20.34-4.31,30.26,27.1s-.69,11.26-4.48,30.6q-1,5.07-2.28,10.86A93.35,93.35,0,0,1,204,230Z"/><path class="cls-4" d="M56.74,394.19C62.42,470.5,55,586.56,61.39,606.66c5.55,17.35,68.85,7,94.11,1.25,9.35-2.15,20.68-5.21,32.38-8.83,32.63-10.1,68.18-24.53,72-35.24a8.9,8.9,0,0,0,.36-1.23,9.85,9.85,0,0,0-.07-4.49c-1.27-5.46-6.17-11.36-6.75-24.88-.65-15.09-.55-32.87-1.12-52,0-2.15-.06-4.5-.29-6.64v-.78l0-1.22c-.55-21.32-1.66-43.73-3-65.95-.82-13.95-1.77-27.78-2.87-41-2.85-34.18-6.68-64.58-11.76-83.8-8.29-31.33-26.58-51.76-43.23-66.74l-12-10.33c-13.44,2.94-29.32,1-43.69-5.82-15.55-7.38-20.92-12.67-23.63-10.68C75.87,216,50,300.9,56.74,394.19Z"/><path class="cls-5" d="M187.88,599.08c32.63-10.1,68.18-24.53,72-35.24a8.9,8.9,0,0,0,.36-1.23c0-1.5,0-3-.07-4.49-1.27-5.46-6.17-11.36-6.75-24.88-.65-15.09-.55-32.87-1.12-52,0-2.15-.06-4.5-.29-6.64v-.78l0-1.22L120.05,304.56S31.38,489.2,187.88,599.08Z"/><path class="cls-6" d="M185.53,165.71s-.69,11.26-4.48,30.6c-29.55-9.55-42.94-36.23-47.42-47.55.48-1.9.91-3.84,1.3-5.84l20.34-4.31Z"/><path class="cls-3" d="M189.5,182.77S125.07,172,132.38,132s3.93-68.37,45.37-63.19,46.63,21.9,47.44,35.85S206.45,184.54,189.5,182.77Z"/><polygon class="cls-7" points="284.89 513.73 445.73 517.16 491.46 376.43 497.14 378.27 448.8 527.05 284.68 523.55 284.89 513.73"/><path class="cls-8" d="M288,531.38s52.74,13.91,72.51,12.45S396.7,533,399.19,528.05s7.71-13.61-5.75-12-31.84,4.47-32.42,1.89,11-2.34,11-2.34,3.49-5.08-.91-5.26-17.21-3.66-22-1.29-9.15,11.18-12.63,10.81-44.13-18.31-44.13-18.31Z"/><path class="cls-4" d="M101.19,251.92s6.23,212.6,52.92,236.76c23,11.92,127.07,44.69,158.29,50.28,0,0,8.4-5.39,9.35-31.05,0,0-106.89-53.27-120.25-77.27-19.89-35.72,29.63-133.64,3.51-168S130.6,209.36,101.19,251.92Z"/><path class="cls-9" d="M133.63,148.76s-.74-13.73,7.74-21.6c0,0-3-13.77,2.49-16s6.58,9.31,9.08,7.49,13.61-10.44,18.38-23.15,48.38,2.69,53.47,5,21.42-6.11,24.6-12.92c0,0-9.08-7.26-13.17-12.71S203.54,32.6,163.6,43s-45.38,29.5-43.11,45.84S117.27,143.27,133.63,148.76Z"/></svg>