<?xml version="1.0" encoding="UTF-8"?> <svg xmlns="http://www.w3.org/2000/svg" width="100" height="60" viewBox="0 0 100 60" fill="none"><path fill-rule="evenodd" clip-rule="evenodd" d="M18.2886 33.8221C17.5379 34.464 16.5822 34.7447 15.054 34.7447H14.4199V27.0847H15.054C16.5822 27.0847 17.5012 27.3465 18.2886 28.0203C19.1014 28.7166 19.5898 29.7908 19.5898 30.9019C19.5898 32.0183 19.1014 33.1307 18.2886 33.8221ZM15.5274 25.1226H12.0577V36.7077H15.5062C17.3414 36.7077 18.6661 36.2898 19.8272 35.3677C21.2064 34.2755 22.0248 32.6265 22.0248 30.9181C22.0248 27.4981 19.3547 25.1226 15.5274 25.1226Z" fill="#1A1919"></path><path fill-rule="evenodd" clip-rule="evenodd" d="M23.1139 25.1226H25.4666V36.7077H23.1139V25.1226Z" fill="#1A1919"></path><path fill-rule="evenodd" clip-rule="evenodd" d="M31.2443 29.5626C29.8242 29.0642 29.4092 28.7322 29.4092 28.1061C29.4092 27.3783 30.1509 26.8263 31.171 26.8263C31.878 26.8263 32.4604 27.0971 33.0809 27.7588L34.3092 26.2168C33.2943 25.3622 32.0797 24.9294 30.7555 24.9294C28.6128 24.9294 26.9798 26.3558 26.9798 28.2419C26.9798 29.8433 27.739 30.6557 29.9544 31.4271C30.8805 31.7352 31.351 31.9458 31.5894 32.0883C32.0613 32.3803 32.2964 32.7986 32.2964 33.2822C32.2964 34.2245 31.516 34.9173 30.4612 34.9173C29.3382 34.9173 28.4295 34.3793 27.8856 33.369L26.3635 34.7796C27.4518 36.3054 28.7562 36.9873 30.5533 36.9873C33.0043 36.9873 34.7314 35.417 34.7314 33.1805C34.7314 31.3376 33.9304 30.5023 31.2443 29.5626Z" fill="#1A1919"></path><path fill-rule="evenodd" clip-rule="evenodd" d="M35.4731 30.9179C35.4731 34.3248 38.2678 36.9648 41.8653 36.9648C42.8797 36.9648 43.7493 36.7732 44.8202 36.2896V33.6272C43.8739 34.5371 43.0433 34.8961 41.9687 34.8961C39.5915 34.8961 37.9077 33.2502 37.9077 30.9017C37.9077 28.6827 39.646 26.9248 41.8653 26.9248C42.985 26.9248 43.8405 27.3045 44.8202 28.228V25.5686C43.7855 25.068 42.9366 24.8606 41.9137 24.8606C38.3369 24.8606 35.4731 27.5523 35.4731 30.9179Z" fill="#1A1919"></path><path fill-rule="evenodd" clip-rule="evenodd" d="M63.9486 32.9004L60.7201 25.1226H58.146L63.2783 37.0001H64.5442L69.7762 25.1226H67.2222L63.9486 32.9004Z" fill="#1A1919"></path><path fill-rule="evenodd" clip-rule="evenodd" d="M70.8474 36.7077H77.5427V34.7447H73.2096V31.6175H77.3782V29.655H73.2096V27.0847H77.5427V25.1226H70.8474V36.7077Z" fill="#1A1919"></path><path fill-rule="evenodd" clip-rule="evenodd" d="M82.1542 30.4498H81.4689V26.9457H82.1928C83.6679 26.9457 84.4581 27.5381 84.4581 28.6667C84.4581 29.8263 83.6679 30.4498 82.1542 30.4498ZM86.8893 28.5407C86.8893 26.3713 85.3343 25.1226 82.6083 25.1226H79.1016V36.7077H81.4689V32.0498H81.7758L85.0377 36.7077H87.9423L84.1333 31.8249C85.9135 31.4767 86.8893 30.3135 86.8893 28.5407Z" fill="#1A1919"></path><path fill-rule="evenodd" clip-rule="evenodd" d="M58.4787 30.945C58.4787 34.2804 55.6545 36.9839 52.1675 36.9839C48.6814 36.9839 45.8567 34.2804 45.8567 30.945C45.8567 27.6091 48.6814 24.9053 52.1675 24.9053C55.6545 24.9053 58.4787 27.6091 58.4787 30.945Z" fill="#E6772F"></path></svg> 