<?xml version="1.0" encoding="UTF-8"?> <svg xmlns="http://www.w3.org/2000/svg" width="100" height="60" viewBox="0 0 100 60" fill="none"><path d="M36.1461 31.1746C36.1461 31.3051 36.0368 31.4114 35.9063 31.4114H31.2859C31.4013 32.5528 32.2604 33.594 33.4686 33.594C34.2943 33.594 34.9075 33.2783 35.369 32.6196C35.4357 32.5285 35.5359 32.4708 35.6634 32.5255C35.7332 32.5558 35.7818 32.6196 35.794 32.6924C35.8061 32.7683 35.7849 32.8108 35.7636 32.8533C35.2991 33.6639 34.3732 34.0615 33.4656 34.0615C31.9113 34.0615 30.8032 32.6712 30.8032 31.1837C30.8032 29.6962 31.9113 28.3058 33.4656 28.3058C35.0199 28.3028 36.1431 29.6901 36.1461 31.1746ZM35.6513 30.9499C35.5511 29.8085 34.6768 28.7672 33.4686 28.7672C32.2604 28.7672 31.4013 29.8085 31.2859 30.9499H35.6513ZM41.7531 28.4181C41.8867 28.4181 41.9838 28.5335 41.9838 28.6488C41.9838 28.7824 41.8836 28.8796 41.7531 28.8796H40.5145V33.7397C40.5145 33.8551 40.4143 33.9705 40.2838 33.9705C40.1502 33.9705 40.0531 33.8551 40.0531 33.7397V28.8796H38.8631C38.7295 28.8796 38.6324 28.7794 38.6324 28.6488C38.6324 28.5335 38.7325 28.4181 38.8631 28.4181H40.0531V26.6392C40.0531 26.5269 40.129 26.4237 40.2383 26.4055C40.3931 26.3812 40.5145 26.4874 40.5145 26.6331V28.4181H41.7531ZM49.309 30.7678V33.7124C49.309 33.846 49.1937 33.9431 49.0783 33.9431C48.9447 33.9431 48.8476 33.843 48.8476 33.7124V30.7678C48.8476 29.7751 48.286 28.7824 47.1779 28.7824C45.7572 28.7824 45.144 30.024 45.226 31.296C45.226 31.3294 45.2411 31.4781 45.2411 31.4933V33.7033C45.2411 33.8156 45.1653 33.9189 45.056 33.9371C44.9011 33.9614 44.7797 33.8551 44.7797 33.7094V24.0376C44.7797 23.9222 44.8799 23.8069 45.0104 23.8069C45.144 23.8069 45.2411 23.9222 45.2411 24.0376V29.511C45.6388 28.8006 46.3492 28.321 47.1749 28.321C48.5319 28.321 49.309 29.511 49.309 30.7678ZM57.5935 31.1746C57.5935 31.3051 57.4842 31.4114 57.3537 31.4114H52.7303C52.8456 32.5528 53.7048 33.594 54.913 33.594C55.7387 33.594 56.3519 33.2783 56.8133 32.6196C56.8801 32.5285 56.9803 32.4708 57.1078 32.5255C57.1776 32.5558 57.2262 32.6196 57.2383 32.6924C57.2505 32.7683 57.2292 32.8108 57.208 32.8533C56.7435 33.6639 55.8176 34.0615 54.9099 34.0615C53.3557 34.0615 52.2476 32.6712 52.2476 31.1837C52.2476 29.6962 53.3557 28.3058 54.9099 28.3058C56.4673 28.3028 57.5905 29.6901 57.5935 31.1746ZM57.0957 30.9499C56.9955 29.8085 56.1212 28.7672 54.913 28.7672C53.7048 28.7672 52.8456 29.8085 52.7303 30.9499H57.0957ZM63.2643 28.6337C63.2643 28.7824 63.1823 28.8644 63.0487 28.8826C61.6918 29.0799 61.0816 30.188 61.0816 31.4781V33.6881C61.0816 33.8005 61.0057 33.9037 60.8964 33.9219C60.7416 33.9462 60.6202 33.8399 60.6202 33.6942V28.658C60.6202 28.5456 60.696 28.4424 60.8053 28.4242C60.9602 28.3999 61.0816 28.5062 61.0816 28.6519V29.678C61.461 29.0344 62.223 28.4212 63.0153 28.4212C63.1307 28.4181 63.2643 28.5031 63.2643 28.6337ZM70.8536 31.1746C70.8536 31.3051 70.7443 31.4114 70.6138 31.4114H65.9934C66.1087 32.5528 66.9679 33.594 68.1761 33.594C69.0018 33.594 69.615 33.2783 70.0764 32.6196C70.1432 32.5285 70.2434 32.4708 70.3709 32.5255C70.4407 32.5558 70.4893 32.6196 70.5014 32.6924C70.5136 32.7683 70.4923 32.8108 70.4711 32.8533C70.0066 33.6639 69.0807 34.0615 68.173 34.0615C66.6188 34.0615 65.5107 32.6712 65.5107 31.1837C65.5107 29.6962 66.6188 28.3058 68.173 28.3058C69.7273 28.3028 70.8506 29.6901 70.8536 31.1746ZM70.3588 30.9499C70.2586 29.8085 69.3843 28.7672 68.1761 28.7672C66.9679 28.7672 66.1087 29.8085 65.9934 30.9499H70.3588ZM78.3124 28.6914V33.7397C78.3124 33.8733 78.197 33.9705 78.0817 33.9705C77.9481 33.9705 77.8509 33.8703 77.8509 33.7397V32.7805C77.4715 33.5424 76.7915 34.0858 75.9324 34.0858C74.5602 34.0858 73.7983 32.8958 73.7983 31.639V28.6792C73.7983 28.5638 73.8984 28.4485 74.029 28.4485C74.1625 28.4485 74.2597 28.5638 74.2597 28.6792V31.639C74.2597 32.6317 74.8213 33.6244 75.9293 33.6244C77.4836 33.6244 77.8479 32.1703 77.8479 30.5644V28.6792C77.8479 28.5456 77.9815 28.409 78.1454 28.4576C78.2456 28.491 78.3124 28.5881 78.3124 28.6914ZM89.9999 30.7496V33.7094C89.9999 33.843 89.8846 33.9401 89.7692 33.9401C89.6357 33.9401 89.5385 33.8399 89.5385 33.7094V30.7496C89.5385 29.7569 88.9769 28.7824 87.8689 28.7824C86.4785 28.7824 85.9503 30.2699 85.9503 31.4265V33.7094C85.9503 33.843 85.8349 33.9401 85.7196 33.9401C85.586 33.9401 85.4888 33.8399 85.4888 33.7094V30.7496C85.4888 29.7569 84.9272 28.7824 83.8192 28.7824C82.4137 28.7824 81.8338 29.8905 81.8854 31.3628C81.8854 31.3962 81.9006 31.463 81.8854 31.4781V33.7033C81.8854 33.8156 81.8095 33.9189 81.6972 33.9371C81.5424 33.9614 81.421 33.8551 81.421 33.7094V28.658C81.421 28.5456 81.4969 28.4424 81.6061 28.4242C81.761 28.3999 81.8824 28.5062 81.8824 28.6519V29.4958C82.2801 28.7855 82.9904 28.321 83.8162 28.321C84.7572 28.321 85.4858 28.916 85.7833 29.7933C86.1628 28.9342 86.9065 28.321 87.8658 28.321C89.2228 28.321 89.9999 29.4928 89.9999 30.7496Z" fill="black"></path><path d="M89.9999 30.7496V33.7094C89.9999 33.843 89.8846 33.9401 89.7692 33.9401C89.6357 33.9401 89.5385 33.8399 89.5385 33.7094V30.7496C89.5385 29.7569 88.9769 28.7824 87.8689 28.7824C86.4785 28.7824 85.9503 30.2699 85.9503 31.4265V33.7094C85.9503 33.843 85.8349 33.9401 85.7196 33.9401C85.586 33.9401 85.4888 33.8399 85.4888 33.7094V30.7496C85.4888 29.7569 84.9272 28.7824 83.8192 28.7824C82.4137 28.7824 81.8338 29.8905 81.8854 31.3628C81.8854 31.3962 81.9006 31.463 81.8854 31.4781V33.7033C81.8854 33.8156 81.8095 33.9189 81.6972 33.9371C81.5424 33.9614 81.421 33.8551 81.421 33.7094V28.658C81.421 28.5456 81.4969 28.4424 81.6061 28.4242C81.761 28.3999 81.8824 28.5062 81.8824 28.6519V29.4958C82.2801 28.7855 82.9904 28.321 83.8162 28.321C84.7572 28.321 85.4858 28.916 85.7833 29.7933C86.1628 28.9342 86.9065 28.321 87.8658 28.321C89.2228 28.321 89.9999 29.4928 89.9999 30.7496M36.1461 31.1746C36.1461 31.3051 36.0368 31.4114 35.9063 31.4114H31.2859C31.4013 32.5528 32.2604 33.594 33.4686 33.594C34.2943 33.594 34.9075 33.2783 35.369 32.6196C35.4357 32.5285 35.5359 32.4708 35.6634 32.5255C35.7332 32.5558 35.7818 32.6196 35.794 32.6924C35.8061 32.7683 35.7849 32.8108 35.7636 32.8533C35.2991 33.6639 34.3732 34.0615 33.4656 34.0615C31.9113 34.0615 30.8032 32.6712 30.8032 31.1837C30.8032 29.6962 31.9113 28.3058 33.4656 28.3058C35.0199 28.3028 36.1431 29.6901 36.1461 31.1746V31.1746ZM35.6513 30.9499C35.5511 29.8085 34.6768 28.7672 33.4686 28.7672C32.2604 28.7672 31.4013 29.8085 31.2859 30.9499H35.6513ZM41.7531 28.4181C41.8867 28.4181 41.9838 28.5335 41.9838 28.6488C41.9838 28.7824 41.8836 28.8796 41.7531 28.8796H40.5145V33.7397C40.5145 33.8551 40.4143 33.9705 40.2838 33.9705C40.1502 33.9705 40.0531 33.8551 40.0531 33.7397V28.8796H38.8631C38.7295 28.8796 38.6324 28.7794 38.6324 28.6488C38.6324 28.5335 38.7325 28.4181 38.8631 28.4181H40.0531V26.6392C40.0531 26.5269 40.129 26.4237 40.2383 26.4055C40.3931 26.3812 40.5145 26.4874 40.5145 26.6331V28.4181H41.7531ZM49.309 30.7678V33.7124C49.309 33.846 49.1937 33.9431 49.0783 33.9431C48.9447 33.9431 48.8476 33.843 48.8476 33.7124V30.7678C48.8476 29.7751 48.286 28.7824 47.1779 28.7824C45.7572 28.7824 45.144 30.024 45.226 31.296C45.226 31.3294 45.2411 31.4781 45.2411 31.4933V33.7033C45.2411 33.8156 45.1653 33.9189 45.056 33.9371C44.9011 33.9614 44.7797 33.8551 44.7797 33.7094V24.0376C44.7797 23.9222 44.8799 23.8069 45.0104 23.8069C45.144 23.8069 45.2411 23.9222 45.2411 24.0376V29.511C45.6388 28.8006 46.3492 28.321 47.1749 28.321C48.5319 28.321 49.309 29.511 49.309 30.7678V30.7678ZM57.5935 31.1746C57.5935 31.3051 57.4842 31.4114 57.3537 31.4114H52.7303C52.8457 32.5528 53.7048 33.594 54.913 33.594C55.7387 33.594 56.3519 33.2783 56.8133 32.6196C56.8801 32.5285 56.9803 32.4708 57.1078 32.5255C57.1776 32.5558 57.2262 32.6196 57.2384 32.6924C57.2505 32.7683 57.2292 32.8108 57.208 32.8533C56.7435 33.6639 55.8176 34.0615 54.9099 34.0615C53.3557 34.0615 52.2476 32.6712 52.2476 31.1837C52.2476 29.6962 53.3557 28.3058 54.9099 28.3058C56.4673 28.3028 57.5905 29.6901 57.5935 31.1746V31.1746ZM57.0957 30.9499C56.9955 29.8085 56.1212 28.7672 54.913 28.7672C53.7048 28.7672 52.8457 29.8085 52.7303 30.9499H57.0957ZM63.2643 28.6337C63.2643 28.7824 63.1823 28.8644 63.0487 28.8826C61.6918 29.0799 61.0816 30.188 61.0816 31.4781V33.6881C61.0816 33.8005 61.0057 33.9037 60.8964 33.9219C60.7416 33.9462 60.6202 33.8399 60.6202 33.6942V28.658C60.6202 28.5456 60.696 28.4424 60.8053 28.4242C60.9602 28.3999 61.0816 28.5062 61.0816 28.6519V29.678C61.461 29.0344 62.223 28.4212 63.0153 28.4212C63.1307 28.4181 63.2643 28.5031 63.2643 28.6337V28.6337ZM70.8536 31.1746C70.8536 31.3051 70.7443 31.4114 70.6138 31.4114H65.9934C66.1087 32.5528 66.9679 33.594 68.1761 33.594C69.0018 33.594 69.615 33.2783 70.0764 32.6196C70.1432 32.5285 70.2434 32.4708 70.3709 32.5255C70.4407 32.5558 70.4893 32.6196 70.5014 32.6924C70.5136 32.7683 70.4923 32.8108 70.4711 32.8533C70.0066 33.6639 69.0807 34.0615 68.173 34.0615C66.6188 34.0615 65.5107 32.6712 65.5107 31.1837C65.5107 29.6962 66.6188 28.3058 68.173 28.3058C69.7273 28.3028 70.8506 29.6901 70.8536 31.1746V31.1746ZM70.3588 30.9499C70.2586 29.8085 69.3843 28.7672 68.1761 28.7672C66.9679 28.7672 66.1087 29.8085 65.9934 30.9499H70.3588V30.9499ZM78.3124 28.6914V33.7397C78.3124 33.8733 78.197 33.9705 78.0817 33.9705C77.9481 33.9705 77.8509 33.8703 77.8509 33.7397V32.7805C77.4715 33.5424 76.7915 34.0858 75.9324 34.0858C74.5602 34.0858 73.7983 32.8958 73.7983 31.639V28.6792C73.7983 28.5638 73.8984 28.4485 74.029 28.4485C74.1625 28.4485 74.2597 28.5638 74.2597 28.6792V31.639C74.2597 32.6317 74.8213 33.6244 75.9293 33.6244C77.4836 33.6244 77.8479 32.1703 77.8479 30.5644V28.6792C77.8479 28.5456 77.9815 28.409 78.1454 28.4576C78.2456 28.491 78.3124 28.5881 78.3124 28.6914V28.6914Z" stroke="black" stroke-width="0.3"></path><g opacity="0.6"><path opacity="0.6" d="M17.7229 30.3015L10 33.8138L17.7229 38.3765L25.4427 33.8138L17.7229 30.3015Z" fill="#010101"></path></g><g opacity="0.45"><path opacity="0.45" d="M10 33.8138L17.7229 38.3765V21L10 33.8138Z" fill="#010101"></path></g><g opacity="0.8"><path opacity="0.8" d="M17.7229 21V38.3765L25.4427 33.8138L17.7229 21Z" fill="#010101"></path></g></svg> 