<svg id="Layer_1" data-name="Layer 1" xmlns="http://www.w3.org/2000/svg" viewBox="0 0 982 1182"><defs><style>.cls-1{fill:#003851;}.cls-2{fill:#ffae73;}.cls-3{fill:#1e3865;}.cls-4{fill:#005d90;}.cls-5{fill:#222;}.cls-6{fill:#f9924f;}.cls-7{fill:#cbedff;}.cls-8{fill:#b4d9e9;}.cls-9{fill:#ef0f26;}.cls-10{fill:#c60011;}.cls-11{fill:#fff;}</style></defs><path class="cls-1" d="M648.94,746.77H524c-8.66-6.07-25-19.36-40.47-42-3-4.34-5.93-9-8.78-14.09C458.67,662.29,607,727.83,648.94,746.77Z"/><path class="cls-2" d="M571.88,1024.85c3.35,3.89,3.75,8.22,2,12.83,0,0,0,0,0,.06-3.15,8.52-13.42,18-25.35,27.43-1.53,1.21-2.88,2.31-4.06,3.33l-.92.81c-.24.21-.47.43-.7.62-11.13,10.12-7,12.49-27,33-22.82,23.42-38.42,23.73-42.84,21.55-3.75-1.85,4-14.3,12.52-28.3l1.24-2,3.41-5.62c10-16.85,7.53-24.8,5.36-50-1.76-20.47-31-114.49-31-114.49L508,916.92s12.55,74.79,26.87,86.39c7.66,6.19,16.29,6.33,23.66,10.93.52.32,1,.64,1.53,1C564.26,1018,568.52,1021,571.88,1024.85Z"/><path class="cls-3" d="M571.88,1024.85c3.35,3.89,3.75,8.22,2,12.83,0,0,0,0,0,.06-3.84,8.51-13.86,17.93-25.39,27.34-1.51,1.23-2.84,2.36-4,3.42l-.92.81c-.24.21-.47.43-.7.62-11.13,10.12-7,12.49-27,33-22.82,23.42-38.42,23.73-42.84,21.55-3.75-1.85,4-14.3,12.52-28.3a96.52,96.52,0,0,0,40.6-29.47c13.76-17.31,23-39.61,32.4-52.5.52.32,1,.64,1.53,1C564.26,1018,568.52,1021,571.88,1024.85Z"/><path class="cls-2" d="M222,995.26c-2.77,13.39-21.86,11-43.17,5.65s-16.27.87-46.63-2.71-39.47-15-40.37-19.49c-.8-4,14.22-5.32,30.33-7.06,2-.21,4.07-.45,6.1-.69,18.19-2.15,31.59-13.78,48.17-23.3,15.7-9,39.3-46,39.3-46l41.63,3.59s-22.09,33-30.65,47.43c-5,8.45-4.85,19.68-4.29,28.36C222.69,985.73,223,990.55,222,995.26Z"/><path class="cls-3" d="M178.81,1000.91c-21.3-5.37-16.27.87-46.63-2.71s-39.47-15-40.37-19.49c-.8-4,14.22-5.32,30.33-7.06l.15.31a85.72,85.72,0,0,0,43.41,13.83c20.6.65,42.47-5.1,56.7-4.77.29,4.71.57,9.53-.42,14.24C219.21,1008.65,200.12,1006.28,178.81,1000.91Z"/><path class="cls-1" d="M524.82,957.47s-2.9,1.88-7.23,4.27c-5.16,2.84-12.34,6.39-19,8.25a76.9,76.9,0,0,1-19.54,2.55c-4.51,0-7.48-.27-7.48-.27L421.7,835.08l-9-24.8-9.59-26.4-3.34-9.18L383.51,730s39.7-101.8,80.18-53.27c4.93,5.91,9.55,14.52,13.87,25.07,3,7.2,5.76,15.32,8.44,24.11,2,6.6,3.94,13.58,5.81,20.84,5,19.76,9.5,41.59,13.41,63.51C518.24,883.46,524.82,957.47,524.82,957.47Z"/><path class="cls-4" d="M791.23,734.71a21.68,21.68,0,0,1-11.55,12.06H595.56c-44.31-9.16-86.66-29.43-112.07-42-2.11-1-4.08-2-5.93-2.94-8.67-4.31-14.65-7.24-17.09-7.75-15.4-3.21-23.31,21.86-36.34,52.7-2.67,6.28-5.52,12.79-8.71,19.36-2.28,4.68-6.55,10.74-12.33,17.75-1.07,1.29-2.17,2.62-3.34,4-44.76,52.29-160,149.65-160,149.65s-1.35,0-3.54,0c-7-.13-22.77-.78-30.29-3.66a46.74,46.74,0,0,1-9.81-5.1,22.3,22.3,0,0,1-4.67-4.19s137.91-269.63,209.3-343.08v0c1-1.07,2.06-2.08,3.08-3,7.79-7.62,14.71-12.65,20.47-14.46,24.32-7.66,181.7.88,181.7.88l5-8.17,8.41-.59,1.44-.1,7-.51h0l9.67-.68,14.38-1,38.89-2.77,6.25-.44,71.9-5.11s3.28,7.4,7.71,19.66c1.73,4.79,3.63,10.3,5.58,16.41C795.1,621.6,810.07,687.09,791.23,734.71Z"/><path class="cls-5" d="M838.89,277.35c-35.93-30.67-61.57-38.26-65.13-86.83C771.82,164.16,736.43,77,676.56,84.58a88.69,88.69,0,0,1-15.09.88,56,56,0,0,0-30.42,7.64C602.23,110,549.15,266,584.93,320.84a39.75,39.75,0,0,0,28.53,18.35l4.62,2.6h0c6.43,3.61,13.51,7.58,21,11.83,42.3,23.85,97.69,55.39,126,71.33h0l4.84,2.73c3.29,1.83,6.07,3.38,8.25,4.58,3.32,1.82,5.26,2.84,5.41,2.84A124.49,124.49,0,0,0,801.22,440c14.26,3,34.24,4.63,48.16-4.47a76.71,76.71,0,0,0,15.25-13.2C893.41,390.16,901,330.34,838.89,277.35Z"/><path class="cls-2" d="M660.78,313.16c-.25.16,27.59,9.89,46.31,1.76,17.62-7.64,31.12-36.43,30.86-36.45-8-.42-16.7-7.47-23.13-53.33l-3.41,1.2-57.33,20.17s4,18.37,6.57,35.86C662.81,297.05,663.92,311.11,660.78,313.16Z"/><path class="cls-6" d="M654.08,246.51s2.45,12.88,5.84,31.28c32.88-5.68,46.74-33.73,51.49-51.45Z"/><path class="cls-2" d="M645.44,264.66s78.31-10,71.36-58.62S715.28,123.31,665,127.6s-57.33,24.25-59,41.06S624.89,266,645.44,264.66Z"/><path class="cls-5" d="M609.07,142s49.77,43.51,83.81,47.23,47-7.12,47-7.12A133,133,0,0,1,708,138.33a24,24,0,0,0-19.65-14.26C664.08,121.8,618,120.52,609.07,142Z"/><path class="cls-5" d="M640.4,138.38s-16.87,16.08-22.23,28.06c-5.18,11.56-6.9,39.28-2.92,50.32,0,0-25.75-50.94-10.79-75.49C620.31,115.23,640.4,138.38,640.4,138.38Z"/><path class="cls-7" d="M594.09,427.94c1.25,158.38-.23,125.28,17,140.43,4.15,3.65,15.87,5.89,31.31,7,48.53,3.57,134-3.83,137.26-12.78,11.42-31,3.58-40.67,13.26-88.15,1-5.05,2.26-10.51,3.71-16.46,8-32.6,15.69-43.65-11.59-96.3-24.73-47.69-50.5-86.44-52.85-85.07-66.41,38.8-71.52,5.76-71.52,5.76S593.48,350.69,594.09,427.94Z"/><path class="cls-4" d="M524.82,957.47s-2.9,1.88-7.23,4.27c-5.16,2.84-12.34,6.39-19,8.25a76.9,76.9,0,0,1-19.54,2.55c-4.51,0-7.48-.27-7.48-.27L421.7,835.08l14.61-24.8,37.42-63.51L486,725.93c2,6.6,3.94,13.58,5.81,20.84,5,19.76,9.5,41.59,13.41,63.51C518.24,883.46,524.82,957.47,524.82,957.47Z"/><path class="cls-7" d="M660.65,282.37s-68.13,11.06-76.33,40.3-56.44,201.17-56.44,201.17,34.55,6.46,50.65-9.41,56.65-147.89,56.65-147.89Z"/><path class="cls-8" d="M642.38,575.38c48.53,3.57,134-3.83,137.26-12.78,11.42-31,3.58-40.67,13.26-88.15L770,408.34S773.3,481.81,751.5,501s-88.94,36.66-99.58,52.73C646.79,561.41,643.4,569.15,642.38,575.38Z"/><path class="cls-2" d="M698.23,544.89s-47.83-11-55.59-6.81S615.88,557.63,613.48,563s17.23-4,23.61-5.63c4.14-1.08,15,2.77,20.32,4.6,22.56,7.69,36.44,3.91,36.44,3.91Z"/><path class="cls-7" d="M732.21,276.59s64.3,4.42,86.35,35.63c31,43.94,91.9,230.71,56.09,255.31-40.33,27.7-182.71,6-182.71,6s-4.59-22.21,2.09-32.88,114-27.25,119-32.16S751.86,411.57,752,396.72,732.21,276.59,732.21,276.59Z"/><path class="cls-2" d="M640.23,551.4s-10.13,12.87-13.43,14.4a9.85,9.85,0,0,1-5.43,1.12l6.85-12.13Z"/><path class="cls-2" d="M642.64,538.08l-29.28,14s1.22,2,4.82,1.9,12.68-3.39,12.68-3.39Z"/><polygon class="cls-9" points="633.04 579.47 402.19 577.84 333.96 404.66 564.46 406.29 633.04 579.47"/><polygon class="cls-10" points="399.53 571.1 704.37 573.25 704.33 579.97 402.19 577.84 399.53 571.1"/><path class="cls-11" d="M461.07,491.91c-1.7-6.08,1.85-11,7.92-10.94s12.37,5,14.06,11.09-1.84,11-7.91,10.94S462.77,498,461.07,491.91Z"/></svg>