<?xml version="1.0" encoding="UTF-8"?> <svg xmlns="http://www.w3.org/2000/svg" width="100" height="60" viewBox="0 0 100 60" fill="none"><path fill-rule="evenodd" clip-rule="evenodd" d="M83.6564 29.9837C83.6564 41.039 74.7306 50 63.7173 50C52.7062 50 43.7791 41.039 43.7791 29.9837C43.7791 18.928 52.7062 9.9668 63.7173 9.9668C74.7306 9.9668 83.6564 18.928 83.6564 29.9837Z" fill="#CC0000"></path><path fill-rule="evenodd" clip-rule="evenodd" d="M48.3149 42.695C47.7644 42.0247 47.2573 41.3165 46.7963 40.575H53.8629C54.287 39.8955 54.6699 39.1876 55.0118 38.4553H45.6479C45.3287 37.7695 45.0451 37.0622 44.8037 36.3362H55.8545C56.5201 34.3402 56.8796 32.2049 56.8796 29.9837C56.8796 28.5292 56.7252 27.1108 56.4321 25.7449H44.2276C44.3821 25.0227 44.5768 24.3161 44.8062 23.6252H55.8532C55.6109 22.8992 55.3289 22.1922 55.0099 21.5064H45.6498C45.9918 20.7741 46.3756 20.0675 46.7985 19.3864H53.8607C53.3999 18.6468 52.8916 17.9398 52.342 17.2686H48.3174C48.9367 16.5141 49.6095 15.8059 50.3299 15.1501C46.7909 11.929 42.0939 9.9668 36.9417 9.9668C25.9291 9.9668 17.002 18.928 17.002 29.9837C17.002 41.039 25.9291 50 36.9417 50C42.0942 50 46.7916 48.0378 50.3299 44.8179C51.0512 44.1609 51.725 43.451 52.3442 42.695H48.3149Z" fill="#0066CC"></path><path fill-rule="evenodd" clip-rule="evenodd" d="M50.0455 35.393C49.1934 35.6195 48.3693 35.7302 47.4983 35.7283C44.7191 35.7257 43.2717 34.455 43.2717 32.025C43.2717 29.186 45.1143 27.0979 47.6155 27.0979C49.6614 27.0979 50.9673 28.2686 50.9673 30.103C50.9673 30.7116 50.8791 31.3047 50.6626 32.143H45.7203C45.5445 33.3299 46.4076 33.8509 47.8771 33.8509C48.7573 33.8509 49.553 33.6921 50.4347 33.3362L50.0455 35.393ZM48.7166 30.4687C48.7166 30.2896 48.9914 29.0155 47.561 28.988C46.7713 28.988 46.205 29.515 45.9759 30.4687H48.7166Z" fill="#000066"></path><path fill-rule="evenodd" clip-rule="evenodd" d="M51.7198 29.9119C51.7198 30.9605 52.3078 31.6852 53.6449 32.2246C54.6669 32.6447 54.8276 32.7664 54.8276 33.1419C54.8276 33.6623 54.3764 33.9008 53.3736 33.8945C52.6208 33.8891 51.9334 33.797 51.1226 33.5715L50.7637 35.4843C51.4847 35.6523 52.4953 35.7073 53.3913 35.7282C56.0601 35.7282 57.2923 34.851 57.2923 32.955C57.2923 31.8149 56.7783 31.1446 55.5109 30.6448C54.4514 30.2197 54.3272 30.1283 54.3272 29.7433C54.3272 29.2916 54.747 29.0632 55.5654 29.0632C56.0617 29.0632 56.7408 29.1088 57.3856 29.1872L57.747 27.2639C57.0903 27.1725 56.0942 27.0991 55.5172 27.0991C52.6898 27.0991 51.7113 28.3768 51.7198 29.9119Z" fill="#000066"></path><path fill-rule="evenodd" clip-rule="evenodd" d="M41.9171 35.5913H39.8438L39.8933 34.7195C39.2611 35.4072 38.4188 35.7276 37.2761 35.7276C35.9236 35.7276 34.9971 34.7992 34.9971 33.464C34.9971 31.4344 36.6077 30.2637 39.3771 30.2637C39.6617 30.2637 40.0238 30.2852 40.3956 30.3273C40.4725 30.0556 40.4933 29.9385 40.4933 29.7911C40.4933 29.2356 40.0575 29.031 38.8921 29.031C37.7431 29.0354 36.9679 29.2065 36.2485 29.4004L36.6027 27.5385C37.8468 27.221 38.6611 27.0979 39.5829 27.0979C41.7274 27.0979 42.86 27.9425 42.86 29.5286C42.8779 29.9521 42.7314 30.8018 42.6573 31.1738C42.5735 31.7144 41.9792 34.8511 41.9171 35.5913ZM40.0972 31.8884C39.8347 31.8624 39.7203 31.8545 39.5404 31.8545C38.1264 31.8545 37.4094 32.2771 37.4094 33.1113C37.4094 33.6351 37.7592 33.9625 38.3047 33.9625C39.3207 33.9625 40.0543 33.1094 40.0972 31.8884Z" fill="#000066"></path><path fill-rule="evenodd" clip-rule="evenodd" d="M61.6607 35.4598C60.9807 35.6467 60.4503 35.7284 59.8771 35.7284C58.6071 35.7284 57.9135 35.0767 57.9135 33.9164C57.8734 33.5976 58.1838 32.1248 58.2544 31.7145C58.3244 31.3029 59.4245 25.3035 59.4245 25.3035H61.892L61.5189 27.2887H62.7845L62.4407 29.3142H61.1694C61.1694 29.3142 60.472 32.8308 60.472 33.0997C60.472 33.5258 60.7292 33.7111 61.3201 33.7111C61.6024 33.7111 61.8208 33.6846 61.9894 33.634L61.6607 35.4598Z" fill="#000066"></path><path fill-rule="evenodd" clip-rule="evenodd" d="M72.6863 27.0979C70.8778 27.0979 69.4647 27.846 68.6438 29.0936L69.3563 27.2424C68.0435 26.7588 67.197 27.4493 66.4322 28.4306C66.4322 28.4306 66.3039 28.5935 66.176 28.7425V27.2877H63.8591C63.5452 29.8553 62.9903 32.4593 62.5564 35.0326L62.4514 35.5922H64.9438C65.1805 34.2864 65.3746 33.2267 65.5681 32.3815C66.0975 30.0628 66.9887 29.3542 68.3265 29.668C68.0176 30.3339 67.8484 31.1057 67.8484 31.9595C67.8484 34.0324 68.969 35.7282 71.7532 35.7282C74.5623 35.7282 76.5965 34.2219 76.5965 30.7869C76.5965 28.7153 75.2408 27.0979 72.6863 27.0979ZM71.9609 33.7135C71.0807 33.7272 70.5469 32.9857 70.5469 31.876C70.5469 30.5613 71.3256 29.0756 72.577 29.0756C73.5867 29.0756 73.9324 29.8793 73.9324 30.7356C73.9324 32.6058 73.1688 33.7135 71.9609 33.7135Z" fill="#000066"></path><path fill-rule="evenodd" clip-rule="evenodd" d="M33.8357 35.5923H31.3534L32.8285 27.7904L29.4323 35.5923H27.1697L26.7562 27.8362L25.2764 35.5923H23.0244L24.9423 25.4438H28.8213L29.1443 31.1014L31.6017 25.4438H35.7921L33.8357 35.5923Z" fill="#000066"></path><path fill-rule="evenodd" clip-rule="evenodd" d="M50.6682 34.7676C49.8167 34.9945 48.9923 35.1052 48.1216 35.1033C45.3424 35.1007 43.895 33.8297 43.895 31.4C43.895 28.561 45.7373 26.4729 48.2382 26.4729C50.2844 26.4729 51.5906 27.6436 51.5906 29.4777C51.5906 30.0863 51.502 30.6782 51.2859 31.518H46.3439C46.1678 32.7036 47.0303 33.2255 48.4998 33.2255C49.3799 33.2255 50.1763 33.0668 51.0577 32.7102L50.6682 34.7676ZM49.3393 29.8437C49.3393 29.6643 49.6141 28.3905 48.1843 28.3626C47.3946 28.3626 46.8283 28.8896 46.5986 29.8437H49.3393Z" fill="white"></path><path fill-rule="evenodd" clip-rule="evenodd" d="M52.3432 29.2863C52.3432 30.3353 52.9309 31.0594 54.2677 31.5993C55.2904 32.0197 55.4508 32.1412 55.4508 32.5157C55.4508 33.037 54.9992 33.2756 53.9974 33.2695C53.2436 33.2639 52.5563 33.1718 51.746 32.9463L51.3865 34.8585C52.1078 35.0271 53.1191 35.0821 54.0141 35.1033C56.6829 35.1033 57.9157 34.2258 57.9157 32.3291C57.9157 31.1897 57.4014 30.5188 56.134 30.0196C55.0745 29.5948 54.95 29.5021 54.95 29.1184C54.95 28.6667 55.3704 28.4373 56.1885 28.4373C56.6848 28.4373 57.3636 28.4838 58.0087 28.5623L58.3702 26.639C57.7134 26.5463 56.7173 26.4739 56.1409 26.4739C53.3129 26.4739 52.3344 27.7509 52.3432 29.2863Z" fill="white"></path><path fill-rule="evenodd" clip-rule="evenodd" d="M42.5403 34.966H40.4664L40.5165 34.0942C39.884 34.7812 39.0423 35.1014 37.8993 35.1014C36.5471 35.1014 35.6196 34.1733 35.6196 32.838C35.6196 30.8091 37.2306 29.6384 40 29.6384C40.2846 29.6384 40.6463 29.6602 41.0188 29.7007C41.0957 29.4296 41.1162 29.3135 41.1162 29.1658C41.1162 28.6091 40.6807 28.4053 39.5156 28.4053C38.3663 28.4101 37.5911 28.5812 36.872 28.7754L37.2252 26.9132C38.4697 26.5956 39.2837 26.4729 40.2061 26.4729C42.3506 26.4729 43.4829 27.3165 43.4829 28.9032C43.5014 29.3271 43.354 30.1752 43.2809 30.5485C43.1961 31.0891 42.6021 34.2258 42.5403 34.966ZM40.7201 31.2634C40.4579 31.2362 40.3432 31.2292 40.1629 31.2292C38.7495 31.2292 38.0323 31.6512 38.0323 32.4847C38.0323 33.0095 38.3827 33.3375 38.9273 33.3375C39.9439 33.3375 40.6775 32.4834 40.7201 31.2634Z" fill="white"></path><path fill-rule="evenodd" clip-rule="evenodd" d="M62.2837 34.8343C61.6034 35.0216 61.0733 35.1032 60.4998 35.1032C59.2298 35.1032 58.5368 34.4512 58.5368 33.2909C58.4965 32.9721 58.8069 31.4993 58.8771 31.089C58.9477 30.6774 60.0479 24.678 60.0479 24.678H62.5151L62.1423 26.6626H63.4078L63.0637 28.6887H61.7928C61.7928 28.6887 61.0947 32.2053 61.0947 32.4729C61.0947 32.9006 61.3522 33.0847 61.9431 33.0847C62.2254 33.0847 62.4435 33.0594 62.6131 33.0082L62.2837 34.8343Z" fill="white"></path><path fill-rule="evenodd" clip-rule="evenodd" d="M74.556 30.1091C74.556 31.9808 73.7915 33.0886 72.5836 33.0886C71.7034 33.1012 71.1699 32.3607 71.1699 31.251C71.1699 29.9364 71.9486 28.4503 73.1997 28.4503C74.2097 28.4503 74.556 29.2541 74.556 30.1091ZM77.2196 30.1616C77.2196 28.0903 75.8635 26.4729 73.3097 26.4729C70.3717 26.4729 68.4714 28.4386 68.4714 31.3345C68.4714 33.4071 69.5921 35.1033 72.3766 35.1033C75.1857 35.1033 77.2196 33.5969 77.2196 30.1616Z" fill="white"></path><path fill-rule="evenodd" clip-rule="evenodd" d="M64.4818 26.6617C64.1682 29.2299 63.613 31.8336 63.1793 34.4066L63.0747 34.9672H65.5668C66.4649 29.9973 66.7665 28.5818 68.6488 29.08L69.5542 26.7287C68.241 26.245 67.3961 26.9359 66.6313 27.9178C66.7003 27.4759 66.8302 27.0492 66.799 26.6617H64.4818Z" fill="white"></path><path fill-rule="evenodd" clip-rule="evenodd" d="M34.4588 34.9671H31.9771L33.4519 27.1652L30.0554 34.9671H27.7927L27.379 27.2107L25.8991 34.9671H23.6475L25.5651 24.8184H29.4444L29.6492 31.1013L32.3798 24.8184H36.4151L34.4588 34.9671Z" fill="white"></path></svg> 