<?xml version="1.0" encoding="UTF-8"?> <svg xmlns="http://www.w3.org/2000/svg" width="100" height="60" viewBox="0 0 100 60" fill="none"><path fill-rule="evenodd" clip-rule="evenodd" d="M61.3435 26.4027C61.0749 28.1666 59.7278 28.1666 58.4245 28.1666H57.6832L58.2034 24.8731C58.2344 24.6742 58.4061 24.5278 58.6076 24.5278H58.9478C59.8349 24.5278 60.6725 24.5278 61.1046 25.0328C61.3631 25.335 61.4411 25.7836 61.3435 26.4027ZM60.7764 21.8002H55.8622C55.5257 21.8002 55.24 22.0447 55.1874 22.3767L53.2004 34.9779C53.1611 35.2262 53.3537 35.4512 53.6047 35.4512H56.1264C56.3615 35.4512 56.5617 35.2801 56.5984 35.0482L57.1623 31.4753C57.2143 31.1433 57.5007 30.8987 57.8365 30.8987H59.3914C62.6285 30.8987 64.497 29.3324 64.9848 26.2271C65.2047 24.87 64.9937 23.803 64.3582 23.056C63.6593 22.2348 62.4206 21.8002 60.7764 21.8002Z" fill="#0079C1"></path><path fill-rule="evenodd" clip-rule="evenodd" d="M26.2927 26.4027C26.0241 28.1666 24.677 28.1666 23.3737 28.1666H22.6324L23.1526 24.8731C23.1836 24.6742 23.3553 24.5278 23.5568 24.5278H23.8971C24.7841 24.5278 25.6218 24.5278 26.0539 25.0328C26.3124 25.335 26.3903 25.7836 26.2927 26.4027ZM25.7257 21.8002H20.8114C20.475 21.8002 20.1892 22.0447 20.1366 22.3767L18.1496 34.9779C18.1104 35.2262 18.3023 35.4512 18.5539 35.4512H20.9008C21.2366 35.4512 21.5223 35.2066 21.5749 34.8752L22.1116 31.4753C22.1635 31.1433 22.4499 30.8987 22.7857 30.8987H24.3406C27.5777 30.8987 29.4462 29.3324 29.9341 26.2271C30.1539 24.87 29.9429 23.803 29.3074 23.056C28.6086 22.2348 27.3699 21.8002 25.7257 21.8002Z" fill="#00457C"></path><path fill-rule="evenodd" clip-rule="evenodd" d="M37.1346 30.9263C36.9072 32.2708 35.8402 33.1737 34.4786 33.1737C33.7962 33.1737 33.2494 32.9538 32.8983 32.5382C32.5505 32.1263 32.4193 31.539 32.5296 30.8857C32.7412 29.5526 33.8259 28.6212 35.1666 28.6212C35.8351 28.6212 36.3775 28.843 36.7355 29.2624C37.096 29.685 37.2379 30.2756 37.1346 30.9263ZM40.4142 26.3459H38.061C37.8595 26.3459 37.6878 26.4923 37.6561 26.6919L37.5528 27.3496L37.3887 27.1113C36.8786 26.3719 35.7426 26.1242 34.6084 26.1242C32.0088 26.1242 29.788 28.0947 29.3559 30.8578C29.1309 32.2366 29.4503 33.5538 30.2321 34.4732C30.95 35.3178 31.9745 35.6694 33.1955 35.6694C35.2915 35.6694 36.4535 34.3237 36.4535 34.3237L36.3483 34.9775C36.309 35.2259 36.501 35.4508 36.7532 35.4508H38.872C39.2084 35.4508 39.4942 35.2069 39.5468 34.8749L40.819 26.8192C40.8583 26.5709 40.6657 26.3459 40.4142 26.3459Z" fill="#00457C"></path><path fill-rule="evenodd" clip-rule="evenodd" d="M72.1857 30.9263C71.9582 32.2708 70.8912 33.1737 69.5296 33.1737C68.8472 33.1737 68.3004 32.9538 67.9494 32.5382C67.6009 32.1263 67.4704 31.539 67.5806 30.8857C67.7922 29.5526 68.877 28.6212 70.2177 28.6212C70.8861 28.6212 71.4285 28.843 71.7865 29.2624C72.147 29.685 72.2889 30.2756 72.1857 30.9263ZM75.4652 26.3459H73.112C72.9105 26.3459 72.7388 26.4923 72.7071 26.6919L72.6038 27.3496L72.4391 27.1113C71.9297 26.3719 70.7936 26.1242 69.6595 26.1242C67.0598 26.1242 64.839 28.0947 64.4069 30.8578C64.182 32.2366 64.5013 33.5538 65.2832 34.4732C66.001 35.3178 67.0256 35.6694 68.2465 35.6694C70.3425 35.6694 71.5045 34.3237 71.5045 34.3237L71.3993 34.9775C71.3601 35.2259 71.552 35.4508 71.8042 35.4508H73.923C74.2594 35.4508 74.5452 35.2069 74.5978 34.8749L75.8701 26.8192C75.9093 26.5709 75.7167 26.3459 75.4652 26.3459Z" fill="#0079C1"></path><path fill-rule="evenodd" clip-rule="evenodd" d="M52.9473 26.3461H50.582C50.3558 26.3461 50.1442 26.4582 50.0175 26.6458L46.7544 31.4511L45.3719 26.8333C45.2851 26.5444 45.019 26.3461 44.7174 26.3461H42.3927C42.112 26.3461 41.9143 26.6223 42.0049 26.8878L44.609 34.5329L42.1595 37.9892C41.9675 38.2604 42.1614 38.6355 42.494 38.6355H44.8568C45.0804 38.6355 45.2901 38.5259 45.4181 38.3421L53.2837 26.9892C53.4719 26.7174 53.278 26.3461 52.9473 26.3461Z" fill="#00457C"></path><path fill-rule="evenodd" clip-rule="evenodd" d="M78.2387 22.1463L76.2219 34.9781C76.1826 35.2265 76.3746 35.4514 76.6262 35.4514H78.655C78.9908 35.4514 79.2772 35.2068 79.3291 34.8748L81.318 22.2737C81.3573 22.0253 81.1653 21.8004 80.9131 21.8004H78.6436C78.4414 21.8004 78.2697 21.9468 78.2387 22.1463Z" fill="#0079C1"></path></svg> 