<?xml version="1.0" encoding="utf-8"?>
<!-- Generator: Adobe Illustrator 23.0.2, SVG Export Plug-In . SVG Version: 6.00 Build 0)  -->
<svg version="1.1" id="Layer_1" xmlns="http://www.w3.org/2000/svg" xmlns:xlink="http://www.w3.org/1999/xlink" x="0px" y="0px"
     viewBox="0 0 331 742.8" style="enable-background:new 0 0 331 742.8;" xml:space="preserve">
<style type="text/css">
	.st0{fill:#F6F6F6;}
	.st1{fill:#BCDFEF;}
	.st2{fill:#D0ECFE;}
	.st3{fill:#FF4152;}
	.st4{fill:#FFFFFF;}
	.st5{fill:#EDFBFF;}
	.st6{fill:#6AB1D4;}
	.st7{fill:#005D8D;}
	.st8{clip-path:url(#SVGID_2_);}
	.st9{fill:#EB293A;}
	.st10{fill:#BDDFEF;}
	.st11{fill:#D2EEFF;}
	.st12{fill:none;}
</style>
  <title>Redwerk_rocket</title>
  <g id="main_object">
	<g id="rocketWithFire_holder">
		<g id="rocketWithFire">
			<g id="burning">
				<path class="st0" d="M151,409.6l19.5,216.5h0.6l13.7-216.5H151z"/>
			</g>
      <g id="burning-2">
				<path class="st1" d="M131.4,413l11.7,142.7l0.4,0.2l8.2-142.8L131.4,413z"/>
			</g>
      <g id="burning-3">
				<path class="st1" d="M183,413l11.7,142.7l0.4,0.2l8.2-142.8L183,413z"/>
			</g>
      <g id="rocket">
				<path class="st2" d="M128.3,384l-4,24.3c-0.4,2.3,0.5,4.7,2.3,6.1c4.6,3.8,16.1,9.5,42.6,9.3c25.2-0.2,36.3-4.9,41.1-8.3
					c2.1-1.5,3.1-4.2,2.6-6.7l-5.5-24.6L128.3,384z"/>
        <path class="st2" d="M211.7,186.6c-20.3-51.3-43.7-38.3-43.7-38.3s-23.4-13-43.8,38.3c0,0-15,27.3-21.4,83.9
					c-5.3,46.9-3.1,100,37.5,122.3h55.4c40.7-22.3,42.5-75.8,37.3-122.9C226.9,215.1,211.7,186.6,211.7,186.6z"/>
        <path class="st3" d="M206.7,188l5.1-2c-18.7-45.3-38-49.2-42.7-49.1c-4.5-0.2-26.8,3.8-44.8,49.1l5.2,2
					C154.2,197.9,181.9,197.9,206.7,188z"/>
        <circle class="st4" cx="168.5" cy="252.7" r="34.3"/>
        <circle class="st5" cx="168.5" cy="258.4" r="34.3"/>
        <path class="st6" d="M128.3,384c12.4,5.1,45,12.3,79.2,0l2.4,10.3c0,0-6.2,8.4-39.6,8.7c-33.4,0.4-43.8-8-43.8-8L128.3,384z"/>
        <circle id="SVGID" class="st7" cx="168.4" cy="258.3" r="25.2"/>
        <g>
					<defs>
						<circle id="SVGID_1_" cx="168.4" cy="258.3" r="25.2"/>
					</defs>
          <clipPath id="SVGID_2_">
						<use xlink:href="#SVGID_1_"  style="overflow:visible;"/>
					</clipPath>
          <g class="st8">
						<path class="st6" d="M195.8,262.9c0,0-9.8,16.2-26.6,15.3c-8.3-0.5-20.8-2.2-27.3-16.7c0,0,2.9,14.4,14.6,21.1
							c8.3,4.2,18.3,3.6,26.1-1.6C182.5,281,190,277.3,195.8,262.9z"/>
					</g>
				</g>
        <path class="st9" d="M101,319.1l-34.6,28.4c-8.7,7.1-12,7.1-9.9,21.3c2.2,14.2,9,45.8,17.6,48.8c3.3,1.2,14.6,5,16,2.6
					c2.3-4-6.3-16.4-3.6-21.7c4.3-8.7,10.5-18.2,33.4-16.7l-8.5-59.1L101,319.1z"/>
        <path class="st3" d="M111.6,322.7c0,0-26,20.8-34.6,27.9c-8.7,7-12,7.1-9.9,21.3c2.2,14.2,9,45.8,17.6,48.8
					c8.7,3.1,8-10.5,12.4-19.2c4.2-8.3,10.1-17.5,30.9-16.8c1,0,1.9-0.8,1.9-1.8c0-0.2,0-0.3-0.1-0.5L111.6,322.7z"/>
        <path class="st3" d="M233.2,319.1l34.6,28.4c8.7,7.1,12,7.1,9.9,21.3c-2.2,14.2-9,45.8-17.6,48.8c-3.3,1.2-14.6,5-15.9,2.6
					c-2.3-4,6.3-16.4,3.6-21.7c-4.3-8.7-10.5-18.2-33.4-16.7l8.5-59.1L233.2,319.1z"/>
        <path class="st9" d="M222.7,322.7c0,0,26,20.7,34.6,27.8s12,7.1,9.9,21.3s-9,45.8-17.6,48.8c-8.7,3.1-8-10.5-12.3-19.2
					c-4.2-8.3-10.1-17.5-30.9-16.8c-1,0-1.9-0.9-1.8-2c0-0.1,0-0.3,0-0.4L222.7,322.7z"/>
        <path class="st9" d="M155.5,351.7l3.6,84.7c0.4,5.3,4.8,9.5,10.1,9.6l0,0c5.7,0.4,10.6-3.9,11-9.6l3.4-84.6
					c0.1-7.6-5.9-13.8-13.4-13.9c-0.3,0-0.5,0-0.8,0l0,0c-7.6-0.1-13.8,5.9-13.9,13.5C155.5,351.4,155.5,351.5,155.5,351.7z"/>
        <path class="st3" d="M156.7,394.5l3.3,63c0.2,5.1,4.3,9.1,9.3,9.3l0,0c5.3,0.2,9.8-3.9,10.1-9.3c0,0,0,0,0,0l3.1-63
					c0.3-7.1-5.2-13.1-12.3-13.4c-0.2,0-0.5,0-0.7,0l0,0c-7.1,0.1-12.8,5.9-12.7,13C156.7,394.2,156.7,394.3,156.7,394.5z"/>
			</g>
		</g>
	</g>

    <ellipse id="cloud1" transform="matrix(1.612275e-02 -0.9999 0.9999 1.612275e-02 -547.7856 723.9377)" class="st10" cx="94" cy="640.3" rx="44.7" ry="44.7"/>
    <circle id="cloud2" class="st10" cx="151.5" cy="647.1" r="48.3"/>
    <circle id="cloud2-2" class="st10" cx="221.4" cy="623.6" r="25"/>
    <circle id="cloud3" class="st10" cx="219.6" cy="670" r="56.2"/>
    <circle id="cloud4" class="st11" cx="285.6" cy="697.6" r="41.9"/>
    <circle id="cloud4-2" class="st11" cx="183.4" cy="691.5" r="27.8"/>
    <circle id="cloud5" class="st11" cx="49.4" cy="691.1" r="42.7"/>
    <circle id="cloud5-2" class="st11" cx="94.2" cy="657.5" r="27.3"/>
    <circle id="cloud5-3" class="st11" cx="126.9" cy="692.7" r="34.4"/>
</g>
  <g id="mask1">
	<path class="st12" d="M40.6,0h240v330h-240V0z"/>
</g>
  <script type="text/javascript"><![CDATA[

                function startAnimation(){null==Interval&&(Interval=setInterval(animate,30))}function stopAnimation(){null!=Interval&&(clearInterval(Interval),Interval=null)}function animate(){ScaleObj+=Speed,ScaleObj2+=Speed2,ScaleObj3+=Speed3,ScaleObj>=1.03&&az&&(Speed=-.001,az=!1),1>=ScaleObj&&!az&&(Speed=.001,az=!0),ScaleObj2>=1.07&&az2&&(Speed2=-.002,az2=!1),1.02>=ScaleObj2&&!az2&&(Speed2=.002,az2=!0),ScaleObj3>=1.08&&az3&&(Speed3=-.001,az3=!1),1.01>=ScaleObj3&&!az3&&(Speed3=.001,az3=!0),CP.setAttribute("transform","scale("+ScaleObj+" "+ScaleObj+")"),CP2.setAttribute("transform","scale("+ScaleObj2+" "+ScaleObj2+")"),CP3.setAttribute("transform","scale("+ScaleObj3+" "+ScaleObj3+")"),CP4.setAttribute("transform","scale("+ScaleObj+" "+ScaleObj+")"),CP5.setAttribute("transform","scale("+ScaleObj3+" "+ScaleObj3+")"),Angle+=AngSpeed,mainAni>0&&(mainAni+=(-.1-mainAni)/5,main_object.setAttribute("transform","matrix(1, 0, 0, 1, 0, "+mainAni+")")),rocket.setAttribute("transform","translate("+(100*ScaleObj2-90)+" "+(100*ScaleObj3-95)+")")}var Angle=0,AngSpeed=.25,Speed=.01,Speed2=.01,Speed3=.01,ScaleObj=1,ScaleObj2=1.05,ScaleObj3=1.07,az=!0,az2=!0,az3=!0,CP=document.getElementById("cloud1"),CP2=document.getElementById("cloud2"),CP3=document.getElementById("cloud3"),CP4=document.getElementById("cloud4"),CP5=document.getElementById("cloud5"),rocket=document.getElementById("rocketWithFire"),main_object=document.getElementById("main_object"),mainAni=350,fire=document.getElementById("fire"),firBurnAnimation=["scale(1.0, 1.0) translate(-0 -0)","scale(1.005, 1.005) translate(-0.5 -0.5)","scale(1.01, 1.01) translate(-1 -1)","scale(1.01, 1.015) translate(-1.5 -1.5)","scale(1.02, 1.02) translate(-2 -2)","scale(1.025, 1.025) translate(-2.5 -2.5)","scale(1.03, 1.03) translate(-3 -3)","scale(1.035, 1.035) translate(-3.5 -3.5)","scale(1.04, 1.04) translate(-4 -4)","scale(1.05, 1.05) translate(-5 -5)"],fir_k=0,aniFir=1,Interval=null;startAnimation();

]]></script>
</svg>
