<?xml version="1.0" encoding="UTF-8"?> <svg xmlns="http://www.w3.org/2000/svg" width="91" height="60" viewBox="0 0 91 60" fill="none"><path fill-rule="evenodd" clip-rule="evenodd" d="M57.808 23.7946C59.1385 23.7946 60.2163 22.7171 60.2163 21.388C60.2163 20.0586 59.1385 18.9801 57.808 18.9801C56.48 18.9801 55.4022 20.0586 55.4022 21.388C55.4022 22.7171 56.48 23.7946 57.808 23.7946ZM39.3643 25.0938C39.2553 25.3671 38.4735 27.5763 36.5816 29.866V20.0758L31.5416 21.0718V38.8183H36.5816V33.3328C38.0417 35.5217 38.7623 38.8183 38.7623 38.8183H44.7993C44.2021 36.3358 41.59 31.7582 41.59 31.7582C43.9343 28.7861 44.964 25.6191 45.1276 25.0938H39.3643ZM52.614 24.9088C48.1 25.0539 45.808 27.0792 45.808 31.1053V38.8183H50.7335V32.5283C50.7335 30.118 51.0491 29.0842 53.9094 28.9859V24.9796C53.4281 24.8772 52.614 24.9088 52.614 24.9088ZM23.0891 27.0482C22.4717 27.008 21.0425 26.9155 21.0425 25.6287C21.0425 24.0762 23.1001 24.0762 23.872 24.0762C25.2289 24.0762 26.9864 24.4767 28.2416 24.8524C28.2416 24.8524 28.9419 25.0993 29.5377 25.352L29.593 25.3671V25.3107V21.1147L29.517 21.0924C28.0356 20.5743 26.3132 20.0758 23.1201 20.0758C17.6143 20.0758 15.6636 23.283 15.6636 26.0306C15.6636 27.6145 16.3422 31.3426 22.6481 31.7726C23.1823 31.8053 24.6008 31.8871 24.6008 33.2166C24.6008 34.3146 23.4395 34.9617 21.4864 34.9617C19.3459 34.9617 17.2687 34.4161 16.0077 33.8983V38.2775C17.8962 38.7722 20.0242 39.0198 22.5191 39.0198C27.9026 39.0198 30.3136 35.9851 30.3136 32.9776C30.3136 29.5676 27.6155 27.3515 23.0891 27.0482ZM55.3668 38.8183H60.2517V25.1096H55.3668V38.8183ZM69.4502 20.9494V38.8183H74.3362V20.0758L69.4502 20.9494ZM62.3213 20.9494L67.2022 20.0758V38.8183H62.3213V20.9494Z" fill="#862165"></path></svg> 