<?xml version="1.0" encoding="UTF-8"?> <svg xmlns="http://www.w3.org/2000/svg" width="100" height="60" viewBox="0 0 100 60" fill="none"><path fill-rule="evenodd" clip-rule="evenodd" d="M25.4961 28.7001C24.161 28.2022 23.4294 27.815 23.4294 27.2065C23.4294 26.6901 23.85 26.3951 24.5999 26.3951C25.9716 26.3951 27.3798 26.9299 28.3492 27.4092L28.8978 23.998C28.1297 23.6291 26.5568 23.0206 24.3805 23.0206C22.8442 23.0206 21.5639 23.4262 20.6495 24.1823C19.6984 24.9752 19.2046 26.1185 19.2046 27.5015C19.2046 30.0092 20.7226 31.0788 23.1916 31.9823C24.7828 32.5539 25.3132 32.9597 25.3132 33.5866C25.3132 34.1951 24.801 34.5454 23.8683 34.5454C22.7161 34.5454 20.8141 33.9738 19.5704 33.2363L19.0217 36.6844C20.0824 37.293 22.0577 37.9199 24.1061 37.9199C25.7338 37.9199 27.0872 37.5326 28.0017 36.7951C29.0258 35.9837 29.5562 34.7852 29.5562 33.2363C29.5562 30.673 28.0017 29.6036 25.4961 28.7001ZM38.4882 26.6901L39.0369 23.2972H36.1403V19.1784L32.2458 19.8245L31.6834 23.2972L30.3137 23.5212L29.801 26.6901H31.6778V33.3469C31.6778 35.0802 32.1168 36.2788 33.0129 37.0164C33.7628 37.6249 34.8417 37.9199 36.3598 37.9199C37.5302 37.9199 38.2435 37.7171 38.7373 37.5879V33.9922C38.463 34.066 37.8412 34.1951 37.4205 34.1951C36.5244 34.1951 36.1403 33.7341 36.1403 32.6831V26.6901H38.4882ZM47.1869 23.099C45.9067 23.099 44.8825 23.7767 44.4801 24.9937L44.2058 23.2972H40.2371V37.6433H44.7727V28.3312C45.3398 27.6305 46.1444 27.3771 47.2417 27.3771C47.4796 27.3771 47.7355 27.3771 48.0465 27.4325V23.2097C47.7355 23.136 47.4612 23.099 47.1869 23.099ZM51.43 21.8773C52.7468 21.8773 53.8076 20.7895 53.8076 19.4618C53.8076 18.1156 52.7468 17.0461 51.43 17.0461C50.0948 17.0461 49.0341 18.1156 49.0341 19.4618C49.0341 20.7895 50.0948 21.8773 51.43 21.8773ZM49.1439 23.2972H53.6978V37.6433H49.1439V23.2972ZM66.603 24.5879C65.7983 23.5369 64.6827 23.0206 63.2561 23.0206C61.9393 23.0206 60.7871 23.5738 59.708 24.7355L59.4703 23.2972H55.4832V42.9539L60.019 42.198V37.5879C60.7138 37.8092 61.4271 37.9199 62.0673 37.9199C63.2013 37.9199 64.8473 37.6249 66.1275 36.2235C67.3528 34.8773 67.9747 32.7937 67.9747 30.0461C67.9747 27.6121 67.5174 25.7682 66.603 24.5879ZM62.8354 33.439C62.4696 34.1398 61.9027 34.5086 61.2443 34.5086C60.7871 34.5086 60.3846 34.4164 60.019 34.232V27.4092C60.7871 26.598 61.482 26.5057 61.7381 26.5057C62.8903 26.5057 63.4572 27.7597 63.4572 30.2121C63.4572 31.6135 63.2561 32.7015 62.8354 33.439ZM80.9782 30.3411C80.9782 28.0547 80.4844 26.2475 79.5151 24.9752C78.5275 23.6844 77.046 23.0206 75.1623 23.0206C71.3032 23.0206 68.9075 25.8972 68.9075 30.5071C68.9075 33.0887 69.5475 35.0249 70.8094 36.2603C71.9434 37.3667 73.5712 37.9199 75.6744 37.9199C77.613 37.9199 79.4053 37.4589 80.5393 36.7028L80.0455 33.5682C78.9298 34.1767 77.6313 34.5086 76.1682 34.5086C75.2903 34.5086 74.6868 34.3241 74.2478 33.9369C73.7723 33.5312 73.4979 32.8674 73.4066 31.927H80.9234C80.9416 31.7057 80.9782 30.673 80.9782 30.3411ZM73.3699 29.1241C73.4979 27.0773 74.0466 26.1185 75.0891 26.1185C76.1133 26.1185 76.6437 27.0958 76.7168 29.1241H73.3699Z" fill="#1A1919"></path></svg> 