<?xml version="1.0" encoding="UTF-8"?> <svg xmlns="http://www.w3.org/2000/svg" width="100" height="60" viewBox="0 0 100 60" fill="none"><path fill-rule="evenodd" clip-rule="evenodd" d="M41.49 39.5467L44.5647 20.4727H49.4796L46.4051 39.5467H41.49Z" fill="#26337A"></path><path fill-rule="evenodd" clip-rule="evenodd" d="M64.2329 20.9409C63.2611 20.5581 61.7327 20.1406 59.8288 20.1406C54.9696 20.1406 51.5491 22.7291 51.5207 26.4356C51.4898 29.1772 53.9616 30.7063 55.825 31.6175C57.7402 32.5516 58.3836 33.1494 58.376 33.9846C58.3628 35.262 56.8474 35.8474 55.4343 35.8474C53.4665 35.8474 52.4211 35.5592 50.8047 34.8471L50.1725 34.5434L49.4852 38.813C50.6313 39.3443 52.7559 39.8054 54.9609 39.8296C60.1251 39.8296 63.4807 37.2725 63.52 33.3144C63.5377 31.1403 62.228 29.4925 59.3917 28.1319C57.6741 27.2474 56.62 26.6615 56.6321 25.7663C56.6332 24.9736 57.5226 24.1249 59.4476 24.1249C61.0553 24.0989 62.219 24.4702 63.1259 24.8578L63.5672 25.0758L64.2329 20.9409Z" fill="#26337A"></path><path fill-rule="evenodd" clip-rule="evenodd" d="M70.7773 32.7843C71.1846 31.688 72.7352 27.4528 72.7352 27.4528C72.7065 27.5032 73.1403 26.348 73.3885 25.633L73.7202 27.2781C73.7202 27.2781 74.6633 31.8308 74.8576 32.7843C74.0924 32.7843 71.737 32.7843 70.7773 32.7843ZM76.8408 20.4922H73.0425C71.8643 20.4922 70.9825 20.8297 70.4664 22.0733L63.1675 39.5536H68.3297C68.3297 39.5536 69.1719 37.202 69.3631 36.686C69.9261 36.686 74.9422 36.6959 75.6581 36.6959C75.8054 37.3615 76.2566 39.5536 76.2566 39.5536H80.8184L76.8408 20.4922Z" fill="#26337A"></path><path fill-rule="evenodd" clip-rule="evenodd" d="M37.3668 20.4888L32.5562 33.4927L32.0409 30.8493C31.1445 27.8037 28.3539 24.5026 25.2325 22.8485L29.6335 39.5302L34.8351 39.5271L42.5751 20.4888H37.3668Z" fill="#26337A"></path><path fill-rule="evenodd" clip-rule="evenodd" d="M28.0905 20.4758H20.1647L20.0995 20.871C26.2667 22.451 30.3472 26.2648 32.0409 30.8494L30.3185 22.0851C30.0214 20.8764 29.1578 20.5181 28.0905 20.4758Z" fill="#EC982D"></path></svg> 