<?xml version="1.0" encoding="UTF-8"?> <svg xmlns="http://www.w3.org/2000/svg" width="500" height="450"><style type="text/css">.st0{fill:#224364;} .st1{fill:#124B89;} .st2{fill:#4075A8;} .st3{fill:#5AC0E8;} .st4{fill:#042B50;} .st5{fill:#FFFFFF;}</style><g><title>background</title><rect fill="none" id="canvas_background" height="452" width="502" y="-1" x="-1"></rect></g><g><title>Layer 1</title><g id="Layer_2"><g id="svg_1"><path id="svg_2" d="m114.299997,199.37796c45.4,-16.1 93.8,-23.1 141.9,-22.5c49.3,0.9 98.9,9.4 144.7,28.1c-0.1,17.1 0,34.2 0,51.3c-0.2,22.5 -11.9,44.4 -30.2,57.4c-30.7,21.6 -61.4,43.2 -92,64.9c-10.5,7.4 -23.9,10.6 -36.6,8.3c-8,-1.3 -15.4,-4.8 -21.9,-9.5c-29.7,-21 -59.5,-41.9 -89.2,-62.9c-18.9,-12.9 -31.1,-35.3 -31.3,-58.2c0,-17 0,-34.1 0,-51.1l0,-0.3c4.9,-1.7 9.7,-3.8 14.6,-5.5" class="st0"></path><path id="svg_3" d="m231.799997,4.47796c11.1,-5.8 24.9,-6 36.1,-0.4c47.2,22.9 94.4,45.7 141.5,68.6c13.1,6.4 22.1,20.5 22.1,35.2c0,19.5 0.1,38.9 -0.1,58.4c-7.5,-4.2 -15.2,-7.9 -23,-11.3c0,-15.4 0,-30.7 0,-46.1c0.2,-5.5 -2.5,-11.1 -7.1,-14.2c-2.9,-1.9 -6.1,-3.2 -9.2,-4.7c-44.7,-21.6 -89.4,-43.3 -134,-64.9c-4.9,-2.5 -10.9,-2.5 -15.7,0c-46.5,22.5 -93,45.1 -139.6,67.6c-6.4,2.7 -11,9.2 -10.8,16.3c0,15.4 0,30.7 0,46.1c-7.8,3.5 -15.6,7.1 -23,11.3c-0.2,-19.1 0,-38.3 -0.1,-57.5c-0.1,-10.6 4.1,-21.1 11.7,-28.6c5.6,-6 13.4,-8.9 20.6,-12.5c43.5,-21.1 87.1,-42.2 130.6,-63.3z" class="st1"></path><path id="svg_4" d="m114.299997,229.97796c45.4,-16.1 93.8,-23.1 141.9,-22.5c49.3,0.9 98.9,9.4 144.7,28.1c-0.1,17.1 0,34.2 0,51.3c-0.2,22.5 -11.9,44.4 -30.2,57.4c-30.7,21.6 -61.4,43.2 -92,64.9c-10.5,7.4 -23.9,10.6 -36.6,8.3c-8,-1.3 -15.4,-4.8 -21.9,-9.5c-29.7,-21 -59.5,-41.9 -89.2,-62.9c-18.9,-12.9 -31.1,-35.3 -31.3,-58.2c0,-17 0,-34.1 0,-51.1l0,-0.4c4.9,-1.6 9.7,-3.7 14.6,-5.4" class="st2"></path><path id="svg_5" d="m68.999997,249.87796c7.7,-3.6 15.2,-7.8 23.1,-11c0,16 0,32 0,48c0.4,25.2 13.4,49.8 34.1,64.1c28.5,20.1 57.1,40.2 85.6,60.3c4.6,3.2 9,6.6 14.1,9c14.7,7.1 32.6,7.4 47.5,0.6c5.8,-2.4 10.8,-6.3 16,-9.9c27.4,-19.3 54.8,-38.6 82.1,-57.9c22.6,-14.3 37.3,-40.4 37.1,-67.2c0,-15.7 0,-31.4 0,-47c7.9,3.3 15.4,7.4 23.1,11.1c0,12.6 0,25.2 0,37.9c-0.4,31.7 -16.7,62.5 -42.4,81c-30.5,21.5 -61,43 -91.5,64.5c-13.6,10 -30.5,15.8 -47.4,15.4c-16.7,0.3 -33.3,-5.4 -46.9,-15.1c-30.7,-21.7 -61.4,-43.3 -92.1,-64.9c-24.7,-17.9 -40.7,-47.3 -42.1,-77.9c-0.5,-13.7 -0.2,-27.4 -0.3,-41z" class="st1"></path><path id="svg_6" d="m245.499997,31.97796c2.8,-1.5 6.1,-1.8 8.9,-0.3c45.1,21.8 90.3,43.7 135.4,65.5c3,1.6 6.4,2.7 8.8,5.1c2.1,2.3 2.3,5.6 2.2,8.5c-0.1,13.6 0,27.3 0,40.9c-45.8,-18.7 -95.3,-27.4 -144.6,-28.1c-53.3,-0.5 -107.1,7.8 -156.5,28.2c0,-14.3 0,-28.6 0,-42.9c-0.3,-3.8 2.1,-7.4 5.5,-9c46.8,-22.7 93.5,-45.3 140.3,-67.9" class="st2"></path><g id="_x23_5ac0e8ff"><path id="svg_7" d="m99.699997,151.77796c49.4,-20.4 103.3,-28.7 156.5,-28.2c49.3,0.8 98.8,9.4 144.6,28.1c2.5,1.1 5.1,2.1 7.6,3.2c7.8,3.5 15.5,7.2 23,11.3c2.4,1.4 4.8,2.8 7.3,4.2c0,21.4 -0.1,42.8 0,64.2c-2.4,-1.4 -4.7,-2.9 -7.2,-4.1c-7.6,-3.9 -15.2,-7.8 -23.1,-11.2c-2.5,-1.1 -5,-2.1 -7.5,-3.1c-30.9,-12.7 -63.6,-20.7 -96.7,-24.9c-68.8,-8.2 -140,-1.3 -204.5,24.8c-2.6,1.1 -5.2,2.2 -7.8,3.3c-7.8,3.2 -15.2,7.5 -23,10.9c-0.1,5.4 0,10.8 -0.1,16.2c-22.9,0 -45.9,-0.2 -68.8,0.1l0,-0.3c10.5,-9.1 20.3,-19.1 30.5,-28.6c-10,-9.7 -20.2,-19.2 -30.2,-28.9c20,-0.1 40.1,0 60.1,0c0,15.6 0,31.3 0,46.9c2.3,0.4 4.7,0.9 7.1,1.3c0.9,-1.9 1,-4.1 0,-6c-1.9,1.3 -3.8,2.5 -5.7,3.7c0,-21.4 0,-42.8 -0.1,-64.1c2.4,-1.4 4.8,-2.8 7.2,-4.2c7.4,-4.2 15.2,-7.8 23,-11.3c2.7,-1.2 5.2,-2.3 7.8,-3.3" class="st3"></path><path id="svg_8" d="m440.299997,188.77796c20,0.2 40,-0.4 59.9,0.4l0,0.3c-3.6,2.1 -6.2,5.4 -9.2,8.1c-7.1,6.6 -13.9,13.5 -21.1,19.9c6.6,6.7 13.6,12.9 20.3,19.4c3.3,3.1 6.5,6.4 10,9.2l0,0.4c-22.9,-0.2 -45.8,-0.1 -68.7,-0.1c0,-3 0,-5.9 0,-8.9c2.9,-0.3 5.7,-0.8 8.5,-1.1c0.5,-15.9 0.1,-31.8 0.3,-47.6z" class="st3"></path></g><path id="svg_9" d="m69.099997,230.17796c7.8,-3.3 15.1,-7.6 23,-10.9c0,6.5 0,13 0,19.5c-7.9,3.2 -15.3,7.5 -23.1,11c0,-0.9 0,-2.6 0,-3.5c0,-5.3 -0.1,-10.7 0.1,-16.1z" class="st4"></path><path id="svg_10" d="m408.499997,219.27796c7.8,3.4 15.5,7.3 23.1,11.2c0,2.3 0,4.6 0,7c0,3 0,5.9 0,8.9c0,0.9 0,2.6 0,3.5c-7.7,-3.7 -15.2,-7.8 -23.1,-11.1c0,-6.5 0,-13 0,-19.5z" class="st4"></path><path id="svg_11" d="m105.999997,246.77796c96.2,-0.2 192.3,-0.1 288.5,-0.1c0.2,14.4 0.1,28.8 0.1,43.1c-0.9,15.8 -7.9,31.1 -19,42.3c-6.7,6.5 -14.7,11.4 -22.2,16.9c-26,18.3 -52.1,36.7 -78.1,55c-9.4,6.8 -21.7,9.4 -33,7.2c-7.2,-1.1 -13.6,-4.8 -19.4,-8.9c-29.7,-21 -59.4,-41.9 -89.1,-62.9c-13.2,-9.3 -22.8,-23.7 -26.2,-39.6c-2.4,-9.8 -1.4,-20 -1.6,-30c0,-7.7 -0.4,-15.3 0,-23" class="st1"></path></g></g><g id="Layer_3"><g id="svg_12"><path id="svg_13" d="m189.400006,239.1l-2.6,0l0,-10l-3.3,0l0,-2.1l9.2,0l0,2.1l-3.3,0l0,10z" class="st5"></path><path id="svg_14" d="m205.600006,233c0,2 -0.5,3.6 -1.5,4.6c-1,1.1 -2.4,1.6 -4.3,1.6s-3.3,-0.5 -4.3,-1.6c-1,-1.1 -1.5,-2.6 -1.5,-4.6c0,-2 0.5,-3.6 1.5,-4.6c1,-1.1 2.4,-1.6 4.3,-1.6s3.3,0.5 4.3,1.6c1,1.1 1.5,2.6 1.5,4.6zm-8.8,0c0,1.4 0.3,2.4 0.8,3.1s1.3,1 2.3,1c2.1,0 3.1,-1.4 3.1,-4.1c0,-2.7 -1,-4.1 -3.1,-4.1c-1,0 -1.8,0.3 -2.3,1c-0.6,0.8 -0.8,1.8 -0.8,3.1z" class="st5"></path><path id="svg_15" d="m216.500006,230.8c0,1.3 -0.4,2.3 -1.2,3c-0.8,0.7 -2,1 -3.5,1l-1.1,0l0,4.3l-2.6,0l0,-12.1l3.9,0c1.5,0 2.6,0.3 3.4,1c0.7,0.6 1.1,1.5 1.1,2.8zm-5.8,1.9l0.8,0c0.8,0 1.4,-0.2 1.8,-0.5s0.6,-0.8 0.6,-1.4c0,-0.6 -0.2,-1 -0.5,-1.3c-0.3,-0.3 -0.8,-0.4 -1.5,-0.4l-1.2,0l0,3.6z" class="st5"></path><path id="svg_16" d="m228.400006,229c-1,0 -1.7,0.4 -2.2,1.1s-0.8,1.7 -0.8,3c0,2.7 1,4.1 3,4.1c0.9,0 1.9,-0.2 3.1,-0.6l0,2.2c-1,0.4 -2.1,0.6 -3.3,0.6c-1.8,0 -3.1,-0.5 -4.1,-1.6c-0.9,-1.1 -1.4,-2.6 -1.4,-4.6c0,-1.3 0.2,-2.4 0.7,-3.3s1.1,-1.7 2,-2.2c0.9,-0.5 1.9,-0.8 3,-0.8c1.2,0 2.4,0.3 3.6,0.9l-0.8,2.1c-0.5,-0.2 -0.9,-0.4 -1.4,-0.6s-1,-0.3 -1.4,-0.3z" class="st5"></path><path id="svg_17" d="m245.100006,233c0,2 -0.5,3.6 -1.5,4.6c-1,1.1 -2.4,1.6 -4.3,1.6s-3.3,-0.5 -4.3,-1.6c-1,-1.1 -1.5,-2.6 -1.5,-4.6c0,-2 0.5,-3.6 1.5,-4.6c1,-1.1 2.4,-1.6 4.3,-1.6s3.3,0.5 4.3,1.6c1,1.1 1.5,2.6 1.5,4.6zm-8.9,0c0,1.4 0.3,2.4 0.8,3.1s1.3,1 2.3,1c2.1,0 3.1,-1.4 3.1,-4.1c0,-2.7 -1,-4.1 -3.1,-4.1c-1,0 -1.8,0.3 -2.3,1c-0.5,0.8 -0.8,1.8 -0.8,3.1z" class="st5"></path><path id="svg_18" d="m252.700006,239.1l-2.9,-9.5l-0.1,0c0.1,1.9 0.2,3.2 0.2,3.9l0,5.6l-2.3,0l0,-12.1l3.5,0l2.9,9.3l0,0l3,-9.3l3.5,0l0,12.1l-2.4,0l0,-5.7c0,-0.3 0,-0.6 0,-0.9c0,-0.4 0,-1.3 0.1,-2.8l-0.1,0l-3.1,9.5l-2.3,0l0,-0.1z" class="st5"></path><path id="svg_19" d="m272.000006,230.8c0,1.3 -0.4,2.3 -1.2,3c-0.8,0.7 -2,1 -3.5,1l-1.1,0l0,4.3l-2.6,0l0,-12.1l3.9,0c1.5,0 2.6,0.3 3.4,1s1.1,1.5 1.1,2.8zm-5.8,1.9l0.8,0c0.8,0 1.4,-0.2 1.8,-0.5c0.4,-0.3 0.6,-0.8 0.6,-1.4c0,-0.6 -0.2,-1 -0.5,-1.3s-0.8,-0.4 -1.5,-0.4l-1.2,0l0,3.6z" class="st5"></path><path id="svg_20" d="m281.700006,239.1l-0.9,-2.9l-4.4,0l-0.9,2.9l-2.8,0l4.3,-12.2l3.1,0l4.3,12.2l-2.7,0zm-1.5,-5c-0.8,-2.6 -1.3,-4.1 -1.4,-4.4c-0.1,-0.3 -0.2,-0.6 -0.2,-0.8c-0.2,0.7 -0.7,2.5 -1.6,5.3l3.2,0l0,-0.1z" class="st5"></path><path id="svg_21" d="m296.800006,239.1l-3.3,0l-5.3,-9.2l-0.1,0c0.1,1.6 0.2,2.8 0.2,3.5l0,5.7l-2.3,0l0,-12.1l3.2,0l5.3,9.1l0.1,0c-0.1,-1.6 -0.1,-2.7 -0.1,-3.3l0,-5.8l2.3,0l0,12.1z" class="st5"></path><path id="svg_22" d="m299.800006,239.1l0,-12.1l2.6,0l0,12.1l-2.6,0z" class="st5"></path><path id="svg_23" d="m312.500006,239.1l-7,0l0,-12.1l7,0l0,2.1l-4.4,0l0,2.7l4.1,0l0,2.1l-4.1,0l0,3.1l4.4,0l0,2.1z" class="st5"></path><path id="svg_24" d="m322.200006,235.7c0,1.1 -0.4,2 -1.2,2.6c-0.8,0.6 -1.9,0.9 -3.3,0.9c-1.3,0 -2.4,-0.2 -3.4,-0.7l0,-2.4c0.8,0.4 1.5,0.6 2.1,0.8c0.6,0.2 1.1,0.2 1.6,0.2c0.6,0 1,-0.1 1.3,-0.3c0.3,-0.2 0.5,-0.5 0.5,-1c0,-0.2 -0.1,-0.4 -0.2,-0.6s-0.3,-0.4 -0.6,-0.5c-0.3,-0.2 -0.8,-0.4 -1.6,-0.8c-0.7,-0.3 -1.3,-0.7 -1.7,-1s-0.7,-0.7 -0.9,-1.1c-0.2,-0.4 -0.3,-0.9 -0.3,-1.5c0,-1.1 0.4,-1.9 1.1,-2.5s1.7,-0.9 3,-0.9c0.6,0 1.2,0.1 1.8,0.2c0.6,0.1 1.2,0.4 1.8,0.6l-0.8,2c-0.6,-0.3 -1.2,-0.5 -1.6,-0.6c-0.4,-0.1 -0.8,-0.2 -1.2,-0.2c-0.5,0 -0.9,0.1 -1.1,0.3c-0.3,0.2 -0.4,0.5 -0.4,0.9c0,0.2 0.1,0.4 0.2,0.6c0.1,0.2 0.3,0.3 0.5,0.5c0.2,0.2 0.8,0.4 1.6,0.9c1.1,0.5 1.9,1.1 2.3,1.6c0.2,0.6 0.5,1.3 0.5,2z" class="st5"></path></g><g id="svg_25"><path id="svg_26" d="m241.900006,110.7l-11.1,0l0,-2.3l4,-4c1.2,-1.2 2,-2.1 2.3,-2.5s0.6,-0.9 0.8,-1.3s0.2,-0.8 0.2,-1.2c0,-0.6 -0.2,-1.1 -0.5,-1.4c-0.4,-0.3 -0.8,-0.5 -1.4,-0.5c-0.6,0 -1.2,0.1 -1.8,0.4c-0.6,0.3 -1.2,0.7 -1.8,1.2l-1.8,-2.2c0.8,-0.7 1.4,-1.1 1.9,-1.4c0.5,-0.3 1.1,-0.5 1.7,-0.6c0.6,-0.1 1.3,-0.2 2,-0.2c1,0 1.9,0.2 2.6,0.5c0.8,0.4 1.4,0.9 1.8,1.5c0.4,0.7 0.6,1.4 0.6,2.2c0,0.7 -0.1,1.4 -0.4,2.1c-0.3,0.6 -0.7,1.3 -1.2,2c-0.5,0.7 -1.5,1.6 -2.9,2.9l-2,1.9l0,0.2l6.9,0l0,2.7l0.1,0z" class="st5"></path><path id="svg_27" d="m254.500006,102.8c0,2.8 -0.5,4.8 -1.4,6.2c-0.9,1.3 -2.3,2 -4.2,2c-1.8,0 -3.2,-0.7 -4.2,-2.1c-0.9,-1.4 -1.4,-3.4 -1.4,-6.1c0,-2.8 0.5,-4.9 1.4,-6.2c0.9,-1.3 2.3,-2 4.2,-2c1.8,0 3.2,0.7 4.2,2.1c0.9,1.4 1.4,3.4 1.4,6.1zm-7.8,0c0,2 0.2,3.3 0.5,4.2c0.3,0.8 0.9,1.3 1.7,1.3c0.8,0 1.3,-0.4 1.7,-1.3s0.5,-2.2 0.5,-4.2c0,-2 -0.2,-3.4 -0.5,-4.2c-0.4,-0.9 -0.9,-1.3 -1.7,-1.3c-0.8,0 -1.4,0.4 -1.7,1.3c-0.3,0.8 -0.5,2.2 -0.5,4.2z" class="st5"></path><path id="svg_28" d="m267.300006,110.7l-11.1,0l0,-2.3l4,-4c1.2,-1.2 2,-2.1 2.3,-2.5c0.4,-0.5 0.6,-0.9 0.8,-1.3c0.2,-0.4 0.2,-0.8 0.2,-1.2c0,-0.6 -0.2,-1.1 -0.5,-1.4c-0.4,-0.3 -0.8,-0.5 -1.4,-0.5c-0.6,0 -1.2,0.1 -1.8,0.4c-0.6,0.3 -1.2,0.7 -1.8,1.2l-1.8,-2.2c0.8,-0.7 1.4,-1.1 1.9,-1.4c0.5,-0.3 1.1,-0.5 1.7,-0.6c0.6,-0.1 1.3,-0.2 2,-0.2c1,0 1.9,0.2 2.6,0.5c0.8,0.4 1.4,0.9 1.8,1.5s0.6,1.4 0.6,2.2c0,0.7 -0.1,1.4 -0.4,2.1s-0.7,1.3 -1.2,2c-0.5,0.7 -1.5,1.6 -2.9,2.9l-2,1.9l0,0.2l6.9,0l0,2.7l0.1,0z" class="st5"></path><path id="svg_29" d="m277.200006,110.7l-3.4,0l0,-9.2l0,-1.5l0.1,-1.7c-0.6,0.6 -0.9,0.9 -1.2,1.1l-1.8,1.5l-1.6,-2l5.1,-4.1l2.8,0l0,15.9z" class="st5"></path></g><g id="svg_30"><path id="svg_31" d="m155.500006,179.5l-4,1l-4.5,-8.1c-0.2,-0.3 -0.5,-0.9 -0.9,-1.8c-0.5,-0.9 -0.7,-1.5 -0.9,-1.9c0.1,0.4 0.1,1.1 0.2,2.1c0.1,1 0.1,1.6 0.1,2l0,9.3l-4,1l-8.5,-15.5l3.5,-0.9l4.5,8.5c0.8,1.6 1.4,3 1.9,4.1c-0.1,-0.4 -0.1,-1.1 -0.2,-2.1c-0.1,-0.9 -0.1,-1.7 -0.1,-2.2l0,-9.9l3.3,-0.9l4.8,8.7c0.2,0.4 0.5,1 0.9,1.8s0.7,1.5 0.9,2.1c-0.1,-0.6 -0.1,-1.4 -0.2,-2.3c-0.1,-0.9 -0.1,-1.7 -0.1,-2.3l-0.2,-9.6l3.5,-0.9l0,17.8z" class="st5"></path><path id="svg_32" d="m171.300006,176.1l-9.7,2l-3.5,-16.8l9.7,-2l0.6,2.9l-6.1,1.3l0.8,3.7l5.7,-1.2l0.6,2.9l-5.7,1.2l0.9,4.3l6.1,-1.3l0.6,3z" class="st5"></path><path id="svg_33" d="m171.800006,158.5l5.3,-0.9c2.4,-0.4 4.2,-0.4 5.4,0.1c1.2,0.5 1.9,1.5 2.2,3c0.2,1 0.1,1.9 -0.3,2.6c-0.4,0.7 -0.9,1.2 -1.7,1.5l0,0.1c1.1,0.1 2,0.4 2.5,0.9c0.6,0.6 1,1.4 1.2,2.5c0.3,1.5 -0.1,2.8 -1.1,3.9c-1,1.1 -2.4,1.7 -4.3,2.1l-6.3,1.1l-2.9,-16.9zm4.7,6.1l2.1,-0.4c1,-0.2 1.6,-0.4 2,-0.8c0.4,-0.4 0.5,-0.9 0.4,-1.6c-0.1,-0.6 -0.4,-1.1 -0.9,-1.3c-0.5,-0.2 -1.3,-0.2 -2.3,0l-1.9,0.3l0.6,3.8zm0.5,2.9l0.7,4.4l2.3,-0.4c1,-0.2 1.7,-0.5 2.1,-0.9c0.4,-0.5 0.5,-1.1 0.4,-1.9c-0.2,-1.4 -1.4,-1.9 -3.4,-1.6l-2.1,0.4z" class="st5"></path><path id="svg_34" d="m209.700006,161.8c0.3,2.8 -0.2,5 -1.7,6.7s-3.6,2.7 -6.7,3l-4.8,0.5l-1.9,-17l5.3,-0.6c2.8,-0.3 5,0.2 6.7,1.5s2.8,3.2 3.1,5.9zm-3.7,0.5c-0.4,-3.7 -2.2,-5.3 -5.5,-4.9l-1.9,0.2l1.2,11.1l1.5,-0.2c3.6,-0.4 5.1,-2.5 4.7,-6.2z" class="st5"></path><path id="svg_35" d="m223.900006,169.4l-9.8,0.7l-1.3,-17.1l9.8,-0.7l0.2,3l-6.2,0.5l0.3,3.8l5.8,-0.4l0.2,3l-5.8,0.4l0.3,4.4l6.2,-0.5l0.3,2.9z" class="st5"></path><path id="svg_36" d="m236.300006,151.7l3.7,-0.2l-5.1,17.4l-4,0.2l-6.5,-16.9l3.7,-0.2l3.7,10c0.2,0.6 0.4,1.3 0.6,2.1c0.2,0.8 0.4,1.3 0.4,1.7c0.1,-0.7 0.3,-2 0.7,-3.8l2.8,-10.3z" class="st5"></path><path id="svg_37" d="m252.700006,168.5l-9.9,0.1l-0.2,-17.1l9.9,-0.1l0,3l-6.2,0.1l0,3.8l5.8,-0.1l0,3l-5.8,0.1l0.1,4.4l6.2,-0.1l0.1,2.9z" class="st5"></path><path id="svg_38" d="m256.100006,168.5l0.3,-17.1l3.6,0.1l-0.2,14.1l6.9,0.1l0,3l-10.6,-0.2z" class="st5"></path><path id="svg_39" d="m285.500006,160.9c-0.1,2.8 -0.9,5 -2.4,6.4c-1.5,1.5 -3.5,2.1 -6.2,2c-2.6,-0.1 -4.6,-1 -5.9,-2.6s-1.9,-3.8 -1.8,-6.7c0.1,-2.8 0.9,-5 2.4,-6.4c1.5,-1.4 3.5,-2.1 6.2,-2c2.6,0.1 4.6,1 5.9,2.6c1.3,1.7 1.9,3.9 1.8,6.7zm-12.5,-0.6c-0.1,1.9 0.2,3.4 0.9,4.4c0.7,1 1.7,1.5 3.2,1.6c2.9,0.1 4.4,-1.7 4.6,-5.6c0.2,-3.9 -1.2,-5.9 -4,-6c-1.4,-0.1 -2.6,0.4 -3.3,1.3s-1.3,2.4 -1.4,4.3z" class="st5"></path><path id="svg_40" d="m301.200006,159.1c-0.2,1.8 -0.9,3.2 -2.1,4.1c-1.2,0.9 -2.9,1.2 -5,1l-1.6,-0.1l-0.5,6.1l-3.6,-0.3l1.5,-17.1l5.5,0.5c2.1,0.2 3.6,0.8 4.6,1.7c1,0.9 1.4,2.3 1.2,4.1zm-8.4,2l1.2,0.1c1.1,0.1 2,-0.1 2.6,-0.4c0.6,-0.4 0.9,-1 1,-1.8c0.1,-0.8 -0.1,-1.5 -0.5,-1.9c-0.4,-0.4 -1.1,-0.7 -2.1,-0.8l-1.6,-0.1l-0.6,4.9z" class="st5"></path><path id="svg_41" d="m310.500006,172l-2.3,-13.9l-0.1,0c-0.2,2.7 -0.4,4.5 -0.5,5.5l-1,7.9l-3.2,-0.4l2.2,-17l4.9,0.6l2.3,13.5l0.1,0l6,-12.4l4.9,0.6l-2.2,17l-3.5,-0.4l1.1,-8c0,-0.4 0.1,-0.8 0.2,-1.3c0.1,-0.5 0.3,-1.8 0.7,-3.9l-0.1,0l-6.1,12.7l-3.4,-0.5z" class="st5"></path><path id="svg_42" d="m335.200006,175.9l-9.7,-1.7l3,-16.9l9.7,1.7l-0.5,2.9l-6.1,-1.1l-0.7,3.7l5.7,1l-0.5,2.9l-5.7,-1l-0.8,4.4l6.1,1.1l-0.5,3z" class="st5"></path><path id="svg_43" d="m353.400006,179.8l-4.5,-1l-4.5,-14.3l-0.1,0c-0.4,2.3 -0.6,3.9 -0.8,4.8l-1.7,7.9l-3.2,-0.7l3.7,-16.7l4.5,1l4.5,14.1l0.1,0c0.4,-2.2 0.6,-3.7 0.8,-4.6l1.8,-7.9l3.2,0.7l-3.8,16.7z" class="st5"></path><path id="svg_44" d="m363.800006,182.6l-3.5,-0.9l3.7,-13.6l-4.5,-1.2l0.8,-2.9l12.5,3.4l-0.8,2.9l-4.5,-1.2l-3.7,13.5z" class="st5"></path></g><path id="svg_45" d="m258.400006,365.5l10.6,0l-5.4,9.2l5.4,9.2l-10.6,0l-5.3,9.1l-5.3,-9.2l-10.6,0l5.4,-9.2l-5.4,-9.2l10.6,0l5.3,-9.2l5.3,9.3z" class="st5"></path><path id="svg_46" d="m308.200006,343.9l6.6,0l-3.3,5.7l3.3,5.7l-6.6,0l-3.3,5.7l-3.3,-5.7l-6.6,0l3.3,-5.7l-3.3,-5.7l6.6,0l3.3,-5.7l3.3,5.7z" class="st5"></path><path id="svg_47" d="m204.200006,343.9l6.6,0l-3.3,5.7l3.3,5.7l-6.6,0l-3.3,5.7l-3.3,-5.7l-6.6,0l3.3,-5.7l-3.3,-5.7l6.6,0l3.3,-5.7l3.3,5.7z" class="st5"></path><g id="svg_48"><g id="_x23_ffffffff"><path id="svg_49" d="m262.600006,273.6c0.2,0.4 0.4,0.8 0.6,1.2c0.5,0.1 0.9,0.2 1.4,0.3c-0.3,0.3 -0.7,0.6 -1,0.9c0.1,0.3 0.2,1 0.2,1.4c-0.3,-0.2 -0.9,-0.5 -1.2,-0.7c-0.4,0.2 -0.8,0.4 -1.2,0.6c0.1,-0.5 0.1,-0.9 0.2,-1.4c-0.3,-0.3 -0.7,-0.6 -1,-0.9c0.5,-0.1 0.9,-0.2 1.4,-0.3c0.2,-0.3 0.4,-0.7 0.6,-1.1z" class="st5"></path><path id="svg_50" d="m258.100006,277.4c0.1,-1 1.2,-0.8 1.9,-1c0,0.2 0,0.4 0.1,0.7c-0.7,0.1 -1.3,0.2 -2,0.3z" class="st5"></path><path id="svg_51" d="m265.400006,276.4c0.7,0.2 1.3,0.3 1.9,0.6c-0.4,0.9 -1.4,0.1 -2.1,0.1c0.2,-0.3 0.2,-0.5 0.2,-0.7z" class="st5"></path><path id="svg_52" d="m254.800006,278.4c0.6,-0.3 1.1,-0.6 1.7,-0.9c0.1,0.2 0.2,0.4 0.3,0.6c-0.7,0.1 -1.5,1.3 -2,0.3z" class="st5"></path><path id="svg_53" d="m268.900006,277.6c0.6,0.3 1.2,0.6 1.7,1c-0.6,0.8 -1.3,-0.2 -2,-0.4c0.1,-0.3 0.2,-0.4 0.3,-0.6z" class="st5"></path><path id="svg_54" d="m252.100006,281.2c0,-0.8 0.9,-1.3 1.4,-1.8c0.6,0.9 -0.7,1.5 -1.4,1.8z" class="st5"></path><path id="svg_55" d="m272.000006,279.6c0.4,0.5 1.6,1 1,1.8c-0.5,-0.4 -0.9,-0.9 -1.4,-1.3c0.1,-0.1 0.3,-0.4 0.4,-0.5z" class="st5"></path><path id="svg_56" d="m252.600006,286.6c1.4,-3.8 5,-6.6 9.1,-7c3.6,-0.4 7.2,1.2 9.4,4c1.7,2.1 2.5,5 2.3,7.7c-0.2,1.9 -1,3.7 -2.1,5.3c-1.3,0 -2.6,0 -3.9,0c-1.2,1.4 -2.4,2.8 -3.6,4.2c0,0 -0.1,0.1 -0.1,0.1c-0.7,0 -1.3,0.1 -2,-0.1c0.7,0 1.3,-0.1 2,-0.3c-0.1,-1.4 -0.1,-2.9 -0.1,-4.3c-1.4,-1.4 -2.9,-2.8 -4.3,-4.2c1.9,0 3.9,0 5.8,0c0.6,-1.6 1.2,-3.2 1.8,-4.8c0.9,1.6 1.6,3.2 2.3,4.9c1.3,0 2.7,0 4.1,0c0.1,-0.5 0.1,-1.1 0.2,-1.6c-1,-0.5 -2.3,-0.7 -2.8,-1.8c-1.4,-2.5 -2.7,-5.1 -4.2,-7.5c-1,2.8 -2.1,5.6 -3.1,8.4c-3,0 -6,-0.1 -9,-0.1c2,2.6 4.4,5 6.4,7.6c0.4,1.1 0.2,2.4 0.3,3.6c-2.2,-0.5 -4.3,-1.4 -5.9,-3c-3,-2.7 -4,-7.3 -2.6,-11.1z" class="st5"></path><path id="svg_57" d="m248.500006,281.2c0.7,0.6 1.3,1.3 1.7,2.2c0.3,-0.4 0.8,-1.7 1.2,-0.8c-0.3,0.5 -0.6,1 -1,1.5c0.3,1.5 0,3.1 -0.8,4.3c-2.1,-1.6 -2.6,-4.9 -1.1,-7.2z" class="st5"></path><path id="svg_58" d="m275.200006,283.5c0.4,-0.9 1,-1.7 1.7,-2.3c1.5,2.3 1,5.6 -1.2,7.3c-0.8,-1.2 -1,-2.7 -0.9,-4.1c-0.2,-0.7 -0.8,-1.3 -1.1,-2c0.9,-0.1 1.1,0.6 1.5,1.1z" class="st5"></path><path id="svg_59" d="m246.400006,286.5c2.7,0.8 4.2,3.8 3.5,6.5c-2.6,-0.9 -4.2,-3.9 -3.5,-6.5z" class="st5"></path><path id="svg_60" d="m275.500006,293c-0.7,-2.7 0.9,-5.7 3.5,-6.5c0.7,2.6 -0.9,5.6 -3.5,6.5z" class="st5"></path><path id="svg_61" d="m246.100006,292.1c1.6,0.1 3.1,0.7 4.1,1.9c0.8,0.9 1,2 1.3,3.1c-2.6,0.1 -5.2,-2.3 -5.4,-5z" class="st5"></path><path id="svg_62" d="m273.800006,297.1c0.3,-2.7 2.7,-5 5.4,-5c-0.1,2.7 -2.6,5.1 -5.4,5z" class="st5"></path><path id="svg_63" d="m247.700006,297.4c2.6,-0.8 5.7,0.5 6.7,3.1c-2.5,0.8 -5.7,-0.5 -6.7,-3.1z" class="st5"></path><path id="svg_64" d="m270.900006,300.5c1.1,-2.6 4.1,-3.9 6.7,-3.1c-0.9,2.6 -4.1,3.9 -6.7,3.1z" class="st5"></path><path id="svg_65" d="m251.000006,302c2.2,-1.6 5.5,-1.4 7.3,0.7c-2.1,1.7 -5.6,1.5 -7.3,-0.7z" class="st5"></path><path id="svg_66" d="m267.000006,302.8c1.8,-2.1 5.1,-2.3 7.3,-0.7c-1.6,2.1 -5.1,2.3 -7.3,0.7z" class="st5"></path><path id="svg_67" d="m255.600006,305.4c1.3,-1.8 3.6,-2.8 5.8,-2.3c0.5,0.2 1.3,0.1 1.1,0.8c-0.7,1.4 -2.4,1.8 -3.8,2.1c-1.1,0.2 -2.2,-0.2 -3.1,-0.6z" class="st5"></path><path id="svg_68" d="m263.000006,303.4c2.4,-1 5.3,-0.1 6.8,2c-1.7,1.1 -3.9,0.8 -5.6,-0.2c-0.5,-0.3 -1.1,-0.7 -1.3,-1.3c0.1,-0.1 0.1,-0.4 0.1,-0.5z" class="st5"></path><path id="svg_69" d="m202.400006,304.7c1.8,0 3.6,0 5.4,0c0,8.1 0,16.2 0,24.3c-1.8,0 -3.6,0 -5.4,0l0,-24.3z" class="st5"></path><path id="svg_70" d="m208.700006,304.6c8,0 16.1,0 24.1,0c3.6,0.1 7.2,0.1 10.8,0.5c0,1.5 0,3 0,4.5c-2.9,0 -5.8,0 -8.7,0c-0.7,0 -1.6,0 -2,0.7c-0.3,1.1 -0.1,2.2 -0.1,3.4c3.1,0 6.3,0 9.4,0c0,1.9 0,3.9 0,5.8c-3.1,0 -6.3,0 -9.4,0c0,3.1 0,6.2 0,9.4c-1.8,0 -3.6,0 -5.4,0c0,-6.5 0,-12.9 0,-19.4c-2.3,0 -4.5,0 -6.8,0c0,6.4 0,12.9 0,19.3c-1.8,0 -3.6,0 -5.4,0c0,-6.4 0,-12.9 0,-19.3c-2.1,0 -4.2,0 -6.3,0c-0.2,-1.6 -0.2,-3.2 -0.2,-4.9z" class="st5"></path><path id="svg_71" d="m244.400006,304.7c1.2,-0.3 2.4,-0.1 3.6,-0.2c0.5,0.1 1.6,-0.1 1.6,0.7c0,1.4 0.3,2.9 -0.2,4.2c-1.6,0.2 -3.3,0.1 -5,0.1c-0.1,-0.1 -0.3,-0.2 -0.3,-0.3c-0.1,-1.4 -0.2,-2.9 0,-4.4l0.3,-0.1z" class="st5"></path><path id="svg_72" d="m260.900006,308c-0.3,-1.4 0.5,-2.8 1.8,-3.3c1.3,0.6 2.1,1.9 1.8,3.3c-0.9,-0.3 -1.4,-1 -1.8,-1.7c-0.4,0.7 -1,1.4 -1.8,1.7z" class="st5"></path><path id="svg_73" d="m256.200006,313.5c1.5,-1.9 3.9,-2.8 6.3,-2.2c0,1.8 0,3.5 0,5.3c-1.5,-0.1 -3,-0.2 -4.4,0.1c-1.1,0.3 -2,1.4 -1.9,2.5c0,3.2 0,6.5 0,9.7c-1.8,0 -3.6,0 -5.4,0c0,-5.9 0,-11.7 0,-17.6c1.6,0 3.1,0 4.7,0c0.2,0.7 0.5,1.5 0.7,2.2z" class="st5"></path><path id="svg_74" d="m268.600006,313.1c1.6,-1.5 3.9,-2.4 6.1,-2c1.4,0.1 2.8,0.8 3.5,2c2.4,-1.7 5.6,-2.8 8.5,-1.6c1.9,0.8 2.5,3.1 2.6,5c0.1,4.1 0,8.3 0,12.4c-1.8,0 -3.6,0 -5.4,0c0,-3.9 0,-7.8 0,-11.7c0,-0.7 -0.2,-1.6 -0.9,-1.9c-1.5,-0.3 -3,0.1 -4.2,1.1c0.1,4.2 0,8.4 0,12.5c-1.8,0 -3.6,0 -5.4,0c0,-3.9 0,-7.8 0,-11.7c0,-0.7 -0.2,-1.6 -0.9,-1.9c-1.5,-0.4 -3,0.2 -4,1.2c0,4.1 0,8.3 0,12.4c-1.8,0 -3.6,0 -5.4,0c0,-5.9 0,-11.7 0,-17.6c1.5,0 2.9,0 4.4,0c0.4,0.6 0.7,1.2 1.1,1.8z" class="st5"></path><path id="svg_75" d="m291.200006,312.3c1.4,-1.4 3.5,-1.1 5.3,-1.1c2.6,0.1 5.2,-0.1 7.7,0.9c0,1.1 0,2.3 0,3.4c-2.9,0.1 -5.9,-0.3 -8.8,0.2c0.1,0.7 -0.2,1.5 0.3,2c2.6,0.4 5.5,-0.6 7.8,1c1.7,1.3 1.5,3.7 1.5,5.6c0.1,1.6 -0.5,3.4 -2,4.2c-1.6,0.8 -3.4,0.4 -5.2,0.5c-2.4,-0.1 -4.9,0.1 -7.1,-1c-0.2,-1.1 0,-2.2 0,-3.3c2.4,0 4.7,0 7.1,0c0.5,0 1.1,0.1 1.6,-0.2c0.3,-0.6 0.3,-1.5 -0.1,-2c-2.4,-0.4 -4.9,0.4 -7.2,-0.7c-1.5,-0.7 -2.2,-2.4 -2.2,-3.9c0,-1.9 -0.2,-4.1 1.3,-5.6z" class="st5"></path><path id="svg_76" d="m244.200006,311.4c1.8,0 3.6,0 5.4,0c0,5.9 0,11.7 0,17.6c-1.8,0 -3.6,0 -5.4,0c0,-5.9 0,-11.8 0,-17.6z" class="st5"></path></g><g id="_x23_4a5c6bff"><path id="svg_77" d="m266.400006,281.4c1.5,2.4 2.8,5 4.2,7.5c0.5,1.1 1.8,1.3 2.8,1.8c-0.1,0.5 -0.1,1.1 -0.2,1.6c-1.4,0 -2.7,0 -4.1,0c-0.7,-1.6 -1.4,-3.3 -2.3,-4.9c-0.6,1.6 -1.2,3.2 -1.8,4.8c-1.9,0 -3.9,0 -5.8,0c1.5,1.4 2.9,2.7 4.3,4.2c0,1.4 0,2.9 0.1,4.3c-0.6,0.2 -1.3,0.2 -2,0.3c-0.2,0 -0.5,-0.1 -0.6,-0.1c-0.1,-1.2 0.2,-2.5 -0.3,-3.6c-2,-2.6 -4.4,-5 -6.4,-7.6c3,0 6,0.1 9,0.1c1.1,-2.8 2.1,-5.6 3.1,-8.4z" class="st1"></path><path id="svg_78" d="m263.800006,300.9c1.2,-1.4 2.4,-2.8 3.6,-4.2c1.3,0 2.6,0 3.9,0c-1.7,2.4 -4.5,4.1 -7.5,4.2z" class="st1"></path></g></g></g></g></svg> 