<svg xmlns="http://www.w3.org/2000/svg" id="Layer_1" data-name="Layer 1" viewBox="0 0 138.9 131.22"><defs><style>.cls-1{fill:#ef4753}</style></defs><path class="cls-1" d="M89.4 168.65a54.81 54.81 0 1154.81-54.81 54.88 54.88 0 01-54.81 54.81zM89.4 62a51.81 51.81 0 1051.81 51.81A51.87 51.87 0 0089.4 62z" transform="translate(-34.59 -37.43)"/><path class="cls-1" d="M89.4 148.75a34.91 34.91 0 1134.91-34.91 34.95 34.95 0 01-34.91 34.91zm0-66.82a31.91 31.91 0 1031.91 31.91A31.95 31.95 0 0089.4 81.93z" transform="translate(-34.59 -37.43)"/><path class="cls-1" d="M89.4 129.11a15.27 15.27 0 1115.27-15.27 15.29 15.29 0 01-15.27 15.27zm0-27.54a12.27 12.27 0 1012.27 12.27 12.28 12.28 0 00-12.27-12.27z" transform="translate(-34.59 -37.43)"/><path class="cls-1" d="M89.4 120.34a6.5 6.5 0 116.5-6.5 6.51 6.51 0 01-6.5 6.5zm0-10a3.5 3.5 0 103.5 3.5 3.5 3.5 0 00-3.5-3.5zm12.31-9.93a6.5 6.5 0 116.5-6.5 6.5 6.5 0 01-6.5 6.5zm0-10a3.5 3.5 0 103.5 3.5 3.51 3.51 0 00-3.5-3.5zm-34.82-7.64a6.5 6.5 0 116.5-6.5 6.5 6.5 0 01-6.5 6.5zm0-10a3.5 3.5 0 103.5 3.5 3.5 3.5 0 00-3.5-3.5zm64.5-18.37h-6.62a5.19 5.19 0 01-5.18-5.18v-6.61a5.19 5.19 0 015.18-5.18h6.62a5.18 5.18 0 015.18 5.18v6.61a5.18 5.18 0 01-5.18 5.18zm-6.62-14a2.19 2.19 0 00-2.18 2.18v6.61a2.19 2.19 0 002.18 2.18h6.62a2.19 2.19 0 002.18-2.18v-6.58a2.19 2.19 0 00-2.18-2.18zm25.08 14h-6.61a5.18 5.18 0 01-5.18-5.18v-6.61a5.18 5.18 0 015.18-5.18h6.61a5.18 5.18 0 015.15 5.18v6.61a5.18 5.18 0 01-5.15 5.18zm-6.61-14a2.18 2.18 0 00-2.18 2.18v6.61a2.18 2.18 0 002.18 2.18h6.61a2.19 2.19 0 002.15-2.15v-6.61a2.19 2.19 0 00-2.18-2.18zm25.07 14h-6.61a5.18 5.18 0 01-5.18-5.18v-6.61a5.18 5.18 0 015.18-5.18h6.61a5.18 5.18 0 015.18 5.18v6.61a5.18 5.18 0 01-5.18 5.18zm-6.61-14a2.19 2.19 0 00-2.18 2.18v6.61a2.19 2.19 0 002.18 2.18h6.61a2.19 2.19 0 002.18-2.18v-6.58a2.19 2.19 0 00-2.18-2.18z" transform="translate(-34.59 -37.43)"/><path class="cls-1" d="M120.72 76.77h-5.14a1.5 1.5 0 010-3h5.14a5.9 5.9 0 001.46-.18 1.5 1.5 0 11.76 2.9 8.72 8.72 0 01-2.22.28zm-12.14 0h-7a1.5 1.5 0 010-3h7a1.5 1.5 0 010 3zm-14 0h-7a1.5 1.5 0 010-3h7a1.5 1.5 0 010 3zm-14 0h-7a1.5 1.5 0 010-3h7a1.5 1.5 0 010 3zm47-4.75a1.34 1.34 0 01-.52-.1 1.49 1.49 0 01-.89-1.92 5.89 5.89 0 00.35-2v-4.43a1.5 1.5 0 013 0V68a8.64 8.64 0 01-.54 3 1.49 1.49 0 01-1.43 1zm.42-13.95a1.5 1.5 0 01-1.5-1.5v-3.32a1.5 1.5 0 013 0v3.32a1.5 1.5 0 01-1.5 1.5zm8.39 37.34h-.68a1.5 1.5 0 010-3h.68a8.74 8.74 0 005.06-1.6 1.5 1.5 0 111.73 2.45 11.68 11.68 0 01-6.79 2.15zm-7.68 0h-7a1.5 1.5 0 010-3h7a1.5 1.5 0 010 3zm-14 0h-7a1.5 1.5 0 010-3h7a1.5 1.5 0 110 3zm31.57-7.48a1.45 1.45 0 01-.41-.06 1.5 1.5 0 01-1-1.85 8.64 8.64 0 00.33-2.37v-4.19a1.5 1.5 0 013 0v4.19a11.74 11.74 0 01-.44 3.18 1.49 1.49 0 01-1.48 1.1zm.38-14a1.5 1.5 0 01-1.5-1.5v-7a1.5 1.5 0 013 0v7a1.5 1.5 0 01-1.5 1.57zm0-14a1.5 1.5 0 01-1.5-1.5v-5a1.5 1.5 0 113 0v5a1.5 1.5 0 01-1.5 1.57zm-4.77 55.41h-4.49a1.5 1.5 0 010-3h4.49a20.27 20.27 0 002.34-.13 1.5 1.5 0 11.33 3 26.53 26.53 0 01-2.67.13zm-11.49 0h-7a1.5 1.5 0 010-3h7a1.5 1.5 0 010 3zm-14 0h-7a1.5 1.5 0 010-3h7a1.5 1.5 0 010 3zm-14 0h-7a1.5 1.5 0 010-3h7a1.5 1.5 0 010 3zm48.73-1.93a1.5 1.5 0 01-.6-2.87 21.77 21.77 0 005.51-3.49 1.5 1.5 0 012 2.26 24.73 24.73 0 01-6.28 4 1.57 1.57 0 01-.63.1zm10.4-9a1.52 1.52 0 01-.79-.22 1.51 1.51 0 01-.49-2.06 21.65 21.65 0 002.54-6 1.5 1.5 0 012.91.74 24.52 24.52 0 01-2.89 6.84 1.51 1.51 0 01-1.28.65zM164.94 91a1.5 1.5 0 01-1.5-1.5v-7a1.5 1.5 0 013 0v7a1.5 1.5 0 01-1.5 1.5zm0-14a1.5 1.5 0 01-1.5-1.5v-7a1.5 1.5 0 013 0v7a1.5 1.5 0 01-1.5 1.5zm0-14a1.5 1.5 0 01-1.5-1.5v-7a1.5 1.5 0 013 0v7a1.5 1.5 0 01-1.5 1.5zm-85.15-1l-2.68-1.35 6.71-13.31a5.57 5.57 0 019.89-.13l7 13-2.65 1.39-7-13a2.54 2.54 0 00-2.27-1.36 2.56 2.56 0 00-2.27 1.42z" transform="translate(-34.59 -37.43)"/></svg>