<svg xmlns="http://www.w3.org/2000/svg" id="Layer_1" data-name="Layer 1" viewBox="0 0 109.57 118.28"><defs><style>.cls-1{fill:#ef4753}</style></defs><path class="cls-1" d="M84.54 97.86L76.92 97l-.57-5.65a18.69 18.69 0 01-3.89-2.15l-5.09 2.5-4.77-6 3.59-4.39A18.21 18.21 0 0165 77l-5.4-1.81.87-7.62 5.65-.57a18.22 18.22 0 012.06-3.75l-2.54-5.15 6-4.77L76 56.92a18.24 18.24 0 014.39-1.27l1.82-5.38 7.63.87.56 5.65a18.44 18.44 0 013.89 2.15l5.09-2.51 4.78 6-3.6 4.39a18.21 18.21 0 011.22 4.28l5.38 1.82-.88 7.63-5.65.56a18.18 18.18 0 01-2.23 4l2.51 5.08-6 4.77-4.44-3.64a18 18 0 01-4.13 1.16zm-4.88-3.58l2.82.33 1.65-4.88 1-.1a15.48 15.48 0 005-1.41l.86-.4 4 3.29 2.22-1.76-2.31-4.62.61-.75a15.55 15.55 0 002.66-4.75l.32-.91 5.12-.51.32-2.81-4.87-1.65-.1-1a15.63 15.63 0 00-1.47-5.14l-.42-.86 3.26-4-1.76-2.22L94 62.47l-.75-.6a15.5 15.5 0 00-4.67-2.59l-.95-.28-.51-5.11-2.81-.33-1.66 4.84-1 .1a15.6 15.6 0 00-5.18 1.5l-.86.43-4-3.27-2.21 1.78 2.3 4.67-.59.74a15.79 15.79 0 00-2.5 4.55l-.31.91-5.13.51-.32 2.81 4.87 1.65.1 1a15.88 15.88 0 001.47 5.14l.42.86-3.26 4 1.76 2.21 4.62-2.27.74.6a15.43 15.43 0 004.68 2.59l.9.32zm3.76-7.61a14.28 14.28 0 01-1.42-.08 12.62 12.62 0 111.46.08zm0-22.21A9.6 9.6 0 0075.87 80a9.6 9.6 0 107.51-15.58zm41.15 57.7l-5.46-.62-.34-3.44a10.67 10.67 0 01-1.75-1l-3.1 1.53-3.41-4.3 2.19-2.67a10.54 10.54 0 01-.55-1.92l-3.27-1.11.62-5.45 3.44-.35a11.62 11.62 0 01.91-1.66l-1.54-3.14 4.3-3.41 2.66 2.18a12.28 12.28 0 012-.58l1.1-3.22 5.45.63.34 3.43a11.47 11.47 0 011.75 1l3.1-1.53 3.41 4.3-2.18 2.67a12 12 0 01.55 1.92l3.26 1.11-.62 5.46-3.44.34a11.36 11.36 0 01-1 1.8l1.53 3.09-4.3 3.42-2.71-2.22a10.5 10.5 0 01-1.82.52zm-2.71-3.33l.64.07.94-2.75 1-.1a8.55 8.55 0 002.72-.76l.86-.41 2.27 1.86.51-.41-1.29-2.61.61-.75a8.53 8.53 0 001.45-2.58l.31-.91 2.89-.29.08-.64-2.75-.94-.1-1a8.74 8.74 0 00-.8-2.8l-.42-.86 1.84-2.25-.41-.51-2.6 1.29-.74-.6a8.39 8.39 0 00-2.55-1.41l-.91-.32-.28-2.89-.65-.07-.98 2.81-1 .1a8.53 8.53 0 00-2.84.83l-.87.43-2.25-1.85-.51.41 1.3 2.63-.59.74a8.59 8.59 0 00-1.37 2.48l-.31.9-2.89.29-.07.65 2.74.93.11 1a8.48 8.48 0 00.79 2.8l.42.86-1.84 2.25.41.51 2.6-1.28.75.6a8.56 8.56 0 002.54 1.41l.91.31zM87.8 156.88l-6.29-2.45.74-4.67a15.76 15.76 0 01-2.46-2.37l-4.64 1-2.71-6.18 3.83-2.78a15 15 0 01-.07-3.43l-4-2.61 2.45-6.29 4.67.74a15.85 15.85 0 012.26-2.37l-.95-4.7 6.22-2.77 2.78 3.82a15.26 15.26 0 013.51-.08l2.61-4 6.29 2.45-.75 4.67a14.91 14.91 0 012.47 2.36l4.64-.94 2.71 6.17-3.83 2.78a15.64 15.64 0 01.07 3.42l4 2.61-2.45 6.28-4.68-.74a15.36 15.36 0 01-2.44 2.53l1 4.63-6.18 2.71-2.81-3.88a16.35 16.35 0 01-3.28.06zm-3-4.37l1.78.69 2.42-3.5 1 .15a12.55 12.55 0 004.19-.08l.93-.17 2.39 3.4 1.74-.77-.83-4.12.78-.56a12.55 12.55 0 003-3.16l.54-.8 4.14.66.69-1.78-3.5-2.31.15-.95a12.48 12.48 0 00-.09-4.31l-.13-.9 3.39-2.46-.77-1.75-4.11.84-.56-.78a12.63 12.63 0 00-3.12-3l-.8-.53.66-4.15-1.77-.69L94.6 125l-.95-.14a12.7 12.7 0 00-4.39.11l-1 .19-2.47-3.4-1.74.77.84 4.15-.76.57a12.62 12.62 0 00-2.88 3l-.54.79-4.14-.66-.7 1.78 3.5 2.32-.14.94a12.54 12.54 0 00.09 4.32l.18.94-3.39 2.46.76 1.75 4.11-.84.57.77a12.45 12.45 0 003.12 3l.79.54zm6.93-8.18a7 7 0 112.8-.59 6.87 6.87 0 01-2.75.59zm0-11a4.07 4.07 0 00-1.6.34 4 4 0 00-2 5.25 4 4 0 005.25 2 4 4 0 00-.16-7.35 3.85 3.85 0 00-1.45-.21z" transform="translate(-49.64 -44.3)"/><path class="cls-1" d="M97.94 77.01l-1.65-2.51 8.06-5.28-7.75-5.8 1.8-2.4 11.18 8.36-11.64 7.63z"/><path class="cls-1" d="M93.85 162.58h-1.09c-11.46-.51-20.21-5.21-24.63-13.23-4.17-7.58-3.71-17.27 1.24-25.94 4.11-7.18 12.17-13.44 21.5-20.68 2.23-1.73 4.53-3.52 6.87-5.39 10.2-8.16 14.57-20.69 11.13-31.93-3.15-10.28-12.3-17-24.47-18a23.22 23.22 0 00-17.7 5.46 31 31 0 00-10 19.36c-.06.86-.2 1.68-.33 2.47s-.23 1.37-.28 2v.21c-.25 3.5-.75 9.94-5.09 12.09l-1.34-2.68c2.84-1.42 3.27-7 3.48-9.64v-.22c.06-.79.19-1.56.31-2.3s.25-1.46.3-2.16a34.29 34.29 0 0111-21.44c5.47-4.73 12.17-6.8 19.9-6.18 13.45 1.08 23.58 8.6 27.1 20.11 3.8 12.41-1 26.21-12.13 35.14-2.34 1.88-4.66 3.68-6.9 5.42-9.08 7-16.92 13.13-20.73 19.8-4.43 7.75-4.89 16.35-1.22 23 3.9 7.07 11.76 11.22 22.14 11.68s17.22-6.45 20-13.08c3.69-8.67 1.92-18.23-4.52-24.33-7.83-7.44-7-17.62-2.62-24.42a20 20 0 0124.82-7.91c7.44 2.93 10.5 10.08 12.73 15.31a22.39 22.39 0 002.77 5.32c1.35 1.52 6.25 1.88 9.3 1.65l.23 3c-.9.07-8.9.58-11.78-2.65a23.61 23.61 0 01-3.27-6.14c-2.14-5-4.8-11.22-11.08-13.69-10-3.93-17.64 1.17-21.19 6.73-3.67 5.76-4.43 14.37 2.16 20.63 7.35 7 9.4 17.84 5.21 27.69-3.92 9.3-12.22 14.94-21.82 14.94z" transform="translate(-49.64 -44.3)"/></svg>