<svg xmlns="http://www.w3.org/2000/svg" id="Layer_1" data-name="Layer 1" viewBox="0 0 108.75 125.93"><defs><style>.cls-1{fill:#ef4753}</style></defs><path class="cls-1" d="M104.59 88.53a24.09 24.09 0 1124.09-24.09 24.12 24.12 0 01-24.09 24.09zm0-45.18a21.09 21.09 0 1021.09 21.09 21.11 21.11 0 00-21.09-21.09z" transform="translate(-49.52 -40.35)"/><path class="cls-1" d="M105 74.47c-6.32 0-11.45-5.85-11.45-13s5.13-13 11.45-13 11.45 5.85 11.45 13-5.19 13-11.45 13zm0-23.07c-4.66 0-8.45 4.51-8.45 10s3.79 10 8.45 10 8.45-4.5 8.45-10-3.84-10-8.45-10z" transform="translate(-49.52 -40.35)"/><path class="cls-1" d="M91.55 82.23l-1.92-2.3a24 24 0 018.78-4.2 1.52 1.52 0 001.12-1.17l.66-3.46 3 .57-.66 3.46a4.53 4.53 0 01-3.31 3.5 21.78 21.78 0 00-7.67 3.6zm27.45-.81a43.32 43.32 0 00-8.34-3 4.52 4.52 0 01-3.44-3.36l-.82-3.46 2.92-.68.82 3.45a1.47 1.47 0 001.15 1.11 45.9 45.9 0 019 3.25zm-45.39 84.85a24.09 24.09 0 1124.1-24.09 24.12 24.12 0 01-24.1 24.09zm0-45.18a21.09 21.09 0 1021.1 21.09 21.11 21.11 0 00-21.1-21.09z" transform="translate(-49.52 -40.35)"/><path class="cls-1" d="M74 152.21c-6.31 0-11.45-5.84-11.45-13s5.14-13 11.45-13 11.45 5.84 11.45 13-5.16 13-11.45 13zm0-23.06c-4.66 0-8.45 4.5-8.45 10s3.79 10 8.45 10 8.45-4.5 8.45-10-3.82-10-8.45-10z" transform="translate(-49.52 -40.35)"/><path class="cls-1" d="M60.58 160l-1.93-2.3a24.3 24.3 0 018.78-4.2 1.51 1.51 0 001.13-1.16l.66-3.46 3 .56-.67 3.46a4.52 4.52 0 01-3.3 3.5 21.55 21.55 0 00-7.67 3.6zm27.42-.83a43 43 0 00-8.34-3 4.52 4.52 0 01-3.45-3.36l-.81-3.45 2.92-.69.81 3.46a1.5 1.5 0 001.16 1.11 46.4 46.4 0 019 3.24zm46.18 7.1a24.09 24.09 0 1124.09-24.09 24.11 24.11 0 01-24.09 24.09zm0-45.18a21.09 21.09 0 1021.09 21.09 21.11 21.11 0 00-21.09-21.09z" transform="translate(-49.52 -40.35)"/><path class="cls-1" d="M134.54 152.21c-6.32 0-11.45-5.84-11.45-13s5.13-13 11.45-13S146 132 146 139.18s-5.15 13.03-11.46 13.03zm0-23.06c-4.66 0-8.45 4.5-8.45 10s3.79 10 8.45 10 8.45-4.5 8.45-10-3.79-10-8.45-10z" transform="translate(-49.52 -40.35)"/><path class="cls-1" d="M121.14 160l-1.92-2.3a24.19 24.19 0 018.78-4.2 1.51 1.51 0 001.12-1.16l.66-3.46 2.95.56-.66 3.46a4.52 4.52 0 01-3.31 3.5 21.67 21.67 0 00-7.62 3.6zm27.4-.83a42.73 42.73 0 00-8.34-3 4.49 4.49 0 01-3.44-3.36l-.82-3.45 2.92-.69.82 3.46a1.49 1.49 0 001.15 1.11 46.25 46.25 0 019 3.24z" transform="translate(-49.52 -40.35)"/><path class="cls-1" d="M53.57 46.68h3v14.1h-3z"/><path class="cls-1" d="M134.82 121.09a1.5 1.5 0 01-1.5-1.5v-7a1.5 1.5 0 013 0v7a1.5 1.5 0 01-1.5 1.5zM73.54 115a1.5 1.5 0 01-1.5-1.5v-7a1.5 1.5 0 013 0v7a1.5 1.5 0 01-1.5 1.5zm61.28-7.92a1.5 1.5 0 01-1.5-1.5v-2.4h-1.6a1.5 1.5 0 010-3h3.1a1.5 1.5 0 011.5 1.5v3.9a1.5 1.5 0 01-1.5 1.51zm-10.1-3.9h-7a1.5 1.5 0 010-3h7a1.5 1.5 0 010 3zm-14 0h-7a1.5 1.5 0 010-3h7a1.5 1.5 0 010 3zm-14 0h-7a1.5 1.5 0 010-3h7a1.5 1.5 0 010 3zm-14 0h-7a1.5 1.5 0 010-3h7a1.5 1.5 0 010 3z" transform="translate(-49.52 -40.35)"/></svg>