<svg xmlns="http://www.w3.org/2000/svg" id="Layer_1" data-name="Layer 1" viewBox="0 0 101.83 122.51"><defs><style>.cls-1{fill:#ef4753}</style></defs><path class="cls-1" d="M137.85 78.43a18 18 0 1115.9-26.57l.61 1.14-2.56 1.9h-8.54a2.18 2.18 0 00-2.18 2.18v6.61a2.17 2.17 0 002.18 2.18h9.35l1.48 2.41-.42.77a18 18 0 01-15.82 9.38zm0-33.08a15 15 0 1012.41 23.52h-7a5.18 5.18 0 01-5.18-5.18v-6.61a5.18 5.18 0 015.18-5.18h7a15 15 0 00-12.41-6.55zm-33.53 66.92h-1.61a5.18 5.18 0 01-5.18-5.18V93.47a5.19 5.19 0 015.18-5.18h1.61a5.19 5.19 0 015.18 5.18v13.62a5.18 5.18 0 01-5.18 5.18zm-1.61-21a2.18 2.18 0 00-2.18 2.18v13.62a2.18 2.18 0 002.18 2.18h1.61a2.19 2.19 0 002.18-2.18v-13.6a2.19 2.19 0 00-2.18-2.18z" transform="translate(-52.69 -42.35)"/><path class="cls-1" d="M122.85 69H71.74a5.19 5.19 0 01-5.18-5.18v-6.65A5.19 5.19 0 0171.74 52h51.11v3H71.74a2.18 2.18 0 00-2.18 2.18v6.61A2.19 2.19 0 0071.74 66h51.11zm6.15 80H69.74a5.19 5.19 0 01-5.18-5.18v-6.61a5.19 5.19 0 015.18-5.21H129v3H69.74a2.18 2.18 0 00-2.18 2.18v6.61a2.19 2.19 0 002.18 2.21H129zm19.78 0h-.63v-3h.63a2.19 2.19 0 002.18-2.18v-6.61a2.18 2.18 0 00-2.18-2.18h-.63v-3h.63a5.18 5.18 0 015.18 5.18v6.61a5.18 5.18 0 01-5.18 5.18zm.57-40.37h-42.11v-3h42.11a2.19 2.19 0 002.18-2.18v-6.62a2.19 2.19 0 00-2.18-2.18h-42.11v-3h42.11a5.19 5.19 0 015.18 5.18v6.62a5.19 5.19 0 01-5.18 5.18zm-87.56.89a5.12 5.12 0 01-3.48-1.37l-4-3.76a5.08 5.08 0 01.23-7.63l4.46-3.7a5.06 5.06 0 016-.35l2.93 1.89h29.66v3H67l-3.67-2.37a2.07 2.07 0 00-2.46.14l-4.46 3.7a2.08 2.08 0 00-.1 3.13l4 3.76a2.08 2.08 0 002.54.24l4.15-2.62h30.59v3H67.92l-3.42 2.16a5.1 5.1 0 01-2.71.78z" transform="translate(-52.69 -42.35)"/><path class="cls-1" d="M132.33 164.86a5.21 5.21 0 01-2.63-.72 5.15 5.15 0 01-2.58-4.5v-35.29a5.21 5.21 0 015.2-5.21H144a5.22 5.22 0 015.21 5.21v29.26a5.21 5.21 0 01-2.64 4.53h-.05l-11.64 6a5.09 5.09 0 01-2.55.72zm0-42.72a2.2 2.2 0 00-2.2 2.21v35.29a2.2 2.2 0 003.29 1.92l11.66-6a2.23 2.23 0 001.1-1.91v-29.3a2.21 2.21 0 00-2.21-2.21z" transform="translate(-52.69 -42.35)"/></svg>