<svg xmlns="http://www.w3.org/2000/svg" id="Layer_1" data-name="Layer 1" viewBox="0 0 81.46 120.59"><defs><style>.cls-1{fill:#ef4753}</style></defs><path class="cls-1" d="M88.89 98.56a16 16 0 1116-16 16 16 0 01-16 16zm0-29a13 13 0 1013 13 13 13 0 00-13-13.05zm45.35 80.15h-3v-46.29a2.19 2.19 0 00-2.18-2.18h-6.62a2.18 2.18 0 00-2.17 2.18v46.29h-3v-46.29a5.19 5.19 0 015.17-5.18h6.62a5.19 5.19 0 015.18 5.18zm-20.97-1h-3v-25.29a2.19 2.19 0 00-2.18-2.18h-6.62a2.19 2.19 0 00-2.18 2.18v25.29h-3v-25.29a5.19 5.19 0 015.18-5.18h6.62a5.19 5.19 0 015.18 5.18zm-35.13 1h-3v-10.29a5.19 5.19 0 015.18-5.18h6.61a5.19 5.19 0 015.18 5.18v9.29h-3v-9.29a2.19 2.19 0 00-2.18-2.18h-6.61a2.19 2.19 0 00-2.18 2.18z" transform="translate(-63.43 -43.3)"/><path class="cls-1" d="M144.89 144.47h-3v-82a10.43 10.43 0 00-10.43-10.42H76.85a10.43 10.43 0 00-10.42 10.42v82h-3v-82a13.43 13.43 0 0113.42-13.42h54.61a13.44 13.44 0 0113.43 13.42z" transform="translate(-63.43 -43.3)"/><path class="cls-1" d="M144.89 142.73h-3v-86a10.44 10.44 0 00-10.43-10.43H76.85a10.43 10.43 0 00-10.42 10.43v86h-3v-86A13.44 13.44 0 0176.85 43.3h54.61a13.44 13.44 0 0113.43 13.43z" transform="translate(-63.43 -43.3)"/><path class="cls-1" d="M131.46 163.89H76.85a13.43 13.43 0 01-13.42-13.42v-82a13.43 13.43 0 0113.42-13.42h54.61a13.44 13.44 0 0113.43 13.42v82a13.44 13.44 0 01-13.43 13.42zM76.85 58.05a10.43 10.43 0 00-10.42 10.42v82a10.43 10.43 0 0010.42 10.42h54.61a10.43 10.43 0 0010.43-10.42v-82a10.43 10.43 0 00-10.43-10.42z" transform="translate(-63.43 -43.3)"/><path class="cls-1" d="M132.48 71.12h-7a1.5 1.5 0 010-3h7a1.5 1.5 0 010 3zm-14 0h-7a1.5 1.5 0 010-3h7a1.5 1.5 0 110 3zm14 8h-7a1.5 1.5 0 010-3h7a1.5 1.5 0 010 3zm-14 0h-7a1.5 1.5 0 010-3h7a1.5 1.5 0 110 3zm14.62 7.77h-7a1.5 1.5 0 010-3h7a1.5 1.5 0 010 3zm-14 0h-7a1.5 1.5 0 010-3h7a1.5 1.5 0 010 3z" transform="translate(-63.43 -43.3)"/><path class="cls-1" d="M12.01 103.49h58.08v3H12.01zM25.99 41.4l-2.13-1.66-1.74-14.09 2.98-.37 1.32 10.69 6.72-8.65 2.37 1.84-9.52 12.24z"/><path class="cls-1" transform="rotate(-43.9 8.728 144.922)" d="M92.65 80.55h3V95.2h-3z"/></svg>