<svg xmlns="http://www.w3.org/2000/svg" id="Layer_1" data-name="Layer 1" viewBox="0 0 112.85 90.19"><defs><style>.cls-1{fill:#ef4753}</style></defs><path class="cls-1" d="M78.21 75.42h-2.62a5.18 5.18 0 01-5.18-5.18v-6.61a5.18 5.18 0 015.18-5.18h2.62a5.18 5.18 0 015.17 5.18v6.61a5.18 5.18 0 01-5.17 5.18zm-2.62-14a2.19 2.19 0 00-2.18 2.18v6.61a2.18 2.18 0 002.18 2.18h2.62a2.17 2.17 0 002.17-2.18v-6.58a2.18 2.18 0 00-2.17-2.18zm56.41 14h-2.62a5.18 5.18 0 01-5.17-5.18v-6.61a5.18 5.18 0 015.17-5.18H132a5.18 5.18 0 015.18 5.18v6.61a5.18 5.18 0 01-5.18 5.18zm-2.62-14a2.18 2.18 0 00-2.17 2.18v6.61a2.17 2.17 0 002.17 2.18H132a2.18 2.18 0 002.18-2.18v-6.58a2.19 2.19 0 00-2.18-2.18zm-33.24 14h-2.62a5.19 5.19 0 01-5.18-5.18v-6.61a5.19 5.19 0 015.18-5.18h2.62a5.19 5.19 0 015.18 5.18v6.61a5.19 5.19 0 01-5.18 5.18zm-2.62-14a2.19 2.19 0 00-2.18 2.18v6.61a2.18 2.18 0 002.18 2.18h2.62a2.18 2.18 0 002.18-2.18v-6.58a2.19 2.19 0 00-2.18-2.18zm20.55 14h-2.62a5.19 5.19 0 01-5.18-5.18v-6.61a5.19 5.19 0 015.18-5.18h2.62a5.19 5.19 0 015.18 5.18v6.61a5.19 5.19 0 01-5.18 5.18zm-2.62-14a2.19 2.19 0 00-2.18 2.18v6.61a2.18 2.18 0 002.18 2.18h2.62a2.18 2.18 0 002.18-2.18v-6.58a2.19 2.19 0 00-2.18-2.18z" transform="translate(-47.54 -58.45)"/><path class="cls-1" d="M147 148.64H61a13.43 13.43 0 01-13.42-13.42V80.6A13.43 13.43 0 0161 67.18h10.55v3H61A10.43 10.43 0 0050.54 80.6v54.62A10.43 10.43 0 0061 145.64h86a10.43 10.43 0 0010.42-10.42V80.6A10.43 10.43 0 00147 70.18h-11.37v-3H147a13.43 13.43 0 0113.38 13.42v54.62A13.43 13.43 0 01147 148.64z" transform="translate(-47.54 -58.45)"/><path class="cls-1" d="M70.17 8.73h8.54v3h-8.54zm-17.77 0h8.15v3H52.4zm-18.16 0h8.23v3h-8.23zM1.5 23.65h109.85v3H1.5z"/><path class="cls-1" d="M85.78 148.36a1.5 1.5 0 01-1.5-1.5v-7a1.5 1.5 0 013 0v7a1.5 1.5 0 01-1.5 1.5zm0-14a1.5 1.5 0 01-1.5-1.5v-7a1.5 1.5 0 113 0v7a1.5 1.5 0 01-1.5 1.5zm0-14a1.5 1.5 0 01-1.5-1.5v-7a1.5 1.5 0 113 0v7a1.5 1.5 0 01-1.5 1.5zm0-14a1.5 1.5 0 01-1.5-1.5v-7a1.5 1.5 0 113 0v7a1.5 1.5 0 01-1.5 1.5zm0-14a1.5 1.5 0 01-1.5-1.5v-7a1.5 1.5 0 113 0v7a1.5 1.5 0 01-1.5 1.5zm37.1 56a1.5 1.5 0 01-1.5-1.5v-7a1.5 1.5 0 013 0v7a1.5 1.5 0 01-1.5 1.5zm0-14a1.5 1.5 0 01-1.5-1.5v-7a1.5 1.5 0 013 0v7a1.5 1.5 0 01-1.5 1.5zm0-14a1.5 1.5 0 01-1.5-1.5v-7a1.5 1.5 0 013 0v7a1.5 1.5 0 01-1.5 1.5zm0-14a1.5 1.5 0 01-1.5-1.5v-7a1.5 1.5 0 013 0v7a1.5 1.5 0 01-1.5 1.5zm0-14a1.5 1.5 0 01-1.5-1.5v-7a1.5 1.5 0 013 0v7a1.5 1.5 0 01-1.5 1.5z" transform="translate(-47.54 -58.45)"/><path class="cls-1" d="M154 115.36h-7a1.5 1.5 0 010-3h7a1.5 1.5 0 010 3zm-14 0h-7a1.5 1.5 0 010-3h7a1.5 1.5 0 010 3zm-14 0h-7a1.5 1.5 0 010-3h7a1.5 1.5 0 010 3zm-14 0h-7a1.5 1.5 0 010-3h7a1.5 1.5 0 010 3zm-14 0h-7a1.5 1.5 0 010-3h7a1.5 1.5 0 010 3zm-14 0h-7a1.5 1.5 0 010-3h7a1.5 1.5 0 010 3zm-14 0h-7a1.5 1.5 0 010-3h7a1.5 1.5 0 010 3zm-14 0h-7a1.5 1.5 0 010-3h7a1.5 1.5 0 110 3z" transform="translate(-47.54 -58.45)"/><path class="cls-1" d="M19.5 45.23l-6.91-6.64 2.08-2.16 4.78 4.6 8.12-8.12 2.12 2.12-10.19 10.2zm72.82 0l-6.91-6.64 2.08-2.16 4.78 4.6 8.12-8.12 2.12 2.12-10.19 10.2zM55.85 77.64L48.95 71l2.08-2.16 4.78 4.6 8.12-8.12 2.12 2.12-10.2 10.2z"/></svg>