<svg xmlns="http://www.w3.org/2000/svg" viewBox="0 0 264.41 1083.31"><defs><style>.cls-1{fill:#ef4753}</style></defs><g id="Layer_2" data-name="Layer 2"><path class="cls-1" d="M161.31 198.55a54.81 54.81 0 1154.81-54.8 54.86 54.86 0 01-54.81 54.8zm0-106.61a51.81 51.81 0 1051.81 51.81 51.87 51.87 0 00-51.81-51.81z" transform="translate(-28.2 -67.33)"/><path class="cls-1" d="M161.31 178.66a34.92 34.92 0 1134.91-34.91 34.95 34.95 0 01-34.91 34.91zm0-66.83a31.92 31.92 0 1031.91 31.92 31.95 31.95 0 00-31.91-31.92zm.28 500.7a24.09 24.09 0 1124.09-24.09 24.12 24.12 0 01-24.09 24.09zm0-45.18a21.09 21.09 0 1021.09 21.09 21.11 21.11 0 00-21.09-21.09z" transform="translate(-28.2 -67.33)"/><path class="cls-1" d="M162 598.47c-6.32 0-11.45-5.85-11.45-13s5.13-13 11.45-13 11.45 5.85 11.45 13-5.19 13-11.45 13zm0-23.07c-4.66 0-8.45 4.51-8.45 10s3.79 10 8.45 10 8.45-4.5 8.45-10-3.84-10-8.45-10zm-.69-416.4a15.28 15.28 0 1115.27-15.27A15.29 15.29 0 01161.31 159zm0-27.55a12.28 12.28 0 1012.27 12.28 12.29 12.29 0 00-12.27-12.26zm-15.42 823.11a16 16 0 1116-16 16 16 0 01-16 16zm0-29a13 13 0 1013 13 13 13 0 00-13-13.05z" transform="translate(-28.2 -67.33)"/><path class="cls-1" d="M161.31 150.25a6.5 6.5 0 116.5-6.5 6.51 6.51 0 01-6.5 6.5zm0-10a3.5 3.5 0 103.5 3.5 3.5 3.5 0 00-3.5-3.5zm12.3-9.93a6.5 6.5 0 116.5-6.5 6.51 6.51 0 01-6.5 6.5zm0-10a3.5 3.5 0 103.5 3.5 3.5 3.5 0 00-3.5-3.5zm-34.82-7.64a6.5 6.5 0 116.5-6.5 6.51 6.51 0 01-6.5 6.5zm0-10a3.5 3.5 0 103.5 3.5 3.5 3.5 0 00-3.5-3.5zm5.67 198.42h-6.62a5.19 5.19 0 01-5.18-5.18v-6.61a5.19 5.19 0 015.18-5.18h6.62a5.19 5.19 0 015.18 5.18v6.61a5.19 5.19 0 01-5.18 5.18zm-6.62-14a2.18 2.18 0 00-2.18 2.18v6.61a2.19 2.19 0 002.18 2.18h6.62a2.19 2.19 0 002.18-2.18v-6.61a2.18 2.18 0 00-2.18-2.18zm65.45-202.79h-6.61a5.19 5.19 0 01-5.18-5.18v-6.62a5.19 5.19 0 015.18-5.18h6.61a5.19 5.19 0 015.18 5.18v6.62a5.19 5.19 0 01-5.18 5.18zm-6.61-14a2.19 2.19 0 00-2.18 2.18v6.62a2.19 2.19 0 002.18 2.18h6.61a2.18 2.18 0 002.18-2.18v-6.6a2.18 2.18 0 00-2.18-2.18zm25.08 14h-6.62a5.19 5.19 0 01-5.14-5.18v-6.62a5.19 5.19 0 015.18-5.18h6.62a5.19 5.19 0 015.18 5.18v6.62a5.19 5.19 0 01-5.22 5.18zm-6.62-14a2.19 2.19 0 00-2.14 2.2v6.62a2.19 2.19 0 002.18 2.18h6.62a2.19 2.19 0 002.18-2.18v-6.62a2.19 2.19 0 00-2.18-2.18zm25.08 14h-6.62a5.19 5.19 0 01-5.18-5.18v-6.62a5.19 5.19 0 015.18-5.18h6.62a5.19 5.19 0 015.18 5.18v6.62a5.19 5.19 0 01-5.18 5.18zm-6.62-14a2.19 2.19 0 00-2.18 2.18v6.62a2.19 2.19 0 002.18 2.18h6.62a2.19 2.19 0 002.18-2.18v-6.6a2.19 2.19 0 00-2.18-2.18zm-84.39 1007.11h-2.62a5.18 5.18 0 01-5.18-5.18v-6.61a5.18 5.18 0 015.18-5.18h2.62a5.18 5.18 0 015.17 5.18v6.61a5.18 5.18 0 01-5.17 5.18zm-2.62-14a2.19 2.19 0 00-2.18 2.18v6.61a2.18 2.18 0 002.18 2.18h2.62a2.17 2.17 0 002.17-2.18v-6.61a2.18 2.18 0 00-2.17-2.18zm56.41 14h-2.62a5.18 5.18 0 01-5.17-5.18v-6.61a5.18 5.18 0 015.17-5.18H203a5.18 5.18 0 015.18 5.18v6.61a5.18 5.18 0 01-5.18 5.18zm-2.62-14a2.18 2.18 0 00-2.17 2.18v6.61a2.17 2.17 0 002.17 2.18H203a2.18 2.18 0 002.18-2.18v-6.61a2.19 2.19 0 00-2.18-2.18zm-33.24 14h-2.62a5.19 5.19 0 01-5.18-5.18v-6.61a5.19 5.19 0 015.18-5.18h2.62a5.19 5.19 0 015.18 5.18v6.61a5.19 5.19 0 01-5.18 5.18zm-2.62-14a2.19 2.19 0 00-2.18 2.18v6.61a2.18 2.18 0 002.18 2.18h2.62a2.18 2.18 0 002.18-2.18v-6.61a2.19 2.19 0 00-2.18-2.18zm20.55 14h-2.62a5.19 5.19 0 01-5.18-5.18v-6.61a5.19 5.19 0 015.18-5.18h2.62a5.19 5.19 0 015.18 5.18v6.61a5.19 5.19 0 01-5.18 5.18zm-2.62-14a2.19 2.19 0 00-2.18 2.18v6.61a2.18 2.18 0 002.18 2.18h2.62a2.18 2.18 0 002.18-2.18v-6.61a2.19 2.19 0 00-2.18-2.18zm13.4-296.99a18 18 0 1115.9-26.57l.61 1.14-2.56 1.9h-8.54a2.18 2.18 0 00-2.18 2.18v6.61a2.17 2.17 0 002.18 2.18h9.35l1.48 2.41-.42.77a18 18 0 01-15.82 9.38zm0-33.08a15 15 0 1012.41 23.52h-7a5.18 5.18 0 01-5.18-5.18v-6.61a5.18 5.18 0 015.18-5.18h7a15 15 0 00-12.41-6.55zm-11.16-472.8h-47.17a5.19 5.19 0 01-5.18-5.18v-3.62a5.19 5.19 0 015.18-5.18h13.64a1.5 1.5 0 001.5-1.49v-3.39a5.19 5.19 0 015.18-5.18h6.62a5.19 5.19 0 015.18 5.18v3.38a1.5 1.5 0 001.5 1.5h13.55a5.19 5.19 0 015.18 5.18v3.62a5.19 5.19 0 01-5.18 5.18zm-47.17-11a2.19 2.19 0 00-2.18 2.18v3.62a2.19 2.19 0 002.18 2.18h47.17a2.19 2.19 0 002.18-2.18v-3.62a2.19 2.19 0 00-2.18-2.18h-13.55a4.5 4.5 0 01-4.5-4.5v-3.38a2.19 2.19 0 00-2.18-2.18h-6.62a2.19 2.19 0 00-2.18 2.18v3.39a4.5 4.5 0 01-4.5 4.49zm6.94 97.56h-6.62a5.19 5.19 0 01-5.18-5.18v-6.61a5.19 5.19 0 015.18-5.18h6.62a5.19 5.19 0 015.18 5.18v6.61a5.19 5.19 0 01-5.18 5.18zm-6.62-14a2.19 2.19 0 00-2.18 2.18v6.61a2.18 2.18 0 002.18 2.18h6.62a2.18 2.18 0 002.18-2.18v-6.61a2.19 2.19 0 00-2.18-2.18zm24.48 467.16h-1.61a5.18 5.18 0 01-5.18-5.18v-13.62a5.19 5.19 0 015.18-5.18h1.61a5.19 5.19 0 015.18 5.18v13.62a5.18 5.18 0 01-5.18 5.18zm-1.61-21a2.18 2.18 0 00-2.18 2.18v13.62a2.18 2.18 0 002.18 2.18h1.61a2.19 2.19 0 002.18-2.18v-13.6a2.19 2.19 0 00-2.18-2.18z" transform="translate(-28.2 -67.33)"/><path class="cls-1" d="M180.85 757h-51.11a5.19 5.19 0 01-5.18-5.18v-6.61a5.19 5.19 0 015.18-5.18h51.11v3h-51.11a2.18 2.18 0 00-2.18 2.18v6.61a2.19 2.19 0 002.18 2.18h51.11zm6.15 80h-59.26a5.19 5.19 0 01-5.18-5.18v-6.61a5.19 5.19 0 015.18-5.18H187v3h-59.26a2.18 2.18 0 00-2.18 2.18v6.61a2.19 2.19 0 002.18 2.18H187zm4.24 168.71h-3v-46.29a2.19 2.19 0 00-2.18-2.18h-6.62a2.18 2.18 0 00-2.17 2.18v46.29h-3v-46.29a5.19 5.19 0 015.17-5.18h6.62a5.19 5.19 0 015.18 5.18zm-20.97-1h-3v-25.29a2.19 2.19 0 00-2.18-2.18h-6.62a2.19 2.19 0 00-2.18 2.18v25.29h-3v-25.29a5.19 5.19 0 015.18-5.18h6.62a5.19 5.19 0 015.18 5.18zm-35.13 1h-3v-10.29a5.19 5.19 0 015.18-5.18h6.61a5.19 5.19 0 015.18 5.18v9.29h-3v-9.29a2.19 2.19 0 00-2.18-2.18h-6.61a2.19 2.19 0 00-2.18 2.18zM206.78 837h-.63v-3h.63a2.19 2.19 0 002.18-2.18v-6.61a2.18 2.18 0 00-2.18-2.18h-.63v-3h.63a5.18 5.18 0 015.18 5.18v6.61a5.18 5.18 0 01-5.18 5.18zm.57-40.37h-42.11v-3h42.11a2.19 2.19 0 002.18-2.18v-6.62a2.19 2.19 0 00-2.18-2.18h-42.11v-3h42.11a5.19 5.19 0 015.18 5.18v6.62a5.19 5.19 0 01-5.18 5.18zm-87.56.89a5.12 5.12 0 01-3.48-1.37l-4-3.76a5.08 5.08 0 01.23-7.63l4.46-3.7a5.06 5.06 0 016-.35l2.93 1.89h29.66v3H125l-3.67-2.37a2.07 2.07 0 00-2.46.14l-4.46 3.7a2.08 2.08 0 00-.1 3.13l4 3.76a2.08 2.08 0 002.54.24l4.15-2.62h30.54v3h-29.62l-3.42 2.16a5.1 5.1 0 01-2.71.78zm24.67-473.28h-6.62a5.19 5.19 0 01-5.18-5.18v-6.61a5.19 5.19 0 015.18-5.18h6.62a5.19 5.19 0 015.18 5.18v6.61a5.19 5.19 0 01-5.18 5.18zm-6.62-14a2.18 2.18 0 00-2.18 2.18v6.61a2.19 2.19 0 002.18 2.18h6.62a2.19 2.19 0 002.18-2.18v-6.61a2.18 2.18 0 00-2.18-2.18z" transform="translate(-28.2 -67.33)"/><path class="cls-1" d="M188.08 362.58h-54.62A13.44 13.44 0 01120 349.15v-82a13.43 13.43 0 0113.42-13.42v3A10.43 10.43 0 00123 267.15v82a10.43 10.43 0 0010.42 10.43h54.62a10.44 10.44 0 0010.42-10.43v-82a10.44 10.44 0 00-10.42-10.42v-3a13.43 13.43 0 0113.42 13.42v82a13.44 13.44 0 01-13.38 13.43zm13.81 637.89h-3v-82a10.43 10.43 0 00-10.43-10.42h-54.61a10.43 10.43 0 00-10.42 10.42v82h-3v-82a13.43 13.43 0 0113.42-13.42h54.61a13.44 13.44 0 0113.43 13.42z" transform="translate(-28.2 -67.33)"/><path class="cls-1" d="M201.89 998.73h-3v-86a10.44 10.44 0 00-10.43-10.43h-54.61a10.43 10.43 0 00-10.42 10.43v86h-3v-86a13.44 13.44 0 0113.42-13.43h54.61a13.44 13.44 0 0113.43 13.43z" transform="translate(-28.2 -67.33)"/><path class="cls-1" d="M188.46 1019.89h-54.61a13.43 13.43 0 01-13.42-13.42v-82a13.43 13.43 0 0113.42-13.42h54.61a13.44 13.44 0 0113.43 13.42v82a13.44 13.44 0 01-13.43 13.42zm-54.61-105.84a10.43 10.43 0 00-10.42 10.42v82a10.43 10.43 0 0010.42 10.42h54.61a10.43 10.43 0 0010.43-10.42v-82a10.43 10.43 0 00-10.43-10.42zM218 1150.64h-86a13.43 13.43 0 01-13.42-13.42v-54.62a13.43 13.43 0 0113.42-13.42h10.59v3H132a10.43 10.43 0 00-10.42 10.42v54.62a10.43 10.43 0 0010.42 10.42h86a10.43 10.43 0 0010.42-10.42v-54.62a10.43 10.43 0 00-10.42-10.42h-11.37v-3H218a13.43 13.43 0 0113.42 13.42v54.62a13.43 13.43 0 01-13.42 13.42z" transform="translate(-28.2 -67.33)"/><path class="cls-1" d="M160.5 1001.85h8.54v3h-8.54zm-17.76 0h8.15v3h-8.15zm-18.16 0h8.23v3h-8.23z"/><path class="cls-1" d="M187.33 289.35H186a1.5 1.5 0 010-3h1.38a1.5 1.5 0 110 3zm-8.38 0h-7a1.5 1.5 0 010-3h7a1.5 1.5 0 010 3zm-14 0h-7a1.5 1.5 0 010-3h7a1.5 1.5 0 010 3zM184 276.5h-7a1.5 1.5 0 010-3h7a1.5 1.5 0 110 3zm-14 0h-7a1.5 1.5 0 010-3h7a1.5 1.5 0 110 3zm-14 0h-7a1.5 1.5 0 010-3h7a1.5 1.5 0 110 3zm-14 0h-7a1.5 1.5 0 010-3h7a1.5 1.5 0 110 3zm45.33 21.85H186a1.5 1.5 0 010-3h1.38a1.5 1.5 0 110 3zm-8.38 0h-7a1.5 1.5 0 010-3h7a1.5 1.5 0 010 3zm-14 0h-7a1.5 1.5 0 010-3h7a1.5 1.5 0 010 3zm22.38 13.94H186a1.5 1.5 0 010-3h1.38a1.5 1.5 0 010 3zm-8.38 0h-7a1.5 1.5 0 010-3h7a1.5 1.5 0 010 3zm-14 0h-7a1.5 1.5 0 010-3h7a1.5 1.5 0 010 3zm22.38 8H186a1.5 1.5 0 010-3h1.38a1.5 1.5 0 010 3zm-8.38 0h-7a1.5 1.5 0 010-3h7a1.5 1.5 0 010 3zm-14 0h-7a1.5 1.5 0 010-3h7a1.5 1.5 0 010 3zm22.38 15.39H186a1.5 1.5 0 010-3h1.38a1.5 1.5 0 010 3zm-8.38 0h-7a1.5 1.5 0 010-3h7a1.5 1.5 0 010 3zm-14 0h-7a1.5 1.5 0 010-3h7a1.5 1.5 0 010 3zm22.38 8H186a1.5 1.5 0 010-3h1.38a1.5 1.5 0 010 3zm-8.38 0h-7a1.5 1.5 0 010-3h7a1.5 1.5 0 010 3zm-14 0h-7a1.5 1.5 0 010-3h7a1.5 1.5 0 010 3zm24.53 583.44h-7a1.5 1.5 0 110-3h7a1.5 1.5 0 010 3zm-14 0h-7a1.5 1.5 0 110-3h7a1.5 1.5 0 010 3zm14 8h-7a1.5 1.5 0 110-3h7a1.5 1.5 0 010 3zm-14 0h-7a1.5 1.5 0 110-3h7a1.5 1.5 0 010 3zm14.62 7.77h-7a1.5 1.5 0 010-3h7a1.5 1.5 0 110 3zm-14 0h-7a1.5 1.5 0 010-3h7a1.5 1.5 0 110 3zm-4.96-693.32h-6a1.5 1.5 0 010-3h6a1.5 1.5 0 010 3zm-13 0h-7a1.5 1.5 0 010-3h7a1.5 1.5 0 110 3zm34.49-142.89h-5.14a1.5 1.5 0 010-3h5.14a5.57 5.57 0 001.46-.19 1.51 1.51 0 011.83 1.08 1.5 1.5 0 01-1.08 1.83 9.11 9.11 0 01-2.21.28zm-12.14 0h-7a1.5 1.5 0 010-3h7a1.5 1.5 0 010 3zm-14 0h-7a1.5 1.5 0 010-3h7a1.5 1.5 0 010 3zm-14 0h-7a1.5 1.5 0 010-3h7a1.5 1.5 0 010 3zm47-4.76a1.58 1.58 0 01-.52-.09 1.52 1.52 0 01-.97-1.93 5.57 5.57 0 00.36-2v-4.43a1.5 1.5 0 013 0v4.44a8.68 8.68 0 01-.54 3 1.49 1.49 0 01-1.37 1.01zm.45-14a1.5 1.5 0 01-1.5-1.5v-3.27a1.5 1.5 0 013 0v3.32A1.5 1.5 0 01199.9 88zm8.35 37.4h-.68a1.5 1.5 0 010-3h.68a8.63 8.63 0 005.06-1.61 1.5 1.5 0 111.74 2.45 11.67 11.67 0 01-6.8 2.16zm-7.68 0h-7a1.5 1.5 0 010-3h7a1.5 1.5 0 010 3zm-14 0h-7a1.5 1.5 0 010-3h7a1.5 1.5 0 010 3zm31.57-7.49a1.37 1.37 0 01-.4 0 1.5 1.5 0 01-1-1.85 9 9 0 00.32-2.38v-4.18a1.5 1.5 0 013 0v4.18a11.8 11.8 0 01-.43 3.19 1.51 1.51 0 01-1.49 1.04zm.38-14a1.5 1.5 0 01-1.5-1.5v-7a1.5 1.5 0 013 0v7a1.5 1.5 0 01-1.5 1.54zm0-14a1.5 1.5 0 01-1.5-1.5v-5a1.5 1.5 0 013 0v5a1.5 1.5 0 01-1.5 1.54zm-4.77 55.42h-4.48a1.5 1.5 0 010-3h4.48a23 23 0 002.35-.13 1.5 1.5 0 01.32 3 23.76 23.76 0 01-2.67.13zm-11.48 0h-7a1.5 1.5 0 010-3h7a1.5 1.5 0 010 3zm-14 0h-7a1.5 1.5 0 010-3h7a1.5 1.5 0 010 3zm-14 0h-7a1.5 1.5 0 010-3h7a1.5 1.5 0 010 3zm48.69-1.93a1.5 1.5 0 01-.6-2.88 21.44 21.44 0 005.5-3.49 1.5 1.5 0 112 2.27 24.47 24.47 0 01-6.27 4 1.44 1.44 0 01-.63.1zm10.39-9a1.39 1.39 0 01-.78-.23 1.48 1.48 0 01-.49-2.06 21.15 21.15 0 002.53-6 1.52 1.52 0 011.83-1.09 1.49 1.49 0 011.08 1.82 24.28 24.28 0 01-2.89 6.84 1.5 1.5 0 01-1.24.67zm3.42-13.36a1.5 1.5 0 01-1.5-1.5v-7a1.5 1.5 0 013 0v7a1.51 1.51 0 01-1.46 1.45zm0-14a1.5 1.5 0 01-1.5-1.5v-7a1.5 1.5 0 013 0v7a1.51 1.51 0 01-1.46 1.45zm0-14a1.5 1.5 0 01-1.5-1.5v-7a1.5 1.5 0 013 0v7a1.51 1.51 0 01-1.46 1.45zm-85.11-1.08l-2.7-1.35 6.71-13.31a5.57 5.57 0 019.89-.13l7 13-2.6 1.41-7-13a2.53 2.53 0 00-2.27-1.36 2.51 2.51 0 00-2.26 1.42zm-4.16 374.98l-7.62-.87-.57-5.65a18.69 18.69 0 01-3.89-2.15l-5.09 2.51-4.77-6 3.59-4.39A18.21 18.21 0 01128 446l-5.37-1.83.87-7.62 5.65-.56a18.22 18.22 0 012.06-3.75l-2.54-5.16 6-4.77 4.38 3.59a18.24 18.24 0 014.39-1.27l1.82-5.38 7.63.87.56 5.65a18.44 18.44 0 013.89 2.15l5.09-2.51 4.78 6-3.6 4.39a18.21 18.21 0 011.22 4.28l5.38 1.82-.88 7.63-5.65.56a18.18 18.18 0 01-2.23 4l2.51 5.08-6 4.77-4.44-3.64a18 18 0 01-4.13 1.16zm-4.88-3.58l2.82.33 1.65-4.88 1-.1a15.48 15.48 0 005-1.41l.86-.4 4 3.29 2.22-1.76-2.28-4.62.61-.75a15.55 15.55 0 002.66-4.75l.32-.91 5.12-.51.32-2.81-4.87-1.65-.1-1a15.63 15.63 0 00-1.47-5.14l-.42-.86 3.26-4-1.76-2.22-4.6 2.34-.75-.6a15.5 15.5 0 00-4.67-2.59l-.91-.32-.51-5.11-2.81-.33-1.66 4.88-1 .1a15.6 15.6 0 00-5.23 1.52l-.86.43-4-3.27-2.22 1.76 2.3 4.67-.59.74a15.79 15.79 0 00-2.5 4.55l-.31.91-5.13.51-.32 2.81 4.87 1.65.1 1a15.88 15.88 0 001.47 5.14l.42.86-3.26 4 1.76 2.21 4.62-2.27.74.6a15.43 15.43 0 004.68 2.59l.9.32zm3.76-7.61a14.28 14.28 0 01-1.46-.08 12.62 12.62 0 111.46.08zm0-22.21a9.6 9.6 0 00-7.55 15.54 9.6 9.6 0 107.51-15.58zm41.15 57.7l-5.46-.62-.34-3.44a10.67 10.67 0 01-1.75-1l-3.1 1.53-3.41-4.3 2.19-2.67a10.54 10.54 0 01-.55-1.92l-3.27-1.11.62-5.45 3.44-.35a11.62 11.62 0 01.91-1.66l-1.54-3.14 4.3-3.41 2.66 2.18a12.28 12.28 0 012-.58l1.11-3.27 5.45.63.34 3.43a11.47 11.47 0 011.75 1l3.1-1.53 3.41 4.3-2.18 2.67a12 12 0 01.55 1.92l3.26 1.11-.62 5.46-3.44.34a11.36 11.36 0 01-1 1.8l1.53 3.09-4.3 3.42-2.71-2.22a10.5 10.5 0 01-1.82.52zm-2.71-3.33l.64.07.94-2.75.95-.1a8.55 8.55 0 002.72-.76l.86-.41 2.27 1.86.51-.41-1.29-2.61.61-.75a8.53 8.53 0 001.45-2.58l.31-.91 2.89-.29.08-.64-2.75-.94-.1-.95a8.74 8.74 0 00-.8-2.8l-.42-.86 1.84-2.25-.41-.51-2.6 1.29-.74-.6a8.39 8.39 0 00-2.55-1.41l-.91-.32-.28-2.89-.65-.07-.93 2.76-1 .1a8.53 8.53 0 00-2.84.83l-.87.43-2.25-1.85-.51.41 1.3 2.63-.59.74a8.59 8.59 0 00-1.37 2.48l-.31.9-2.89.29-.07.65 2.74.93.11 1a8.48 8.48 0 00.79 2.8l.42.86-1.84 2.25.41.51 2.6-1.28.75.6a8.56 8.56 0 002.54 1.41l.91.31zm-34.06 38.05l-6.29-2.45.74-4.67a15.76 15.76 0 01-2.46-2.37l-4.64 1-2.71-6.18 3.83-2.78a15 15 0 01-.07-3.41l-3.95-2.61 2.45-6.29 4.67.74a15.85 15.85 0 012.26-2.37l-.95-4.7 6.17-2.71 2.78 3.82a15.26 15.26 0 013.51-.08l2.61-3.95 6.29 2.45-.75 4.67a14.91 14.91 0 012.47 2.36l4.64-.94 2.71 6.17-3.83 2.78a15.64 15.64 0 01.07 3.42l4 2.61-2.45 6.28-4.68-.74a15.36 15.36 0 01-2.44 2.53l1 4.63-6.18 2.71-2.81-3.88a16.35 16.35 0 01-3.28.06zm-3-4.37l1.78.69 2.32-3.5 1 .15a12.55 12.55 0 004.19-.08l.93-.17 2.49 3.43 1.74-.77-.83-4.12.78-.56a12.55 12.55 0 003.05-3.16l.54-.8 4.14.66.69-1.78-3.5-2.31.15-.95a12.48 12.48 0 00-.09-4.31L167 503l3.39-2.46-.77-1.75-4.11.84-.56-.78a12.63 12.63 0 00-3.12-3l-.8-.53.66-4.15-1.77-.69-2.32 3.52-.95-.14a12.7 12.7 0 00-4.39.11l-.95.19-2.47-3.4-1.74.77.84 4.15-.76.57a12.62 12.62 0 00-2.88 3l-.54.79-4.14-.66-.7 1.78 3.5 2.32-.14.94a12.54 12.54 0 00.09 4.32l.18.94-3.39 2.46.76 1.75 4.11-.84.57.77a12.45 12.45 0 003.12 3l.79.54zm6.93-8.18a7 7 0 112.8-.59 6.87 6.87 0 01-2.75.59zm0-11a4.07 4.07 0 00-1.6.34 4 4 0 00-2 5.25 4 4 0 005.25 2 4 4 0 00-.16-7.35 3.85 3.85 0 00-1.45-.21z" transform="translate(-28.2 -67.33)"/><path class="cls-1" d="M182.38 422.98l-1.65-2.51 8.06-5.29-7.75-5.79 1.8-2.4 11.17 8.35-11.63 7.64z"/><path class="cls-1" d="M148.55 606.23l-1.92-2.3a24 24 0 018.78-4.2 1.52 1.52 0 001.12-1.17l.66-3.46 2.95.57-.66 3.46a4.53 4.53 0 01-3.31 3.5 21.78 21.78 0 00-7.62 3.6zm27.45-.81a43.32 43.32 0 00-8.34-3 4.52 4.52 0 01-3.44-3.36l-.82-3.46 2.92-.68.82 3.45a1.47 1.47 0 001.15 1.11 45.9 45.9 0 019 3.25zm-45.39 84.85a24.09 24.09 0 1124.1-24.09 24.12 24.12 0 01-24.1 24.09zm0-45.18a21.09 21.09 0 1021.1 21.09 21.11 21.11 0 00-21.1-21.09z" transform="translate(-28.2 -67.33)"/><path class="cls-1" d="M131 676.21c-6.31 0-11.45-5.84-11.45-13s5.14-13 11.45-13 11.45 5.84 11.45 13-5.16 13-11.45 13zm0-23.06c-4.66 0-8.45 4.5-8.45 10s3.79 10 8.45 10 8.45-4.5 8.45-10-3.82-10-8.45-10z" transform="translate(-28.2 -67.33)"/><path class="cls-1" d="M117.58 684l-1.93-2.3a24.3 24.3 0 018.78-4.2 1.51 1.51 0 001.13-1.16l.66-3.46 2.95.56-.67 3.46a4.52 4.52 0 01-3.3 3.5 21.55 21.55 0 00-7.62 3.6zm27.42-.83a43 43 0 00-8.34-3 4.52 4.52 0 01-3.45-3.36l-.81-3.45 2.92-.69.81 3.46a1.5 1.5 0 001.16 1.11 46.4 46.4 0 019 3.24zm46.18 7.1a24.09 24.09 0 1124.09-24.09 24.11 24.11 0 01-24.09 24.09zm0-45.18a21.09 21.09 0 1021.09 21.09 21.11 21.11 0 00-21.09-21.09z" transform="translate(-28.2 -67.33)"/><path class="cls-1" d="M191.54 676.21c-6.32 0-11.45-5.84-11.45-13s5.13-13 11.45-13S203 656 203 663.18s-5.15 13.03-11.46 13.03zm0-23.06c-4.66 0-8.45 4.5-8.45 10s3.79 10 8.45 10 8.45-4.5 8.45-10-3.79-10-8.45-10z" transform="translate(-28.2 -67.33)"/><path class="cls-1" d="M178.14 684l-1.92-2.3a24.19 24.19 0 018.78-4.2 1.51 1.51 0 001.12-1.16l.66-3.46 2.95.56-.66 3.46a4.52 4.52 0 01-3.31 3.5 21.67 21.67 0 00-7.62 3.6zm27.4-.83a42.73 42.73 0 00-8.34-3 4.49 4.49 0 01-3.44-3.36l-.82-3.45 2.92-.69.82 3.46a1.49 1.49 0 001.15 1.11 46.25 46.25 0 019 3.24z" transform="translate(-28.2 -67.33)"/><path class="cls-1" d="M131.89 543.7h3v14.1h-3z"/><path class="cls-1" d="M191.82 645.09a1.5 1.5 0 01-1.5-1.5v-7a1.5 1.5 0 013 0v7a1.5 1.5 0 01-1.5 1.5zM130.54 639a1.5 1.5 0 01-1.5-1.5v-7a1.5 1.5 0 013 0v7a1.5 1.5 0 01-1.5 1.5zm61.28-7.92a1.5 1.5 0 01-1.5-1.5v-2.4h-1.6a1.5 1.5 0 010-3h3.1a1.5 1.5 0 011.5 1.5v3.9a1.5 1.5 0 01-1.5 1.51zm-10.1-3.9h-7a1.5 1.5 0 010-3h7a1.5 1.5 0 110 3zm-14 0h-7a1.5 1.5 0 010-3h7a1.5 1.5 0 110 3zm-14 0h-7a1.5 1.5 0 010-3h7a1.5 1.5 0 110 3zm-14 0h-7a1.5 1.5 0 010-3h7a1.5 1.5 0 110 3zm50.61 225.68a5.21 5.21 0 01-2.63-.72 5.15 5.15 0 01-2.58-4.5v-35.29a5.21 5.21 0 015.2-5.21H202a5.22 5.22 0 015.21 5.21v29.26a5.21 5.21 0 01-2.64 4.53h-.05l-11.64 6a5.09 5.09 0 01-2.55.72zm0-42.72a2.2 2.2 0 00-2.2 2.21v35.29a2.2 2.2 0 003.29 1.92l11.66-6a2.23 2.23 0 001.1-1.91v-29.3a2.21 2.21 0 00-2.21-2.21z" transform="translate(-28.2 -67.33)"/><path class="cls-1" d="M104.24 935.46h58.08v3h-58.08zm13.98-62.09l-2.14-1.66-1.73-14.09 2.98-.37 1.31 10.69 6.73-8.65 2.37 1.84-9.52 12.24z"/><path class="cls-1" transform="rotate(-43.9 53.558 945.263)" d="M149.65 936.55h3v14.65h-3z"/><path class="cls-1" d="M91.84 1016.77h109.85v3H91.84z"/><path class="cls-1" d="M156.78 1150.36a1.5 1.5 0 01-1.5-1.5v-7a1.5 1.5 0 013 0v7a1.5 1.5 0 01-1.5 1.5zm0-14a1.5 1.5 0 01-1.5-1.5v-7a1.5 1.5 0 013 0v7a1.5 1.5 0 01-1.5 1.5zm0-14a1.5 1.5 0 01-1.5-1.5v-7a1.5 1.5 0 013 0v7a1.5 1.5 0 01-1.5 1.5zm0-14a1.5 1.5 0 01-1.5-1.5v-7a1.5 1.5 0 013 0v7a1.5 1.5 0 01-1.5 1.5zm0-14a1.5 1.5 0 01-1.5-1.5v-7a1.5 1.5 0 013 0v7a1.5 1.5 0 01-1.5 1.5zm37.1 56a1.5 1.5 0 01-1.5-1.5v-7a1.5 1.5 0 013 0v7a1.5 1.5 0 01-1.5 1.5zm0-14a1.5 1.5 0 01-1.5-1.5v-7a1.5 1.5 0 013 0v7a1.5 1.5 0 01-1.5 1.5zm0-14a1.5 1.5 0 01-1.5-1.5v-7a1.5 1.5 0 013 0v7a1.5 1.5 0 01-1.5 1.5zm0-14a1.5 1.5 0 01-1.5-1.5v-7a1.5 1.5 0 013 0v7a1.5 1.5 0 01-1.5 1.5zm0-14a1.5 1.5 0 01-1.5-1.5v-7a1.5 1.5 0 013 0v7a1.5 1.5 0 01-1.5 1.5z" transform="translate(-28.2 -67.33)"/><path class="cls-1" d="M225 1117.36h-7a1.5 1.5 0 110-3h7a1.5 1.5 0 010 3zm-14 0h-7a1.5 1.5 0 110-3h7a1.5 1.5 0 010 3zm-14 0h-7a1.5 1.5 0 110-3h7a1.5 1.5 0 010 3zm-14 0h-7a1.5 1.5 0 110-3h7a1.5 1.5 0 010 3zm-14 0h-7a1.5 1.5 0 110-3h7a1.5 1.5 0 010 3zm-14 0h-7a1.5 1.5 0 110-3h7a1.5 1.5 0 010 3zm-14 0h-7a1.5 1.5 0 110-3h7a1.5 1.5 0 010 3zm-14 0h-7a1.5 1.5 0 110-3h7a1.5 1.5 0 010 3z" transform="translate(-28.2 -67.33)"/><path class="cls-1" d="M109.83 1038.34l-6.9-6.63 2.07-2.16 4.79 4.59 8.12-8.11 2.12 2.12-10.2 10.19zm72.82 0l-6.9-6.63 2.08-2.16 4.78 4.59 8.12-8.11 2.12 2.12-10.2 10.19zm-36.46 32.41l-6.9-6.63 2.08-2.16 4.78 4.59 8.11-8.11 2.13 2.12-10.2 10.19z"/><path class="cls-1" d="M156.85 531.58h-1.09c-11.46-.51-20.21-5.21-24.63-13.23-4.17-7.58-3.71-17.27 1.24-25.94 4.11-7.18 12.17-13.44 21.5-20.68 2.23-1.73 4.53-3.52 6.87-5.39 10.2-8.16 14.57-20.69 11.13-31.93-3.15-10.28-12.3-17-24.47-18a23.22 23.22 0 00-17.7 5.46 31 31 0 00-10 19.36c-.06.86-.2 1.68-.33 2.47s-.23 1.37-.28 2v.21c-.27 3.47-.77 9.91-5.13 12.09l-1.34-2.68c2.84-1.42 3.27-7 3.48-9.64v-.22c.06-.79.19-1.56.31-2.3s.25-1.46.3-2.16a34.29 34.29 0 0111-21.44c5.47-4.73 12.17-6.8 19.9-6.18 13.45 1.08 23.58 8.6 27.1 20.11 3.8 12.41-1 26.21-12.13 35.14-2.34 1.88-4.66 3.68-6.9 5.42-9.08 7.05-16.92 13.13-20.73 19.8-4.43 7.75-4.89 16.35-1.22 23 3.9 7.07 11.76 11.22 22.14 11.68s17.22-6.45 20-13.08c3.69-8.67 1.92-18.23-4.52-24.33-7.83-7.44-7-17.62-2.62-24.42a20 20 0 0124.82-7.91c7.44 2.93 10.5 10.08 12.73 15.31a22.39 22.39 0 002.77 5.32c1.35 1.52 6.25 1.88 9.3 1.65l.23 3c-.9.07-8.9.58-11.78-2.65a23.61 23.61 0 01-3.27-6.14c-2.14-5-4.8-11.22-11.08-13.69-10-3.93-17.64 1.17-21.19 6.73-3.67 5.76-4.43 14.37 2.16 20.63 7.35 7 9.4 17.84 5.21 27.69-3.88 9.3-12.18 14.94-21.78 14.94zm-56.96-69.84a70.53 70.53 0 01-7.14-.36 1.5 1.5 0 11.3-3 67.81 67.81 0 006.84.34 1.5 1.5 0 010 3zM86 460.33h-.31a68.8 68.8 0 01-6.91-1.81 1.5 1.5 0 01.9-2.86 66.4 66.4 0 006.62 1.73 1.5 1.5 0 01-.3 3zm-13.33-4.23a1.57 1.57 0 01-.6-.12 69.35 69.35 0 01-6.4-3.19 1.5 1.5 0 011.47-2.61c2 1.11 4 2.14 6.13 3.05a1.49 1.49 0 01.77 2 1.47 1.47 0 01-1.37.87zm-12.18-6.86a1.45 1.45 0 01-.86-.28 68.23 68.23 0 01-5.63-4.42 1.5 1.5 0 012-2.26c1.72 1.5 3.53 2.92 5.38 4.24a1.5 1.5 0 01-.87 2.72zM50 440.05a1.5 1.5 0 01-1.1-.48 68.45 68.45 0 01-4.6-5.46 1.5 1.5 0 112.39-1.82c1.37 1.81 2.86 3.57 4.41 5.24a1.5 1.5 0 01-.08 2.12 1.48 1.48 0 01-1.02.4zm-8.44-11.13a1.52 1.52 0 01-1.29-.72 70.63 70.63 0 01-3.39-6.29 1.5 1.5 0 112.7-1.29 67.3 67.3 0 003.26 6 1.5 1.5 0 01-.51 2.06 1.46 1.46 0 01-.8.24zm-6-12.62a1.5 1.5 0 01-1.41-1 70 70 0 01-2-6.85 1.5 1.5 0 012.92-.71 65 65 0 001.95 6.56 1.51 1.51 0 01-.91 1.92 1.81 1.81 0 01-.59.08zm-3.29-13.58a1.49 1.49 0 01-1.48-1.3 70.22 70.22 0 01-.6-7.12 1.49 1.49 0 011.45-1.54 1.47 1.47 0 011.55 1.44c.08 2.28.27 4.57.57 6.82a1.5 1.5 0 01-1.28 1.69zm-.46-14h-.1a1.5 1.5 0 01-1.39-1.6 67.11 67.11 0 01.85-7.1 1.5 1.5 0 112.95.51 66.91 66.91 0 00-.81 6.79 1.5 1.5 0 01-1.54 1.44zM34.15 375a1.84 1.84 0 01-.41-.05 1.51 1.51 0 01-1-1.85 70.09 70.09 0 012.26-6.79 1.5 1.5 0 012.79 1.1 67.73 67.73 0 00-2.18 6.49 1.5 1.5 0 01-1.46 1.1zm5.13-13a1.56 1.56 0 01-.69-.17 1.49 1.49 0 01-.63-2 68.15 68.15 0 013.62-6.17 1.5 1.5 0 112.5 1.65 65.9 65.9 0 00-3.46 5.9 1.51 1.51 0 01-1.34.79zM47 350.33a1.5 1.5 0 01-1.16-2.45 68.9 68.9 0 014.8-5.3 1.49 1.49 0 012.12 0 1.51 1.51 0 010 2.12 67.12 67.12 0 00-4.6 5.08 1.48 1.48 0 01-1.16.55zm9.89-9.87a1.51 1.51 0 01-1.16-.55 1.5 1.5 0 01.22-2.11 68.19 68.19 0 015.77-4.22 1.5 1.5 0 011.64 2.51 66 66 0 00-5.52 4 1.48 1.48 0 01-.98.37zm11.69-7.66a1.5 1.5 0 01-.69-2.83 70.59 70.59 0 016.51-3 1.5 1.5 0 011.1 2.8 67.08 67.08 0 00-6.23 2.82 1.44 1.44 0 01-.72.21zm13-5.11a1.48 1.48 0 01-1.44-1.1 1.5 1.5 0 011-1.85 69.56 69.56 0 017-1.55 1.5 1.5 0 11.5 2.95 66.43 66.43 0 00-6.68 1.5 1.83 1.83 0 01-.41.05zm13.77-2.34a1.5 1.5 0 01-.09-3c1.53-.1 3.1-.15 4.66-.15a1.5 1.5 0 010 3c-1.49 0-3 .05-4.47.15z" transform="translate(-28.2 -67.33)"/><path class="cls-1" d="M66.65 400.18l-1.64-2.5 7.2-4.74-6.93-5.18 1.8-2.4 10.36 7.75-10.79 7.07z"/><path class="cls-1" d="M98.67 790.14a70.82 70.82 0 01-7.14-.36 1.5 1.5 0 01-1.34-1.64 1.48 1.48 0 011.64-1.34c2.26.22 4.56.34 6.84.34a1.5 1.5 0 010 3zm-13.9-1.4h-.3a70.94 70.94 0 01-6.92-1.79 1.5 1.5 0 11.89-2.86c2.17.68 4.4 1.25 6.63 1.71a1.5 1.5 0 01-.3 3zm-13.34-4.18a1.59 1.59 0 01-.59-.12 69.26 69.26 0 01-6.41-3.16 1.49 1.49 0 01-.58-2 1.5 1.5 0 012-.58 65.9 65.9 0 006.14 3 1.5 1.5 0 01-.6 2.88zm-12.21-6.79a1.53 1.53 0 01-.86-.27 70.42 70.42 0 01-5.65-4.38 1.5 1.5 0 112-2.28 64.64 64.64 0 005.41 4.2 1.48 1.48 0 01.37 2.08 1.5 1.5 0 01-1.27.65zm-10.6-9.11a1.48 1.48 0 01-1.08-.46 72.41 72.41 0 01-4.66-5.42 1.5 1.5 0 112.37-1.84c1.39 1.79 2.89 3.54 4.46 5.19a1.49 1.49 0 01-1.09 2.53zm-8.56-11a1.48 1.48 0 01-1.27-.71 70.4 70.4 0 01-3.48-6.24 1.5 1.5 0 012.7-1.33 66.94 66.94 0 003.32 6 1.5 1.5 0 01-.47 2.07 1.48 1.48 0 01-.8.17zm-6.16-12.58a1.52 1.52 0 01-1.41-1c-.82-2.23-1.54-4.52-2.14-6.82a1.5 1.5 0 012.91-.75c.57 2.2 1.26 4.4 2 6.53a1.5 1.5 0 01-.88 1.93 1.58 1.58 0 01-.48.11zm-3.5-13.53a1.49 1.49 0 01-1.48-1.27 70.74 70.74 0 01-.72-7.11 1.5 1.5 0 013-.15 64.9 64.9 0 00.69 6.81 1.51 1.51 0 01-1.26 1.71zm-.7-13.95h-.07a1.51 1.51 0 01-1.43-1.6c.12-2.37.36-4.76.71-7.11a1.51 1.51 0 011.71-1.25 1.49 1.49 0 011.26 1.7 67.68 67.68 0 00-.68 6.81 1.5 1.5 0 01-1.5 1.45zm2.1-13.81a1.65 1.65 0 01-.38 0 1.51 1.51 0 01-1.08-1.83c.6-2.3 1.32-4.6 2.14-6.82a1.5 1.5 0 112.81 1 59.95 59.95 0 00-2 6.53 1.49 1.49 0 01-1.49 1.12zm4.85-13.11a1.5 1.5 0 01-1.35-2.16c1.05-2.13 2.22-4.23 3.47-6.25a1.5 1.5 0 012.55 1.59 66.007 66.007 0 00-3.33 6 1.5 1.5 0 01-1.34.82zM44 678.83a1.51 1.51 0 01-1.18-2.42 68.61 68.61 0 014.7-5.41 1.5 1.5 0 112.17 2.06c-1.57 1.65-3.07 3.4-4.46 5.19a1.48 1.48 0 01-1.23.58zm9.63-10.13a1.46 1.46 0 01-1.13-.53 1.5 1.5 0 01.15-2.11c1.81-1.55 3.71-3 5.65-4.38a1.5 1.5 0 111.72 2.46c-1.86 1.3-3.68 2.71-5.41 4.19a1.46 1.46 0 01-.94.37zm11.46-8a1.5 1.5 0 01-.73-2.81 69.13 69.13 0 016.41-3.15 1.5 1.5 0 111.23 2.75c-2.08.9-4.15 1.91-6.14 3a1.47 1.47 0 01-.73.21zM78 655.18a1.5 1.5 0 01-.45-2.93 70.94 70.94 0 016.92-1.79 1.5 1.5 0 01.6 2.94 67.64 67.64 0 00-6.62 1.71 1.45 1.45 0 01-.45.07zm13.68-2.8a1.5 1.5 0 01-.15-3c2.36-.23 4.76-.35 7.14-.36a1.5 1.5 0 010 3c-2.28 0-4.58.12-6.84.35z" transform="translate(-28.2 -67.33)"/><path class="cls-1" d="M65.37 728.64l-1.65-2.5 7.31-4.8-7.03-5.26 1.8-2.4 10.46 7.82-10.89 7.14z"/><path class="cls-1" d="M100.08 1109.8a70.48 70.48 0 01-7.13-.36 1.5 1.5 0 11.3-3 67.46 67.46 0 006.83.34 1.5 1.5 0 010 3zm-13.9-1.41a1.53 1.53 0 01-.3 0 71 71 0 01-6.92-1.8 1.5 1.5 0 11.91-2.86 67.69 67.69 0 006.62 1.72 1.5 1.5 0 01-.31 3zm-13.32-4.21a1.44 1.44 0 01-.6-.13 70.44 70.44 0 01-6.4-3.17 1.5 1.5 0 011.47-2.62 63.49 63.49 0 006.13 3 1.5 1.5 0 01-.6 2.88zm-12.19-6.85a1.46 1.46 0 01-.86-.27 68.11 68.11 0 01-5.62-4.41 1.5 1.5 0 112-2.26c1.72 1.49 3.53 2.91 5.39 4.22a1.5 1.5 0 01-.87 2.72zm-10.54-9.17a1.49 1.49 0 01-1.09-.47 70.72 70.72 0 01-4.62-5.45 1.5 1.5 0 112.38-1.83 67.21 67.21 0 004.43 5.23 1.49 1.49 0 01-1.1 2.52zm-8.47-11.1a1.5 1.5 0 01-1.28-.72c-1.24-2-2.39-4.14-3.42-6.28a1.5 1.5 0 012.71-1.3 65.88 65.88 0 003.27 6 1.5 1.5 0 01-.5 2.06 1.48 1.48 0 01-.78.24zm-6-12.6a1.5 1.5 0 01-1.42-1 70 70 0 01-2.06-6.84 1.5 1.5 0 112.91-.72 67.65 67.65 0 002 6.55 1.5 1.5 0 01-.91 1.92 1.47 1.47 0 01-.56.09zm-3.35-13.57a1.5 1.5 0 01-1.48-1.29 70.5 70.5 0 01-.63-7.12 1.5 1.5 0 011.45-1.55 1.46 1.46 0 011.55 1.44c.09 2.28.29 4.57.6 6.82a1.51 1.51 0 01-1.28 1.69zm-.52-14h-.09a1.49 1.49 0 01-1.4-1.59 69.77 69.77 0 01.81-7.1 1.5 1.5 0 113 .49 67 67 0 00-.78 6.8 1.5 1.5 0 01-1.58 1.44zm2.31-13.78a1.33 1.33 0 01-.4 0 1.51 1.51 0 01-1-1.85 67.29 67.29 0 012.25-6.78 1.5 1.5 0 112.79 1.08 67.72 67.72 0 00-2.15 6.5 1.49 1.49 0 01-1.53 1.09zm5.06-13a1.4 1.4 0 01-.68-.17 1.49 1.49 0 01-.65-2 70.35 70.35 0 013.58-6.18 1.5 1.5 0 012.52 1.63 65.92 65.92 0 00-3.43 5.92 1.51 1.51 0 01-1.38.82zm7.62-11.72a1.5 1.5 0 01-1.21-2.39 70.73 70.73 0 014.76-5.33 1.5 1.5 0 112.13 2.11c-1.6 1.62-3.13 3.33-4.56 5.1a1.48 1.48 0 01-1.16.53zm9.82-9.93a1.5 1.5 0 01-1-2.66 70.43 70.43 0 015.74-4.26 1.5 1.5 0 011.66 2.5 68.33 68.33 0 00-5.49 4.07 1.51 1.51 0 01-.95.37zm11.63-7.75a1.5 1.5 0 01-.7-2.82 69.44 69.44 0 016.49-3 1.5 1.5 0 011.12 2.78 67.2 67.2 0 00-6.21 2.88 1.45 1.45 0 01-.74.18zm13-5.21a1.5 1.5 0 01-.41-2.94 68.86 68.86 0 017-1.62 1.5 1.5 0 01.53 2.95 65.64 65.64 0 00-6.66 1.55 1.52 1.52 0 01-.54.08zm13.75-2.46a1.5 1.5 0 01-.11-3c1.75-.14 3.53-.2 5.29-.2a1.5 1.5 0 110 3c-1.68 0-3.39.06-5.06.19z" transform="translate(-28.2 -67.33)"/><path class="cls-1" d="M66.83 1048.26l-1.64-2.51 7.23-4.74-6.96-5.21 1.8-2.4 10.38 7.77-10.81 7.09z"/><path class="cls-1" d="M222.76 297.35a1.5 1.5 0 010-3 67.81 67.81 0 006.84-.34 1.5 1.5 0 01.3 3 70.82 70.82 0 01-7.14.34zm13.9-1.41a1.5 1.5 0 01-.3-3c2.23-.46 4.45-1 6.62-1.72a1.49 1.49 0 011.88 1 1.51 1.51 0 01-1 1.89 71 71 0 01-6.92 1.8zm13.34-4.22a1.47 1.47 0 01-1.37-.9 1.49 1.49 0 01.77-2 66 66 0 006.13-3.05 1.5 1.5 0 011.47 2.62 71.873 71.873 0 01-6.4 3.18 1.61 1.61 0 01-.6.15zm12.18-6.85a1.52 1.52 0 01-1.23-.63 1.5 1.5 0 01.37-2.09c1.85-1.31 3.66-2.74 5.38-4.23a1.5 1.5 0 012 2.26 70.44 70.44 0 01-5.7 4.42 1.56 1.56 0 01-.84.27zm10.54-9.18a1.49 1.49 0 01-1.1-2.52 66.75 66.75 0 004.42-5.23 1.5 1.5 0 012.39 1.82 70.53 70.53 0 01-4.62 5.46 1.49 1.49 0 01-1.11.47zm8.46-11.11a1.46 1.46 0 01-.78-.22 1.51 1.51 0 01-.5-2.07 65.78 65.78 0 003.26-6 1.5 1.5 0 012.71 1.3 69.29 69.29 0 01-3.41 6.28 1.51 1.51 0 01-1.3.71zm6-12.61a1.52 1.52 0 01-.51-.09 1.49 1.49 0 01-.91-1.91 65.7 65.7 0 002-6.55 1.5 1.5 0 112.91.71 69 69 0 01-2 6.85 1.5 1.5 0 01-1.48 1.02zm3.32-13.57h-.21a1.51 1.51 0 01-1.29-1.7 67.45 67.45 0 00.59-6.82 1.5 1.5 0 113 .11 70.74 70.74 0 01-.62 7.12 1.49 1.49 0 01-1.46 1.29zm.5-14a1.5 1.5 0 01-1.5-1.4 67.07 67.07 0 00-.79-6.8 1.5 1.5 0 013-.5 70.45 70.45 0 01.82 7.1 1.5 1.5 0 01-1.4 1.6zm-2.33-13.78a1.5 1.5 0 01-1.45-1.1 64.93 64.93 0 00-2.16-6.49 1.5 1.5 0 012.79-1.09 67.35 67.35 0 012.26 6.78 1.49 1.49 0 01-1 1.85 1.37 1.37 0 01-.43.09zm-5.1-13a1.49 1.49 0 01-1.33-.81 66.88 66.88 0 00-3.44-5.91 1.5 1.5 0 112.51-1.64c1.3 2 2.51 4.07 3.6 6.17a1.49 1.49 0 01-1.34 2.19zM275.94 186a1.5 1.5 0 01-1.16-.55c-1.44-1.77-3-3.48-4.58-5.1a1.5 1.5 0 112.13-2.11 68.93 68.93 0 014.78 5.32 1.51 1.51 0 01-.22 2.11 1.55 1.55 0 01-.95.33zm-9.85-10a1.5 1.5 0 01-.95-.34 66.21 66.21 0 00-5.51-4.06 1.5 1.5 0 111.66-2.5c2 1.31 3.91 2.74 5.75 4.24a1.5 1.5 0 01.21 2.11 1.51 1.51 0 01-1.16.55zm-11.65-7.71a1.48 1.48 0 01-.7-.17 67 67 0 00-6.21-2.86 1.5 1.5 0 111.11-2.78 70.57 70.57 0 016.5 3 1.5 1.5 0 01-.7 2.83zm-13-5.17a1.51 1.51 0 01-.41-.06c-2.18-.62-4.43-1.13-6.66-1.53a1.5 1.5 0 01.51-2.95c2.34.41 4.69.95 7 1.59a1.5 1.5 0 01-.41 2.95zm-13.76-2.42h-.1c-1.6-.11-3.23-.17-4.84-.17a1.5 1.5 0 010-3c1.68 0 3.38.06 5.05.18a1.5 1.5 0 01-.11 3z" transform="translate(-28.2 -67.33)"/><path class="cls-1" d="M199.6 235.8l-10.8-7.08 10.38-7.76 1.79 2.4-6.94 5.2 7.22 4.74-1.65 2.5z"/><path class="cls-1" d="M220.36 622a1.5 1.5 0 010-3c2.28 0 4.58-.12 6.84-.34a1.5 1.5 0 01.3 3 70.82 70.82 0 01-7.14.34zm13.9-1.4a1.5 1.5 0 01-.3-3 67.69 67.69 0 006.62-1.72 1.5 1.5 0 01.9 2.86 68.2 68.2 0 01-6.92 1.79 1.54 1.54 0 01-.3.07zm13.33-4.2a1.51 1.51 0 01-1.38-.91 1.49 1.49 0 01.79-2 67.06 67.06 0 006.13-3 1.5 1.5 0 011.47 2.62 70.79 70.79 0 01-6.42 3.17 1.52 1.52 0 01-.59.12zm12.2-6.81a1.5 1.5 0 01-.86-2.73c1.86-1.31 3.68-2.72 5.4-4.21a1.5 1.5 0 012 2.27 69.88 69.88 0 01-5.64 4.39 1.45 1.45 0 01-.9.28zm10.58-9.14a1.45 1.45 0 01-1-.41 1.49 1.49 0 01-.06-2.12c1.56-1.65 3.05-3.4 4.44-5.2a1.5 1.5 0 112.38 1.83 70.67 70.67 0 01-4.64 5.43 1.53 1.53 0 01-1.12.47zm8.52-11.07a1.42 1.42 0 01-.79-.23 1.5 1.5 0 01-.49-2.06 67.19 67.19 0 003.3-6 1.5 1.5 0 112.7 1.31c-1 2.13-2.2 4.24-3.45 6.26a1.48 1.48 0 01-1.27.72zm6.11-12.57a1.36 1.36 0 01-.52-.09 1.49 1.49 0 01-.89-1.92 65.75 65.75 0 002-6.54 1.5 1.5 0 112.91.74 68.19 68.19 0 01-2.11 6.83 1.48 1.48 0 01-1.39.98zm3.43-13.54h-.22a1.5 1.5 0 01-1.27-1.7 67.06 67.06 0 00.65-6.81 1.5 1.5 0 013 .13 70.56 70.56 0 01-.67 7.12 1.5 1.5 0 01-1.49 1.26zm.61-14a1.49 1.49 0 01-1.49-1.42 67.28 67.28 0 00-.73-6.8 1.5 1.5 0 113-.47 67.46 67.46 0 01.76 7.11 1.5 1.5 0 01-1.41 1.58zm-2.18-13.8a1.49 1.49 0 01-1.45-1.11 67.79 67.79 0 00-2.1-6.52 1.5 1.5 0 012.81-1.06 70.11 70.11 0 012.19 6.81 1.5 1.5 0 01-1.07 1.83 1.28 1.28 0 01-.38.09zm-4.95-13.07a1.49 1.49 0 01-1.34-.83 65.93 65.93 0 00-3.38-6 1.5 1.5 0 012.54-1.61c1.27 2 2.46 4.1 3.52 6.22a1.5 1.5 0 01-1.34 2.17zm-7.5-11.79a1.53 1.53 0 01-1.18-.57 66.75 66.75 0 00-4.5-5.16 1.5 1.5 0 112.15-2.08 66.9 66.9 0 014.71 5.38 1.51 1.51 0 01-1.18 2.43zm-9.72-10a1.46 1.46 0 01-1-.35 66.21 66.21 0 00-5.45-4.14 1.5 1.5 0 011.69-2.48 70.45 70.45 0 015.69 4.33 1.48 1.48 0 01.18 2.11 1.51 1.51 0 01-1.11.52zm-11.53-7.88a1.57 1.57 0 01-.72-.18 64.57 64.57 0 00-6.17-3 1.5 1.5 0 011.16-2.77 70.53 70.53 0 016.45 3.08 1.52 1.52 0 01.6 2 1.5 1.5 0 01-1.32.86zm-12.89-5.38a1.35 1.35 0 01-.44-.07c-2.17-.65-4.41-1.2-6.64-1.63a1.5 1.5 0 11.57-2.95c2.33.45 4.67 1 6.94 1.71a1.5 1.5 0 01-.43 2.94z" transform="translate(-28.2 -67.33)"/><path class="cls-1" d="M197.24 560.49l-10.86-7.13 10.43-7.79 1.8 2.4-7 5.23 7.27 4.78-1.64 2.51z"/><path class="cls-1" d="M219.16 934.43a1.5 1.5 0 110-3 67.81 67.81 0 006.84-.34 1.5 1.5 0 01.29 3c-2.35.22-4.75.34-7.13.34zm13.9-1.37a1.5 1.5 0 01-.29-3c2.23-.45 4.47-1 6.64-1.68a1.5 1.5 0 01.88 2.87c-2.27.69-4.6 1.28-6.93 1.75zm13.37-4.1a1.5 1.5 0 01-.59-2.88 67.42 67.42 0 006.18-3 1.5 1.5 0 011.43 2.64 74.549 74.549 0 01-6.44 3.09 1.51 1.51 0 01-.58.19zm12.28-6.67a1.5 1.5 0 01-.85-2.74c1.88-1.28 3.72-2.66 5.47-4.12a1.5 1.5 0 111.92 2.3c-1.82 1.52-3.74 3-5.7 4.3a1.46 1.46 0 01-.84.26zm10.72-8.95a1.54 1.54 0 01-1.05-.43 1.5 1.5 0 010-2.12c1.59-1.62 3.12-3.34 4.56-5.12a1.5 1.5 0 112.33 1.88 73.004 73.004 0 01-4.75 5.34 1.48 1.48 0 01-1.09.45zm8.76-10.89a1.5 1.5 0 01-1.25-2.32c1.24-1.91 2.4-3.89 3.45-5.91a1.5 1.5 0 012.66 1.38 70.37 70.37 0 01-3.6 6.17 1.51 1.51 0 01-1.26.68zm6.44-12.4a1.54 1.54 0 01-.55-.11 1.5 1.5 0 01-.84-2 66.8 66.8 0 002.21-6.48 1.52 1.52 0 011.86-1 1.5 1.5 0 011 1.86c-.66 2.28-1.43 4.56-2.31 6.76a1.51 1.51 0 01-1.37.97zm3.86-13.43h-.27a1.5 1.5 0 01-1.21-1.74c.4-2.23.7-4.52.88-6.79a1.5 1.5 0 013 .24c-.19 2.37-.5 4.75-.92 7.08a1.5 1.5 0 01-1.48 1.21zm1.11-13.93a1.51 1.51 0 01-1.5-1.47c0-2.29-.19-4.59-.45-6.83a1.5 1.5 0 113-.35 70.15 70.15 0 01.48 7.12 1.5 1.5 0 01-1.47 1.53zm-1.6-13.88a1.51 1.51 0 01-1.47-1.18 68.4 68.4 0 00-1.79-6.6 1.5 1.5 0 112.85-.93c.73 2.25 1.37 4.57 1.88 6.89a1.51 1.51 0 01-1.15 1.79zm-4.34-13.28a1.48 1.48 0 01-1.37-.89c-.92-2.08-2-4.14-3.08-6.12a1.5 1.5 0 012.59-1.52c1.17 2.06 2.25 4.21 3.21 6.38a1.5 1.5 0 01-.77 2 1.41 1.41 0 01-.6.15zm-6.89-12.16a1.51 1.51 0 01-1.23-.63 68.542 68.542 0 00-4.22-5.39 1.5 1.5 0 112.26-2c1.56 1.8 3 3.69 4.41 5.63a1.49 1.49 0 01-1.22 2.36zm-9.16-10.56a1.51 1.51 0 01-1-.41 71.44 71.44 0 00-5.2-4.46 1.5 1.5 0 011.84-2.37c1.88 1.46 3.71 3 5.43 4.65a1.5 1.5 0 01-1 2.59zm-11-8.56a1.48 1.48 0 01-.8-.23 66.095 66.095 0 00-6-3.34 1.5 1.5 0 111.33-2.69c2.13 1 4.22 2.23 6.24 3.49a1.5 1.5 0 01-.8 2.77zM244 798a1.46 1.46 0 01-.53-.1c-2.12-.8-4.31-1.5-6.51-2.09a1.5 1.5 0 11.77-2.9c2.3.61 4.59 1.35 6.8 2.18A1.5 1.5 0 01244 798zm-13.49-3.6h-.25a67.34 67.34 0 00-6.8-.76 1.5 1.5 0 11.18-3c2.38.15 4.76.42 7.1.79a1.51 1.51 0 01-.23 3z" transform="translate(-28.2 -67.33)"/><path class="cls-1" d="M196.18 873.06l-11.07-7.27 10.63-7.95 1.8 2.4-7.21 5.39 7.5 4.92-1.65 2.51z"/></g></svg>