<svg xmlns="http://www.w3.org/2000/svg" id="Layer_1" data-name="Layer 1" viewBox="0 0 101.46 123.24"><defs><style>.cls-1{fill:#82cdf2}.cls-2{fill:#81b1cc}.cls-4{fill:#ef4753}.cls-5{fill:#fff}.cls-6{fill:#3c8fbc}</style></defs><rect class="cls-1" y="11.82" width="89.97" height="111.41" rx="18.35"/><rect class="cls-2" x="11.49" width="89.97" height="111.41" rx="18.35"/><rect x="5.31" y="5.85" width="89.97" height="111.41" rx="18.35" fill="#d0e9f9"/><rect class="cls-2" x="21.97" y="89.77" width="54.79" height="4.1" rx="2.05"/><rect class="cls-2" x="21.97" y="99" width="54.79" height="4.1" rx="2.05"/><rect class="cls-2" x="20.28" y="28.06" width="22.87" height="4.1" rx="2.05"/><rect class="cls-2" x="20.21" y="18.7" width="13.28" height="4.1" rx="2.05"/><path class="cls-4" transform="rotate(-90 85.755 96.425)" d="M94.31 94h54.15v7.38H94.31z"/><path class="cls-5" d="M86.72 23.72l4 10h-7.39l3.39-10z"/><path class="cls-6" d="M85.8 26.59h2.1l-1.18-2.87-.92 2.87z"/><circle class="cls-1" cx="36.66" cy="59.58" r="19.75"/><path class="cls-4" d="M74.15 77l-3.53 18.31L88.87 88s-3.28-9-14.72-11z" transform="translate(-34.36 -36.89)"/><path class="cls-5" d="M90.62 98.44l-20-3.13L88.82 88s2.26 3.67 1.8 10.44z" transform="translate(-34.36 -36.89)"/><path class="cls-6" d="M51.74 100l18.88-4.66L78 114.9s-7.49 3.84-17.69-1.85c-.05 0-7.31-4.41-8.57-13.05z" transform="translate(-34.36 -36.89)"/><path class="cls-1" d="M64.45 56.88H67a2.65 2.65 0 012.65 2.65v18h-7.86v-18a2.65 2.65 0 012.66-2.65zm10.23-14.47h2.54a2.65 2.65 0 012.65 2.65v32.43H72V45.07a2.65 2.65 0 012.68-2.66z"/></svg>