<svg xmlns="http://www.w3.org/2000/svg" id="Layer_1" data-name="Layer 1" viewBox="0 0 119.46 123.93"><defs><style>.cls-4{fill:#82cdf2}.cls-5{fill:#fff}</style></defs><path d="M79.69 37.09L79 63.84a35.11 35.11 0 017.3-.82 33 33 0 0131 46.25L121 129l18.83-5.8A59.39 59.39 0 0085.6 36.6c-1.98.09-3.96.25-5.91.49z" transform="translate(-27.01 -36.63)" fill="#ef4753"/><path d="M121.22 129l-3.69-20.3v.07a33 33 0 01-54.72 10.3l-19.6-4.38-2 19.38A59 59 0 00142 118.53L121.22 129z" transform="translate(-27.01 -36.63)" fill="#3c8fbc"/><path d="M41.51 134.48l1.65-19.7 20.29 4.9a32.6 32.6 0 01-4.56-5.5A33 33 0 0181.6 63.34l14.77-13.66-14.92-12.87a59.37 59.37 0 00-44.57 91.94c1.12 1.68 3.38 4.25 4.63 5.73z" transform="translate(-27.01 -36.63)" fill="#81b1cc"/><circle class="cls-4" cx="104.9" cy="35.55" r="13.86"/><path class="cls-5" d="M114.45 32.03l-2.63-2.62-8.36 8.37-4.85-4.85-2.63 2.62 7.6 7.35 10.87-10.87z"/><circle class="cls-4" cx="14.88" cy="34.97" r="13.86"/><path class="cls-5" d="M24.43 31.46l-2.63-2.62-8.36 8.36-4.85-4.84-2.63 2.62 7.6 7.34 10.87-10.86z"/><circle class="cls-4" cx="61.97" cy="110.08" r="13.86"/><path class="cls-5" d="M71.52 106.56l-2.62-2.62-8.37 8.37-4.85-4.85-2.62 2.62 7.6 7.35 10.86-10.87z"/></svg>