<svg xmlns="http://www.w3.org/2000/svg" id="Layer_1" data-name="Layer 1" viewBox="0 0 156.41 113.55"><defs><style>.cls-1{fill:#82cdf2}.cls-2{fill:#d0e9f9}.cls-3{fill:#81b1cc}.cls-4{fill:#3c8fbc}.cls-6{fill:#fff}</style></defs><rect class="cls-1" x="11.64" y="14.41" width="128.62" height="89.41" rx="10.94"/><rect class="cls-2" x="21.49" y="3.33" width="128.62" height="89.41" rx="10.94"/><rect class="cls-3" x="16.64" y="9.41" width="128.62" height="89.41" rx="10.94"/><path class="cls-4" d="M152.69 64.24v63.54a10.94 10.94 0 01-10.94 10.94H35a10.94 10.94 0 01-10.94-10.94V64.24" transform="translate(-7.44 -39.9)"/><circle cx="26.46" cy="17.03" r="2.67" fill="#ef4753"/><circle class="cls-6" cx="33.7" cy="17.03" r="2.67"/><circle class="cls-4" cx="41.32" cy="17.03" r="2.67"/><rect class="cls-1" x="62.49" y="31.38" width="57.23" height="4.1" rx="2.05"/><rect class="cls-1" x="31.21" y="31.38" width="22.87" height="4.1" rx="2.05"/><rect class="cls-3" x="63.49" y="50.23" width="66.77" height="4.1" rx="2.05"/><rect class="cls-3" x="31.21" y="50.23" width="22.87" height="4.1" rx="2.05"/><rect class="cls-1" x="62.26" y="68.67" width="35" height="4.1" rx="2.05"/><rect class="cls-1" x="31.21" y="68.67" width="22.87" height="4.1" rx="2.05"/><rect class="cls-1" x="53.82" y="59.31" width="51.79" height="4.1" rx="2.05"/><rect class="cls-3" x="31.13" y="59.31" width="13.28" height="4.1" rx="2.05"/><rect class="cls-1" x="53.82" y="78.18" width="51.79" height="4.1" rx="2.05"/><rect class="cls-1" x="31.13" y="78.18" width="13.28" height="4.1" rx="2.05"/><rect class="cls-3" x="30.51" y="41.03" width="38.67" height="4.1" rx="2.05"/><rect class="cls-1" x="77.74" y="41.03" width="38.67" height="4.1" rx="2.05"/><path class="cls-6" transform="rotate(45 187.823 44.149)" d="M139.14 68.83h8.49v8.49h-8.49z"/><path class="cls-6" transform="rotate(45 95.875 111.693)" d="M46.21 135.39h10.44v10.44H46.21z"/><path class="cls-6" d="M113.13 23.18l-4.52-7.8-7.07-3.79 6.66-4.21L113.13 0l4.74 7.38 6.85 4.21-6.87 4.41-4.72 7.18z"/><path class="cls-2" d="M11.59 80.41l-4.51-7.8L0 68.82l6.67-4.21 4.92-7.38 4.74 7.38 6.85 4.21-6.87 4.41-4.72 7.18z"/><path class="cls-6" d="M142.15 87.8l-3.37-5.83-5.29-2.84 4.98-3.15 3.68-5.52 3.55 5.52 5.12 3.15-5.14 3.3-3.53 5.37z"/><path class="cls-2" transform="rotate(-45 63.502 120.716)" d="M88.31 128h54.15v7.38H88.31z"/><path class="cls-6" d="M133.16 105.92h4.89a3.69 3.69 0 013.69 3.69 3.69 3.69 0 01-3.69 3.69h-4.89v-7.38z" transform="rotate(-45 85.575 98.634)"/><circle class="cls-2" cx="118.26" cy="66.46" r="2.67"/><circle class="cls-2" cx="135.28" cy="14.97" r="2.67"/><circle class="cls-2" cx="153.74" cy="67.49" r="2.67"/></svg>