<svg xmlns="http://www.w3.org/2000/svg" id="Layer_1" data-name="Layer 1" viewBox="0 0 97.82 115.54"><defs><style>.cls-1{fill:#3c8fbc}.cls-2{fill:none;stroke:#d2d3d5;stroke-miterlimit:10;stroke-width:3px;stroke-dasharray:10 6}.cls-3{fill:#ef4753}</style></defs><path class="cls-1" d="M15.25 91.6a15.25 15.25 0 0115.25 15.25v5.66a3 3 0 01-3 3H3a3 3 0 01-3-3v-5.66A15.25 15.25 0 0115.25 91.6zm67.32 0a15.25 15.25 0 0115.25 15.25v5.66a3 3 0 01-3 3H70.35a3 3 0 01-3-3v-5.66A15.25 15.25 0 0182.57 91.6z"/><circle class="cls-1" cx="48.82" cy="82.4" r="10.28"/><path class="cls-1" d="M48.87 91.6a15.25 15.25 0 0115.25 15.25v5.66a3 3 0 01-3 3H36.65a3 3 0 01-3-3v-5.66A15.25 15.25 0 0148.87 91.6z"/><path class="cls-2" d="M53.14 115.71v-14.9a8.59 8.59 0 018.59-8.58h49.15a8.58 8.58 0 018.58 8.58v14.9" transform="translate(-37.95 -36.59)"/><path class="cls-2" d="M48.28 40.8v31.32"/><circle class="cls-3" cx="48.82" cy="10.24" r="10.24"/><path class="cls-3" d="M48.87 19.43a15.2 15.2 0 0115.2 15.2v3.47a5.19 5.19 0 01-5.19 5.19h-20a5.19 5.19 0 01-5.19-5.19v-3.47a15.2 15.2 0 0115.2-15.2z"/><circle class="cls-1" cx="15.19" cy="82.4" r="10.28"/><circle class="cls-1" cx="82.52" cy="82.4" r="10.28"/></svg>