<svg xmlns="http://www.w3.org/2000/svg" width="205.333" height="205.333" viewBox="0 0 205.333 205.333"><defs><clipPath clipPathUnits="userSpaceOnUse" id="a"><path d="M0 154h154V0H0z"/></clipPath></defs><g clip-path="url(#a)" transform="matrix(1.33333 0 0 -1.33333 0 205.333)"><path d="M77 0C34.474 0 0 34.474 0 77s34.474 77 77 77 77-34.474 77-77S119.526 0 77 0" fill="#91d79b"/><path d="M82.93 57.7c-.027-3.258-2.684-5.86-5.967-5.848-3.261.013-5.902 2.67-5.892 5.925.009 3.244 2.677 5.893 5.933 5.89 3.294-.003 5.953-2.682 5.926-5.968m-2.931 19.703c-1.77-.379-3.63-.333-5.438-.558-8.267-1.034-15.808-7.663-16.728-16.706-.877-8.623 4.842-17.012 13.202-19.392.436-.124.874-.243 1.31-.364-4.2.435-8.198 1.602-11.935 3.56-11.01 5.77-17.773 14.78-19.898 27.016-3.021 17.4 6.97 34.52 23.533 40.716a36.682 36.682 0 0012.045 2.324c8.686.21 16.642-6.23 18.286-14.768 1.963-10.192-4.23-19.653-14.377-21.828m-3.11 39.87c-22.115 0-40.108-17.993-40.108-40.11 0-22.116 17.993-40.109 40.109-40.109 22.117 0 40.11 17.993 40.11 40.11 0 22.116-17.993 40.11-40.11 40.11" fill="#fff"/><path d="M77.043 102.147c-3.278.013-5.939-2.59-5.973-5.844-.033-3.276 2.64-5.968 5.93-5.972 3.257-.005 5.92 2.64 5.93 5.89a5.913 5.913 0 01-5.887 5.927" fill="#fff"/></g></svg>