<?xml version="1.0" encoding="UTF-8"?> <svg xmlns="http://www.w3.org/2000/svg" xmlns:xlink="http://www.w3.org/1999/xlink" version="1.1" id="Layer_1" x="0px" y="0px" viewBox="0 0 300 300" style="enable-background:new 0 0 300 300;" xml:space="preserve"> <g> <g id="QzSidw_00000039098084822348604800000013225498611755694256_"> <g> <path d="M150,300c-22.7,0-45.5,0-68.2,0c-13.5,0-21.8-8.3-21.8-21.7c0-28.7,0-57.4,0.1-86.1c0-2.5-0.8-3.8-2.8-5.2 c-14-9.5-27.8-19.1-41.7-28.7c-10.7-7.4-10.7-19.2,0.1-26.7c13.9-9.6,27.8-19.2,41.7-28.7c2-1.4,2.7-2.8,2.7-5.2 c-0.1-25.5-0.1-51,0-76.4c0-11.1,6.6-19.2,17-21C78.5,0,80.1,0,81.6,0c45.6,0,91.2,0,136.8,0C231.7,0,240,8.3,240,21.5 c0,25.5,0,51,0,76.4c0,2.2,0.6,3.5,2.5,4.8c14,9.6,28,19.2,42,28.9c10.7,7.4,10.8,19.3,0.1,26.7c-13.8,9.6-27.6,19.1-41.5,28.5 c-2.2,1.5-3,3-3,5.6c0.1,28.7,0.1,57.4,0.1,86.1c0,11.2-6.5,19.2-16.8,21.1c-1.7,0.3-3.5,0.3-5.2,0.3 C195.3,300,172.6,300,150,300z M70,144.9c0,12,0.1,24,0,36c0,2.1,0.7,3.3,2.4,4.5c24.4,16.7,48.7,33.5,73,50.3 c4.1,2.8,5.1,2.9,9.2,0c24.3-16.8,48.7-33.6,73-50.3c1.7-1.2,2.4-2.4,2.4-4.5c-0.1-23.9-0.1-47.8,0-71.8c0-1.9-0.3-3.2-2-4.4 c-2.9-2.1-2.9-6.1,0-7.9c1.7-1.1,2.1-2.3,2-4c-0.1-1.8,0-3.5,0-5.3c0-22.1,0-44.1,0-66.2c0-7.5-3.9-11.3-11.4-11.4 c-4.6,0-9.2-0.1-13.8,0.1c-1.5,0.1-3.2,0.8-4.2,1.8c-3.7,3.6-7.2,7.5-10.7,11.3c-4.4,4.7-9.7,6.9-16.2,6.9 c-15.8-0.1-31.6-0.1-47.4,0c-6.6,0-12-2.3-16.4-7.1c-3.4-3.7-6.8-7.5-10.5-11c-1-1-2.8-1.7-4.2-1.8C90.4,9.9,85.6,10,80.9,10 c-6.7,0-10.8,4-10.8,10.7c-0.1,24.3,0,48.6,0,72.9c0,0.9,0.7,2.1,1.5,2.7c3.2,2.4,3.3,5.8,0.3,8.7c-1,0.9-1.8,2.5-1.8,3.8 C70,120.9,70,132.9,70,144.9z M70.2,196c-0.1,1.5-0.1,2.4-0.1,3.2c0,18,0,35.9,0,53.9c0,8.1,3.7,11.8,11.8,11.8 c45.5,0,91,0,136.5,0c7.9,0,11.7-3.7,11.7-11.6c0-18.1,0-36.1,0-54.2c0-0.9-0.1-1.8-0.1-3.1c-1.4,0.9-2.2,1.5-3.1,2.1 c-22.3,15.4-44.7,30.8-67,46.2c-6.8,4.7-12.6,4.7-19.5-0.1c-15.7-10.8-31.3-21.6-47-32.4C85.7,206.7,78.1,201.5,70.2,196z M70,273.3c0,1.4,0,3.3,0,5.2c0.1,7.6,3.9,11.5,11.6,11.5c19.7,0,39.4,0,59.2,0c26.1,0,52.1,0,78.2,0c4.5,0,8.1-1.6,10-5.8 c1.8-3.7,0.9-7.7,1-10.9c-4.4,0.6-8.4,1.6-12.4,1.6c-45,0.1-90,0.1-135,0C78.5,274.9,74.5,273.9,70,273.3z M240.2,176.6 c1-0.6,1.6-1,2.3-1.4c12.1-8.4,24.3-16.7,36.4-25.1c4.7-3.3,4.7-6.8-0.1-10.1c-12-8.3-24.1-16.6-36.1-24.9 c-0.7-0.5-1.4-0.9-2.5-1.5C240.2,134.6,240.2,155.3,240.2,176.6z M59.9,113.4c-1,0.6-1.6,0.9-2.1,1.3 c-12.3,8.5-24.6,16.9-36.9,25.4c-4.4,3.1-4.4,6.7,0,9.8c12.3,8.5,24.6,16.9,36.9,25.4c0.6,0.4,1.2,0.7,2.1,1.1 C59.9,155.3,59.9,134.7,59.9,113.4z M188.2,10.3c-25.7,0-50.8,0-76.4,0c2.3,2.5,4.1,5,6.4,6.7c2,1.5,4.7,2.9,7,2.9 c16.5,0.2,33,0.2,49.5,0c2.4,0,5-1.4,7-2.9C184.1,15.2,185.9,12.8,188.2,10.3z"></path> <path d="M172.4,55.6c1.5,0.4,2.3,0.4,2.8,0.8c3.7,2.5,7.5,5,11,7.7c2,1.5,2.1,4.3,0.8,6.4c-1.4,2-4,3-6.2,1.6 c-3.8-2.3-7.5-4.9-11.1-7.6c-1.8-1.4-2.3-3.7-1.1-5.5C169.5,57.5,171.3,56.5,172.4,55.6z"></path> <path d="M127.4,55.5c1.3,1.2,3,2.3,3.9,3.7c1.2,2,0.5,4.2-1.2,5.5c-3.5,2.6-7.1,5.1-10.8,7.4c-2.2,1.3-4.4,0.6-6-1.3 c-1.6-2-1.9-4.5,0-6.1c3.7-3.1,7.9-5.6,11.9-8.4c0.4-0.3,1.1-0.2,1.7-0.3C127,55.8,127.2,55.7,127.4,55.5z"></path> <path d="M202.1,76.1c0.1,0,0.2,0,0.3,0c5.4,2.1,10.2,5.1,13.7,9.8c0.7,1,0,4-1.1,5.1c-1.1,1.1-3.9,1.7-5.1,1 c-3.9-2.1-7.7-4.7-11-7.6c-1.1-0.9-1.5-3.7-1-5.2c0.5-1.5,2.5-2.5,3.8-3.7C201.8,75.7,202,75.9,202.1,76.1z"></path> <path d="M103.5,81.1c-1.2,1.7-1.9,3.2-3.1,4.2c-2.8,2.2-5.9,4.2-8.9,6.2c-2.8,1.8-5.6,1.3-7.2-1.1c-1.6-2.3-1.1-5.1,1.4-6.9 c3.1-2.3,6.1-4.6,9.4-6.4c1.4-0.7,3.7-0.7,5.1-0.1C101.6,77.5,102.3,79.4,103.5,81.1z"></path> <path d="M154.5,53.1c-1.4-0.5-2.1-0.8-2.9-0.9c-1-0.1-2.2-0.4-3.1,0c-2.9,1.1-5.5,0.5-6.8-1.9c-1.3-2.3-0.6-4.9,1.6-6.7 c0.4-0.3,0.8-0.5,1.2-0.8c5.2-3.6,9.5-3.2,13.2,2c0.9,1.3,1.1,3.8,0.5,5.3C157.7,51.4,155.7,52.2,154.5,53.1z"></path> </g> </g> <g transform="translate(3 3)"> <path d="M147,199.8c-3,0-6.1-0.8-8.8-2.3l-33.7-19.2c-5.5-3.2-8.9-9-8.9-15.4v-31.5c0-6.3,3.4-12.2,8.9-15.4l33.7-19.3 c5.4-3.1,12.2-3.1,17.6,0l0,0c0,0,0,0,0,0l33.7,19.2c5.5,3.1,8.9,9,8.9,15.4v31.5c0,6.3-3.4,12.2-8.9,15.4l-33.7,19.3 C153.1,199,150,199.8,147,199.8z M147,102.8c-1.6,0-3.2,0.4-4.6,1.2l-33.7,19.3c-2.9,1.6-4.7,4.7-4.7,8v31.5c0,3.3,1.8,6.4,4.7,8 l33.7,19.2c2.8,1.6,6.3,1.6,9.2,0l33.7-19.3c2.9-1.6,4.6-4.7,4.6-8v-31.5c0-3.3-1.8-6.4-4.6-8L151.6,104c0,0,0,0,0,0 C150.2,103.2,148.6,102.8,147,102.8z"></path> <path d="M147,198.5c-2.3,0-4.2-1.9-4.2-4.2v-43.8c0-2.3,1.9-4.2,4.2-4.2s4.2,1.9,4.2,4.2v43.8C151.2,196.6,149.3,198.5,147,198.5z "></path> <path d="M147,152.9c-2.9,0-5.8-0.7-8.4-2.1l-37.4-20.1c-2.1-1.1-2.8-3.7-1.7-5.7c1.1-2.1,3.7-2.8,5.7-1.7l37.4,20.1 c2.7,1.5,6,1.5,8.8,0l37.4-20.1c2.1-1.1,4.6-0.3,5.7,1.7c1.1,2.1,0.3,4.6-1.7,5.7l-37.4,20.1C152.8,152.1,149.9,152.9,147,152.9z"></path> </g> </g> </svg> 