<svg xmlns="http://www.w3.org/2000/svg" width="205.333" height="205.333" viewBox="0 0 205.333 205.333"><defs><clipPath clipPathUnits="userSpaceOnUse" id="a"><path d="M0 154h154V0H0z"/></clipPath></defs><g clip-path="url(#a)" transform="matrix(1.33333 0 0 -1.33333 0 205.333)"><path d="M77 0C34.474 0 0 34.474 0 77s34.474 77 77 77 77-34.474 77-77S119.526 0 77 0" fill="#a5be6d"/><path d="M74.807 35.35c-4.668.05-9.156.818-13.451 2.713-3.715 1.639-6.625 4.314-9.228 7.35-3.743 4.368-6.296 9.41-7.66 15.027-1.146 4.717-.818 9.477-.273 14.265.828 7.27 1.97 14.525 1.8 21.873-.06 2.565-.51 5.118-.715 7.682-.172 2.145-.071 4.279.736 6.312.503 1.269 1.25 2.336 2.732 2.419 1.515.085 2.679-.784 3.259-2.05 1.013-2.208 2.023-4.482 2.56-6.84.885-3.873 1.372-7.837 2.07-11.755.163-.92.444-1.828.778-2.7.136-.353.542-.805.85-.827.295-.021.778.399.91.734.676 1.7 1.46 3.393 1.845 5.17.933 4.309 1.714 8.654 2.46 13.002.385 2.244.534 4.53.842 6.789.377 2.759 1.454 5.147 3.889 6.645 2.193 1.349 4.325.396 5.087-2.12.885-2.917.746-5.894.452-8.846-.535-5.371-1.23-10.725-1.83-16.09a7.238 7.238 0 01.054-2.057c.08-.443.349-1.061.685-1.187.329-.124.986.152 1.259.467.722.832 1.412 1.724 1.939 2.692 2.812 5.164 4.805 10.669 6.533 16.29.95 3.095 1.896 6.217 3.773 8.91.448.642.94 1.28 1.525 1.784 1.259 1.082 2.68 1.225 4.18.489 1.657-.813 2.369-2.202 2.127-3.985a29.1 29.1 0 00-1.008-4.534c-1.394-4.591-2.865-9.158-4.306-13.733-.911-2.89-1.838-5.775-2.726-8.673-.262-.861-.44-1.752-.612-2.638-.186-.958.262-1.428 1.11-.99 1.853.959 3.71 1.956 5.41 3.164 3.18 2.259 5.42 5.447 7.77 8.522 1.902 2.485 3.97 4.824 6.759 6.347 1.789.977 3.515.892 4.67-.202 1.56-1.478 2.009-3.634 1.192-5.533-1.422-3.31-3.616-6.101-5.758-8.927-1.385-1.828-2.918-3.548-4.212-5.44-2.856-4.175-5.027-8.644-4.938-13.906.016-.93.194-1.874.416-2.782.269-1.101 1.425-2.07 2.666-1.943 2.185.223 4.358.627 6.51 1.08 4.086.859 8.143 1.956 12.369 1.47 1.787-.206 3.359-.96 4.267-2.66.899-1.682.429-3.698-1.353-5.068-1.264-.971-2.721-1.688-4.111-2.483-6.38-3.65-12.263-7.967-17.89-12.746-3.621-3.076-7.686-5.707-11.834-8.012-2.193-1.22-4.97-1.43-7.518-1.887-1.992-.358-4.04-.4-6.061-.581" fill="#fff"/></g></svg>