<svg xmlns="http://www.w3.org/2000/svg" width="205.333" height="205.333" viewBox="0 0 205.333 205.333"><defs><clipPath clipPathUnits="userSpaceOnUse" id="a"><path d="M0 154h154V0H0z"/></clipPath></defs><g clip-path="url(#a)" transform="matrix(1.33333 0 0 -1.33333 0 205.333)"><path d="M77 0C34.474 0 0 34.474 0 77s34.474 77 77 77 77-34.474 77-77S119.526 0 77 0" fill="#9cd5db"/><path d="M46.763 91.455c-3.486 0-6.312 2.81-6.312 6.279 0 3.468 2.826 6.279 6.312 6.279s6.312-2.811 6.312-6.28c0-3.467-2.826-6.278-6.312-6.278m11.776-24.69c0-2.065-1.685-3.732-3.763-3.732h-1.174l-2.9-24.224c0-1.258-1.028-2.155-2.295-2.155h-3.294c-1.267 0-2.297.897-2.297 2.155L39.92 63.033h-1.175c-2.078 0-3.764 1.667-3.764 3.733l2.134 18.84c0 2.07 1.685 3.807 3.763 3.807h11.765c2.078 0 3.765-1.737 3.765-3.807zm9.372 23.866c.646.369 1.405.58 2.222.58h13.132c2.324 0 4.206-1.68 4.205-3.987l2.384-16.098c0-2.307-1.883-4.27-4.206-4.27h-1.311l-3.234-32.051c0-1.406-1.15-2.378-2.564-2.378h-3.681c-1.414 0-2.562.972-2.562 2.378l-3.234 32.052-1.19 7.735a3.6 3.6 0 00-.404.623L56.33 97.134a3.549 3.549 0 001.577 4.778l.213.106a3.584 3.584 0 004.803-1.57zm1.046 19.013a1.41 1.41 0 00-1.923.511l-4.225 7.28a1.397 1.397 0 00.515 1.915 1.414 1.414 0 001.924-.514l4.224-7.278c.39-.67.159-1.527-.515-1.914m7.743 2.888c-.776 0-1.407.628-1.408 1.4v8.406c0 .774.63 1.4 1.408 1.4.778 0 1.409-.626 1.409-1.4v-8.405c0-.773-.631-1.401-1.41-1.401m0-18.52c-3.892 0-7.047 3.139-7.047 7.01 0 3.874 3.155 7.013 7.048 7.013 3.892 0 7.048-3.14 7.048-7.012 0-3.872-3.156-7.011-7.048-7.011m9.667 16.143a1.405 1.405 0 00-1.921-.512 1.396 1.396 0 00-.515 1.914l4.224 7.278c.388.67 1.25.9 1.923.514a1.4 1.4 0 00.515-1.916zm20.275-18.7c-3.486 0-6.312 2.81-6.312 6.279 0 3.468 2.826 6.279 6.312 6.279s6.31-2.811 6.31-6.28c0-3.467-2.824-6.278-6.31-6.278m8.014-28.422h-1.174l-2.9-24.224c0-1.258-1.028-2.155-2.297-2.155h-3.293c-1.267 0-2.296.897-2.296 2.155L99.8 63.033h-1.175c-2.08 0-3.764 1.667-3.764 3.733l2.133 18.84c0 2.07 1.685 3.807 3.763 3.807h11.766c2.078 0 3.764-1.737 3.764-3.807l2.13-18.84c0-2.066-1.684-3.733-3.762-3.733" fill="#fff" fill-rule="evenodd"/></g></svg>