<?xml version="1.0" encoding="UTF-8"?> <svg xmlns="http://www.w3.org/2000/svg" xmlns:xlink="http://www.w3.org/1999/xlink" width="169px" height="157px" viewBox="0 0 169 157"><title>Custom software solu</title><g id="Page-1" stroke="none" stroke-width="1" fill="none" fill-rule="evenodd"><g id="Home_10_1v" transform="translate(-2180.000000, -5434.000000)" fill="#000000" fill-rule="nonzero"><g id="Group-3" transform="translate(533.000000, 4409.000000)"><g id="download-(10)" transform="translate(1647.000000, 1025.000000)"><path d="M107.791261,120.392384 L109.752872,111.711921 C110.822841,107.460265 108.326246,103.031457 104.046368,101.614238 L95.6649406,98.7798013 C95.3082841,98.602649 94.9516276,98.4254967 94.9516276,97.8940397 C94.5949711,95.7682119 94.2383146,93.6423841 93.5250017,91.6937086 C93.3466734,91.339404 93.5250017,90.9850993 93.8816581,90.6307947 L100.123147,84.4304636 C103.333055,81.2417219 103.511383,76.4586093 100.83646,72.9155629 L95.3082841,66.1837748 C92.4550322,62.6407285 87.6401696,61.9321192 83.8952765,64.2350993 L76.4054902,69.0182119 C76.0488337,69.1953642 75.6921772,69.1953642 75.3355207,69.0182119 C73.5522383,67.955298 71.5906276,67.0695364 69.4506887,66.1837748 C69.0940322,66.0066225 68.9157039,65.6523179 68.9157039,65.2980132 L68.0240627,56.6175497 C67.489078,52.1887417 63.9225131,49 59.464307,49 L50.5478948,49 C46.0896887,49 42.3447955,52.365894 41.988139,56.6175497 L41.0964978,65.2980132 C41.0964978,65.6523179 40.7398413,66.0066225 40.5615131,66.1837748 C38.4215741,66.8923841 36.4599635,67.955298 34.676681,68.8410596 C34.3200245,69.0182119 33.963368,69.0182119 33.6067115,68.8410596 L25.938597,64.2350993 C22.1937039,61.9321192 17.2005131,62.6407285 14.5255894,66.1837748 L8.99741382,73.0927152 C6.14416191,76.6357616 6.5008184,81.5960265 9.7107268,84.6076159 L15.9522154,90.807947 C16.3088718,91.1622517 16.3088718,91.5165563 16.3088718,91.6937086 C15.7738871,93.6423841 15.2389024,95.7682119 14.8822459,98.0711921 C14.8822459,98.4254967 14.5255894,98.7798013 14.1689329,98.7798013 L5.78750542,101.614238 C1.50762756,103.031457 -0.810639618,107.460265 0.259329848,111.711921 L2.22094054,120.392384 C3.29091,124.64404 7.21413138,127.478477 11.6723375,126.94702 L20.2320932,125.884106 C20.767078,125.884106 21.1237344,126.061258 21.3020627,126.238411 C22.5503604,128.009934 23.7986581,129.781457 25.2252841,131.198675 C25.4036123,131.375828 25.5819405,131.730132 25.5819405,132.084437 L22.5503604,140.587748 C21.1237344,144.662252 22.9070169,149.268212 27.0085665,151.216887 L35.0333375,155.114238 C38.9565589,157.062914 43.7714215,155.645695 46.0896887,151.925497 L50.726223,144.485099 C50.9045513,144.130795 51.2612077,143.953642 51.7961925,143.953642 C53.9361314,144.130795 56.0760703,144.130795 58.2160093,143.953642 C58.5726658,143.953642 58.9293222,144.130795 59.2859787,144.485099 L63.9225131,151.925497 C65.5274673,154.582781 68.3807192,156 71.2339711,156 C72.4822688,156 73.7305665,155.645695 74.9788642,155.114238 L83.0036352,151.216887 C86.9268566,149.268212 88.8884673,144.662252 87.4618413,140.587748 L84.4302612,132.261589 C84.2519329,131.907285 84.4302612,131.55298 84.7869177,131.375828 C86.2135436,129.781457 87.6401696,128.187086 88.7101391,126.415563 C88.8884673,126.238411 89.2451238,125.884106 89.6017803,125.884106 L98.5181925,126.94702 C102.619742,127.478477 106.89962,124.64404 107.791261,120.392384 Z M100.479803,118.620861 C100.301475,119.152318 99.7664902,119.506623 99.2315055,119.506623 L90.3150933,118.443709 C89.9584368,118.443709 89.6017803,118.443709 89.423452,118.443709 C86.5702001,118.443709 83.8952765,119.860927 82.2903223,122.34106 C81.398681,123.758278 80.1503833,125.175497 79.0804139,126.415563 C76.9404749,128.718543 76.227162,132.084437 77.2971314,134.918874 L80.3287116,143.245033 C80.5070398,143.77649 80.3287116,144.307947 79.7937268,144.485099 L71.7689558,148.38245 C71.2339711,148.559603 70.6989864,148.38245 70.3423299,148.028146 L65.7057955,140.587748 C63.9225131,137.753311 60.7126047,136.15894 57.324368,136.513245 C55.7194138,136.690397 54.1144596,136.690397 52.6878337,136.513245 C49.2995971,136.15894 46.0896887,137.753311 44.3064062,140.587748 L39.6698719,148.028146 C39.3132154,148.559603 38.7782306,148.736755 38.2432459,148.38245 L30.2184749,144.485099 C29.6834902,144.307947 29.5051619,143.77649 29.6834902,143.245033 L32.7150703,134.741722 C33.7850398,131.907285 33.0717268,128.541391 30.7534596,126.238411 C29.5051619,124.998344 28.4351925,123.581126 27.5435512,122.163907 C25.7602688,119.506623 22.5503604,118.089404 19.1621238,118.443709 L10.602368,119.506623 C10.0673833,119.506623 9.53239856,119.152318 9.35407031,118.620861 L7.39245962,109.940397 C7.21413138,109.40894 7.57078787,108.877483 8.1057726,108.700331 L16.4872001,105.865894 C19.5187802,104.80298 21.8370474,102.145695 22.1937039,98.9569536 C22.3720322,97.1854305 22.7286886,95.4139073 23.2636734,93.8195364 C24.1553146,90.807947 23.2636734,87.442053 21.1237344,85.3162252 L15.0605741,79.2930464 C14.7039176,78.9387417 14.7039176,78.2301325 15.0605741,77.8758278 L20.5887497,70.9668874 C20.9454062,70.6125828 21.4803909,70.4354305 22.0153757,70.7897351 L29.5051619,75.5728477 C32.1800856,77.3443709 35.5683222,77.3443709 38.4215741,75.75 C39.8482001,74.8642384 41.4531543,74.1556291 43.2364367,73.4470199 C46.2680169,72.384106 48.4079558,69.5496689 48.7646123,66.3609272 L49.6562535,57.6804636 C49.6562535,57.1490066 50.1912383,56.794702 50.726223,56.794702 L59.6426352,56.794702 C60.17762,56.794702 60.7126047,57.1490066 60.7126047,57.6804636 L61.6042459,66.3609272 C61.9609024,69.5496689 64.1008413,72.384106 67.1324215,73.4470199 C68.9157039,74.1556291 70.5206581,74.8642384 71.9472841,75.75 C74.6222078,77.3443709 78.0104444,77.1672185 80.8636963,75.5728477 L88.3534826,70.7897351 C88.8884673,70.4354305 89.423452,70.6125828 89.7801085,70.9668874 L95.3082841,77.8758278 C95.6649406,78.2301325 95.6649406,78.9387417 95.3082841,79.2930464 L88.7101391,85.4933775 C86.3918719,87.7963576 85.5002307,90.9850993 86.5702001,93.9966887 C87.1051849,95.5910596 87.4618413,97.3625828 87.6401696,99.134106 C88.1751543,102.322848 90.3150933,104.980132 93.3466734,106.043046 L101.728101,108.877483 C102.263086,109.054636 102.619742,109.586093 102.441414,110.11755 L100.479803,118.620861 Z" id="Shape"></path><path d="M55,82 C42.856,82 33,91.856 33,104 C33,116.144 42.856,126 55,126 C67.144,126 77,116.144 77,104 C76.824,91.856 66.968,82 55,82 Z M55,118.432 C47.08,118.432 40.568,111.92 40.568,104 C40.568,96.08 47.08,89.568 55,89.568 C62.92,89.568 69.432,96.08 69.432,104 C69.432,111.92 62.92,118.432 55,118.432 Z" id="Shape"></path><path d="M163.037964,53.6171617 L154.726897,50.7920792 C154.373234,50.6155116 154.196403,50.4389439 154.019572,50.0858086 C153.66591,47.790429 153.312247,45.6716172 152.604922,43.7293729 C152.428091,43.19967 152.781754,42.8465347 152.958585,42.8465347 L159.147677,36.6666667 C162.330639,33.4884488 162.50747,28.7211221 159.855002,25.189769 L154.373234,18.3036304 C151.543935,14.9488449 146.769492,14.0660066 143.056037,16.3613861 L135.629126,20.9521452 C135.452294,21.1287129 134.921801,21.3052805 134.568138,20.9521452 C132.799826,19.8927393 130.854683,19.009901 128.732708,18.3036304 C128.202215,18.1270627 128.202215,17.7739274 128.025383,17.4207921 L127.318058,8.7689769 C126.787565,4.35478548 123.074109,1 118.83016,1 L109.988599,1 C105.567819,1 101.854363,4.35478548 101.500701,8.59240924 L100.616545,17.2442244 C100.616545,17.4207921 100.439714,17.950495 100.086051,18.1270627 C97.9640767,19.009901 96.0189333,19.8927393 94.0737899,20.9521452 C93.8969587,21.1287129 93.5432963,21.1287129 93.1896338,20.9521452 L85.5858916,16.1848185 C81.872436,13.8894389 77.0979932,14.5957096 74.2686937,18.1270627 L68.7869261,25.0132013 C66.1344578,28.5445545 66.4881203,33.4884488 69.4942509,36.490099 L75.6833435,42.4933993 C75.8601747,42.8465347 76.0370059,43.19967 76.0370059,43.3762376 C75.5065123,45.3184818 74.9760186,47.4372937 74.6223562,49.5561056 C74.2686937,52.0280528 75.6833435,53.7937294 77.6284868,54.1468647 C79.5736302,54.5 81.5187736,53.0874587 81.872436,50.9686469 C82.0492672,49.2029703 82.4029297,47.6138614 82.9334233,45.8481848 C83.8175794,42.8465347 83.1102545,39.4917492 80.8114487,37.1963696 L74.6223562,31.0165017 C74.0918625,30.4867987 74.2686937,29.9570957 74.6223562,29.6039604 L80.1041239,22.8943894 C80.4577863,22.5412541 80.9882799,22.3646865 81.5187736,22.5412541 L88.9456847,27.1320132 C91.4213217,28.8976898 94.957946,28.8976898 97.7872454,27.3085809 C99.2018952,26.4257426 100.793376,25.7194719 102.384857,25.189769 C105.390988,24.130363 107.512962,21.3052805 107.866625,18.1270627 L108.750781,9.47524752 C108.750781,8.94554455 109.281274,8.59240924 109.811768,8.59240924 L118.653329,8.59240924 C119.183823,8.59240924 119.714316,8.94554455 119.714316,9.47524752 L120.598472,18.1270627 C120.952135,21.4818482 123.074109,24.130363 126.08024,25.189769 C127.848552,25.8960396 129.263202,26.6023102 130.677852,27.3085809 C133.507151,28.8976898 136.866944,28.8976898 139.519412,27.1320132 L146.769492,22.5412541 C147.299986,22.1881188 147.830479,22.3646865 148.184142,22.7178218 L153.66591,29.6039604 C154.019572,29.9570957 154.019572,30.6633663 153.489078,31.0165017 L147.299986,37.1963696 C145.00118,39.4917492 144.117024,42.669967 145.178011,45.6716172 C145.708505,47.2607261 146.062167,49.0264026 146.238999,50.6155116 C146.592661,53.6171617 148.891467,56.4422442 151.897597,57.5016502 L160.208665,60.3267327 C160.739158,60.5033003 161.092821,61.0330033 160.915989,61.5627063 L158.970846,70.2145215 C158.794015,70.7442244 158.440352,71.0973597 157.733028,71.0973597 L148.891467,70.0379538 C145.708505,69.6848185 142.702374,71.0973597 140.934062,73.7458746 C140.049906,75.1584158 138.988919,76.3943894 137.7511,77.8069307 C135.452294,80.2788779 134.921801,83.6336634 135.982788,86.4587459 L138.988919,94.7574257 C139.16575,95.2871287 138.988919,95.8168317 138.458425,95.9933993 L130.854683,100.231023 C130.324189,100.407591 129.793695,100.407591 129.616864,99.8778878 L125.019253,92.4620462 C123.250941,89.6369637 120.067979,88.0478548 116.708186,88.4009901 C115.293536,88.5775578 113.525224,88.5775578 111.933743,88.4009901 C109.811768,88.4009901 108.043456,89.8135314 107.866625,91.9323432 C107.689794,94.0511551 109.281274,95.8168317 111.403249,95.9933993 C113.525224,96.169967 115.470367,96.169967 117.41551,95.9933993 C117.769173,95.9933993 118.299666,95.9933993 118.653329,96.5231023 L123.250941,103.938944 C124.842421,106.587459 127.671721,108 130.50102,108 C131.738839,108 133.153489,107.646865 134.391307,107.117162 L142.348712,103.232673 C146.238999,101.466997 148.184142,96.8762376 146.592661,92.6386139 L143.58653,84.339934 C143.409699,83.9867987 143.58653,83.6336634 143.940193,83.4570957 C145.354842,81.8679868 146.769492,80.2788779 147.830479,78.5132013 C147.830479,78.5132013 148.360973,78.160066 148.537804,77.9834983 L157.556196,79.0429043 C161.976977,79.5726073 166.044095,76.5709571 166.928251,72.3333333 L168.873394,63.8580858 C169.580719,59.4438944 167.281913,55.029703 163.037964,53.6171617 Z" id="Path"></path><path d="M114.418849,70.432 C112.278569,70.432 110.67336,72.192 110.67336,74.304 C110.67336,76.416 112.456926,78 114.418849,78 C114.418849,78 114.418849,78 114.597205,78 C126.547099,77.648 136,67.968 136,56 C136,43.856 126.012029,34 113.705422,34 C103.717451,34 94.7996201,40.688 92.1242708,50.192 C91.5892009,52.128 92.8376973,54.24 94.7996201,54.768 C96.761543,55.296 98.9018225,54.064 99.4368923,52.128 C101.220459,45.792 106.92787,41.392 113.705422,41.392 C121.73147,41.392 128.330665,47.904 128.330665,55.824 C128.509022,63.92 122.444897,70.256 114.418849,70.432 Z" id="Path"></path><path d="M19.887218,55 C22.0075188,55 23.5977444,53.2371795 23.5977444,51.2980769 L23.5977444,25.3846154 C23.5977444,21.5064103 26.7781955,18.5096154 30.4887218,18.5096154 L50.1015038,18.5096154 L45.6842105,22.9166667 C44.2706767,24.3269231 44.2706767,26.7948718 45.6842105,28.2051282 C46.3909774,28.9102564 47.4511278,29.2628205 48.3345865,29.2628205 C49.2180451,29.2628205 50.2781955,28.9102564 50.9849624,28.2051282 L61.9398496,17.275641 C63.3533835,15.8653846 63.3533835,13.3974359 61.9398496,11.9871795 L50.9849624,1.05769231 C49.5714286,-0.352564103 47.0977444,-0.352564103 45.6842105,1.05769231 C44.2706767,2.46794872 44.2706767,4.93589744 45.6842105,6.34615385 L50.1015038,10.7532051 L30.4887218,10.7532051 C22.537594,10.7532051 16,17.275641 16,25.2083333 L16,51.1217949 C16,53.4134615 17.7669173,55 19.887218,55 Z" id="Path"></path><path d="M149.113074,111 C146.992933,111 145.402827,112.776062 145.402827,114.72973 L145.402827,131.42471 C145.402827,135.332046 142.222615,138.351351 138.512367,138.351351 L115.720848,138.351351 L120.137809,133.911197 C121.551237,132.490347 121.551237,130.003861 120.137809,128.583012 C118.724382,127.162162 116.250883,127.162162 114.837456,128.583012 L104.060071,139.594595 C102.646643,141.015444 102.646643,143.501931 104.060071,144.92278 L115.014134,155.934363 C115.720848,156.644788 116.780919,157 117.664311,157 C118.547703,157 119.607774,156.644788 120.314488,155.934363 C121.727915,154.513514 121.727915,152.027027 120.314488,150.606178 L115.897527,146.166023 L138.512367,146.166023 C146.462898,146.166023 153,139.594595 153,131.602317 L153,114.907336 C153,112.598456 151.233216,111 149.113074,111 Z" id="Path"></path></g></g></g></g></svg> 