<svg xmlns="http://www.w3.org/2000/svg" width="205.333" height="205.333" viewBox="0 0 205.333 205.333"><defs><clipPath clipPathUnits="userSpaceOnUse" id="a"><path d="M0 154h154V0H0z"/></clipPath></defs><g clip-path="url(#a)" transform="matrix(1.33333 0 0 -1.33333 0 205.333)"><path d="M77 0C34.474 0 0 34.474 0 77s34.474 77 77 77 77-34.474 77-77S119.526 0 77 0" fill="#e9c564"/><path d="M97.356 77.166h-7.872c-7.024 0-12.853-5.149-13.962-11.874-2.593 3.376-6.655 5.566-11.227 5.566h-7.87v-1.576c0-7.827 6.356-14.192 14.167-14.192h4.723V36.167h3.148v25.23h4.724c7.812 0 14.17 6.366 14.17 14.192zm3.148-48.884H53.275a4.732 4.732 0 00-4.723 4.731v34.692c0 9.564 7.77 17.346 17.318 17.346h11.02c3.43 0 6.635 1.356 9.028 3.819a12.533 12.533 0 013.561 9.154c-.182 6.574-5.669 12.071-12.232 12.252-3.432.084-6.68-1.173-9.139-3.567a12.527 12.527 0 01-3.813-9.043v-1.577H48.552v1.577c0 12.399 7.991 23.507 19.433 27.021 9.021 2.773 18.401 1.247 25.734-4.183 7.207-5.336 11.508-13.873 11.508-22.838V33.013a4.732 4.732 0 00-4.723-4.731" fill="#fff" fill-rule="evenodd"/></g></svg>