<?xml version="1.0" encoding="UTF-8"?> <!-- Generator: Adobe Illustrator 25.0.0, SVG Export Plug-In . SVG Version: 6.00 Build 0) --> <svg xmlns="http://www.w3.org/2000/svg" xmlns:xlink="http://www.w3.org/1999/xlink" id="Layer_1" x="0px" y="0px" viewBox="0 0 84 85" style="enable-background:new 0 0 84 85;" xml:space="preserve"> <path d="M53.2,25.8l0-1.6c0.2,0,0.4-0.1,0.5-0.3c0.1-0.2,0.1-0.4-0.1-0.6l-0.5-0.6l1.5-1.1l0.9,1.2l-0.4,0.3c0.1,0.5,0.1,1-0.2,1.5 C54.7,25.4,54,25.8,53.2,25.8z"></path> <path d="M61.6,38.4c-0.8,0-1.6-0.1-2.4-0.3l-1.3-0.3l-0.1-1.4c0-0.2-0.1-0.4-0.3-0.5c-0.2-0.1-0.4-0.1-0.6,0l-1.2,0.7l-1-0.9 c-0.7-0.7-1.4-1.4-2-2.3L52,32.3l1-1c0.1-0.2,0.2-0.4,0.1-0.5c-0.1-0.2-0.2-0.3-0.4-0.4l-1.4-0.3l-0.1-1.4c-0.1-1,0-2,0.2-3l0.3-1.4 l1.5,0l0,1.6l-0.2,0l0,0.2c-0.2,0.8-0.2,1.7-0.2,2.5l0,0.2l0.2,0c0.8,0.2,1.4,0.7,1.6,1.4c0.2,0.7,0.1,1.5-0.5,2.1l-0.1,0.2l0.1,0.2 c0.5,0.7,1,1.4,1.7,2l0.2,0.1l0.2-0.1c0.6-0.4,1.5-0.5,2.1-0.1c0.7,0.3,1.1,1,1.1,1.8l0,0.2l0.2,0c0.8,0.2,1.7,0.3,2.6,0.2l0.2,0 l0-0.2c0.2-0.8,0.7-1.4,1.4-1.6c0.7-0.2,1.5,0,2.1,0.5l-1.1,1.1c-0.2-0.1-0.4-0.2-0.6-0.1c-0.2,0.1-0.3,0.2-0.4,0.4l-0.3,1.4 l-1.4,0.1C62,38.4,61.8,38.4,61.6,38.4z"></path> <path d="M58.6,26.4c-0.4,0.8-0.5,1.7-0.2,2.6c0.3,0.9,0.9,1.6,1.7,2c0.5,0.3,1,0.4,1.6,0.4c1.2,0,2.4-0.7,3-1.8 c0.4-0.8,0.5-1.7,0.2-2.6c-0.3-0.9-0.9-1.6-1.7-2C61.5,24.1,59.5,24.8,58.6,26.4 M60.5,27.4c0.2-0.4,0.7-0.7,1.1-0.7 c0.2,0,0.4,0,0.6,0.1c0.3,0.2,0.5,0.4,0.6,0.8c0.1,0.3,0.1,0.7-0.1,1c-0.3,0.6-1.1,0.9-1.7,0.5c-0.3-0.2-0.5-0.4-0.6-0.7 C60.3,28.1,60.3,27.7,60.5,27.4"></path> <path d="M47.8,57.8c-1,0-2-0.1-2.9-0.3l-1.3-0.3l-0.1-1.4c0-0.4-0.2-0.8-0.6-1c-0.4-0.2-0.8-0.2-1.1,0.1l-1.2,0.7l-1-0.9 c-0.9-0.8-1.7-1.7-2.3-2.7l-0.7-1.2l1-1c0.3-0.3,0.4-0.7,0.3-1.1s-0.5-0.7-0.9-0.8l-1.4-0.3l-0.1-1.4c-0.1-1.2,0-2.4,0.2-3.6 l0.3-1.4l1.5,0c0.4,0,0.8-0.2,1-0.6c0.2-0.4,0.2-0.8-0.1-1.2l-0.9-1.2l1-1.1c0.8-0.9,1.7-1.7,2.7-2.3l1.3-0.8l1,1.1 c0.3,0.3,0.8,0.5,1.2,0.3c0.4-0.1,0.7-0.5,0.8-0.9l0.2-1.5l1.5-0.1c1.2-0.1,2.4,0,3.5,0.3l1.5,0.3L52,35c0,0.4,0.2,0.9,0.6,1.1 c0.4,0.2,0.9,0.2,1.2-0.1l1.2-1l1.2,1c0.9,0.8,1.6,1.7,2.3,2.7l0.8,1.3l-1.1,1c-0.3,0.3-0.5,0.8-0.3,1.2c0.1,0.4,0.5,0.7,0.9,0.8 l1.5,0.2l0.1,1.5c0.1,1.2-0.1,2.4-0.4,3.5l-0.4,1.4l-1.5,0c-0.5,0-0.8,0.2-1,0.6c-0.2,0.4-0.2,0.8,0.1,1.2l0.8,1.2l-1,1.1 c-0.8,0.9-1.7,1.6-2.8,2.3l-1.2,0.7l-1-1c-0.3-0.3-0.7-0.4-1.1-0.3c-0.4,0.1-0.7,0.4-0.7,0.8l-0.3,1.4l-1.4,0.1 C48.3,57.8,48.1,57.8,47.8,57.8z M45.1,55.9l0.2,0c1,0.2,2.1,0.3,3.1,0.3l0.2,0l0-0.2c0.2-0.9,0.9-1.7,1.8-2 c0.9-0.3,1.9-0.1,2.7,0.6l0.2,0.1l0.2-0.1c0.9-0.5,1.7-1.2,2.4-2l0.1-0.2L56,52.3c-0.6-0.8-0.7-1.9-0.2-2.8c0.5-0.9,1.4-1.5,2.5-1.4 l0.2,0l0.1-0.2c0.3-1,0.4-2.1,0.3-3.1l0-0.2l-0.2,0c-1-0.1-1.9-0.9-2.2-1.8c-0.3-1,0-2.1,0.8-2.8l0.2-0.2l-0.1-0.2 c-0.5-0.9-1.2-1.7-2-2.4L55,37l-0.2,0.1c-0.8,0.7-2,0.8-2.9,0.3C51,37,50.4,36,50.5,34.9l0-0.2l-0.2-0.1c-1-0.2-2-0.3-3.1-0.2 l-0.2,0l0,0.2c-0.1,1.1-0.8,1.9-1.8,2.3c-1,0.3-2.1,0-2.8-0.7L42.1,36L42,36.1c-0.9,0.6-1.7,1.3-2.4,2l-0.1,0.2l0.1,0.2 c0.6,0.8,0.7,1.9,0.2,2.8c-0.5,0.9-1.4,1.4-2.4,1.4l-0.2,0l0,0.2C37,44,36.9,45,37,46.1l0,0.2l0.2,0c1,0.2,1.8,0.9,2.1,1.8 c0.3,0.9,0.1,1.9-0.6,2.6l-0.1,0.2l0.1,0.2c0.6,0.9,1.3,1.7,2,2.4l0.2,0.1l0.2-0.1c0.8-0.5,1.8-0.6,2.7-0.1c0.9,0.4,1.4,1.3,1.4,2.3 L45.1,55.9z"></path> <path d="M49.7,41.9c-1.9-1-4.3-0.2-5.3,1.7c-0.5,0.9-0.6,2-0.3,3c0.3,1,1,1.8,1.9,2.3c0.6,0.3,1.2,0.4,1.8,0.4 c1.4,0,2.8-0.8,3.5-2.1c0.5-0.9,0.6-2,0.3-3C51.3,43.2,50.6,42.4,49.7,41.9 M49.5,46.2c-0.5,0.9-1.6,1.2-2.5,0.8 c-0.4-0.2-0.8-0.6-0.9-1.1c-0.1-0.5-0.1-1,0.1-1.4c0.3-0.6,1-1,1.6-1c0.3,0,0.6,0.1,0.8,0.2c0.4,0.2,0.8,0.6,0.9,1.1 C49.8,45.3,49.7,45.8,49.5,46.2"></path> <path d="M66.9,11.2H19.3c-3.3,0-6,2.7-6,6v0.4c0,0.6,0.5,1.1,1.1,1.1c0.6,0,1.1-0.5,1.1-1.1v-0.4c0-2.2,1.7-3.9,3.9-3.9h47.6 c2.1,0,3.9,1.7,3.9,3.9v62.9c0,2.2-1.7,3.9-3.9,3.9H19.3c-2.1,0-3.9-1.7-3.9-3.9v-0.4c0-0.6-0.5-1.1-1.1-1.1c-0.6,0-1.1,0.5-1.1,1.1 v0.4c0,3.3,2.7,6,6,6h47.6c3.3,0,6-2.7,6-6V17.2C72.9,13.9,70.2,11.2,66.9,11.2"></path> <path d="M67.4,65.7c0-0.4-0.3-0.7-0.7-0.7c-0.4,0-0.7,0.3-0.7,0.7v3c0,0.4,0.3,0.7,0.7,0.7c0.4,0,0.7-0.3,0.7-0.7V65.7z"></path> <path d="M65.9,32.9c0,0.4,0.3,0.7,0.7,0.7c0.4,0,0.7-0.3,0.7-0.7v-3c0-0.4-0.3-0.7-0.7-0.7c-0.4,0-0.7,0.3-0.7,0.7V32.9z"></path> <path d="M66.6,71c-0.4,0-0.7,0.3-0.7,0.7v2.1c0,0.1-0.1,0.2-0.1,0.3c-0.3,0.3-0.3,0.8,0,1.1c0.1,0.1,0.3,0.2,0.5,0.2 c0.2,0,0.4-0.1,0.6-0.2c0.3-0.4,0.5-0.8,0.5-1.3v-2.1C67.4,71.3,67,71,66.6,71"></path> <path d="M66.6,27.7c0.4,0,0.7-0.3,0.7-0.7v-3c0-0.4-0.3-0.7-0.7-0.7c-0.4,0-0.7,0.3-0.7,0.7v3C65.9,27.4,66.2,27.7,66.6,27.7"></path> <path d="M67.4,59.8c0-0.4-0.3-0.7-0.7-0.7c-0.4,0-0.7,0.3-0.7,0.7v3c0,0.4,0.3,0.7,0.7,0.7c0.4,0,0.7-0.3,0.7-0.7V59.8z"></path> <path d="M64.8,23.1c0.4,0,0.7-0.3,0.7-0.7c0-0.4-0.3-0.7-0.7-0.7h-3c-0.4,0-0.7,0.3-0.7,0.7c0,0.4,0.3,0.7,0.7,0.7H64.8z"></path> <path d="M59.6,23.1c0.4,0,0.7-0.3,0.7-0.7c0-0.4-0.3-0.7-0.7-0.7h-7.3c-0.4,0-0.7,0.3-0.7,0.7c0,0.4,0.3,0.7,0.7,0.7H59.6z"></path> <path d="M45.6,75.7c0.4,0,0.7-0.3,0.7-0.7c0-0.4-0.3-0.7-0.7-0.7h-3c-0.4,0-0.7,0.3-0.7,0.7c0,0.4,0.3,0.7,0.7,0.7H45.6z"></path> <path d="M46.9,23.1c0.4,0,0.7-0.3,0.7-0.7c0-0.4-0.3-0.7-0.7-0.7h-3c-0.4,0-0.7,0.3-0.7,0.7c0,0.4,0.3,0.7,0.7,0.7H46.9z"></path> <path d="M52.3,75c0-0.4-0.3-0.7-0.7-0.7h-3c-0.4,0-0.7,0.3-0.7,0.7c0,0.4,0.3,0.7,0.7,0.7h3C51.9,75.7,52.3,75.4,52.3,75"></path> <path d="M52.9,21.6h-3c-0.4,0-0.7,0.3-0.7,0.7c0,0.4,0.3,0.7,0.7,0.7h3c0.4,0,0.7-0.3,0.7-0.7C53.6,21.9,53.3,21.6,52.9,21.6"></path> <path d="M37.2,22.3c0,0.4,0.3,0.7,0.7,0.7h3c0.4,0,0.7-0.3,0.7-0.7c0-0.4-0.3-0.7-0.7-0.7h-3C37.5,21.6,37.2,21.9,37.2,22.3"></path> <path d="M40.3,75c0-0.4-0.3-0.7-0.7-0.7h-3c-0.4,0-0.7,0.3-0.7,0.7c0,0.4,0.3,0.7,0.7,0.7h3C40,75.7,40.3,75.4,40.3,75"></path> <path d="M29.9,75c0,0.4,0.3,0.7,0.7,0.7h3c0.4,0,0.7-0.3,0.7-0.7c0-0.4-0.3-0.7-0.7-0.7h-3C30.2,74.3,29.9,74.6,29.9,75"></path> <path d="M31.2,22.3c0,0.4,0.3,0.7,0.7,0.7h3c0.4,0,0.7-0.3,0.7-0.7c0-0.4-0.3-0.7-0.7-0.7h-3C31.6,21.6,31.2,21.9,31.2,22.3"></path> <path d="M67.4,47.9c0-0.4-0.3-0.7-0.7-0.7c-0.4,0-0.7,0.3-0.7,0.7v3c0,0.4,0.3,0.7,0.7,0.7c0.4,0,0.7-0.3,0.7-0.7V47.9z"></path> <path d="M67.4,53.8c0-0.4-0.3-0.7-0.7-0.7c-0.4,0-0.7,0.3-0.7,0.7v3c0,0.4,0.3,0.7,0.7,0.7c0.4,0,0.7-0.3,0.7-0.7V53.8z"></path> <path d="M67.4,35.9c0-0.4-0.3-0.7-0.7-0.7c-0.4,0-0.7,0.3-0.7,0.7v3c0,0.4,0.3,0.7,0.7,0.7c0.4,0,0.7-0.3,0.7-0.7V35.9z"></path> <path d="M57.5,74.3h-3c-0.4,0-0.7,0.3-0.7,0.7c0,0.4,0.3,0.7,0.7,0.7h3c0.4,0,0.7-0.3,0.7-0.7C58.2,74.6,57.9,74.3,57.5,74.3"></path> <path d="M63.4,74.3h-3c-0.4,0-0.7,0.3-0.7,0.7c0,0.4,0.3,0.7,0.7,0.7h3c0.4,0,0.7-0.3,0.7-0.7C64.2,74.6,63.8,74.3,63.4,74.3"></path> <path d="M67.4,41.9c0-0.4-0.3-0.7-0.7-0.7c-0.4,0-0.7,0.3-0.7,0.7v3c0,0.4,0.3,0.7,0.7,0.7c0.4,0,0.7-0.3,0.7-0.7V41.9z"></path> <path d="M48.8,16.4h-7.8c-0.6,0-1.1,0.5-1.1,1.1c0,0.6,0.5,1.1,1.1,1.1h7.8c0.6,0,1.1-0.5,1.1-1.1C49.8,16.9,49.3,16.4,48.8,16.4"></path> <path d="M37.2,16.4h-2.6c-0.6,0-1.1,0.5-1.1,1.1c0,0.6,0.5,1.1,1.1,1.1h2.6c0.6,0,1.1-0.5,1.1-1.1C38.2,16.9,37.8,16.4,37.2,16.4"></path> <path d="M75.5,0.5c-0.5-0.2-1.2,0-1.4,0.5l-2.6,5.5c-0.3,0.5,0,1.2,0.5,1.4C72,8,72.2,8,72.4,8c0.4,0,0.8-0.2,1-0.6l2.6-5.5 C76.2,1.4,76,0.7,75.5,0.5"></path> <path d="M83.4,13.6l-6.2,0h0c-0.6,0-1,0.5-1.1,1c0,0.6,0.5,1.1,1,1.1l6.2,0h0c0.6,0,1-0.5,1.1-1C84.5,14.1,84,13.6,83.4,13.6"></path> <path d="M81.6,8.1c0.5-0.3,0.6-1,0.3-1.4c-0.3-0.5-1-0.6-1.4-0.3l-5.1,3.2c-0.5,0.3-0.6,1-0.3,1.5c0.2,0.3,0.5,0.5,0.9,0.5 c0.2,0,0.4-0.1,0.6-0.2L81.6,8.1z"></path> <path d="M46,82.5h-5.8c-1.4,0-2.6-1.2-2.6-2.6v-0.3c0-1.4,1.2-2.6,2.6-2.6H46c1.4,0,2.6,1.2,2.6,2.6v0.3 C48.6,81.3,47.4,82.5,46,82.5z M40.2,78.1c-0.8,0-1.5,0.7-1.5,1.5v0.3c0,0.8,0.7,1.5,1.5,1.5H46c0.8,0,1.5-0.7,1.5-1.5v-0.3 c0-0.8-0.7-1.5-1.5-1.5H40.2z"></path> <path d="M23.2,77.1H6.6c-3.3,0-5.9-2.7-5.9-5.9v-45c0-3.3,2.7-5.9,5.9-5.9h16.6c3.3,0,5.9,2.7,5.9,5.9v45 C29.1,74.4,26.4,77.1,23.2,77.1z M6.6,21.8c-2.4,0-4.4,2-4.4,4.4v45c0,2.4,2,4.4,4.4,4.4h16.6c2.4,0,4.4-2,4.4-4.4v-45 c0-2.4-2-4.4-4.4-4.4H6.6z"></path> <path d="M28.3,69.4H1.6c-0.4,0-0.8-0.3-0.8-0.8s0.3-0.8,0.8-0.8h26.7c0.4,0,0.8,0.3,0.8,0.8S28.7,69.4,28.3,69.4z"></path> <path d="M28,25.9H2c-0.4,0-0.8-0.3-0.8-0.8s0.3-0.8,0.8-0.8H28c0.4,0,0.8,0.3,0.8,0.8S28.4,25.9,28,25.9z"></path> <path d="M25.2,66.2h-3.1c-0.3,0-0.5-0.2-0.5-0.5c0-0.3,0.2-0.5,0.5-0.5h3.1c0.3,0,0.5,0.2,0.5,0.5C25.8,65.9,25.5,66.2,25.2,66.2z M19,66.2h-3.1c-0.3,0-0.5-0.2-0.5-0.5c0-0.3,0.2-0.5,0.5-0.5H19c0.3,0,0.5,0.2,0.5,0.5C19.5,65.9,19.3,66.2,19,66.2z M12.8,66.2 H9.7c-0.3,0-0.5-0.2-0.5-0.5c0-0.3,0.2-0.5,0.5-0.5h3.1c0.3,0,0.5,0.2,0.5,0.5C13.3,65.9,13.1,66.2,12.8,66.2z M6.6,66.2H4.3v-1.9 c0-0.3,0.2-0.5,0.5-0.5c0.3,0,0.5,0.2,0.5,0.5v0.8h1.2c0.3,0,0.5,0.2,0.5,0.5C7.1,65.9,6.9,66.2,6.6,66.2z M25.2,65 c-0.3,0-0.5-0.2-0.5-0.5v-3.1c0-0.3,0.2-0.5,0.5-0.5c0.3,0,0.5,0.2,0.5,0.5v3.1C25.8,64.8,25.5,65,25.2,65z M4.8,61.7 c-0.3,0-0.5-0.2-0.5-0.5V58c0-0.3,0.2-0.5,0.5-0.5c0.3,0,0.5,0.2,0.5,0.5v3.1C5.4,61.4,5.1,61.7,4.8,61.7z M25.2,58.8 c-0.3,0-0.5-0.2-0.5-0.5v-3.1c0-0.3,0.2-0.5,0.5-0.5c0.3,0,0.5,0.2,0.5,0.5v3.1C25.8,58.6,25.5,58.8,25.2,58.8z M4.8,55.5 c-0.3,0-0.5-0.2-0.5-0.5v-3.1c0-0.3,0.2-0.5,0.5-0.5c0.3,0,0.5,0.2,0.5,0.5v3.1C5.4,55.2,5.1,55.5,4.8,55.5z M25.2,52.6 c-0.3,0-0.5-0.2-0.5-0.5v-3.1c0-0.3,0.2-0.5,0.5-0.5c0.3,0,0.5,0.2,0.5,0.5V52C25.8,52.3,25.5,52.6,25.2,52.6z M4.8,49.2 c-0.3,0-0.5-0.2-0.5-0.5v-3.1c0-0.3,0.2-0.5,0.5-0.5c0.3,0,0.5,0.2,0.5,0.5v3.1C5.4,49,5.1,49.2,4.8,49.2z M25.2,46.4 c-0.3,0-0.5-0.2-0.5-0.5v-3.1c0-0.3,0.2-0.5,0.5-0.5c0.3,0,0.5,0.2,0.5,0.5v3.1C25.8,46.1,25.5,46.4,25.2,46.4z M4.8,43 c-0.3,0-0.5-0.2-0.5-0.5v-3.1c0-0.3,0.2-0.5,0.5-0.5c0.3,0,0.5,0.2,0.5,0.5v3.1C5.4,42.8,5.1,43,4.8,43z M25.2,40.1 c-0.3,0-0.5-0.2-0.5-0.5v-3.1c0-0.3,0.2-0.5,0.5-0.5c0.3,0,0.5,0.2,0.5,0.5v3.1C25.8,39.9,25.5,40.1,25.2,40.1z M4.8,36.8 c-0.3,0-0.5-0.2-0.5-0.5v-3.1c0-0.3,0.2-0.5,0.5-0.5c0.3,0,0.5,0.2,0.5,0.5v3.1C5.4,36.5,5.1,36.8,4.8,36.8z M25.2,33.9 c-0.3,0-0.5-0.2-0.5-0.5v-3.1c0-0.3,0.2-0.5,0.5-0.5c0.3,0,0.5,0.2,0.5,0.5v3.1C25.8,33.7,25.5,33.9,25.2,33.9z M4.8,30.6 c-0.3,0-0.5-0.2-0.5-0.5v-2.7h1.5c0.3,0,0.5,0.2,0.5,0.5c0,0.3-0.2,0.5-0.5,0.5H5.4V30C5.4,30.3,5.1,30.6,4.8,30.6z M24.5,28.4h-3.1 c-0.3,0-0.5-0.2-0.5-0.5c0-0.3,0.2-0.5,0.5-0.5h3.1c0.3,0,0.5,0.2,0.5,0.5C25,28.2,24.8,28.4,24.5,28.4z M18.3,28.4h-3.1 c-0.3,0-0.5-0.2-0.5-0.5c0-0.3,0.2-0.5,0.5-0.5h3.1c0.3,0,0.5,0.2,0.5,0.5C18.8,28.2,18.6,28.4,18.3,28.4z M12,28.4H8.9 c-0.3,0-0.5-0.2-0.5-0.5c0-0.3,0.2-0.5,0.5-0.5H12c0.3,0,0.5,0.2,0.5,0.5C12.6,28.2,12.3,28.4,12,28.4z"></path> <path d="M16.2,74.4h-2.6c-1.1,0-2-0.9-2-2s0.9-2,2-2h2.6c1.1,0,2,0.9,2,2S17.3,74.4,16.2,74.4z M13.6,71.2c-0.7,0-1.2,0.5-1.2,1.2 s0.5,1.2,1.2,1.2h2.6c0.7,0,1.2-0.5,1.2-1.2s-0.5-1.2-1.2-1.2H13.6z"></path> <path d="M14.3,50.8l-5.4-5.6c-0.3-0.3-0.3-0.8,0-1.1c0.3-0.3,0.8-0.3,1.1,0l4.1,4.2l6.1-8.3c0.3-0.3,0.7-0.4,1.1-0.2 c0.3,0.3,0.4,0.7,0.2,1.1L14.3,50.8z"></path> </svg> 