<?xml version="1.0" encoding="UTF-8"?> <!-- Generator: Adobe Illustrator 24.0.1, SVG Export Plug-In . SVG Version: 6.00 Build 0) --> <svg xmlns="http://www.w3.org/2000/svg" xmlns:xlink="http://www.w3.org/1999/xlink" id="E-Government" x="0px" y="0px" viewBox="0 0 175.9 177.8" style="enable-background:new 0 0 175.9 177.8;" xml:space="preserve"> <style type="text/css"> .st0{fill:#232020;} .st1{fill-rule:evenodd;clip-rule:evenodd;fill:#232020;} </style> <g> <path class="st0" d="M114.9,42c-4,0-7.3-3.3-7.3-7.3s3.3-7.3,7.3-7.3c4,0,7.3,3.3,7.3,7.3S118.9,42,114.9,42z M114.9,30.4 c-2.4,0-4.3,1.9-4.3,4.3s1.9,4.3,4.3,4.3c2.4,0,4.3-1.9,4.3-4.3S117.3,30.4,114.9,30.4z"></path> <path class="st0" d="M87.9,46.7c-0.8,0-1.5-0.7-1.5-1.5V35.1c0-0.8,0.7-1.5,1.5-1.5s1.5,0.7,1.5,1.5v10.1 C89.4,46,88.7,46.7,87.9,46.7z"></path> <path class="st1" d="M62.6,28.4c3.2,0,5.8,2.6,5.8,5.8c0,3.2-2.6,5.8-5.8,5.8c-3.2,0-5.8-2.6-5.8-5.8C56.8,31,59.4,28.4,62.6,28.4z "></path> <path class="st0" d="M109.2,34.6h-0.7c-0.6,0-1-0.5-1-1s0.5-1,1-1h0.7c0.6,0,1,0.5,1,1S109.7,34.6,109.2,34.6z M104.3,34.6h-4.2 c-0.6,0-1-0.5-1-1s0.5-1,1-1h4.2c0.6,0,1,0.5,1,1S104.9,34.6,104.3,34.6z M95.9,34.6h-4.2c-0.6,0-1-0.5-1-1s0.5-1,1-1h4.2 c0.6,0,1,0.5,1,1S96.5,34.6,95.9,34.6z M87.5,34.6h-4.2c-0.6,0-1-0.5-1-1s0.5-1,1-1h4.2c0.6,0,1,0.5,1,1S88.1,34.6,87.5,34.6z M79.2,34.6H75c-0.6,0-1-0.5-1-1s0.5-1,1-1h4.2c0.6,0,1,0.5,1,1S79.8,34.6,79.2,34.6z M70.8,34.6h-4.2c-0.6,0-1-0.5-1-1s0.5-1,1-1 h4.2c0.6,0,1,0.5,1,1S71.4,34.6,70.8,34.6z"></path> <path class="st1" d="M159.7,83.8c3.2,0,5.8,2.6,5.8,5.8c0,3.2-2.6,5.8-5.8,5.8c-3.2,0-5.8-2.6-5.8-5.8 C153.9,86.4,156.5,83.8,159.7,83.8z"></path> <path class="st1" d="M16.2,83.3c3.2,0,5.8,2.6,5.8,5.8c0,3.2-2.6,5.8-5.8,5.8s-5.8-2.6-5.8-5.8C10.4,85.9,13,83.3,16.2,83.3z"></path> <path class="st0" d="M155.5,90h-31.7c-0.8,0-1.5-0.7-1.5-1.5s0.7-1.5,1.5-1.5h31.7c0.8,0,1.5,0.7,1.5,1.5S156.4,90,155.5,90z"></path> <path class="st0" d="M153.9,63.3c-0.1,0-0.2,0-0.3,0c-4-0.2-7.1-3.6-6.9-7.6c0.2-4,3.7-7.1,7.6-6.9c4,0.2,7.1,3.6,6.9,7.6 C161,60.3,157.8,63.3,153.9,63.3z M153.9,51.7c-1.1,0-2.1,0.4-2.9,1.1c-0.9,0.8-1.4,1.8-1.4,3c-0.1,1.2,0.3,2.3,1.1,3.1 c0.8,0.9,1.8,1.4,3,1.4c1.1,0,2.3-0.3,3.1-1.1c0.9-0.8,1.4-1.8,1.4-3c0.1-1.2-0.3-2.3-1.1-3.1c-0.8-0.9-1.8-1.4-3-1.4 C154.1,51.7,154,51.7,153.9,51.7z"></path> <path class="st0" d="M121.7,65.6c-0.3,0-0.7-0.2-0.9-0.5c-0.3-0.5-0.2-1.1,0.3-1.4l3.6-2.2c0.5-0.3,1.1-0.2,1.4,0.3 c0.3,0.5,0.2,1.1-0.3,1.4l-3.6,2.2C122.1,65.5,121.9,65.6,121.7,65.6z M128.8,61.2c-0.3,0-0.7-0.2-0.9-0.5 c-0.3-0.5-0.2-1.1,0.3-1.4l3.6-2.2c0.5-0.3,1.1-0.2,1.4,0.3c0.3,0.5,0.2,1.1-0.3,1.4l-3.6,2.2C129.2,61.1,129,61.2,128.8,61.2z M148.6,57.1h-4.2c-0.6,0-1-0.5-1-1s0.5-1,1-1h4.2c0.6,0,1,0.5,1,1S149.2,57.1,148.6,57.1z M140.2,57.1H136c-0.6,0-1-0.5-1-1 s0.5-1,1-1h4.2c0.6,0,1,0.5,1,1S140.8,57.1,140.2,57.1z"></path> <path class="st0" d="M20.9,63.1c-4,0-7.3-3.3-7.3-7.3s3.3-7.3,7.3-7.3s7.3,3.3,7.3,7.3S25,63.1,20.9,63.1z M20.9,51.5 c-2.4,0-4.3,1.9-4.3,4.3s1.9,4.3,4.3,4.3s4.3-1.9,4.3-4.3S23.3,51.5,20.9,51.5z"></path> <path class="st0" d="M53.6,65.4c-0.2,0-0.4-0.1-0.6-0.2L49.5,63c-0.5-0.3-0.6-0.9-0.3-1.4c0.3-0.5,1-0.6,1.4-0.3l3.6,2.2 c0.5,0.3,0.6,0.9,0.3,1.4C54.3,65.2,54,65.4,53.6,65.4z M46.5,61c-0.2,0-0.4-0.1-0.6-0.2l-3.6-2.2c-0.5-0.3-0.6-0.9-0.3-1.4 c0.3-0.5,0.9-0.6,1.4-0.3L47,59c0.5,0.3,0.6,0.9,0.3,1.4C47.2,60.8,46.8,61,46.5,61z M39.3,56.9h-4.2c-0.6,0-1-0.5-1-1s0.5-1,1-1 h4.2c0.6,0,1,0.5,1,1S39.9,56.9,39.3,56.9z M30.9,56.9h-4.2c-0.6,0-1-0.5-1-1s0.5-1,1-1h4.2c0.6,0,1,0.5,1,1S31.5,56.9,30.9,56.9z"></path> <path class="st0" d="M153.9,133.6c-4,0-7.3-3.3-7.3-7.3c0-4,3.3-7.3,7.3-7.3c4,0,7.3,3.3,7.3,7.3 C161.2,130.4,158,133.6,153.9,133.6z M153.9,122c-2.4,0-4.3,1.9-4.3,4.3c0,2.4,1.9,4.3,4.3,4.3c2.4,0,4.3-1.9,4.3-4.3 C158.3,124,156.3,122,153.9,122z"></path> <path class="st0" d="M148.6,127.4h-4.2c-0.6,0-1-0.5-1-1s0.5-1,1-1h4.2c0.6,0,1,0.5,1,1S149.2,127.4,148.6,127.4z M140.3,127.4 h-4.2c-0.6,0-1-0.5-1-1s0.5-1,1-1h4.2c0.6,0,1,0.5,1,1S140.8,127.4,140.3,127.4z M132.6,125.3c-0.2,0-0.4-0.1-0.6-0.2l-3.4-2.4 c-0.5-0.3-0.6-1-0.2-1.5c0.3-0.5,1-0.6,1.5-0.2l3.4,2.4c0.5,0.3,0.6,1,0.2,1.5C133.2,125.2,132.9,125.3,132.6,125.3z M125.8,120.4 c-0.2,0-0.4-0.1-0.6-0.2l-3.4-2.4c-0.5-0.3-0.6-1-0.2-1.5c0.3-0.5,1-0.6,1.5-0.2l3.4,2.4c0.5,0.3,0.6,1,0.2,1.5 C126.4,120.3,126.1,120.4,125.8,120.4z"></path> <path class="st0" d="M24.4,132.1c-4,0-7.3-3.3-7.3-7.3s3.3-7.3,7.3-7.3s7.3,3.3,7.3,7.3S28.5,132.1,24.4,132.1z M24.4,120.5 c-2.4,0-4.3,1.9-4.3,4.3c0,2.4,1.9,4.3,4.3,4.3s4.3-1.9,4.3-4.3C28.8,122.4,26.8,120.5,24.4,120.5z"></path> <path class="st0" d="M42.8,125.8h-4.2c-0.6,0-1-0.5-1-1s0.5-1,1-1h4.2c0.6,0,1,0.5,1,1S43.4,125.8,42.8,125.8z M34.4,125.8h-4.2 c-0.6,0-1-0.5-1-1s0.5-1,1-1h4.2c0.6,0,1,0.5,1,1S35,125.8,34.4,125.8z M46.3,123.7c-0.3,0-0.6-0.2-0.9-0.4 c-0.3-0.5-0.2-1.1,0.2-1.5l3.4-2.4c0.5-0.3,1.1-0.2,1.5,0.2c0.3,0.5,0.2,1.1-0.2,1.5l-3.4,2.4C46.7,123.7,46.5,123.7,46.3,123.7z"></path> <path class="st0" d="M52.7,90H20.2c-0.8,0-1.5-0.7-1.5-1.5s0.7-1.5,1.5-1.5h32.5c0.8,0,1.5,0.7,1.5,1.5S53.5,90,52.7,90z"></path> <path class="st0" d="M59.6,153.7c-4,0-7.3-3.3-7.3-7.3c0-4,3.3-7.3,7.3-7.3c4,0,7.3,3.3,7.3,7.3C66.9,150.4,63.6,153.7,59.6,153.7z M59.6,142.1c-2.4,0-4.3,1.9-4.3,4.3c0,2.4,2,4.3,4.3,4.3c2.4,0,4.3-1.9,4.3-4.3C64,144,62,142.1,59.6,142.1z"></path> <path class="st0" d="M89.1,147.2c-0.8,0-1.5-0.7-1.5-1.5v-12.4c0-0.8,0.7-1.5,1.5-1.5s1.5,0.7,1.5,1.5v12.4 C90.5,146.5,89.9,147.2,89.1,147.2z"></path> <path class="st1" d="M118,140.6c3.2,0,5.8,2.6,5.8,5.8c0,3.2-2.6,5.8-5.8,5.8c-3.2,0-5.8-2.6-5.8-5.8 C112.2,143.2,114.8,140.6,118,140.6z"></path> <path class="st0" d="M110.9,147.5h-4.2c-0.6,0-1-0.5-1-1c0-0.6,0.5-1,1-1h4.2c0.6,0,1,0.5,1,1C112,147,111.5,147.5,110.9,147.5z M102.5,147.5h-4.2c-0.6,0-1-0.5-1-1c0-0.6,0.5-1,1-1h4.2c0.6,0,1,0.5,1,1C103.6,147,103.1,147.5,102.5,147.5z M94.2,147.5H90 c-0.6,0-1-0.5-1-1c0-0.6,0.5-1,1-1h4.2c0.6,0,1,0.5,1,1C95.2,147,94.8,147.5,94.2,147.5z M85.8,147.5h-4.2c-0.6,0-1-0.5-1-1 c0-0.6,0.5-1,1-1h4.2c0.6,0,1,0.5,1,1C86.9,147,86.4,147.5,85.8,147.5z M77.4,147.5h-4.2c-0.6,0-1-0.5-1-1c0-0.6,0.5-1,1-1h4.2 c0.6,0,1,0.5,1,1C78.5,147,78,147.5,77.4,147.5z M69.1,147.5h-3.2c-0.6,0-1-0.5-1-1c0-0.6,0.5-1,1-1h3.2c0.6,0,1,0.5,1,1 C70.1,147,69.7,147.5,69.1,147.5z"></path> <path class="st0" d="M87.9,73.9c-21,0-37.4-6.6-37.4-15.1c0-8.5,16.4-15.1,37.4-15.1c21,0,37.4,6.6,37.4,15.1 C125.3,67.3,108.9,73.9,87.9,73.9z M87.9,46.7c-20.3,0-34.5,6.4-34.5,12.1s14.2,12.1,34.5,12.1c20.3,0,34.5-6.4,34.5-12.1 S108.2,46.7,87.9,46.7z"></path> <path class="st0" d="M64.5,90.8c-0.2,0-0.3,0-0.5-0.1c-7.9-2.7-12.3-6.6-12.3-10.9v-9.9c0-0.8,0.7-1.5,1.5-1.5s1.5,0.7,1.5,1.5v9.9 c0,2.9,3.8,5.9,10.3,8.1c0.8,0.3,1.2,1.1,0.9,1.9C65.7,90.4,65.1,90.8,64.5,90.8z M112.9,90.2c-0.6,0-1.1-0.4-1.4-0.9 c-0.3-0.8,0.1-1.6,0.8-1.9c5.5-2.1,8.7-4.9,8.7-7.5v-9.3c0-0.8,0.7-1.5,1.5-1.5s1.5,0.7,1.5,1.5v9.3c0,4-3.8,7.6-10.6,10.3 C113.3,90.1,113.1,90.2,112.9,90.2z"></path> <path class="st0" d="M65.4,110.7c-0.1,0-0.3,0-0.4-0.1c-8.5-2.7-13.2-6.7-13.2-11.2v-9.9c0-0.8,0.7-1.5,1.5-1.5s1.5,0.7,1.5,1.5 v9.9c0,3,4.2,6.2,11.2,8.4c0.8,0.2,1.2,1.1,1,1.9C66.6,110.3,66,110.7,65.4,110.7z M111,110.5c-0.6,0-1.2-0.4-1.4-1 c-0.3-0.8,0.2-1.6,0.9-1.9c6.6-2.2,10.6-5.3,10.6-8.2v-9.3c0-0.8,0.7-1.5,1.5-1.5s1.5,0.7,1.5,1.5v9.3c0,4.4-4.5,8.3-12.6,11 C111.3,110.5,111.2,110.5,111,110.5z"></path> <path class="st0" d="M87.9,134c-20.3,0-36.2-6.3-36.2-14.4v-9.9c0-0.8,0.7-1.5,1.5-1.5s1.5,0.7,1.5,1.5v9.9 c0,5.4,13.6,11.4,33.2,11.4s33.2-6,33.2-11.4v-9.3c0-0.8,0.7-1.5,1.5-1.5s1.5,0.7,1.5,1.5v9.3C124.1,127.7,108.2,134,87.9,134z"></path> <path class="st0" d="M93.8,119.7c-0.5,0-1-0.3-1.3-0.7c-1.5-2.5-5.5-2.5-6.9,0c-0.3,0.6-1,0.9-1.6,0.7c-2-0.5-3.9-1.3-5.7-2.3 c-0.6-0.3-0.8-1-0.7-1.7c0.4-1.4,0-2.9-1-3.9c-1-1-2.5-1.4-4-1c-0.6,0.2-1.3-0.1-1.7-0.6c-1.1-1.7-1.9-3.6-2.4-5.6 c-0.2-0.7,0.1-1.4,0.7-1.7c1.3-0.7,2.2-2,2.2-3.5c0-1.5-0.9-2.9-2.3-3.6c-0.6-0.3-0.9-1-0.8-1.7c0.5-2,1.2-3.9,2.2-5.6 c0.4-0.6,1.1-0.9,1.8-0.6c1.5,0.5,3.1,0.2,4.2-0.9c1.1-1.1,1.5-2.8,0.9-4.3c-0.3-0.7,0-1.4,0.6-1.8c1.7-1,3.6-1.8,5.5-2.3 c0.7-0.2,1.4,0.2,1.7,0.8c0.6,1.5,2.1,2.4,3.7,2.4c1.6,0,3-0.9,3.7-2.4c0.3-0.7,1-1,1.7-0.8c1.9,0.5,3.8,1.3,5.5,2.3 c0.6,0.4,0.9,1.1,0.6,1.8c-0.6,1.5-0.2,3.1,0.9,4.3c1.1,1.1,2.7,1.5,4.2,0.9c0.7-0.2,1.4,0,1.8,0.7c1,1.8,1.8,3.6,2.2,5.6 c0.2,0.7-0.2,1.4-0.8,1.7c-1.4,0.7-2.3,2.1-2.3,3.6c0,1.5,0.8,2.8,2.2,3.5c0.6,0.3,0.9,1,0.7,1.7c-0.5,2-1.3,3.9-2.4,5.6 c-0.4,0.6-1,0.8-1.7,0.6c-1.4-0.4-2.9,0-4,1c-1,1-1.4,2.5-1,3.9c0.2,0.6-0.1,1.3-0.7,1.7c-1.8,1-3.7,1.8-5.7,2.3 C94,119.6,93.9,119.7,93.8,119.7z M80.7,115.3c1,0.5,2,0.9,3,1.2c1.3-1.6,3.3-2.5,5.3-2.5c2.1,0,4,1,5.4,2.5c1-0.3,2.1-0.7,3-1.2 c-0.2-2.1,0.5-4.1,2-5.6c1.5-1.5,3.6-2.2,5.7-2c0.5-0.9,0.9-1.9,1.3-2.9c-1.7-1.3-2.7-3.3-2.7-5.5c0-2.2,1.1-4.3,2.8-5.6 c-0.3-1-0.7-1.9-1.1-2.8c-2.2,0.4-4.4-0.3-6-1.9c-1.6-1.6-2.3-3.9-1.9-6.2c-0.9-0.5-1.8-0.8-2.7-1.1c-1.3,1.9-3.4,3-5.7,3 s-4.4-1.1-5.7-3c-0.9,0.3-1.8,0.7-2.7,1.1c0.4,2.2-0.3,4.5-1.9,6.2c-1.6,1.6-3.8,2.3-6,1.9c-0.4,0.9-0.8,1.9-1.1,2.8 c1.8,1.3,2.9,3.3,2.9,5.6c0,2.2-1,4.2-2.7,5.5c0.3,1,0.8,2,1.3,2.9c2.1-0.3,4.2,0.5,5.7,2C80.2,111.1,80.9,113.2,80.7,115.3z M89.2,106c-3.8,0-6.8-3-6.8-6.8s3.1-6.8,6.8-6.8c3.7,0,6.8,3,6.8,6.8S93,106,89.2,106z M89.2,95.3c-2.1,0-3.9,1.7-3.9,3.8 c0,2.1,1.7,3.8,3.9,3.8c2.1,0,3.9-1.7,3.9-3.8C93.1,97,91.3,95.3,89.2,95.3z"></path> </g> </svg> 