<?xml version="1.0" encoding="UTF-8"?> <svg xmlns="http://www.w3.org/2000/svg" width="55" height="46" viewBox="0 0 55 46" fill="none"><path fill-rule="evenodd" clip-rule="evenodd" d="M8.01993 21.601C8.01993 18.0111 10.9301 15.101 14.5199 15.101H31.3418C32.0426 15.101 32.7183 15.2121 33.352 15.4179L33.043 16.369C32.5079 16.1952 31.9364 16.101 31.3418 16.101H14.5199C11.4824 16.101 9.01993 18.5634 9.01993 21.601V29.845C9.01993 32.8825 11.4824 35.345 14.5199 35.345H31.3418C34.3794 35.345 36.8418 32.8825 36.8418 29.845V24.0281H37.8418V29.845C37.8418 33.4348 34.9317 36.345 31.3418 36.345H14.5199C10.9301 36.345 8.01993 33.4348 8.01993 29.845V21.601Z" fill="#272525"></path><path fill-rule="evenodd" clip-rule="evenodd" d="M28.9727 12.3428C29.2489 12.3428 29.4727 12.5667 29.4727 12.8428V15.601C29.4727 15.8771 29.2489 16.101 28.9727 16.101C28.6966 16.101 28.4727 15.8771 28.4727 15.601V12.8428C28.4727 12.5667 28.6966 12.3428 28.9727 12.3428Z" fill="#272525"></path><path fill-rule="evenodd" clip-rule="evenodd" d="M16.1193 12.3428C16.3955 12.3428 16.6193 12.5667 16.6193 12.8428V15.601C16.6193 15.8771 16.3955 16.101 16.1193 16.101C15.8432 16.101 15.6193 15.8771 15.6193 15.601V12.8428C15.6193 12.5667 15.8432 12.3428 16.1193 12.3428Z" fill="#272525"></path><path fill-rule="evenodd" clip-rule="evenodd" d="M28.9727 8.02992C30.4154 8.02992 31.5848 9.1994 31.5848 10.642C31.5848 12.0846 30.4154 13.2541 28.9727 13.2541C27.5301 13.2541 26.3606 12.0846 26.3606 10.642C26.3606 9.1994 27.5301 8.02992 28.9727 8.02992ZM30.5848 10.642C30.5848 9.75168 29.8631 9.02992 28.9727 9.02992C28.0824 9.02992 27.3606 9.75168 27.3606 10.642C27.3606 11.5324 28.0824 12.2541 28.9727 12.2541C29.8631 12.2541 30.5848 11.5324 30.5848 10.642Z" fill="#272525"></path><path fill-rule="evenodd" clip-rule="evenodd" d="M16.1193 8.11861C17.5619 8.11861 18.7314 9.28808 18.7314 10.7307C18.7314 12.1733 17.5619 13.3428 16.1193 13.3428C14.6767 13.3428 13.5072 12.1733 13.5072 10.7307C13.5072 9.28808 14.6767 8.11861 16.1193 8.11861ZM17.7314 10.7307C17.7314 9.84037 17.0097 9.11861 16.1193 9.11861C15.229 9.11861 14.5072 9.84037 14.5072 10.7307C14.5072 11.621 15.229 12.3428 16.1193 12.3428C17.0097 12.3428 17.7314 11.621 17.7314 10.7307Z" fill="#272525"></path><path fill-rule="evenodd" clip-rule="evenodd" d="M27.0872 21.6963C28.3401 21.6963 29.3558 22.712 29.3558 23.9649C29.3558 25.2178 28.3401 26.2335 27.0872 26.2335C25.8343 26.2335 24.8186 25.2178 24.8186 23.9649C24.8186 22.712 25.8343 21.6963 27.0872 21.6963ZM28.3558 23.9649C28.3558 23.2643 27.7878 22.6963 27.0872 22.6963C26.3866 22.6963 25.8186 23.2643 25.8186 23.9649C25.8186 24.6655 26.3866 25.2335 27.0872 25.2335C27.7878 25.2335 28.3558 24.6655 28.3558 23.9649Z" fill="#272525"></path><path fill-rule="evenodd" clip-rule="evenodd" d="M18.524 21.6857C19.7769 21.6857 20.7926 22.7014 20.7926 23.9544C20.7926 25.2073 19.7769 26.223 18.524 26.223C17.2711 26.223 16.2554 25.2073 16.2554 23.9544C16.2554 22.7014 17.2711 21.6857 18.524 21.6857ZM19.7926 23.9544C19.7926 23.2537 19.2247 22.6857 18.524 22.6857C17.8234 22.6857 17.2554 23.2537 17.2554 23.9544C17.2554 24.655 17.8234 25.223 18.524 25.223C19.2247 25.223 19.7926 24.655 19.7926 23.9544Z" fill="#272525"></path><path fill-rule="evenodd" clip-rule="evenodd" d="M54.6953 10.7875C54.6953 9.40676 53.5761 8.28748 52.1953 8.28748H36.0681C34.6874 8.28748 33.5681 9.40676 33.5681 10.7875V21.5812C33.5681 22.9619 34.6874 24.0812 36.0681 24.0812H41.3607C41.6987 24.0812 41.9876 24.3228 42.0484 24.654L42.1536 25.6398C42.1745 26.5022 43.0952 27.0783 43.845 26.6054C44.0345 26.4859 44.1505 26.3104 44.2076 26.2241C44.2098 26.2208 44.2119 26.2176 44.214 26.2145L45.1194 24.8496L45.1354 24.8224C45.4046 24.3633 45.897 24.0812 46.4293 24.0812H52.1953C53.5761 24.0812 54.6953 22.9619 54.6953 21.5812V10.7875ZM42.5438 24.5848L43.0371 24.5032C42.9015 23.6829 42.1922 23.0812 41.3607 23.0812H36.0681C35.2397 23.0812 34.5681 22.4096 34.5681 21.5812V10.7875C34.5681 9.95905 35.2397 9.28748 36.0681 9.28748H52.1953C53.0238 9.28748 53.6953 9.95905 53.6953 10.7875V21.5812C53.6953 22.4096 53.0238 23.0812 52.1953 23.0812H46.4293C45.5422 23.0812 44.7215 23.5513 44.2728 24.3165L44.2708 24.3199L43.3806 25.6617C43.35 25.7079 43.3324 25.7329 43.317 25.7512C43.3124 25.7567 43.3091 25.7602 43.3072 25.7621C43.286 25.7737 43.2584 25.7764 43.224 25.756C43.1908 25.7364 43.1532 25.6937 43.1532 25.6098V25.5832L43.041 24.5317L42.5438 24.5848Z" fill="#272525"></path><path fill-rule="evenodd" clip-rule="evenodd" d="M19.9842 28.1399C20.2249 28.0047 20.5297 28.0903 20.6649 28.331C21.1104 29.1242 21.9586 29.6583 22.9309 29.6583C23.9032 29.6583 24.7513 29.1242 25.1968 28.331C25.332 28.0903 25.6369 28.0047 25.8776 28.1399C26.1184 28.2751 26.2039 28.5799 26.0687 28.8207C25.4534 29.9163 24.2791 30.6583 22.9309 30.6583C21.5826 30.6583 20.4084 29.9163 19.7931 28.8207C19.6578 28.5799 19.7434 28.2751 19.9842 28.1399Z" fill="#272525"></path><path fill-rule="evenodd" clip-rule="evenodd" d="M21.9469 0.42982C22.2731 0.415802 22.6012 0.408722 22.9309 0.408722C23.3027 0.408722 23.6725 0.417728 24.04 0.435537C24.3158 0.448903 24.5286 0.683333 24.5152 0.959152C24.5018 1.23497 24.2674 1.44773 23.9916 1.43436C23.6402 1.41734 23.2866 1.40872 22.9309 1.40872C22.6155 1.40872 22.3018 1.41549 21.9898 1.4289C21.7139 1.44075 21.4806 1.22671 21.4688 0.95082C21.4569 0.674932 21.671 0.441673 21.9469 0.42982ZM20.5473 1.03039C20.583 1.30421 20.39 1.55514 20.1162 1.59086C19.4903 1.67251 18.8728 1.78101 18.2651 1.91518C17.9954 1.9747 17.7286 1.80436 17.669 1.53471C17.6095 1.26506 17.7798 0.998214 18.0495 0.938688C18.6857 0.798254 19.3319 0.684696 19.9869 0.599258C20.2607 0.56354 20.5116 0.756562 20.5473 1.03039ZM25.6802 1.07277C25.7205 0.799578 25.9746 0.610774 26.2478 0.651061C26.9854 0.759836 27.7114 0.90434 28.4241 1.08276C28.6919 1.14983 28.8547 1.42136 28.7876 1.68923C28.7206 1.95711 28.4491 2.11989 28.1812 2.05282C27.5004 1.88237 26.8067 1.7443 26.1019 1.64036C25.8287 1.60007 25.6399 1.34595 25.6802 1.07277ZM16.7765 1.77328C16.8595 2.03666 16.7132 2.31744 16.4498 2.4004C15.8493 2.58957 15.2602 2.80433 14.6836 3.04342C14.4285 3.1492 14.136 3.02816 14.0302 2.77308C13.9245 2.518 14.0455 2.22547 14.3006 2.11969C14.9041 1.86944 15.5208 1.64463 16.1494 1.44661C16.4128 1.36364 16.6936 1.5099 16.7765 1.77328ZM29.9077 2.02951C30.001 1.76959 30.2873 1.63451 30.5472 1.72778C31.2468 1.97883 31.9304 2.26347 32.596 2.57975C32.8454 2.69827 32.9515 2.99654 32.833 3.24595C32.7145 3.49537 32.4162 3.60148 32.1668 3.48296C31.5308 3.18077 30.8778 2.90884 30.2095 2.66901C29.9496 2.57573 29.8145 2.28942 29.9077 2.02951ZM13.1926 3.16438C13.3203 3.40921 13.2253 3.71122 12.9805 3.83893C12.4235 4.12951 11.8807 4.44373 11.3535 4.78028C11.1207 4.92887 10.8116 4.86064 10.663 4.62789C10.5144 4.39513 10.5826 4.08599 10.8154 3.9374C11.367 3.58524 11.935 3.25641 12.518 2.95231C12.7628 2.8246 13.0649 2.91954 13.1926 3.16438ZM33.8641 3.79997C34.0067 3.56344 34.3139 3.48723 34.5505 3.62975C34.8676 3.82087 35.1797 4.01957 35.4865 4.2256C35.7157 4.37957 35.7767 4.69022 35.6227 4.91945C35.4688 5.14868 35.1581 5.20969 34.9289 5.05572C34.6357 4.85881 34.3375 4.66892 34.0344 4.48628C33.7978 4.34376 33.7216 4.03649 33.8641 3.79997ZM9.90632 5.1587C10.0746 5.37766 10.0335 5.69156 9.81452 5.85982C9.31707 6.24209 8.83676 6.6456 8.37497 7.06899C8.17142 7.2556 7.85514 7.24187 7.66852 7.03833C7.48191 6.83478 7.49564 6.5185 7.69918 6.33189C8.18228 5.88897 8.68475 5.46684 9.2052 5.0669C9.42415 4.89864 9.73806 4.93974 9.90632 5.1587ZM7.01486 7.69199C7.21841 7.8786 7.23213 8.19489 7.04552 8.39843C6.62213 8.86023 6.21863 9.34054 5.83636 9.83799C5.66809 10.0569 5.35419 10.098 5.13523 9.92979C4.91627 9.76153 4.87517 9.44762 5.04344 9.22866C5.44337 8.70822 5.86551 8.20575 6.30842 7.72265C6.49503 7.5191 6.81132 7.50538 7.01486 7.69199ZM4.60442 10.6865C4.83717 10.835 4.90541 11.1442 4.75682 11.3769C4.42027 11.9041 4.10604 12.4469 3.81546 13.004C3.68775 13.2488 3.38574 13.3438 3.14091 13.216C2.89607 13.0883 2.80113 12.7863 2.92884 12.5415C3.23294 11.9585 3.56177 11.3905 3.91393 10.8389C4.06252 10.6061 4.37166 10.5379 4.60442 10.6865ZM2.74961 14.0537C3.00469 14.1595 3.12573 14.452 3.01995 14.7071C2.78087 15.2836 2.5661 15.8728 2.37694 16.4733C2.29397 16.7367 2.01319 16.883 1.74981 16.8C1.48643 16.717 1.34017 16.4362 1.42314 16.1729C1.62116 15.5442 1.84597 14.9275 2.09622 14.324C2.202 14.069 2.49453 13.9479 2.74961 14.0537ZM1.51125 17.6925C1.7809 17.752 1.95124 18.0189 1.89171 18.2885C1.75754 18.8963 1.64904 19.5137 1.56739 20.1397C1.53167 20.4135 1.28074 20.6065 1.00692 20.5708C0.733094 20.5351 0.540072 20.2842 0.575789 20.0103C0.661228 19.3553 0.774785 18.7091 0.915219 18.073C0.974745 17.8033 1.24159 17.633 1.51125 17.6925ZM0.927352 21.4922C1.20324 21.5041 1.41728 21.7374 1.40543 22.0132C1.39203 22.3252 1.38525 22.639 1.38525 22.9544C1.38525 23.2697 1.39203 23.5835 1.40543 23.8955C1.41728 24.1714 1.20324 24.4046 0.927352 24.4165C0.651464 24.4283 0.418205 24.2143 0.406352 23.9384C0.392334 23.6121 0.385254 23.284 0.385254 22.9544C0.385254 22.6247 0.392334 22.2966 0.406352 21.9703C0.418204 21.6944 0.651464 21.4804 0.927352 21.4922ZM1.00692 25.3379C1.28074 25.3022 1.53167 25.4952 1.56739 25.7691C1.64904 26.395 1.75755 27.0124 1.89171 27.6202C1.95124 27.8898 1.7809 28.1567 1.51125 28.2162C1.2416 28.2758 0.974746 28.1054 0.91522 27.8358C0.774786 27.1996 0.661228 26.5534 0.57579 25.8984C0.540072 25.6246 0.733094 25.3736 1.00692 25.3379ZM44.269 28.5387C44.5345 28.6145 44.6883 28.8912 44.6125 29.1568C44.517 29.4913 44.4139 29.8227 44.3035 30.1508C44.2154 30.4125 43.9318 30.5532 43.6701 30.4651C43.4084 30.377 43.2676 30.0935 43.3557 29.8318C43.4612 29.5184 43.5597 29.2018 43.6509 28.8822C43.7267 28.6167 44.0035 28.4629 44.269 28.5387ZM1.74981 29.1087C2.01319 29.0258 2.29397 29.172 2.37694 29.4354C2.5661 30.0359 2.78087 30.6251 3.01995 31.2016C3.12573 31.4567 3.0047 31.7492 2.74962 31.855C2.49454 31.9608 2.202 31.8398 2.09623 31.5847C1.84597 30.9812 1.62116 30.3645 1.42314 29.7359C1.34017 29.4725 1.48643 29.1917 1.74981 29.1087ZM43.2945 31.4301C43.5469 31.5421 43.6607 31.8375 43.5487 32.09C43.2664 32.7262 42.9555 33.3469 42.6177 33.9505C42.4828 34.1914 42.1781 34.2774 41.9372 34.1426C41.6962 34.0077 41.6102 33.703 41.7451 33.4621C42.0679 32.8853 42.365 32.2922 42.6347 31.6844C42.7467 31.4319 43.0421 31.3181 43.2945 31.4301ZM3.14091 32.6927C3.38574 32.565 3.68775 32.6599 3.81546 32.9048C4.10604 33.4618 4.42027 34.0046 4.75682 34.5318C4.90541 34.7645 4.83717 35.0737 4.60442 35.2223C4.37166 35.3709 4.06252 35.3026 3.91393 35.0699C3.56177 34.5182 3.23294 33.9502 2.92884 33.3672C2.80113 33.1224 2.89607 32.8204 3.14091 32.6927ZM41.3904 35.0216C41.6179 35.1781 41.6755 35.4894 41.519 35.7169C41.1253 36.2892 40.7059 36.8424 40.2624 37.3748C40.0857 37.587 39.7704 37.6158 39.5582 37.439C39.346 37.2623 39.3173 36.947 39.494 36.7348C39.9179 36.2259 40.3188 35.6971 40.6951 35.1502C40.8516 34.9226 41.1629 34.8651 41.3904 35.0216ZM5.13523 35.9789C5.35419 35.8107 5.66809 35.8518 5.83635 36.0707C6.21863 36.5682 6.62213 37.0485 7.04552 37.5103C7.23213 37.7138 7.2184 38.0301 7.01486 38.2167C6.81132 38.4033 6.49503 38.3896 6.30842 38.1861C5.86551 37.703 5.44337 37.2005 5.04344 36.6801C4.87517 36.4611 4.91627 36.1472 5.13523 35.9789ZM38.8598 38.2033C39.0549 38.3987 39.0546 38.7153 38.8592 38.9104C38.3684 39.4003 37.8552 39.8677 37.3212 40.311C37.1087 40.4873 36.7935 40.4581 36.6171 40.2456C36.4407 40.0331 36.47 39.7179 36.6825 39.5415C37.193 39.1178 37.6836 38.671 38.1527 38.2027C38.3481 38.0076 38.6647 38.0079 38.8598 38.2033ZM7.66852 38.8704C7.85513 38.6668 8.17142 38.6531 8.37496 38.8397C8.83676 39.2631 9.31707 39.6666 9.81452 40.0489C10.0335 40.2172 10.0746 40.5311 9.90632 40.75C9.73806 40.969 9.42415 41.0101 9.20519 40.8418C8.68475 40.4419 8.18228 40.0197 7.69918 39.5768C7.49564 39.3902 7.48191 39.0739 7.66852 38.8704ZM35.791 40.8695C35.9471 41.0973 35.889 41.4085 35.6612 41.5646C35.0901 41.9559 34.5001 42.3217 33.8928 42.6603C33.6516 42.7947 33.3471 42.7082 33.2126 42.467C33.0781 42.2258 33.1647 41.9213 33.4059 41.7868C33.9862 41.4633 34.5501 41.1137 35.0959 40.7397C35.3237 40.5836 35.6349 40.6417 35.791 40.8695ZM10.663 41.2808C10.8116 41.0481 11.1207 40.9798 11.3535 41.1284C11.8807 41.465 12.4235 41.7792 12.9805 42.0698C13.2253 42.1975 13.3203 42.4995 13.1926 42.7443C13.0649 42.9892 12.7628 43.0841 12.518 42.9564C11.935 42.6523 11.367 42.3235 10.8154 41.9713C10.5826 41.8227 10.5144 41.5136 10.663 41.2808ZM32.2858 42.9288C32.3973 43.1814 32.283 43.4766 32.0304 43.5882C31.3984 43.8673 30.7511 44.1182 30.0902 44.3394C29.8284 44.427 29.545 44.2858 29.4574 44.0239C29.3698 43.762 29.511 43.4787 29.7729 43.3911C30.4042 43.1798 31.0226 42.9401 31.6264 42.6734C31.879 42.5619 32.1742 42.6762 32.2858 42.9288ZM14.0302 43.1356C14.136 42.8806 14.4285 42.7595 14.6836 42.8653C15.2602 43.1044 15.8493 43.3192 16.4499 43.5083C16.7132 43.5913 16.8595 43.8721 16.7765 44.1354C16.6936 44.3988 16.4128 44.5451 16.1494 44.4621C15.5208 44.2641 14.9041 44.0393 14.3006 43.789C14.0455 43.6833 13.9245 43.3907 14.0302 43.1356ZM28.4616 44.3064C28.5245 44.5753 28.3576 44.8442 28.0887 44.9072C27.4178 45.0642 26.7354 45.1913 26.043 45.2869C25.7695 45.3247 25.5171 45.1335 25.4793 44.86C25.4415 44.5865 25.6327 44.3341 25.9062 44.2963C26.5679 44.2049 27.2199 44.0835 27.8608 43.9335C28.1297 43.8706 28.3987 44.0375 28.4616 44.3064ZM17.669 44.374C17.7286 44.1044 17.9954 43.934 18.2651 43.9935C18.8728 44.1277 19.4903 44.2362 20.1162 44.3179C20.39 44.3536 20.5831 44.6045 20.5473 44.8783C20.5116 45.1522 20.2607 45.3452 19.9869 45.3095C19.3319 45.224 18.6857 45.1105 18.0495 44.97C17.7798 44.9105 17.6095 44.6437 17.669 44.374ZM24.4479 44.9542C24.4604 45.2301 24.2469 45.4639 23.9711 45.4764C23.6263 45.4921 23.2795 45.5 22.9309 45.5C22.6012 45.5 22.2731 45.4929 21.9469 45.4789C21.671 45.467 21.4569 45.2338 21.4688 44.9579C21.4806 44.682 21.7139 44.468 21.9898 44.4798C22.3018 44.4932 22.6155 44.5 22.9309 44.5C23.2643 44.5 23.596 44.4924 23.9257 44.4775C24.2015 44.4649 24.4353 44.6784 24.4479 44.9542Z" fill="#272525"></path><path fill-rule="evenodd" clip-rule="evenodd" d="M4.93646 24.3278C4.93646 22.9471 6.05575 21.8278 7.43646 21.8278H7.90186C8.178 21.8278 8.40186 22.0516 8.40186 22.3278C8.40186 22.6039 8.178 22.8278 7.90186 22.8278H7.43646C6.60804 22.8278 5.93646 23.4994 5.93646 24.3278V26.3638C5.93646 27.1922 6.60804 27.8638 7.43646 27.8638H7.90186C8.178 27.8638 8.40186 28.0876 8.40186 28.3638C8.40186 28.6399 8.178 28.8638 7.90186 28.8638H7.43646C6.05575 28.8638 4.93646 27.7445 4.93646 26.3638V24.3278Z" fill="#272525"></path><path fill-rule="evenodd" clip-rule="evenodd" d="M40.3072 26.2143C40.3072 27.595 39.1879 28.7143 37.8072 28.7143H37.3418C37.0657 28.7143 36.8418 28.4905 36.8418 28.2143C36.8418 27.9382 37.0657 27.7143 37.3418 27.7143H37.8072C38.6356 27.7143 39.3072 27.0427 39.3072 26.2143V24.3279C39.3072 24.0517 39.531 23.8279 39.8072 23.8279C40.0833 23.8279 40.3072 24.0517 40.3072 24.3279V26.2143Z" fill="#272525"></path><path fill-rule="evenodd" clip-rule="evenodd" d="M37.9606 13.09C37.9606 12.8138 38.1845 12.59 38.4606 12.59H38.5675C38.6042 12.59 38.64 12.5939 38.6744 12.6014C38.7089 12.5939 38.7446 12.59 38.7813 12.59H39.7978C40.0739 12.59 40.2978 12.8138 40.2978 13.09C40.2978 13.3661 40.0739 13.59 39.7978 13.59H38.7813C38.7446 13.59 38.7089 13.586 38.6744 13.5785C38.64 13.586 38.6042 13.59 38.5675 13.59H38.4606C38.1845 13.59 37.9606 13.3661 37.9606 13.09ZM41.1169 13.09C41.1169 12.8138 41.3408 12.59 41.6169 12.59H43.436C43.7121 12.59 43.936 12.8138 43.936 13.09C43.936 13.3661 43.7121 13.59 43.436 13.59H41.6169C41.3408 13.59 41.1169 13.3661 41.1169 13.09ZM44.7551 13.09C44.7551 12.8138 44.9789 12.59 45.2551 12.59H47.0742C47.3503 12.59 47.5742 12.8138 47.5742 13.09C47.5742 13.3661 47.3503 13.59 47.0742 13.59H45.2551C44.9789 13.59 44.7551 13.3661 44.7551 13.09ZM48.3933 13.09C48.3933 12.8138 48.6171 12.59 48.8933 12.59H49.8028C50.079 12.59 50.3028 12.8138 50.3028 13.09C50.3028 13.3661 50.079 13.59 49.8028 13.59H48.8933C48.6171 13.59 48.3933 13.3661 48.3933 13.09Z" fill="#272525"></path><path fill-rule="evenodd" clip-rule="evenodd" d="M37.9606 16.2665C37.9606 15.9904 38.1845 15.7665 38.4606 15.7665H39.4058C39.6819 15.7665 39.9058 15.9904 39.9058 16.2665C39.9058 16.5427 39.6819 16.7665 39.4058 16.7665H38.4606C38.1845 16.7665 37.9606 16.5427 37.9606 16.2665ZM40.7962 16.2665C40.7962 15.9904 41.02 15.7665 41.2962 15.7665H43.1865C43.4627 15.7665 43.6865 15.9904 43.6865 16.2665C43.6865 16.5427 43.4627 16.7665 43.1865 16.7665H41.2962C41.02 16.7665 40.7962 16.5427 40.7962 16.2665ZM44.5769 16.2665C44.5769 15.9904 44.8007 15.7665 45.0769 15.7665H46.9673C47.2434 15.7665 47.4673 15.9904 47.4673 16.2665C47.4673 16.5427 47.2434 16.7665 46.9673 16.7665H45.0769C44.8007 16.7665 44.5769 16.5427 44.5769 16.2665ZM48.3576 16.2665C48.3576 15.9904 48.5815 15.7665 48.8576 15.7665H49.8028C50.079 15.7665 50.3028 15.9904 50.3028 16.2665C50.3028 16.5427 50.079 16.7665 49.8028 16.7665H48.8576C48.5815 16.7665 48.3576 16.5427 48.3576 16.2665Z" fill="#272525"></path><path fill-rule="evenodd" clip-rule="evenodd" d="M37.9606 19.4431C37.9606 19.167 38.1845 18.9431 38.4606 18.9431H39.4167C39.6928 18.9431 39.9167 19.167 39.9167 19.4431C39.9167 19.7193 39.6928 19.9431 39.4167 19.9431H38.4606C38.1845 19.9431 37.9606 19.7193 37.9606 19.4431ZM40.8289 19.4431C40.8289 19.167 41.0528 18.9431 41.3289 18.9431H43.2411C43.5173 18.9431 43.7411 19.167 43.7411 19.4431C43.7411 19.7193 43.5173 19.9431 43.2411 19.9431H41.3289C41.0528 19.9431 40.8289 19.7193 40.8289 19.4431ZM44.6533 19.4431C44.6533 19.167 44.8772 18.9431 45.1533 18.9431H46.1899C46.2173 18.9431 46.2442 18.9453 46.2704 18.9496C46.2966 18.9453 46.3235 18.9431 46.3509 18.9431H46.4314C46.7075 18.9431 46.9314 19.167 46.9314 19.4431C46.9314 19.7193 46.7075 19.9431 46.4314 19.9431H46.3509C46.3235 19.9431 46.2966 19.9409 46.2704 19.9367C46.2442 19.9409 46.2173 19.9431 46.1899 19.9431H45.1533C44.8772 19.9431 44.6533 19.7193 44.6533 19.4431Z" fill="#272525"></path></svg> 