<?xml version="1.0" encoding="UTF-8"?> <svg xmlns="http://www.w3.org/2000/svg" width="47" height="47" viewBox="0 0 47 47" fill="none"><path d="M31.5605 23.4001C31.5605 23.066 31.5568 22.7339 31.5494 22.4041C31.5432 22.128 31.762 21.8992 32.0381 21.893C32.3142 21.8868 32.543 22.1056 32.5492 22.3817C32.5567 22.7191 32.5605 23.0586 32.5605 23.4001C32.5605 23.7417 32.5567 24.0812 32.5492 24.4186C32.543 24.6946 32.3142 24.9134 32.0381 24.9073C31.762 24.9011 31.5432 24.6723 31.5494 24.3962C31.5568 24.0663 31.5605 23.7342 31.5605 23.4001Z" fill="#272525"></path><path d="M31.9926 20.8808C31.7171 20.8996 31.4785 20.6915 31.4597 20.416C31.4138 19.7434 31.3527 19.0824 31.2771 18.435C31.2451 18.1607 31.4415 17.9124 31.7158 17.8804C31.9901 17.8484 32.2384 18.0448 32.2704 18.3191C32.3478 18.9826 32.4104 19.6595 32.4574 20.3479C32.4762 20.6234 32.2681 20.862 31.9926 20.8808Z" fill="#272525"></path><path d="M31.9926 25.9195C32.2681 25.9383 32.4762 26.1769 32.4574 26.4524C32.4104 27.1408 32.3478 27.8177 32.2704 28.4812C32.2384 28.7555 31.9901 28.9519 31.7158 28.9199C31.4415 28.8879 31.2451 28.6396 31.2771 28.3653C31.3527 27.7179 31.4138 27.0569 31.4597 26.3843C31.4785 26.1088 31.7171 25.9007 31.9926 25.9195Z" fill="#272525"></path><path d="M30.7319 12.9423C30.4672 13.021 30.1888 12.8702 30.1102 12.6055C29.9157 11.9514 29.7043 11.3269 29.4777 10.7354C29.3789 10.4776 29.5078 10.1884 29.7657 10.0896C30.0236 9.99084 30.3127 10.1198 30.4115 10.3777C30.6479 10.9946 30.8674 11.6434 31.0687 12.3205C31.1474 12.5852 30.9966 12.8636 30.7319 12.9423Z" fill="#272525"></path><path d="M29.361 9.15877C29.1139 9.28206 28.8137 9.1817 28.6904 8.93461C28.3828 8.31811 28.0568 7.7552 27.7157 7.25067C27.561 7.02191 27.6211 6.71108 27.8498 6.5564C28.0786 6.40173 28.3894 6.46178 28.5441 6.69054C28.9127 7.23568 29.2604 7.83717 29.5852 8.48814C29.7085 8.73523 29.6081 9.03549 29.361 9.15877Z" fill="#272525"></path><path d="M18.9505 6.5564C19.1793 6.71108 19.2393 7.02191 19.0847 7.25067C18.7435 7.75521 18.4176 8.31811 18.11 8.93461C17.9867 9.1817 17.6864 9.28206 17.4393 9.15878C17.1922 9.03549 17.0919 8.73523 17.2152 8.48814C17.54 7.83717 17.8877 7.23569 18.2563 6.69054C18.4109 6.46178 18.7218 6.40173 18.9505 6.5564Z" fill="#272525"></path><path d="M17.0346 10.0896C17.2925 10.1884 17.4214 10.4776 17.3227 10.7354C17.096 11.3269 16.8847 11.9514 16.6902 12.6055C16.6115 12.8702 16.3331 13.021 16.0684 12.9423C15.8037 12.8636 15.653 12.5852 15.7317 12.3205C15.933 11.6434 16.1525 10.9946 16.3888 10.3777C16.4876 10.1198 16.7768 9.99084 17.0346 10.0896Z" fill="#272525"></path><path d="M15.0845 28.9199C14.8102 28.9519 14.5619 28.7555 14.5299 28.4812C14.4525 27.8177 14.3899 27.1408 14.3429 26.4524C14.3241 26.1769 14.5322 25.9383 14.8077 25.9195C15.0832 25.9007 15.3218 26.1088 15.3406 26.3843C15.3865 27.0569 15.4476 27.7179 15.5232 28.3653C15.5552 28.6396 15.3588 28.8879 15.0845 28.9199Z" fill="#272525"></path><path d="M14.7622 21.893C15.0383 21.8992 15.2571 22.128 15.2509 22.404C15.2436 22.7339 15.2398 23.066 15.2398 23.4001C15.2398 23.7342 15.2436 24.0663 15.2509 24.3962C15.2571 24.6723 15.0383 24.9011 14.7622 24.9073C14.4861 24.9134 14.2573 24.6946 14.2512 24.4186C14.2436 24.0812 14.2398 23.7417 14.2398 23.4001C14.2398 23.0586 14.2436 22.7191 14.2512 22.3817C14.2573 22.1056 14.4861 21.8868 14.7622 21.893Z" fill="#272525"></path><path d="M12.7324 16.4281C12.9981 16.3529 13.1525 16.0765 13.0773 15.8108C13.002 15.5451 12.7257 15.3907 12.46 15.4659C11.7537 15.6659 11.086 15.888 10.4568 16.1307C10.1992 16.2301 10.0708 16.5195 10.1702 16.7771C10.2696 17.0348 10.559 17.1631 10.8166 17.0637C11.4155 16.8328 12.0539 16.6202 12.7324 16.4281Z" fill="#272525"></path><path d="M34.5174 15.5585C34.2524 15.4808 33.9746 15.6326 33.8969 15.8975C33.8192 16.1625 33.971 16.4403 34.236 16.5181C34.8926 16.7107 35.5127 16.9223 36.096 17.151C36.3531 17.2519 36.6432 17.1252 36.744 16.8681C36.8448 16.611 36.7182 16.3209 36.4611 16.2201C35.8488 15.98 35.2007 15.7589 34.5174 15.5585Z" fill="#272525"></path><path d="M8.98628 17.8883C9.23084 17.76 9.32514 17.4578 9.19691 17.2132C9.06867 16.9687 8.76646 16.8744 8.5219 17.0026C7.85974 17.3498 7.2537 17.7248 6.70393 18.1247C6.4806 18.2871 6.43123 18.5998 6.59366 18.8231C6.75608 19.0465 7.06879 19.0958 7.29211 18.9334C7.79977 18.5642 8.36405 18.2145 8.98628 17.8883Z" fill="#272525"></path><path d="M38.34 17.074C38.0955 16.9456 37.7933 17.0398 37.6649 17.2843C37.5366 17.5288 37.6307 17.831 37.8752 17.9594C38.4802 18.277 39.0308 18.616 39.527 18.9729C39.7511 19.1341 40.0636 19.0831 40.2248 18.8589C40.3861 18.6348 40.3351 18.3223 40.1109 18.1611C39.5739 17.7748 38.9831 17.4116 38.34 17.074Z" fill="#272525"></path><path d="M7.26516 27.7254C7.03618 27.571 6.72543 27.6315 6.57108 27.8605C6.41673 28.0895 6.47723 28.4002 6.70621 28.5546C7.24866 28.9203 7.84663 29.2653 8.49339 29.5877C8.74052 29.711 9.04074 29.6105 9.16395 29.3634C9.28717 29.1162 9.18671 28.816 8.93958 28.6928C8.32704 28.3874 7.76734 28.0639 7.26516 27.7254Z" fill="#272525"></path><path d="M40.0647 28.5744C40.2941 28.4207 40.3554 28.1101 40.2016 27.8807C40.0479 27.6513 39.7373 27.59 39.5079 27.7437C39.0064 28.0799 38.4481 28.4011 37.8376 28.7043C37.5903 28.8272 37.4894 29.1273 37.6122 29.3746C37.7351 29.6219 38.0352 29.7228 38.2825 29.5999C38.927 29.2798 39.5232 28.9373 40.0647 28.5744Z" fill="#272525"></path><path d="M10.7284 29.475C10.4706 29.3761 10.1814 29.5049 10.0826 29.7628C9.98368 30.0206 10.1125 30.3098 10.3704 30.4087C10.9837 30.6439 11.6285 30.8624 12.3013 31.0629C12.566 31.1418 12.8445 30.9912 12.9233 30.7266C13.0022 30.462 12.8516 30.1835 12.587 30.1046C11.937 29.9109 11.3164 29.7005 10.7284 29.475Z" fill="#272525"></path><path d="M36.4119 30.4156C36.6698 30.3169 36.7989 30.0279 36.7002 29.7699C36.6015 29.512 36.3125 29.3829 36.0546 29.4816C35.4684 29.7058 34.8501 29.9151 34.2026 30.1078C33.9379 30.1866 33.7872 30.465 33.866 30.7297C33.9448 30.9943 34.2232 31.145 34.4879 31.0663C35.1581 30.8668 35.8006 30.6495 36.4119 30.4156Z" fill="#272525"></path><path d="M30.7319 33.858C30.9966 33.9367 31.1474 34.2151 31.0687 34.4798C30.8674 35.1569 30.6479 35.8057 30.4115 36.4226C30.3127 36.6805 30.0236 36.8094 29.7657 36.7106C29.5078 36.6118 29.3789 36.3227 29.4777 36.0649C29.7043 35.4733 29.9157 34.8489 30.1102 34.1948C30.1888 33.9301 30.4672 33.7793 30.7319 33.858Z" fill="#272525"></path><path d="M29.361 37.6415C29.6081 37.7648 29.7085 38.065 29.5852 38.3121C29.2604 38.9631 28.9127 39.5646 28.5441 40.1097C28.3894 40.3385 28.0786 40.3985 27.8498 40.2439C27.6211 40.0892 27.561 39.7784 27.7157 39.5496C28.0568 39.0451 28.3828 38.4822 28.6904 37.8657C28.8137 37.6186 29.1139 37.5182 29.361 37.6415Z" fill="#272525"></path><path d="M18.9505 40.2439C18.7218 40.3985 18.4109 40.3385 18.2563 40.1097C17.8877 39.5646 17.54 38.9631 17.2152 38.3121C17.0919 38.065 17.1922 37.7648 17.4393 37.6415C17.6864 37.5182 17.9867 37.6186 18.11 37.8657C18.4176 38.4822 18.7435 39.0451 19.0847 39.5496C19.2393 39.7784 19.1793 40.0892 18.9505 40.2439Z" fill="#272525"></path><path d="M17.0346 36.7106C16.7768 36.8094 16.4876 36.6805 16.3888 36.4226C16.1525 35.8056 15.933 35.1569 15.7317 34.4798C15.653 34.2151 15.8037 33.9367 16.0684 33.858C16.3331 33.7793 16.6115 33.9301 16.6902 34.1948C16.8847 34.8489 17.096 35.4733 17.3227 36.0649C17.4214 36.3227 17.2925 36.6118 17.0346 36.7106Z" fill="#272525"></path><path fill-rule="evenodd" clip-rule="evenodd" d="M26.5675 2.89504C26.1774 1.51292 24.9071 0.5 23.4002 0.5C21.9113 0.5 20.6533 1.48885 20.2472 2.84564C11.2126 4.15225 4.06094 11.2727 2.70726 20.292C1.42216 20.7399 0.500046 21.9623 0.500046 23.4001C0.500046 24.8379 1.42216 26.0603 2.70726 26.5083C4.06094 35.5275 11.2126 42.648 20.2472 43.9546C20.6533 45.3114 21.9113 46.3003 23.4002 46.3003C24.9071 46.3003 26.1774 45.2874 26.5675 43.9052C35.4176 42.4824 42.397 35.4695 43.7695 26.6026C45.2206 26.2596 46.3003 24.956 46.3003 23.4001C46.3003 21.8443 45.2206 20.5406 43.7695 20.1976C42.397 11.3308 35.4175 4.31792 26.5675 2.89504ZM26.6879 3.92931C26.6795 4.13275 26.6526 4.33143 26.6089 4.5237C26.8132 4.68782 27.013 4.8666 27.2081 5.05907C27.4046 5.25303 27.4067 5.5696 27.2128 5.76616C27.0188 5.96272 26.7022 5.96483 26.5057 5.77087C26.4089 5.67542 26.3116 5.58448 26.2137 5.49809C25.6365 6.44731 24.5924 7.08129 23.4002 7.08129C22.208 7.08129 21.1639 6.4473 20.5866 5.49809C20.4887 5.58448 20.3914 5.67542 20.2947 5.77087C20.0981 5.96483 19.7815 5.96272 19.5876 5.76616C19.3936 5.5696 19.3957 5.25303 19.5923 5.05907C19.7873 4.8666 19.9871 4.68782 20.1915 4.5237C20.1441 4.31525 20.1164 4.09927 20.1107 3.87784C11.7554 5.20884 5.14459 11.7763 3.74869 20.1098C3.76267 20.1096 3.77667 20.1095 3.79069 20.1095C4.04227 20.1095 4.28726 20.1377 4.52266 20.1912C4.69635 19.9711 4.88245 19.7555 5.08091 19.5445C5.27011 19.3433 5.58655 19.3337 5.78769 19.5229C5.98883 19.7121 5.99851 20.0285 5.80931 20.2296C5.69947 20.3464 5.59414 20.4644 5.49328 20.5836C6.44519 21.1603 7.08134 22.2059 7.08134 23.4001C7.08134 24.5923 6.44735 25.6364 5.49813 26.2137C5.59042 26.3183 5.6879 26.4222 5.79053 26.5254C5.98521 26.7213 5.98425 27.0379 5.7884 27.2326C5.59255 27.4272 5.27597 27.4263 5.0813 27.2304C4.88036 27.0283 4.69414 26.821 4.52374 26.6088C4.28801 26.6625 4.04266 26.6908 3.79069 26.6908C3.77667 26.6908 3.76267 26.6907 3.74869 26.6905C4.39785 30.566 6.17482 34.0595 8.73057 36.822C8.82713 36.0985 9.10772 35.1499 9.75536 34.2391C10.1012 33.7527 10.638 33.3457 11.2451 32.9979C11.8583 32.6465 12.581 32.3346 13.3375 32.0539C13.7269 31.9094 14.13 31.7715 14.5367 31.6396C14.4468 31.6198 14.3572 31.5996 14.2681 31.5792C13.9989 31.5175 13.8307 31.2493 13.8924 30.9801C13.9541 30.711 14.2223 30.5428 14.4915 30.6045C14.6101 30.6316 14.7294 30.6583 14.8494 30.6844C14.8386 30.6227 14.828 30.5608 14.8175 30.4988C14.7714 30.2265 14.9548 29.9684 15.227 29.9223C15.4993 29.8762 15.7574 30.0596 15.8035 30.3319C15.8531 30.6252 15.9058 30.915 15.9614 31.201C16.2982 31.1015 16.6293 31.0057 16.9487 30.9133L16.95 30.9129C17.2774 30.8182 17.5926 30.727 17.889 30.639C19.1412 30.2673 19.5828 29.7635 19.7754 29.2257C19.8813 28.9302 19.9254 28.5872 19.9388 28.1751C19.9473 27.9121 19.9434 27.6498 19.9392 27.3651C19.9366 27.1891 19.9338 27.0036 19.9338 26.8051L19.9339 26.7972C18.6575 25.7288 17.6877 24.0798 17.1824 22.1782C16.225 22.1233 15.4504 21.3859 15.3378 20.445C15.3048 20.7059 15.0735 20.8989 14.8077 20.8808C14.5322 20.862 14.3241 20.6234 14.3429 20.3479C14.3899 19.6595 14.4525 18.9826 14.5299 18.3191C14.5619 18.0448 14.8102 17.8484 15.0845 17.8804C15.1744 17.8909 15.2559 17.9246 15.3237 17.9748V17.01C15.3237 16.9679 15.325 16.9262 15.3276 16.8848C15.2945 16.8859 15.2609 16.8837 15.227 16.8779C14.9548 16.8319 14.7714 16.5738 14.8175 16.3015C14.8393 16.1724 14.8618 16.0439 14.8848 15.9161C14.8242 15.928 14.764 15.94 14.7039 15.9522C14.4333 16.0071 14.1694 15.8322 14.1145 15.5616C14.0596 15.291 14.2345 15.0271 14.5051 14.9722C14.698 14.933 14.8934 14.8953 15.0911 14.8591C15.1308 14.6709 15.1718 14.4842 15.214 14.2992C15.2754 14.03 15.5435 13.8615 15.8127 13.923C16.0819 13.9844 16.2504 14.2525 16.1889 14.5217C16.1485 14.6987 16.1093 14.8773 16.0712 15.0576C16.0909 15.0987 16.1053 15.1433 16.1133 15.1905C16.1274 15.2743 16.1198 15.3568 16.0946 15.4321C16.3489 15.2337 16.6525 15.0954 16.9839 15.0387C17.1672 13.8735 17.5206 12.7481 18.2158 11.8007C18.9781 10.7618 20.1194 9.98018 21.783 9.57124C22.1557 9.47963 22.7352 9.4079 23.316 9.39295C23.8853 9.3783 24.5328 9.41555 25.0082 9.58618C26.6466 10.1742 27.7645 10.9196 28.5023 11.898C29.1874 12.8064 29.5079 13.8674 29.662 15.0716C30.2062 15.21 30.6612 15.5715 30.9241 16.053C30.8295 15.5304 30.725 15.0196 30.6114 14.5217C30.55 14.2525 30.7184 13.9844 30.9876 13.923C31.2569 13.8615 31.5249 14.03 31.5864 14.2992C31.6311 14.4951 31.6744 14.6929 31.7163 14.8925C31.993 14.9444 32.2653 14.9992 32.5331 15.0569C32.803 15.115 32.9748 15.3809 32.9167 15.6509C32.8586 15.9208 32.5926 16.0926 32.3227 16.0345C32.1903 16.006 32.0567 15.9782 31.9219 15.9511C31.9427 16.0674 31.963 16.1842 31.9829 16.3015C32.0289 16.5738 31.8456 16.8319 31.5733 16.8779C31.4147 16.9048 31.261 16.8538 31.1511 16.7527C31.1619 16.837 31.1675 16.9228 31.1675 17.01V20.3015C31.1675 21.2997 30.3896 22.1161 29.407 22.1778C28.926 23.9886 28.0236 25.5704 26.8364 26.6399C26.8545 26.6916 26.8643 26.7472 26.8643 26.8051C26.8643 27.0036 26.8616 27.1882 26.8589 27.3642C26.8547 27.6489 26.8508 27.9121 26.8594 28.1751C26.8727 28.5872 26.9169 28.9302 27.0227 29.2256C27.2154 29.7634 27.6571 30.2672 28.9096 30.639C29.2063 30.7271 29.5217 30.8183 29.8495 30.9131C30.1694 31.0057 30.5014 31.1017 30.8388 31.2014C30.8945 30.9152 30.9472 30.6253 30.9969 30.3319C31.043 30.0596 31.301 29.8762 31.5733 29.9223C31.8456 29.9684 32.0289 30.2265 31.9829 30.4988C31.9724 30.5608 31.9617 30.6227 31.951 30.6844C32.0698 30.6586 32.1878 30.6322 32.3052 30.6053C32.5744 30.5436 32.8426 30.7119 32.9042 30.981C32.9659 31.2502 32.7977 31.5184 32.5285 31.5801C32.4404 31.6003 32.3519 31.6202 32.263 31.6398C32.6696 31.7716 33.0726 31.9094 33.462 32.0539C34.2186 32.3346 34.9414 32.6465 35.5548 32.9979C36.162 33.3456 36.6989 33.7526 37.0448 34.2391C37.6094 35.0329 37.8951 35.8554 38.0231 36.5326C40.4402 33.8148 42.1189 30.4256 42.7442 26.6802C42.5849 26.6675 42.4287 26.6434 42.2766 26.6088C42.0974 26.832 41.9007 27.0497 41.6877 27.2618C41.492 27.4567 41.1754 27.456 40.9806 27.2604C40.7857 27.0647 40.7864 26.7481 40.9821 26.5533C41.0949 26.4409 41.2016 26.3276 41.3022 26.2137C40.353 25.6364 39.719 24.5923 39.719 23.4001C39.719 22.2065 40.3545 21.1614 41.3056 20.5845C41.2015 20.4628 41.0924 20.3422 40.9783 20.2229C40.7874 20.0234 40.7944 19.7069 40.9939 19.516C41.1934 19.3251 41.5099 19.3321 41.7008 19.5316C41.9065 19.7466 42.0987 19.9666 42.2772 20.1913C42.4291 20.1568 42.5851 20.1327 42.7442 20.12C41.3692 11.8842 34.901 5.37119 26.6879 3.92931ZM37.1113 37.4917C37.1261 36.9867 36.9839 35.8788 36.2299 34.8186C36.0051 34.5026 35.6108 34.1824 35.0578 33.8656C34.5109 33.5524 33.8445 33.2624 33.1142 32.9914C32.622 32.8088 32.1088 32.6376 31.5922 32.4753L31.5864 32.5011C31.5249 32.7703 31.2569 32.9387 30.9876 32.8773C30.7184 32.8159 30.55 32.5478 30.6114 32.2786L30.633 32.1834C30.2818 32.0794 29.9343 31.9788 29.596 31.8809L29.5945 31.8805C29.2605 31.7839 28.9355 31.6898 28.6251 31.5977C27.1742 31.167 26.4143 30.4922 26.0814 29.563C25.9244 29.1249 25.8747 28.6623 25.8599 28.2076C25.8512 27.9411 25.8547 27.6516 25.8587 27.3631C25.0807 27.8239 24.2169 28.0829 23.2946 28.0829C22.4548 28.0829 21.6633 27.8681 20.941 27.4817C20.9442 27.7305 20.9457 27.9776 20.9383 28.2076C20.9235 28.6623 20.8738 29.1249 20.7168 29.5629C20.3839 30.4921 19.6242 31.167 18.1736 31.5977C17.8631 31.6899 17.5381 31.7839 17.204 31.8806C16.8659 31.9784 16.5182 32.079 16.1673 32.183L16.1889 32.2786C16.2504 32.5478 16.0819 32.8159 15.8127 32.8773C15.5435 32.9388 15.2754 32.7703 15.214 32.5011L15.208 32.4749C14.6913 32.6373 14.1778 32.8087 13.6854 32.9914C12.9552 33.2624 12.2889 33.5523 11.7422 33.8656C11.1893 34.1823 10.7951 34.5025 10.5703 34.8186C9.73666 35.991 9.65108 37.2218 9.69851 37.631C9.70489 37.6861 9.70207 37.7401 9.69126 37.7915C12.5108 40.448 16.1108 42.2853 20.1107 42.9224C20.1164 42.701 20.1441 42.485 20.1915 42.2766C19.9871 42.1125 19.7873 41.9337 19.5923 41.7412C19.3957 41.5472 19.3936 41.2307 19.5876 41.0341C19.7815 40.8375 20.0981 40.8354 20.2947 41.0294C20.3914 41.1249 20.4887 41.2158 20.5866 41.3022C21.1639 40.353 22.208 39.719 23.4002 39.719C24.5924 39.719 25.6365 40.353 26.2137 41.3022C26.3116 41.2158 26.4089 41.1249 26.5057 41.0294C26.7022 40.8354 27.0188 40.8375 27.2128 41.0341C27.4067 41.2307 27.4046 41.5472 27.2081 41.7412C27.013 41.9337 26.8132 42.1125 26.6089 42.2766C26.6526 42.4688 26.6795 42.6675 26.6879 42.871C30.7128 42.1644 34.3186 40.2399 37.1113 37.4917ZM23.4002 1.5C24.6653 1.5 25.6908 2.52556 25.6908 3.79064C25.6908 5.05573 24.6653 6.08129 23.4002 6.08129C22.1351 6.08129 21.1095 5.05573 21.1095 3.79064C21.1095 2.52556 22.1351 1.5 23.4002 1.5ZM22.0217 10.5423C22.3058 10.4725 22.8103 10.4063 23.3417 10.3926C23.8844 10.3787 24.3771 10.4221 24.6703 10.5274C26.1952 11.0747 27.1212 11.7273 27.7039 12.5001C28.2153 13.1783 28.4952 13.992 28.6442 15.01H18.0024C18.1777 14.0111 18.487 13.1214 19.0221 12.3922C19.6289 11.5652 20.5571 10.9024 22.0217 10.5423ZM26.3158 22.1815H28.3681C27.4973 25.1584 25.4804 27.0829 23.2946 27.0829C21.1089 27.0829 19.092 25.1584 18.2212 22.1815H20.4958C21.4746 22.1815 22.3721 21.6367 22.8238 20.7684C23.0689 20.2974 23.7428 20.2974 23.9878 20.7684C24.4395 21.6367 25.337 22.1815 26.3158 22.1815ZM29.1675 16.01H17.3237C16.7714 16.01 16.3237 16.4577 16.3237 17.01V20.2081C16.3237 20.7457 16.7595 21.1815 17.2972 21.1815H20.4958C21.1016 21.1815 21.6571 20.8443 21.9367 20.3069C22.5552 19.1179 24.2564 19.1179 24.875 20.3069C25.1545 20.8443 25.71 21.1815 26.3158 21.1815H29.2875C29.7735 21.1815 30.1675 20.7875 30.1675 20.3015V17.01C30.1675 16.4577 29.7198 16.01 29.1675 16.01ZM25.6908 43.0096C25.6908 41.7445 24.6653 40.719 23.4002 40.719C22.1351 40.719 21.1095 41.7445 21.1095 43.0096C21.1095 44.2747 22.1351 45.3003 23.4002 45.3003C24.6653 45.3003 25.6908 44.2747 25.6908 43.0096ZM1.50005 23.4001C1.50005 22.135 2.5256 21.1095 3.79069 21.1095C5.05578 21.1095 6.08134 22.135 6.08134 23.4001C6.08134 24.6652 5.05578 25.6908 3.79069 25.6908C2.5256 25.6908 1.50005 24.6652 1.50005 23.4001ZM43.0097 21.1095C41.7446 21.1095 40.719 22.135 40.719 23.4001C40.719 24.6652 41.7446 25.6908 43.0097 25.6908C44.2748 25.6908 45.3003 24.6652 45.3003 23.4001C45.3003 22.135 44.2748 21.1095 43.0097 21.1095Z" fill="#272525"></path></svg> 