<?xml version="1.0" encoding="UTF-8"?> <!-- Generator: Adobe Illustrator 24.0.1, SVG Export Plug-In . SVG Version: 6.00 Build 0) --> <svg xmlns="http://www.w3.org/2000/svg" xmlns:xlink="http://www.w3.org/1999/xlink" id="E-Government" x="0px" y="0px" viewBox="0 0 175.9 177.8" style="enable-background:new 0 0 175.9 177.8;" xml:space="preserve"> <style type="text/css"> .st0{fill:#2B2B2B;} </style> <g> <path class="st0" d="M55.3,70.7l-12-2.7c-1-0.3-2.1,0.4-2.3,1.4c-0.2,1,0.4,2,1.4,2.3l12,2.7c0.1,0,0.3,0,0.4,0 c0.9,0,1.7-0.6,1.9-1.5C56.9,71.9,56.3,70.9,55.3,70.7z"></path> <path class="st0" d="M67.8,61.4c0.1,0,0.3,0,0.4,0c1-0.2,1.7-1.2,1.4-2.3l-2.7-12.2c-0.2-1-1.2-1.7-2.3-1.4c-1,0.2-1.7,1.2-1.4,2.3 l2.7,12.2C66.1,60.8,66.9,61.4,67.8,61.4z"></path> <path class="st0" d="M60,65.7c0.5,0,1-0.2,1.3-0.6c0.7-0.7,0.7-2,0-2.7l-8.5-8.5c-0.7-0.7-2-0.7-2.7,0c-0.7,0.7-0.7,2,0,2.7 l8.5,8.5C59,65.5,59.5,65.7,60,65.7z"></path> <path class="st0" d="M81.1,123.8c-4.2,0-7.6,3.4-7.6,7.6c0,3.1,1.9,5.7,4.5,6.9v16.2c0,1.1,0.9,1.9,1.9,1.9s1.9-0.9,1.9-1.9v-15.6 c3.8-0.4,6.8-3.6,6.8-7.5C88.7,127.2,85.3,123.8,81.1,123.8z M81.1,135.1c-2.1,0-3.7-1.7-3.7-3.7c0-2.1,1.7-3.7,3.7-3.7 s3.7,1.7,3.7,3.7C84.9,133.4,83.2,135.1,81.1,135.1z"></path> <path class="st0" d="M69.8,119.6l-4.2,3.2c-0.3,0.3-0.5,0.7-0.5,1.2c0,0.7,0.6,1.3,1.4,1.3c0.4,0,0.7-0.2,1-0.5l4.1-3.1 c0.6-0.5,0.7-1.3,0.3-1.9C71.3,119.2,70.4,119.1,69.8,119.6z"></path> <path class="st0" d="M66.4,128c-0.7,0-1.4,0.6-1.4,1.4v5.4c0,0.7,0.6,1.4,1.4,1.4s1.4-0.6,1.4-1.4v-5.4 C67.8,128.6,67.2,128,66.4,128z"></path> <path class="st0" d="M66.4,149.6c-0.7,0-1.4,0.6-1.4,1.4v5.4c0,0.7,0.6,1.4,1.4,1.4s1.4-0.6,1.4-1.4V151 C67.8,150.2,67.2,149.6,66.4,149.6z"></path> <path class="st0" d="M66.4,138.8c-0.7,0-1.4,0.6-1.4,1.4v5.4c0,0.7,0.6,1.4,1.4,1.4s1.4-0.6,1.4-1.4v-5.4 C67.8,139.4,67.2,138.8,66.4,138.8z"></path> <path class="st0" d="M151.6,98.5c-1.7-4.5-9-16.9-10.7-19.7c0.4-3.8,1.4-22.3-10.3-41.4c-6.4-10.4-20.4-18.2-36.5-20.3 C74.5,14.6,55.1,20.8,41,34.3c-28.9,27.5-14.2,55.4-5.4,72l1.4,2.7c9.4,18.1,0.9,42-0.1,44.7c-0.4,1,0.1,2.1,1.1,2.5 c0.2,0.1,0.4,0.1,0.7,0.1c0.8,0,1.5-0.5,1.8-1.2c1.1-2.8,10-28.2-0.1-47.8l-1.5-2.8c-8.3-15.7-22.1-42,4.7-67.5 c13.3-12.7,31.6-18.6,50.1-16.1c15,1.9,27.9,9,33.7,18.5c12.1,19.7,9.7,39.3,9.7,39.5c-0.1,0.4,0,0.9,0.3,1.2 c0.1,0.1,9,15,10.7,19.6c0.2,0.5,0.2,1,0,1.5c-0.8,1.7-4,3-5,3.3c-0.6,0.2-1.1,0.7-1.3,1.3c-0.2,0.6,0,1.3,0.4,1.8 c1.4,1.7,2.7,4.2,2.3,5.1c-0.1,0.3-1,0.8-2.8,0.8c-9.3,0.3-11.9,0.9-12.2,1c-1,0.3-1.6,1.3-1.4,2.3c0.2,1,1.3,1.6,2.3,1.4 c0,0,1.4-0.3,5.6-0.6c-0.7,0.6-0.9,1.6-0.4,2.4c0.6,1,2.2,4.4,1.4,6.4c-0.1,0.3-0.6,1.3-2.8,1.7c-0.9,0.2-1.6,1-1.6,2l0,0.5 c0.1,3.2,0.3,5.8-1.2,7.3c-1.4,1.5-4.7,2.2-9.6,2c-13.6-0.3-18.7-1.3-22.7-10.6c-2.5-5.9-2.6-10.1-2.6-10.1c0-1-0.9-1.9-1.9-1.9 c0,0,0,0,0,0c-1,0-1.9,0.9-1.9,1.9c0,0.2,0,5,2.9,11.6c2.5,5.8,5.6,8.9,9.6,10.6c-2.6,2.8-7.1,8.9-6.2,18.2c0.1,1,0.9,1.7,1.9,1.7 c0.1,0,0.1,0,0.2,0c1-0.1,1.8-1,1.7-2.1c-1.1-10.5,6.2-16.2,6.5-16.4c0,0,0,0,0.1-0.1c3.5,0.7,7.5,0.9,12.3,1c0.4,0,0.7,0,1.1,0 c5.6,0,9.2-1,11.3-3.2c2.4-2.4,2.4-5.7,2.3-9.1c2.3-0.8,3.4-2.3,4-3.4c1.8-4.1-1.2-9.3-1.6-9.9c-0.1-0.2-0.3-0.4-0.6-0.6 c1.1-0.1,2.2-0.1,3.5-0.1c3.2-0.1,5.3-1.1,6.1-3.1c1-2.3-0.2-5.1-1.4-7c1.7-0.8,3.9-2.2,4.9-4.3C152.1,101.6,152.2,100,151.6,98.5z "></path> <path class="st0" d="M93.4,105.6c-0.4-1.4,0-2.8,1-3.8c1-1,2.5-1.4,3.9-1c0.8,0.3,1.7-0.1,2.2-0.8c1.2-1.9,2-3.9,2.6-6 c0.2-0.9-0.2-1.8-1-2.2c-1.3-0.7-2.1-2-2.1-3.4c0-1.5,0.8-2.8,2.2-3.5c0.8-0.4,1.2-1.3,1-2.2c-0.5-2.1-1.3-4.2-2.4-6.1 c-0.5-0.8-1.4-1.2-2.3-0.8c-1.2,0.4-2.4,0.3-3.4-0.3c0.4,0.1,0.9,0.3,1.3,0.4c0.1,0,0.3,0.1,0.5,0.1c0.7,0,1.3-0.4,1.7-1 c0.8-1.4,3-1.4,3.9,0c0.4,0.7,1.3,1.1,2.1,0.9c1.6-0.4,3.1-1,4.5-1.8c0.7-0.4,1.1-1.3,0.9-2.2c-0.2-0.8,0-1.6,0.6-2.2 c0.6-0.6,1.4-0.8,2.2-0.5c0.8,0.2,1.7-0.1,2.2-0.8c0.8-1.4,1.5-2.9,1.9-4.4c0.2-0.9-0.2-1.8-1-2.2c-0.7-0.4-1.2-1.1-1.2-2 c0-0.9,0.5-1.6,1.3-2c0.8-0.4,1.2-1.3,1-2.2c-0.4-1.6-1-3.1-1.8-4.5c-0.5-0.8-1.4-1.2-2.3-0.8c-0.8,0.3-1.7,0.1-2.3-0.5 c-0.6-0.6-0.8-1.6-0.5-2.4c0.3-0.9,0-1.8-0.8-2.3c-1.4-0.8-2.9-1.4-4.4-1.9c-0.9-0.2-1.8,0.2-2.2,1.1c-0.7,1.6-3.4,1.6-4.1,0 c-0.4-0.9-1.3-1.3-2.2-1.1c-1.5,0.4-3,1-4.4,1.9c-0.8,0.5-1.1,1.5-0.8,2.3c0.3,0.8,0.1,1.8-0.5,2.4c-0.6,0.6-1.5,0.8-2.3,0.5 c-0.9-0.3-1.8,0-2.3,0.8c-0.8,1.4-1.4,2.9-1.8,4.5c-0.2,0.9,0.2,1.8,1,2.2c0.8,0.4,1.3,1.1,1.3,2c0,0.8-0.5,1.6-1.2,2 c-0.8,0.4-1.2,1.3-1,2.2c0.2,0.8,0.5,1.6,0.9,2.4c-0.2,0.2-0.4,0.4-0.5,0.7c-0.6,1.4-2,2.3-3.6,2.3c-1.6,0-3-0.9-3.6-2.3 c-0.4-0.9-1.3-1.3-2.2-1.1c-2.1,0.6-4.1,1.4-6,2.5c-0.8,0.5-1.1,1.5-0.8,2.3c0.6,1.4,0.2,3.1-0.9,4.2c-1.1,1.1-2.6,1.4-4.1,0.9 c-0.9-0.3-1.8,0-2.3,0.8c-1.1,1.9-1.9,3.9-2.4,6.1c-0.2,0.9,0.2,1.8,1,2.2c1.4,0.7,2.2,2,2.2,3.5c0,1.4-0.8,2.8-2.1,3.4 c-0.8,0.4-1.2,1.3-1,2.2c0.6,2.1,1.4,4.2,2.6,6c0.5,0.7,1.3,1.1,2.2,0.8c1.4-0.4,2.9,0,3.9,1c1,1,1.4,2.4,1,3.8 c-0.2,0.8,0.1,1.7,0.9,2.2c1.9,1.1,4,2,6.1,2.5c0,0,0,0,0.1,0c0.1,1.4,0.7,2.8,1.7,3.7l-3,2.3c-0.6,0.5-0.7,1.3-0.3,1.9 c0.3,0.3,0.7,0.5,1.1,0.5c0.3,0,0.6-0.1,0.8-0.3l4-3c0.4,0.1,0.9,0.2,1.4,0.2c3,0,5.5-2.4,5.6-5.4c2-0.5,4-1.3,5.8-2.4 C93.3,107.4,93.6,106.5,93.4,105.6z M88.6,54.2c1.7,0.1,3.4-0.5,4.6-1.7c1.3-1.3,1.9-3,1.7-4.8c0.3-0.1,0.6-0.3,0.9-0.4 c2.3,2.7,6.9,2.7,9.2,0c0.3,0.1,0.6,0.2,0.9,0.4c-0.1,1.7,0.5,3.5,1.7,4.8c1.2,1.2,2.9,1.8,4.6,1.7c0.1,0.3,0.3,0.7,0.4,1 c-1.3,1.1-2,2.7-2,4.5c0,1.7,0.7,3.3,1.9,4.4c-0.1,0.4-0.3,0.8-0.5,1.1c-1.6,0-3.2,0.6-4.4,1.8c-1.1,1.2-1.8,2.7-1.7,4.3 c-0.4,0.2-0.8,0.4-1.2,0.5c-1.1-1.1-2.7-1.8-4.3-1.8c-1.6,0-3.2,0.7-4.3,1.8c-0.4-0.1-0.8-0.3-1.2-0.5c0-1.6-0.6-3.2-1.8-4.3 c-1.2-1.2-2.8-1.7-4.4-1.8c-0.2-0.4-0.3-0.7-0.5-1.1c1.2-1.1,1.9-2.7,1.9-4.4c0-1.8-0.7-3.4-2-4.5C88.3,54.9,88.4,54.6,88.6,54.2z M91.7,99.1c-1.6,1.6-2.4,3.8-2.2,6c-0.9,0.4-1.8,0.8-2.7,1.1c-2.9-3.3-8.7-3.3-11.6,0c-0.9-0.3-1.9-0.7-2.7-1.1 c0.2-2.2-0.6-4.4-2.2-6c-1.6-1.6-3.9-2.4-6.1-2.2c-0.4-0.8-0.8-1.7-1.1-2.6c1.8-1.4,2.8-3.6,2.8-5.9c0-2.4-1.1-4.6-3-6.1 c0.3-0.9,0.6-1.7,1-2.5c2.4,0.3,4.7-0.5,6.4-2.2c1.7-1.7,2.5-4.2,2.2-6.6c0.8-0.4,1.6-0.7,2.4-1c1.4,1.9,3.7,3.1,6.2,3.1 c2.5,0,4.8-1.2,6.2-3.1c0.8,0.3,1.6,0.6,2.4,1c-0.4,2.4,0.4,4.8,2.2,6.6c1.7,1.7,4.1,2.5,6.4,2.2c0.4,0.8,0.7,1.7,1,2.5 c-1.9,1.4-3,3.7-3,6.1c0,2.3,1,4.5,2.8,5.9c-0.3,0.9-0.7,1.8-1.1,2.6C95.5,96.7,93.3,97.5,91.7,99.1z"></path> <path class="st0" d="M81.1,80.7c-4.2,0-7.6,3.4-7.6,7.6s3.4,7.6,7.6,7.6c4.2,0,7.6-3.4,7.6-7.6S85.3,80.7,81.1,80.7z M81.1,92 c-2.1,0-3.8-1.7-3.8-3.7s1.7-3.7,3.8-3.7c2.1,0,3.8,1.7,3.8,3.7S83.2,92,81.1,92z"></path> <path class="st0" d="M100.6,65.6c3.3,0,5.9-2.7,5.9-5.9c0-3.3-2.7-5.9-5.9-5.9s-5.9,2.7-5.9,5.9C94.7,62.9,97.3,65.6,100.6,65.6z M100.6,57.5c1.2,0,2.1,0.9,2.1,2.1c0,1.2-1,2.1-2.1,2.1s-2.1-0.9-2.1-2.1C98.5,58.5,99.4,57.5,100.6,57.5z"></path> </g> </svg> 