<?xml version="1.0" encoding="UTF-8"?> <svg xmlns="http://www.w3.org/2000/svg" xmlns:xlink="http://www.w3.org/1999/xlink" version="1.1" id="Layer_1" x="0px" y="0px" viewBox="0 0 300 300" style="enable-background:new 0 0 300 300;" xml:space="preserve"> <style type="text/css"> .st0{fill:#232020;} .st1{fill-rule:evenodd;clip-rule:evenodd;fill:#232020;} </style> <g> <g> <path class="st0" d="M284,241.9H16c-8.8,0-16-7.2-16-16v-13.1c0-1.7,1.4-3.1,3.1-3.1h293.7c1.7,0,3.1,1.4,3.1,3.1v13.1 C300,234.8,292.8,241.9,284,241.9 M6.3,216v10c0,5.4,4.4,9.7,9.7,9.7h268c5.4,0,9.7-4.4,9.7-9.7v-10H6.3z"></path> <path class="st0" d="M257.8,215h-4.2c-1.2,0-2.2-1-2.2-2.2c0-1.2,1-2.2,2.2-2.2h2V208c0-1.2,1-2.2,2.2-2.2c1.2,0,2.2,1,2.2,2.2 v4.7C260.1,214,259.1,215,257.8,215 M244.7,215h-8.9c-1.2,0-2.2-1-2.2-2.2c0-1.2,1-2.2,2.2-2.2h8.9c1.2,0,2.2,1,2.2,2.2 C246.9,214,245.9,215,244.7,215 M226.8,215h-8.9c-1.2,0-2.2-1-2.2-2.2c0-1.2,1-2.2,2.2-2.2h8.9c1.2,0,2.2,1,2.2,2.2 C229,214,228,215,226.8,215 M208.9,215h-8.9c-1.2,0-2.2-1-2.2-2.2c0-1.2,1-2.2,2.2-2.2h8.9c1.2,0,2.2,1,2.2,2.2 C211.1,214,210.1,215,208.9,215 M191,215h-8.9c-1.2,0-2.2-1-2.2-2.2c0-1.2,1-2.2,2.2-2.2h8.9c1.2,0,2.2,1,2.2,2.2 C193.2,214,192.2,215,191,215 M173.1,215h-8.9c-1.2,0-2.2-1-2.2-2.2c0-1.2,1-2.2,2.2-2.2h8.9c1.2,0,2.2,1,2.2,2.2 C175.4,214,174.3,215,173.1,215 M155.2,215h-8.9c-1.2,0-2.2-1-2.2-2.2c0-1.2,1-2.2,2.2-2.2h8.9c1.2,0,2.2,1,2.2,2.2 C157.5,214,156.5,215,155.2,215 M137.3,215h-8.9c-1.2,0-2.2-1-2.2-2.2c0-1.2,1-2.2,2.2-2.2h8.9c1.2,0,2.2,1,2.2,2.2 C139.6,214,138.6,215,137.3,215 M119.5,215h-8.9c-1.2,0-2.2-1-2.2-2.2c0-1.2,1-2.2,2.2-2.2h8.9c1.2,0,2.2,1,2.2,2.2 C121.7,214,120.7,215,119.5,215 M101.6,215h-8.9c-1.2,0-2.2-1-2.2-2.2c0-1.2,1-2.2,2.2-2.2h8.9c1.2,0,2.2,1,2.2,2.2 C103.8,214,102.8,215,101.6,215 M83.7,215h-8.9c-1.2,0-2.2-1-2.2-2.2c0-1.2,1-2.2,2.2-2.2h8.9c1.2,0,2.2,1,2.2,2.2 C85.9,214,84.9,215,83.7,215 M65.8,215h-8.9c-1.2,0-2.2-1-2.2-2.2c0-1.2,1-2.2,2.2-2.2h8.9c1.2,0,2.2,1,2.2,2.2 C68.1,214,67.1,215,65.8,215 M47.9,215h-2c-1.2,0-2.2-1-2.2-2.2v-6.9c0-1.2,1-2.2,2.2-2.2s2.2,1,2.2,2.2v4.7c1.1,0.1,2,1.1,2,2.2 C50.2,214,49.2,215,47.9,215 M257.8,201.3c-1.2,0-2.2-1-2.2-2.2v-8.9c0-1.2,1-2.2,2.2-2.2c1.2,0,2.2,1,2.2,2.2v8.9 C260.1,200.3,259.1,201.3,257.8,201.3 M45.9,199.2c-1.2,0-2.2-1-2.2-2.2V188c0-1.2,1-2.2,2.2-2.2s2.2,1,2.2,2.2v8.9 C48.1,198.2,47.1,199.2,45.9,199.2 M257.8,183.5c-1.2,0-2.2-1-2.2-2.2v-8.9c0-1.2,1-2.2,2.2-2.2c1.2,0,2.2,1,2.2,2.2v8.9 C260.1,182.5,259.1,183.5,257.8,183.5 M45.9,181.3c-1.2,0-2.2-1-2.2-2.2v-8.9c0-1.2,1-2.2,2.2-2.2s2.2,1,2.2,2.2v8.9 C48.1,180.3,47.1,181.3,45.9,181.3 M257.8,165.6c-1.2,0-2.2-1-2.2-2.2v-8.9c0-1.2,1-2.2,2.2-2.2c1.2,0,2.2,1,2.2,2.2v8.9 C260.1,164.6,259.1,165.6,257.8,165.6 M45.9,163.4c-1.2,0-2.2-1-2.2-2.2v-8.9c0-1.2,1-2.2,2.2-2.2s2.2,1,2.2,2.2v8.9 C48.1,162.4,47.1,163.4,45.9,163.4 M257.8,147.7c-1.2,0-2.2-1-2.2-2.2v-8.9c0-1.2,1-2.2,2.2-2.2c1.2,0,2.2,1,2.2,2.2v8.9 C260.1,146.7,259.1,147.7,257.8,147.7 M45.9,145.5c-1.2,0-2.2-1-2.2-2.2v-8.9c0-1.2,1-2.2,2.2-2.2s2.2,1,2.2,2.2v8.9 C48.1,144.5,47.1,145.5,45.9,145.5 M257.8,129.8c-1.2,0-2.2-1-2.2-2.2v-8.9c0-1.2,1-2.2,2.2-2.2c1.2,0,2.2,1,2.2,2.2v8.9 C260.1,128.8,259.1,129.8,257.8,129.8 M45.9,127.6c-1.2,0-2.2-1-2.2-2.2v-8.9c0-1.2,1-2.2,2.2-2.2s2.2,1,2.2,2.2v8.9 C48.1,126.6,47.1,127.6,45.9,127.6 M257.8,111.9c-1.2,0-2.2-1-2.2-2.2v-8.9c0-1.2,1-2.2,2.2-2.2c1.2,0,2.2,1,2.2,2.2v8.9 C260.1,110.9,259.1,111.9,257.8,111.9 M45.9,109.7c-1.2,0-2.2-1-2.2-2.2v-8.9c0-1.2,1-2.2,2.2-2.2s2.2,1,2.2,2.2v8.9 C48.1,108.7,47.1,109.7,45.9,109.7 M257.8,94c-1.2,0-2.2-1-2.2-2.2v-8.9c0-1.2,1-2.2,2.2-2.2c1.2,0,2.2,1,2.2,2.2v8.9 C260.1,93,259.1,94,257.8,94 M45.9,91.9c-1.2,0-2.2-1-2.2-2.2v-8.9c0-1.2,1-2.2,2.2-2.2s2.2,1,2.2,2.2v8.9 C48.1,90.8,47.1,91.9,45.9,91.9 M193.9,77.5c-1.2,0-2.2-1-2.2-2.2c0-1.2,1-2.2,2.2-2.3l8.9-0.1h0c1.2,0,2.2,1,2.2,2.2 c0,1.2-1,2.2-2.2,2.3L193.9,77.5L193.9,77.5z M94.1,77.5L94.1,77.5l-8.9,0c-1.2,0-2.2-1-2.2-2.2c0-1.2,1-2.2,2.2-2.2l9,0 c1.2,0,2.2,1,2.2,2.2C96.4,76.5,95.4,77.5,94.1,77.5 M112.4,77.5h-9.3c-1.2,0-2.2-1-2.2-2.2c0-1.2,1-2.2,2.2-2.2h9.3 c1.2,0,2.2,1,2.2,2.2C114.6,76.5,113.6,77.5,112.4,77.5 M76.3,77.5L76.3,77.5l-9,0c-1.2,0-2.2-1-2.2-2.2c0-1.2,1-2.2,2.2-2.2h9 c1.2,0,2.2,1,2.2,2.2C78.5,76.5,77.5,77.5,76.3,77.5 M58.4,77.5L58.4,77.5l-9,0c-1.2,0-2.2-1-2.2-2.2c0-1.2,1-2.1,2.2-2.2l8.9,0 c1.2,0,2.2,1,2.2,2.2C60.6,76.5,59.6,77.5,58.4,77.5 M256.5,77.4L256.5,77.4c-1.6,0-4.7,0-8.9-0.1c-1.2,0-2.2-1-2.2-2.2 c0-1.2,1-2.2,2.2-2.2h0c4.3,0,7.3,0,9,0.1c1.2,0,2.2,1,2.2,2.3C258.7,76.5,257.7,77.4,256.5,77.4 M211.8,77.4 c-1.2,0-2.2-1-2.2-2.2c0-1.2,1-2.2,2.2-2.2l8.9,0h0c1.2,0,2.2,1,2.2,2.2c0,1.2-1,2.2-2.2,2.2L211.8,77.4L211.8,77.4z M238.6,77.4 h-8.9c-1.2,0-2.2-1-2.2-2.2c0-1.2,1-2.2,2.2-2.2h8.9c1.2,0,2.2,1,2.2,2.2C240.9,76.4,239.9,77.4,238.6,77.4 M124.5,77.5 c-1.2,0-2.2-1-2.2-2.2c0-1.2,1-2.2,2.2-2.3l8.9-0.1h0c1.2,0,2.2,1,2.2,2.2c0,1.2-1,2.2-2.2,2.3L124.5,77.5L124.5,77.5z M155,77.4 c-1.2,0-2.2-1-2.2-2.2c0-1.2,1-2.2,2.2-2.2l8.9,0h0c1.2,0,2.2,1,2.2,2.2c0,1.2-1,2.2-2.2,2.2L155,77.4L155,77.4z M181.8,77.4h-8.9 c-1.2,0-2.2-1-2.2-2.2c0-1.2,1-2.2,2.2-2.2h8.9c1.2,0,2.2,1,2.2,2.2C184.1,76.4,183.1,77.4,181.8,77.4 M143.4,77.5 c-1.2,0-2.2-1-2.2-2.2c0-1.2,1-2.2,2.2-2.3l2.6-0.1h0c1.2,0,2.2,1,2.2,2.2c0,1.2-1,2.2-2.2,2.3L143.4,77.5L143.4,77.5z"></path> <path class="st0" d="M187.8,228h-8.9c-1.2,0-2.2-1-2.2-2.2c0-1.2,1-2.2,2.2-2.2h8.9c1.2,0,2.2,1,2.2,2.2 C190.1,227,189.1,228,187.8,228 M170,228H161c-1.2,0-2.2-1-2.2-2.2c0-1.2,1-2.2,2.2-2.2h8.9c1.2,0,2.2,1,2.2,2.2 C172.2,227,171.2,228,170,228 M152.1,228h-8.9c-1.2,0-2.2-1-2.2-2.2c0-1.2,1-2.2,2.2-2.2h8.9c1.2,0,2.2,1,2.2,2.2 C154.3,227,153.3,228,152.1,228 M134.2,228h-8.9c-1.2,0-2.2-1-2.2-2.2c0-1.2,1-2.2,2.2-2.2h8.9c1.2,0,2.2,1,2.2,2.2 C136.4,227,135.4,228,134.2,228 M116.3,228h-2.7c-3.5,0-6.5-2.4-6.8-5.6c-0.1-1.2,0.8-2.3,2.1-2.4c1.2,0,2.3,0.8,2.4,2.1 c0.1,0.7,1,1.4,2.3,1.4h2.7c1.2,0,2.2,1,2.2,2.2C118.5,227,117.5,228,116.3,228 M196,225.9c-0.4,0-0.8-0.1-1.1-0.3 c-1.1-0.6-1.4-2-0.8-3.1l0.1-7.8c0-1.2,1-2.2,2.2-2.2c1.2,0,2.2,1,2.2,2.2v7.3c0,0.9-0.3,1.9-0.7,2.7 C197.6,225.5,196.8,225.9,196,225.9 M109.1,215.6c-1.2,0-2.2-1-2.2-2.2v-0.6c0-1.2,1-2.2,2.2-2.2h8.9c1.2,0,2.2,1,2.2,2.2 c0,1.2-1,2.2-2.2,2.2h-7.4C110.2,215.4,109.7,215.6,109.1,215.6 M189.6,215h-8.9c-1.2,0-2.2-1-2.2-2.2c0-1.2,1-2.2,2.2-2.2h8.9 c1.2,0,2.2,1,2.2,2.2C191.8,214,190.8,215,189.6,215 M171.7,215h-8.9c-1.2,0-2.2-1-2.2-2.2c0-1.2,1-2.2,2.2-2.2h8.9 c1.2,0,2.2,1,2.2,2.2C173.9,214,172.9,215,171.7,215 M153.8,215h-8.9c-1.2,0-2.2-1-2.2-2.2c0-1.2,1-2.2,2.2-2.2h8.9 c1.2,0,2.2,1,2.2,2.2C156,214,155,215,153.8,215 M135.9,215H127c-1.2,0-2.2-1-2.2-2.2c0-1.2,1-2.2,2.2-2.2h8.9 c1.2,0,2.2,1,2.2,2.2C138.2,214,137.2,215,135.9,215"></path> <path class="st0" d="M273.1,215.8H26.9V79.4c0-11.8,9.6-21.3,21.3-21.3h203.5c11.8,0,21.3,9.6,21.3,21.3V215.8z M33.2,209.5h233.5 V79.4c0-8.3-6.7-15-15-15H48.3c-8.3,0-15,6.7-15,15V209.5z"></path> </g> <path class="st0" d="M161.1,191.6c-1.2,0-2.4-0.6-3-1.7c-3.4-5.9-12.8-5.9-16.2,0c-0.8,1.3-2.4,2-3.8,1.6c-4.7-1.2-9.2-3-13.3-5.4 c-1.3-0.8-2-2.4-1.6-3.9c0.9-3.3,0-6.8-2.3-9.1c-2.4-2.4-6-3.3-9.3-2.3c-1.5,0.5-3.1-0.2-3.9-1.5c-2.5-4.1-4.4-8.5-5.7-13.1 c-0.4-1.6,0.3-3.2,1.7-4c3.1-1.6,5.1-4.8,5.1-8.3c0-3.6-2-6.8-5.3-8.4c-1.5-0.7-2.2-2.3-1.8-3.9c1.1-4.6,2.9-9.1,5.2-13.2 c0.8-1.5,2.6-2.1,4.2-1.5c3.5,1.3,7.3,0.4,9.8-2.2c2.6-2.6,3.4-6.5,2.1-10c-0.6-1.6,0-3.3,1.4-4.2c4.1-2.4,8.4-4.3,13-5.5 c1.7-0.4,3.4,0.4,4.1,2c1.5,3.4,4.9,5.6,8.6,5.6s7.1-2.2,8.6-5.6c0.7-1.6,2.4-2.4,4.1-2c4.6,1.2,8.9,3,13,5.5 c1.4,0.9,2,2.6,1.4,4.2c-1.3,3.5-0.5,7.4,2.1,10c2.6,2.6,6.4,3.4,9.8,2.2c1.6-0.6,3.3,0.1,4.2,1.5c2.4,4.1,4.1,8.6,5.2,13.2 c0.4,1.6-0.4,3.2-1.8,3.9c-3.3,1.6-5.3,4.8-5.3,8.4c0,3.5,1.9,6.6,5.1,8.3c1.4,0.8,2.2,2.4,1.7,4c-1.2,4.6-3.2,9.1-5.7,13.1 c-0.8,1.3-2.5,2-3.9,1.5c-3.3-1-6.9-0.1-9.3,2.3c-2.4,2.4-3.3,5.9-2.3,9.1c0.4,1.5-0.2,3.1-1.6,3.9c-4.2,2.4-8.6,4.3-13.3,5.4 C161.7,191.6,161.4,191.6,161.1,191.6z M130.4,181.3c2.3,1.2,4.6,2.1,7.1,2.9c3.1-3.7,7.7-6,12.6-6c4.9,0,9.5,2.2,12.6,6 c2.4-0.7,4.8-1.7,7.1-2.9c-0.5-4.8,1.2-9.7,4.6-13.1c3.5-3.5,8.5-5.2,13.4-4.6c1.2-2.2,2.2-4.5,3-6.8c-4-3.1-6.3-7.8-6.3-12.8 c0-5.3,2.5-10.1,6.7-13.1c-0.7-2.3-1.6-4.5-2.6-6.6c-5.1,0.8-10.4-0.8-14.1-4.5c-3.8-3.8-5.4-9.2-4.5-14.4c-2-1.1-4.2-2-6.4-2.7 c-3,4.4-8,7-13.4,7s-10.4-2.7-13.4-7c-2.2,0.7-4.3,1.6-6.4,2.7c0.9,5.2-0.7,10.6-4.5,14.4c-3.7,3.7-9,5.4-14.1,4.5 c-1.1,2.1-1.9,4.4-2.6,6.6c4.2,3,6.7,7.8,6.7,13.1c0,5.1-2.4,9.8-6.3,12.8c0.8,2.4,1.8,4.6,3,6.8c5-0.6,9.9,1.1,13.4,4.6 C129.2,171.6,130.8,176.5,130.4,181.3z M150.4,159.5c-8.8,0-16-7.1-16-15.9c0-8.8,7.2-15.9,16-15.9c8.8,0,16,7.2,16,15.9 C166.3,152.3,159.2,159.5,150.4,159.5z M150.4,134.5c-5,0-9,4-9,9c0,5,4.1,9,9,9c5,0,9-4,9-9C159.4,138.6,155.4,134.5,150.4,134.5z "></path> <path class="st0" d="M45.9,174.6"></path> <path class="st0" d="M75.1,112.6c-5.8,0-10.5-4.7-10.5-10.5c0-5.8,4.7-10.5,10.5-10.5s10.5,4.7,10.5,10.5 C85.6,107.9,80.9,112.6,75.1,112.6z M75.1,95.9c-3.5,0-6.3,2.8-6.3,6.2s2.8,6.2,6.3,6.2s6.3-2.8,6.3-6.2S78.6,95.9,75.1,95.9z"></path> <path class="st0" d="M122.5,115.9c-0.3,0-0.5-0.1-0.8-0.2l-5.2-3.2c-0.7-0.4-0.9-1.4-0.5-2.1c0.4-0.7,1.4-0.9,2.1-0.5l5.2,3.2 c0.7,0.4,0.9,1.4,0.5,2.1C123.5,115.7,123,115.9,122.5,115.9z M112.1,109.6c-0.3,0-0.5-0.1-0.8-0.2l-5.2-3.2 c-0.7-0.4-0.9-1.4-0.5-2.1c0.4-0.7,1.4-0.9,2.1-0.5l5.2,3.2c0.7,0.4,0.9,1.4,0.5,2.1C113.2,109.3,112.7,109.6,112.1,109.6z M101.7,103.6h-6.1c-0.8,0-1.5-0.7-1.5-1.5s0.7-1.5,1.5-1.5h6.1c0.8,0,1.5,0.7,1.5,1.5S102.5,103.6,101.7,103.6z M89.6,103.6h-6.1 c-0.8,0-1.5-0.7-1.5-1.5s0.7-1.5,1.5-1.5h6.1c0.8,0,1.5,0.7,1.5,1.5S90.4,103.6,89.6,103.6z"></path> <path class="st0" d="M222.1,197.4c-5.6,0-10.1-4.5-10.1-10.1s4.5-10.1,10.1-10.1s10.1,4.5,10.1,10.1S227.7,197.4,222.1,197.4z M222.1,181.3c-3.3,0-6,2.7-6,6s2.7,6,6,6s6-2.7,6-6S225.5,181.3,222.1,181.3z"></path> <path class="st0" d="M214.7,188.7h-5.8c-0.8,0-1.5-0.7-1.5-1.5s0.7-1.5,1.5-1.5h5.8c0.8,0,1.5,0.7,1.5,1.5S215.5,188.7,214.7,188.7 z M203.1,188.7h-5.8c-0.8,0-1.5-0.7-1.5-1.5s0.7-1.5,1.5-1.5h5.8c0.8,0,1.5,0.7,1.5,1.5S203.9,188.7,203.1,188.7z M192.4,185.8 c-0.3,0-0.6-0.1-0.8-0.3l-4.7-3.4c-0.7-0.5-0.8-1.4-0.3-2c0.5-0.7,1.4-0.8,2-0.3l4.7,3.4c0.7,0.5,0.8,1.4,0.3,2 C193.3,185.6,192.9,185.8,192.4,185.8z M183,179c-0.3,0-0.6-0.1-0.8-0.3l-4.7-3.4c-0.7-0.5-0.8-1.4-0.3-2c0.5-0.7,1.4-0.8,2-0.3 l4.7,3.4c0.7,0.5,0.8,1.4,0.3,2C183.9,178.8,183.4,179,183,179z"></path> <path class="st1" d="M232.6,121c3.6,0,6.6,2.9,6.6,6.6c0,3.6-3,6.6-6.6,6.6c-3.6,0-6.6-2.9-6.6-6.6C226,124,228.9,121,232.6,121z"></path> <path class="st0" d="M227.8,129.3h-36c-0.9,0-1.7-0.8-1.7-1.7c0-0.9,0.7-1.7,1.7-1.7h36c0.9,0,1.7,0.8,1.7,1.7 C229.5,128.6,228.7,129.3,227.8,129.3z"></path> <path class="st1" d="M78.3,171.1c3.9,0,7.1,3.2,7.1,7.1c0,3.9-3.2,7.1-7.1,7.1c-3.9,0-7.1-3.2-7.1-7.1 C71.2,174.3,74.4,171.1,78.3,171.1z"></path> <path class="st0" d="M123,179.3H83.2c-1,0-1.8-0.8-1.8-1.8c0-1,0.8-1.8,1.8-1.8H123c1,0,1.8,0.8,1.8,1.8 C124.8,178.5,124,179.3,123,179.3z"></path> <g> <path class="st0" d="M73.4,152.3c-6.1,0-11.1-5-11.1-11.1c0-6.1,5-11.1,11.1-11.1c6.1,0,11.1,5,11.1,11.1 C84.6,147.3,79.6,152.3,73.4,152.3z M73.4,134.6c-3.6,0-6.6,3-6.6,6.6c0,3.6,3,6.6,6.6,6.6c3.7,0,6.6-3,6.6-6.6 C80.1,137.5,77.1,134.6,73.4,134.6z"></path> <path class="st0" d="M113.4,142.8H107c-0.9,0-1.6-0.7-1.6-1.6c0-0.9,0.7-1.6,1.6-1.6h6.4c0.9,0,1.6,0.7,1.6,1.6 C115,142,114.2,142.8,113.4,142.8z M100.6,142.8h-6.4c-0.9,0-1.6-0.7-1.6-1.6c0-0.9,0.7-1.6,1.6-1.6h6.4c0.9,0,1.6,0.7,1.6,1.6 C102.2,142,101.5,142.8,100.6,142.8z M87.9,142.8H83c-0.9,0-1.6-0.7-1.6-1.6c0-0.9,0.7-1.6,1.6-1.6h4.9c0.9,0,1.6,0.7,1.6,1.6 C89.5,142,88.8,142.8,87.9,142.8z"></path> </g> <g> <path class="st0" d="M225.2,153.8c0-6.1,5-11.1,11.1-11.1c6.1,0,11.1,5,11.1,11.1c0,6.1-5,11.1-11.1,11.1 C230.2,164.9,225.2,159.9,225.2,153.8z M229.7,153.8c0,3.6,3,6.6,6.6,6.6c3.6,0,6.6-3,6.6-6.6c0-3.6-3-6.6-6.6-6.6 C232.7,147.2,229.7,150.1,229.7,153.8z"></path> <path class="st0" d="M194.8,153.8c0-0.9,0.7-1.6,1.6-1.6h6.4c0.9,0,1.6,0.7,1.6,1.6c0,0.9-0.7,1.6-1.6,1.6h-6.4 C195.5,155.4,194.8,154.7,194.8,153.8z M207.6,153.8c0-0.9,0.7-1.6,1.6-1.6h6.4c0.9,0,1.6,0.7,1.6,1.6c0,0.9-0.7,1.6-1.6,1.6h-6.4 C208.3,155.4,207.6,154.7,207.6,153.8z M220.3,153.8c0-0.9,0.7-1.6,1.6-1.6h4.9c0.9,0,1.6,0.7,1.6,1.6c0,0.9-0.7,1.6-1.6,1.6h-4.9 C221,155.4,220.3,154.7,220.3,153.8z"></path> </g> </g> </svg> 