<svg xmlns="http://www.w3.org/2000/svg" width="205.333" height="205.333" viewBox="0 0 205.333 205.333"><defs><clipPath clipPathUnits="userSpaceOnUse" id="a"><path d="M0 154h154V0H0z"/></clipPath></defs><g clip-path="url(#a)" transform="matrix(1.33333 0 0 -1.33333 0 205.333)"><path d="M77 0C34.474 0 0 34.474 0 77s34.474 77 77 77 77-34.474 77-77S119.526 0 77 0" fill="#a5be6d"/><path d="M85.173 102.797l-23.104 1.464-3.801.096a.345.345 0 01-.278-.13l-4.504-5.657a.867.867 0 00-1.397 0l-4.531 5.691a.358.358 0 01-.278.14h-2.708c-4.06.004-7.355-3.297-7.36-7.374 0-.294.018-.588.052-.88l2.144-16.157a6.272 6.272 0 014.062-5.186l3.602-33.186a2.86 2.86 0 012.838-2.545h5.71a2.861 2.861 0 012.839 2.545l1.683 15.512 4.036 37.937a.391.391 0 00.365.348l20.456 1.325a3.138 3.138 0 012.969 2.693 3.021 3.021 0 01-2.795 3.364m-32.347 3.86c4.794 0 8.679 3.902 8.679 8.715 0 4.814-3.885 8.716-8.68 8.716-4.792 0-8.678-3.902-8.678-8.716 0-4.813 3.886-8.715 8.679-8.715m41.59-43.818V39.25h17.48a2.26 2.26 0 012.256 2.264V62.84H94.425zm-3.324-14.118V62.84H71.364V41.513a2.261 2.261 0 012.257-2.265h17.47zm13.175 35.966a2.219 2.219 0 01-2.204 2.214 2.185 2.185 0 01-1.641-.732l-3.35-3.695h4.955a2.218 2.218 0 012.24 2.196zm-15.822-2.213l-3.325 3.712a2.17 2.17 0 01-1.631.723 2.213 2.213 0 01-2.21-2.217c0-1.226.99-2.218 2.21-2.218zm20.552 2.204c0-3.85-3.11-6.97-6.943-6.97H83.489c-3.834.055-6.897 3.221-6.841 7.071.056 3.851 3.21 6.926 7.044 6.87a6.93 6.93 0 005.004-2.247l4.106-4.576 4.097 4.576a6.923 6.923 0 009.799.62 6.99 6.99 0 002.35-5.308zm8.505-16.383v4.06a2.262 2.262 0 01-2.256 2.267h-20.83V66.03h20.83a2.26 2.26 0 012.256 2.266M70.27 66.03a2.262 2.262 0 00-2.257 2.266v4.06a2.262 2.262 0 002.257 2.267H91.1V66.03z" fill="#fff"/></g></svg>