<?xml version="1.0" encoding="UTF-8"?> <svg xmlns="http://www.w3.org/2000/svg" viewBox="0 0 665.54 283.46"><defs><style>.cls-1{fill:#313638;}.cls-2{fill:#ff5541;}</style></defs><title>EVOLV_LINEAR_2C</title><g id="Layer_2" data-name="Layer 2"><g id="Layer_1-2" data-name="Layer 1"><path class="cls-1" d="M244.34,189V94.46h59.18v17.33H262.73v21.59h35.79v16.4H262.73v21.86h40.79V189Z"></path><path class="cls-1" d="M385.09,94.46h19.46L369.5,189H350.57l-34.92-94.5h20.13l24.65,70.25Z"></path><path class="cls-1" d="M455.34,92.46c25.72,0,48.65,18.79,48.65,49.32S481.06,191,455.34,191s-48.52-18.79-48.52-49.18S429.75,92.46,455.34,92.46Zm0,80.64c14.66,0,29.59-10.13,29.59-31.45S470,110.19,455.34,110.19s-29.46,10.13-29.46,31.46S440.81,173.1,455.34,173.1Z"></path><path class="cls-1" d="M519.59,189V94.46H538v76.91H580.1V189Z"></path><path class="cls-1" d="M646.08,94.46h19.46l-35,94.5H611.56l-34.92-94.5h20.12l24.66,70.25Z"></path><path class="cls-2" d="M62.36,185.2a5.67,5.67,0,1,0-5.67-5.67A5.81,5.81,0,0,0,62.36,185.2Z"></path><circle class="cls-2" cx="43.47" cy="66.14" r="5.67"></circle><circle class="cls-2" cx="43.47" cy="85.04" r="5.67"></circle><path class="cls-2" d="M24.57,109.61a5.67,5.67,0,0,0,0-11.34,5.67,5.67,0,0,0,0,11.34Z"></path><path class="cls-2" d="M62.36,223a5.67,5.67,0,1,0-5.67-5.66A5.8,5.8,0,0,0,62.36,223Z"></path><path class="cls-2" d="M62.36,204.1a5.67,5.67,0,1,0-5.67-5.67A5.81,5.81,0,0,0,62.36,204.1Z"></path><path class="cls-2" d="M43.47,109.61a5.67,5.67,0,1,0-5.67-5.67A5.81,5.81,0,0,0,43.47,109.61Z"></path><path class="cls-2" d="M43.47,223a5.67,5.67,0,1,0-5.67-5.66A5.8,5.8,0,0,0,43.47,223Z"></path><circle class="cls-2" cx="24.57" cy="122.84" r="5.67"></circle><circle class="cls-2" cx="43.47" cy="179.53" r="5.67"></circle><circle class="cls-2" cx="43.47" cy="236.22" r="5.67"></circle><circle class="cls-2" cx="43.47" cy="122.84" r="5.67"></circle><circle class="cls-2" cx="43.47" cy="198.43" r="5.67"></circle><path class="cls-2" d="M43.47,166.3a5.67,5.67,0,1,0-5.67-5.67A5.81,5.81,0,0,0,43.47,166.3Z"></path><circle class="cls-2" cx="24.57" cy="85.04" r="5.67"></circle><circle class="cls-2" cx="43.47" cy="141.73" r="5.67"></circle><path class="cls-2" d="M62.36,166.3a5.67,5.67,0,1,0-5.67-5.67A5.81,5.81,0,0,0,62.36,166.3Z"></path><circle class="cls-2" cx="24.57" cy="141.73" r="5.67"></circle><path class="cls-2" d="M81.26,147.4a5.67,5.67,0,1,0-5.67-5.67A5.81,5.81,0,0,0,81.26,147.4Z"></path><path class="cls-2" d="M81.26,166.3a5.67,5.67,0,1,0-5.67-5.67A5.82,5.82,0,0,0,81.26,166.3Z"></path><path class="cls-2" d="M81.26,90.71A5.67,5.67,0,1,0,75.59,85,5.82,5.82,0,0,0,81.26,90.71Z"></path><path class="cls-2" d="M81.26,71.81a5.67,5.67,0,1,0-5.67-5.67A5.81,5.81,0,0,0,81.26,71.81Z"></path><path class="cls-2" d="M81.26,185.2a5.67,5.67,0,1,0-5.67-5.67A5.82,5.82,0,0,0,81.26,185.2Z"></path><path class="cls-2" d="M81.26,34a5.82,5.82,0,0,0,5.67-5.67,5.67,5.67,0,1,0-11.34,0A5.82,5.82,0,0,0,81.26,34Z"></path><path class="cls-2" d="M81.26,52.91a5.67,5.67,0,1,0-5.67-5.67A5.81,5.81,0,0,0,81.26,52.91Z"></path><path class="cls-2" d="M81.26,109.61a5.67,5.67,0,1,0-5.67-5.67A5.82,5.82,0,0,0,81.26,109.61Z"></path><path class="cls-2" d="M62.36,128.51a5.67,5.67,0,1,0-5.67-5.67A5.81,5.81,0,0,0,62.36,128.51Z"></path><path class="cls-2" d="M62.36,147.4a5.67,5.67,0,1,0-5.67-5.67A5.81,5.81,0,0,0,62.36,147.4Z"></path><path class="cls-2" d="M81.26,204.1a5.67,5.67,0,1,0-5.67-5.67A5.82,5.82,0,0,0,81.26,204.1Z"></path><path class="cls-2" d="M62.36,109.61a5.67,5.67,0,1,0-5.67-5.67A5.81,5.81,0,0,0,62.36,109.61Z"></path><path class="cls-2" d="M62.36,90.71A5.67,5.67,0,1,0,56.69,85,5.81,5.81,0,0,0,62.36,90.71Z"></path><path class="cls-2" d="M62.36,52.91a5.67,5.67,0,1,0-5.67-5.67A5.81,5.81,0,0,0,62.36,52.91Z"></path><path class="cls-2" d="M62.36,71.81a5.67,5.67,0,1,0-5.67-5.67A5.81,5.81,0,0,0,62.36,71.81Z"></path><path class="cls-2" d="M81.26,128.51a5.67,5.67,0,1,0-5.67-5.67A5.82,5.82,0,0,0,81.26,128.51Z"></path><path class="cls-2" d="M119.06,132.28a9.45,9.45,0,1,0,0-18.89,9.45,9.45,0,1,0-9.45-9.45,9.46,9.46,0,0,0,9.45,9.45,9.45,9.45,0,0,0,0,18.89,9.45,9.45,0,0,0,0,18.9,9.45,9.45,0,1,0,9.46,9.45,9.45,9.45,0,0,0-9.46-9.45,9.45,9.45,0,1,0,0-18.9Z"></path><path class="cls-2" d="M156.85,18.9a9.45,9.45,0,1,0,9.45,9.45,9.45,9.45,0,0,0-9.45-9.45,9.45,9.45,0,1,0-9.46-9.45A9.45,9.45,0,0,0,156.86,18.9Z"></path><path class="cls-2" d="M138,113.39a9.45,9.45,0,1,0-9.45-9.45,9.45,9.45,0,0,0,9.45,9.45,9.45,9.45,0,0,0,0,18.89,9.45,9.45,0,1,0,9.45,9.45,9.46,9.46,0,0,0-9.45-9.45,9.45,9.45,0,0,0,0-18.89Z"></path><path class="cls-2" d="M100.16,151.18a9.45,9.45,0,0,0,0-18.9,9.45,9.45,0,1,0,0-18.89,9.45,9.45,0,0,0,0-18.9,9.45,9.45,0,0,0,0-18.9,9.45,9.45,0,0,0,0-18.9,9.45,9.45,0,1,0,0-18.89,9.45,9.45,0,1,0,0-18.9,9.45,9.45,0,1,0-9.45-9.45,9.45,9.45,0,0,0,9.45,9.45,9.45,9.45,0,0,0,0,18.9,9.45,9.45,0,0,0,0,18.89,9.45,9.45,0,0,0,0,18.9,9.45,9.45,0,0,0,0,18.9,9.45,9.45,0,0,0,0,18.9,9.45,9.45,0,0,0,0,18.89,9.45,9.45,0,0,0,0,18.9,9.45,9.45,0,0,0,0,18.9,9.45,9.45,0,0,0,0,18.9,9.45,9.45,0,0,0,0,18.89,9.45,9.45,0,0,0,0,18.9,9.45,9.45,0,0,0,0,18.9,9.45,9.45,0,0,0,0,18.9,9.45,9.45,0,1,0,9.45,9.45,9.45,9.45,0,0,0-9.45-9.45,9.45,9.45,0,0,0,0-18.9,9.45,9.45,0,1,0,0-18.9,9.45,9.45,0,0,0,0-18.9,9.45,9.45,0,1,0,0-18.89,9.45,9.45,0,1,0,0-18.9,9.45,9.45,0,0,0,0-18.9Z"></path><path class="cls-2" d="M138,18.9a9.45,9.45,0,0,0,0,18.9,9.45,9.45,0,1,0,9.45,9.44A9.44,9.44,0,0,0,138,37.8a9.45,9.45,0,0,0,0-18.9,9.45,9.45,0,1,0-9.45-9.45A9.44,9.44,0,0,0,138,18.9Z"></path><circle class="cls-2" cx="175.75" cy="9.45" r="9.45"></circle><circle class="cls-2" cx="175.75" cy="103.94" r="9.45"></circle><path class="cls-2" d="M166.3,103.94a9.45,9.45,0,1,0-9.45,9.45,9.45,9.45,0,1,0,9.45,9.44,9.45,9.45,0,0,0-9.45-9.44A9.45,9.45,0,0,0,166.3,103.94Z"></path><path class="cls-2" d="M43.47,264.57A9.45,9.45,0,1,0,34,255.12a9.45,9.45,0,0,0,9.45,9.45A9.45,9.45,0,1,0,52.91,274,9.44,9.44,0,0,0,43.46,264.57Z"></path><path class="cls-2" d="M62.37,264.57a9.45,9.45,0,0,0,0-18.9,9.45,9.45,0,1,0-9.46-9.45,9.45,9.45,0,0,0,9.46,9.45,9.45,9.45,0,0,0,0,18.9A9.45,9.45,0,1,0,71.81,274,9.45,9.45,0,0,0,62.36,264.57Z"></path><path class="cls-2" d="M24.57,166.3a5.67,5.67,0,0,0,0-11.34,5.67,5.67,0,1,0,0,11.34Z"></path><path class="cls-2" d="M119.05,18.9a9.45,9.45,0,0,0,0,18.9,9.45,9.45,0,0,0,0,18.89,9.45,9.45,0,1,0,9.46,9.45,9.45,9.45,0,0,0-9.46-9.45,9.45,9.45,0,1,0,0-18.89,9.45,9.45,0,0,0,0-18.9,9.45,9.45,0,1,0-9.45-9.45A9.45,9.45,0,0,0,119.06,18.9Z"></path><circle class="cls-2" cx="24.57" cy="274.02" r="9.45"></circle><path class="cls-2" d="M81.27,264.57a9.45,9.45,0,0,0,0-18.9,9.45,9.45,0,0,0,0-18.9h0a9.45,9.45,0,0,0,0,18.9,9.45,9.45,0,0,0,0,18.9A9.45,9.45,0,1,0,90.71,274,9.45,9.45,0,0,0,81.26,264.57Z"></path><path class="cls-2" d="M138,207.87a9.45,9.45,0,0,0,0,18.9,9.45,9.45,0,1,0,9.45,9.45,9.45,9.45,0,0,0-9.45-9.45,9.45,9.45,0,0,0,0-18.9,9.45,9.45,0,1,0-9.45-9.44A9.44,9.44,0,0,0,138,207.87Z"></path><path class="cls-2" d="M119.05,207.87a9.45,9.45,0,0,0,0,18.9,9.45,9.45,0,0,0,0,18.9,9.45,9.45,0,1,0,9.46,9.45,9.45,9.45,0,0,0-9.46-9.45,9.45,9.45,0,0,0,0-18.9,9.45,9.45,0,0,0,0-18.9,9.45,9.45,0,1,0-9.45-9.44A9.45,9.45,0,0,0,119.06,207.87Z"></path><path class="cls-2" d="M81.27,226.77a9.45,9.45,0,1,0-9.46-9.45,9.45,9.45,0,0,0,9.46,9.45h0Z"></path><path class="cls-2" d="M156.85,207.87a9.45,9.45,0,1,0,9.45,9.45,9.46,9.46,0,0,0-9.45-9.45,9.45,9.45,0,1,0-9.46-9.44A9.44,9.44,0,0,0,156.86,207.87Z"></path><circle class="cls-2" cx="24.57" cy="236.22" r="5.67"></circle><path class="cls-2" d="M5.67,268.35a5.67,5.67,0,0,0,0,11.34,5.67,5.67,0,1,0,0-11.34Z"></path><circle class="cls-2" cx="24.57" cy="255.12" r="5.67"></circle><circle class="cls-2" cx="5.67" cy="255.12" r="5.67"></circle><circle class="cls-2" cx="5.67" cy="236.22" r="5.67"></circle><circle class="cls-2" cx="24.57" cy="179.53" r="5.67"></circle><circle class="cls-2" cx="175.75" cy="198.43" r="9.45"></circle><path class="cls-2" d="M24.57,223a5.67,5.67,0,1,0,0-11.33,5.67,5.67,0,1,0,0,11.33Z"></path><circle class="cls-2" cx="24.57" cy="198.43" r="5.67"></circle><circle class="cls-2" cx="5.67" cy="122.84" r="5.67"></circle><circle class="cls-2" cx="5.67" cy="141.73" r="5.67"></circle><path class="cls-2" d="M5.67,98.27a5.67,5.67,0,0,0,0,11.34,5.67,5.67,0,0,0,0-11.34Z"></path><circle class="cls-2" cx="5.67" cy="198.43" r="5.67"></circle><path class="cls-2" d="M5.67,211.66a5.67,5.67,0,1,0,0,11.33,5.67,5.67,0,1,0,0-11.33Z"></path><circle class="cls-2" cx="5.67" cy="179.53" r="5.67"></circle><path class="cls-2" d="M5.67,155a5.67,5.67,0,1,0,0,11.34,5.67,5.67,0,0,0,0-11.34Z"></path></g></g></svg> 