<svg xmlns="http://www.w3.org/2000/svg" width="205.333" height="205.333" viewBox="0 0 205.333 205.333"><defs><clipPath clipPathUnits="userSpaceOnUse" id="a"><path d="M0 154h154V0H0z"/></clipPath></defs><g clip-path="url(#a)" transform="matrix(1.33333 0 0 -1.33333 0 205.333)"><path d="M77 0C34.474 0 0 34.474 0 77s34.474 77 77 77 77-34.474 77-77S119.526 0 77 0" fill="#9cd5db"/><path d="M43.053 95.636c1.451 4.158-1.133 5.947-1.405 8.257-.272 2.31-.272 5.832 1.722 5.832.862-.116.862-.924.862-1.04-.046-.173-.408-1.905-.453-2.252-.136-1.04.136-1.847.181-1.905.544-1.56 1.224-2.483 1.632-4.446 1.043-5.196-3.082-6.12-2.539-4.446m6.393-1.097c1.813 4.85-1.225 6.87-1.588 9.643-.362 2.714-.317 6.813 1.995 6.813.998-.115.998-1.097.998-1.212-.046-.174-.454-2.252-.545-2.6-.135-1.212.182-2.193.182-2.251.635-1.79 1.451-2.887 1.904-5.196 1.224-6.063-3.58-7.102-2.946-5.197m6.663 1.097c1.496 4.158-1.088 5.947-1.405 8.257-.272 2.31-.272 5.832 1.723 5.832.861-.116.861-.924.861-1.04-.046-.173-.408-1.905-.454-2.252-.135-1.04.136-1.847.182-1.905.544-1.56 1.224-2.483 1.632-4.446 1.043-5.196-3.082-6.12-2.539-4.446M31.864 68.264v10.284h-.242c-3.957 0-7.268-3.19-7.268-7.176.081-3.906 3.311-7.094 7.268-7.094h.242zM66.7 48.022H36.786c-2.754 0-4.84 2.139-4.84 3.898v5.98h-.243c-7.59 0-13.809 6.138-13.809 13.632s6.138 13.553 13.728 13.553h.242v3.747c0 .717 1.047 1.697 1.774 1.697h34.634c.727 0 3.15-.857 3.15-1.574V52.744c0-1.585-1.838-4.722-4.723-4.722m59.885 29.706c0 .878-.725 1.594-1.616 1.594h-3.619V61.29h3.62c.89 0 1.615.717 1.615 1.597zm-13.937 21.255c-3.927 1.369-5.719 3.308-7.104 4.96-2.76 3.294-5.797 5.558-10.744 6.16-.766.094-1.537.139-2.3.139-7.19 0-13.979-4.093-14.156-11.781-.03-1.28.176-2.518.494-3.7.022-.088.192-.654.366-1.067.746-1.703 2.402-2.838 4.401-2.838h15.764c1.51 0 2.733-1.208 2.733-2.7v-9.484c0-1.681 1.38-3.043 3.08-3.043 1.704 0 3.081 1.362 3.081 3.043v6.841c0 1.763 1.45 3.192 3.235 3.192h4.514a3.327 3.327 0 013.22 2.462c.055.336.103.539.116.887.004.106.006.349.006.457 0 2.478-1.312 4.593-6.706 6.472M80.761 57.76c0-3.363 2.761-6.088 6.166-6.088h24.56c3.404 0 6.166 2.725 6.166 6.088v27.51a7.091 7.091 0 00-1.642-.215h-1.13v-21.82c0-1.848-1.522-3.351-3.393-3.351h-24.56c-1.872 0-3.394 1.502-3.394 3.35v23.977a8.755 8.755 0 00-2.773.479zm44.207-2.623h-3.993c-1.162-4.1-4.97-7.116-9.487-7.116h-24.56c-5.437 0-9.86 4.368-9.86 9.738v32.457a8.49 8.49 0 00-1.257 2.026l-.01.027-.013.028a14.878 14.878 0 00-.525 1.529c-.45 1.677-.649 3.219-.615 4.717.232 10.076 9.155 15.348 17.852 15.348.915 0 1.841-.056 2.752-.166 6.8-.827 10.593-4.418 13.14-7.454 1.251-1.496 2.531-2.818 5.486-3.847 3.938-1.372 9.172-3.892 9.172-9.914 0-.136-.002-.443-.008-.596-.02-.515-.084-.877-.134-1.167l-.028-.163-.028-.176-.046-.17a6.9 6.9 0 00-1.457-2.72v-2.042h3.62c4.328 0 7.848-3.476 7.85-7.75v-14.84c0-4.273-3.522-7.748-7.85-7.748" fill="#fff" fill-rule="evenodd"/></g></svg>