<svg xmlns="http://www.w3.org/2000/svg" width="205.333" height="205.333" viewBox="0 0 205.333 205.333"><defs><clipPath clipPathUnits="userSpaceOnUse" id="a"><path d="M0 154h154V0H0z"/></clipPath></defs><g clip-path="url(#a)" transform="matrix(1.33333 0 0 -1.33333 0 205.333)"><path d="M77 0C34.474 0 0 34.474 0 77s34.474 77 77 77 77-34.474 77-77S119.526 0 77 0" fill="#91d79b"/><path d="M131.102 80.35c-.56.455-4.889 3.058-5.905 6.178-.239.744-.102 8.736-6.542 14.498-.327.293-2.008 1.268-1.233 2.392.778 1.122.216 4.273-5.03 4.524-.9.043-20.999 4.275-30.968-9.204-.49-.662-3.462-4.256-4.092-8.71-.34 2.772-.87 4.843-1.274 5.563-10.816 19.348-38.817 11.632-40.713 10.804-7.413-3.234-9.115-8.056-8.202-9.033.912-.976 1.823-2.81 1.702-3.54-.123-.732-.669-1.953-.913-3.174-.243-1.22-1.579-4.82-1.76-6.47-.185-1.647 1.577-1.586 1.822-3.052.242-1.465-4.91-7.048-5.347-7.753-1.398-2.256 1.336-3.173 2.195-3.724.857-.552.54-2.015.175-2.685-.365-.672-.122-1.466.364-1.831.488-.364.791-.733.472-1.161-.317-.427-.229-1.463.501-1.952.728-.49.826-1.678.243-2.382-1.215-1.463-.656-3.002-.302-4.21.726-2.505 8.566-3.541 10.753-4.09 1.864-.467 3.417-3.635 3.95-5.43 0 0 8.038-6.967 16.36-6.967 8.934 0 18.196 6.967 18.196 6.967-.408.909-1.396 3.3-1.925 5.372-.608 2.38-3.767 1.342-4.678 1.342-.912 0-.85 1.463-1.216 2.442-.363.976-.729.672-.97 2.503-.244 1.83 4.603 8.269 5.77 9.582.408.457.779.943 1.13 1.447.041-1.592.515-3.691 1.147-3.961.809-.343 1.088-.028 1.212-.901.123-.876.404-1.873 1.242-1.28.84.592 1.118 1.685 1.677.406.562-1.28.219-4.213 1.117-5.025.9-.81 2.732-.216 3.23-1.122.497-.905 2.547-2.495 2.547-4.18 0-1.012-.123-3.87-.476-6.622 0 0 5.55-6.417 11.8-6.973 13.07-1.161 12.962 6.973 12.962 6.973.486 1.239.965 2.33 1.25 2.72.68.937 2.36 5.805 2.667 7.053.31 1.25 1.617 3.247 3.293 3.372 1.679.127 8.452.144 9.215.122.766-.018 4.328.69 3.17 4.726-.085.29-.703 2.89.145 3.286.846.395 1.325 1.622.289 2.807-.28.32-1.324-.063-.477.604.848.668 1.533 1.975.643 2.829-.892.854-1.139 1.56-.376 2.268.763.7 3.433 2.8 1.16 4.653" fill="#fff"/></g></svg>