<svg xmlns="http://www.w3.org/2000/svg" width="205.333" height="205.333" viewBox="0 0 205.333 205.333"><defs><clipPath clipPathUnits="userSpaceOnUse" id="a"><path d="M0 154h154V0H0z"/></clipPath></defs><g clip-path="url(#a)" transform="matrix(1.33333 0 0 -1.33333 0 205.333)"><path d="M77 0C34.474 0 0 34.474 0 77s34.474 77 77 77 77-34.474 77-77S119.526 0 77 0" fill="#9cd5db"/><path d="M111.866 85.248c-.57-.446-2.156-4.653-2.156-4.653l-.513.251s-1.362 2.564-1.249 3.956c.115 1.392.967 3.957.967 3.957s.341 1.059.737.725c.398-.335 2.215-2.619 2.215-2.619s.566-1.171 0-1.617M81.443 76.39l-.229-1.172-2.866 7.671 3.322 2.937h.68l.738-.761zm53.347 20.951s-2.384 3.065-5.902 4.013c0 0-.45 1.449.4 2.172.85.724 3.121 4.767-2.61 7.009 0 0-7.493.849-4.656-5.279 0 0 .796-1.728-.225-2.229-1.022-.501-4.37-.893-7.323-4.403-2.95-3.511-2.498-4.849-2.498-4.849s-2.61 4.235-7.603 4.235l-.287 1.393s2.554-.726 2.953 2.173c.396 2.898-1.534 2.173-1.534 2.173s1.986 4.96-4.482 4.96c0 0-4.314-.669-3.575-5.128.737-4.458 1.873-4.401 1.873-4.401l.284-1.114s-1.93.056-2.327-.279c0 0-1.645 2.786-6.242 4.068 0 0 4.368 7.245-3.067 9.306 0 0-4.88.056-4.937-2.843-.058-2.897 1.533-6.519 1.533-6.519s-4.314-1.004-5.336-2.898c-1.02-1.895-.795-3.343-.795-3.343l-1.865.223s2.83 3.734 1.297 7.411c-1.532 3.68-5.334 4.181-8.23 2.675 0 0-5.05-2.061-3.518-5.906 0 0 .455-1.671 1.051-2.62 0 0-2.015-.111-2.47-.725 0 0-2.1 5.294-7.548 6.355 0 0 5.335 7.745-3.292 9.027 0 0-5.222-.614-5.109-3.456 0 0 .17-3.12 1.021-4.679l.114-1.003s-2.497.724-4.88-1.505l-.568-2.285s-2.156 2.452-5.959 2.285c0 0 .623 3.344.623 3.845 0 .501.851.725.851.725s-1.248 5.574-7.122 4.543c0 0-2.058.432-3.306-.85-1.248-1.282-1.058-4.465-1.058-5.356 0-.892 1.706-1.508 2.221-1.397.514.111.975-.671.975-.671l.23-.39s-4.937-.335-6.129-2.342c-1.192-2.006-2.27-7.3-2.838-8.192-.567-.891-6.414-11.034-6.414-11.034s.398-1.447.966-1.671c0 0-.964-1.392-1.304-1.782-.34-.39-.17-2.398 0-2.676s.907 0 .907 0-.34 1.281.51 2.062c.852.779.455.389.455.389l.17-1.003.51-.39s0 1.061.226 1.618c.227.555.17 1.112.17 1.112l1.31-.507s4.2 7.414 4.597 8.306c.398.891 1.985 5.963 2.555 5.85.566-.111.34-1.393.34-1.393s.284-4.57-1.588-7.133c-1.873-2.564-3.86-7.914-3.86-8.582 0 0 .908-1.212 4.994-2.661l.112-5.888h-.397s-.998-1.409-.715-3.526l.308-.575V51.2l.234-2.284s-1.418-1.284-1.36-2.064c.056-.778 1.051-2.06 1.732-2.563.681-.5 3.361-.78 3.702-.444 0 0 .803 2.674.52 4.402l-.738.61s.987 10.255 1.27 11.983l.986.669v3.734l-.442.223s1.111 5.239 1.395 5.46c.284.223.5-.391.5-.391s-.49-10.142.02-10.924c.511-.777.978-1.335.978-1.335l.401.168 1.364-10.255s.116-4.905-.28-5.404c-.398-.501-.367-.892.298-1.225.667-.336 4.3-.336 4.47 0 .17.334.68 1.67.452 2.451-.227.781-.68 4.847-2.27 5.071 0 0 1.022 9.195 1.135 9.584l.851.391s-.398 2.839-.51 3.12c-.113.278.454 8.303.454 8.303l2.611.894s-1.136 2.617-1.136 3.842c0 1.226-.34 8.527-2.95 12.206l.084 2.228 2.298 1.422s2.641-3.177 5.024-3.678c0 0-1.957-10.28-1.787-13.123.17-2.843 1.787-10.199 1.787-10.199s1.107-1.671 1.021-2.425c-.084-.752-.595-4.43 2.896-8.023 0 0-1.79-4.433-2.299-5.1-.51-.668-2.64-3.763-1.874-5.015 0 0 .426-.753 2.98-.835 0 0-.85-1.172.426-2.257 1.277-1.09 4.821-.649 4.821-.649s.287 2.235 1.735 2.987c1.448.751 2.384 1.336 1.873 2.507-.51 1.17-1.617 2.508-1.617 2.508s-2.214 3.678-2.043 6.856c.17 3.177.766 7.69.851 10.699l3.405.751s3.747.251 3.832 1.588c.085 1.34-.256 11.454-2.979 17.973 0 0 3.32.92 3.66 1.421 0 0 1.446-5.601.425-9.029 0 0-1.19-2.59-.936-5.597.255-3.012 3.122-14.796 3.122-14.796l.877.084s1.363-8.364 2.47-10.034c0 0-.085-1.169-1.192-2.256-1.107-1.089-.85-2.424-.85-2.424s.17-1.255.17-1.672c0-.42.426-2.675 4.002-2.592 0 0 2.553 3.009 2.893 3.426.342.42.257 2.091 0 2.343-.253.249-1.02 1.254-1.02 1.254s-.68.752-.595 2.339c.085 1.586 1.02 4.681 1.107 10.365 0 0 5.108 1.922 7.83 3.345 0 0 1.532-7.523 1.62-8.276.081-.753 1.701-.585 1.701-.585s2.81-7.272 3.15-8.862c.341-1.587 0-2.509 0-2.509s-2.555-.083-2.555-1.587c0-1.505 2.64-3.26 7.151-2.257 0 0 1.788.836 1.107 3.927-.68 3.094-2.042 11.787-1.107 13.461l1.705-.335.765 3.093 1.023.167s-.343-7.442 3.235-12.538l.645-2.797s-1.158.873-2.348-.046c-1.192-.92-1.875-4.765 3.917-4.598 0 0 2.724 0 2.98.836.255.835-.596 1.925-.596 1.925l-.087.584s1.492.081 1.895.165c.403.083.575 2.008.575 2.008l-.768 2.674s-.764 1.088-.594 2.59c.17 1.509 1.532 4.932-.254 10.534 0 0-1.109 1.839 0 3.679 1.103 1.84 2.127 4.596 3.573 7.02 0 0 .17-.668 1.45-.919 0 0-.854 3.345 0 3.178 0 0-.03-.752.653-.921 0 0-.17.721 0 1.867.171 1.144 0 3.764 0 3.764l2.325 4.624s-1.474-8.08-1.077-8.692l1.077-.114s-1.637-12.982.915-16.662c2.552-3.676 4.493-9.193 4.493-10.361v-9.365s4.361-.334 5.21 1.842c.855 2.173.482 2.34 1.501 3.676 1.022 1.338 2.964 2.675 2.964 2.675s-2.86 3.01-2.688 6.521c.17 3.51 2.06 15.548 4.442 18.391 2.384 2.843 1.01 6.519 1.01 6.519l1.523.334V68.92s-.746-3.177.614-4.344c1.363-1.172 1.756 1.168 1.756 1.168s-.912 3.178-.058 3.848c.85.668 1.162 2.006 1.162 2.006s1.498 15.712-2.076 25.743" fill="#fff"/></g></svg>