<?xml version="1.0" encoding="UTF-8"?> <!-- Generator: Adobe Illustrator 24.0.1, SVG Export Plug-In . SVG Version: 6.00 Build 0) --> <svg xmlns="http://www.w3.org/2000/svg" xmlns:xlink="http://www.w3.org/1999/xlink" id="E-Government" x="0px" y="0px" viewBox="0 0 175.9 177.8" style="enable-background:new 0 0 175.9 177.8;" xml:space="preserve"> <g> <path d="M154.2,132V56c0-5.2-4.2-9.3-9.3-9.3H96.4h-7.5h-64c-5.2,0-9.3,4.2-9.3,9.3v76l-11,0v8.5c0,5.2,4.2,9.3,9.3,9.3h75.1h4.4 h62.6c5.2,0,9.3-4.2,9.3-9.3V132l-1.9,0C163.4,132,160,132,154.2,132z M19.3,56c0-3.1,2.5-5.6,5.6-5.6h64h7.5h48.5 c3.1,0,5.6,2.5,5.6,5.6v76c-1.8,0-3.8,0-5.9,0V55.5h-47h-6.6H25.2V132l-5.9,0V56z M91.4,135.7c4.5,0,9,0,13.4,0 c-0.2,1.2-1.2,2.2-2.5,2.2H66.5c-1.3,0-2.3-0.9-2.4-2.2L91.4,135.7z M93.3,131.9L93.3,131.9l-2,0c-0.8,0-1.6,0-2.4,0v0L29,132V59.2 h61.9h6.6h43.3V132C127.9,132,110.9,132,93.3,131.9z M161.5,140.5c0,3.1-2.5,5.6-5.6,5.6H93.3h-4.4H13.9c-3.1,0-5.6-2.5-5.6-5.6 v-4.8l52,0c0.2,3.3,2.9,5.9,6.2,5.9h35.9c3.3,0,6.1-2.6,6.2-5.9c25.1,0,46.6,0,52.9,0V140.5z"></path> <path d="M54.8,70.2c0,0.7,0.6,1.3,1.3,1.3h5.3c0.7,0,1.3-0.6,1.3-1.3s-0.6-1.3-1.3-1.3h-5.3C55.4,68.8,54.8,69.4,54.8,70.2z"></path> <path d="M63.6,64.3h5.3c0.7,0,1.3-0.6,1.3-1.3s-0.6-1.3-1.3-1.3h-5.3c-0.7,0-1.3,0.6-1.3,1.3S62.9,64.3,63.6,64.3z"></path> <path d="M53,64.3h5.3c0.7,0,1.3-0.6,1.3-1.3s-0.6-1.3-1.3-1.3H53c-0.7,0-1.3,0.6-1.3,1.3S52.2,64.3,53,64.3z"></path> <path d="M65.4,70.2c0,0.7,0.6,1.3,1.3,1.3h5.3c0.7,0,1.3-0.6,1.3-1.3s-0.6-1.3-1.3-1.3h-5.3C66,68.8,65.4,69.4,65.4,70.2z"></path> <path d="M74.2,64.3h5.3c0.7,0,1.3-0.6,1.3-1.3s-0.6-1.3-1.3-1.3h-5.3c-0.7,0-1.3,0.6-1.3,1.3S73.5,64.3,74.2,64.3z"></path> <path d="M44.2,70.2c0,0.7,0.6,1.3,1.3,1.3h5.3c0.7,0,1.3-0.6,1.3-1.3s-0.6-1.3-1.3-1.3h-5.3C44.7,68.8,44.2,69.4,44.2,70.2z"></path> <path d="M76,70.2c0,0.7,0.6,1.3,1.3,1.3h5.3c0.7,0,1.3-0.6,1.3-1.3s-0.6-1.3-1.3-1.3h-5.3C76.6,68.8,76,69.4,76,70.2z"></path> <path d="M33.5,70.2c0,0.7,0.6,1.3,1.3,1.3h5.3c0.7,0,1.3-0.6,1.3-1.3s-0.6-1.3-1.3-1.3h-5.3C34.1,68.8,33.5,69.4,33.5,70.2z"></path> <path d="M42.3,64.3h5.3c0.7,0,1.3-0.6,1.3-1.3s-0.6-1.3-1.3-1.3h-5.3c-0.7,0-1.3,0.6-1.3,1.3S41.6,64.3,42.3,64.3z"></path> <path d="M34.2,66.8c0.7,0,1.3-0.6,1.3-1.3v-1.2H37c0.7,0,1.3-0.6,1.3-1.3s-0.6-1.3-1.3-1.3h-2.8c-0.7,0-1.3,0.6-1.3,1.3v2.5 C32.9,66.2,33.5,66.8,34.2,66.8z"></path> <path d="M107.9,70.2c0,0.7,0.6,1.3,1.3,1.3h5.3c0.7,0,1.3-0.6,1.3-1.3s-0.6-1.3-1.3-1.3h-5.3C108.5,68.8,107.9,69.4,107.9,70.2z"></path> <path d="M116.8,64.3h5.3c0.7,0,1.3-0.6,1.3-1.3s-0.6-1.3-1.3-1.3h-5.3c-0.7,0-1.3,0.6-1.3,1.3S116,64.3,116.8,64.3z"></path> <path d="M118.6,70.2c0,0.7,0.6,1.3,1.3,1.3h5.3c0.7,0,1.3-0.6,1.3-1.3s-0.6-1.3-1.3-1.3h-5.3C119.2,68.8,118.6,69.4,118.6,70.2z"></path> <path d="M127.4,64.3h5.3c0.7,0,1.3-0.6,1.3-1.3s-0.6-1.3-1.3-1.3h-5.3c-0.7,0-1.3,0.6-1.3,1.3S126.7,64.3,127.4,64.3z"></path> <path d="M129.2,70.2c0,0.7,0.6,1.3,1.3,1.3h5.3c0.7,0,1.3-0.6,1.3-1.3v-5c0-0.7-0.6-1.3-1.3-1.3c-0.7,0-1.3,0.6-1.3,1.3v3.7h-4 C129.8,68.8,129.2,69.4,129.2,70.2z"></path> <path d="M95.5,64.3h5.3c0.7,0,1.3-0.6,1.3-1.3s-0.6-1.3-1.3-1.3h-5.3c-0.7,0-1.3,0.6-1.3,1.3S94.8,64.3,95.5,64.3z"></path> <path d="M106.1,64.3h5.3c0.7,0,1.3-0.6,1.3-1.3s-0.6-1.3-1.3-1.3h-5.3c-0.7,0-1.3,0.6-1.3,1.3S105.4,64.3,106.1,64.3z"></path> <path d="M84.9,64.3h5.3c0.7,0,1.3-0.6,1.3-1.3s-0.6-1.3-1.3-1.3h-5.3c-0.7,0-1.3,0.6-1.3,1.3S84.1,64.3,84.9,64.3z"></path> <path d="M86.7,70.2c0,0.7,0.6,1.3,1.3,1.3h5.3c0.7,0,1.3-0.6,1.3-1.3s-0.6-1.3-1.3-1.3H88C87.3,68.8,86.7,69.4,86.7,70.2z"></path> <path d="M97.3,70.2c0,0.7,0.6,1.3,1.3,1.3h5.3c0.7,0,1.3-0.6,1.3-1.3s-0.6-1.3-1.3-1.3h-5.3C97.9,68.8,97.3,69.4,97.3,70.2z"></path> <path d="M32.9,100.6v5.3c0,0.7,0.6,1.3,1.3,1.3s1.3-0.6,1.3-1.3v-5.3c0-0.7-0.6-1.3-1.3-1.3S32.9,99.9,32.9,100.6z"></path> <path d="M40.2,97.2c0.7,0,1.3-0.6,1.3-1.3s-0.6-1.3-1.3-1.3h-5.3c-0.7,0-1.3,0.6-1.3,1.3s0.6,1.3,1.3,1.3H40.2z"></path> <path d="M35.6,121.9c0-0.7-0.6-1.3-1.3-1.3s-1.3,0.6-1.3,1.3v5.3c0,0.7,0.6,1.3,1.4,1.3c0.7,0,1.3-0.6,1.3-1.3c0-0.1,0-0.1,0-0.2 V121.9z"></path> <path d="M119.3,125.8H114c-0.7,0-1.3,0.6-1.3,1.3s0.6,1.3,1.3,1.3h5.3c0.7,0,1.3-0.6,1.3-1.3S120,125.8,119.3,125.8z"></path> <path d="M114.6,97.2c0.7,0,1.3-0.6,1.3-1.3s-0.6-1.3-1.3-1.3h-5.3c-0.7,0-1.3,0.6-1.3,1.3s0.6,1.3,1.3,1.3H114.6z"></path> <path d="M125.2,97.2c0.7,0,1.3-0.6,1.3-1.3s-0.6-1.3-1.3-1.3h-5.3c-0.7,0-1.3,0.6-1.3,1.3s0.6,1.3,1.3,1.3H125.2z"></path> <path d="M108.7,125.8h-5.3c-0.7,0-1.3,0.6-1.3,1.3s0.6,1.3,1.3,1.3h5.3c0.7,0,1.3-0.6,1.3-1.3S109.4,125.8,108.7,125.8z"></path> <path d="M98,125.8h-5.3c-0.7,0-1.3,0.6-1.3,1.3s0.6,1.3,1.3,1.3H98c0.7,0,1.3-0.6,1.3-1.3S98.8,125.8,98,125.8z"></path> <path d="M104,97.2c0.7,0,1.3-0.6,1.3-1.3s-0.6-1.3-1.3-1.3h-5.3c-0.7,0-1.3,0.6-1.3,1.3s0.6,1.3,1.3,1.3H104z"></path> <path d="M135.8,94.6h-5.3c-0.7,0-1.3,0.6-1.3,1.3s0.6,1.3,1.3,1.3h5.3c0.7,0,1.3-0.6,1.3-1.3S136.6,94.6,135.8,94.6z"></path> <path d="M135.8,99.9c-0.7,0-1.3,0.6-1.3,1.3v5.3c0,0.7,0.6,1.3,1.3,1.3c0.7,0,1.3-0.6,1.3-1.3v-5.3 C137.2,100.4,136.6,99.9,135.8,99.9z"></path> <path d="M135.8,121.1c-0.7,0-1.3,0.6-1.3,1.3v3.6c-0.4,0.2-0.6,0.6-0.6,1.1c0,0.7,0.6,1.3,1.3,1.3h0.6c0.7,0,1.3-0.6,1.3-1.3v-4.7 C137.2,121.7,136.6,121.1,135.8,121.1z"></path> <path d="M135.8,110.5c-0.7,0-1.3,0.6-1.3,1.3v5.3c0,0.7,0.6,1.3,1.3,1.3c0.7,0,1.3-0.6,1.3-1.3v-5.3 C137.2,111.1,136.6,110.5,135.8,110.5z"></path> <path d="M129.9,125.8h-5.3c-0.7,0-1.3,0.6-1.3,1.3s0.6,1.3,1.3,1.3h5.3c0.7,0,1.3-0.6,1.3-1.3S130.7,125.8,129.9,125.8z"></path> <path d="M87.4,125.8h-5.3c-0.7,0-1.3,0.6-1.3,1.3s0.6,1.3,1.3,1.3h5.3c0.7,0,1.3-0.6,1.3-1.3S88.1,125.8,87.4,125.8z"></path> <path d="M94.6,95.9c0-0.7-0.6-1.3-1.3-1.3H88c-0.7,0-1.3,0.6-1.3,1.3s0.6,1.3,1.3,1.3h5.3C94.1,97.2,94.6,96.6,94.6,95.9z"></path> <path d="M66.1,125.8h-5.3c-0.7,0-1.3,0.6-1.3,1.3s0.6,1.3,1.3,1.3h5.3c0.7,0,1.3-0.6,1.3-1.3S66.9,125.8,66.1,125.8z"></path> <path d="M61.4,97.2c0.7,0,1.3-0.6,1.3-1.3s-0.6-1.3-1.3-1.3h-5.3c-0.7,0-1.3,0.6-1.3,1.3s0.6,1.3,1.3,1.3H61.4z"></path> <path d="M44.9,125.8h-5.3c-0.7,0-1.3,0.6-1.3,1.3s0.6,1.3,1.3,1.3h5.3c0.7,0,1.3-0.6,1.3-1.3S45.6,125.8,44.9,125.8z"></path> <path d="M50.8,97.2c0.7,0,1.3-0.6,1.3-1.3s-0.6-1.3-1.3-1.3h-5.3c-0.7,0-1.3,0.6-1.3,1.3s0.6,1.3,1.3,1.3H50.8z"></path> <path d="M55.5,125.8h-5.3c-0.7,0-1.3,0.6-1.3,1.3s0.6,1.3,1.3,1.3h5.3c0.7,0,1.3-0.6,1.3-1.3S56.3,125.8,55.5,125.8z"></path> <path d="M72.1,97.2c0.7,0,1.3-0.6,1.3-1.3s-0.6-1.3-1.3-1.3h-5.3c-0.7,0-1.3,0.6-1.3,1.3s0.6,1.3,1.3,1.3H72.1z"></path> <path d="M32.9,116.6c0,0.7,0.6,1.3,1.3,1.3s1.3-0.6,1.3-1.3v-5.3c0-0.7-0.6-1.3-1.3-1.3s-1.3,0.6-1.3,1.3V116.6z"></path> <path d="M82.7,97.2c0.7,0,1.3-0.6,1.3-1.3s-0.6-1.3-1.3-1.3h-5.3c-0.7,0-1.3,0.6-1.3,1.3s0.6,1.3,1.3,1.3H82.7z"></path> <path d="M76.8,125.8h-5.3c-0.7,0-1.3,0.6-1.3,1.3s0.6,1.3,1.3,1.3h5.3c0.7,0,1.3-0.6,1.3-1.3S77.5,125.8,76.8,125.8z"></path> <path d="M135.8,76.2H34.2c-1,0-1.9,0.8-1.9,1.9V87c0,1,0.8,1.9,1.9,1.9h101.6c1,0,1.9-0.8,1.9-1.9v-8.9 C137.7,77.1,136.9,76.2,135.8,76.2z M134,85.1H36.1V80H134V85.1z"></path> <polygon points="123.1,103.7 120,105.8 122.7,109.9 105.3,109.9 105.3,113.6 122.2,113.6 120,116.9 123.1,119 128.3,111.4 "></polygon> <path d="M149.9,43.3c0.3,0.1,0.5,0.2,0.8,0.2c0.7,0,1.4-0.4,1.7-1.1l4.7-9.8c0.4-0.9,0.1-2.1-0.9-2.5c-0.9-0.4-2.1-0.1-2.5,0.9 l-4.7,9.8C148.5,41.7,148.9,42.8,149.9,43.3z"></path> <path d="M170.4,53.5l-11.1-0.1c0,0,0,0,0,0c-1,0-1.9,0.8-1.9,1.9c0,1,0.8,1.9,1.9,1.9l11.1,0.1c0,0,0,0,0,0c1,0,1.9-0.8,1.9-1.9 C172.3,54.3,171.4,53.5,170.4,53.5z"></path> <path d="M155.6,48.7c0.4,0.6,1,0.9,1.6,0.9c0.3,0,0.7-0.1,1-0.3l9-5.7c0.9-0.6,1.1-1.7,0.6-2.6c-0.5-0.9-1.7-1.1-2.6-0.6l-9,5.7 C155.3,46.7,155,47.8,155.6,48.7z"></path> </g> </svg> 