<?xml version="1.0" encoding="UTF-8"?> <!-- Generator: Adobe Illustrator 25.0.0, SVG Export Plug-In . SVG Version: 6.00 Build 0) --> <svg xmlns="http://www.w3.org/2000/svg" xmlns:xlink="http://www.w3.org/1999/xlink" id="Layer_1" x="0px" y="0px" viewBox="0 0 67 57" style="enable-background:new 0 0 67 57;" xml:space="preserve"> <style type="text/css"> .st0{fill:#232020;} </style> <g> <path d="M23.3,57.2H6.7c-3.3,0-5.9-2.7-5.9-5.9v-45c0-3.3,2.7-5.9,5.9-5.9h16.6c3.3,0,5.9,2.7,5.9,5.9v45 C29.2,54.5,26.6,57.2,23.3,57.2z M6.7,1.9c-2.4,0-4.4,2-4.4,4.4v45c0,2.4,2,4.4,4.4,4.4h16.6c2.4,0,4.4-2,4.4-4.4v-45 c0-2.4-2-4.4-4.4-4.4H6.7z"></path> <path d="M28.1,49.5H1.8c-0.4,0-0.8-0.3-0.8-0.8C1,48.3,1.3,48,1.8,48h26.4c0.4,0,0.8,0.3,0.8,0.8C28.9,49.2,28.6,49.5,28.1,49.5z"></path> <path d="M28.2,6H2.2C1.8,6,1.4,5.6,1.4,5.2c0-0.4,0.3-0.8,0.8-0.8h25.9c0.4,0,0.8,0.3,0.8,0.8C28.9,5.6,28.6,6,28.2,6z"></path> <path d="M25.4,46.3h-3.1c-0.3,0-0.5-0.2-0.5-0.5c0-0.3,0.2-0.5,0.5-0.5h3.1c0.3,0,0.5,0.2,0.5,0.5C25.9,46,25.7,46.3,25.4,46.3z M19.2,46.3H16c-0.3,0-0.5-0.2-0.5-0.5c0-0.3,0.2-0.5,0.5-0.5h3.1c0.3,0,0.5,0.2,0.5,0.5C19.7,46,19.5,46.3,19.2,46.3z M12.9,46.3 H9.8c-0.3,0-0.5-0.2-0.5-0.5c0-0.3,0.2-0.5,0.5-0.5h3.1c0.3,0,0.5,0.2,0.5,0.5C13.5,46,13.2,46.3,12.9,46.3z M6.7,46.3H4.4v-1.9 c0-0.3,0.2-0.5,0.5-0.5c0.3,0,0.5,0.2,0.5,0.5v0.8h1.2c0.3,0,0.5,0.2,0.5,0.5C7.3,46,7,46.3,6.7,46.3z M25.4,45.1 c-0.3,0-0.5-0.2-0.5-0.5v-3.1c0-0.3,0.2-0.5,0.5-0.5c0.3,0,0.5,0.2,0.5,0.5v3.1C25.9,44.9,25.7,45.1,25.4,45.1z M5,41.8 c-0.3,0-0.5-0.2-0.5-0.5v-3.1c0-0.3,0.2-0.5,0.5-0.5c0.3,0,0.5,0.2,0.5,0.5v3.1C5.5,41.5,5.3,41.8,5,41.8z M25.4,38.9 c-0.3,0-0.5-0.2-0.5-0.5v-3.1c0-0.3,0.2-0.5,0.5-0.5c0.3,0,0.5,0.2,0.5,0.5v3.1C25.9,38.7,25.7,38.9,25.4,38.9z M5,35.5 c-0.3,0-0.5-0.2-0.5-0.5v-3.1c0-0.3,0.2-0.5,0.5-0.5c0.3,0,0.5,0.2,0.5,0.5V35C5.5,35.3,5.3,35.5,5,35.5z M25.4,32.7 c-0.3,0-0.5-0.2-0.5-0.5V29c0-0.3,0.2-0.5,0.5-0.5c0.3,0,0.5,0.2,0.5,0.5v3.1C25.9,32.4,25.7,32.7,25.4,32.7z M5,29.3 c-0.3,0-0.5-0.2-0.5-0.5v-3.1c0-0.3,0.2-0.5,0.5-0.5c0.3,0,0.5,0.2,0.5,0.5v3.1C5.5,29.1,5.3,29.3,5,29.3z M25.4,26.4 c-0.3,0-0.5-0.2-0.5-0.5v-3.1c0-0.3,0.2-0.5,0.5-0.5c0.3,0,0.5,0.2,0.5,0.5v3.1C25.9,26.2,25.7,26.4,25.4,26.4z M5,23.1 c-0.3,0-0.5-0.2-0.5-0.5v-3.1c0-0.3,0.2-0.5,0.5-0.5c0.3,0,0.5,0.2,0.5,0.5v3.1C5.5,22.9,5.3,23.1,5,23.1z M25.4,20.2 c-0.3,0-0.5-0.2-0.5-0.5v-3.1c0-0.3,0.2-0.5,0.5-0.5c0.3,0,0.5,0.2,0.5,0.5v3.1C25.9,20,25.7,20.2,25.4,20.2z M5,16.9 c-0.3,0-0.5-0.2-0.5-0.5v-3.1c0-0.3,0.2-0.5,0.5-0.5c0.3,0,0.5,0.2,0.5,0.5v3.1C5.5,16.6,5.3,16.9,5,16.9z M25.4,14 c-0.3,0-0.5-0.2-0.5-0.5v-3.1c0-0.3,0.2-0.5,0.5-0.5c0.3,0,0.5,0.2,0.5,0.5v3.1C25.9,13.8,25.7,14,25.4,14z M5,10.7 c-0.3,0-0.5-0.2-0.5-0.5V7.4H6c0.3,0,0.5,0.2,0.5,0.5c0,0.3-0.2,0.5-0.5,0.5H5.5v1.6C5.5,10.4,5.3,10.7,5,10.7z M24.6,8.5h-3.1 C21.2,8.5,21,8.3,21,8c0-0.3,0.2-0.5,0.5-0.5h3.1c0.3,0,0.5,0.2,0.5,0.5C25.2,8.3,24.9,8.5,24.6,8.5z M18.4,8.5h-3.1 c-0.3,0-0.5-0.2-0.5-0.5c0-0.3,0.2-0.5,0.5-0.5h3.1C18.7,7.4,19,7.7,19,8C19,8.3,18.7,8.5,18.4,8.5z M12.2,8.5H9.1 C8.8,8.5,8.5,8.3,8.5,8c0-0.3,0.2-0.5,0.5-0.5h3.1c0.3,0,0.5,0.2,0.5,0.5C12.7,8.3,12.5,8.5,12.2,8.5z"></path> <path d="M16.3,54.8h-2.6c-1.2,0-2.1-1-2.1-2.1c0-1.2,1-2.1,2.1-2.1h2.6c1.2,0,2.1,1,2.1,2.1C18.5,53.8,17.5,54.8,16.3,54.8z M13.7,51.6c-0.6,0-1.1,0.5-1.1,1.1c0,0.6,0.5,1.1,1.1,1.1h2.6c0.6,0,1.1-0.5,1.1-1.1c0-0.6-0.5-1.1-1.1-1.1H13.7z"></path> </g> <g id="Layer_1_3_"> <path d="M54.2,55.1c-0.6,0-1.2-0.1-1.7-0.4L38.7,47c-1.3,0.9-5.5,3.5-6.5,4c-0.4,0.2-0.8,0-1-0.3c-0.2-0.4,0-0.9,0.3-1 c0.9-0.4,5.2-3.2,6.7-4.2c0.2-0.2,0.5-0.2,0.8,0l14.3,7.9c0.6,0.3,1.3,0.3,1.8,0c0.3-0.2,0.4-0.5,0.4-1C55.3,50.6,53,35.9,53,35.7 c0-0.3,0.1-0.5,0.2-0.7L65.1,24c0.4-0.4,0.6-1.1,0.4-1.7c-0.1-0.3-0.3-0.7-1-0.8c-1.2-0.2-16.1-2.7-16.2-2.7 c-0.3,0-0.5-0.2-0.6-0.4L40.9,3.5c-0.2-0.4-0.8-0.6-1.2-0.6c-0.6,0-1.2,0.2-1.3,0.5c-0.5,0.9-3.9,8.7-5.6,12.6 c-0.2,0.4-0.6,0.6-1,0.4c-0.4-0.2-0.6-0.6-0.4-1c0.2-0.5,5-11.5,5.6-12.8c0.4-0.8,1.5-1.4,2.7-1.3c1.2,0,2.2,0.6,2.6,1.5L49,17.3 c2.4,0.4,14.7,2.5,15.8,2.7c1.1,0.2,1.9,0.9,2.2,1.9c0.3,1.1,0,2.4-0.9,3.2L54.6,35.9c0.4,2.4,2.2,14.6,2.4,16.3 c0.1,1-0.3,1.9-1.1,2.4C55.5,54.9,54.8,55.1,54.2,55.1z"></path> </g> <g id="Layer_1_2_"> <path d="M51.7,49.5c-0.3,0-0.5-0.2-0.6-0.5c-0.1-0.3,0.1-0.7,0.4-0.8c0.2-0.1,0.6-0.2,0.6-0.7c0-0.3-0.1-0.7-0.1-1.1 c0-0.3,0.2-0.7,0.5-0.7c0.3-0.1,0.7,0.2,0.7,0.5c0.1,0.5,0.1,0.8,0.1,1c0,0.1,0,0.2,0,0.3c0,0.9-0.6,1.7-1.6,2 C51.8,49.5,51.7,49.5,51.7,49.5z M48.8,48.5c-0.1,0-0.2,0-0.3-0.1l-2.7-1.5c-0.3-0.2-0.4-0.5-0.2-0.8c0.2-0.3,0.5-0.4,0.8-0.2 l2.7,1.5c0.3,0.2,0.4,0.5,0.2,0.8C49.3,48.4,49,48.5,48.8,48.5z M35.4,45.5c-0.2,0-0.4-0.1-0.5-0.3c-0.2-0.3-0.1-0.7,0.2-0.9 c0.8-0.5,1.9-1.2,2.6-1.7c0.3-0.2,0.7-0.1,0.9,0.2c0.2,0.3,0.1,0.7-0.2,0.9c-0.8,0.5-1.8,1.2-2.6,1.7 C35.6,45.5,35.5,45.5,35.4,45.5z M43.4,45.5c-0.1,0-0.2,0-0.3-0.1l-2.7-1.5c-0.3-0.2-0.4-0.5-0.2-0.8c0.2-0.3,0.5-0.4,0.8-0.2 l2.7,1.5c0.3,0.2,0.4,0.5,0.2,0.8C43.8,45.3,43.6,45.5,43.4,45.5z M52.2,43.8c-0.3,0-0.6-0.2-0.6-0.5l-0.5-3.1 c-0.1-0.3,0.2-0.7,0.5-0.7c0.3-0.1,0.7,0.2,0.7,0.5l0.5,3.1C52.9,43.5,52.6,43.8,52.2,43.8C52.2,43.8,52.2,43.8,52.2,43.8z M51.3,37.7c-0.3,0-0.6-0.2-0.6-0.5l-0.4-2.8c0-0.2,0.1-0.5,0.3-0.6c0.2-0.2,0.7-0.3,0.9,0c0.2,0.2,0.3,0.6,0,0.8l0.4,2.5 C51.9,37.3,51.7,37.6,51.3,37.7C51.3,37.7,51.3,37.7,51.3,37.7z M53.3,32.5c-0.2,0-0.3-0.1-0.5-0.2c-0.2-0.2-0.2-0.6,0-0.9l2.3-2.1 c0.2-0.2,0.6-0.2,0.9,0c0.2,0.2,0.2,0.6,0,0.9l-2.3,2.1C53.7,32.5,53.5,32.5,53.3,32.5z M57.9,28.2c-0.2,0-0.3-0.1-0.5-0.2 c-0.2-0.2-0.2-0.6,0-0.9l2.2-2.1c0.2-0.2,0.7-0.3,0.9,0c0.2,0.2,0.3,0.6,0.1,0.8c0,0-0.1,0.1-0.1,0.1l-2.2,2.1 C58.2,28.2,58,28.2,57.9,28.2z M59.9,23.4c-0.1,0-0.2,0-0.3-0.1c-0.1-0.1-0.2-0.1-0.3-0.1c-0.2,0-1.2-0.2-2.5-0.4 c-0.3-0.1-0.6-0.4-0.5-0.7c0.1-0.3,0.4-0.6,0.7-0.5c1.3,0.2,2.3,0.4,2.5,0.4c0.3,0.1,0.5,0.1,0.7,0.3c0.3,0.2,0.4,0.6,0.2,0.9 C60.3,23.3,60.1,23.4,59.9,23.4z M53.8,22.2c0,0-0.1,0-0.1,0l-3.1-0.5c-0.3-0.1-0.6-0.4-0.5-0.7c0.1-0.3,0.4-0.6,0.7-0.5l3.1,0.5 c0.3,0.1,0.6,0.4,0.5,0.7C54.3,22,54,22.2,53.8,22.2z M47.6,21.2c0,0-0.1,0-0.1,0L46.7,21c-0.3-0.1-0.3-0.1-1.1-1.8l-0.3-0.7 c-0.1-0.3,0-0.7,0.3-0.8c0.3-0.1,0.7,0,0.8,0.3l0.3,0.7c0.2,0.5,0.4,0.9,0.5,1.1l0.5,0.1c0.3,0.1,0.6,0.4,0.5,0.7 C48.2,20.9,47.9,21.2,47.6,21.2z M34,19.3c-0.1,0-0.2,0-0.2-0.1c-0.3-0.1-0.5-0.5-0.3-0.8l1.2-2.9c0.1-0.3,0.5-0.5,0.8-0.3 c0.3,0.1,0.5,0.5,0.3,0.8l-1.2,2.9C34.5,19.2,34.3,19.3,34,19.3z M44.5,16.1c-0.2,0-0.5-0.1-0.6-0.4l-1.3-2.8 c-0.1-0.3,0-0.7,0.3-0.8c0.3-0.1,0.7,0,0.8,0.3l1.3,2.8c0.1,0.3,0,0.7-0.3,0.8C44.7,16.1,44.6,16.1,44.5,16.1z M36.5,13.6 c-0.1,0-0.2,0-0.2-0.1c-0.3-0.1-0.5-0.5-0.3-0.8c0.5-1.1,0.9-2.1,1.3-2.9c0.1-0.3,0.5-0.5,0.8-0.3c0.3,0.1,0.5,0.5,0.3,0.8 c-0.3,0.8-0.8,1.8-1.2,2.9C37,13.4,36.7,13.6,36.5,13.6z M41.9,10.4c-0.2,0-0.5-0.1-0.6-0.4l-0.5-1c-0.2-0.3-0.6-0.5-1-0.5 c-0.3,0-0.7-0.3-0.7-0.6c0-0.3,0.2-0.6,0.5-0.6c0,0,0.2,0,0.2,0c1,0,1.8,0.5,2.1,1.2l0.5,1c0.1,0.3,0,0.7-0.3,0.8 C42.1,10.4,42,10.4,41.9,10.4z"></path> </g> <path class="st0" d="M39.7,33.8c-2.2,0-4-1.8-4-4c0-2.2,1.8-4,4-4s4,1.8,4,4C43.7,32,42,33.8,39.7,33.8z M39.7,27.3 c-1.4,0-2.5,1.1-2.5,2.4c0,1.3,1.1,2.4,2.5,2.4s2.5-1.1,2.5-2.4C42.2,28.4,41.1,27.3,39.7,27.3z"></path> <path class="st0" d="M35.9,30.5h-2.3c-0.3,0-0.6-0.3-0.6-0.8c0-0.4,0.3-0.8,0.6-0.8h2.3c0.3,0,0.6,0.3,0.6,0.8 C36.5,30.2,36.2,30.5,35.9,30.5 M31.3,30.5H29c-0.3,0-0.6-0.3-0.6-0.8c0-0.4,0.3-0.8,0.6-0.8h2.3c0.3,0,0.6,0.3,0.6,0.8 C31.9,30.2,31.6,30.5,31.3,30.5"></path> </svg> 