<?xml version="1.0" encoding="UTF-8"?> <!-- Generator: Adobe Illustrator 24.0.1, SVG Export Plug-In . SVG Version: 6.00 Build 0) --> <svg xmlns="http://www.w3.org/2000/svg" xmlns:xlink="http://www.w3.org/1999/xlink" id="E-Government" x="0px" y="0px" viewBox="0 0 175.9 177.8" style="enable-background:new 0 0 175.9 177.8;" xml:space="preserve"> <style type="text/css"> .st0{fill:none;} </style> <g> <path class="st0" d="M65.1,132.3c0.2,1.2,1.1,2.1,2.4,2.1H102c1.2,0,2.2-0.9,2.4-2.1c-4.2,0-8.5,0-12.9,0L65.1,132.3z"></path> <path class="st0" d="M139.1,58.6H97.4H91H31.3v70.1l57.7,0v0c0.8,0,1.5,0,2.3,0l1.9,0v0c16.9,0,33.3,0,45.7,0V58.6z M118.9,61.7 h5.1c0.7,0,1.3,0.6,1.3,1.3s-0.6,1.3-1.3,1.3h-5.1c-0.7,0-1.3-0.6-1.3-1.3S118.2,61.7,118.9,61.7z M108.7,61.7h5.1 c0.7,0,1.3,0.6,1.3,1.3s-0.6,1.3-1.3,1.3h-5.1c-0.7,0-1.3-0.6-1.3-1.3S108,61.7,108.7,61.7z M98.4,61.7h5.1c0.7,0,1.3,0.6,1.3,1.3 s-0.6,1.3-1.3,1.3h-5.1c-0.7,0-1.3-0.6-1.3-1.3S97.7,61.7,98.4,61.7z M96.8,102l14.2-7.1v-0.1l-14.2-7.1v-2.5l16.7,8.6v2l-16.7,8.6 V102z M78,61.7h5.1c0.7,0,1.3,0.6,1.3,1.3s-0.6,1.3-1.3,1.3H78c-0.7,0-1.3-0.6-1.3-1.3S77.3,61.7,78,61.7z M67.7,61.7h5.1 c0.7,0,1.3,0.6,1.3,1.3s-0.6,1.3-1.3,1.3h-5.1c-0.7,0-1.3-0.6-1.3-1.3S67,61.7,67.7,61.7z M57.5,61.7h5.1c0.7,0,1.3,0.6,1.3,1.3 s-0.6,1.3-1.3,1.3h-5.1c-0.7,0-1.3-0.6-1.3-1.3S56.8,61.7,57.5,61.7z M55.8,93.9l16.7-8.6v2.5l-14.1,7.1v0.1l14.1,7.1v2.5 l-16.7-8.6V93.9z M47.2,61.7h5.1c0.7,0,1.3,0.6,1.3,1.3s-0.6,1.3-1.3,1.3h-5.1c-0.7,0-1.3-0.6-1.3-1.3S46.5,61.7,47.2,61.7z M37,61.7h5.1c0.7,0,1.3,0.6,1.3,1.3s-0.6,1.3-1.3,1.3H37c-0.7,0-1.3-0.6-1.3-1.3S36.3,61.7,37,61.7z M36.4,105.9 c-0.7,0-1.3-0.6-1.3-1.3v-5.1c0-0.7,0.6-1.3,1.3-1.3c0.7,0,1.3,0.6,1.3,1.3v5.1C37.7,105.3,37.1,105.9,36.4,105.9z M37.7,109.7v5.1 c0,0.7-0.6,1.3-1.3,1.3c-0.7,0-1.3-0.6-1.3-1.3v-5.1c0-0.7,0.6-1.3,1.3-1.3C37.1,108.4,37.7,109,37.7,109.7z M35.1,67.6 c0-0.7,0.6-1.3,1.3-1.3s1.3,0.6,1.3,1.3c0,0.1,0,0.1,0,0.2v4.9c0,0.7-0.6,1.3-1.3,1.3s-1.3-0.6-1.3-1.3V67.6z M35.1,77.2 c0-0.7,0.6-1.3,1.3-1.3s1.3,0.6,1.3,1.3v5.1c0,0.7-0.6,1.3-1.3,1.3s-1.3-0.6-1.3-1.3V77.2z M35.1,87.4c0-0.7,0.6-1.3,1.3-1.3 s1.3,0.6,1.3,1.3v5.1c0,0.7-0.6,1.3-1.3,1.3s-1.3-0.6-1.3-1.3V87.4z M36.4,126.3c-0.7,0-1.3-0.6-1.3-1.3v-5.1 c0-0.7,0.6-1.3,1.3-1.3c0.7,0,1.3,0.6,1.3,1.3v4.9c0,0.1,0,0.1,0,0.2C37.7,125.7,37.1,126.3,36.4,126.3z M46.7,126.3h-5.1 c-0.7,0-1.3-0.6-1.3-1.3s0.6-1.3,1.3-1.3h5.1c0.7,0,1.3,0.6,1.3,1.3S47.4,126.3,46.7,126.3z M56.9,126.3h-5.1 c-0.7,0-1.3-0.6-1.3-1.3s0.6-1.3,1.3-1.3h5.1c0.7,0,1.3,0.6,1.3,1.3S57.6,126.3,56.9,126.3z M67.1,126.3H62c-0.7,0-1.3-0.6-1.3-1.3 s0.6-1.3,1.3-1.3h5.1c0.7,0,1.3,0.6,1.3,1.3S67.9,126.3,67.1,126.3z M77.4,126.3h-5.1c-0.7,0-1.3-0.6-1.3-1.3s0.6-1.3,1.3-1.3h5.1 c0.7,0,1.3,0.6,1.3,1.3S78.1,126.3,77.4,126.3z M87.6,126.3h-5.1c-0.7,0-1.3-0.6-1.3-1.3s0.6-1.3,1.3-1.3h5.1 c0.7,0,1.3,0.6,1.3,1.3S88.3,126.3,87.6,126.3z M80.9,105.9h-2.4l10-26.1H91L80.9,105.9z M88.2,64.2c-0.7,0-1.3-0.6-1.3-1.3 s0.6-1.3,1.3-1.3h5.1c0.7,0,1.3,0.6,1.3,1.3s-0.6,1.3-1.3,1.3H88.2z M97.9,126.3h-5.1c-0.7,0-1.3-0.6-1.3-1.3s0.6-1.3,1.3-1.3h5.1 c0.7,0,1.3,0.6,1.3,1.3S98.6,126.3,97.9,126.3z M108.1,126.3H103c-0.7,0-1.3-0.6-1.3-1.3s0.6-1.3,1.3-1.3h5.1 c0.7,0,1.3,0.6,1.3,1.3S108.8,126.3,108.1,126.3z M118.4,126.3h-5.1c-0.7,0-1.3-0.6-1.3-1.3s0.6-1.3,1.3-1.3h5.1 c0.7,0,1.3,0.6,1.3,1.3S119.1,126.3,118.4,126.3z M128.6,126.3h-5.1c-0.7,0-1.3-0.6-1.3-1.3s0.6-1.3,1.3-1.3h5.1 c0.7,0,1.3,0.6,1.3,1.3S129.3,126.3,128.6,126.3z M134.3,84.1c-0.7,0-1.3-0.6-1.3-1.3v-5.1c0-0.7,0.6-1.3,1.3-1.3s1.3,0.6,1.3,1.3 v5.1C135.5,83.5,135,84.1,134.3,84.1z M135.5,87.9v5.1c0,0.7-0.6,1.3-1.3,1.3s-1.3-0.6-1.3-1.3v-5.1c0-0.7,0.6-1.3,1.3-1.3 S135.5,87.2,135.5,87.9z M134.3,73.4c-0.7,0-1.3-0.6-1.3-1.3v-3.5c-0.3-0.2-0.6-0.6-0.6-1.1c0-0.7,0.6-1.3,1.3-1.3h0.6 c0.7,0,1.3,0.6,1.3,1.3v4.5C135.5,72.8,135,73.4,134.3,73.4z M135.6,125c0,0.7-0.6,1.3-1.3,1.3h-0.6c-0.7,0-1.3-0.6-1.3-1.3 c0-0.4,0.2-0.8,0.6-1.1v-3.5c0-0.7,0.6-1.3,1.3-1.3s1.3,0.6,1.3,1.3V125z M135.6,115.4c0,0.7-0.6,1.3-1.3,1.3s-1.3-0.6-1.3-1.3 v-5.1c0-0.7,0.6-1.3,1.3-1.3s1.3,0.6,1.3,1.3V115.4z M135.6,105.1c0,0.7-0.6,1.3-1.3,1.3s-1.3-0.6-1.3-1.3V100 c0-0.7,0.6-1.3,1.3-1.3s1.3,0.6,1.3,1.3V105.1z M134.3,64.2h-5.1c-0.7,0-1.3-0.6-1.3-1.3s0.6-1.3,1.3-1.3h5.1 c0.7,0,1.3,0.6,1.3,1.3S135,64.2,134.3,64.2z"></path> <path class="st0" d="M27.7,55H91h6.4h45.3v73.7c2.1,0,4,0,5.7,0V55.5c0-3-2.4-5.4-5.4-5.4H96.3h-7.3H27.4c-3,0-5.4,2.4-5.4,5.4 v73.2l5.7,0V55z"></path> <path class="st0" d="M102,138H67.4c-3.2,0-5.8-2.5-6-5.7l-50.1,0v4.6c0,3,2.4,5.4,5.4,5.4h72.3h4.3h60.3c3,0,5.4-2.4,5.4-5.4v-4.6 c-6.1,0-26.8,0-51,0C107.9,135.4,105.2,138,102,138z"></path> <path d="M152,128.7V55.5c0-5-4-9-9-9H96.3h-7.3H27.4c-5,0-9,4-9,9v73.2l-10.6,0v8.2c0,5,4,9,9,9h72.3h4.3h60.3c5,0,9-4,9-9v-8.2 l-1.8,0C160.8,128.7,157.6,128.7,152,128.7z M22,55.5c0-3,2.4-5.4,5.4-5.4h61.7h7.3H143c3,0,5.4,2.4,5.4,5.4v73.2 c-1.8,0-3.7,0-5.7,0V55H97.4H91H27.7v73.7l-5.7,0V55.5z M93.3,128.6L93.3,128.6l-1.9,0c-0.8,0-1.5,0-2.3,0v0l-57.7,0V58.6H91h6.4 h41.7v70.1C126.7,128.7,110.3,128.7,93.3,128.6z M104.4,132.3c-0.2,1.2-1.1,2.1-2.4,2.1H67.4c-1.2,0-2.2-0.9-2.4-2.1l26.4,0 C95.8,132.3,100.2,132.3,104.4,132.3z M159,136.9c0,3-2.4,5.4-5.4,5.4H93.3h-4.3H16.8c-3,0-5.4-2.4-5.4-5.4v-4.6l50.1,0 c0.2,3.2,2.8,5.7,6,5.7H102c3.2,0,5.8-2.5,6-5.7c24.1,0,44.9,0,51,0V136.9z"></path> <path d="M147.8,43.2c0.3,0.1,0.5,0.2,0.8,0.2c0.7,0,1.3-0.4,1.6-1l4.5-9.5c0.4-0.9,0-2-0.9-2.4c-0.9-0.4-2-0.1-2.4,0.8l-4.5,9.5 C146.5,41.7,146.9,42.8,147.8,43.2z"></path> <path d="M167.6,53.1L156.9,53c0,0,0,0,0,0c-1,0-1.8,0.8-1.8,1.8c0,1,0.8,1.8,1.8,1.8l10.7,0.1c0,0,0,0,0,0c1,0,1.8-0.8,1.8-1.8 C169.4,53.9,168.6,53.1,167.6,53.1z"></path> <path d="M153.3,48.5c0.3,0.5,0.9,0.8,1.5,0.8c0.3,0,0.7-0.1,1-0.3l8.7-5.5c0.8-0.5,1.1-1.6,0.6-2.5c-0.5-0.8-1.6-1.1-2.5-0.6 l-8.7,5.5C153,46.5,152.8,47.6,153.3,48.5z"></path> <path d="M37.7,99.5c0-0.7-0.6-1.3-1.3-1.3c-0.7,0-1.3,0.6-1.3,1.3v5.1c0,0.7,0.6,1.3,1.3,1.3c0.7,0,1.3-0.6,1.3-1.3V99.5z"></path> <path d="M37,64.2h5.1c0.7,0,1.3-0.6,1.3-1.3s-0.6-1.3-1.3-1.3H37c-0.7,0-1.3,0.6-1.3,1.3S36.3,64.2,37,64.2z"></path> <path d="M37.7,119.9c0-0.7-0.6-1.3-1.3-1.3c-0.7,0-1.3,0.6-1.3,1.3v5.1c0,0.7,0.6,1.3,1.3,1.3s1.3-0.6,1.3-1.3c0-0.1,0-0.1,0-0.2 V119.9z"></path> <path d="M118.4,123.8h-5.1c-0.7,0-1.3,0.6-1.3,1.3s0.6,1.3,1.3,1.3h5.1c0.7,0,1.3-0.6,1.3-1.3S119.1,123.8,118.4,123.8z"></path> <path d="M108.7,64.2h5.1c0.7,0,1.3-0.6,1.3-1.3s-0.6-1.3-1.3-1.3h-5.1c-0.7,0-1.3,0.6-1.3,1.3S108,64.2,108.7,64.2z"></path> <path d="M118.9,64.2h5.1c0.7,0,1.3-0.6,1.3-1.3s-0.6-1.3-1.3-1.3h-5.1c-0.7,0-1.3,0.6-1.3,1.3S118.2,64.2,118.9,64.2z"></path> <path d="M108.1,123.8H103c-0.7,0-1.3,0.6-1.3,1.3s0.6,1.3,1.3,1.3h5.1c0.7,0,1.3-0.6,1.3-1.3S108.8,123.8,108.1,123.8z"></path> <path d="M97.9,123.8h-5.1c-0.7,0-1.3,0.6-1.3,1.3s0.6,1.3,1.3,1.3h5.1c0.7,0,1.3-0.6,1.3-1.3S98.6,123.8,97.9,123.8z"></path> <path d="M98.4,64.2h5.1c0.7,0,1.3-0.6,1.3-1.3s-0.6-1.3-1.3-1.3h-5.1c-0.7,0-1.3,0.6-1.3,1.3S97.7,64.2,98.4,64.2z"></path> <path d="M134.3,61.7h-5.1c-0.7,0-1.3,0.6-1.3,1.3s0.6,1.3,1.3,1.3h5.1c0.7,0,1.3-0.6,1.3-1.3S135,61.7,134.3,61.7z"></path> <path d="M134.3,98.7c-0.7,0-1.3,0.6-1.3,1.3v5.1c0,0.7,0.6,1.3,1.3,1.3s1.3-0.6,1.3-1.3V100C135.6,99.3,135,98.7,134.3,98.7z"></path> <path d="M134.3,119.2c-0.7,0-1.3,0.6-1.3,1.3v3.5c-0.3,0.2-0.6,0.6-0.6,1.1c0,0.7,0.6,1.3,1.3,1.3h0.6c0.7,0,1.3-0.6,1.3-1.3v-4.5 C135.6,119.8,135,119.2,134.3,119.2z"></path> <path d="M134.3,109c-0.7,0-1.3,0.6-1.3,1.3v5.1c0,0.7,0.6,1.3,1.3,1.3s1.3-0.6,1.3-1.3v-5.1C135.6,109.5,135,109,134.3,109z"></path> <path d="M128.6,123.8h-5.1c-0.7,0-1.3,0.6-1.3,1.3s0.6,1.3,1.3,1.3h5.1c0.7,0,1.3-0.6,1.3-1.3S129.3,123.8,128.6,123.8z"></path> <path d="M87.6,123.8h-5.1c-0.7,0-1.3,0.6-1.3,1.3s0.6,1.3,1.3,1.3h5.1c0.7,0,1.3-0.6,1.3-1.3S88.3,123.8,87.6,123.8z"></path> <path d="M94.6,62.9c0-0.7-0.6-1.3-1.3-1.3h-5.1c-0.7,0-1.3,0.6-1.3,1.3s0.6,1.3,1.3,1.3h5.1C94,64.2,94.6,63.6,94.6,62.9z"></path> <path d="M67.1,123.8H62c-0.7,0-1.3,0.6-1.3,1.3s0.6,1.3,1.3,1.3h5.1c0.7,0,1.3-0.6,1.3-1.3S67.9,123.8,67.1,123.8z"></path> <path d="M57.5,64.2h5.1c0.7,0,1.3-0.6,1.3-1.3s-0.6-1.3-1.3-1.3h-5.1c-0.7,0-1.3,0.6-1.3,1.3S56.8,64.2,57.5,64.2z"></path> <path d="M46.7,123.8h-5.1c-0.7,0-1.3,0.6-1.3,1.3s0.6,1.3,1.3,1.3h5.1c0.7,0,1.3-0.6,1.3-1.3S47.4,123.8,46.7,123.8z"></path> <path d="M47.2,64.2h5.1c0.7,0,1.3-0.6,1.3-1.3s-0.6-1.3-1.3-1.3h-5.1c-0.7,0-1.3,0.6-1.3,1.3S46.5,64.2,47.2,64.2z"></path> <path d="M56.9,123.8h-5.1c-0.7,0-1.3,0.6-1.3,1.3s0.6,1.3,1.3,1.3h5.1c0.7,0,1.3-0.6,1.3-1.3S57.6,123.8,56.9,123.8z"></path> <path d="M67.7,64.2h5.1c0.7,0,1.3-0.6,1.3-1.3s-0.6-1.3-1.3-1.3h-5.1c-0.7,0-1.3,0.6-1.3,1.3S67,64.2,67.7,64.2z"></path> <path d="M36.4,108.4c-0.7,0-1.3,0.6-1.3,1.3v5.1c0,0.7,0.6,1.3,1.3,1.3c0.7,0,1.3-0.6,1.3-1.3v-5.1C37.7,109,37.1,108.4,36.4,108.4 z"></path> <path d="M78,64.2h5.1c0.7,0,1.3-0.6,1.3-1.3s-0.6-1.3-1.3-1.3H78c-0.7,0-1.3,0.6-1.3,1.3S77.3,64.2,78,64.2z"></path> <path d="M77.4,123.8h-5.1c-0.7,0-1.3,0.6-1.3,1.3s0.6,1.3,1.3,1.3h5.1c0.7,0,1.3-0.6,1.3-1.3S78.1,123.8,77.4,123.8z"></path> <path d="M36.4,83.6c0.7,0,1.3-0.6,1.3-1.3v-5.1c0-0.7-0.6-1.3-1.3-1.3s-1.3,0.6-1.3,1.3v5.1C35.1,83,35.7,83.6,36.4,83.6z"></path> <path d="M135.5,77.7c0-0.7-0.6-1.3-1.3-1.3S133,77,133,77.7v5.1c0,0.7,0.6,1.3,1.3,1.3s1.3-0.6,1.3-1.3V77.7z"></path> <path d="M134.3,86.7c-0.7,0-1.3,0.6-1.3,1.3v5.1c0,0.7,0.6,1.3,1.3,1.3s1.3-0.6,1.3-1.3v-5.1C135.5,87.2,135,86.7,134.3,86.7z"></path> <path d="M36.4,93.8c0.7,0,1.3-0.6,1.3-1.3v-5.1c0-0.7-0.6-1.3-1.3-1.3s-1.3,0.6-1.3,1.3v5.1C35.1,93.2,35.7,93.8,36.4,93.8z"></path> <path d="M36.4,73.9c0.7,0,1.3-0.6,1.3-1.3v-4.9c0-0.1,0-0.1,0-0.2c0-0.7-0.6-1.3-1.3-1.3s-1.3,0.6-1.3,1.3v5.1 C35.1,73.4,35.7,73.9,36.4,73.9z"></path> <path d="M135.5,67.6c0-0.7-0.6-1.3-1.3-1.3h-0.6c-0.7,0-1.3,0.6-1.3,1.3c0,0.4,0.2,0.8,0.6,1.1v3.5c0,0.7,0.6,1.3,1.3,1.3 s1.3-0.6,1.3-1.3V67.6z"></path> <polygon points="72.5,102 58.5,94.9 58.5,94.8 72.5,87.8 72.5,85.3 55.8,93.9 55.8,95.8 72.5,104.4 "></polygon> <polygon points="78.5,105.9 80.9,105.9 91,79.8 88.5,79.8 "></polygon> <polygon points="113.5,93.9 96.8,85.3 96.8,87.8 111,94.8 111,94.9 96.8,102 96.8,104.4 113.5,95.9 "></polygon> </g> </svg> 