<?xml version="1.0" encoding="UTF-8"?> <!-- Generator: Adobe Illustrator 25.0.0, SVG Export Plug-In . SVG Version: 6.00 Build 0) --> <svg xmlns="http://www.w3.org/2000/svg" xmlns:xlink="http://www.w3.org/1999/xlink" id="Layer_1" x="0px" y="0px" viewBox="0 0 61 75" style="enable-background:new 0 0 61 75;" xml:space="preserve"> <path d="M54.8,75.4H5.4c-3.3,0-5.9-2.7-5.9-5.9V6c0-3.3,2.7-5.9,5.9-5.9h49.4c3.3,0,5.9,2.7,5.9,5.9v63.5 C60.7,72.8,58,75.4,54.8,75.4z M5.4,1.7C3,1.7,1.1,3.6,1.1,6v63.5c0,2.4,2,4.4,4.4,4.4h49.4c2.4,0,4.4-2,4.4-4.4V6 c0-2.4-2-4.4-4.4-4.4H5.4z"></path> <path d="M59.9,65.2H0.3c-0.4,0-0.8-0.3-0.8-0.8c0-0.4,0.3-0.8,0.8-0.8h59.6c0.4,0,0.8,0.3,0.8,0.8C60.7,64.9,60.3,65.2,59.9,65.2z"></path> <path d="M58.9,7H1.3C0.9,7,0.5,6.7,0.5,6.3s0.3-0.8,0.8-0.8h57.6c0.4,0,0.8,0.3,0.8,0.8S59.3,7,58.9,7z"></path> <path d="M55.8,61.3h-3.1c-0.4,0-0.8-0.3-0.8-0.8c0-0.4,0.3-0.8,0.8-0.8h2.5C55,59.6,55,59.5,55,59.3v-3.1c0-0.4,0.3-0.8,0.8-0.8 s0.8,0.3,0.8,0.8v3.1c0,0.2-0.1,0.5-0.3,0.6c0.2,0.1,0.3,0.4,0.3,0.6C56.5,61,56.2,61.3,55.8,61.3z M49.5,61.3h-3.1 c-0.4,0-0.8-0.3-0.8-0.8c0-0.4,0.3-0.8,0.8-0.8h3.1c0.4,0,0.8,0.3,0.8,0.8C50.3,61,50,61.3,49.5,61.3z M43.3,61.3h-3.1 c-0.4,0-0.8-0.3-0.8-0.8c0-0.4,0.3-0.8,0.8-0.8h3.1c0.4,0,0.8,0.3,0.8,0.8C44.1,61,43.8,61.3,43.3,61.3z M37.1,61.3H34 c-0.4,0-0.8-0.3-0.8-0.8c0-0.4,0.3-0.8,0.8-0.8h3.1c0.4,0,0.8,0.3,0.8,0.8C37.9,61,37.5,61.3,37.1,61.3z M30.9,61.3h-3.1 c-0.4,0-0.8-0.3-0.8-0.8c0-0.4,0.3-0.8,0.8-0.8h3.1c0.4,0,0.8,0.3,0.8,0.8C31.7,61,31.3,61.3,30.9,61.3z M24.7,61.3h-3.1 c-0.4,0-0.8-0.3-0.8-0.8c0-0.4,0.3-0.8,0.8-0.8h3.1c0.4,0,0.8,0.3,0.8,0.8C25.4,61,25.1,61.3,24.7,61.3z M18.4,61.3h-3.1 c-0.4,0-0.8-0.3-0.8-0.8c0-0.4,0.3-0.8,0.8-0.8h3.1c0.4,0,0.8,0.3,0.8,0.8C19.2,61,18.9,61.3,18.4,61.3z M12.2,61.3H9.1 c-0.4,0-0.8-0.3-0.8-0.8c0-0.4,0.3-0.8,0.8-0.8h3.1c0.4,0,0.8,0.3,0.8,0.8C13,61,12.6,61.3,12.2,61.3z M6,61.3H3.7V59 c0-0.4,0.3-0.8,0.8-0.8s0.8,0.3,0.8,0.8v0.8H6c0.4,0,0.8,0.3,0.8,0.8C6.8,61,6.4,61.3,6,61.3z M4.4,56.7c-0.4,0-0.8-0.3-0.8-0.8 v-3.1C3.7,52.3,4,52,4.4,52s0.8,0.3,0.8,0.8v3.1C5.2,56.3,4.9,56.7,4.4,56.7z M55.8,53.9c-0.4,0-0.8-0.3-0.8-0.8V50 c0-0.4,0.3-0.8,0.8-0.8s0.8,0.3,0.8,0.8v3.1C56.5,53.5,56.2,53.9,55.8,53.9z M4.4,50.4c-0.4,0-0.8-0.3-0.8-0.8v-3.1 c0-0.4,0.3-0.8,0.8-0.8s0.8,0.3,0.8,0.8v3.1C5.2,50.1,4.9,50.4,4.4,50.4z M55.8,47.7c-0.4,0-0.8-0.3-0.8-0.8v-3.1 c0-0.4,0.3-0.8,0.8-0.8s0.8,0.3,0.8,0.8v3.1C56.5,47.3,56.2,47.7,55.8,47.7z M4.4,44.2c-0.4,0-0.8-0.3-0.8-0.8v-3.1 c0-0.4,0.3-0.8,0.8-0.8s0.8,0.3,0.8,0.8v3.1C5.2,43.9,4.9,44.2,4.4,44.2z M55.8,41.4c-0.4,0-0.8-0.3-0.8-0.8v-3.1 c0-0.4,0.3-0.8,0.8-0.8s0.8,0.3,0.8,0.8v3.1C56.5,41.1,56.2,41.4,55.8,41.4z M4.4,38c-0.4,0-0.8-0.3-0.8-0.8v-3.1 c0-0.4,0.3-0.8,0.8-0.8s0.8,0.3,0.8,0.8v3.1C5.2,37.6,4.9,38,4.4,38z M55.8,35.2c-0.4,0-0.8-0.3-0.8-0.8v-3.1c0-0.4,0.3-0.8,0.8-0.8 s0.8,0.3,0.8,0.8v3.1C56.5,34.9,56.2,35.2,55.8,35.2z M4.4,31.8c-0.4,0-0.8-0.3-0.8-0.8v-3.1c0-0.4,0.3-0.8,0.8-0.8s0.8,0.3,0.8,0.8 V31C5.2,31.4,4.9,31.8,4.4,31.8z M55.8,29c-0.4,0-0.8-0.3-0.8-0.8v-3.1c0-0.4,0.3-0.8,0.8-0.8s0.8,0.3,0.8,0.8v3.1 C56.5,28.6,56.2,29,55.8,29z M4.4,25.5c-0.4,0-0.8-0.3-0.8-0.8v-3.1c0-0.4,0.3-0.8,0.8-0.8s0.8,0.3,0.8,0.8v3.1 C5.2,25.2,4.9,25.5,4.4,25.5z M55.8,22.8c-0.4,0-0.8-0.3-0.8-0.8v-3.1c0-0.4,0.3-0.8,0.8-0.8s0.8,0.3,0.8,0.8V22 C56.5,22.4,56.2,22.8,55.8,22.8z M4.4,19.3c-0.4,0-0.8-0.3-0.8-0.8v-3.1c0-0.4,0.3-0.8,0.8-0.8s0.8,0.3,0.8,0.8v3.1 C5.2,19,4.9,19.3,4.4,19.3z M55.8,16.5c-0.4,0-0.8-0.3-0.8-0.8v-3.1c0-0.4,0.3-0.8,0.8-0.8s0.8,0.3,0.8,0.8v3.1 C56.5,16.2,56.2,16.5,55.8,16.5z M4.4,13.1c-0.4,0-0.8-0.3-0.8-0.8V9.4h1.7c0.4,0,0.8,0.3,0.8,0.8s-0.3,0.8-0.8,0.8H5.2v1.4 C5.2,12.7,4.9,13.1,4.4,13.1z M55.2,10.9H52c-0.4,0-0.8-0.3-0.8-0.8s0.3-0.8,0.8-0.8h3.1c0.4,0,0.8,0.3,0.8,0.8S55.6,10.9,55.2,10.9 z M48.9,10.9h-3.1c-0.4,0-0.8-0.3-0.8-0.8s0.3-0.8,0.8-0.8h3.1c0.4,0,0.8,0.3,0.8,0.8S49.4,10.9,48.9,10.9z M42.7,10.9h-3.1 c-0.4,0-0.8-0.3-0.8-0.8s0.3-0.8,0.8-0.8h3.1c0.4,0,0.8,0.3,0.8,0.8S43.1,10.9,42.7,10.9z M36.5,10.9h-3.1c-0.4,0-0.8-0.3-0.8-0.8 s0.3-0.8,0.8-0.8h3.1c0.4,0,0.8,0.3,0.8,0.8S36.9,10.9,36.5,10.9z M30.3,10.9h-3.1c-0.4,0-0.8-0.3-0.8-0.8s0.3-0.8,0.8-0.8h3.1 c0.4,0,0.8,0.3,0.8,0.8S30.7,10.9,30.3,10.9z M24,10.9h-3.1c-0.4,0-0.8-0.3-0.8-0.8s0.3-0.8,0.8-0.8H24c0.4,0,0.8,0.3,0.8,0.8 S24.5,10.9,24,10.9z M17.8,10.9h-3.1c-0.4,0-0.8-0.3-0.8-0.8s0.3-0.8,0.8-0.8h3.1c0.4,0,0.8,0.3,0.8,0.8S18.3,10.9,17.8,10.9z M11.6,10.9H8.5c-0.4,0-0.8-0.3-0.8-0.8s0.3-0.8,0.8-0.8h3.1c0.4,0,0.8,0.3,0.8,0.8S12,10.9,11.6,10.9z"></path> <path d="M32.9,71.6h-5.6c-1.2,0-2.1-1-2.1-2.1v-0.3c0-1.2,1-2.1,2.1-2.1h5.6c1.2,0,2.1,1,2.1,2.1v0.3C35,70.6,34.1,71.6,32.9,71.6z M27.3,68.1c-0.6,0-1.1,0.5-1.1,1.1v0.3c0,0.6,0.5,1.1,1.1,1.1h5.6c0.6,0,1.1-0.5,1.1-1.1v-0.3c0-0.6-0.5-1.1-1.1-1.1H27.3z"></path> <g> <polygon points="39.2,54 35.3,32.8 36.6,32.6 40.2,52.7 40.7,52.6 39.8,32.4 41,32.3 42,53.7 "></polygon> <path d="M35.4,32.9l0.1-8.6L39,24l2.1,8.4L35.4,32.9z M36.7,25.5l-0.1,6.1l2.8-0.3l-1.5-6L36.7,25.5z"></path> <path d="M36.7,25.4c-0.3,0-0.6,0-0.9-0.1l-0.2,0l-0.2-0.2c-2.2-2.1-1.1-5.1-0.2-7.5c0.2-0.5,0.4-1,0.5-1.4l0.4-1.2l0.7,1 c2.4,3.3,3.3,5.7,3,7.2c-0.1,0.6-0.4,1.1-0.9,1.4C38.5,25.2,37.7,25.4,36.7,25.4z M36.2,24.2c1.4,0.1,1.9-0.2,2-0.4l0.1-0.1 c0.2-0.1,0.3-0.3,0.4-0.6c0.1-0.6,0-2.1-2.1-5.3c0,0.1-0.1,0.2-0.1,0.3C35.6,20.3,34.8,22.6,36.2,24.2z"></path> <path d="M24.1,51l-5.4-0.8l4.7-30l3.8-4.7l1.7,5.6l0,0.1L24.1,51z M20.1,49.1l3,0.5l4.4-28.4l-0.9-3l-2.1,2.6L20.1,49.1z"></path> <path d="M23.5,54.6l-5.4-0.8l0.9-5.6l5.4,0.8L23.5,54.6z M19.5,52.7l3,0.5l0.5-3.2l-3-0.5L19.5,52.7z"></path> </g> </svg> 
