<?xml version="1.0" encoding="UTF-8"?> <!-- Generator: Adobe Illustrator 25.0.0, SVG Export Plug-In . SVG Version: 6.00 Build 0) --> <svg xmlns="http://www.w3.org/2000/svg" xmlns:xlink="http://www.w3.org/1999/xlink" id="Layer_1" x="0px" y="0px" viewBox="0 0 91 57" style="enable-background:new 0 0 91 57;" xml:space="preserve"> <style type="text/css"> .st0{fill:#232020;} </style> <path class="st0" d="M23.3,25L23.3,25L23.3,25L23.3,25L23.3,25L23.3,25L23.3,25L23.3,25L23.3,25L23.3,25L23.3,25L23.3,25L23.3,25 L23.3,25L23.3,25L23.3,25L23.3,25L23.3,25L23.3,25L23.3,25h-0.1c0,0,0,0,0,0h0h0h0h0h0h0h0h0h0h0h0h0h0c0,0,0,0,0,0h0h0h0h0h0h0h0h0 h0c0,0,0,0,0,0h0h0h0h0h0h0h0c0,0,0,0,0,0h0h0h0h0h0h0c0,0,0,0,0,0h0h0h0h0h0c0,0,0,0,0,0h0h0h0h0h0c0,0,0,0,0,0h0h0h0h0l0,0h0h0h0 h0c0,0,0,0,0,0c0,0,0,0,0,0h0h0h0h0h0h0h0h0h0c0,0,0,0,0,0c0,0,0,0,0,0c0,0,0,0,0,0h0h0h0c0,0,0,0,0,0h0c0,0,0,0,0,0c0,0,0,0-0.1,0 h0c-0.6,0-1.2,0.1-1.8,0.3c-0.3,0.1-0.5,0.4-0.5,0.7c0.1,0.3,0.3,0.5,0.6,0.5c0,0,0.1,0,0.1,0c0.7-0.2,1.4-0.2,2.2-0.2 c0.3,0,0.6-0.3,0.6-0.6C23.9,25.2,23.6,25,23.3,25 M18.8,26c-0.1,0-0.2,0-0.3,0.1c-0.1,0-0.1,0.1-0.2,0.1c0,0,0,0,0,0c0,0,0,0,0,0 l0,0c0,0,0,0,0,0l0,0c0,0,0,0,0,0c0,0,0,0,0,0h0c0,0,0,0,0,0v0c0,0,0,0,0,0c0,0,0,0,0,0c0,0,0,0,0,0c0,0,0,0,0,0c0,0,0,0,0,0l0,0 c-0.6,0.3-1.1,0.7-1.6,1.1c-0.3,0.2-0.3,0.6-0.1,0.9c0.1,0.1,0.3,0.2,0.5,0.2c0.1,0,0.3,0,0.4-0.1c0.6-0.5,1.2-0.9,1.8-1.2 c0.3-0.1,0.4-0.5,0.3-0.8C19.2,26.1,19,26,18.8,26 M15.2,28.9c-0.2,0-0.4,0.1-0.5,0.2c-0.5,0.6-0.9,1.3-1.3,2c0,0,0,0,0,0l0,0 c0,0,0,0,0,0c0,0,0,0,0,0h0c0,0,0,0,0,0l0,0c0,0,0,0,0,0l0,0l0,0c0,0,0,0,0,0l0,0c0,0,0,0,0,0c0,0,0,0,0,0v0c-0.1,0.3,0,0.7,0.3,0.8 c0.1,0,0.2,0.1,0.3,0.1c0.2,0,0.5-0.1,0.6-0.4c0.3-0.7,0.7-1.3,1.1-1.9c0.2-0.3,0.2-0.7-0.1-0.9C15.5,28.9,15.3,28.9,15.2,28.9 M13.2,33.1c-0.3,0-0.5,0.2-0.6,0.5c-0.1,0.6-0.2,1.2-0.2,1.8c0,0,0,0,0,0v0v0c0,0,0,0,0,0v0v0c0,0,0,0,0,0v0v0v0v0v0c0,0,0,0,0,0v0 c0,0,0,0,0,0.1v0c0,0,0,0,0,0v0v0v0v0v0c0,0,0,0,0,0v0v0v0v0v0v0v0c0,0,0,0,0,0v0v0v0v0v0v0v0c0,0,0,0,0,0v0v0v0v0v0v0v0 c0,0,0,0,0,0v0v0v0v0v0v0v0v0v0v0v0v0v0c0,0,0,0,0,0v0v0v0v0v0v0v0v0v0v0v0v0v0v0v0v0v0v0v0v0v0v0v0c0,0,0,0.1,0,0.1v0v0v0 c0,0.3,0.3,0.6,0.6,0.6h0c0.3,0,0.6-0.3,0.6-0.6v-0.1c0-0.7,0.1-1.4,0.2-2c0.1-0.3-0.1-0.7-0.5-0.7C13.3,33.1,13.3,33.1,13.2,33.1 M13.3,37.7c0,0-0.1,0-0.1,0c-0.3,0.1-0.5,0.4-0.5,0.7c0.1,0.3,0.2,0.7,0.3,1v0c0,0,0,0,0,0c0,0,0,0,0,0c0,0,0,0,0,0c0,0,0,0,0,0 c0,0,0,0,0,0l0,0c0,0,0,0,0,0c0,0,0,0,0,0c0,0,0,0,0,0v0c0,0,0,0,0,0v0c0,0,0,0,0,0l0,0c0,0,0,0,0,0h0c0,0,0,0,0,0v0c0,0,0,0,0,0 c0,0,0,0,0,0c0,0,0,0,0,0v0c0,0,0,0,0,0c0,0,0,0,0,0v0c0,0,0,0,0,0l0,0l0,0c0,0,0,0,0,0c0,0,0,0,0,0c0,0,0,0,0,0c0,0,0,0,0,0 s0,0,0,0l0,0c0,0,0,0,0,0v0l0,0v0c0,0,0,0,0,0c0,0,0,0,0,0c0,0,0,0,0,0c0,0,0,0,0,0c0,0,0,0,0,0c0,0,0,0,0,0l0,0c0,0,0,0,0,0 c0,0,0,0,0,0c0,0,0,0,0,0c0,0,0,0,0,0l0,0c0,0,0,0,0,0v0c0,0,0,0,0,0v0l0,0c0,0,0,0,0,0c0,0,0,0,0,0c0,0,0,0,0,0s0,0,0,0 c0,0,0,0,0,0c0,0,0,0,0,0c0,0,0,0,0,0c0,0,0,0,0,0h0c0,0,0,0,0,0c0,0,0,0,0,0c0,0,0,0,0,0c0,0,0,0,0,0c0,0,0,0,0,0c0,0,0,0,0,0 c0,0,0,0,0,0c0,0,0,0,0,0c0,0,0,0,0,0l0,0l0,0c0,0,0,0,0,0l0,0c0,0,0,0,0,0l0,0c0,0,0,0,0,0c0,0,0,0,0,0c0,0,0,0,0,0c0,0,0,0,0,0 c0,0,0,0,0,0c0,0,0,0,0,0l0,0c0,0,0,0,0,0s0,0,0,0c0,0,0,0,0,0h0c0,0,0,0,0,0c0,0,0,0,0,0c0,0,0,0,0,0c0,0,0,0,0,0c0,0,0,0,0,0 c0,0,0,0,0,0c0,0,0,0,0,0c0,0,0,0,0,0c0,0,0,0,0,0l0,0c0,0,0,0,0,0c0,0,0,0,0,0s0,0,0,0c0,0,0,0,0,0c0,0,0,0,0,0l0,0c0,0,0,0,0,0 c0,0,0,0,0,0l0,0v0c0,0,0,0,0,0v0c0,0,0,0,0,0l0,0l0,0v0c0,0,0,0,0,0v0c0,0,0,0,0,0v0c0,0,0,0,0,0c0.1,0.2,0.2,0.4,0.3,0.6 c0.1,0.2,0.3,0.3,0.5,0.3c0.1,0,0.2,0,0.3-0.1c0.3-0.2,0.4-0.5,0.3-0.8c-0.3-0.7-0.6-1.3-0.8-2C13.8,37.9,13.6,37.7,13.3,37.7 M15.3,41.8c-0.1,0-0.3,0-0.4,0.1c-0.3,0.2-0.3,0.6-0.1,0.9c0.3,0.3,0.5,0.6,0.8,0.9c0,0,0,0,0,0l0,0l0,0v0l0,0c0,0,0,0,0,0h0 c0,0,0,0,0,0h0c0,0,0,0,0,0c0,0,0,0,0,0c0,0,0,0,0,0v0c0,0,0,0,0,0c0,0,0,0,0,0c0,0,0,0,0,0l0,0c0,0,0,0,0,0l0,0c0,0,0,0,0,0 c0,0,0,0,0,0c0,0,0,0,0,0h0l0,0l0,0c0,0,0,0,0,0c0,0,0,0,0,0c0,0,0,0,0,0l0,0l0,0c0,0,0,0,0,0l0,0l0,0c0,0,0,0,0,0c0,0,0,0,0,0l0,0 c0,0,0,0,0,0c0,0,0,0,0,0c0,0,0,0,0,0c0,0,0,0,0,0c0,0,0,0,0,0l0,0c0,0,0,0,0,0c0,0,0,0,0,0c0,0,0,0,0,0c0,0,0,0,0,0c0,0,0,0,0,0 l0,0c0,0,0,0,0,0l0,0l0,0c0,0,0,0,0,0l0,0l0,0c0,0,0,0,0,0c0,0,0,0,0,0c0,0,0,0,0,0c0,0,0,0,0,0c0,0,0,0,0,0c0,0,0,0,0,0 c0,0,0,0,0,0c0,0,0,0,0,0l0,0c0,0,0,0,0,0l0,0c0,0,0,0,0,0l0,0c0,0,0,0,0,0c0,0,0,0,0,0c0,0,0,0,0,0v0c0,0,0,0,0,0c0,0,0,0,0,0 c0,0,0,0,0,0l0,0c0,0,0,0,0,0l0,0c0,0,0,0,0,0c0,0,0,0,0,0c0,0,0,0,0,0l0,0c0,0,0,0,0,0l0,0c0,0,0,0,0,0h0c0,0,0,0,0,0l0,0 c0,0,0,0,0,0l0,0c0,0,0,0,0,0c0,0,0,0,0,0l0,0h0c0,0,0,0,0,0l0,0c0,0,0,0,0,0l0,0c0,0,0,0,0,0l0,0c0,0,0,0,0,0c0,0,0,0,0,0v0 c0,0,0,0,0,0v0c0,0,0,0,0,0c0,0,0,0,0,0c0,0,0,0,0,0c0,0,0,0,0,0v0c0,0,0,0,0,0l0,0c0,0,0,0,0,0c0,0,0,0,0,0v0c0,0,0,0,0,0 c0,0,0,0,0,0c0,0,0,0,0,0l0,0c0,0,0,0,0,0l0,0c0,0,0,0,0,0h0c0,0,0,0,0,0c0,0,0.1,0,0.1,0.1c0,0,0,0,0,0c0.1,0.1,0.2,0.1,0.2,0.2 c0.1,0.1,0.2,0.1,0.4,0.1c0.2,0,0.4-0.1,0.5-0.2c0.2-0.3,0.2-0.7-0.1-0.9c-0.6-0.4-1.1-1-1.6-1.5C15.7,41.9,15.5,41.8,15.3,41.8 M19,44.6c-0.2,0-0.5,0.1-0.6,0.4c-0.1,0.3,0,0.7,0.3,0.8c0.6,0.3,1.2,0.5,1.8,0.6c0,0,0,0,0,0c0,0,0,0,0,0c0,0,0,0,0,0l0,0 c0,0,0,0,0,0c0,0,0,0,0,0c0,0,0,0,0,0c0,0,0,0,0,0c0,0,0,0,0,0c0,0,0,0,0,0s0,0,0,0c0,0,0,0,0,0c0,0,0,0,0,0c0,0,0,0,0,0h0 c0,0,0,0,0,0h0c0,0,0,0,0,0v0c0,0,0,0,0,0c0.1,0,0.3,0.1,0.4,0.1c0,0,0.1,0,0.1,0c0.3,0,0.5-0.2,0.6-0.5c0.1-0.3-0.1-0.7-0.5-0.7 c-0.7-0.1-1.4-0.4-2.1-0.7C19.2,44.6,19.1,44.6,19,44.6 M25.8,45.2c-0.1,0-0.1,0-0.2,0c-0.7,0.2-1.4,0.3-2.2,0.3 c-0.3,0-0.6,0.3-0.6,0.6c0,0.3,0.3,0.6,0.6,0.6h0c0.1,0,0.3,0,0.4,0c0,0,0,0,0,0h0c0,0,0,0,0,0h0h0l0,0h0h0c0,0,0,0,0,0h0h0 c0,0,0,0,0,0h0c0,0,0,0,0,0h0h0c0,0,0,0,0,0h0c0,0,0,0,0,0h0c0,0,0,0,0,0h0c0,0,0,0,0,0h0c0,0,0,0,0,0c0,0,0,0,0,0h0 c0.4,0,0.9-0.1,1.3-0.2c0,0,0,0,0,0h0c0,0,0,0,0,0c0,0,0,0,0,0c0,0,0,0,0,0l0,0c0,0,0,0,0,0h0c0,0,0,0,0,0h0c0,0,0,0,0,0h0 c0,0,0,0,0,0s0,0,0,0c0,0,0,0,0,0h0c0,0,0,0,0,0c0,0,0,0,0,0c0,0,0,0,0,0l0,0c0,0,0,0,0,0s0,0,0,0h0c0,0,0,0,0,0h0c0,0,0,0,0,0 c0,0,0,0,0,0c0.1,0,0.3-0.1,0.4-0.1c0.3-0.1,0.5-0.4,0.4-0.7C26.3,45.4,26.1,45.2,25.8,45.2 M29.9,43.1c-0.1,0-0.3,0-0.4,0.1 c-0.6,0.5-1.2,0.9-1.8,1.2c-0.3,0.2-0.4,0.5-0.3,0.8c0.1,0.2,0.3,0.3,0.5,0.3c0.1,0,0.2,0,0.3-0.1c0.2-0.1,0.4-0.2,0.7-0.4 c0,0,0,0,0,0c0,0,0,0,0,0v0c0,0,0,0,0,0c0,0,0,0,0,0c0,0,0,0,0,0l0,0c0,0,0,0,0,0v0l0,0c0,0,0,0,0,0l0,0c0,0,0,0,0,0h0c0,0,0,0,0,0 c0,0,0,0,0,0c0,0,0,0,0,0l0,0c0,0,0,0,0,0c0,0,0,0,0,0c0,0,0,0,0,0c0,0,0,0,0,0c0,0,0,0,0,0l0,0c0,0,0,0,0,0c0,0,0,0,0,0 c0,0,0,0,0,0c0,0,0,0,0,0l0,0c0,0,0,0,0,0c0,0,0,0,0,0c0,0,0,0,0,0v0c0,0,0,0,0,0c0,0,0,0,0,0c0,0,0,0,0,0l0,0c0,0,0,0,0,0 c0,0,0,0,0,0c0,0,0,0,0,0c0,0,0,0,0,0c0,0,0,0,0,0c0,0,0,0,0,0c0,0,0,0,0,0l0,0c0,0,0,0,0,0l0,0c0,0,0,0,0,0c0,0,0,0,0,0 c0,0,0,0,0,0l0,0c0,0,0,0,0,0c0,0,0,0,0,0v0c0,0,0,0,0,0c0,0,0,0,0,0c0,0,0,0,0,0l0,0c0,0,0,0,0,0c0.1-0.1,0.2-0.2,0.4-0.3 c0,0,0,0,0,0c0,0,0,0,0,0c0,0,0,0,0,0c0,0,0,0,0,0v0c0,0,0,0,0,0c0,0,0,0,0,0c0,0,0,0,0,0l0,0c0,0,0,0,0,0l0,0c0,0,0,0,0,0l0,0 c0,0,0,0,0,0l0,0c0,0,0,0,0,0c0,0,0,0,0,0c0,0,0,0,0,0c0,0,0,0,0,0l0,0c0,0,0,0,0,0l0,0c0,0,0,0,0,0c0,0,0,0,0,0c0,0,0,0,0,0h0 c0,0,0,0,0,0c0,0,0,0,0,0c0,0,0,0,0,0c0,0,0,0,0,0c0,0,0,0,0,0c0,0,0,0,0,0c0,0,0,0,0,0c0,0,0,0,0,0c0,0,0,0,0,0c0,0,0,0,0,0 c0,0,0,0,0,0c0,0,0,0,0,0c0,0,0,0,0,0l0,0c0,0,0,0,0,0c0,0,0,0,0,0c0,0,0,0,0,0l0,0c0,0,0,0,0,0v0c0,0,0,0,0,0v0c0,0,0,0,0,0 c0,0,0,0,0,0c0.1-0.1,0.3-0.2,0.4-0.3c0.3-0.2,0.3-0.6,0.1-0.9C30.3,43.1,30.1,43.1,29.9,43.1 M32.7,39.4c-0.2,0-0.5,0.1-0.6,0.4 c-0.3,0.7-0.7,1.3-1.1,1.9c-0.2,0.3-0.1,0.7,0.1,0.9c0.1,0.1,0.2,0.1,0.4,0.1c0.2,0,0.4-0.1,0.5-0.2c0.2-0.2,0.3-0.4,0.5-0.7 c0,0,0,0,0,0l0,0v0c0,0,0,0,0,0v0l0,0c0,0,0,0,0,0c0,0,0,0,0,0c0,0,0,0,0,0v0c0,0,0,0,0,0c0,0,0,0,0,0c0,0,0,0,0,0h0c0,0,0,0,0,0 l0,0c0,0,0,0,0,0l0,0c0,0,0,0,0,0v0c0,0,0,0,0,0c0,0,0,0,0,0l0,0v0c0,0,0,0,0,0l0,0c0,0,0,0,0,0c0,0,0,0,0,0c0,0,0,0,0,0 c0,0,0,0,0,0c0,0,0,0,0,0c0,0,0,0,0,0c0,0,0,0,0,0c0,0,0,0,0,0l0,0c0,0,0,0,0,0c0,0,0,0,0,0c0,0,0,0,0,0c0,0,0,0,0,0c0,0,0,0,0,0 c0,0,0,0,0,0c0,0,0,0,0,0l0,0c0,0,0,0,0,0c0,0,0,0,0,0c0,0,0,0,0,0c0,0,0,0,0,0c0,0,0,0,0,0l0,0c0,0,0,0,0,0c0,0,0,0,0,0 c0,0,0,0,0,0c0,0,0,0,0,0c0,0,0,0,0,0v0c0,0,0,0,0,0c0,0,0,0,0,0c0,0,0,0,0,0c0,0,0,0,0,0l0,0c0,0,0,0,0,0v0c0,0,0,0,0,0 c0,0,0,0,0,0c0,0,0,0,0,0v0c0,0,0,0,0,0c0,0,0,0,0,0v0c0,0,0,0,0,0v0c0,0,0,0,0,0h0c0.1-0.2,0.2-0.5,0.4-0.7v0c0,0,0,0,0,0 c0,0,0,0,0,0c0,0,0,0,0,0v0c0,0,0,0,0,0v0l0,0c0,0,0,0,0,0c0,0,0,0,0,0c0,0,0,0,0,0s0,0,0,0l0,0v0c0,0,0,0,0,0c0,0,0,0,0,0l0,0 c0,0,0,0,0,0c0,0,0,0,0,0c0,0,0,0,0,0c0,0,0,0,0,0c0,0,0,0,0,0c0,0,0,0,0,0c0,0,0,0,0,0c0,0,0,0,0,0c0,0,0,0,0,0s0,0,0,0 c0,0,0,0,0,0c0,0,0,0,0,0c0,0,0,0,0,0c0,0,0,0,0,0c0,0,0,0,0,0c0,0,0,0,0,0c0,0,0,0,0,0c0,0,0,0,0,0l0-0.1c0.1-0.3,0-0.7-0.3-0.8 C32.8,39.4,32.7,39.4,32.7,39.4 M33.5,34.8C33.5,34.8,33.5,34.8,33.5,34.8c-0.4,0-0.6,0.3-0.6,0.6c0,0.1,0,0.2,0,0.4 c0,0.6-0.1,1.2-0.2,1.8c-0.1,0.3,0.2,0.7,0.5,0.7c0,0,0.1,0,0.1,0c0.3,0,0.5-0.2,0.6-0.5c0.1-0.3,0.1-0.5,0.1-0.8c0,0,0,0,0,0 c0,0,0,0,0,0v0c0,0,0,0,0,0c0,0,0,0,0,0v0c0,0,0,0,0,0c0,0,0,0,0,0c0,0,0,0,0,0v0l0,0v0v0v0c0,0,0,0,0,0v0v0v0c0,0,0,0,0,0v0 c0,0,0,0,0,0v0l0,0v0v0c0,0,0,0,0,0v0l0,0v0c0,0,0,0,0,0v0c0,0,0,0,0,0v0c0,0,0,0,0,0v0v0c0,0,0,0,0,0v0c0,0,0,0,0,0v0c0,0,0,0,0,0 v0c0,0,0,0,0,0v0v0c0,0,0,0,0,0v0c0,0,0,0,0,0v0v0c0,0,0,0,0,0v0c0,0,0,0,0,0v0c0,0,0,0,0,0v0v0c0,0,0,0,0,0v0c0,0,0,0,0,0v0v0 c0,0,0,0,0,0v0c0,0,0,0,0,0v0v0v0c0,0,0,0,0,0c0,0,0,0,0,0c0,0,0,0,0,0v0v0c0,0,0,0,0,0v0v0c0,0,0,0,0,0v0v0v0v0c0,0,0,0,0,0v0v0 c0,0,0,0,0,0v0v0l0,0v0v0c0,0,0,0,0,0c0,0,0,0,0,0v0v0c0,0,0,0,0,0v0v0c0,0,0,0,0,0v0v0v0v0v0c0,0,0,0,0,0v0v0v0c0,0,0,0,0,0v0v0 l0,0v0v0v0v0c0,0,0,0,0,0v0v0c0,0,0,0,0,0v0v0c0,0,0,0,0,0v0v0c0,0,0,0,0,0v0v0v0c0,0,0,0,0,0v0v0v0c0,0,0,0,0,0v0v0v0c0,0,0,0,0,0 v0c0,0,0,0,0,0v0v0v0c0,0,0,0,0,0v0v0v0c0,0,0,0,0,0v0v0v0v0c0,0,0,0,0,0v0v0v0v0c0,0,0,0,0,0v0c0,0,0,0,0,0v0v0v0v0v0c0,0,0,0,0,0 v0v0v0v0v0l0,0v0v0v0v0v0c0,0,0,0,0,0v0v0v0v0v0v0c0,0,0,0,0,0v0v0v0v0v0v0c0,0,0,0,0,0v0v0v0v0v0v0v0c0,0,0,0,0,0v0v0v0v0v0v0v0v0 c0,0,0,0,0,0v0v0v0v0v0v0v0v0v0v0v0c0,0,0,0,0,0v0v0v0v0v0v0v0v0v0v0v0v0v0v0v0v0c0,0,0,0,0,0v0v0v0v0v0v0v0v0v0v0v0v0v0v0v0v0v0v0 v0v0v0v0v0c0,0,0,0,0,0v0v0v0v0v0v0v0v0v0v0v0v0c0-0.1,0-0.2,0-0.3C34.1,35.1,33.8,34.8,33.5,34.8 M32.3,30.4c-0.1,0-0.2,0-0.3,0.1 c-0.3,0.2-0.4,0.5-0.3,0.8c0.3,0.6,0.6,1.3,0.8,2c0.1,0.3,0.3,0.5,0.6,0.5c0.1,0,0.1,0,0.2,0c0.3-0.1,0.5-0.4,0.4-0.8 c0-0.1-0.1-0.3-0.1-0.4c0,0,0,0,0,0c0,0,0,0,0,0c0,0,0,0,0,0v0c0,0,0,0,0,0c0,0,0,0,0,0v0c0,0,0,0,0,0c0,0,0,0,0,0v0c0,0,0,0,0,0 l0,0c0,0,0,0,0,0v0l0,0c0,0,0,0,0,0c0,0,0,0,0,0c0,0,0,0,0,0v0c0,0,0,0,0,0v0c0,0,0,0,0,0c0,0,0,0,0,0c0,0,0,0,0,0s0,0,0,0 c0,0,0,0,0,0l0,0c0,0,0,0,0,0v0c0,0,0,0,0,0c0,0,0,0,0,0l0,0c0,0,0,0,0,0c0,0,0,0,0,0c0,0,0,0,0,0c0,0,0,0,0,0s0,0,0,0c0,0,0,0,0,0 c0,0,0,0,0,0c0,0,0,0,0,0s0,0,0,0c0,0,0,0,0,0l0,0c0,0,0,0,0,0c0,0,0,0,0,0c0,0,0,0,0,0c0,0,0,0,0,0c0,0,0,0,0,0c0,0,0,0,0,0 c0,0,0,0,0,0c0,0,0,0,0,0c0,0,0,0,0,0s0,0,0,0c0,0,0,0,0,0s0,0,0,0c0,0,0,0,0,0c0,0,0,0,0,0c0,0,0,0,0,0c0,0,0,0,0,0c0,0,0,0,0,0 s0,0,0,0c0,0,0,0,0,0s0,0,0,0c0,0,0,0,0,0s0,0,0,0c0,0,0,0,0,0c0,0,0,0,0,0c0,0,0,0,0,0c0,0,0,0,0,0l0,0c0,0,0,0,0,0c0,0,0,0,0,0 s0,0,0,0c0,0,0,0,0,0v0c0,0,0,0,0,0s0,0,0,0c0,0,0,0,0,0s0,0,0,0c0,0,0,0,0,0s0,0,0,0c0,0,0,0,0,0l0,0c0,0,0,0,0,0c0,0,0,0,0,0 c0,0,0,0,0,0c0,0,0,0,0,0c0,0,0,0,0,0c0,0,0,0,0,0c0,0,0,0,0,0c0,0,0,0,0,0c0,0,0,0,0,0c0,0,0,0,0,0c0,0,0,0,0,0c0,0,0,0,0,0 c0,0,0,0,0,0c0,0,0,0,0,0l0,0c0,0,0,0,0,0c0,0,0,0,0,0c0,0,0,0,0,0c0,0,0,0,0,0c0,0,0,0,0,0c0,0,0,0,0,0c0,0,0,0,0,0c0,0,0,0,0,0 s0,0,0,0c0,0,0,0,0,0c0,0,0,0,0,0c0,0,0,0,0,0c0,0,0,0,0,0c0,0,0,0,0,0c0,0,0,0,0,0c0,0,0,0,0,0c0,0,0,0,0,0c0,0,0,0,0,0 c0,0,0,0,0,0c0,0,0,0,0,0c0,0,0,0,0,0c0,0,0,0,0,0c0,0,0,0,0,0l0,0c0,0,0,0,0,0l0,0c0,0,0,0,0,0c0,0,0,0,0,0c0,0,0,0,0,0 c0,0,0,0,0,0c0,0,0,0,0,0c0,0,0,0,0,0c0,0,0,0,0,0v0l0,0c0,0,0,0,0,0c0,0,0,0,0,0c0,0,0,0,0,0c0,0,0,0,0,0c0,0,0,0,0,0c0,0,0,0,0,0 c0,0,0,0,0,0c0,0,0,0,0,0c0,0,0,0,0,0c0,0,0,0,0,0c0,0,0,0,0,0c0,0,0,0,0,0c0,0,0,0,0,0l0,0c0,0,0,0,0,0c0,0,0,0,0,0c0,0,0,0,0,0 c0,0,0,0,0,0v0c0,0,0,0,0,0v0c0,0,0,0,0,0v0l0,0v0l0,0v0c0,0,0,0,0,0v0c0,0,0,0,0,0v0c0,0,0,0,0,0c0,0,0,0,0,0c0,0,0,0,0,0 c-0.1-0.3-0.3-0.6-0.4-0.9C32.8,30.5,32.5,30.4,32.3,30.4 M29.3,26.9c-0.2,0-0.4,0.1-0.5,0.3c-0.2,0.3-0.1,0.7,0.1,0.9 c0.6,0.4,1.1,0.9,1.6,1.5c0.1,0.1,0.3,0.2,0.5,0.2c0.1,0,0.3,0,0.4-0.1c0.3-0.2,0.3-0.6,0.1-0.9c-0.1-0.2-0.3-0.3-0.4-0.5 c0,0,0,0,0,0h0c0,0,0,0,0,0h0c0,0,0,0,0,0v0c0,0,0,0,0,0v0c0,0,0,0,0,0c0,0,0,0,0,0h0c0,0,0,0,0,0h0c0,0,0,0,0,0l0,0v0c0,0,0,0,0,0 v0c0,0,0,0,0,0c0,0,0,0,0,0c0,0,0,0,0,0c0,0,0,0,0,0l0,0l0,0c0,0,0,0,0,0c0,0,0,0,0,0h0c0,0,0,0,0,0l0,0l0,0c0,0,0,0,0,0h0l0,0 c0,0,0,0,0,0l0,0c0,0,0,0,0,0l0,0c0,0,0,0,0,0c0,0,0,0,0,0c0,0,0,0,0,0c0,0,0,0,0,0h0l0,0c-0.3-0.3-0.6-0.6-1-0.8 C29.5,27,29.4,26.9,29.3,26.9 M25.1,25.1c-0.3,0-0.6,0.2-0.6,0.5c-0.1,0.3,0.2,0.7,0.5,0.7c0.7,0.1,1.4,0.3,2.1,0.6 c0.1,0,0.2,0,0.2,0c0.2,0,0.5-0.1,0.6-0.4c0.1-0.3,0-0.7-0.3-0.8c-0.3-0.1-0.6-0.3-1-0.4l0,0h0c0,0,0,0,0,0c0,0,0,0,0,0c0,0,0,0,0,0 s0,0,0,0h0c0,0,0,0,0,0v0c0,0,0,0,0,0h0c0,0,0,0,0,0h0l0,0c0,0,0,0,0,0h0c0,0,0,0,0,0h0c0,0,0,0,0,0c0,0,0,0,0,0c0,0,0,0,0,0 s0,0,0,0h0c0,0,0,0,0,0c0,0,0,0,0,0h0c0,0,0,0,0,0h0c0,0,0,0,0,0c0,0,0,0,0,0c0,0,0,0,0,0c0,0,0,0,0,0c0,0,0,0,0,0h0c0,0,0,0,0,0 c0,0,0,0,0,0c0,0,0,0,0,0s0,0,0,0c0,0,0,0,0,0h0c0,0,0,0,0,0c0,0,0,0,0,0c0,0,0,0,0,0c0,0,0,0,0,0h0c0,0,0,0,0,0c0,0,0,0,0,0 c0,0,0,0,0,0c0,0,0,0,0,0c0,0,0,0,0,0h0c0,0,0,0,0,0h0c0,0,0,0,0,0l0,0c0,0,0,0,0,0h0c0,0,0,0,0,0h0c0,0,0,0,0,0l0,0c0,0,0,0,0,0h0 c0,0,0,0,0,0h0c0,0,0,0,0,0v0c0,0,0,0,0,0l0,0v0c0,0,0,0,0,0h0c0,0,0,0,0,0h0c0,0,0,0,0,0l0,0c0,0,0,0,0,0h0l0,0h0c0,0,0,0,0,0h0 c0,0,0,0,0,0c0,0,0,0,0,0c0,0,0,0,0,0c0,0,0,0,0,0h0c0,0,0,0,0,0c0,0,0,0,0,0c0,0,0,0,0,0c0,0,0,0,0,0l0,0c0,0,0,0,0,0v0 c0,0,0,0,0,0c0,0,0,0,0,0h0c0,0,0,0,0,0v0c0,0,0,0,0,0h0c0,0,0,0,0,0h0c0,0,0,0,0,0h0c0,0,0,0,0,0c0,0,0,0,0,0c0,0,0,0-0.1,0 c-0.1,0-0.3-0.1-0.4-0.1C25.1,25.1,25.1,25.1,25.1,25.1"></path> <path class="st0" d="M28.3,36.7h-9.6c-0.5,0-0.9-0.4-0.9-0.9c0-0.5,0.4-0.9,0.9-0.9h9.6c0.5,0,0.9,0.4,0.9,0.9 C29.2,36.3,28.8,36.7,28.3,36.7"></path> <path class="st0" d="M27.3,40.1c-0.2,0-0.3,0-0.5-0.2c-0.4-0.3-0.5-0.8-0.2-1.2l1.9-2.8l-1.9-2.8c-0.3-0.4-0.2-0.9,0.2-1.2 c0.4-0.3,0.9-0.2,1.2,0.2l2.2,3.2c0.2,0.3,0.2,0.7,0,1L28,39.7C27.8,40,27.6,40.1,27.3,40.1"></path> <path class="st0" d="M19.2,40c-0.3,0-0.6-0.1-0.7-0.4l-2.2-3.3c-0.2-0.3-0.2-0.7,0-1l2.2-3.3c0.3-0.4,0.8-0.5,1.2-0.2 c0.4,0.3,0.5,0.8,0.2,1.2L18,35.8l1.9,2.8c0.3,0.4,0.2,0.9-0.2,1.2C19.6,40,19.4,40,19.2,40"></path> <path class="st0" d="M18.3,57.1H5.4c-2.8,0-5-2.3-5-5V19.6c0-2.8,2.3-5,5-5h12.8c2.8,0,5,2.3,5,5v3.6c0,0.5-0.4,0.9-0.9,0.9 s-0.9-0.4-0.9-0.9v-3.6c0-1.8-1.5-3.3-3.3-3.3H5.4c-1.8,0-3.3,1.5-3.3,3.3v32.4c0,1.8,1.5,3.3,3.3,3.3h12.8c1.8,0,3.3-1.5,3.3-3.3 v-2.9c0-0.5,0.4-0.9,0.9-0.9s0.9,0.4,0.9,0.9v2.9C23.3,54.9,21.1,57.1,18.3,57.1"></path> <path class="st0" d="M22.1,51.3h-20c-0.5,0-0.9-0.3-0.9-0.6c0-0.3,0.4-0.6,0.9-0.6h20c0.5,0,0.9,0.3,0.9,0.6 C22.9,51.1,22.5,51.3,22.1,51.3"></path> <path class="st0" d="M22.1,19.3H2c-0.5,0-0.9-0.3-0.9-0.7c0-0.4,0.4-0.7,0.9-0.7h20.1c0.5,0,0.9,0.3,0.9,0.7 C23,19,22.6,19.3,22.1,19.3"></path> <path class="st0" d="M85.9,57.1H23.7c-0.5,0-0.9-0.4-0.9-0.9c0-0.5,0.4-0.9,0.9-0.9h62.2c1.8,0,3.3-1.5,3.3-3.3v-2.8 c-5.7,0-38.2,0-61.7,0c-0.5,0-0.9-0.4-0.9-0.9c0-0.5,0.4-0.9,0.9-0.9c25.8,0,62.6,0,62.6,0c0.5,0,0.9,0.4,0.9,0.9V52 C90.9,54.8,88.7,57.1,85.9,57.1"></path> <path class="st0" d="M82.2,49.1H26.3c-0.5,0-0.9-0.4-0.9-0.9c0-0.5,0.4-0.9,0.9-0.9h55V5c0-1.8-1.5-3.3-3.3-3.3H15.5 c-1.8,0-3.3,1.5-3.3,3.3v9.5c0,0.5-0.4,0.9-0.9,0.9c-0.5,0-0.9-0.4-0.9-0.9V5c0-2.8,2.3-5,5-5H78c2.8,0,5,2.3,5,5v43.2 C83,48.8,82.7,49.1,82.2,49.1"></path> <path class="st0" d="M76.6,48.9h-2.5c-0.3,0-0.6-0.3-0.6-0.6c0-0.3,0.3-0.6,0.6-0.6h2.5c0.3,0,0.6,0.3,0.6,0.6 C77.2,48.6,76.9,48.9,76.6,48.9 M71.7,48.9h-2.5c-0.3,0-0.6-0.3-0.6-0.6c0-0.3,0.3-0.6,0.6-0.6h2.5c0.3,0,0.6,0.3,0.6,0.6 C72.3,48.6,72,48.9,71.7,48.9 M66.7,48.9h-2.5c-0.3,0-0.6-0.3-0.6-0.6c0-0.3,0.3-0.6,0.6-0.6h2.5c0.3,0,0.6,0.3,0.6,0.6 C67.3,48.6,67.1,48.9,66.7,48.9 M61.8,48.9h-2.5c-0.3,0-0.6-0.3-0.6-0.6c0-0.3,0.3-0.6,0.6-0.6h2.5c0.3,0,0.6,0.3,0.6,0.6 C62.4,48.6,62.1,48.9,61.8,48.9 M56.8,48.9h-2.5c-0.3,0-0.6-0.3-0.6-0.6c0-0.3,0.3-0.6,0.6-0.6h2.5c0.3,0,0.6,0.3,0.6,0.6 C57.5,48.6,57.2,48.9,56.8,48.9 M51.9,48.9h-2.5c-0.3,0-0.6-0.3-0.6-0.6c0-0.3,0.3-0.6,0.6-0.6h2.5c0.3,0,0.6,0.3,0.6,0.6 C52.5,48.6,52.3,48.9,51.9,48.9 M47,48.9h-2.5c-0.3,0-0.6-0.3-0.6-0.6c0-0.3,0.3-0.6,0.6-0.6H47c0.3,0,0.6,0.3,0.6,0.6 C47.6,48.6,47.3,48.9,47,48.9 M42,48.9h-2.5c-0.3,0-0.6-0.3-0.6-0.6c0-0.3,0.3-0.6,0.6-0.6H42c0.3,0,0.6,0.3,0.6,0.6 C42.7,48.6,42.4,48.9,42,48.9 M37.1,48.9h-2.5c-0.3,0-0.6-0.3-0.6-0.6c0-0.3,0.3-0.6,0.6-0.6h2.5c0.3,0,0.6,0.3,0.6,0.6 C37.7,48.6,37.4,48.9,37.1,48.9 M32.2,48.9h-1c-0.3,0-0.6-0.3-0.6-0.6c0-0.3,0.3-0.6,0.6-0.6h1c0.3,0,0.6,0.3,0.6,0.6 C32.8,48.6,32.5,48.9,32.2,48.9 M76.8,46.6c-0.3,0-0.6-0.3-0.6-0.6v-2.5c0-0.3,0.3-0.6,0.6-0.6c0.3,0,0.6,0.3,0.6,0.6V46 C77.4,46.3,77.1,46.6,76.8,46.6 M76.8,41.6c-0.3,0-0.6-0.3-0.6-0.6v-2.5c0-0.3,0.3-0.6,0.6-0.6c0.3,0,0.6,0.3,0.6,0.6V41 C77.4,41.4,77.1,41.6,76.8,41.6 M76.8,36.7c-0.3,0-0.6-0.3-0.6-0.6v-2.5c0-0.3,0.3-0.6,0.6-0.6c0.3,0,0.6,0.3,0.6,0.6v2.5 C77.4,36.4,77.1,36.7,76.8,36.7 M76.8,31.8c-0.3,0-0.6-0.3-0.6-0.6v-2.5c0-0.3,0.3-0.6,0.6-0.6c0.3,0,0.6,0.3,0.6,0.6v2.5 C77.4,31.5,77.1,31.8,76.8,31.8 M76.8,26.9c-0.3,0-0.6-0.3-0.6-0.6v-2.5c0-0.3,0.3-0.6,0.6-0.6c0.3,0,0.6,0.3,0.6,0.6v2.5 C77.4,26.6,77.1,26.9,76.8,26.9 M76.8,21.9c-0.3,0-0.6-0.3-0.6-0.6v-2.5c0-0.3,0.3-0.6,0.6-0.6c0.3,0,0.6,0.3,0.6,0.6v2.5 C77.4,21.7,77.1,21.9,76.8,21.9 M76.8,17c-0.3,0-0.6-0.3-0.6-0.6v-2.5c0-0.3,0.3-0.6,0.6-0.6c0.3,0,0.6,0.3,0.6,0.6v2.5 C77.4,16.7,77.1,17,76.8,17 M15.8,16.1c-0.3,0-0.6-0.3-0.6-0.6l0-2.5c0-0.3,0.3-0.6,0.6-0.6c0.3,0,0.6,0.3,0.6,0.6l0,2.5 C16.4,15.8,16.1,16.1,15.8,16.1 M76.8,12.1c-0.3,0-0.6-0.3-0.6-0.6V9c0-0.3,0.3-0.6,0.6-0.6c0.3,0,0.6,0.3,0.6,0.6v2.5 C77.4,11.8,77.1,12.1,76.8,12.1 M15.8,11.1c-0.3,0-0.6-0.3-0.6-0.6l0-2.5c0-0.3,0.3-0.6,0.6-0.6h0c0.3,0,0.6,0.3,0.6,0.6l0,2.5 C16.4,10.9,16.1,11.1,15.8,11.1L15.8,11.1z M76.8,7.1c-0.3,0-0.6-0.3-0.6-0.6V6.4H75c-0.3,0-0.6-0.3-0.6-0.6c0-0.3,0.3-0.6,0.6-0.6 h1.7c0.3,0,0.6,0.3,0.6,0.6v0.7C77.4,6.9,77.1,7.1,76.8,7.1 M72.6,6.4h-2.5c-0.3,0-0.6-0.3-0.6-0.6c0-0.3,0.3-0.6,0.6-0.6h2.5 c0.3,0,0.6,0.3,0.6,0.6C73.2,6.1,72.9,6.4,72.6,6.4 M67.7,6.4h-2.5c-0.3,0-0.6-0.3-0.6-0.6c0-0.3,0.3-0.6,0.6-0.6h2.5 c0.3,0,0.6,0.3,0.6,0.6C68.3,6.1,68,6.4,67.7,6.4 M62.7,6.4h-2.5c-0.3,0-0.6-0.3-0.6-0.6c0-0.3,0.3-0.6,0.6-0.6h2.5 c0.3,0,0.6,0.3,0.6,0.6C63.3,6.1,63.1,6.4,62.7,6.4 M57.8,6.4h-2.5c-0.3,0-0.6-0.3-0.6-0.6c0-0.3,0.3-0.6,0.6-0.6h2.5 c0.3,0,0.6,0.3,0.6,0.6C58.4,6.1,58.1,6.4,57.8,6.4 M52.9,6.4h-2.5c-0.3,0-0.6-0.3-0.6-0.6c0-0.3,0.3-0.6,0.6-0.6h2.5 c0.3,0,0.6,0.3,0.6,0.6C53.5,6.1,53.2,6.4,52.9,6.4 M47.9,6.4h-2.5c-0.3,0-0.6-0.3-0.6-0.6c0-0.3,0.3-0.6,0.6-0.6h2.5 c0.3,0,0.6,0.3,0.6,0.6C48.6,6.1,48.3,6.4,47.9,6.4 M43,6.4h-2.5c-0.3,0-0.6-0.3-0.6-0.6c0-0.3,0.3-0.6,0.6-0.6H43 c0.3,0,0.6,0.3,0.6,0.6C43.6,6.1,43.3,6.4,43,6.4 M38.1,6.4h-2.5c-0.3,0-0.6-0.3-0.6-0.6c0-0.3,0.3-0.6,0.6-0.6h2.5 c0.3,0,0.6,0.3,0.6,0.6C38.7,6.1,38.4,6.4,38.1,6.4 M33.2,6.4h-2.5c-0.3,0-0.6-0.3-0.6-0.6c0-0.3,0.3-0.6,0.6-0.6h2.5 c0.3,0,0.6,0.3,0.6,0.6C33.8,6.1,33.5,6.4,33.2,6.4 M28.2,6.4h-2.5c-0.3,0-0.6-0.3-0.6-0.6c0-0.3,0.3-0.6,0.6-0.6h2.5 c0.3,0,0.6,0.3,0.6,0.6C28.8,6.1,28.6,6.4,28.2,6.4 M23.3,6.4h-2.5c-0.3,0-0.6-0.3-0.6-0.6c0-0.3,0.3-0.6,0.6-0.6h2.5 c0.3,0,0.6,0.3,0.6,0.6C23.9,6.1,23.6,6.4,23.3,6.4 M18.4,6.4h-2.5c-0.3,0-0.6-0.3-0.6-0.6c0-0.3,0.3-0.6,0.6-0.6h2.5 c0.3,0,0.6,0.3,0.6,0.6C19,6.1,18.7,6.4,18.4,6.4"></path> <path class="st0" d="M54.2,52.8H34.2c-1.8,0-3.3-1.5-3.3-3.3v-1.2c0-0.5,0.4-0.9,0.9-0.9c0.5,0,0.9,0.4,0.9,0.9v1.2 c0,0.9,0.7,1.6,1.6,1.6h20.1c0.9,0,1.6-0.7,1.6-1.6v-1.2c0-0.5,0.4-0.9,0.9-0.9c0.5,0,0.9,0.4,0.9,0.9v1.2 C57.6,51.3,56.1,52.8,54.2,52.8"></path> <path class="st0" d="M70.1,22.9c-0.8,0-1.6-0.1-2.4-0.3c-0.4-0.1-0.7-0.4-0.7-0.8c0-0.7-0.4-1.2-1-1.5c-0.6-0.3-1.3-0.3-1.8,0.1 c-0.3,0.2-0.8,0.2-1-0.1c-0.8-0.7-1.4-1.4-2-2.3c-0.2-0.3-0.2-0.8,0.1-1.1c0.5-0.5,0.6-1.1,0.4-1.8c-0.2-0.6-0.7-1.1-1.4-1.2 c-0.4-0.1-0.7-0.4-0.7-0.8c-0.1-1,0-2,0.2-3c0.1-0.4,0.4-0.7,0.8-0.7c0.7,0,1.3-0.4,1.6-1c0.3-0.6,0.3-1.3-0.2-1.9 c-0.3-0.4-0.2-0.9,0.2-1.2c0.4-0.3,0.9-0.2,1.2,0.2c0.8,1.1,0.9,2.5,0.3,3.7c-0.5,0.9-1.4,1.6-2.4,1.8c-0.1,0.4-0.1,0.9-0.1,1.3 c1,0.4,1.7,1.2,2,2.2c0.3,1,0.2,2-0.4,2.9c0.3,0.4,0.6,0.7,0.9,1c0.9-0.4,2-0.3,2.9,0.1c0.9,0.5,1.6,1.3,1.8,2.3 c0.5,0.1,0.9,0.1,1.4,0.1c0.4-0.9,1.2-1.7,2.2-2c1.2-0.4,2.6-0.1,3.5,0.8c0.3,0.3,0.4,0.9,0,1.2c-0.3,0.3-0.9,0.4-1.2,0 c-0.5-0.5-1.2-0.6-1.8-0.4c-0.6,0.2-1.1,0.7-1.2,1.4c-0.1,0.4-0.4,0.7-0.8,0.7C70.5,22.9,70.3,22.9,70.1,22.9 M70.1,15.9 c-0.5,0-1.1-0.1-1.6-0.4c-0.8-0.4-1.4-1.2-1.7-2c-0.3-0.9-0.2-1.8,0.2-2.6c0.9-1.7,3-2.4,4.7-1.5c0.8,0.4,1.4,1.1,1.7,2 c0.3,0.9,0.2,1.8-0.2,2.6C72.6,15.3,71.4,15.9,70.1,15.9 M70.1,10.7c-0.6,0-1.2,0.3-1.5,0.9c-0.2,0.4-0.3,0.9-0.1,1.3 c0.1,0.4,0.4,0.8,0.9,1c0.8,0.4,1.9,0.1,2.3-0.7c0.2-0.4,0.3-0.9,0.1-1.3c-0.1-0.4-0.4-0.8-0.9-1C70.7,10.8,70.4,10.7,70.1,10.7"></path> <path class="st0" d="M55,43.7c-1,0-2-0.1-3-0.3c-0.4-0.1-0.6-0.4-0.7-0.8c0-0.9-0.5-1.7-1.3-2.1c-0.8-0.4-1.7-0.3-2.4,0.1 c-0.3,0.2-0.8,0.2-1-0.1c-0.9-0.8-1.7-1.8-2.4-2.8c-0.2-0.3-0.2-0.8,0.1-1.1c0.6-0.7,0.8-1.5,0.5-2.4c-0.3-0.8-1-1.5-1.9-1.6 c-0.4-0.1-0.7-0.4-0.7-0.8c-0.1-1.2,0-2.5,0.3-3.7c0.1-0.4,0.4-0.7,0.8-0.7c0.9,0,1.7-0.5,2.2-1.3c0.4-0.8,0.3-1.8-0.2-2.6 c-0.2-0.3-0.2-0.8,0-1.1c0.8-0.9,1.7-1.7,2.8-2.4c0.4-0.2,0.8-0.2,1.1,0.1c0.6,0.7,1.6,1,2.5,0.7c0.9-0.3,1.6-1.1,1.7-2.1 c0-0.4,0.4-0.7,0.8-0.8c1.2-0.1,2.4,0,3.6,0.3c0.4,0.1,0.7,0.5,0.7,0.9c-0.1,1,0.5,1.9,1.3,2.3c0.9,0.4,1.9,0.3,2.7-0.3 c0.3-0.3,0.8-0.3,1.1,0c0.9,0.8,1.7,1.7,2.3,2.8c0.2,0.4,0.1,0.8-0.2,1.1C65,26,64.7,27,65,27.9c0.3,0.9,1.1,1.5,2,1.7 c0.4,0.1,0.7,0.4,0.8,0.8c0.1,1.2-0.1,2.5-0.4,3.6c-0.1,0.4-0.4,0.7-0.9,0.7c-0.9,0-1.8,0.5-2.2,1.3c-0.4,0.8-0.3,1.8,0.2,2.5 c0.2,0.3,0.2,0.8-0.1,1.1c-0.8,0.9-1.8,1.7-2.8,2.3c-0.3,0.2-0.8,0.2-1.1-0.1c-0.7-0.6-1.6-0.8-2.4-0.6c-0.8,0.3-1.4,1-1.6,1.8 c-0.1,0.4-0.4,0.7-0.8,0.7C55.5,43.7,55.2,43.7,55,43.7 M53,41.8c0.7,0.1,1.3,0.2,2,0.2c0.5-1.2,1.4-2.1,2.6-2.4 c1.2-0.4,2.6-0.2,3.6,0.5c0.5-0.4,1.1-0.8,1.5-1.2c-0.5-1.2-0.5-2.5,0.1-3.7c0.6-1.2,1.8-2,3.1-2.2c0.1-0.6,0.2-1.2,0.2-1.9 c-1.3-0.4-2.3-1.4-2.7-2.7c-0.4-1.3-0.1-2.8,0.7-3.8c-0.3-0.5-0.7-1-1.1-1.4c-1.2,0.6-2.7,0.7-3.9,0c-1.2-0.6-2.1-1.8-2.2-3.2 c-0.6-0.1-1.2-0.1-1.8-0.1c-0.4,1.3-1.4,2.3-2.7,2.8C51,23,49.6,22.8,48.5,22c-0.5,0.4-1,0.8-1.4,1.2c0.6,1.2,0.6,2.6,0,3.8 c-0.6,1.2-1.7,1.9-3,2.2C44,29.8,44,30.5,44,31.1c1.2,0.4,2.1,1.4,2.5,2.6c0.4,1.2,0.2,2.5-0.5,3.5c0.4,0.5,0.8,1.1,1.3,1.5 c1.1-0.5,2.5-0.5,3.6,0.1C52,39.5,52.8,40.5,53,41.8 M55,35.1c-0.6,0-1.3-0.1-1.9-0.5c-1-0.5-1.7-1.3-2-2.4c-0.3-1-0.2-2.1,0.3-3.1 c1-2,3.5-2.8,5.5-1.7c1,0.5,1.7,1.3,2,2.4c0.3,1,0.2,2.1-0.3,3.1C58,34.3,56.5,35.1,55,35.1 M55,28.7c-0.8,0-1.7,0.5-2.1,1.3 c-0.3,0.6-0.3,1.2-0.2,1.8c0.2,0.6,0.6,1.1,1.2,1.4c1.1,0.6,2.6,0.1,3.2-1c0.3-0.6,0.3-1.2,0.2-1.8c-0.2-0.6-0.6-1.1-1.2-1.4 C55.8,28.8,55.4,28.7,55,28.7"></path> <path d="M12.9,54.7h-1.6c-0.7,0-1.3-0.6-1.3-1.3c0-0.7,0.6-1.3,1.3-1.3h1.6c0.7,0,1.3,0.6,1.3,1.3C14.2,54.1,13.6,54.7,12.9,54.7z M11.3,52.7c-0.4,0-0.7,0.3-0.7,0.7c0,0.4,0.3,0.7,0.7,0.7h1.6c0.4,0,0.7-0.3,0.7-0.7c0-0.4-0.3-0.7-0.7-0.7H11.3z"></path> </svg> 
