<?xml version="1.0" encoding="UTF-8"?> <!-- Generator: Adobe Illustrator 24.0.1, SVG Export Plug-In . SVG Version: 6.00 Build 0) --> <svg xmlns="http://www.w3.org/2000/svg" xmlns:xlink="http://www.w3.org/1999/xlink" id="E-Government" x="0px" y="0px" viewBox="0 0 175.9 177.8" style="enable-background:new 0 0 175.9 177.8;" xml:space="preserve"> <style type="text/css"> .st0{fill:#272525;} .st1{fill-rule:evenodd;clip-rule:evenodd;fill:#272525;} </style> <g> <path class="st0" d="M123.1,153.2H20.4c-5.3,0-9.5-4.3-9.5-9.5v-6.4h121.7v6.4C132.6,148.9,128.3,153.2,123.1,153.2z M14.2,140.5 v3.1c0,3.4,2.8,6.3,6.3,6.3h102.6c3.4,0,6.3-2.8,6.3-6.3v-3.1H14.2z"></path> <path class="st0" d="M120,140.5H25.1v-53c0-5.3,4.3-9.5,9.5-9.5h75.8c5.3,0,9.5,4.3,9.5,9.5V140.5z M28.4,137.2h88.3V87.6 c0-3.4-2.8-6.3-6.3-6.3H34.6c-3.4,0-6.3,2.8-6.3,6.3V137.2z"></path> <path class="st0" d="M106.2,140h-4.7c-0.6,0-1.2-0.5-1.2-1.2c0-0.6,0.5-1.2,1.2-1.2h4.7c0.6,0,1.2,0.5,1.2,1.2 C107.4,139.5,106.9,140,106.2,140z M96.9,140h-4.7c-0.6,0-1.2-0.5-1.2-1.2c0-0.6,0.5-1.2,1.2-1.2h4.7c0.6,0,1.2,0.5,1.2,1.2 C98.1,139.5,97.5,140,96.9,140z M87.6,140h-4.7c-0.6,0-1.2-0.5-1.2-1.2c0-0.6,0.5-1.2,1.2-1.2h4.7c0.6,0,1.2,0.5,1.2,1.2 C88.7,139.5,88.2,140,87.6,140z M78.2,140h-4.7c-0.6,0-1.2-0.5-1.2-1.2c0-0.6,0.5-1.2,1.2-1.2h4.7c0.6,0,1.2,0.5,1.2,1.2 C79.4,139.5,78.9,140,78.2,140z M68.9,140h-4.7c-0.6,0-1.2-0.5-1.2-1.2c0-0.6,0.5-1.2,1.2-1.2h4.7c0.6,0,1.2,0.5,1.2,1.2 C70.1,139.5,69.6,140,68.9,140z M59.6,140h-4.7c-0.6,0-1.2-0.5-1.2-1.2c0-0.6,0.5-1.2,1.2-1.2h4.7c0.6,0,1.2,0.5,1.2,1.2 C60.8,139.5,60.2,140,59.6,140z M50.3,140h-4.7c-0.6,0-1.2-0.5-1.2-1.2c0-0.6,0.5-1.2,1.2-1.2h4.7c0.6,0,1.2,0.5,1.2,1.2 C51.4,139.5,50.9,140,50.3,140z M40.9,140h-4.7c-0.6,0-1.2-0.5-1.2-1.2c0-0.6,0.5-1.2,1.2-1.2h4.7c0.6,0,1.2,0.5,1.2,1.2 C42.1,139.5,41.6,140,40.9,140z M109.7,138.8c-0.6,0-1.2-0.5-1.2-1.2V133c0-0.6,0.5-1.2,1.2-1.2c0.6,0,1.2,0.5,1.2,1.2v4.7 C110.8,138.3,110.3,138.8,109.7,138.8z M33.9,137.8c-0.6,0-1.2-0.5-1.2-1.2V132c0-0.6,0.5-1.2,1.2-1.2s1.2,0.5,1.2,1.2v4.7 C35,137.3,34.5,137.8,33.9,137.8z M109.7,129.5c-0.6,0-1.2-0.5-1.2-1.2v-4.7c0-0.6,0.5-1.2,1.2-1.2c0.6,0,1.2,0.5,1.2,1.2v4.7 C110.8,129,110.3,129.5,109.7,129.5z M33.9,128.5c-0.6,0-1.2-0.5-1.2-1.2v-4.7c0-0.6,0.5-1.2,1.2-1.2s1.2,0.5,1.2,1.2v4.7 C35,128,34.5,128.5,33.9,128.5z M109.7,120.2c-0.6,0-1.2-0.5-1.2-1.2v-4.7c0-0.6,0.5-1.2,1.2-1.2c0.6,0,1.2,0.5,1.2,1.2v4.7 C110.8,119.6,110.3,120.2,109.7,120.2z M33.9,119.2c-0.6,0-1.2-0.5-1.2-1.2v-4.7c0-0.6,0.5-1.2,1.2-1.2s1.2,0.5,1.2,1.2v4.7 C35,118.6,34.5,119.2,33.9,119.2z M109.7,110.8c-0.6,0-1.2-0.5-1.2-1.2V105c0-0.6,0.5-1.2,1.2-1.2c0.6,0,1.2,0.5,1.2,1.2v4.7 C110.8,110.3,110.3,110.8,109.7,110.8z M33.9,109.8c-0.6,0-1.2-0.5-1.2-1.2V104c0-0.6,0.5-1.2,1.2-1.2s1.2,0.5,1.2,1.2v4.7 C35,109.3,34.5,109.8,33.9,109.8z M109.7,101.5c-0.6,0-1.2-0.5-1.2-1.2v-4.7c0-0.6,0.5-1.2,1.2-1.2c0.6,0,1.2,0.5,1.2,1.2v4.7 C110.8,101,110.3,101.5,109.7,101.5z M33.9,100.5c-0.6,0-1.2-0.5-1.2-1.2v-4.7c0-0.6,0.5-1.2,1.2-1.2S35,94,35,94.7v4.7 C35,100,34.5,100.5,33.9,100.5z M109.7,92.2c-0.6,0-1.2-0.5-1.2-1.2l0-2.3c-0.6,0-1.2-0.5-1.2-1.2s0.5-1.2,1.2-1.2h1.2 c0.6,0,1.2,0.5,1.2,1.2V91C110.8,91.7,110.3,92.2,109.7,92.2z M33.9,91.2c-0.6,0-1.2-0.5-1.2-1.2v-2.4c0-0.6,0.5-1.2,1.2-1.2h4.7 c0.6,0,1.2,0.5,1.2,1.2s-0.5,1.2-1.2,1.2H35V90C35,90.7,34.5,91.2,33.9,91.2z M103.8,88.7h-4.7c-0.6,0-1.2-0.5-1.2-1.2 s0.5-1.2,1.2-1.2h4.7c0.6,0,1.2,0.5,1.2,1.2S104.4,88.7,103.8,88.7z M94.5,88.7h-4.7c-0.6,0-1.2-0.5-1.2-1.2s0.5-1.2,1.2-1.2h4.7 c0.6,0,1.2,0.5,1.2,1.2S95.1,88.7,94.5,88.7z M85.1,88.7h-4.7c-0.6,0-1.2-0.5-1.2-1.2s0.5-1.2,1.2-1.2h4.7c0.6,0,1.2,0.5,1.2,1.2 S85.8,88.7,85.1,88.7z M75.8,88.7h-4.7c-0.6,0-1.2-0.5-1.2-1.2s0.5-1.2,1.2-1.2h4.7c0.6,0,1.2,0.5,1.2,1.2S76.5,88.7,75.8,88.7z M66.5,88.7h-4.7c-0.6,0-1.2-0.5-1.2-1.2s0.5-1.2,1.2-1.2h4.7c0.6,0,1.2,0.5,1.2,1.2S67.1,88.7,66.5,88.7z M57.2,88.7h-4.7 c-0.6,0-1.2-0.5-1.2-1.2s0.5-1.2,1.2-1.2h4.7c0.6,0,1.2,0.5,1.2,1.2S57.8,88.7,57.2,88.7z M47.8,88.7h-4.7c-0.6,0-1.2-0.5-1.2-1.2 s0.5-1.2,1.2-1.2h4.7c0.6,0,1.2,0.5,1.2,1.2S48.5,88.7,47.8,88.7z"></path> <path class="st0" d="M89.6,146.8H57.5c-3.1,0-5.6-2.5-5.6-5.6v-3.9h3.3v3.9c0,1.3,1,2.3,2.3,2.3h32.2c1.3,0,2.3-1,2.3-2.3v-3.9h3.3 v3.9C95.2,144.3,92.7,146.8,89.6,146.8z"></path> <path class="st0" d="M12.8,118.9c-0.6,0-1.2-0.5-1.2-1.2v-2.9c0-0.6,0.5-1.2,1.2-1.2c0.6,0,1.2,0.5,1.2,1.2v2.9 C14,118.4,13.5,118.9,12.8,118.9z M12.8,111.3c-0.6,0-1.2-0.5-1.2-1.2v-4.7c0-0.6,0.5-1.2,1.2-1.2c0.6,0,1.2,0.5,1.2,1.2v4.7 C14,110.8,13.5,111.3,12.8,111.3z M12.8,102c-0.6,0-1.2-0.5-1.2-1.2v-4.7c0-0.6,0.5-1.2,1.2-1.2c0.6,0,1.2,0.5,1.2,1.2v4.7 C14,101.5,13.5,102,12.8,102z M12.8,92.7c-0.6,0-1.2-0.5-1.2-1.2v-4.7c0-0.6,0.5-1.2,1.2-1.2c0.6,0,1.2,0.5,1.2,1.2v4.7 C14,92.2,13.5,92.7,12.8,92.7z M12.8,83.4c-0.6,0-1.2-0.5-1.2-1.2v-4.7c0-0.6,0.5-1.2,1.2-1.2c0.6,0,1.2,0.5,1.2,1.2v4.7 C14,82.8,13.5,83.4,12.8,83.4z M12.8,74c-0.6,0-1.2-0.5-1.2-1.2v-4.7c0-0.6,0.5-1.2,1.2-1.2c0.6,0,1.2,0.5,1.2,1.2v4.7 C14,73.5,13.5,74,12.8,74z M12.8,64.7c-0.6,0-1.2-0.5-1.2-1.2v-4.7c0-0.6,0.5-1.2,1.2-1.2c0.6,0,1.2,0.5,1.2,1.2v4.7 C14,64.2,13.5,64.7,12.8,64.7z M58.8,59.4h-4.7c-0.6,0-1.2-0.5-1.2-1.2s0.5-1.2,1.2-1.2h4.7c0.6,0,1.2,0.5,1.2,1.2 S59.4,59.4,58.8,59.4z M49.4,59.4h-4.7c-0.6,0-1.2-0.5-1.2-1.2s0.5-1.2,1.2-1.2h4.7c0.6,0,1.2,0.5,1.2,1.2S50.1,59.4,49.4,59.4z M40.1,59.4h-4.7c-0.6,0-1.2-0.5-1.2-1.2s0.5-1.2,1.2-1.2h4.7c0.6,0,1.2,0.5,1.2,1.2S40.8,59.4,40.1,59.4z M30.8,59.4h-4.7 c-0.6,0-1.2-0.5-1.2-1.2s0.5-1.2,1.2-1.2h4.7c0.6,0,1.2,0.5,1.2,1.2S31.4,59.4,30.8,59.4z M21.5,59.4h-4.7c-0.6,0-1.2-0.5-1.2-1.2 s0.5-1.2,1.2-1.2h4.7c0.6,0,1.2,0.5,1.2,1.2S22.1,59.4,21.5,59.4z"></path> <path class="st0" d="M144.9,129.4h-4.7c-0.6,0-1.2-0.5-1.2-1.2c0-0.6,0.5-1.2,1.2-1.2h4.7c0.6,0,1.2,0.5,1.2,1.2 C146.1,128.8,145.5,129.4,144.9,129.4z M135.6,129.4h-4.7c-0.6,0-1.2-0.5-1.2-1.2c0-0.6,0.5-1.2,1.2-1.2h4.7c0.6,0,1.2,0.5,1.2,1.2 C136.7,128.8,136.2,129.4,135.6,129.4z M126.2,129.4h-3.8c-0.6,0-1.2-0.5-1.2-1.2c0-0.6,0.5-1.2,1.2-1.2h3.8c0.6,0,1.2,0.5,1.2,1.2 C127.4,128.8,126.9,129.4,126.2,129.4z M146,125.9c-0.6,0-1.2-0.5-1.2-1.2V120c0-0.6,0.5-1.2,1.2-1.2c0.6,0,1.2,0.5,1.2,1.2v4.7 C147.2,125.3,146.7,125.9,146,125.9z M146,116.5c-0.6,0-1.2-0.5-1.2-1.2v-4.7c0-0.6,0.5-1.2,1.2-1.2c0.6,0,1.2,0.5,1.2,1.2v4.7 C147.2,116,146.7,116.5,146,116.5z M146,107.2c-0.6,0-1.2-0.5-1.2-1.2v-4.7c0-0.6,0.5-1.2,1.2-1.2c0.6,0,1.2,0.5,1.2,1.2v4.7 C147.2,106.7,146.7,107.2,146,107.2z"></path> <path class="st0" d="M139.8,97.3c-6.4,0-11.1-0.1-11.2-0.1c-0.9,0-1.6-0.8-1.6-1.7c0-0.9,0.8-1.6,1.7-1.6c0.1,0,14.8,0.4,27.6-0.2 c3.3-1,5.9-2.5,7.7-4.5c4-4.4,5.1-10.1,3-15.4c-2.4-6.1-8.2-10-15.7-10.6c-0.7-0.1-1.2-0.5-1.4-1.2c-0.2-0.6,0-1.3,0.5-1.8 c3.2-2.6,3.9-6.1,4-8.7c0.1-5.5-2.8-11.6-7.5-15.7c-4.4-3.8-10.2-5.6-15.7-4.9c-6.4,0.8-12.3,4.7-16.9,11.2 c-0.3,0.4-0.7,0.6-1.1,0.7c-0.4,0.1-0.9,0-1.3-0.3c-7.3-5.6-15-6.4-21.1-2.1c-5.6,3.9-8.3,11.2-6.3,17.3c0.2,0.5,0.1,1.1-0.3,1.5 c-0.3,0.4-0.8,0.7-1.4,0.6c-13.7-0.7-16.1,12.7-16.6,16.9c-0.1,0.9-0.9,1.6-1.8,1.5c-0.9-0.1-1.6-0.9-1.5-1.8 c1-9.4,6.2-19.3,17.8-19.8c-1.2-6.9,2-14.6,8.1-18.9c6.9-4.8,15.6-4.4,23.6,1.2c6.3-8.2,13.3-10.6,18.2-11.2 c6.5-0.8,13.2,1.3,18.3,5.7c5.3,4.6,8.7,11.8,8.6,18.2c-0.1,3.4-1,6.3-2.8,8.7c7.1,1.5,12.7,6,15.2,12.2c2.6,6.5,1.2,13.5-3.7,18.8 c-2.2,2.4-5.4,4.2-9.3,5.4c-0.1,0-0.3,0.1-0.4,0.1C150.9,97.2,144.8,97.3,139.8,97.3z"></path> <path class="st0" d="M124.1,86.1c-1.9,0-3.8-0.3-5.7-0.8c-0.7-0.2-1.2-0.9-1.2-1.6c0-1.2-0.6-2.4-1.7-3c-1.1-0.6-2.3-0.6-3.4,0 c-0.6,0.4-1.4,0.3-2-0.3c-1.4-1.3-2.6-2.9-3.5-4.6c-0.4-0.7-0.2-1.5,0.3-2c0.9-0.9,1.3-2.1,0.9-3.3c-0.3-1.2-1.3-2.1-2.5-2.4 c-0.7-0.2-1.2-0.8-1.2-1.6c0-1.9,0.2-3.8,0.7-5.7c0.2-0.7,0.9-1.2,1.7-1.2c1.3,0.1,2.5-0.6,3.1-1.7c0.7-1.1,0.6-2.5-0.1-3.6 c-0.4-0.6-0.4-1.5,0.2-2.1c1.3-1.4,2.8-2.5,4.5-3.5c0.7-0.4,1.6-0.2,2.1,0.4c0.9,1,2.2,1.5,3.5,1.1c1.3-0.3,2.3-1.4,2.5-2.7 c0.1-0.8,0.8-1.4,1.6-1.4c1.9,0,3.8,0.2,5.6,0.7c0.8,0.2,1.3,1,1.2,1.8c-0.2,1.3,0.5,2.7,1.7,3.3c1.2,0.7,2.6,0.6,3.7-0.2 c0.7-0.5,1.6-0.4,2.1,0.2c1.3,1.3,2.5,2.9,3.4,4.5c0.4,0.7,0.2,1.6-0.4,2.1c-1.1,0.8-1.5,2.2-1.2,3.5c0,0,0,0,0,0 c0.3,1.3,1.4,2.2,2.7,2.5c0.8,0.1,1.4,0.8,1.3,1.6c0,1.9-0.3,3.8-0.9,5.6c-0.2,0.7-0.9,1.2-1.7,1.2c-1.3-0.1-2.6,0.5-3.2,1.7 c-0.6,1.1-0.6,2.4,0.1,3.5c0.4,0.7,0.3,1.5-0.2,2c-1.4,1.3-2.9,2.5-4.6,3.4c-0.7,0.3-1.5,0.2-2-0.3c-0.9-0.9-2.2-1.3-3.4-1 c-1.2,0.3-2.1,1.2-2.4,2.4C125.5,85.6,124.9,86.1,124.1,86.1C124.1,86.1,124.1,86.1,124.1,86.1z M120.5,82.4 c0.8,0.2,1.7,0.3,2.6,0.4c0.9-1.7,2.4-3,4.3-3.5c1.9-0.5,4-0.1,5.6,1.1c0.7-0.4,1.4-0.9,2-1.5c-0.7-1.9-0.5-3.9,0.5-5.7 c1.1-1.8,2.9-3,4.9-3.2c0.2-0.8,0.3-1.6,0.4-2.3c-1.9-0.8-3.3-2.4-3.9-4.5c-0.5-2.1,0-4.3,1.3-5.9c-0.4-0.6-0.9-1.2-1.4-1.8 c-1.9,0.8-4.2,0.7-6-0.4c-1.9-1.1-3.1-3-3.3-5.1c-0.7-0.2-1.5-0.3-2.3-0.3c-0.8,1.9-2.5,3.4-4.5,4c-2,0.5-4.2,0-5.8-1.2 c-0.7,0.4-1.3,0.9-1.9,1.5c0.8,1.9,0.6,4-0.4,5.9c-1,1.7-2.8,2.9-4.7,3.2c-0.2,0.8-0.3,1.6-0.3,2.5c1.8,0.8,3.1,2.4,3.6,4.4 c0.5,1.9,0.1,3.9-1,5.5c0.5,0.7,1,1.4,1.6,2.1c1.8-0.6,3.8-0.4,5.5,0.6C119,78.9,120.1,80.5,120.5,82.4z M124.2,73 c-1.1,0-2.3-0.3-3.3-0.9c-1.5-0.9-2.6-2.3-3-4c-0.4-1.7-0.2-3.5,0.7-5c1.8-3.1,5.9-4.1,9-2.3c1.5,0.9,2.6,2.3,3,4 c0.4,1.7,0.2,3.5-0.7,5C128.7,71.8,126.5,73,124.2,73z M124.2,63.2c-1.1,0-2.2,0.6-2.8,1.6c-0.4,0.7-0.6,1.6-0.3,2.5 c0.2,0.8,0.8,1.6,1.5,2c1.6,0.9,3.6,0.4,4.5-1.2c0.4-0.7,0.6-1.6,0.3-2.5c-0.2-0.8-0.8-1.6-1.5-2C125.3,63.3,124.8,63.2,124.2,63.2 z"></path> <path class="st1" d="M146,99.6c3.5,0,6.3,2.8,6.3,6.3c0,3.5-2.8,6.3-6.3,6.3s-6.3-2.8-6.3-6.3C139.7,102.4,142.6,99.6,146,99.6z"></path> <path class="st1" d="M59.7,50.8c3.5,0,6.3,2.8,6.3,6.3c0,3.5-2.8,6.3-6.3,6.3c-3.5,0-6.3-2.8-6.3-6.3 C53.4,53.6,56.2,50.8,59.7,50.8z"></path> <path class="st0" d="M12.5,132.4c-4.4,0-8-3.6-8-8c0-4.4,3.6-8,8-8s8,3.6,8,8C20.5,128.8,16.9,132.4,12.5,132.4z M12.5,119.8 c-2.6,0-4.7,2.1-4.7,4.7c0,2.6,2.1,4.7,4.7,4.7s4.7-2.1,4.7-4.7C17.2,121.9,15.1,119.8,12.5,119.8z"></path> </g> </svg> 
