<svg xmlns="http://www.w3.org/2000/svg" width="205.333" height="205.333" viewBox="0 0 205.333 205.333"><defs><clipPath clipPathUnits="userSpaceOnUse" id="a"><path d="M0 154h154V0H0z"/></clipPath></defs><g clip-path="url(#a)" transform="matrix(1.33333 0 0 -1.33333 0 205.333)"><path d="M77 0C34.474 0 0 34.474 0 77s34.474 77 77 77 77-34.474 77-77S119.526 0 77 0" fill="#a5be6d"/><path d="M95.006 121.088H58.833c-1.596 0-2.89-1.31-2.89-2.924v-8.43c0-1.613 1.294-2.922 2.89-2.922h36.173c1.595 0 2.889 1.309 2.889 2.923v8.429c0 1.615-1.294 2.924-2.89 2.924M72.8 53.516h8.23v8.34h8.24v8.33h-8.24v8.337H72.8v-8.336h-8.24v-8.33h8.238zm17.575-5.263H63.457c-3.22 0-5.831 2.643-5.831 5.9v23.73c0 3.26 2.61 5.903 5.83 5.903h26.918c3.22 0 5.832-2.643 5.832-5.902l-.001-23.73c0-3.258-2.611-5.901-5.831-5.901m6.258 49.158c-3.252 0-5.884 3.872-5.884 7.16H63.083c0-3.288-2.631-7.16-5.882-7.16-6.5 0-11.771-5.334-11.771-11.912V41.858c0-4.936 3.953-8.933 8.828-8.933h45.317c4.879 0 8.826 3.997 8.826 8.933v43.64c0 6.579-5.27 11.913-11.77 11.913" fill="#fff"/></g></svg>