<svg xmlns="http://www.w3.org/2000/svg" width="205.333" height="205.333" viewBox="0 0 205.333 205.333"><defs><clipPath clipPathUnits="userSpaceOnUse" id="a"><path d="M0 154h154V0H0z"/></clipPath></defs><g clip-path="url(#a)" transform="matrix(1.33333 0 0 -1.33333 0 205.333)"><path d="M77 0C34.474 0 0 34.474 0 77s34.474 77 77 77 77-34.474 77-77S119.526 0 77 0" fill="#e9c564"/><path d="M72.774 32.606h4.352c.356 0 .932.004 1.288.005 1.02.004 2.99.005 4.01.005.356 0 .505-.249.33-.557l-.977-1.744c-.174-.309-.6-.558-.957-.558h-6.384c-.356 0-.787.248-.965.552l-1.019 1.746c-.178.304-.035.551.322.551M86.152 35.3c.354.02.427-.155.161-.39l-1.417-1.25c-.265-.235-.768-.424-1.125-.424l-5.358.002-1.288.002h-5.84c-.355 0-.884.157-1.179.353l-.65.43c-.296.193-.249.367.108.386zm-17.714 2.013c1.801.102 6.888.387 8.69.493.354.022.93.057 1.29.075l7.991.447a.787.787 0 00.785-.585l.036-.155c.08-.343-.147-.637-.5-.657-1.75-.097-6.569-.368-8.317-.467l-1.284-.072-8.308-.467a.831.831 0 00-.812.58l-.043.158c-.094.34.118.631.472.65m0 2.904c1.801.101 6.888.386 8.69.492.354.021.93.055 1.29.074l7.991.447a.79.79 0 00.785-.585l.036-.154c.08-.344-.147-.638-.5-.658-1.75-.097-6.569-.369-8.317-.467-.354-.019-.93-.05-1.284-.072l-8.308-.465a.83.83 0 00-.812.58l-.043.158c-.094.34.118.63.472.65m0 2.906l8.69.515c.354.021.641.042.641.046 0 .004.288.026.642.046l8.575.51.033.001c.017.001.094-.278.17-.622l.046-.217a.528.528 0 00-.506-.659c-1.749-.099-6.568-.368-8.316-.47-.354-.02-.93-.056-1.284-.075l-8.308-.466a.83.83 0 00-.812.58l-.043.157c-.094.34.118.633.472.654m.001 2.925l9.33.481 5.362.276a.6.6 0 00.645-.603v-.122a.684.684 0 00-.646-.673c-1.153-.06-3.563-.185-4.717-.243-.356-.018-.932-.044-1.286-.064l-8.373-.438a.787.787 0 00-.784.587l-.033.145c-.079.343.146.636.502.654m-.963 3.57H87.24a.641.641 0 00.643-.638v-2.982a.628.628 0 00-.643-.627l-2.308.041a.653.653 0 00-.643.648v1.14a.6.6 0 01-.644.603c-1.247-.066-3.984-.206-5.232-.265-.356-.018-.932-.042-1.286-.06L67.991 47a.601.601 0 00-.644.603v1.376c0 .352.03.637.065.637.036 0 .065 0 .065.002m12.861 65.358l-2.702-.915-18.406-6.232a5.098 5.098 0 00-1.65-.268c-2.76 0-4.999 2.13-4.999 4.757.015 1.883 1.166 3.633 3.07 4.392l21.018 7.124s.46.127.967.235c.372.08.771.15 1.03.15 2.76 0 4.997-2.13 4.997-4.76-.013-1.977-1.288-3.794-3.325-4.483m18.287-7.18l-20.989-7.1-18.395-6.224a5.216 5.216 0 00-1.662-.27c-2.76 0-4.998 2.13-4.998 4.758.015 1.881 1.166 3.631 3.07 4.39l21.985 7.443 17.631 5.97a4.98 4.98 0 001.685.276c2.76 0 4.997-2.13 4.997-4.759-.015-1.979-1.288-3.794-3.324-4.484m0-13.356l-20.989-7.1-18.395-6.225a5.188 5.188 0 00-1.662-.27c-2.76 0-4.998 2.13-4.998 4.757.015 1.881 1.166 3.632 3.07 4.391l21.985 7.442 17.631 5.97a4.98 4.98 0 001.685.275c2.76 0 4.997-2.13 4.997-4.757-.015-1.978-1.288-3.795-3.324-4.483m1.011-12.855l-7.25-2.414c-1.23-.633-1.78-3.075-1.79-4.34v-4.694h5.27a2.596 2.596 0 002.594-2.587v-2.502l-3.673-9.737c-.927-.912-2.653-1.659-4.037-1.785.254-.043.31-.22.095-.445l-1.3-1.362c-.245-.255-.73-.463-1.085-.463H67.354c-.356 0-.85.201-1.104.448l-1.439 1.394c-.214.208-.175.375.052.425-1.429.02-3.376.82-4.38 1.81l-3.672 9.736v2.5c0 1.42 1.162 2.568 2.595 2.568h4.567v4.696c0 1.333-.776 2.491-1.943 3.1l10.446 3.612c1.244-2.023 1.868-4.27 1.884-6.65v-4.756h5.851v4.754c.015 2.38.69 4.698 1.935 6.721 1.263 2.055 3.107 3.81 5.456 5.02l10.377 3.54c2.467.75 4.98-1.478 4.98-4.107-.016-1.977-1.438-3.507-3.324-4.482" fill="#fff" fill-rule="evenodd"/></g></svg>