<svg xmlns="http://www.w3.org/2000/svg" width="205.333" height="205.333" viewBox="0 0 205.333 205.333"><defs><clipPath clipPathUnits="userSpaceOnUse" id="a"><path d="M0 154h154V0H0z"/></clipPath></defs><g clip-path="url(#a)" transform="matrix(1.33333 0 0 -1.33333 0 205.333)"><path d="M77 0C34.474 0 0 34.474 0 77s34.474 77 77 77 77-34.474 77-77S119.526 0 77 0" fill="#e9c564"/><path d="M56.195 83.433c.679 0 1.287-.453 1.493-1.146l5.49-15.843c.052-.148.078-.302.078-.464 0-.842-.692-1.526-1.543-1.526-.254 0-.502.062-.701.167l-4.407 2.52-4.403-7.564H67.57c.849 0 1.539-.685 1.539-1.527V45.343c0-.845-.69-1.534-1.54-1.534l-25.497.005a1.529 1.529 0 00-1.432 1.114l-4.627 17.179a1.439 1.439 0 00-.111.563c0 .305.087.598.288.9l6.656 11.45-4.038 2.316a1.535 1.535 0 00-.82 1.35c0 .71.488 1.325 1.14 1.48l16.762 3.236c.098.02.2.03.304.03m39.187 3.48a1.611 1.611 0 00-.127-.286 1.548 1.548 0 00-1.75-.702l-16.581 3.198a1.458 1.458 0 00-.431.168 1.523 1.523 0 00-.07 2.607l4.409 2.528-4.4 7.562-7.681-13.211c-.413-.702-1.385-.965-2.106-.558L55.55 94.577a1.522 1.522 0 00-.563 2.087l12.75 21.909c.354.558 1.079.84 1.689.673l17.298-4.61c.196-.025.38-.09.56-.193a1.58 1.58 0 00.634-.69l6.668-11.451 4.042 2.313c.474.29 1.1.315 1.583.03.62-.355.915-1.08.722-1.72zm23.524-30.126l-12.668-12.561a1.634 1.634 0 00-.454-.388c-.232-.136-.49-.188-.918-.2l-13.328-.005v-4.628a1.526 1.526 0 00-.772-1.377c-.602-.345-1.427-.207-1.86.242l-11.191 12.77c-.07.079-.13.163-.191.263-.338.582-.245 1.332.254 1.853L88.85 65.384a1.5 1.5 0 00.38.307c.235.137.5.205.77.205a1.537 1.537 0 001.537-1.448v-5.053h8.802l-7.685 13.203a1.527 1.527 0 00.563 2.09l11.094 6.359c.718.4 1.694.139 2.104-.561l12.75-21.911a1.531 1.531 0 00-.26-1.79" fill="#fff" fill-rule="evenodd"/></g></svg>