<svg xmlns="http://www.w3.org/2000/svg" width="205.333" height="205.333" viewBox="0 0 205.333 205.333"><defs><clipPath clipPathUnits="userSpaceOnUse" id="a"><path d="M0 154h154V0H0z"/></clipPath></defs><g clip-path="url(#a)" transform="matrix(1.33333 0 0 -1.33333 0 205.333)"><path d="M77 0C34.474 0 0 34.474 0 77s34.474 77 77 77 77-34.474 77-77S119.526 0 77 0" fill="#91d79b"/><path d="M118.658 43.616c.011.254.016.503.016.746v.001c-.02 9.453-7.23 11.1-15.537 12.992-1.177.27-2.364.536-3.543.835-.466.122-.978.241-1.518.368-1.709.403-3.608.852-5.274 1.46-2.01.736-3.683 1.7-4.25 3.097-.343.836-.533 2.566-.248 3.915.13.612.618 1.304 1.183 2.096.263.363.521.737.73 1.078 1.318 2.19 2.193 4.11 2.832 6.23.155.514.254 1.071.35 1.608.091.506.178.997.31 1.45 1.315.578 2.715 2.717 3.436 5.478.771 2.938.531 5.641-.483 6.661a25.236 25.236 0 01-.126 6.057v7.253l2.062.892 6.234 2.692c1.628.705 1.628 1.858 0 2.561l-24.074 10.396c-1.63.703-4.295.703-5.927 0l-24.074-10.397c-1.629-.704-1.629-1.855 0-2.56l1.826-.788-.155-1.223a1.48 1.48 0 01-1.23-1.455c0-.658.428-1.218 1.024-1.407l-1.105-15.477c-.046-.648.083-1.677.288-2.292l.9-2.689c.204-.616.54-.616.744 0l.9 2.69c.204.614.334 1.643.288 2.291l-1.105 15.476a1.477 1.477 0 01-.21 2.861l-.14 1.14 4.21-1.82 2.065-.893v-7.227a25.148 25.148 0 01-.129-6.084c-1.018-1.019-1.256-3.72-.487-6.66.722-2.76 2.124-4.898 3.437-5.477.133-.455.221-.945.312-1.449.096-.538.194-1.096.352-1.61.638-2.119 1.511-4.04 2.83-6.228.205-.342.466-.714.727-1.079.568-.793 1.056-1.483 1.184-2.097.285-1.347.095-3.077-.247-3.913-.57-1.397-2.238-2.363-4.252-3.099-1.666-.609-3.563-1.057-5.274-1.459-.542-.129-1.053-.246-1.52-.367-1.178-.299-2.364-.567-3.54-.837-8.306-1.894-15.516-3.535-15.535-12.99 0-.24.01-.49.018-.743a2.139 2.139 0 01-.07-.53c0-5.11 18.326-9.253 40.932-9.253 22.605 0 40.93 4.142 40.93 9.253 0 .176-.023.351-.067.526" fill="#fff"/></g></svg>