<svg xmlns="http://www.w3.org/2000/svg" width="577.371" height="147.46" viewBox="0 0 577.371 147.46"><path fill="#575757" d="M8.904 85.101v24.704H0V43.753h19.512c4.183 0 7.82.483 10.908 1.452 3.09.968 5.652 2.343 7.681 4.127a16.613 16.613 0 014.542 6.452c1.002 2.52 1.5 5.328 1.5 8.434 0 3.071-.538 5.885-1.614 8.435a18.115 18.115 0 01-4.729 6.595c-2.077 1.841-4.653 3.28-7.727 4.306-3.076 1.031-6.598 1.548-10.562 1.548H8.904zm0-7.098h10.611c2.552 0 4.805-.337 6.759-1.015 1.95-.674 3.59-1.619 4.91-2.833a11.821 11.821 0 003-4.355c.676-1.69 1.013-3.549 1.013-5.579 0-4.208-1.299-7.497-3.897-9.863-2.598-2.365-6.527-3.549-11.785-3.549H8.904v27.194zm54.395 31.805H54.35V43.753h8.949v66.055zm21.435-27.565v27.564H75.83V43.753h18.683c4.183 0 7.794.421 10.84 1.269 3.044.846 5.558 2.065 7.542 3.665 1.983 1.599 3.45 3.526 4.403 5.784.955 2.259 1.431 4.786 1.431 7.582 0 2.335-.369 4.518-1.107 6.543a17.273 17.273 0 01-3.205 5.463c-1.399 1.613-3.106 2.988-5.121 4.127-2.017 1.139-4.299 1.998-6.85 2.581 1.107.647 2.092 1.587 2.949 2.809l19.282 26.232h-7.93c-1.63 0-2.83-.631-3.597-1.891L95.99 84.315c-.524-.74-1.093-1.269-1.707-1.592-.613-.32-1.537-.48-2.768-.48h-6.781zm0-6.5H94.1c2.615 0 4.913-.314 6.897-.945 1.984-.628 3.646-1.52 4.983-2.672a11.087 11.087 0 003.021-4.127c.676-1.596 1.016-3.365 1.016-5.301 0-3.934-1.299-6.9-3.897-8.898-2.598-1.997-6.467-2.996-11.602-2.996h-9.781v24.939h-.003zm83.079-21.666c-.278.462-.569.808-.878 1.039-.308.229-.707.349-1.196.349-.524 0-1.132-.262-1.823-.785-.69-.521-1.568-1.098-2.63-1.729-1.062-.629-2.337-1.205-3.829-1.727-1.491-.521-3.297-.785-5.42-.785-2 0-3.766.27-5.307.808-1.54.537-2.82 1.269-3.852 2.19a9.019 9.019 0 00-2.329 3.249c-.523 1.242-.784 2.59-.784 4.034 0 1.842.453 3.373 1.361 4.588.906 1.213 2.105 2.25 3.597 3.112 1.492.86 3.182 1.605 5.072 2.235 1.892.632 3.829 1.285 5.813 1.96a68.717 68.717 0 015.813 2.28c1.891.847 3.58 1.912 5.072 3.206 1.491 1.288 2.69 2.869 3.597 4.748.908 1.874 1.361 4.177 1.361 6.91 0 2.891-.493 5.6-1.475 8.137-.985 2.537-2.419 4.743-4.312 6.614-1.891 1.874-4.215 3.353-6.965 4.425-2.755 1.075-5.882 1.608-9.39 1.608-4.272 0-8.173-.771-11.691-2.327-3.523-1.548-6.526-3.646-9.02-6.29l2.584-4.24a3.4 3.4 0 01.899-.854 2.12 2.12 0 011.178-.345c.646 0 1.385.345 2.214 1.036s1.867 1.451 3.115 2.286c1.243.829 2.751 1.589 4.521 2.277 1.769.69 3.929 1.039 6.481 1.039 2.122 0 4.01-.293 5.674-.876 1.658-.583 3.068-1.407 4.224-2.469a10.728 10.728 0 002.651-3.803c.614-1.476.924-3.118.924-4.931 0-1.998-.454-3.635-1.36-4.909-.908-1.276-2.097-2.344-3.573-3.2-1.475-.862-3.159-1.592-5.053-2.194l-5.812-1.841a58.471 58.471 0 01-5.814-2.189 18.814 18.814 0 01-5.052-3.226c-1.475-1.321-2.666-2.971-3.574-4.955-.909-1.98-1.361-4.43-1.361-7.35 0-2.336.452-4.594 1.361-6.778a17.408 17.408 0 013.945-5.809c1.721-1.688 3.852-3.042 6.388-4.059 2.536-1.013 5.45-1.519 8.742-1.519 3.691 0 7.057.583 10.103 1.751 3.041 1.169 5.702 2.859 7.978 5.071l-2.168 4.238z"/><path fill="#D74446" d="M417.928 47.339a8.924 8.924 0 001.423-2.687c.315-.959.473-1.845.473-2.637 0-1.419-.467-2.567-1.423-3.508-.965-.931-2.632-1.386-5.077-1.386-1.462 0-2.739.273-3.792.816-1.075.545-1.974 1.24-2.682 2.073a8.619 8.619 0 00-1.605 2.793c-.365 1.059-.539 2.058-.536 3.068.121 1.242.686 2.284 1.73 3.093 1.033.804 2.874 1.212 5.475 1.212 1.363 0 2.576-.275 3.591-.815 1.002-.548 1.826-1.233 2.423-2.022z"/><path fill="#221F1F" d="M327.279 66.055l-1.166 2.723c.688-1.468 1.266-2.776 1.708-3.931l-.544 1.208h.002z"/><path fill="#D74446" d="M564.688 88.743c-.276-2.297-.879-5.342-2.847-5.342l-.188.014c-1.299.154-2.777 1.907-5.48 5.251-3.724 4.555-8.768 10.763-13.947 11.376-4.156.442-7.128-1.722-7.556-5.478-.146-1.232-.022-2.433.11-3.698l.296-2.88 1.569-2.244c4.37-6.285 42.628-61.945 40.651-78.983C576.827 2.776 573.284 0 568.68 0l-1.211.065c-7.413.855-16.616 11.542-28.153 32.667-6.678 12.271-14.262 32.998-16.13 51.601l-.254 2.49-.178.21c-5.201 6.153-9.2 9.686-12.146 10.708a5.1 5.1 0 01-1.501.254 3.37 3.37 0 01-2.56-1.13c-.951-1.045-.951-2.623-.951-4.157 0-1.186.175-2.554.531-4.185.32-1.537.768-3.245 1.312-5.069a97.208 97.208 0 011.777-5.475 279.676 279.676 0 011.912-5.321l1.691-4.643c.512-1.434.865-2.535 1.078-3.367l.045-.554c0-.923-.476-1.812-1.413-2.633-.967-.854-2.266-1.275-3.866-1.275-.481 0-1.067.11-1.758.346-.735.23-1.432.508-2.181.854-.854.392-1.689.789-2.477 1.2l-.566.3-.465-.433a19.557 19.557 0 00-3.167-2.4c-1.015-.576-2.28-1.121-3.848-1.644-1.476-.499-3.245-.745-5.26-.745-3.922 0-7.521.688-10.71 2.044-.846.354-1.67.744-2.46 1.154l-.39.213-.412-.202c-.53-.243-1.177-.421-1.976-.52a25.41 25.41 0 00-3.058-.167h-24.966l.713-1.334 5.18-9.706a303.812 303.812 0 002.197-4.031l.5-.935 1.67-3.065a310.723 310.723 0 011.979-3.597l.566-1.021 1.009-1.877c.691-1.299 1.211-2.344 1.593-3.209.345-.812.524-1.622.524-2.4 0-1.458-.459-2.457-1.382-3.057a6.369 6.369 0 00-3.466-.999c-1.365 0-2.709.354-3.991 1.064-1.243.71-2.321 1.9-3.189 3.556l-15.417 30.611h-8.333c-.956 0-1.811.176-2.557.543a7.966 7.966 0 00-1.957 1.378 5.81 5.81 0 00-1.175 1.679c-.323.711-.39 1.144-.39 1.375 0 .832.39 1.577 1.188 2.269.58.489 1.913 1.077 4.959 1.077h4.555l-.652 1.311a553.167 553.167 0 00-3.936 8.01l-.078.133c-4.792 6.678-10.237 13.477-17.605 17.96a28.932 28.932 0 01-4.561 2.299c-1.531.611-3.068.924-4.544.924-1.388 0-2.454-.249-3.245-.746-.934-.592-1.409-1.7-1.409-3.322 0-.531.044-1.089.133-1.667l.265-1.357.335-1.199a44.968 44.968 0 011.688-4.488 79.62 79.62 0 012.078-4.387c.711-1.396 1.354-2.7 1.936-3.899l1.21-2.587.857-1.8.188-.389.625-1.264.574-1.167c.426-.855.992-1.922 1.67-3.187a3.36 3.36 0 00.367-1.011l.18-1.242c-.014-1.477-.558-2.72-1.681-3.71-1.155-1.034-2.501-1.531-4.112-1.531-.945 0-1.891.243-2.813.743-1.009.556-1.833 1.412-2.433 2.522-10.002 18.647-30.168 34.308-38.981 37.307l-1.045.312c-1.531.4-6.155 1.885-4.107-.37 5.76-6.78 15.699-16.945 17.833-25.775 4.079-16.896-14.024-18.207-24.776-11.998l-1.056.646.282-1.511c.1-.69.154-1.2.154-1.522l-.033-.656.033-.488c0-1.599-.48-2.81-1.445-3.644-.956-.821-2.51-1.234-4.646-1.234-.631 0-1.244.133-1.833.397-.724.301-1.401.791-2.059 1.478-1.2 1.255-2.278 2.732-3.245 4.441a53.513 53.513 0 00-1.979 3.89l-.044.113c-.445 1.153-1.022 2.464-1.708 3.93l-.047.11-.376.778a1167.16 1167.16 0 01-3.922 8.589 200.653 200.653 0 01-4.058 8.303c-3.8 7.313-4.884 8.309-6.968 10.575-1.854 2.025-3.703 2.391-5.138 2.391-1.311.011-2.366-.611-3.079-1.788-.678-1.155-1.009-2.8-1.009-5.02 0-1.199.168-2.609.511-4.185a72.802 72.802 0 011.311-5.069 130.46 130.46 0 011.78-5.461 409.394 409.394 0 011.906-5.323l1.694-4.641a44.467 44.467 0 001.104-3.378l.027-.557c0-.935-.453-1.801-1.409-2.633-.99-.865-2.256-1.275-3.878-1.275-.468 0-1.07.11-1.767.346-.746.243-1.47.532-2.145.854-.882.392-1.703.789-2.504 1.212l-.575.288-.47-.444a18.448 18.448 0 00-3.143-2.389c-1.009-.576-2.27-1.111-3.848-1.644-1.479-.502-3.246-.745-5.258-.745-3.922 0-7.525.691-10.715 2.044a33.112 33.112 0 00-4.404 2.267l-.234.156c-.942.676-4.224 3.52-6.991 5.918l-2.646 2.298c-4.7 4.099-9.569 8.32-10.859 9.252a1192.717 1192.717 0 01-7.735 5.476 118.187 118.187 0 01-8.137 5.213c-2.677 1.578-6.079 3.161-10.093 4.731-4.045 1.587-7.181 2.399-9.314 2.399-4.567 0-7.924-1.167-9.959-3.466-2.013-2.256-3.034-5.299-3.034-9.021 0-2.878.532-6.142 1.591-9.707 1.011-3.445 2.456-7.141 4.29-10.973 1.801-3.788 3.945-7.664 6.392-11.542a148.58 148.58 0 017.771-11.208 137.122 137.122 0 018.548-10.13c2.934-3.156 5.866-5.943 8.726-8.31 2.801-2.344 5.589-4.243 8.28-5.655 2.712-1.397 5.202-2.112 7.405-2.112 1.866 0 3.233.544 4.065 1.611.769 1 1.158 2.31 1.158 3.897 0 1.208-.289 2.541-.889 4.075a34.782 34.782 0 01-2.112 4.345 38.482 38.482 0 01-2.787 4.243c-1.09 1.42-2.035 2.555-2.87 3.466-.743.934-1.245 1.732-1.522 2.4-.255.634-.391 1.199-.391 1.676 0 .633.155 1.111.489 1.443.436.444.915.767 1.47.979a7.142 7.142 0 001.845.443c.68.065 1.212.1 1.622.1 1.734 0 3.303-.421 4.789-1.296 1.545-.912 2.991-2.112 4.312-3.598a29.753 29.753 0 003.592-5.09 48.237 48.237 0 002.712-5.753 38.392 38.392 0 001.723-5.553c.399-1.733.6-3.243.6-4.466 0-2.252-.376-4.167-1.108-5.686-.713-1.5-1.701-2.721-2.958-3.654-1.278-.934-2.776-1.622-4.457-2.033a22.622 22.622 0 00-5.536-.665c-3.948 0-8.035.756-12.139 2.252-4.127 1.488-8.305 3.589-12.405 6.232-4.135 2.655-8.201 5.807-12.114 9.396a117.774 117.774 0 00-11.173 11.74 131.647 131.647 0 00-9.659 13.24 119.177 119.177 0 00-7.557 13.839c-2.112 4.588-3.778 9.154-4.947 13.596-1.181 4.419-1.77 8.596-1.77 12.404 0 3.034.443 5.876 1.348 8.44a16.584 16.584 0 004.188 6.523c1.91 1.811 4.415 3.253 7.446 4.287 3.067 1.036 6.815 1.566 11.148 1.566 3.648 0 8.05-.807 13.073-2.398 5.012-1.598 9.182-3.245 12.382-4.898a70.756 70.756 0 008.904-5.464 124.87 124.87 0 005.293-4.065l1.734-1.41-.258 2.217a23.038 23.038 0 00-.178 2.77c0 2.454.47 4.566 1.404 6.244.933 1.699 2.109 3.098 3.5 4.176 1.412 1.089 2.89 1.863 4.415 2.319 1.58.489 2.946.735 4.09.735 2.29 0 4.591-.545 6.846-1.612 2.29-1.077 4.523-2.487 6.66-4.195a49.667 49.667 0 006.003-5.721c1.937-2.176 3.568-4.185 5.013-6.153 1.267-1.713 2.485-3.487 3.862-5.107-2.35 5.628-4.23 10.746-1.457 16.622 3.547 7.518 10.879 5.954 16.901 3.046-.171 1.114-.704 2.078-1.222 3.156a1143.55 1143.55 0 00-2.691 5.55 1252.686 1252.686 0 00-7.659 13.931 54.125 54.125 0 01-1.235 2.664l-.221.465-.423.779a71.49 71.49 0 01-1.401 2.999 75.255 75.255 0 00-1.477 3.209 23.42 23.42 0 00-1.199 3.321 12.973 12.973 0 00-.469 2.646l.012.19c.045.652.145 1.233.324 1.741l.144.354c.243.524.611.934 1.078 1.224 1.034.645 2.344.968 3.936.968 1.244 0 2.358-.232 3.345-.699a9.079 9.079 0 002.647-1.852 12.703 12.703 0 002.057-2.682 20.51 20.51 0 001.559-3.242c.133-.4.442-1.141.929-2.255l1.684-3.834c.644-1.456 12.114-30.143 15.071-37.273a111.075 111.075 0 015.545-11.587c6.434-11.629 18.048-19.383 26.854-17.629l.746.234.39.176c.302.176.556.392.755.653.199.268.349.578.456.935.39 1.299.29 3.057-.312 5.244-.42 1.703-1.188 3.444-2.288 5.188-1.134 1.799-7.723 8.67-9.37 10.174-.867.788-7.357 7.264-11.359 9.173-3.035 1.789 1.542 6.155 2.836 7.043 6.891 4.743 18.65 2.197 25.351-1.188 5.704-2.877 12.028-6.62 17.119-10.495l1.631-1.243-.177 2.034c-.044.542-.066 1.1-.066 1.652 0 1.145.089 2.212.266 3.19l.227.989c.476 1.876 1.332 3.372 2.554 4.464 2.045 1.821 4.925 2.755 8.571 2.755 2.59 0 5.21-.524 7.8-1.522 2.601-1.02 5.237-2.41 7.847-4.132a62.825 62.825 0 007.181-5.495l1.646-1.442-.146 2.178-.058 1.608c0 1.241.157 2.419.47 3.521a6.83 6.83 0 001.487 2.753c.713.779 1.647 1.388 2.791 1.824 1.188.467 2.703.71 4.489.71 2.747 0 5.638-.566 8.606-1.678 3.013-1.122 6.103-2.653 9.159-4.555a97.668 97.668 0 009.403-6.661l.121-.088 1.388-1.167.19 1.733c.108 2.009.567 3.753 1.368 5.188.945 1.708 2.123 3.123 3.502 4.179 1.413 1.09 2.889 1.863 4.414 2.319 1.567.489 2.946.732 4.102.732 2.289 0 4.591-.542 6.835-1.608 2.313-1.089 4.547-2.499 6.659-4.198a49.341 49.341 0 006.014-5.719 93.49 93.49 0 005.025-6.152c1.066-1.44 2.122-2.908 3.239-4.295-2.549 5.693-4.986 15.19 1.326 19.72 4.633 3.331 12.178.821 16.639-1.448 3.472-1.769 4.613-2.771 9.453-5.903 1.901 6.824 5.292 11.771 13.161 11.771.746 0 1.523-.047 2.3-.144 8.38-.971 18.187-7.064 23.311-14.483l.255-.37c1.39-1.962 2.7-3.819 2.335-6.954l-.19-1.402zm-26.174-26.975c1.51-5.366 3.334-10.696 5.155-15.028 2.513-6.111 15.45-29.447 20.097-34.513l2.069-2.252-.514 3.02c-1.299 7.764-15.76 33.844-25.165 49.485l-3.48 5.796 1.838-6.508zm-248.55 17.349c-.699 1.32-1.633 2.833-2.856 4.609-1.143 1.689-2.434 3.387-3.933 5.208a63.382 63.382 0 01-4.49 4.9c-1.545 1.486-3.058 2.73-4.514 3.687-1.557 1.034-2.965 1.564-4.212 1.564-1.534 0-2.79-.354-3.735-1.05a6.7 6.7 0 01-2.104-2.482c-.476-.939-.786-1.995-.933-3.129a27.987 27.987 0 01-.167-3.09c0-2.477.497-4.953 1.499-7.363a23.342 23.342 0 014.034-6.532 21.46 21.46 0 015.858-4.743c2.255-1.223 4.599-1.834 6.979-1.834.858 0 1.812.133 2.924.422 1.113.289 2.146.71 3.155 1.288a9.306 9.306 0 012.536 2.1c.757.912 1.146 1.945 1.146 3.064.004.805-.375 1.871-1.187 3.381zm175.423-9.652a35.975 35.975 0 00-2.167 2.933l-.177.243a71.77 71.77 0 01-1.335 2.245l-.824 1.31c-6.979 10.953-15.392 18.394-25.008 22.136-1.605.634-2.998.957-4.143.957-1.001 0-1.758-.296-2.244-.898-.445-.553-.675-1.277-.675-2.156 0-1.266.288-2.675.885-4.312.589-1.586 1.155-2.93 1.735-4.082a563.089 563.089 0 004.444-9.074 484.376 484.376 0 015.047-10.121l.255-.486 25.444-.189-1.237 1.494zm28.677 9.64c-.768 1.421-1.735 2.977-2.871 4.621-1.119 1.656-2.41 3.364-3.922 5.199a56.38 56.38 0 01-4.5 4.909c-1.548 1.486-3.057 2.73-4.511 3.687-1.581 1.056-2.957 1.57-4.215 1.57-1.522 0-2.777-.359-3.736-1.045a7.054 7.054 0 01-2.112-2.487 9.86 9.86 0 01-.909-3.132 27.325 27.325 0 01-.177-3.093c0-2.44.497-4.917 1.501-7.352a23.281 23.281 0 014.046-6.544 21.644 21.644 0 015.846-4.743c2.244-1.22 4.6-1.831 6.981-1.831.857 0 1.811.133 2.936.422 1.111.289 2.178.722 3.146 1.288a9.665 9.665 0 012.534 2.088c.766.935 1.142 1.968 1.142 3.077-.006.788-.377 1.855-1.179 3.366z"/><path fill="#221F1F" d="M290.365 147.46c-.199-.5-.3-1.078-.322-1.741.046.652.145 1.229.322 1.741zm4.212-14.107a68.03 68.03 0 01-1.401 2.999 74.503 74.503 0 00-1.479 3.215 23.745 23.745 0 00-1.199 3.316 12.502 12.502 0 00-.466 2.646v-.152c0-.89.134-1.791.399-2.726.265-.92.589-1.841.989-2.741.397-.898.81-1.791 1.222-2.646a58.73 58.73 0 001.155-2.487l.78-1.424z"/></svg>