<?xml version="1.0" encoding="UTF-8"?> <!-- Generator: Adobe Illustrator 25.0.0, SVG Export Plug-In . SVG Version: 6.00 Build 0) --> <svg xmlns="http://www.w3.org/2000/svg" xmlns:xlink="http://www.w3.org/1999/xlink" id="Layer_1" x="0px" y="0px" viewBox="0 0 300 323" style="enable-background:new 0 0 300 323;" xml:space="preserve"> <style type="text/css"> .st0{fill:#F46969;} .st1{fill:#222222;} .st2{fill:#282828;} .st3{fill:#2B2B2B;} .st4{fill:#333333;} .st5{fill:#005C8D;} .st6{fill:#9DD4ED;} .st7{fill-rule:evenodd;clip-rule:evenodd;fill:#FFFFFF;} .st8{fill-rule:evenodd;clip-rule:evenodd;fill:#DAF0F5;} .st9{fill-rule:evenodd;clip-rule:evenodd;fill:#8EC2FE;} .st10{fill:#FFFFFF;} .st11{fill:#4BB0E4;} .st12{fill:#D2EDFF;} .st13{fill:#3796C7;} .st14{fill:#DD3333;} .st15{fill:#A3A3A3;} .st16{fill:#F6F6F6;} .st17{fill:#B7B7B7;} .st18{fill:#D3D3D3;} .st19{fill:#494949;} .st20{fill:#FFAA83;} .st21{fill:#FFC4B1;} </style> <g> <g> <path class="st0" d="M280.5,212.2l-105.4-61c-12.3-7.1-27.5-7-39.7,0.4l-48,29.2c-25.2,15.3-24.8,52.1,0.7,66.9l105.4,61 c12.3,7.1,27.5,7,39.7-0.4l48-29.2C306.4,263.7,306,227,280.5,212.2z"></path> </g> </g> <g> <g> <g> <g> <g> <path class="st1" d="M235.3,237l-45.2,25.6c-2.5,1.4-5.5,1.4-8,0l-48.9-27.5c-5.5-3.1-5.5-11,0-14.1l45.2-25.6 c2.5-1.4,5.5-1.4,8,0l48.9,27.5C240.8,226,240.8,233.9,235.3,237z"></path> </g> </g> </g> <g> <g> <g> <g> <polygon class="st2" points="138.3,228.3 184.2,254.8 232.6,226.3 205.3,210.7 "></polygon> </g> </g> <g> <path class="st3" d="M161.5,194.5c0,9.3-4.7,18-12.5,23.1l-10.7,6.9l45.9,26.5l10.6-6.8c7.7-5,12.4-13.6,12.4-22.9v-5.6 L161.5,189V194.5z"></path> </g> <g> <g> <g> <g> <polygon class="st1" points="138.3,228.3 184.2,254.8 184.3,250.9 138.4,224.4 "></polygon> </g> </g> </g> </g> <g> <g> <g> <path class="st2" d="M281.4,94.4l-164-93.6c-1.6-0.9-3.1-1-4.2-0.4l-5.8,3.4c1.1-0.6,2.6-0.5,4.2,0.4l164,93.6 c3.2,1.8,5.9,6.3,5.8,10l-0.3,143.7c0,1.8-0.7,3.1-1.7,3.7l5.8-3.4c1.1-0.6,1.7-1.9,1.7-3.7l0.3-143.7 C287.2,100.7,284.6,96.3,281.4,94.4z"></path> </g> </g> </g> <g> <g> <g> <path class="st4" d="M275.6,97.8l-164-93.6c-3.2-1.9-5.9-0.4-5.9,3.3l-0.3,143.7c0,3.7,2.6,8.2,5.9,10.1l164,93.6 c3.2,1.8,5.9,0.3,5.9-3.3l0.3-143.7C281.4,104.1,278.8,99.6,275.6,97.8z"></path> </g> </g> </g> <g> <g> <g> <polygon class="st5" points="111.9,147.4 274.6,240.3 274.6,107.8 111.9,14.9 "></polygon> </g> </g> </g> </g> <g> <g> <g> <g> <polygon class="st6" points="154.3,65.8 120.2,45.9 120.2,24.1 154.3,44 "></polygon> </g> </g> </g> <g> <g> <g> <polygon class="st6" points="154.3,90.6 120.2,70.7 120.2,48.9 154.3,68.8 "></polygon> </g> </g> </g> <g> <g> <g> <polygon class="st6" points="154.3,115.5 120.2,95.6 120.2,73.8 154.3,93.7 "></polygon> </g> </g> </g> <g> <g> <g> <polygon class="st6" points="154.3,140.4 120.2,120.5 120.2,98.6 154.3,118.5 "></polygon> </g> </g> </g> <g> <g> <g> <polygon class="st6" points="154.3,165.2 120.2,145.3 120.2,123.5 154.3,143.4 "></polygon> </g> </g> </g> <g> <g id="XMLID_51_"> <g> <g> <g> <polygon class="st7" points="137.8,41 130.4,36.6 130.4,35.2 137.8,39.5 "></polygon> </g> </g> </g> </g> <g id="XMLID_50_"> <g> <g> <g> <polygon class="st8" points="136.7,44.3 127.1,38.7 127.1,37.3 136.7,42.8 "></polygon> </g> </g> </g> </g> <g id="XMLID_49_"> <g> <g> <g> <polygon class="st8" points="143.6,48.3 138.6,45.4 138.6,43.9 143.6,46.9 "></polygon> </g> </g> </g> </g> <g id="XMLID_48_"> <g> <g> <g> <polygon class="st8" points="141.1,50.4 130.2,44 130.2,42.6 141.1,48.9 "></polygon> </g> </g> </g> </g> <g id="XMLID_47_"> <g> <g> <g> <polygon class="st8" points="145.9,53.2 142.7,51.3 142.7,49.9 145.9,51.8 "></polygon> </g> </g> </g> </g> <g id="XMLID_46_"> <g> <g> <g> <polygon class="st8" points="134.5,50.3 127.1,46 127.1,44.6 134.5,48.9 "></polygon> </g> </g> </g> </g> <g id="XMLID_45_"> <g> <g> <g> <polygon class="st7" points="139.8,53.4 135.9,51.2 135.9,49.7 139.8,52 "></polygon> </g> </g> </g> </g> <g id="XMLID_44_"> <g> <g> <g> <polygon class="st8" points="146.2,57.2 141.4,54.4 141.4,53 146.2,55.7 "></polygon> </g> </g> </g> </g> </g> <g> <g id="XMLID_43_"> <g> <g> <g> <polygon class="st8" points="146.2,80.8 136.7,75.2 136.7,73.8 146.2,79.3 "></polygon> </g> </g> </g> </g> <g id="XMLID_42_"> <g> <g> <g> <polygon class="st8" points="134.8,74.1 129.8,71.2 129.8,69.7 134.8,72.7 "></polygon> </g> </g> </g> </g> <g id="XMLID_41_"> <g> <g> <g> <polygon class="st8" points="143.1,75.4 132.3,69.1 132.3,67.7 143.1,74 "></polygon> </g> </g> </g> </g> <g id="XMLID_40_"> <g> <g> <g> <polygon class="st8" points="130.6,68.2 127.4,66.3 127.4,64.8 130.6,66.7 "></polygon> </g> </g> </g> </g> <g id="XMLID_39_"> <g> <g> <g> <polygon class="st8" points="146.2,73.4 138.9,69.2 138.9,67.7 146.2,72 "></polygon> </g> </g> </g> </g> <g id="XMLID_38_"> <g> <g> <g> <polygon class="st7" points="137.4,68.3 133.5,66 133.5,64.6 137.4,66.9 "></polygon> </g> </g> </g> </g> <g id="XMLID_37_"> <g> <g> <g> <polygon class="st8" points="131.9,65.1 127.1,62.3 127.1,60.9 131.9,63.6 "></polygon> </g> </g> </g> </g> </g> <g> <g id="XMLID_36_"> <g> <g> <g> <polygon class="st7" points="137.8,91.4 130.4,87.1 130.4,85.6 137.8,90 "></polygon> </g> </g> </g> </g> <g id="XMLID_35_"> <g> <g> <g> <polygon class="st8" points="136.7,94.7 127.1,89.1 127.1,87.7 136.7,93.3 "></polygon> </g> </g> </g> </g> <g id="XMLID_34_"> <g> <g> <g> <polygon class="st8" points="143.6,98.7 138.6,95.8 138.6,94.4 143.6,97.3 "></polygon> </g> </g> </g> </g> <g id="XMLID_33_"> <g> <g> <g> <polygon class="st8" points="141.1,100.8 130.2,94.5 130.2,93 141.1,99.4 "></polygon> </g> </g> </g> </g> <g id="XMLID_32_"> <g> <g> <g> <polygon class="st8" points="145.9,103.6 142.7,101.7 142.7,100.3 145.9,102.2 "></polygon> </g> </g> </g> </g> </g> <g> <g id="XMLID_31_"> <g> <g> <g> <polygon class="st8" points="141.1,121.2 130.2,114.9 130.2,113.4 141.1,119.8 "></polygon> </g> </g> </g> </g> <g id="XMLID_30_"> <g> <g> <g> <polygon class="st8" points="145.9,124 142.7,122.1 142.7,120.7 145.9,122.6 "></polygon> </g> </g> </g> </g> <g id="XMLID_29_"> <g> <g> <g> <polygon class="st8" points="134.5,121.1 127.1,116.9 127.1,115.4 134.5,119.7 "></polygon> </g> </g> </g> </g> <g id="XMLID_28_"> <g> <g> <g> <polygon class="st7" points="139.8,124.3 135.9,122 135.9,120.6 139.8,122.8 "></polygon> </g> </g> </g> </g> <g id="XMLID_27_"> <g> <g> <g> <polygon class="st8" points="146.2,128 141.4,125.2 141.4,123.8 146.2,126.6 "></polygon> </g> </g> </g> </g> </g> <g> <g id="XMLID_26_"> <g> <g> <g> <polygon class="st7" points="137.8,139.6 130.4,135.3 130.4,133.9 137.8,138.2 "></polygon> </g> </g> </g> </g> <g id="XMLID_25_"> <g> <g> <g> <polygon class="st8" points="141.1,149 130.2,142.7 130.2,141.2 141.1,147.6 "></polygon> </g> </g> </g> </g> <g id="XMLID_24_"> <g> <g> <g> <polygon class="st8" points="145.9,151.9 142.7,150 142.7,148.5 145.9,150.4 "></polygon> </g> </g> </g> </g> <g id="XMLID_23_"> <g> <g> <g> <polygon class="st8" points="134.5,149 127.1,144.7 127.1,143.2 134.5,147.5 "></polygon> </g> </g> </g> </g> <g id="XMLID_22_"> <g> <g> <g> <polygon class="st7" points="139.8,152.1 135.9,149.8 135.9,148.4 139.8,150.6 "></polygon> </g> </g> </g> </g> <g id="XMLID_21_"> <g> <g> <g> <polygon class="st8" points="146.2,155.8 141.4,153 141.4,151.6 146.2,154.4 "></polygon> </g> </g> </g> </g> </g> <g> <g id="XMLID_20_"> <g> <g> <g> <g> <polygon class="st9" points="249.8,161.3 244.2,158 244.2,156.9 249.8,160.2 "></polygon> </g> </g> </g> </g> </g> <g id="XMLID_19_"> <g> <g> <g> <g> <polygon class="st9" points="259.5,167.1 251.9,162.6 251.9,161.5 259.5,166 "></polygon> </g> </g> </g> </g> </g> <g id="XMLID_18_"> <g> <g> <g> <g> <polygon class="st9" points="248,163.2 240.8,159 240.8,157.9 248,162.1 "></polygon> </g> </g> </g> </g> </g> <g id="XMLID_17_"> <g> <g> <g> <g> <polygon class="st9" points="253.2,166.3 249.4,164.1 249.4,163 253.2,165.2 "></polygon> </g> </g> </g> </g> </g> <g id="XMLID_16_"> <g> <g> <g> <g> <polygon class="st9" points="259.5,170.1 254.8,167.3 254.8,166.2 259.5,169 "></polygon> </g> </g> </g> </g> </g> <g id="XMLID_15_"> <g> <g> <g> <g> <polygon class="st9" points="251.3,167.9 243.1,163.1 243.1,162 251.3,166.8 "></polygon> </g> </g> </g> </g> </g> <g id="XMLID_14_"> <g> <g> <g> <g> <polygon class="st9" points="255,170.1 252.5,168.6 252.5,167.6 255,169 "></polygon> </g> </g> </g> </g> </g> <g id="XMLID_13_"> <g> <g> <g> <g> <polygon class="st9" points="246.3,167.9 240.8,164.6 240.8,163.5 246.3,166.8 "></polygon> </g> </g> </g> </g> </g> <g id="XMLID_12_"> <g> <g> <g> <g> <polygon class="st9" points="250.3,170.3 247.4,168.5 247.4,167.4 250.3,169.2 "></polygon> </g> </g> </g> </g> </g> <g id="XMLID_11_"> <g> <g> <g> <g> <polygon class="st9" points="255.2,173.2 251.6,171 251.6,169.9 255.2,172.1 "></polygon> </g> </g> </g> </g> </g> <g id="XMLID_10_"> <g> <g> <g> <g> <polygon class="st9" points="253.2,174.7 246.7,170.8 246.7,169.7 253.2,173.6 "></polygon> </g> </g> </g> </g> </g> <g id="XMLID_9_"> <g> <g> <g> <g> <polygon class="st9" points="247.1,176.5 239.5,172 239.5,170.9 247.1,175.4 "></polygon> </g> </g> </g> </g> </g> <g id="XMLID_8_"> <g> <g> <g> <g> <polygon class="st9" points="248,174.3 240.8,170 240.8,168.9 248,173.2 "></polygon> </g> </g> </g> </g> </g> <g id="XMLID_7_"> <g> <g> <g> <g> <polygon class="st9" points="253.2,177.4 249.4,175.1 249.4,174.1 253.2,176.3 "></polygon> </g> </g> </g> </g> </g> <g id="XMLID_6_"> <g> <g> <g> <g> <polygon class="st9" points="259.5,181.1 254.8,178.4 254.8,177.3 259.5,180 "></polygon> </g> </g> </g> </g> </g> <g id="XMLID_5_"> <g> <g> <g> <g> <polygon class="st9" points="255.2,181.3 248.5,177.3 248.5,176.2 255.2,180.2 "></polygon> </g> </g> </g> </g> </g> <g id="XMLID_4_"> <g> <g> <g> <g> <polygon class="st9" points="254.8,184.1 244.4,177.9 244.4,176.8 254.8,183 "></polygon> </g> </g> </g> </g> </g> <g id="XMLID_3_"> <g> <g> <g> <g> <polygon class="st9" points="249.9,183.6 244.4,180.4 244.4,179.3 249.9,182.5 "></polygon> </g> </g> </g> </g> </g> <g id="XMLID_2_"> <g> <g> <g> <g> <polygon class="st9" points="251.3,187.2 241.7,181.5 241.7,180.4 251.3,186.1 "></polygon> </g> </g> </g> </g> </g> <g id="XMLID_1_"> <g> <g> <g> <g> <polygon class="st9" points="255,189.4 252.5,187.9 252.5,186.8 255,188.3 "></polygon> </g> </g> </g> </g> </g> </g> <g> <g> <g> <g> <g> <g> <path class="st6" d="M235.2,188.2c3.6,2.7,8.7,20.7,13.6,23.9c4.3,2.8,2.9-11.2,6.7-11.9c3.8-0.7,6.7,16.4,5.5,26.7 l-33.9-20.3C227.1,206.5,230.3,184.5,235.2,188.2z"></path> </g> </g> </g> </g> </g> <g> <g> <g> <g> <path class="st10" d="M231.5,195.8c3.7-0.7,4.8,12.1,8.1,11.5c4.6-0.9,0.3-15,5.7-16.1c3.4-0.7,5.5,17.6,6.8,22.4 c1.7,6.4,2.2-0.2,4.6-0.7c3.4-0.6,4.9,5.7,4.1,13.7l-33.7-20.1C227.1,206.5,228.6,196.3,231.5,195.8z"></path> </g> </g> </g> </g> <g> <g> <g> <g> <g> <path class="st11" d="M232.1,201.3c5.1,3.3,4.8,8.4,9.1,10.9c4,2.5,5.1-9.7,7.8-7.8c2.3,1.6,3.2,14.7,5.7,16.2 c2.2,1.3,2.5-4.3,4.2-3.2c2.8,1.8,2.1,9.2,2.1,9.2l-33.8-20.1C227.1,206.5,227.4,198.3,232.1,201.3z"></path> </g> </g> </g> </g> </g> </g> <g> <g> <g> <g> <g> <polygon class="st10" points="220.4,185.8 207.5,178.2 207.5,176.1 220.4,183.7 "></polygon> </g> </g> </g> </g> <g> <g> <g> <g> <polygon class="st10" points="181.1,162.7 164.1,152.7 164.1,150.5 181.1,160.6 "></polygon> </g> </g> </g> </g> <g> <g> <g> <g> <polygon class="st10" points="205.6,177.1 184,164.4 184,162.3 205.6,175 "></polygon> </g> </g> </g> </g> <g> <g> <g> <g> <polygon class="st10" points="173.5,162.3 164.1,156.7 164.1,154.6 173.5,160.2 "></polygon> </g> </g> </g> </g> <g> <g> <g> <g> <polygon class="st10" points="195,175 175.8,163.7 175.8,161.5 195,172.9 "></polygon> </g> </g> </g> </g> <g> <g> <g> <g> <polygon class="st10" points="214,186.2 197.2,176.3 197.2,174.1 214,184 "></polygon> </g> </g> </g> </g> <g> <g> <g> <g> <polygon class="st10" points="220.4,189.9 216,187.3 216,185.2 220.4,187.8 "></polygon> </g> </g> </g> </g> <g> <g> <g> <g> <polygon class="st10" points="220.4,194 164,160.8 164,158.7 220.4,191.8 "></polygon> </g> </g> </g> </g> <g> <g> <g> <g> <polygon class="st10" points="173.5,170.4 164.1,164.9 164.1,162.7 173.5,168.3 "></polygon> </g> </g> </g> </g> <g> <g> <g> <g> <polygon class="st10" points="195,183.1 175.8,171.8 175.8,169.7 195,181 "></polygon> </g> </g> </g> </g> <g> <g> <g> <g> <polygon class="st10" points="214,194.3 197.2,184.4 197.2,182.3 214,192.2 "></polygon> </g> </g> </g> </g> <g> <g> <g> <g> <polygon class="st10" points="220.4,198 216,195.5 216,193.4 220.4,195.9 "></polygon> </g> </g> </g> </g> <g> <g> <g> <g> <polygon class="st10" points="205.6,193.4 184,180.7 184,178.6 205.6,191.3 "></polygon> </g> </g> </g> </g> <g> <g> <g> <g> <polygon class="st10" points="181.1,179 164.1,168.9 164.1,166.8 181.1,176.8 "></polygon> </g> </g> </g> </g> <g> <g> <g> <g> <polygon class="st10" points="220.4,202.1 207.5,194.5 207.5,192.4 220.4,200 "></polygon> </g> </g> </g> </g> </g> <g> <g> <g> <g> <g> <path class="st10" d="M263.6,108.3L163.4,49.5v0.3l0,3.6l0,0v0.1l0,0l0,3.7l0,0v0.1l0,0l0,3.7l0,0v0.1l0,0l0,3.7l0,0v0.1 l0,0l0,3.7l-0.1,0v0.1l0.1,0l0,3.7l-0.1,0v0.1l0.1,0l0,3.7l-0.1,0v0.1l0.1,0l0,3.7l-0.1-0.1v0.1l0.1,0.1l0,3.7l-0.1-0.1 v0.1l0.1,0.1l0,3.7l-0.1-0.1v0.1l0.1,0.1l0,3.7l-0.1-0.1v0.1l100.3,58.9v-5.7l0-1.9l0,0v-0.1l0,0l0-3.7l0,0v-0.1l0,0l0-3.7 l0,0V135l0,0l0-3.7l0,0v-0.1l0,0l0-3.7l0.1,0v-0.1l-0.1,0l0-3.7l0.1,0v-0.1l-0.1,0l0-3.7l0.1,0v-0.1l-0.1,0l0-3.7l0.1,0.1 V116l-0.1-0.1l0-3.7l0.1,0.1v-0.1l-0.1-0.1l0-3.7l0.1,0.1V108.3z M183.4,65l-19.8-11.6l0-3.7l19.8,11.6L183.4,65z M183.4,68.8l-19.8-11.6l0-3.7l19.8,11.6L183.4,68.8z M183.4,72.7L163.6,61l0-3.7L183.4,69L183.4,72.7z M183.4,76.5 l-19.8-11.6l0-3.7l19.8,11.6L183.4,76.5z M183.4,80.3l-19.8-11.6l0-3.7l19.8,11.6L183.4,80.3z M183.4,84.1l-19.8-11.6 l0-3.7l19.8,11.6L183.4,84.1z M183.4,87.9l-19.8-11.6l0-3.7l19.8,11.6L183.4,87.9z M183.5,91.7l-19.8-11.6l0-3.7l19.8,11.6 L183.5,91.7z M183.5,95.6l-19.8-11.6l0-3.7l19.8,11.6L183.5,95.6z M183.5,99.4l-19.8-11.6l0-3.7l19.8,11.6L183.5,99.4z M183.5,103.2l-19.8-11.6l0-3.7l19.8,11.6L183.5,103.2z M203.4,76.8l-19.8-11.6l0-3.7l19.8,11.6L203.4,76.8z M203.4,80.6 L183.6,69l0-3.7l19.8,11.6L203.4,80.6z M203.4,84.4l-19.8-11.6l0-3.7l19.8,11.6L203.4,84.4z M203.4,88.2l-19.8-11.6l0-3.7 l19.8,11.6L203.4,88.2z M203.4,92l-19.8-11.6l0-3.7l19.8,11.6L203.4,92z M203.4,95.8l-19.8-11.6l0-3.7l19.8,11.6 L203.4,95.8z M203.4,99.7L183.6,88l0-3.7L203.4,96L203.4,99.7z M203.4,103.5l-19.8-11.6l0-3.7l19.8,11.6L203.4,103.5z M203.5,107.3l-19.8-11.6l0-3.7l19.8,11.6L203.5,107.3z M203.5,111.1l-19.8-11.6l0-3.7l19.8,11.6L203.5,111.1z M203.5,114.9l-19.8-11.6l0-3.7l19.8,11.6L203.5,114.9z M223.4,88.5l-19.8-11.6l0-3.7l19.8,11.6L223.4,88.5z M223.4,92.3 l-19.8-11.6l0-3.7l19.8,11.6L223.4,92.3z M223.4,96.1l-19.8-11.6l0-3.7l19.8,11.6L223.4,96.1z M223.4,99.9l-19.8-11.6 l0-3.7l19.8,11.6L223.4,99.9z M223.4,103.8l-19.8-11.6l0-3.7l19.8,11.6L223.4,103.8z M223.4,107.6L203.6,96l0-3.7 l19.8,11.6L223.4,107.6z M223.4,111.4l-19.8-11.6l0-3.7l19.8,11.6L223.4,111.4z M223.4,115.2l-19.8-11.6l0-3.7l19.8,11.6 L223.4,115.2z M223.5,119l-19.8-11.6l0-3.7l19.8,11.6L223.5,119z M223.5,122.8l-19.8-11.6l0-3.7l19.8,11.6L223.5,122.8z M223.5,126.7L203.7,115l0-3.7l19.8,11.6L223.5,126.7z M243.4,100.2l-19.8-11.6l0-3.7l19.8,11.6L243.4,100.2z M243.4,104.1 l-19.8-11.6l0-3.7l19.8,11.6L243.4,104.1z M243.4,107.9l-19.8-11.6l0-3.7l19.8,11.6L243.4,107.9z M243.4,111.7l-19.8-11.6 l0-3.7l19.8,11.6L243.4,111.7z M243.4,115.5l-19.8-11.6l0-3.7l19.8,11.6L243.4,115.5z M243.4,119.3l-19.8-11.6l0-3.7 l19.8,11.6L243.4,119.3z M243.4,123.1l-19.8-11.6l0-3.7l19.8,11.6L243.4,123.1z M243.4,126.9l-19.8-11.6l0-3.7l19.8,11.6 L243.4,126.9z M243.5,130.8l-19.8-11.6l0-3.7l19.8,11.6L243.5,130.8z M243.5,134.6L223.7,123l0-3.7l19.8,11.6L243.5,134.6z M243.5,138.4l-19.8-11.6l0-3.7l19.8,11.6L243.5,138.4z M263.4,112l-19.8-11.6l0-3.7l19.8,11.6L263.4,112z M263.4,115.8 l-19.8-11.6l0-3.7l19.8,11.6L263.4,115.8z M263.4,119.6L243.6,108l0-3.7l19.8,11.6L263.4,119.6z M263.4,123.4l-19.8-11.6 l0-3.7l19.8,11.6L263.4,123.4z M263.4,127.2l-19.8-11.6l0-3.7l19.8,11.6L263.4,127.2z M263.4,131l-19.8-11.6l0-3.7 l19.8,11.6L263.4,131z M263.4,134.9l-19.8-11.6l0-3.7l19.8,11.6L263.4,134.9z M263.4,138.7l-19.8-11.6l0-3.7l19.8,11.6 L263.4,138.7z M263.5,142.5l-19.8-11.6l0-3.7l19.8,11.6L263.5,142.5z M263.5,146.3l-19.8-11.6l0-3.7l19.8,11.6L263.5,146.3 z M263.5,150.1l-19.8-11.6l0-3.7l19.8,11.6L263.5,150.1z"></path> </g> </g> </g> </g> <g> <g> <g> <g> <g> <path class="st4" d="M175.8,82.4c0.5,0.3,1,0.8,1.3,1.3l8,1c-0.1-0.2-0.2-0.4-0.2-0.6c0-0.7,0.7-0.9,1.6-0.3 c0.9,0.5,1.6,1.5,1.6,2.2c0,0.4-0.3,0.7-0.7,0.6l3.8,10.6c0.2,0.1,0.3,0.1,0.5,0.2c0.2,0.1,0.3,0.2,0.4,0.3l8.9-4.8 c-0.2-0.3-0.3-0.6-0.3-0.9c0-0.7,0.7-0.9,1.6-0.3c0.9,0.5,1.6,1.5,1.6,2.2c0,0.3-0.1,0.5-0.3,0.6l12.8,20.1 c0.2,0,0.5,0.1,0.7,0.3c0.2,0.1,0.4,0.3,0.5,0.4l4-3c-0.3-0.4-0.5-0.8-0.5-1.2c0-0.7,0.7-0.9,1.6-0.3 c0.9,0.5,1.6,1.5,1.6,2.2c0,0.2-0.1,0.4-0.2,0.5l8.6,14c0.2,0,0.5,0.1,0.8,0.3c0.5,0.3,1,0.8,1.3,1.2l15.2-2.5 c-0.2-0.3-0.3-0.6-0.3-0.9c0-0.7,0.7-0.9,1.6-0.3c0.9,0.5,1.6,1.5,1.6,2.2c0,0.2-0.1,0.4-0.2,0.5l7.3,8.5 c0,0.1-0.1,0.2-0.1,0.4l-7.5-8.7c-0.3,0.1-0.7,0-1.1-0.3c-0.4-0.2-0.7-0.5-1-0.8l-15.3,2.5c0.1,0.2,0.1,0.3,0.1,0.5 c0,0.7-0.7,0.9-1.6,0.3c-0.9-0.5-1.6-1.5-1.6-2.2c0-0.3,0.2-0.5,0.4-0.6l-8.5-13.9c-0.3,0-0.6-0.1-1-0.3 c-0.3-0.2-0.5-0.4-0.7-0.6l-3.9,3c0.4,0.5,0.6,1,0.6,1.4c0,0.7-0.7,0.9-1.6,0.3c-0.9-0.5-1.6-1.5-1.6-2.2 c0-0.3,0.2-0.6,0.5-0.6l-12.7-20c-0.3,0-0.6-0.1-1-0.3c-0.4-0.2-0.7-0.5-1-0.8l-8.8,4.7c0.4,0.5,0.7,1,0.7,1.5 c0,0.7-0.7,0.9-1.6,0.3c-0.9-0.5-1.6-1.5-1.6-2.2c0-0.4,0.3-0.6,0.7-0.6L187,86.4c-0.1-0.1-0.3-0.1-0.4-0.2 c-0.5-0.3-0.9-0.7-1.2-1.1l-8.1-1c0.1,0.2,0.1,0.3,0.1,0.4c0,0.7-0.7,0.9-1.6,0.3c-0.9-0.5-1.6-1.5-1.6-2.2 c0-0.1,0-0.1,0-0.2l-6.9-5.6l0-0.4l7.1,5.7C174.6,82,175.1,82,175.8,82.4z"></path> </g> </g> </g> </g> </g> <g> <g> <g> <g> <g> <path class="st12" d="M174.6,74.1c0.6,0.4,1,1,1.2,1.5l16.4,6.9c0-0.1,0-0.1,0-0.2c0.2-0.6,1-0.6,1.9,0.1 c0.9,0.6,1.5,1.7,1.3,2.3c0,0,0,0,0,0l12.4,11.8c0.4-0.1,0.9,0.1,1.4,0.5c0.6,0.4,1.1,1.1,1.2,1.6l14.2,7.1c0,0,0,0,0,0 c0.2-0.6,1-0.6,1.9,0.1c0.9,0.6,1.5,1.7,1.3,2.3c0,0,0,0.1,0,0.1l8.2,10.4c0.4,0,0.8,0.1,1.3,0.5c0.5,0.4,0.9,0.8,1.1,1.3 l6.3,1.2c0-0.2,0-0.3,0-0.4c0.2-0.6,1-0.6,1.9,0.1c0.9,0.6,1.5,1.7,1.3,2.3c0,0.1,0,0.1-0.1,0.1l12.3,13.7 c0,0.1-0.1,0.2-0.1,0.4l-12.4-13.9c-0.4,0.2-1,0-1.6-0.4c-0.5-0.4-0.9-0.9-1.1-1.3l-6.3-1.2c0,0.2,0,0.4,0,0.5 c-0.2,0.6-1,0.6-1.9-0.1c-0.9-0.6-1.5-1.7-1.3-2.3c0-0.1,0.1-0.2,0.2-0.3l-8-10.3c-0.4,0.2-1,0.1-1.6-0.4 c-0.7-0.5-1.2-1.2-1.3-1.8l-14.2-7c0,0.1,0,0.1,0,0.2c-0.2,0.6-1,0.6-1.9-0.1c-0.9-0.6-1.5-1.7-1.3-2.3 c0-0.1,0.1-0.2,0.2-0.3l-12.3-11.7c-0.3,0.3-1,0.1-1.7-0.4c-0.6-0.5-1.1-1.1-1.2-1.6L175.9,76c0,0.1,0,0.2,0,0.3 c-0.2,0.6-1,0.6-1.9-0.1c-0.9-0.6-1.5-1.7-1.3-2.3c0-0.1,0-0.1,0.1-0.2l-5.5-5.7l0-0.5l5.7,5.9 C173.4,73.5,173.9,73.6,174.6,74.1z"></path> </g> </g> </g> </g> </g> <g> <g> <g> <g> <path class="st10" d="M259.9,155.9c0,0.1,0.1,0.1,0.1,0.2l0,1.9c0,0.1-0.1,0.1-0.2,0.1l-5.8-3.4l0-2.4L259.9,155.9 C259.9,155.8,259.9,155.9,259.9,155.9z"></path> </g> </g> </g> </g> <g> <g> <g> <g> <path class="st10" d="M242.4,145.9c0,0.1,0.1,0.1,0.1,0.2l0,1.9c0,0.1-0.1,0.1-0.2,0.1l-5.8-3.4l0-2.3L242.4,145.9 C242.3,145.8,242.3,145.9,242.4,145.9z"></path> </g> </g> </g> </g> <g> <g> <g> <g> <path class="st10" d="M224.8,135.9c0,0.1,0.1,0.1,0.1,0.2l0,1.9c0,0.1-0.1,0.1-0.2,0.1l-5.8-3.4l0-2.4L224.8,135.9 C224.7,135.8,224.8,135.8,224.8,135.9z"></path> </g> </g> </g> </g> <g> <g> <g> <g> <path class="st10" d="M207.2,125.9c0,0.1,0.1,0.1,0.1,0.2l0,1.9c0,0.1-0.1,0.1-0.2,0.1l-5.8-3.4l0-2.3L207.2,125.9 C207.2,125.8,207.2,125.8,207.2,125.9z"></path> </g> </g> </g> </g> <g> <g> <g> <g> <path class="st10" d="M189.7,115.9c0,0.1,0.1,0.1,0.1,0.2l0,1.9c0,0.1-0.1,0.1-0.2,0.1l-5.8-3.4l0-2.3L189.7,115.9 C189.6,115.8,189.6,115.8,189.7,115.9z"></path> </g> </g> </g> </g> <g> <g> <g> <g> <path class="st10" d="M172.1,105.9c0,0.1,0.1,0.1,0.1,0.2l0,1.9c0,0.1-0.1,0.1-0.2,0.1l-5.8-3.4l0-2.4L172.1,105.9 C172.1,105.8,172.1,105.8,172.1,105.9z"></path> </g> </g> </g> </g> </g> <g> <g> <g> <g> <g> <g> <g> <g> <path class="st6" d="M184.7,128.1l0.8,2.8c-1.5,0.1-2.5,1.5-2.6,3.8l-1.8-1C181.1,130.3,182.6,128.2,184.7,128.1z"></path> </g> </g> </g> </g> </g> <g> <g> <g> <g> <g> <path class="st13" d="M182.9,134.7c0,0.1,0,0.3,0,0.4c0,3.5,2,7.4,4.5,8.8c2.5,1.4,4.4-0.3,4.4-3.7c0-3.5-2-7.4-4.5-8.8 c-0.6-0.4-1.3-0.5-1.8-0.5l-0.8-2.8c0.8-0.1,1.7,0.2,2.6,0.7c1.6,0.9,3,2.6,4.2,4.5c1.3,2.4,2.2,5.2,2.2,7.9 c0,4.9-2.8,7.2-6.2,5.3c-3.5-2-6.3-7.5-6.3-12.4c0-0.1,0-0.3,0-0.4L182.9,134.7z"></path> </g> </g> </g> </g> </g> </g> </g> <g> <g> <g> <g> <g> <g> <g> <path class="st6" d="M204.6,139.9l0.8,2.8c-1.5,0.1-2.5,1.5-2.6,3.8l-1.8-1C201,142.2,202.5,140.1,204.6,139.9z"></path> </g> </g> </g> </g> </g> <g> <g> <g> <g> <g> <path class="st13" d="M202.8,146.5c0,0.1,0,0.3,0,0.4c0,3.5,2,7.4,4.5,8.8c2.5,1.4,4.4-0.3,4.4-3.7c0-3.5-2-7.4-4.5-8.8 c-0.6-0.4-1.3-0.5-1.8-0.5l-0.8-2.8c0.8-0.1,1.7,0.2,2.6,0.7c1.6,0.9,3,2.6,4.2,4.5c1.3,2.4,2.2,5.2,2.2,7.9 c0,4.9-2.8,7.2-6.2,5.3c-3.5-2-6.3-7.5-6.3-12.4c0-0.1,0-0.3,0-0.4L202.8,146.5z"></path> </g> </g> </g> </g> </g> </g> </g> <g> <g> <g> <g> <g> <g> <g> <path class="st6" d="M224.5,151.8l0.8,2.8c-1.5,0.1-2.5,1.5-2.6,3.8l-1.8-1C220.9,154,222.4,152,224.5,151.8z"></path> </g> </g> </g> </g> </g> <g> <g> <g> <g> <g> <path class="st13" d="M222.7,158.4c0,0.1,0,0.3,0,0.4c0,3.5,2,7.4,4.5,8.8c2.5,1.4,4.4-0.3,4.4-3.7c0-3.5-2-7.4-4.5-8.8 c-0.6-0.4-1.3-0.5-1.8-0.5l-0.8-2.8c0.8-0.1,1.7,0.2,2.6,0.7c1.6,0.9,3,2.6,4.2,4.5c1.3,2.4,2.2,5.2,2.2,7.9 c0,4.9-2.8,7.2-6.2,5.3c-3.5-2-6.3-7.5-6.3-12.4c0-0.1,0-0.3,0-0.4L222.7,158.4z"></path> </g> </g> </g> </g> </g> </g> </g> <g> <g> <g> <g> <polygon class="st10" points="231.2,178.1 223.1,173.3 223.1,169.9 231.2,174.7 "></polygon> </g> </g> </g> </g> <g> <g> <g> <g> <polygon class="st10" points="210.6,165.9 202.5,161.1 202.5,157.7 210.6,162.6 "></polygon> </g> </g> </g> </g> <g> <g> <g> <g> <polygon class="st10" points="190,153.8 181.9,148.9 181.9,145.6 190,150.4 "></polygon> </g> </g> </g> </g> <g> <g> <g> <g> <polygon class="st10" points="169.4,141.6 161.3,136.8 161.3,133.4 169.4,138.2 "></polygon> </g> </g> </g> </g> <g> <g> <g> <g> <g> <g> <g> <path class="st6" d="M164.8,116.2l0.8,2.8c-1.5,0.1-2.5,1.5-2.6,3.8l-1.8-1C161.3,118.4,162.7,116.4,164.8,116.2z"></path> </g> </g> </g> </g> </g> <g> <g> <g> <g> <g> <path class="st13" d="M163,122.8c0,0.1,0,0.3,0,0.4c0,3.5,2,7.4,4.5,8.8c2.5,1.4,4.4-0.3,4.4-3.7c0-3.5-2-7.4-4.5-8.8 c-0.6-0.4-1.3-0.5-1.8-0.5l-0.8-2.8c0.8-0.1,1.7,0.2,2.6,0.7c1.6,0.9,3,2.6,4.2,4.5c1.3,2.4,2.2,5.2,2.2,7.9 c0,4.9-2.8,7.2-6.2,5.3c-3.5-2-6.3-7.5-6.3-12.4c0-0.1,0-0.3,0-0.4L163,122.8z"></path> </g> </g> </g> </g> </g> </g> </g> </g> </g> </g> </g> <g> <g> <g> <g> <path class="st11" d="M140.2,160.6c-1.6,7.5,1.8,17.6,7.6,22.6c5.7,4.9,11.7,2.8,13.3-4.8c1.6-7.5-1.8-17.6-7.6-22.6 C147.7,151,141.7,153.1,140.2,160.6z"></path> </g> </g> </g> <g> <g> <g> <path class="st10" d="M144.2,165.8l0.3,2.2c0,0,0,0.1,0,0.1c0,0.1,0.1,0.2,0.2,0.3l1.6,1.2c0.2,0.7,0.4,1.4,0.7,2.1l-0.5,1.8 c-0.1,0.1,0,0.3,0.1,0.4l1.1,2c0,0.1,0.1,0.1,0.1,0.1c0.1,0,0.1,0.1,0.2,0l1.1-0.8c0.4,0.5,0.8,0.9,1.2,1.3l0.7,2.6 c0,0.1,0.1,0.3,0.2,0.3c0,0,0,0,0.1,0l1.3,0.6c0.1,0,0.2,0,0.2-0.2l0-2.4c0.4,0,0.7-0.1,1-0.3l1.5,1.9c0,0,0.1,0.1,0.1,0.1 c0.1,0,0.1,0,0.2,0l0.7-1.2c0.1-0.1,0-0.3,0-0.4l-1.1-2.5c0.1-0.5,0.2-1.1,0.2-1.7l1.4,0.1c0.1,0,0.2-0.1,0.1-0.3l-0.3-2.2 c0,0,0-0.1,0-0.1c0-0.1-0.1-0.2-0.2-0.3l-1.6-1.2c-0.2-0.7-0.4-1.4-0.7-2.1l0.5-1.8c0.1-0.1,0-0.3-0.1-0.4l-1.2-2 c0-0.1-0.1-0.1-0.1-0.1c-0.1,0-0.1-0.1-0.1,0l-1.1,0.8c-0.4-0.5-0.8-0.9-1.2-1.3l-0.7-2.6c0-0.1-0.1-0.3-0.2-0.4c0,0,0,0,0,0 l-1.3-0.6c-0.1,0-0.2,0-0.2,0.2l0,2.4c-0.4,0-0.7,0.1-1,0.3l-1.5-1.9c0,0-0.1-0.1-0.1-0.1c-0.1,0-0.1,0-0.2,0l-0.7,1.2 c-0.1,0.1,0,0.3,0,0.4l1.1,2.5c-0.1,0.5-0.2,1.1-0.2,1.7l-1.4-0.1C144.2,165.5,144.2,165.6,144.2,165.8z M150,165.5 c0.2,0.1,0.4,0.2,0.5,0.3c1.2,0.9,2.2,2.8,2.4,4.8c0.3,2.2-0.6,3.6-1.9,3c-0.2-0.1-0.4-0.2-0.5-0.3c-1.2-0.9-2.2-2.8-2.4-4.8 C147.8,166.3,148.7,164.9,150,165.5z"></path> </g> </g> </g> </g> <g> <g> <g> <path class="st14" d="M130.7,166.8c-9.6-8.3-19.7-4.7-22.6,8.1c-2.9,12.7,2.6,29.9,12.1,38.2c9.6,8.3,19.7,4.7,22.6-8.1 C145.7,192.2,140.3,175.1,130.7,166.8z"></path> </g> </g> <g> <path class="st10" d="M123.2,174.3c-1.2-1.7-3.8-1.1-3.8,0.9v24.6c0,1.7,1.9,2.9,3.3,2.1l12.3-7.2c1-0.6,1.2-1.9,0.5-3 L123.2,174.3z"></path> </g> </g> </g> <g> <g> <path class="st0" d="M63.3,292.2l-31.7-18.3c-3.7-2.1-8.3-2.1-11.9,0.1l-14.4,8.8c-7.6,4.6-7.5,15.7,0.2,20.1l31.7,18.3 c3.7,2.1,8.3,2.1,11.9-0.1l14.4-8.8C71.1,307.7,70.9,296.6,63.3,292.2z"></path> </g> </g> <g> <g> <g> <g> <path class="st15" d="M72.8,229.8l-8.8,5.2c-0.2,0.1-0.4,0.1-0.5,0.1c-0.1,0-0.3,0-0.5-0.1l-3.8-2.1c-0.2-0.1-0.4-0.4-0.4-0.4 s0,0.2,0,0.4c0,0.3,0.2,0.5,0.4,0.7l3.8,2.1c0.2,0.1,0.4,0.1,0.5,0.1c0.1,0,0.3,0,0.5-0.1l8.8-5.2c0.2-0.1,0.4-0.4,0.4-0.6 c0-0.1,0-0.3,0-0.3S72.9,229.7,72.8,229.8z"></path> </g> </g> <g> <g> <g> <g> <g> <g> <path class="st16" d="M72.8,228.8l-3.8-2.1c-0.2-0.1-0.4-0.1-0.5-0.1c-0.1,0-0.3,0-0.5,0.1l-8.8,5.2 c-0.2,0.1-0.4,0.4-0.4,0.6c0,0.3,0.2,0.5,0.4,0.7l3.8,2.1c0.2,0.1,0.4,0.1,0.5,0.1c0.1,0,0.3,0,0.5-0.1l8.8-5.2 c0.2-0.1,0.4-0.4,0.4-0.6C73.2,229.2,73,228.9,72.8,228.8z"></path> </g> </g> </g> </g> </g> </g> <g> <g> <path class="st17" d="M69,229.7c-0.1-0.1-0.2-0.2-0.3-0.3c-0.2-0.1-0.6-0.2-0.9-0.2c-0.4,0-0.8,0.1-1.1,0.3 c-0.6,0.3-0.6,0.8-0.1,1.1c0.5,0.3,1.4,0.2,2-0.1c0,0,0,0,0,0l0,0C69.1,230.2,69.2,229.9,69,229.7L69,229.7z"></path> </g> </g> <g> <g> <path class="st18" d="M69.2,229c0.2,0.1,0.3,0.3,0.4,0.4c0,0,0,0.1,0.1,0.1l0.3-1.2l-1.7,0.3C68.6,228.7,68.9,228.8,69.2,229z"></path> </g> </g> <g> <g> <path class="st18" d="M69.1,230.8C69.1,230.8,69,230.8,69.1,230.8c-0.4,0.3-0.8,0.4-1.2,0.5l1.6,0.4l-0.2-1.1 C69.3,230.6,69.2,230.7,69.1,230.8z"></path> </g> </g> <g> <g> <path class="st18" d="M65.8,229.6c0.1-0.2,0.3-0.3,0.5-0.5c0.3-0.2,0.7-0.3,1.1-0.4l-1.8-0.3L65.8,229.6z"></path> </g> </g> <g> <g> <path class="st18" d="M65.7,230.4l-0.3,1.2l1.9-0.4c0,0-0.8-0.1-1.1-0.3C65.9,230.8,65.7,230.6,65.7,230.4z"></path> </g> </g> </g> <g> <g> <g> <g> <path class="st19" d="M13.1,296c-0.5,0.3,0,0.8,0,1.4c0,0.9,0.1,1.7,1.1,1.7c1,0,1.1-0.8,1.1-1.7c0-0.4,0.6-0.8,0.3-1.1 c0,0,0,0-0.1-0.1c0,0,9.2-1.2,11.1-0.8c0.6-0.4,1.2-0.8,1.8-1.1C23.4,292.5,16.4,294.1,13.1,296z"></path> </g> </g> </g> </g> <g> <g> <g> <g> <path class="st4" d="M14.2,295.5c-1,0-1.8,0.8-1.8,1.8c0,1,0.8,1.8,1.8,1.8c1,0,1.8-0.8,1.8-1.8 C16,296.3,15.2,295.5,14.2,295.5z"></path> </g> </g> </g> </g> <g> <g> <g> <g> <path class="st2" d="M28.4,292.4L28.4,292.4c-11.1-1.1-15.7,4-15.7,4c2-0.9,7.1-3.3,15.7-2c-0.3-0.2-0.5-0.3-0.6-0.5 C27.4,293.3,27.7,292.8,28.4,292.4z"></path> </g> </g> </g> </g> <g> <g> <g> <g> <path class="st19" d="M18.5,305.6c-0.2,0.4-0.3,0.7-0.3,1.2c0,1.1,1,2,2.2,2c1.2,0,2.2-0.9,2.2-2c0-0.1,0-0.2,0-0.3 c0-0.3-0.1-0.5-0.3-0.8c0,0,3.3-5.6,9.3-9.4V295c-0.1,0-3.2-0.1-3.2-0.2C23.6,296.8,19.2,304.1,18.5,305.6z"></path> </g> </g> </g> </g> <g> <g> <g> <g> <path class="st4" d="M20.3,304.5c-1.2,0-2.2,1-2.2,2.2c0,1.2,1,2.2,2.2,2.2c1.2,0,2.2-1,2.2-2.2 C22.5,305.5,21.5,304.5,20.3,304.5z"></path> </g> </g> </g> </g> <g> <g> <g> <g> <path class="st2" d="M27.7,294.3c-0.5,0.3-7.2,6.7-8.9,10.2c-0.3,0.5,0,1.2,0.6,1.4c0,0,0,0,0.1,0c0.5,0.1,1-0.1,1.2-0.6 c1.5-3.6,10.4-10.5,10.3-10.5C29.6,294.9,28.5,294.7,27.7,294.3z"></path> </g> </g> </g> </g> <g> <g> <g> <g> <path class="st19" d="M49.7,296c-3.3-1.9-10.3-3.5-15.3-1.7c0.6,0.3,1.2,0.7,1.8,1.1c1.9-0.4,11.1,0.8,11.1,0.8 c0,0,0,0-0.1,0.1c-0.3,0.3,0.3,0.7,0.3,1.1c0,0.9,0.1,1.7,1.1,1.7c1,0,1.1-0.8,1.1-1.7C49.7,296.8,50.2,296.3,49.7,296z"></path> </g> </g> </g> </g> <g> <g> <g> <g> <path class="st4" d="M48.5,295.5c-1,0-1.8,0.8-1.8,1.8c0,1,0.8,1.8,1.8,1.8c1,0,1.8-0.8,1.8-1.8 C50.3,296.3,49.5,295.5,48.5,295.5z"></path> </g> </g> </g> </g> <g> <g> <g> <g> <path class="st2" d="M34.4,292.3L34.4,292.3c0.7,0.5,1,1,0.6,1.5c-0.1,0.2-0.4,0.4-0.6,0.5c8.6-1.3,13.7,1.1,15.7,2 C50.1,296.4,45.5,291.3,34.4,292.3z"></path> </g> </g> </g> </g> <g> <g> <g> <g> <path class="st19" d="M34.6,294.8c-0.1,0-3.2,0.1-3.2,0.2v1.4c6,3.8,9.3,9.4,9.3,9.4c-0.2,0.2-0.3,0.5-0.3,0.8 c0,0.1,0,0.2,0,0.3c0,1.1,1,2,2.2,2c1.2,0,2.2-0.9,2.2-2c0-0.4-0.2-0.8-0.3-1.2C43.6,304.1,39.1,296.8,34.6,294.8z"></path> </g> </g> </g> </g> <g> <g> <g> <g> <path class="st4" d="M42.4,304.5c-1.2,0-2.2,1-2.2,2.2c0,1.2,1,2.2,2.2,2.2c1.2,0,2.2-1,2.2-2.2 C44.6,305.5,43.6,304.5,42.4,304.5z"></path> </g> </g> </g> </g> <g> <g> <g> <g> <path class="st2" d="M35.1,294.3c-0.8,0.4-1.9,0.6-3.3,0.5c-0.1,0,8.8,6.9,10.3,10.5c0.2,0.5,0.7,0.8,1.2,0.6c0,0,0,0,0.1,0 c0.6-0.2,0.8-0.8,0.6-1.4C42.2,301,35.6,294.6,35.1,294.3z"></path> </g> </g> </g> </g> <g> <g> <g> <g> <path class="st2" d="M31.8,291.8c-2.7,0-4.9,0.9-4.9,1.9c0,1.1,2.2,1.9,4.9,1.9c2.7,0,4.9-0.9,4.9-1.9 C36.7,292.7,34.5,291.8,31.8,291.8z"></path> </g> </g> </g> </g> <g> <g> <g> <g> <path class="st4" d="M31.8,291.3c-2.7,0-4.9,0.9-4.9,1.9c0,1.1,2.2,1.9,4.9,1.9c2.7,0,4.9-0.9,4.9-1.9 C36.7,292.2,34.5,291.3,31.8,291.3z"></path> </g> </g> </g> </g> <g> <g> <g> <g> <g> <g> <path class="st1" d="M51.6,282c-2.5,0.2-5.1,1.2-5.1,1.2s0.3,3.5-2.7,2.1c-2.1-1-4.7-4.3-5.5-4.3c0,0-2.2,1.7-0.3,5.1 c1.9,3.4,2.2,4.8,2.2,4.8s0.6,0.4,1.1-0.2l-1.1-4.3l5,2.3c0.9,0.3,1.7,0,2.5-0.4c3.5-1.7,4.5-5.5,4.6-5.7 C52.2,282.1,51.9,281.9,51.6,282z"></path> </g> </g> </g> </g> </g> <g> <g> <g> <g> <g> <path class="st20" d="M36.4,250.6l3.8,7.9l1.8-1.2c0,0-2.2,5-2.4,11.8c-0.1,6.7-0.2,10.4-1.4,11.8c0,0,2,1.5,3.5,3.2 c1.1,1.2,4.1,2.4,5.8,1c0.5-0.4,0.4-1.3-0.2-1.5c-1.4-0.6-3.3-1.8-3.5-3.7c-0.3-2.4,6-21.7,6-27.7 C49.8,246.1,38.6,249.7,36.4,250.6z"></path> </g> </g> </g> </g> </g> </g> <g> <g> <g> <g> <g> <g> <path class="st1" d="M60.5,290.1c-2.5,0.2-5.1,1.2-5.1,1.2s0.3,3.5-2.7,2.1c-2.1-1-4.7-4.3-5.5-4.3c0,0-2.2,1.7-0.3,5.1 c1.9,3.4,2.2,4.8,2.2,4.8s0.6,0.4,1.1-0.2l-1.1-4.3l5,2.3c0.9,0.3,1.7,0,2.5-0.4c3.5-1.7,4.5-5.5,4.6-5.7 C61.1,290.2,60.8,290,60.5,290.1z"></path> </g> </g> </g> </g> </g> <g> <g> <g> <g> <g> <path class="st20" d="M43.1,257l6,9.6l1.8-1.2c0,0-2.2,5-2.4,11.8c-0.1,6.7-0.2,10.4-1.4,11.8c0,0,2,1.5,3.5,3.2 c1.1,1.2,4.1,2.4,5.8,1c0.5-0.4,0.4-1.3-0.2-1.5c-1.4-0.6-3.3-1.8-3.5-3.7c-0.3-2.4,6-21.7,6-27.7 C58.8,251.9,45.3,256.1,43.1,257z"></path> </g> </g> </g> </g> </g> </g> <g> <g> <g> <g> <path class="st2" d="M29.8,293.6c0,0,0.5,0.4,1.9,0.4c1.7,0,2.1-0.4,2.1-0.4v-12.7h-4V293.6z"></path> </g> </g> </g> </g> <g> <g> <g> <g> <polygon class="st19" points="38.1,279.3 55.5,270.4 36.2,259.4 "></polygon> </g> </g> </g> </g> <g> <g> <g> <g> <g> <g> <path class="st1" d="M44.6,257.2c-1.9-1.3-6.3-5.3-6.3-5.3l-0.9,7.7c-5.3,5-12.4-1.9-12.4-2l0,0c0,0-4.5,7.1,2.1,13 c6.5,5.8,14.1,2.7,22.1-3.9C49.2,266.7,50.8,261.5,44.6,257.2z"></path> </g> </g> </g> </g> </g> </g> <g> <g> <g> <g> <g> <g> <path class="st5" d="M35.5,239.8c-3.3-1.8-5.3-3.2-5.3-3.2s-1.1-0.5-2.5-0.7c-1-0.1-2.2,0-3.2,0.9 c-5.2,4.7,0.4,16.2,0.4,20.8c0,0,7.1,7,12.4,2l0.9-7.7c0,0,2.4-0.6,2.4-3.3C40.6,245.9,37.7,241,35.5,239.8z"></path> </g> </g> </g> </g> </g> </g> <g> <g> <g> <g> <g> <path class="st20" d="M39.6,225.2c-0.5-3.1-3.1-4.6-6.4-4.6c-3.5,0-6.3,2.8-6.3,6.3c0,0,0,0.1,0,0.1h0v3.5 c0,2.6,7.1,6.6,7.9,6.5c0.4,0,0.8-0.2,1.2-0.4c2.2-1.7,4.2-5.3,3.8-7.8C39.5,227.3,39.8,226.3,39.6,225.2z"></path> </g> </g> </g> </g> </g> <g> <g> <g> <g> <g> <path class="st1" d="M36.1,226.4c1.4-0.9,4.1-1.3,4.1-4.3c0-1.4-3.5-5-7.8-5c-2.6,0-7.2,1.9-8.6,6.6c-2.2,7-0.8,21.9-0.8,27.3 c0,7.7,6.5,7.2,6.5,5.2c0-10.8,2.1-16.1,4.5-16.1c2.1,0,5.5,2.9,6.6,8c0.3-5.1-2-7.3-3.9-10.7 C34.3,233.2,34.5,227.5,36.1,226.4z"></path> </g> </g> </g> </g> </g> <g> <g> <g> <g> <g> <path class="st5" d="M48.8,243c-4.7,0.4-10.3-1.5-14.4-3c-1.5-0.4-3.1,0.9-3.7,2.9c-0.1,0.3-0.1,1-0.1,1.5 c0.1,2.2,1.3,3,2.9,3.6c4.6,1.6,10.4,1.3,15.5,1c1.8-0.1,3-1.7,2.9-3.2c0,0,0-0.1,0-0.1C51.8,244,50.4,242.9,48.8,243z"></path> </g> </g> </g> </g> <g> <g> <g> <path class="st21" d="M67.4,231.8c0,0-1.8,0.8-2.7,1c-0.5,0.1-1.4-0.1-1.4-0.2c0-0.3,0.4-0.5,0.4-0.5s1.4-0.1,1.6-0.1 c0.5,0,0.9-0.4,0.9-0.8l-2.4-0.2c0,0-0.8,0-1.3,0.4c-0.6,0.4-0.5,1.4-1.1,1.9c-1.4,1.2-6.7,5.9-6.7,5.9l2.6,3.1 c2.2-2.2,4.8-5.8,5.3-5.9c0.3,0,3.5-0.1,4.4-1.1c1-1,0.7-1.3,1.2-2.8C68.6,231.2,67.4,231.8,67.4,231.8z"></path> </g> </g> </g> <g> <g> <g> <g> <path class="st5" d="M59,234.7c-2.9,3.3-8.3,7.3-11.4,8.9c-1.2,0.7-1.7,2.2-1.1,3.4c0,0,0.2,0.3,0.2,0.3 c0.6,1.2,2.5,1.8,3.8,1c3.5-1.8,8.8-7,11.9-10.7C61.1,237.1,60.1,236.2,59,234.7z"></path> </g> </g> </g> </g> </g> <g> <g> <g> <g> <g> <path class="st4" d="M13.5,266.9c0,3.3,1.7,6.3,4.5,7.9l13.7,8c2.2,1.3,4.9,1.3,7.2,0.1l2.2-1.2l-27.6-15.7L13.5,266.9z"></path> </g> </g> </g> </g> </g> <g> <g> <g> <g> <g> <path class="st4" d="M29.2,242.3L15.4,234c-1.4-0.8-2.6-0.6-3.3,0.4v0c-0.3,0.5-0.5,1.1-0.4,2l1.2,28.8c0.1,1.5,1,2.9,2.3,3.7 l20.1,11.7l-2.1-32.1C32.9,246,31.2,243.3,29.2,242.3z"></path> </g> </g> </g> </g> </g> <g> <g> <path class="st2" d="M53.5,270.2l-14.4,7.4l0,0l0,0L36.7,247c-0.2-2.3-2-5-3.9-6l-13.4-8.4c-1.6-0.9-6.6,0-7.3,1.8 c0.6-0.9,1.8-1.1,3.3-0.4l13.8,8.3c2,1,3.7,3.8,4,6.1l2.1,32.1l0,0c0,2,2.2,3.3,4,2.3l16.1-8.9c0.7-0.4,1.1-1.1,1.1-1.8v0 C56.5,270.5,54.9,269.6,53.5,270.2z"></path> </g> </g> </g> </svg> 