<?xml version="1.0" encoding="UTF-8"?> <!-- Generator: Adobe Illustrator 23.0.1, SVG Export Plug-In . SVG Version: 6.00 Build 0) --> <svg xmlns="http://www.w3.org/2000/svg" xmlns:xlink="http://www.w3.org/1999/xlink" id="Layer_1" x="0px" y="0px" viewBox="0 0 362.8 336" style="enable-background:new 0 0 362.8 336;" xml:space="preserve"> <style type="text/css"> .st0{fill:#44266C;} .st1{fill:#181617;} </style> <g> <path class="st0" d="M22.2,21.4c44.3,0,88.6,0.1,132.9,0c8.8,21.9,18.2,43.6,26.9,65.6c2.8-5.1,4.7-10.7,7-16.1 c6.9-16.5,13.8-33,20.7-49.5c44.2,0.1,88.5-0.1,132.7,0.1c-0.1,7.9,0,15.8,0,23.6c-4.1,0.2-8.1,0.1-12.2,0.1 c-0.1,19.7-0.1,39.4,0,59.1c4.1-0.1,8.1-0.1,12.1,0c0,8,0.1,15.9,0,23.9c-28.7,0-57.3,0-86,0c0.3-20.8,1.7-41.6,2-62.4 c-0.1-6.7,1.2-13.3,0.9-20c-11.2,19-22.5,37.8-33.7,56.8c-5.2,8.5-10,17.3-15.5,25.7c-18.8-0.1-37.6,0-56.4,0 c-16.7-27.4-32.6-55.3-49.4-82.7c0.2,5.1,0.3,10.2,0.9,15.3c0.3,7.3,0.1,14.7,0.7,22c1.1,9.1,0,18.4,1.3,27.5 c0.5,6,0.3,11.9,0.6,17.9c-28.5-0.1-56.9-0.1-85.4,0c-0.1-8-0.1-16,0-24c4,0,8.1,0,12.1,0c0-19.7,0-39.4,0-59.1c-4,0-8.1,0-12.1,0 C22.1,37.3,22.2,29.3,22.2,21.4z"></path> <path class="st0" d="M151.5,230.1c3-2.2,6.7-2.9,10.3-2.7c15.3,0.1,30.7,0,46,0.2c2.9-0.1,5.8,0.7,8.4,2 c-7.4,5.2-15.2,9.8-22.6,14.9c-3.2,2-6.1,4.4-9.6,5.7C173.1,243.7,162.3,236.9,151.5,230.1z"></path> <path class="st0" d="M156.7,252.7c9.5,5.3,18.6,11.5,28.1,16.9c8.5-5.4,16.9-10.9,25.2-16.5c-2.9,9-7.4,17.3-10.7,26.1 c-3.6,8.4-7.1,16.8-10.8,25.2c-2.9,0.5-5.8,0.4-8.7,0C172.1,287.2,164.1,270.1,156.7,252.7z"></path> </g> <g> <path class="st1" d="M179.1,135.6c5.4-1,10.9,0.1,16,1.8c10.6,3.8,18.7,13.5,21.1,24.5c0.5,6.1,0.9,12.5-1.3,18.4 c-4.5,12.7-17.4,22.4-31.1,21.4c-17.9,1.6-34.4-15.1-33.5-32.8C149.5,152.4,163.1,137.4,179.1,135.6z"></path> <g> <path class="st1" d="M22.4,140.3c25.4-0.1,50.7,0,76,0c0,4.7-0.1,9.4,0,14.2c14.4,13.5,28.8,27.1,43.3,40.6 c3.7,2.9,6.5,6.9,10.5,9.3c18.3,0.2,36.5,0,54.8,0.1c1.8-0.1,3.6,0.1,5.4-0.3c10-8.9,19.6-18.5,29.5-27.5 c7.7-7.8,16.1-14.9,23.8-22.7c0.3-4.5-0.6-9.2,0.5-13.5c2.5-0.6,5.2-0.2,7.8-0.3c22.8,0.1,45.7-0.1,68.5,0.1c0,4.9,0,9.9,0,14.8 c-7.4,0-14.9,0.1-22.3,0c-3.2,3.4-6.6,6.6-10.1,9.7c-14.4,14.3-28.6,28.7-43.1,42.9c-2.7,3-6.3,5.4-7.7,9.3 c-13.7,33.4-27.4,66.7-41,100.1c-22.5,0.1-44.9,0-67.3,0c-12.2-30.8-25.3-61.2-37.7-91.9c-0.5-1.1-0.9-2.2-1.8-3.1 c-21-21.3-42.5-42.1-63.6-63.4c-1.4-1.3-2.7-2.7-4.3-3.5c-7-0.3-14.1,0-21.1-0.1C22.3,150.2,22.4,145.3,22.4,140.3z M216.3,229.6 c-2.6-1.3-5.5-2.1-8.4-2c-15.3-0.1-30.7,0-46-0.2c-3.7-0.2-7.4,0.5-10.3,2.7c-10.5-6.4-20.9-13.1-31.6-19.2 c13.5,31.3,28.1,62.1,41.6,93.4c6.1,0.1,12.2-0.1,18.3,0.2c2.9,0.4,5.8,0.4,8.7,0c6-0.2,12-0.1,18-0.1c13.2-31.5,26.5-63,40-94.4 C236.3,216.3,226.3,222.9,216.3,229.6z"></path> </g> </g> </svg> 