<?xml version="1.0" encoding="UTF-8"?> <svg xmlns="http://www.w3.org/2000/svg" id="unleash_your_vision" width="325.75" height="187.187" viewBox="0 0 325.75 187.187"><defs><style> .cls-1 { fill: #bad3e0; } .cls-1, .cls-10, .cls-2, .cls-3, .cls-4, .cls-5, .cls-6, .cls-7, .cls-8, .cls-9 { fill-rule: evenodd; } .cls-2 { fill: #bd1423; } .cls-3 { fill: #ff4152; } .cls-4 { fill: #eb293a; } .cls-5 { fill: #004162; } .cls-10, .cls-6 { fill: #8abada; } .cls-6 { opacity: 0.29; } .cls-7 { fill: #d2edff; } .cls-8 { fill: #fff; } .cls-9 { fill: #3796c7; } </style></defs><path id="Shape_45_copy" data-name="Shape 45 copy" class="cls-1" d="M35.291,135.316c-0.939,1.907.08,3.931,3.134,5.372l95.14,44.91c4.95,2.335,13.362,2.258,18.79-.171l15.5-6.94s0,0,0,0l138.334-61.952h0l15.5-6.939c5.427-2.431,5.814-6.3.864-8.63l-9.1-4.3-0.7-.047c0.1-.047.191-0.1,0.288-0.148l-85.63-40.42c-4.95-2.335-13.362-2.26-18.79.171L39.289,132.057a7.908,7.908,0,0,0-3.975,3.208" transform="translate(-0.969 -0.125)"></path><path id="Shape_45_copy_2" data-name="Shape 45 copy 2" class="cls-2" d="M321.682,96.721l-15.5,6.941h0L167.852,165.614s0,0,0,0l-15.5,6.939c-5.428,2.429-13.84,2.507-18.79.17l-95.14-44.91c-2.341-1.1-3.476-2.55-3.46-4.026H34.906v-7.866H42.76v1.707L208.616,43.353c5.428-2.431,13.84-2.507,18.79-.171l85.63,40.42-0.288.148c0.236,0.017.465,0.032,0.7,0.045l4.143,1.957V83.527h8.319v7.823C326.415,93.225,324.991,95.24,321.682,96.721Z" transform="translate(-0.969 -0.125)"></path><path class="cls-3" d="M218.8,34.708L35.866,116.632l103.759,48.975L326,84Z" transform="translate(-0.969 -0.125)"></path><path id="Rectangle_31_copy" data-name="Rectangle 31 copy" class="cls-4" d="M218.8,34.708L35.866,116.632l13.193,6.082L231.991,40.058Z" transform="translate(-0.969 -0.125)"></path><path id="Shape_2_copy" data-name="Shape 2 copy" class="cls-5" d="M152.272,120.731L68.114,83.122l96.2-42.282s53.754,23.184,61.151,27.083c4.282,3.121-1.04,30.421-7.269,31.98-15.96,7.019-48.613,20.754-48.613,20.754C164.791,122.826,157.025,122.856,152.272,120.731Z" transform="translate(-0.969 -0.125)"></path><path class="cls-6" d="M161.644,57.147l23.908,10.686a8.364,8.364,0,0,0,6.019-.025c1.666-.754,1.674-1.966.018-2.705L167.681,54.418a8.355,8.355,0,0,0-6.016.024C160,55.2,159.988,56.408,161.644,57.147Zm3.75,9.1c1.667-.753,1.671-1.967.018-2.706l-9-4.022a8.356,8.356,0,0,0-6.016.026c-1.668.754-1.679,1.965-.021,2.706l9,4.02A8.363,8.363,0,0,0,165.394,66.244Z" transform="translate(-0.969 -0.125)"></path><path id="Ellipse_11_copy" data-name="Ellipse 11 copy" class="cls-6" d="M134.908,69.627l23.908,10.686a8.368,8.368,0,0,0,6.019-.026c1.667-.754,1.674-1.965.018-2.705L140.945,66.9a8.346,8.346,0,0,0-6.016.025C133.261,67.677,133.252,68.888,134.908,69.627Zm3.75,9.095c1.667-.753,1.671-1.966.018-2.705l-9-4.021a8.347,8.347,0,0,0-6.016.025c-1.668.753-1.679,1.965-.021,2.705l9,4.023A8.359,8.359,0,0,0,138.658,78.722Z" transform="translate(-0.969 -0.125)"></path><path id="Ellipse_11_copy_2" data-name="Ellipse 11 copy 2" class="cls-6" d="M143.474,84.188l23.908,10.685a8.368,8.368,0,0,0,6.019-.025c1.666-.755,1.674-1.967.018-2.705L149.511,81.458a8.36,8.36,0,0,0-6.016.024C141.827,82.236,141.818,83.448,143.474,84.188Z" transform="translate(-0.969 -0.125)"></path><path id="Ellipse_11_copy_3" data-name="Ellipse 11 copy 3" class="cls-6" d="M167.1,70.148L191,80.834a8.373,8.373,0,0,0,6.019-.026c1.667-.754,1.674-1.965.018-2.7L173.132,67.417a8.359,8.359,0,0,0-6.016.024C165.448,68.2,165.439,69.409,167.1,70.148Zm15.95,18.715c1.667-.754,1.671-1.967.018-2.705l-9-4.023a8.356,8.356,0,0,0-6.016.026c-1.668.755-1.679,1.964-.021,2.705l9,4.021A8.358,8.358,0,0,0,183.045,88.863Z" transform="translate(-0.969 -0.125)"></path><path class="cls-7" d="M218.2,99.9c10.9-8.58-12.836-14.346-12.836-14.346-6.1-2.719-6.071-7.185.06-9.952,0,0,14.761-7.68,20.211-7.68C228.746,71.047,227.929,95.225,218.2,99.9Z" transform="translate(-0.969 -0.125)"></path><path class="cls-8" d="M5.153,56.761c1.925-1.4,5.914-4.069,7.2-2.682,2.055,2.213-6,7.7-7.136,5.568S4.991,56.814,5.153,56.761Z" transform="translate(-0.969 -0.125)"></path><path id="Shape_58_copy" data-name="Shape 58 copy" class="cls-8" d="M19.834,53.785c4.92-.557,4.78,4.218,2.184,5.9-2.132,1.377-9.851.555-8.651-1.541S16.279,55.335,19.834,53.785Z" transform="translate(-0.969 -0.125)"></path><path id="Shape_58_copy_2" data-name="Shape 58 copy 2" class="cls-8" d="M32.626,55.474c-2.935.727-10.309,4.15-7.6,5.586s13.335-2.367,11.226-3.9A13.051,13.051,0,0,0,32.626,55.474Z" transform="translate(-0.969 -0.125)"></path><path class="cls-8" d="M47.957,134.49c0.448,2.632-4.879,6.515-8.746,6.544-6.929.054-14.542-7.435-21.47-14.022-3.43-3.26-5.158-6.227-5.192-8.4l-0.032-.014C13.356,99.344-.726,62.732,10.89,53.725c2.765-.5,6.081,2.885,6.909,5.394-0.273-7.085,7.745-7.213,11.058,1.009,1.663-8.283,8.849-3.666,12.716,1.8-1.871-11.75-9.29-53.281,4.172-50.335,7.74,1.252,7.735,12.136,7.731,20C51.838,78.506,51.96,82.918,57.043,87.4a26.443,26.443,0,0,1,6.9,15.067C65.3,115.92,49.5,115.366,47.957,134.49Z" transform="translate(-0.969 -0.125)"></path><path id="Shape_53_copy" data-name="Shape 53 copy" class="cls-9" d="M42.643,137.11c0.4,2.584-1.3,4.243-5.13,4.273-6.929.052-18.163-5.245-25.091-11.834-3.429-3.259-5.154-6.221-5.189-8.391L7.2,121.141c0.839-19.257-13.243-55.87-1.627-64.876,2.765-.5,6.081,2.884,6.909,5.392-0.273-7.082,7.744-7.211,11.058,1.011,1.663-8.283,8.848-3.665,12.716,1.8,0.282-11.055.855-51.3,4.172-50.335,7.74,1.253,7.735,12.136,7.731,20-0.281,8.029-.864,71.251,2.176,72.392,1.658,0.785,1.111-9.755,1.39-16.577a26.446,26.446,0,0,1,6.9,15.067C59.985,118.475,44.152,117.919,42.643,137.11Z" transform="translate(-0.969 -0.125)"></path><path class="cls-10" d="M283.233,89.381a17.839,17.839,0,0,0,12.711.1,4.222,4.222,0,0,0,2.58-2.282,4.066,4.066,0,0,1,.071.8L298,141.734a4.113,4.113,0,0,1-.046.527c0.181,0.929-.366,1.872-1.632,2.655a3.881,3.881,0,0,1-.875.459l-0.123.058a17.844,17.844,0,0,1-12.712-.1c-2.138-.974-2.954-2.3-2.458-3.531,0-.087-0.011-0.173-0.01-0.264l0.6-53.733a3.964,3.964,0,0,1,.043-0.514A4.514,4.514,0,0,0,283.233,89.381Z" transform="translate(-0.969 -0.125)"></path><path class="cls-7" d="M283.3,83.732a17.846,17.846,0,0,1,12.712.1c3.493,1.588,3.464,4.119-.064,5.65a17.839,17.839,0,0,1-12.711-.1C279.74,87.793,279.769,85.262,283.3,83.732Z" transform="translate(-0.969 -0.125)"></path><path class="cls-8" d="M286.457,71.894a10.051,10.051,0,0,0,7,.057,2.551,2.551,0,0,0,1.347-1.061l0.03,13.662v0.209H294.8a2.134,2.134,0,0,1-1.4,1.31,9.811,9.811,0,0,1-6.92-.058,2.083,2.083,0,0,1-1.38-1.363h-0.036l-0.031-14.242h0.009A1.977,1.977,0,0,0,286.457,71.894Z" transform="translate(-0.969 -0.125)"></path><path id="Ellipse_8_copy_4" data-name="Ellipse 8 copy 4" class="cls-8" d="M263.471,36.043a28.116,28.116,0,0,0,26.177,28.413c-0.516.024,4.344,0.408,0.233,1.042-18.581,2.864-31.943-15.274-31.77-30.826S273.523,2.2,288.716,8.164a5.241,5.241,0,0,0,1.558.062A28.108,28.108,0,0,0,263.471,36.043Z" transform="translate(-0.969 -0.125)"></path><path id="Ellipse_8_copy" data-name="Ellipse 8 copy" class="cls-8" d="M290.16,72.68A36.287,36.287,0,1,1,326.705,36.8,36.217,36.217,0,0,1,290.16,72.68ZM288.569,8.554A28.162,28.162,0,1,0,316.3,37.026,28.1,28.1,0,0,0,288.569,8.554Z" transform="translate(-0.969 -0.125)"></path><path id="Ellipse_8_copy_2" data-name="Ellipse 8 copy 2" class="cls-10" d="M288.049,73.89a36.287,36.287,0,1,1,36.545-35.88A36.219,36.219,0,0,1,288.049,73.89Zm0.52-64.1A28.162,28.162,0,1,0,316.3,38.259,28.1,28.1,0,0,0,288.569,9.785Z" transform="translate(-0.969 -0.125)"></path><path id="Ellipse_9_copy" data-name="Ellipse 9 copy" class="cls-8" d="M283.369,88.681a17.853,17.853,0,0,0,12.711.105,4.315,4.315,0,0,0,2.565-2.227c0.267,1.163-.6,2.36-2.616,3.234a17.846,17.846,0,0,1-12.712-.1c-2.076-.944-2.908-2.221-2.5-3.423C281.019,87.141,281.868,88,283.369,88.681Z" transform="translate(-0.969 -0.125)"></path></svg> 