<?xml version="1.0" encoding="UTF-8"?> <svg xmlns="http://www.w3.org/2000/svg" id="Be_outstanding" data-name="Be outstanding" width="368.531" height="186.875" viewBox="0 0 368.531 186.875"><defs><style> .cls-1 { fill: #69b; } .cls-1, .cls-10, .cls-11, .cls-12, .cls-13, .cls-14, .cls-15, .cls-16, .cls-17, .cls-18, .cls-19, .cls-2, .cls-20, .cls-3, .cls-4, .cls-5, .cls-6, .cls-7, .cls-8, .cls-9 { fill-rule: evenodd; } .cls-2 { fill: #fff; } .cls-3 { fill: #005d8d; opacity: 0.27; } .cls-4, .cls-7 { fill: #004162; } .cls-5 { fill: #e3e3e3; } .cls-6 { fill: #eb293a; } .cls-7 { opacity: 0.41; } .cls-8 { fill: #5687a7; } .cls-9 { fill: #d7e9f3; } .cls-10 { fill: #8abada; } .cls-11 { fill: #c4def1; } .cls-12, .cls-13, .cls-14, .cls-15 { fill: #7caec9; } .cls-12 { opacity: 0.24; } .cls-13 { opacity: 0.46; } .cls-14 { opacity: 0.75; } .cls-15 { opacity: 0.36; } .cls-16 { fill: #eef8ff; } .cls-17 { fill: #ff6b78; opacity: 0.54; } .cls-18 { fill: #bd1423; } .cls-19 { fill: #bee1ff; } .cls-20 { fill: #d1eaff; } </style></defs><path class="cls-1" d="M310.018,428.576L449.835,493.8c5.643,2.632,5.989,6.627.772,8.921L249.7,591.09c-5.217,2.295-14.021,2.02-19.664-.612L90.221,525.257c-5.644-2.633-5.989-6.627-.772-8.921l200.9-88.371C295.57,425.67,304.374,425.943,310.018,428.576Z" transform="translate(-85.75 -416.094)"></path><path id="Rectangle_19_copy" data-name="Rectangle 19 copy" class="cls-2" d="M310.018,424.09l139.817,65.221c5.643,2.632,5.989,6.627.772,8.921L249.7,586.6c-5.217,2.3-14.021,2.023-19.664-.611L90.221,520.772c-5.644-2.633-5.989-6.627-.772-8.922l200.9-88.371C295.57,421.184,304.374,421.459,310.018,424.09Z" transform="translate(-85.75 -416.094)"></path><path id="Shape_4_copy_5" data-name="Shape 4 copy 5" class="cls-3" d="M308,436.461c-8.632-3.606-23.2-2.635-32.569,1.79,0,0-113.349,51.98-153.648,71.4a41.56,41.56,0,0,1-26.536,3.433L225.706,573.82s19.533,3.713,37.42-4.613C305.158,549.644,409.3,500.764,409.3,500.764l5.766-2.721c5.766-2.723,14.192-6.352,21.836-7.006h0Z" transform="translate(-85.75 -416.094)"></path><path id="Shape_4_copy_7" data-name="Shape 4 copy 7" class="cls-4" d="M308,433.129c-8.632-3.6-23.2-2.635-32.569,1.79,0,0-113.349,51.981-153.648,71.4-7.791,3.755-25.254-1.438-25.254-1.438L230.319,566.9s15.945,6.018,30.5-.769c42.018-19.6,148.476-66.648,148.476-66.648l5.766-2.722a69.276,69.276,0,0,1,21.889-5.609Z" transform="translate(-85.75 -416.094)"></path><path class="cls-5" d="M280.99,481l-8.756-4a8.348,8.348,0,0,0-5.94.14l-10.111,4.415c-1.8.786-1.934,1.973-.446,2.654l8.7,3.978a8.348,8.348,0,0,0,5.94-.139l10.111-4.417C282.274,482.891,282.478,481.676,280.99,481Zm41.378,18.924-8.756-4a8.337,8.337,0,0,0-5.94.138l-10.111,4.418c-1.8.785-1.934,1.971-.446,2.652l8.7,3.978a8.337,8.337,0,0,0,5.94-.138l10.111-4.419C323.652,501.816,323.856,500.6,322.368,499.919Zm0.639-13.33a12.424,12.424,0,0,0,8.91-.208l14.1-6.161c2.661-1.161,2.958-2.929.669-3.977l-20.947-9.579a12.434,12.434,0,0,0-8.91.207l-14.1,6.163c-2.66,1.16-2.958,2.928-.668,3.976l8.87,4.056-4.323,1.891-19.116-8.743a4.841,4.841,0,0,0-3.464.081l-5.987,2.615,3.2,1.466,4.124-1.8,17.513,8.009-4.125,1.8,3.205,1.466,4.124-1.8,17.513,8.01-4.124,1.8,3.2,1.465,5.987-2.616c1-.435,1.175-1.127.26-1.547l-19.115-8.742,4.323-1.889ZM305.763,474.42l14.1-6.161a3.282,3.282,0,0,1,2.351-.054l20.946,9.579c0.63,0.288.489,0.76-.176,1.049L328.884,485a3.288,3.288,0,0,1-2.351.054l-20.947-9.58C304.957,475.182,305.031,474.739,305.763,474.42Zm14.092-3.9,18.028,8.243-3.326,1.453-18.028-8.245Zm-5.72,2.5,18.027,8.245-3.326,1.453-18.027-8.244Z" transform="translate(-85.75 -416.094)"></path><path id="Shape_44_copy" data-name="Shape 44 copy" class="cls-5" d="M228.928,477.558a12.471,12.471,0,0,0-8.9.206l-9.48,3.823c-2.658,1.155-2.955,2.914-.668,3.955l20.933,9.532a12.482,12.482,0,0,0,8.9-.208l9.479-3.822c2.659-1.156,2.956-2.916.668-3.957L241,483.051l4.321-1.878-3.2-1.458-4.32,1.878Zm17.233,12.105-9.48,3.823a3.293,3.293,0,0,1-2.349.054L213.4,484.011c-0.629-.287-0.488-0.756.177-1.044l9.479-3.823a3.306,3.306,0,0,1,2.35-.054l20.932,9.529C246.966,488.905,246.892,489.346,246.161,489.663Zm-9.47,1.579-18.016-8.2L222,481.6l18.016,8.2Z" transform="translate(-85.75 -416.094)"></path><path class="cls-5" d="M265.76,520.5l-2.556-1.134,4.8-2.255c1.271-.6,1.243-1.545-0.057-2.121l-12.059-5.35,4.609-2.163a1.972,1.972,0,0,0,.26-0.183l4.251,1.887a6.369,6.369,0,0,0,4.654-.036l11.2-5.255c1.27-.6,1.249-1.546-0.056-2.125l-4.184-1.856,4.169-1.956c5.3,1.408,12.219,1.062,16.7-1.041,5.272-2.472,5.169-6.436-.236-8.836s-14.089-2.33-19.361.144c-4.477,2.1-5.037,5.267-1.812,7.643l-4.169,1.957-4.183-1.857a6.382,6.382,0,0,0-4.655.036l-11.2,5.257c-1.269.6-1.245,1.545,0.057,2.122l4.251,1.885c-0.125.046-.277,0.069-0.395,0.124l-4.609,2.164-12.052-5.345a6.359,6.359,0,0,0-4.654.033l-4.8,2.253-3.109-1.379a6.374,6.374,0,0,0-4.654.034l-9.035,4.24c-1.27.6-1.247,1.548,0.055,2.125l9.262,4.109a6.4,6.4,0,0,0,4.656-.036l9.036-4.239c1.269-.6,1.243-1.548-0.058-2.125l-1.441-.639,2.5-1.175,24.11,10.694-2.5,1.175-1.994-.885a6.387,6.387,0,0,0-4.655.033l-9.036,4.242c-1.269.594-1.241,1.548,0.058,2.123l9.261,4.109a6.377,6.377,0,0,0,4.655-.033l9.036-4.242C267.086,522.027,267.061,521.077,265.76,520.5Zm16.842-30.19a13.783,13.783,0,0,1,10.055-.075c2.808,1.246,2.863,3.3.123,4.589a13.786,13.786,0,0,1-10.056.072C279.919,493.652,279.864,491.6,282.6,490.311Zm-17.116,8.857,8.368,3.712-6.6,3.1-8.368-3.711Zm-41.054,11.249-4.55-2.018,4.438-2.083,4.55,2.019ZM254.369,523.7l-4.552-2.019,4.437-2.084,4.552,2.02Z" transform="translate(-85.75 -416.094)"></path><path id="Rectangle_1_copy_3" data-name="Rectangle 1 copy 3" class="cls-5" d="M276.517,530.912l5.834-2.673a1.813,1.813,0,0,0,.261-0.183l4.257,1.885a6.385,6.385,0,0,0,4.66-.033l11.213-5.255c1.272-.6,1.251-1.546-0.055-2.125l-4.191-1.855-4.719-2.091-4.188-1.856a6.4,6.4,0,0,0-4.662.036l-11.215,5.256c-1.271.6-1.247,1.546,0.057,2.124l4.256,1.884c-0.125.044-.277,0.068-0.395,0.123l-4.616,2.164-12.069-5.346a6.385,6.385,0,0,0-4.66.033l2.419,3.169s6.189,2.363,10.434,4.447C273.882,532.944,276.517,530.912,276.517,530.912Zm10.828-10.982,8.38,3.711-6.611,3.1-8.38-3.712Z" transform="translate(-85.75 -416.094)"></path><path id="Rectangle_1_copy_7" data-name="Rectangle 1 copy 7" class="cls-5" d="M173.84,516.358a6.393,6.393,0,0,0,4.661-.034l11.213-5.254c1.271-.6,1.25-1.547-0.056-2.125l-4.19-1.856L180.748,505l-4.188-1.854a6.4,6.4,0,0,0-4.661.034l-11.216,5.256c-1.271.6-1.247,1.545,0.057,2.124Zm0.476-10.013,8.38,3.713-6.611,3.1-8.379-3.71Z" transform="translate(-85.75 -416.094)"></path><path class="cls-5" d="M183.734,511.689L210.85,524.1l-5.11,2.325-27.117-12.408Z" transform="translate(-85.75 -416.094)"></path><path id="Rectangle_1_copy_6" data-name="Rectangle 1 copy 6" class="cls-5" d="M249.867,474.58l-13.27,6.508c-3.181,1.485,2.948,2.911,4.724,2.083l12.05-6,12.075,5.326a6.414,6.414,0,0,0,4.663-.035l-2.42-3.155s-6.192-2.355-10.439-4.431C252.5,472.555,249.867,474.58,249.867,474.58Z" transform="translate(-85.75 -416.094)"></path><path id="Rectangle_1_copy_4" data-name="Rectangle 1 copy 4" class="cls-5" d="M253.532,539.467l-2.56-1.133,4.808-2.255c1.274-.6,1.245-1.547-0.057-2.122l-12.075-5.35,4.615-2.162-4.721-2.091-4.616,2.164-12.069-5.345a6.385,6.385,0,0,0-4.66.033l-4.808,2.255-3.113-1.379a6.385,6.385,0,0,0-4.66.033l-9.049,4.241c-1.271.6-1.247,1.546,0.056,2.124l9.274,4.107a6.4,6.4,0,0,0,4.663-.033l9.048-4.241c1.271-.6,1.245-1.547-0.058-2.125l-1.443-.638,2.509-1.176,24.143,10.693-2.506,1.176-2-.884a6.4,6.4,0,0,0-4.661.032l-9.048,4.242c-1.272.595-1.244,1.547,0.057,2.124l9.274,4.109a6.4,6.4,0,0,0,4.661-.036l9.048-4.24C254.86,540.994,254.834,540.043,253.532,539.467Zm-41.385-10.082-4.556-2.017,4.443-2.083,4.557,2.016Zm29.978,13.277-4.559-2.019,4.445-2.082,4.557,2.019Z" transform="translate(-85.75 -416.094)"></path><path id="Rectangle_1_copy_5" data-name="Rectangle 1 copy 5" class="cls-5" d="M310.462,520.991l2.562-1.138-4.813-2.262c-1.275-.6-1.246-1.551.057-2.131l12.089-5.366-4.621-2.17,4.727-2.1L325.084,508l12.082-5.365a6.4,6.4,0,0,1,4.666.035l4.813,2.263,3.117-1.384a6.378,6.378,0,0,1,4.665.033l9.059,4.256c1.272,0.6,1.249,1.55-.056,2.131l-9.285,4.122a6.4,6.4,0,0,1-4.668-.034l-9.058-4.255c-1.273-.6-1.246-1.552.058-2.13l1.444-.641-2.511-1.181-24.17,10.73,2.509,1.179,2-.888a6.391,6.391,0,0,1,4.666.034l9.059,4.255c1.272,0.6,1.245,1.554-.057,2.132l-9.285,4.123a6.391,6.391,0,0,1-4.666-.035l-9.059-4.256C309.132,522.521,309.158,521.57,310.462,520.991Zm41.431-10.118,4.561-2.026-4.448-2.088-4.561,2.024ZM321.882,524.2l4.563-2.026L322,520.081l-4.563,2.027Z" transform="translate(-85.75 -416.094)"></path><path class="cls-6" d="M228.327,509.185c0.117-.352.24-0.7,0.363-1.054l0.013-.039c0.158-.453.323-0.922,0.471-1.382a0.829,0.829,0,0,0-.664-0.966,5.317,5.317,0,0,0-2.294-.282l-6.38.32a5.4,5.4,0,0,0-2.062.411,0.659,0.659,0,0,0-.451.749c0.07,0.222.469,0.908,2.7,0.872a34.512,34.512,0,0,1-16.172.533c-1.436-.3-2.872-0.638-4.261-0.965-1.469-.346-2.989-0.7-4.548-1.027-6.339-1.306-13.269-.783-18.085,1.368a0.561,0.561,0,0,1-.058.024c-0.028,0-.065,0-0.114-0.009-2.517-.241-5.129.282-6.208,1.243-1,.891-0.534,1.955,1.094,2.614,0.131,0.053.27,0.1,0.417,0.151,0.181,0.059.372,0.115,0.565,0.164a12.486,12.486,0,0,0,6.256-.1c2.152-.654,2.875-1.793,1.772-2.776a21.367,21.367,0,0,1,11.889-.89c1.594,0.311,3.179.688,4.716,1.057,1.344,0.322,2.732.653,4.159,0.949a42.263,42.263,0,0,0,21.119-.665c0.268-.081.531-0.164,0.792-0.249a0.494,0.494,0,0,0,.1.313,2.6,2.6,0,0,0,1.88.66,5.359,5.359,0,0,0,1.92-.168A1.384,1.384,0,0,0,228.327,509.185Zm-54.7.056a5.661,5.661,0,0,1,3.75-.017c1.041,0.422,1.054,1.115.029,1.548a5.649,5.649,0,0,1-3.748.015C172.615,510.366,172.6,509.673,173.626,509.241Z" transform="translate(-85.75 -416.094)"></path><path id="Shape_46_copy" data-name="Shape 46 copy" class="cls-6" d="M305.844,502.666c-0.116-.357-0.239-0.713-0.363-1.07l-0.013-.038c-0.158-.46-0.322-0.935-0.471-1.406a0.844,0.844,0,0,1,.665-0.982,5.3,5.3,0,0,1,2.3-.283l6.385,0.324a5.421,5.421,0,0,1,2.063.417,0.673,0.673,0,0,1,.452.762c-0.071.225-.47,0.921-2.7,0.884,4.013,1.528,8.61,3.339,13.617,3.753,7.753,0.64,10.607-3.409,21.529,1.536,0.022,0.011-.272,0-0.256,0s-0.05,0,0,0c3.224-.692,5.827.047,6.907,1.022,1,0.907.534,1.984-1.1,2.654-0.13.054-.27,0.106-0.416,0.154-0.182.059-.373,0.116-0.566,0.166a12.337,12.337,0,0,1-6.261-.1c-2.154-.665-1.723-2.13-0.619-3.129-7.4-3.162-10.124-.064-19.479-0.512-5.273-.253-9.845-1.72-15.9-3.846-0.269-.082-0.532-0.167-0.793-0.253a0.516,0.516,0,0,1-.1.319,2.576,2.576,0,0,1-1.882.668,5.253,5.253,0,0,1-1.921-.171A1.387,1.387,0,0,1,305.844,502.666Zm47.057,5.183a5.587,5.587,0,0,0-3.752-.017c-1.042.429-1.056,1.133-.03,1.571a5.587,5.587,0,0,0,3.752.017C353.913,508.99,353.926,508.286,352.9,507.849Z" transform="translate(-85.75 -416.094)"></path><path id="Shape_46_copy_2" data-name="Shape 46 copy 2" class="cls-6" d="M250.387,522.986c-0.1-.315-0.213-0.63-0.323-0.947l-0.012-.034c-0.141-.4-0.287-0.826-0.419-1.242a0.742,0.742,0,0,1,.591-0.865,4.721,4.721,0,0,1,2.045-.253l5.685,0.287a4.832,4.832,0,0,1,1.836.369,0.594,0.594,0,0,1,.4.673c-0.062.2-.418,0.813-2.4,0.782,3.573,1.35,7.665,2.95,12.123,3.315,26.247,2.153,16.113,2.364-.228,1.587-4.695-.223-8.765-1.522-14.159-3.4-0.239-.072-0.473-0.148-0.706-0.224a0.455,0.455,0,0,1-.085.283,2.312,2.312,0,0,1-1.675.59,4.739,4.739,0,0,1-1.711-.151A1.238,1.238,0,0,1,250.387,522.986Z" transform="translate(-85.75 -416.094)"></path><path class="cls-6" d="M288.522,524.93l-4.6.069c-0.949.014-1.7-.32-1.667-0.744l0.155-2,0.152-1.922c0.033-.418.819-0.762,1.756-0.768l2.822-.022c0.938-.008,1.672.325,1.639,0.744l-0.091,1.15c-0.034.424,0.717,0.758,1.667,0.744l10.878-.166c0.95-.014,1.7.321,1.668,0.744l-0.1,1.253c-0.032.414-.808,0.759-1.739,0.768Z" transform="translate(-85.75 -416.094)"></path><path id="Shape_48_copy" data-name="Shape 48 copy" class="cls-6" d="M269.555,484.178l-4.6.071c-0.948.015-1.7-.321-1.667-0.744l0.156-2,0.152-1.921c0.033-.417.819-0.763,1.756-0.77l2.822-.021c0.938-.009,1.671.327,1.638,0.744l-0.091,1.151c-0.033.423,0.718,0.757,1.667,0.743l10.879-.166c0.949-.014,1.7.321,1.667,0.744l-0.1,1.252c-0.032.416-.808,0.759-1.74,0.77Z" transform="translate(-85.75 -416.094)"></path><path class="cls-6" d="M243.482,544.494h-2.39c-0.861,0-1.568-.318-1.579-0.716l-0.042-1.532c-0.011-.394-0.717-0.714-1.578-0.713h-3.34c-0.861,0-1.568-.321-1.579-0.714l-0.03-1.1c-0.01-.395.679-0.717,1.54-0.717h3.34c0.861,0,1.55-.322,1.539-0.717l-0.042-1.532c-0.011-.4.679-0.717,1.54-0.717h2.39c0.861,0,1.568.319,1.578,0.714l0.042,1.534c0.011,0.395.718,0.714,1.579,0.714h3.34c0.861,0,1.568.319,1.578,0.715l0.03,1.095c0.011,0.4-.678.717-1.539,0.717l-3.34,0c-0.861,0-1.55.32-1.54,0.715l0.042,1.531C245.032,544.173,244.343,544.493,243.482,544.494Z" transform="translate(-85.75 -416.094)"></path><path id="Shape_4_copy_6" data-name="Shape 4 copy 6" class="cls-7" d="M331.045,441.315l-13.071,5.639,73.046,31.267,12.3-3.587Z" transform="translate(-85.75 -416.094)"></path><path id="Shape_43_copy" data-name="Shape 43 copy" class="cls-8" d="M409.441,465.665c-0.046.8-.77,1.552-2.288,2.077l-10.563,4.483c-2.978,1.265-8.129,1.136-11.445-.282L332.7,449.5c-1.848-.792-2.715-1.822-2.637-2.8H330.02v-3.076H333.1v0.568l9.553-4.053c2.979-1.265,8.129-1.138,11.445.28l6.933,2.968c6.715-1.05,16.33-1.1,28.789,4.234l0.292,0.126c6.115,2.617,9.03,4.931,10.244,6.9h0.663v1.627a3.8,3.8,0,0,1,0,1.485v0.219h-0.044a5.944,5.944,0,0,1-1.062,2.053l6.233,2.666v-0.361h3.331v3.333h-0.032Zm-24.758-15.618c-3.316-1.42-8.467-1.548-11.445-.283s-2.7,3.461.612,4.879,8.467,1.547,11.445.281S388,451.465,384.683,450.047Z" transform="translate(-85.75 -416.094)"></path><path class="cls-1" d="M406.842,460.174l-6.933-2.967c1.779-2.348,3.443-6.615-9.8-12.282l-0.292-.125c-12.459-5.333-22.074-5.287-28.789-4.234l-6.933-2.967c-3.316-1.42-8.466-1.549-11.445-.283l-10.561,4.48c-2.978,1.265-2.7,3.46.613,4.88l52.444,22.447c3.316,1.419,8.467,1.546,11.445.282l10.563-4.482C410.433,463.788,410.157,461.593,406.842,460.174Zm-32.992-8.35c-3.316-1.42-3.591-3.616-.612-4.878s8.129-1.139,11.445.281,3.591,3.615.612,4.878S377.163,453.241,373.85,451.824Z" transform="translate(-85.75 -416.094)"></path><path id="Shape_37_copy_3" data-name="Shape 37 copy 3" class="cls-9" d="M203.37,430.194l-60.844,14.651L142.27,455.1l57.411,26.912,66.9-25.117V446.126Z" transform="translate(-85.75 -416.094)"></path><path id="Shape_37_copy_6" data-name="Shape 37 copy 6" class="cls-10" d="M203.37,427.887l-60.844,14.651L142.237,453.7l57.444,26,66.892-24.161,0-11.718Z" transform="translate(-85.75 -416.094)"></path><path id="Shape_37_copy_5" data-name="Shape 37 copy 5" class="cls-11" d="M198.4,434.849l1.281,44.85,66.892-24.161,0-11.718Z" transform="translate(-85.75 -416.094)"></path><path id="Shape_37_copy_7" data-name="Shape 37 copy 7" class="cls-12" d="M199.425,472.268v2.05l67.663-27.169Z" transform="translate(-85.75 -416.094)"></path><path id="Shape_37_copy_8" data-name="Shape 37 copy 8" class="cls-13" d="M199.425,472.268v2.05l-56.386-27.936Z" transform="translate(-85.75 -416.094)"></path><path id="Shape_37_copy_9" data-name="Shape 37 copy 9" class="cls-14" d="M199.681,476.88v1.8L162.518,459.2Z" transform="translate(-85.75 -416.094)"></path><path id="Shape_37_copy_10" data-name="Shape 37 copy 10" class="cls-15" d="M199.681,476.88v1.8l27.424-11.789Z" transform="translate(-85.75 -416.094)"></path><path id="Shape_37_copy_4" data-name="Shape 37 copy 4" class="cls-16" d="M203.37,416.1L142.237,441.91l57.444,26,66.892-24.162Z" transform="translate(-85.75 -416.094)"></path><path id="Shape_37_copy" data-name="Shape 37 copy" class="cls-10" d="M142.237,442.421L188.4,462.528l30.5-1.538,47.669-16.73ZM203.37,416.1L142.237,441.91l57.444,26,66.892-24.162Z" transform="translate(-85.75 -416.094)"></path><path class="cls-2" d="M203.37,416.1L142.237,441.91l46.978,19.935,29.176-2.648,48.182-15.45Z" transform="translate(-85.75 -416.094)"></path><path class="cls-11" d="M188.406,462.013l30.5-2.812-17.676-7.179Z" transform="translate(-85.75 -416.094)"></path><path class="cls-5" d="M214.01,434.239c1.24-.425,1.472-1.1.515-1.5l-10.872-4.608a6.524,6.524,0,0,0-3.977.035c-1.241.424-1.472,1.1-.517,1.5l10.872,4.607A6.522,6.522,0,0,0,214.01,434.239Zm6.256,0.931a6.491,6.491,0,0,0-3.976.035c-1.242.424-1.474,1.1-.518,1.5l2.864,1.215a6.526,6.526,0,0,0,3.98-.036c1.242-.424,1.471-1.1.514-1.5Zm17.691,7.5-7.653-3.244a6.5,6.5,0,0,0-3.977.033c-1.242.426-1.472,1.1-.517,1.5l7.653,3.243a6.508,6.508,0,0,0,3.979-.035C238.683,443.746,238.913,443.074,237.957,442.67Zm-43.3-11.465a6.512,6.512,0,0,0-3.976.034c-1.242.425-1.473,1.1-.518,1.5L192.9,433.9a6.507,6.507,0,0,0,3.979-.034c1.242-.424,1.472-1.1.515-1.5Zm3.813,5.058,16.2,6.868a6.515,6.515,0,0,0,3.979-.035c1.242-.424,1.472-1.1.515-1.5l-16.2-6.867a6.5,6.5,0,0,0-3.976.034C197.749,435.185,197.517,435.859,198.473,436.263Zm30.492,9.483-3.845-1.631a6.508,6.508,0,0,0-3.979.036c-1.241.424-1.472,1.1-.516,1.5l3.846,1.63a6.512,6.512,0,0,0,3.978-.036C229.691,446.821,229.921,446.15,228.965,445.746Z" transform="translate(-85.75 -416.094)"></path><path class="cls-5" d="M429.719,541.405L419.7,554.618l-0.039-.083c-1.24,1.42-3.4,1.17-5.887-1.025-3.963-3.5-7.255-10.606-7.352-15.876-0.068-3.7,1.46-5.5,3.747-5.039l16.115,1.325Z" transform="translate(-85.75 -416.094)"></path><path class="cls-6" d="M429.016,542.372a4.844,4.844,0,0,0,.045-0.758,11.64,11.64,0,0,0-3.444-7.437,4.882,4.882,0,0,0-.5-0.372l9.744,0.725Z" transform="translate(-85.75 -416.094)"></path><path id="Shape_3_copy_2" data-name="Shape 3 copy 2" class="cls-6" d="M418.414,555.359l-86.867,39.513L321.126,572.3l86.9-39.527c1.281-.592,3.074-0.08,5.075,1.678,4,3.511,7.3,10.655,7.39,15.956C420.533,553.106,419.733,554.8,418.414,555.359Z" transform="translate(-85.75 -416.094)"></path><path class="cls-17" d="M324.149,578.85l91.264-41.862a27.022,27.022,0,0,1,4.539,9.582l-91.359,41.9Z" transform="translate(-85.75 -416.094)"></path><path class="cls-18" d="M331.55,594.781l0.024,0.053-6.029,2.731c1.235-.632,1.98-2.3,1.944-4.9-0.075-5.325-3.395-12.491-7.414-16.008-1.967-1.719-3.733-2.239-5.02-1.706l-0.006-.013,5.506-2.494a2.487,2.487,0,0,1,.455-0.206l0.109-.049a0.117,0.117,0,0,1,0,.011c1.258-.359,2.914.2,4.745,1.8,4.019,3.516,7.339,10.683,7.413,16.007C333.317,592.452,332.656,594.071,331.55,594.781Z" transform="translate(-85.75 -416.094)"></path><path class="cls-19" d="M325.589,597.533l0.032,0.07-9.715,4.456a4.672,4.672,0,0,1-5.124-.823c-0.282-.2-0.567-0.427-0.859-0.685-3.907-3.456-7.157-10.473-7.258-15.674a9.96,9.96,0,0,1,.13-1.884,4.528,4.528,0,0,1,.128-0.61c0-.015.007-0.03,0.012-0.045a4.712,4.712,0,0,1,.192-0.57,4.159,4.159,0,0,1,.269-0.556c0.013-.022.021-0.046,0.034-0.067a3.162,3.162,0,0,1,.367-0.49,4.624,4.624,0,0,1,1.669-1.317l9.715-4.456,0.011,0.025c1.274-.444,2.984.092,4.882,1.752,4.02,3.515,7.339,10.68,7.413,16C327.523,595.225,326.8,596.883,325.589,597.533Z" transform="translate(-85.75 -416.094)"></path><path id="Rectangle_9_copy" data-name="Rectangle 9 copy" class="cls-2" d="M309.261,601.17c-4.353-3.468-7.741-10.776-7.567-16.32s3.844-7.227,8.2-3.758,7.741,10.777,7.567,16.32S313.613,604.638,309.261,601.17Z" transform="translate(-85.75 -416.094)"></path><path id="Rectangle_9_copy_2" data-name="Rectangle 9 copy 2" class="cls-20" d="M309.272,600.828c-3.945-3.47-7.214-10.53-7.3-15.767s3.038-6.672,6.983-3.2,7.214,10.528,7.3,15.766S313.217,604.3,309.272,600.828Z" transform="translate(-85.75 -416.094)"></path></svg> 