<?xml version="1.0" encoding="UTF-8"?> <svg xmlns="http://www.w3.org/2000/svg" id="Turn_pains_into_gains" data-name="Turn pains into gains" width="368.125" height="199.031" viewBox="0 0 368.125 199.031"><defs><style> .cls-1 { fill: #d7e9f3; } .cls-1, .cls-10, .cls-11, .cls-12, .cls-13, .cls-14, .cls-2, .cls-3, .cls-4, .cls-5, .cls-6, .cls-7, .cls-8, .cls-9 { fill-rule: evenodd; } .cls-11, .cls-2 { fill: #fff; } .cls-3 { fill: #8abada; } .cls-4 { fill: #036ea6; } .cls-5, .cls-6 { fill: #a8cce3; } .cls-5 { opacity: 0.29; } .cls-7 { fill: #d2edff; } .cls-8 { fill: #004162; } .cls-9 { fill: #005d8d; } .cls-10 { fill: #096b9e; } .cls-11 { opacity: 0.45; } .cls-12 { fill: #eb293a; } .cls-13 { fill: #ff4152; } .cls-14 { fill: #bd1423; } </style></defs><path id="Shape_4_copy_8" data-name="Shape 4 copy 8" class="cls-1" d="M198.426,77.3c-7.377-3.078-19.827-2.249-27.835,1.529,0,0-96.873,44.385-131.315,60.966A35.551,35.551,0,0,1,16.6,142.724l111.495,51.869s16.694,3.171,31.981-3.94C196,173.948,285,132.21,285,132.21l4.928-2.326c4.928-2.324,12.129-5.421,18.662-5.98h0Z" transform="translate(-0.531 -0.969)"></path><path id="Shape_4_copy_9" data-name="Shape 4 copy 9" class="cls-2" d="M196.321,69.723c-7.377-3.078-19.827-2.25-27.835,1.526,0,0-96.873,44.386-131.315,60.968-6.659,3.205-21.584-1.229-21.584-1.229L129.93,183.951s13.627,5.14,26.067-.657c35.91-16.731,126.895-56.91,126.895-56.91l4.927-2.325a59.265,59.265,0,0,1,18.708-4.79Z" transform="translate(-0.531 -0.969)"></path><path id="Shape_4_copy_10" data-name="Shape 4 copy 10" class="cls-3" d="M132.88,179.3L33.411,133.2a12.178,12.178,0,0,0,3.76-.986C71.613,115.636,168.486,71.25,168.486,71.25c8.008-3.776,20.458-4.6,27.835-1.526L299.8,116.245a51.115,51.115,0,0,0-8.977,3.112l-4.93,2.327S194.878,161.9,158.955,178.642C146.512,184.442,132.88,179.3,132.88,179.3Z" transform="translate(-0.531 -0.969)"></path><path id="Shape_4_copy_3" data-name="Shape 4 copy 3" class="cls-3" d="M199.67,62.765c-7.377-3.078-19.828-2.25-27.836,1.526,0,0-96.873,44.386-131.314,60.969-3.708,1.784-19.028-10.621-25.965-12.391-5.52-1.409-.438,6.346-0.438,6.346l122.009,56.246s12.517,5.9,19.7,2.51c35.83-16.9,130.415-58.546,130.415-58.546l4.928-2.324a59.251,59.251,0,0,1,18.708-4.791l-0.045-2.942Z" transform="translate(-0.531 -0.969)"></path><path id="Shape_4_copy_2" data-name="Shape 4 copy 2" class="cls-2" d="M199.67,59.921c-7.377-3.08-19.828-2.252-27.836,1.527,0,0-96.873,44.386-131.314,60.967-6.659,3.2-21.584-1.229-21.584-1.229l114.342,52.962s15.365,4.367,22.547.978c35.83-16.9,130.415-58.546,130.415-58.546l4.928-2.326a59.278,59.278,0,0,1,18.708-4.788Z" transform="translate(-0.531 -0.969)"></path><path id="Shape_45_copy_копия_6" data-name="Shape 45 copy копия 6" class="cls-4" d="M78.088,53.122c-0.388.777,0.033,1.6,1.295,2.184l39.308,18.257a10.748,10.748,0,0,0,7.763-.068l6.4-2.823h0l93.911-40.776h0l6.4-2.82c2.243-.989,2.4-2.56.358-3.509l-3.76-1.746c-0.1-.008-0.191-0.013-0.289-0.019,0.04-.021.079-0.04,0.119-0.06L194.22,5.309a10.741,10.741,0,0,0-7.764.069L79.74,51.8A3.27,3.27,0,0,0,78.1,53.1" transform="translate(-0.531 -0.969)"></path><path id="Shape_4_copy_4" data-name="Shape 4 copy 4" class="cls-3" d="M26.206,79.868C-9.669,93.584,14.7,119.475,18.5,121.206c0,0,106.457,48.259,124.857,56.577-15.692-10.948-10-41.4,18.838-35.151ZM154.081,459.18h14.028v14.029H154.081V459.18Z" transform="translate(-0.531 -0.969)"></path><path id="Shape_45_copy_копия_11" data-name="Shape 45 copy копия 11" class="cls-5" d="M58.39,83.7c-0.455.92,0.039,1.9,1.518,2.59L106,107.92a12.468,12.468,0,0,0,9.1-.083l7.508-3.342h0L232.743,56.179h0l7.508-3.341c2.629-1.172,2.817-3.033.419-4.159l-4.409-2.069c-0.113-.007-0.224-0.015-0.339-0.021,0.048-.024.093-0.048,0.14-0.071l-41.488-19.47a12.475,12.475,0,0,0-9.1.081l-125.143,55A3.822,3.822,0,0,0,58.4,83.676" transform="translate(-0.531 -0.969)"></path><path class="cls-3" d="M155.84,175.461c-12.157,3.425-16.628-1.359-20.446-8.925-3.709-7.348-4.322,6.5,5.77,10.458C151.969,181.23,155.84,175.461,155.84,175.461Z" transform="translate(-0.531 -0.969)"></path><path id="Shape_45_copy_копия_4" data-name="Shape 45 copy копия 4" class="cls-6" d="M161.834,95c-0.388.776,0.033,1.6,1.295,2.185l39.308,18.255a10.745,10.745,0,0,0,7.763-.067l6.4-2.822h0l27.407-11.835h0l6.4-2.821c2.242-.988,2.4-2.56.357-3.509l-3.759-1.746c-0.1-.008-0.191-0.014-0.289-0.019l0.119-.06L211.461,76.125a10.743,10.743,0,0,0-7.763.069L163.486,93.671a3.265,3.265,0,0,0-1.642,1.3" transform="translate(-0.531 -0.969)"></path><path id="Shape_4_copy" data-name="Shape 4 copy" class="cls-7" d="M19.854,76.8c-35.875,13.716-11.5,39.606-7.709,41.337-0.039.306,107.129,50.178,125.733,58.2-13.118-10.7-3.987-41.829,17.962-36.768Z" transform="translate(-0.531 -0.969)"></path><path id="Shape_45_copy_копия_7" data-name="Shape 45 copy копия 7" class="cls-6" d="M131.661,109.775c-0.388.777,0.033,1.6,1.295,2.184l39.308,18.258a10.74,10.74,0,0,0,7.763-.071l6.4-2.82h0l7.087-3.214h0l6.4-2.821c2.243-.987,2.4-2.558.357-3.507l-3.759-1.746-0.289-.02,0.119-.059L160.967,99.526a10.743,10.743,0,0,0-7.763.069l-19.891,8.856a3.244,3.244,0,0,0-1.642,1.3" transform="translate(-0.531 -0.969)"></path><path id="Прямоугольник_скругл._углы_881" data-name="Прямоугольник, скругл. углы 881" class="cls-1" d="M128.871,113.853l29.217,14.706c0.928,0.466.605,1.4-.719,2.075a5.22,5.22,0,0,1-4.078.388l-29.217-14.7c-0.927-.469-0.605-1.4.72-2.081A5.228,5.228,0,0,1,128.871,113.853Z" transform="translate(-0.531 -0.969)"></path><path id="Прямоугольник_скругл._углы_881_копия" data-name="Прямоугольник, скругл. углы 881 копия" class="cls-2" d="M160.892,102.768l29.217,14.706c0.927,0.466.6,1.4-.72,2.077a5.228,5.228,0,0,1-4.078.387l-29.216-14.7c-0.928-.467-0.606-1.4.719-2.079A5.24,5.24,0,0,1,160.892,102.768Z" transform="translate(-0.531 -0.969)"></path><path id="Shape_45_copy_копия" data-name="Shape 45 copy копия" class="cls-8" d="M59.622,67.689c-0.455.92,0.039,1.893,1.519,2.59l46.1,21.63a12.473,12.473,0,0,0,9.1-.08l7.507-3.343h0L233.974,40.169h0l7.507-3.343c2.63-1.171,2.817-3.033.419-4.156L237.493,30.6l-0.339-.02c0.047-.024.092-0.049,0.14-0.073l-41.488-19.47a12.473,12.473,0,0,0-9.1.083l-125.143,55a3.833,3.833,0,0,0-1.926,1.545m-0.171,315.2H71.778v9.852H59.463V382.86Zm171.8-33.869h12.316v9.853H231.265v-9.853Z" transform="translate(-0.531 -0.969)"></path><path id="Shape_45_copy_копия_2" data-name="Shape 45 copy копия 2" class="cls-9" d="M59.622,58.451c-0.455.919,0.039,1.894,1.519,2.588l46.1,21.632a12.473,12.473,0,0,0,9.1-.081l7.507-3.342h0L233.974,30.932h0l7.507-3.342c2.63-1.172,2.817-3.032.419-4.159l-4.408-2.069-0.339-.021,0.14-.071L195.806,1.8a12.473,12.473,0,0,0-9.1.082l-125.143,55a3.829,3.829,0,0,0-1.926,1.545" transform="translate(-0.531 -0.969)"></path><path id="Shape_45_copy_копия_3" data-name="Shape 45 copy копия 3" class="cls-9" d="M59.633,65.2a2.777,2.777,0,0,1,.818-0.9,4.335,4.335,0,0,0,.708.435L107.25,86.366a12.46,12.46,0,0,0,9.1-.082l7.507-3.342h0L233.975,34.626h0l7.506-3.342a5.376,5.376,0,0,0,1.121-.67c1.612,1.13,1.212,2.709-1.121,3.75l-7.507,3.343h0L123.847,86.02h0l-7.507,3.343a12.465,12.465,0,0,1-9.1.082L61.14,67.814c-1.48-.694-1.973-1.669-1.519-2.589Z" transform="translate(-0.531 -0.969)"></path><path id="Shape_45_copy_копия_10" data-name="Shape 45 copy копия 10" class="cls-10" d="M79.318,53.139c-0.385.776,0.033,1.6,1.285,2.182l39,18.242a10.585,10.585,0,0,0,7.7-.068l6.352-2.819h0l93.175-40.743h0l6.352-2.819c2.225-.988,2.384-2.557.355-3.507l-3.73-1.743c-0.1-.007-0.19-0.012-0.287-0.02,0.04-.019.078-0.039,0.118-0.061l-35.1-16.417a10.576,10.576,0,0,0-7.7.068L80.958,51.816a3.23,3.23,0,0,0-1.629,1.3" transform="translate(-0.531 -0.969)"></path><path class="cls-8" d="M347.131,115.284a3.6,3.6,0,0,0-1.828,4.748l0,0.01a3.59,3.59,0,0,0,6.822-2.054l16.524-7.4-13.179,17.89s-11.653,2.434-13.334,2.613a4.852,4.852,0,0,1-2.468.022c-0.744.309-1.8-.113-2.99-1.339a18.445,18.445,0,0,1-4.521-10.594c-0.069-2.054.579-3.138,1.627-3.138,0.341-.374.782-0.677,1.2-1.056,1.258-1.128,10.874-8.153,10.874-8.153l22.1,2.2L351.4,116.343A3.587,3.587,0,0,0,347.131,115.284Z" transform="translate(-0.531 -0.969)"></path><path class="cls-6" d="M327.581,123.806l3.257,7.338L303.99,149.865l-125.372,48.96-2.951-6.648L296.2,130.985ZM177.424,198.512a8.689,8.689,0,0,1-2.187-5.133c-0.038-1.653.879-2.036,2.049-.854a8.688,8.688,0,0,1,2.187,5.133C179.511,199.311,178.594,199.693,177.424,198.512Z" transform="translate(-0.531 -0.969)"></path><path id="Rectangle_1_copy_8" data-name="Rectangle 1 copy 8" class="cls-3" d="M297.378,133.3a12.6,12.6,0,0,1,.224-2.636l29.979-6.858,3.257,7.338-25.27,17.619a12.169,12.169,0,0,1-2.382-1.833A23.114,23.114,0,0,1,297.378,133.3Z" transform="translate(-0.531 -0.969)"></path><path id="Rectangle_1_copy_9" data-name="Rectangle 1 copy 9" class="cls-11" d="M328.424,127.532l-26.681,18.934L178.618,198.825l-1.629-2.854,122.167-55.263Z" transform="translate(-0.531 -0.969)"></path><path id="Rounded_Rectangle_1" data-name="Rounded Rectangle 1" class="cls-6" d="M332.528,122.034l0.919,2.077a12.448,12.448,0,0,1,1.21,2.736l1.132,2.555a2.409,2.409,0,0,1-1.555,2.973,0.182,0.182,0,0,1-.037.013c-0.771.678-1.948,0.545-3.22-.545a11.235,11.235,0,0,1-3.461-8.239c0.134-2.033,1.173-2.988,2.55-2.632A2.185,2.185,0,0,1,332.528,122.034Z" transform="translate(-0.531 -0.969)"></path><path class="cls-12" d="M311.228,85.11l-142.823,59.1,0,3.726,140.568-.184Zm-15.994,19.7L222.4,137.464l70.422-.041Z" transform="translate(-0.531 -0.969)"></path><path id="Shape_23_copy" data-name="Shape 23 copy" class="cls-13" d="M311.228,81.389L168.41,144.214l140.568-.184Zm-15.994,19.7L222.4,133.744l70.422-.041Z" transform="translate(-0.531 -0.969)"></path><path id="Rounded_Rectangle_2_copy_7" data-name="Rounded Rectangle 2 copy 7" class="cls-14" d="M310.984,94.108l-5.993-.342a1.043,1.043,0,0,1,.069-2.022l5.993,0.34m-0.276,8.1-5.993-.341a1.044,1.044,0,0,1,.069-2.023l5.993,0.341m-0.3,8.769-5.993-.342a1.043,1.043,0,0,1,.069-2.022l5.993,0.339m-0.276,8.094-5.993-.338a1.045,1.045,0,0,1,.069-2.026l5.993,0.343m-0.253,7.42-5.993-.342a1.043,1.043,0,0,1,.069-2.023l5.993,0.34m-0.276,8.095-5.993-.341a1.043,1.043,0,0,1,.069-2.022l5.993,0.339m-0.3,8.77-5.993-.341a1.045,1.045,0,0,1,.069-2.025l5.993,0.342m-0.276,8.095-5.993-.34a1.045,1.045,0,0,1,.069-2.025l5.993,0.341" transform="translate(-0.531 -0.969)"></path><path id="Shape_45_copy_копия_8" data-name="Shape 45 copy копия 8" class="cls-8" d="M144.228,25.84c-0.347.694,0.03,1.429,1.159,1.952L180.568,44.1a9.623,9.623,0,0,0,6.947-.061l5.73-2.52h0l24.53-10.57h0l5.73-2.52c2.007-.88,2.15-2.285.319-3.134l-3.364-1.559-0.259-.016c0.036-.019.071-0.038,0.107-0.055L188.645,8.986a9.631,9.631,0,0,0-6.948.063L145.706,24.657a2.919,2.919,0,0,0-1.469,1.166" transform="translate(-0.531 -0.969)"></path><path id="Shape_45_copy_копия_9" data-name="Shape 45 copy копия 9" class="cls-8" d="M117.223,39.041c-0.347.7,0.029,1.428,1.159,1.952L153.563,57.3a9.624,9.624,0,0,0,6.947-.061l5.73-2.52h0l6.342-2.87h0l5.73-2.519c2.007-.884,2.151-2.286.32-3.135l-3.364-1.56-0.259-.016,0.106-.054L143.452,29.887a9.636,9.636,0,0,0-6.948.062l-17.8,7.909a2.918,2.918,0,0,0-1.469,1.164" transform="translate(-0.531 -0.969)"></path><path id="Прямоугольник_скругл._углы_881_копия_2" data-name="Прямоугольник, скругл. углы 881 копия 2" class="cls-9" d="M114.726,42.684l26.149,13.135c0.83,0.417.542,1.247-.644,1.856a4.685,4.685,0,0,1-3.649.345L110.433,44.884c-0.83-.417-0.542-1.248.644-1.855A4.686,4.686,0,0,1,114.726,42.684Z" transform="translate(-0.531 -0.969)"></path><path id="Прямоугольник_скругл._углы_881_копия_4" data-name="Прямоугольник, скругл. углы 881 копия 4" class="cls-9" d="M107.953,45.763l33.538,16.83c0.83,0.417.542,1.247-.644,1.855a4.7,4.7,0,0,1-3.65.346L103.659,47.963c-0.83-.416-0.542-1.247.644-1.855A4.688,4.688,0,0,1,107.953,45.763Z" transform="translate(-0.531 -0.969)"></path><path id="Прямоугольник_скругл._углы_881_копия_5" data-name="Прямоугольник, скругл. углы 881 копия 5" class="cls-9" d="M100.563,48.843L134.1,65.671c0.83,0.416.541,1.246-.644,1.856a4.7,4.7,0,0,1-3.65.345L96.27,51.043c-0.83-.417-0.542-1.247.644-1.856A4.685,4.685,0,0,1,100.563,48.843Z" transform="translate(-0.531 -0.969)"></path><path id="Прямоугольник_скругл._углы_881_копия_3" data-name="Прямоугольник, скругл. углы 881 копия 3" class="cls-10" d="M143.385,32.783l26.149,13.135c0.83,0.416.541,1.247-.644,1.856a4.687,4.687,0,0,1-3.65.344L139.091,34.984c-0.83-.416-0.541-1.248.644-1.854A4.693,4.693,0,0,1,143.385,32.783Z" transform="translate(-0.531 -0.969)"></path><path id="Shape_45_copy_копия_5" data-name="Shape 45 copy копия 5" class="cls-9" d="M223.26,16.985s-1.27-.248-2.463-0.617a4.644,4.644,0,0,0-3.695,0l-2.11.976a3.682,3.682,0,0,1-1.776.222c-0.24.018-.482,0.034-0.732,0.034-2.551,0-4.619-.964-4.619-2.155a1.049,1.049,0,0,1,.061-0.279,0.393,0.393,0,0,1-.01-0.362l0-.007a1.1,1.1,0,0,1,.554-0.437l0.082-.036a4.96,4.96,0,0,1,1.81-.784l0.578-.25c0.756-.331.952-1.244-1.232-2.461l8.045,3.277-0.04.02,0.1,0.006,1.268,0.587C219.772,15.038,228.532,17.781,223.26,16.985Z" transform="translate(-0.531 -0.969)"></path></svg> 