<?xml version="1.0" encoding="UTF-8"?> <svg xmlns="http://www.w3.org/2000/svg" id="Convince_from_milliseconds" data-name="Convince from milliseconds" width="301.125" height="196.469" viewBox="0 0 301.125 196.469"><defs><style> .cls-1 { fill: #3796c7; } .cls-1, .cls-2, .cls-3, .cls-4, .cls-5, .cls-6, .cls-7, .cls-8 { fill-rule: evenodd; } .cls-2 { fill: #b9ddf4; } .cls-3 { fill: #a8cce3; } .cls-4 { fill: #fff; } .cls-5 { fill: #de0016; } .cls-6 { fill: #f64d5c; } .cls-7 { fill: #eb293a; } .cls-8 { fill: #004162; } </style></defs><path class="cls-1" d="M228.65,21.222l36.782,16.946V85.989L228.65,69.044V21.222Z" transform="translate(-0.813 -0.375)"></path><path id="Rectangle_827_copy_2" data-name="Rectangle 827 copy 2" class="cls-2" d="M228.65,21.222l36.782,16.946L301.925,21.03,265.143,4.086Z" transform="translate(-0.813 -0.375)"></path><path id="Rectangle_827_copy" data-name="Rectangle 827 copy" class="cls-3" d="M265.432,38.168L301.925,21.03V68.853L265.432,85.989V38.168Z" transform="translate(-0.813 -0.375)"></path><path id="svg" class="cls-4" d="M277.9,51.874c-0.031-4.843-1.628-6.925-4.4-5.722-2.616,1.136-4.38,4.842-4.38,9.27,0,4.029,1.125,4.862,2.676,5.344,0.745,0.238,2.616.417,3.057,1.017a1.493,1.493,0,0,1,.213.866,2.642,2.642,0,0,1-1.354,2.537c-0.973.421-1.627-.053-1.688-2.307l-3.33,1.447c0.03,5.24,1.886,7.639,4.912,6.322,2.889-1.254,4.73-5.158,4.73-10.047s-1.916-5.578-3.726-5.815c-0.457-.065-2.312.179-2.312-1.276a1.957,1.957,0,0,1,1.1-1.928c0.852-.37,1.369.232,1.384,1.644Zm10.843-11.845L285.355,41.5l-0.533,4.461c-0.5,4.181-.988,8.423-1.247,12.632-0.228-4-.715-7.851-1.231-11.588L281.8,43.048l-3.361,1.461,3.239,22.113L285.415,65Zm10.843,5.863-4.455,1.935v5.055l1.429-.621c-0.213,1.843-.882,3.125-1.855,3.549-1.491.646-2.281-1.158-2.281-5.254,0-3.072.349-6.792,2.114-7.559,0.9-.389,1.475.318,1.688,2.009l3.193-1.388c-0.289-5.192-2.4-7.743-4.821-6.693-3.239,1.406-5.52,7.484-5.52,14.721,0,7.3,2.1,11.377,5.155,10.05,1.323-.576,2.312-1.829,3.133-4.3l0.106,2.364,2.114-.916V45.892Z" transform="translate(-0.813 -0.375)"></path><path class="cls-5" d="M86.407,64.38l75.419,34.656v97.8L86.407,162.18V64.38Z" transform="translate(-0.813 -0.375)"></path><path id="Rectangle_827_copy_2-2" data-name="Rectangle 827 copy 2" class="cls-6" d="M86.407,64.38l75.419,34.656L236.65,63.991,161.231,29.335Z" transform="translate(-0.813 -0.375)"></path><path id="Rectangle_827_copy_3" data-name="Rectangle 827 copy 3" class="cls-5" d="M122.119,47.806l75.125,35.1,11.6-5.353L133.762,42.233Z" transform="translate(-0.813 -0.375)"></path><path id="Rectangle_827_copy-2" data-name="Rectangle 827 copy" class="cls-7" d="M161.825,99.036L236.65,63.991v97.8l-74.825,35.045v-97.8Z" transform="translate(-0.813 -0.375)"></path><path id="Rectangle_827_copy_5" data-name="Rectangle 827 copy 5" class="cls-5" d="M196.629,114.312V83.523l12.217-5.968,0.1,30.6Z" transform="translate(-0.813 -0.375)"></path><path id="Фигура_2" data-name="Фигура 2" class="cls-1" d="M125.2,143.442c-0.322-11.773-6.771-24.415-15.17-30.832a44.268,44.268,0,0,0,.14-5.008c-0.546-19.974-13.3-41.69-28.5-48.5-6.679-2.994-12.714-2.609-17.334.462h0l-0.016.013a15.428,15.428,0,0,0-1.387,1.045L55.878,65.93A28.85,28.85,0,0,0,47.7,60.156c-5-2.243-9.528-2.024-13.068.123L34.62,60.26l-0.235.178a11.986,11.986,0,0,0-1.375,1.026L22.354,69.428l3.636,4.449h0l0.874,1.068c-7.582.221-12.812,7.419-12.5,18.784,0.4,14.519,9.669,30.3,20.712,35.253l63.112,27.235-0.537,1.875,3.451,3.165v0.006l2.942,8.858,14.572-10.353a10.757,10.757,0,0,0,1.5-1.119l0,0h0c3.315-2.99,5.271-8.29,5.081-15.2v-0.007h0Z" transform="translate(-0.813 -0.375)"></path><path id="Фигура_1" data-name="Фигура 1" class="cls-3" d="M13.614,84.549C14.67,71.482,23.324,64.93,34.147,69.782a30.643,30.643,0,0,1,10.016,7.66C48.4,67.8,57.432,63.935,68.115,68.723c15.193,6.813,27.952,28.521,28.5,48.489a44.514,44.514,0,0,1-.139,5c8.4,6.416,14.847,19.052,15.168,30.823,0.38,13.832-7.844,21.219-18.367,16.5L21.516,138.588C10.475,133.636,1.2,117.86.806,103.348,0.491,91.828,5.864,84.578,13.614,84.549Z" transform="translate(-0.813 -0.375)"></path><path id="Ellipse_1_copy" data-name="Ellipse 1 copy" class="cls-1" d="M186.808,47.024c14.532-9.445,12.8-24.076-3.873-32.679s-41.967-7.92-56.5,1.525-12.8,24.076,3.874,32.68S172.276,56.468,186.808,47.024Z" transform="translate(-0.813 -0.375)"></path><path id="Ellipse_1_copy_копия" data-name="Ellipse 1 copy копия" class="cls-8" d="M187.386,39.1c14.532-9.444,12.8-24.074-3.874-32.677s-41.967-7.921-56.5,1.525-12.8,24.075,3.874,32.677S172.854,48.546,187.386,39.1Z" transform="translate(-0.813 -0.375)"></path><path id="Фигура_960" data-name="Фигура 960" class="cls-4" d="M170.709,14.137c1.672,0.861,1.85,2.325.4,3.27a6.225,6.225,0,0,1-5.655.145l-0.036-.011c-5.531-2.7-13.7-2.437-18.437.628-4.823,3.124-4.247,7.977,1.285,10.842,5.432,2.812,13.622,2.659,18.483-.3l-5.889-3.049,18.079-1.884-1.218,10.614L172.8,31.84c-7.775,4.849-21.036,5.129-29.811.586-8.873-4.593-9.8-12.379-2.06-17.391,7.638-4.946,20.858-5.34,29.733-.926Z" transform="translate(-0.813 -0.375)"></path></svg> 