<?xml version="1.0" encoding="UTF-8"?> <svg xmlns="http://www.w3.org/2000/svg" id="Tweak_until_it_s_sleek" data-name="Tweak until it's sleek" width="297.719" height="224.313" viewBox="0 0 297.719 224.313"><defs><style> .cls-1 { fill: #fff; } .cls-1, .cls-10, .cls-11, .cls-2, .cls-3, .cls-4, .cls-5, .cls-6, .cls-7, .cls-8, .cls-9 { fill-rule: evenodd; } .cls-2 { fill: #c3d2fe; } .cls-3 { fill: #9cd4ed; } .cls-4 { fill: #a8cce3; } .cls-5 { fill: #004162; } .cls-6 { fill: #005d8d; } .cls-7 { fill: #3796c7; } .cls-8 { fill: #f64d5c; } .cls-9 { fill: #de0016; } .cls-10 { fill: #036ea6; } .cls-11 { fill: #d7f1fe; } </style></defs><path id="Shape_1_copy_4" data-name="Shape 1 copy 4" class="cls-1" d="M262.839,471.2l-0.239-5.33,4.37-2.133c0.715-.348.886-1.429,0.411-2.581l-3.991-9.668a3.4,3.4,0,0,0-2.366-2.158l-5.57-.638-4.282-4.863-1.151-6.867a3.946,3.946,0,0,0-1.954-2.74l-7.981-3.925a1.235,1.235,0,0,0-1.953.819l-1.151,5.737-4.285.649-5.57-4.84c-0.9-.781-1.891-0.853-2.366-0.169l-3.99,5.744a2.852,2.852,0,0,0,.411,2.985l4.417,6.5v5.51l-4.417,2.156c-0.715.348-.887,1.428-0.411,2.581l3.99,9.668a3.412,3.412,0,0,0,2.366,2.159l5.57,0.638,4.281,4.858,1.153,7a3.959,3.959,0,0,0,1.955,2.75l7.981,3.922a1.237,1.237,0,0,0,1.956-.824l1.154-5.873,4.618-.768,5.56,4.832c0.9,0.783,1.891.852,2.366,0.168l3.991-5.744a2.854,2.854,0,0,0-.411-2.985Zm-18.6-7a7.881,7.881,0,0,1-4.023-6.465c0-2.475,1.8-3.6,4.023-2.508a7.877,7.877,0,0,1,4.026,6.464C248.266,464.158,246.461,465.285,244.24,464.192Z" transform="translate(-69.938 -367.125)"></path><path id="Shape_1_copy_8" data-name="Shape 1 copy 8" class="cls-1" d="M261.5,421.015l-5.318-9.679-0.165-7.976,5.009-5.084a2.281,2.281,0,0,0-.066-2.631l-4.169-7.5a3.634,3.634,0,0,0-2.456-1.905l-8.4-1.027-7.479-5.76-5.427-9.652a3.623,3.623,0,0,0-2.463-1.889l-6.509-.74a1.278,1.278,0,0,0-1.474,1.443l0.122,9.028-4.458,4.43-8.359-.879a1.28,1.28,0,0,0-1.458,1.462l0.148,7.043a3.953,3.953,0,0,0,1.546,2.8l8.477,6.611,4.73,8.514,0.256,9.089a3.964,3.964,0,0,0,1.562,2.792l6.6,5.091a3.415,3.415,0,0,0,.635.392,1.576,1.576,0,0,0,1.8-.105l5.123-4.958,7.376,0.846,8.515,6.5c0.9,0.688,1.881.8,2.422,0.266l3.933-3.9A2.253,2.253,0,0,0,261.5,421.015ZM236.63,402.951a7.706,7.706,0,0,1-4.3-6.172c-0.05-2.374,1.8-3.464,4.119-2.429,0.03,0.012.06,0.025,0.092,0.04a7.557,7.557,0,0,1,2.912,2.543,6.722,6.722,0,0,1,1.3,3.589C240.8,402.894,238.951,403.984,236.63,402.951Z" transform="translate(-69.938 -367.125)"></path><path id="Shape_1_copy_6" data-name="Shape 1 copy 6" class="cls-1" d="M207.869,450.314c0.856,0.727,1.8.733,2.247,0.021l5.708-9.018a2.908,2.908,0,0,0-.391-2.953l-6.685-9.912-0.387-9.032,6.6-3.824c0.679-.391.841-1.482,0.39-2.6l-5.707-14.17a3,3,0,0,0-2.247-2.008l-8.377-.458-6.878-7.76-1.733-10.759a3.612,3.612,0,0,0-1.854-2.615l-11.415-5.153a1.226,1.226,0,0,0-1.855.939l-1.732,9.2-6.878,1.551-8.378-7.106c-0.854-.724-1.795-0.734-2.246-0.019l-5.708,9.018a2.912,2.912,0,0,0,.39,2.954l6.643,9.845v9.307l-6.643,3.849c-0.678.394-.841,1.483-0.39,2.6l5.708,14.17a3,3,0,0,0,2.246,2.008l8.378,0.458,6.874,7.754,1.734,10.957a3.618,3.618,0,0,0,1.857,2.622l11.415,5.153a1.226,1.226,0,0,0,1.856-.947l1.736-9.4,7.354-1.768Zm-24.786-27c-4.937-2.229-8.955-8.753-8.955-14.544s4.018-8.688,8.955-6.46,8.954,8.754,8.954,14.544S188.02,425.538,183.083,423.311Z" transform="translate(-69.938 -367.125)"></path><path class="cls-2" d="M256.4,473.206l-0.239-5.326,4.37-2.137c0.715-.346.886-1.427,0.411-2.578l-3.99-9.669a3.4,3.4,0,0,0-2.367-2.158l-5.57-.639-4.282-4.862-1.151-6.867a3.945,3.945,0,0,0-1.953-2.74l-7.982-3.925a1.235,1.235,0,0,0-1.953.818l-1.151,5.737-4.284.649-5.57-4.838c-0.9-.783-1.892-0.855-2.367-0.171l-3.99,5.746a2.848,2.848,0,0,0,.411,2.982l4.417,6.5v5.509l-4.417,2.157c-0.715.35-.886,1.428-0.411,2.581l3.99,9.668a3.409,3.409,0,0,0,2.367,2.159l5.57,0.639,4.28,4.856,1.153,7a3.957,3.957,0,0,0,1.955,2.749l7.982,3.924a1.237,1.237,0,0,0,1.955-.825l1.154-5.874,4.618-.767,5.561,4.831c0.9,0.783,1.89.853,2.366,0.169l3.99-5.745a2.85,2.85,0,0,0-.411-2.983Zm-18.6-7a7.886,7.886,0,0,1-4.024-6.467c0-2.475,1.805-3.6,4.024-2.508a7.883,7.883,0,0,1,4.025,6.466C241.828,466.171,240.023,467.3,237.8,466.206Z" transform="translate(-69.938 -367.125)"></path><path class="cls-1" d="M156.928,373.968l-6.438,2.012,5.231,7.245Z" transform="translate(-69.938 -367.125)"></path><path class="cls-1" d="M176.241,369.942l-6.437,2.415,6.84,4.427Z" transform="translate(-69.938 -367.125)"></path><path class="cls-1" d="M189.519,455.277l-6.437,2.013-2.012-5.234Z" transform="translate(-69.938 -367.125)"></path><path class="cls-1" d="M202.8,452.861l6.438-2.012-3.219-6.843Z" transform="translate(-69.938 -367.125)"></path><path class="cls-1" d="M202.4,383.225l7.242-2.013,1.207,4.831Z" transform="translate(-69.938 -367.125)"></path><path class="cls-1" d="M216.88,369.136l6.437-2.013,0.4,5.234Z" transform="translate(-69.938 -367.125)"></path><path class="cls-1" d="M250.678,429.918l6.035-2.012-0.4-5.233Z" transform="translate(-69.938 -367.125)"></path><path class="cls-1" d="M226.939,427.1l6.84-1.611-0.4-8.452Z" transform="translate(-69.938 -367.125)"></path><path class="cls-1" d="M218.892,433.943l6.84-2.012,0.4,9.66Z" transform="translate(-69.938 -367.125)"></path><path class="cls-1" d="M232.974,431.931l6.036-2.013v8.454Z" transform="translate(-69.938 -367.125)"></path><path id="Shape_1_copy" data-name="Shape 1 copy" class="cls-2" d="M255.062,423.026l-5.319-9.677-0.165-7.976,5.009-5.085a2.279,2.279,0,0,0-.066-2.631l-4.169-7.5a3.625,3.625,0,0,0-2.456-1.9l-8.4-1.026-7.479-5.762-5.428-9.653a3.63,3.63,0,0,0-2.463-1.889l-6.509-.737a1.276,1.276,0,0,0-1.474,1.441l0.122,9.029-4.458,4.43-8.359-.88a1.28,1.28,0,0,0-1.458,1.462l0.148,7.043a3.945,3.945,0,0,0,1.547,2.8l8.476,6.611,4.73,8.516,0.256,9.087a3.96,3.96,0,0,0,1.562,2.792l6.6,5.092a3.356,3.356,0,0,0,.635.391,1.576,1.576,0,0,0,1.8-.1l5.123-4.959,7.376,0.846,8.515,6.5c0.9,0.689,1.882.8,2.422,0.264l3.933-3.9A2.256,2.256,0,0,0,255.062,423.026Zm-24.87-18.062a7.709,7.709,0,0,1-4.3-6.174c-0.05-2.373,1.8-3.463,4.119-2.428a0.886,0.886,0,0,1,.092.04,7.573,7.573,0,0,1,2.912,2.543,6.719,6.719,0,0,1,1.295,3.589C234.363,404.907,232.514,406,230.192,404.964Z" transform="translate(-69.938 -367.125)"></path><path id="Shape_1_copy_2" data-name="Shape 1 copy 2" class="cls-2" d="M201.432,452.327c0.856,0.727,1.8.735,2.246,0.022l5.708-9.018a2.91,2.91,0,0,0-.391-2.954l-6.685-9.911-0.386-9.032,6.6-3.825c0.679-.391.842-1.482,0.39-2.6l-5.707-14.171a3,3,0,0,0-2.247-2.008l-8.377-.457-6.878-7.761-1.733-10.759a3.611,3.611,0,0,0-1.854-2.615L170.7,372.084a1.226,1.226,0,0,0-1.855.942l-1.732,9.195-6.878,1.55-8.378-7.106c-0.854-.724-1.8-0.735-2.246-0.021l-5.708,9.018a2.908,2.908,0,0,0,.391,2.953l6.643,9.848v9.307l-6.643,3.849c-0.679.393-.842,1.483-0.391,2.6l5.708,14.171a3,3,0,0,0,2.246,2.007l8.378,0.457,6.874,7.757,1.735,10.955a3.622,3.622,0,0,0,1.856,2.624l11.415,5.15a1.225,1.225,0,0,0,1.856-.947l1.736-9.4,7.354-1.769Zm-24.787-27c-4.937-2.229-8.954-8.754-8.954-14.545s4.017-8.689,8.954-6.461,8.954,8.754,8.954,14.544S181.582,427.551,176.645,425.325Z" transform="translate(-69.938 -367.125)"></path><path id="Shape_1_copy_3" data-name="Shape 1 copy 3" class="cls-3" d="M256.4,473.206l-0.239-5.326,4.37-2.137c0.715-.346.886-1.427,0.411-2.578l-3.99-9.669a3.4,3.4,0,0,0-2.367-2.158l-5.57-.639-4.282-4.862-1.151-6.867a3.945,3.945,0,0,0-1.953-2.74l-7.982-3.925a1.235,1.235,0,0,0-1.953.818l-1.151,5.737-4.284.649-5.57-4.838c-0.9-.783-1.892-0.855-2.367-0.171l-3.99,5.746a2.848,2.848,0,0,0,.411,2.982l4.417,6.5v5.509l-4.417,2.157c-0.715.35-.886,1.428-0.411,2.581l3.99,9.668a3.409,3.409,0,0,0,2.367,2.159l5.57,0.639,4.28,4.856,1.153,7a3.957,3.957,0,0,0,1.955,2.749l7.982,3.924a1.237,1.237,0,0,0,1.955-.825l1.154-5.874,4.618-.767,5.561,4.831c0.9,0.783,1.89.853,2.366,0.169l3.99-5.745a2.85,2.85,0,0,0-.411-2.983Zm-18.6-7a7.886,7.886,0,0,1-4.024-6.467c0-2.475,1.805-3.6,4.024-2.508a7.883,7.883,0,0,1,4.025,6.466C241.828,466.171,240.023,467.3,237.8,466.206Z" transform="translate(-69.938 -367.125)"></path><path id="Shape_1_copy_7" data-name="Shape 1 copy 7" class="cls-4" d="M255.062,423.026a2.256,2.256,0,0,1,.045,2.621l-3.933,3.9c-0.54.535-1.519,0.425-2.422-.264l-8.515-6.5-7.376-.846-5.123,4.959a1.576,1.576,0,0,1-1.8.1,3.356,3.356,0,0,1-.635-0.391l-6.6-5.092a3.96,3.96,0,0,1-1.562-2.792l-0.256-9.087-4.73-8.516-8.476-6.611a3.945,3.945,0,0,1-1.547-2.8l-0.148-7.043a1.28,1.28,0,0,1,1.458-1.462l8.359,0.88,4.458-4.43-0.122-9.029a1.276,1.276,0,0,1,1.474-1.441l6.509,0.737a3.63,3.63,0,0,1,2.463,1.889l5.428,9.653,7.479,5.762,8.4,1.026a3.625,3.625,0,0,1,2.456,1.9l4.169,7.5a2.279,2.279,0,0,1,.066,2.631l-5.009,5.085,0.165,7.976Zm-22.044-24.081a7.573,7.573,0,0,0-2.912-2.543,0.886,0.886,0,0,0-.092-0.04c-2.321-1.035-4.169.055-4.119,2.428a7.709,7.709,0,0,0,4.3,6.174c2.322,1.033,4.171-.057,4.121-2.43A6.719,6.719,0,0,0,233.018,398.945Z" transform="translate(-69.938 -367.125)"></path><path id="Shape_1_copy_5" data-name="Shape 1 copy 5" class="cls-5" d="M201.432,452.327c0.856,0.727,1.8.735,2.246,0.022l5.708-9.018a2.91,2.91,0,0,0-.391-2.954l-6.685-9.911-0.386-9.032,6.6-3.825c0.679-.391.842-1.482,0.39-2.6l-5.707-14.171a3,3,0,0,0-2.247-2.008l-8.377-.457-6.878-7.761-1.733-10.759a3.611,3.611,0,0,0-1.854-2.615L170.7,372.084a1.226,1.226,0,0,0-1.855.942l-1.732,9.195-6.878,1.55-8.378-7.106c-0.854-.724-1.8-0.735-2.246-0.021l-5.708,9.018a2.908,2.908,0,0,0,.391,2.953l6.643,9.848v9.307l-6.643,3.849c-0.679.393-.842,1.483-0.391,2.6l5.708,14.171a3,3,0,0,0,2.246,2.007l8.378,0.457,6.874,7.757,1.735,10.955a3.622,3.622,0,0,0,1.856,2.624l11.415,5.15a1.225,1.225,0,0,0,1.856-.947l1.736-9.4,7.354-1.769Zm-24.787-27c-4.937-2.229-8.954-8.754-8.954-14.545s4.017-8.689,8.954-6.461,8.954,8.754,8.954,14.544S181.582,427.551,176.645,425.325Z" transform="translate(-69.938 -367.125)"></path><path class="cls-6" d="M100.69,423.546l5.294-3.194,1.588,7.188Z" transform="translate(-69.938 -367.125)"></path><path id="Rectangle_25_copy" data-name="Rectangle 25 copy" class="cls-6" d="M149.684,436.7L113.6,420.614c-6.367-2.841-11.32.478-11.32,7.007V465.8c0,6.781,5.188,14.369,11.32,17.1l35.846,15.984c6.368,2.841,11.32-.475,11.32-7V453.7C161,447.278,155.816,439.439,149.684,436.7Z" transform="translate(-69.938 -367.125)"></path><path id="Rectangle_25_copy_3" data-name="Rectangle 25 copy 3" class="cls-7" d="M144.126,440.164l-36.083-16.09c-6.367-2.839-11.32.479-11.32,7.007v38.176c0,6.782,5.189,14.369,11.32,17.1l35.847,15.984c6.367,2.841,11.319-.478,11.319-7.008V457.162C155.445,450.737,150.257,442.9,144.126,440.164Z" transform="translate(-69.938 -367.125)"></path><path class="cls-1" d="M124.924,474.29l-7.073,4.382-6.837-10.583-4.939-8.064,7.195-4.332,6.884,11.845,22.618-15.456,5.037,7.22Z" transform="translate(-69.938 -367.125)"></path><path id="Rectangle_25_copy_3-2" data-name="Rectangle 25 copy 3" class="cls-4" d="M235.462,392.818L221.108,380.2c-2.755-1.233-6.157,5.851-6.157,8.684v16.556a8.874,8.874,0,0,0,4.9,7.416l15.511,6.932c2.755,1.233,9.147,2.039,9.147-.792l-4.249-18.8A8.7,8.7,0,0,0,235.462,392.818Z" transform="translate(-69.938 -367.125)"></path><path class="cls-5" d="M227.368,407.311l-3.963,2.436-3.832-5.885-2.767-4.483,4.032-2.41,3.857,6.587,12.674-8.594,2.822,4.016Z" transform="translate(-69.938 -367.125)"></path><path id="Прямоугольник_скругл._углы_5" data-name="Прямоугольник, скругл. углы 5" class="cls-8" d="M242.682,457.62l118.091,55.49c2.025,0.952,1.165,2.8-1.923,4.139L198.387,585.3c-3.087,1.335-7.232,1.644-9.257.692L71.039,530.5c-2.026-.951-1.165-2.8,1.922-4.136L233.425,458.31C236.512,456.978,240.657,456.668,242.682,457.62Z" transform="translate(-69.938 -367.125)"></path><path id="Прямоугольник_5" data-name="Прямоугольник 5" class="cls-1" d="M254.9,481.494l36.847,17.316c1.095,0.514.634,1.513-1.029,2.232a7.2,7.2,0,0,1-4.992.368L248.877,484.1c-1.095-.515-0.634-1.514,1.029-2.232A7.208,7.208,0,0,1,254.9,481.494Z" transform="translate(-69.938 -367.125)"></path><path id="Прямоугольник_5_копия" data-name="Прямоугольник 5 копия" class="cls-1" d="M224.8,478.056l17.036,8.007c1.095,0.513.634,1.512-1.029,2.231a7.2,7.2,0,0,1-4.992.368l-17.037-8.006c-1.094-.514-0.633-1.513,1.029-2.229A7.189,7.189,0,0,1,224.8,478.056Z" transform="translate(-69.938 -367.125)"></path><path id="Прямоугольник_5_копия_2" data-name="Прямоугольник 5 копия 2" class="cls-1" d="M249.368,489.6l45.564,21.41c1.095,0.515.634,1.513-1.029,2.232a7.184,7.184,0,0,1-4.992.368L243.346,492.2c-1.094-.515-0.634-1.513,1.029-2.231A7.188,7.188,0,0,1,249.368,489.6Z" transform="translate(-69.938 -367.125)"></path><path id="Прямоугольник_6_копия" data-name="Прямоугольник 6 копия" class="cls-9" d="M184.405,490.722l66.882,31.4c1.013,0.477.583,1.4-.961,2.068a6.685,6.685,0,0,1-4.629.346l-66.882-31.406c-1.012-.475-0.582-1.4.961-2.067A6.663,6.663,0,0,1,184.405,490.722Z" transform="translate(-69.938 -367.125)"></path><path id="Прямоугольник_6_копия_2" data-name="Прямоугольник 6 копия 2" class="cls-9" d="M198.38,484.688l98.287,46.184c1.012,0.475.582,1.4-.961,2.068a6.673,6.673,0,0,1-4.629.345L192.79,487.1c-1.013-.478-0.582-1.4.961-2.068A6.657,6.657,0,0,1,198.38,484.688Z" transform="translate(-69.938 -367.125)"></path><path id="Прямоугольник_6_копия_3" data-name="Прямоугольник 6 копия 3" class="cls-9" d="M151.153,506.732l66.882,31.407c1.013,0.474.582,1.4-.961,2.068a6.69,6.69,0,0,1-4.629.345l-66.882-31.406c-1.013-.476-0.582-1.4.961-2.067A6.669,6.669,0,0,1,151.153,506.732Z" transform="translate(-69.938 -367.125)"></path><path id="Прямоугольник_6_копия_4" data-name="Прямоугольник 6 копия 4" class="cls-9" d="M165.128,500.7l98.287,46.184c1.012,0.476.582,1.4-.962,2.068a6.665,6.665,0,0,1-4.628.345l-98.287-46.184c-1.013-.476-0.583-1.4.961-2.068A6.673,6.673,0,0,1,165.128,500.7Z" transform="translate(-69.938 -367.125)"></path><path id="Прямоугольник_6_копия_5" data-name="Прямоугольник 6 копия 5" class="cls-9" d="M115.438,520.28l66.882,31.4c1.013,0.476.582,1.4-.961,2.07a6.673,6.673,0,0,1-4.629.345l-66.882-31.4c-1.013-.477-0.582-1.4.961-2.07A6.673,6.673,0,0,1,115.438,520.28Z" transform="translate(-69.938 -367.125)"></path><path id="Прямоугольник_6_копия_6" data-name="Прямоугольник 6 копия 6" class="cls-9" d="M129.413,514.245L227.7,560.429c1.013,0.477.583,1.4-.961,2.069a6.667,6.667,0,0,1-4.629.345L123.823,516.66c-1.013-.477-0.583-1.4.961-2.069A6.68,6.68,0,0,1,129.413,514.245Z" transform="translate(-69.938 -367.125)"></path><path id="Shape_45_copy_копия_12" data-name="Shape 45 copy копия 12" class="cls-10" d="M202.171,555.5c-0.388.776,0.033,1.6,1.3,2.184l39.308,18.257a10.745,10.745,0,0,0,7.763-.068l6.4-2.821h0l93.912-40.778h0l6.4-2.821c2.242-.988,2.4-2.557.357-3.509l-3.759-1.746-0.289-.017c0.04-.022.079-0.041,0.119-0.061L318.3,507.69a10.745,10.745,0,0,0-7.763.068L203.823,554.179a3.249,3.249,0,0,0-1.642,1.3" transform="translate(-69.938 -367.125)"></path><path id="_2" data-name="2" class="cls-5" d="M183.7,566.375c-0.455.92,0.039,1.894,1.519,2.588l46.1,21.632a12.466,12.466,0,0,0,9.1-.084l7.507-3.341h0l110.127-48.316h0l7.508-3.343c2.63-1.169,2.817-3.032.419-4.158l-4.408-2.067-0.339-.023,0.139-.07-41.487-19.471a12.466,12.466,0,0,0-9.1.084l-125.143,55a3.826,3.826,0,0,0-1.926,1.546" transform="translate(-69.938 -367.125)"></path><path id="Shape_45_copy_копия_15" data-name="Shape 45 copy копия 15" class="cls-6" d="M183.7,560.831c-0.455.922,0.039,1.9,1.519,2.591l46.1,21.631a12.471,12.471,0,0,0,9.1-.083l7.507-3.342h0l110.127-48.314h0l7.508-3.343c2.63-1.171,2.817-3.033.419-4.158l-4.408-2.068-0.339-.023c0.047-.024.092-0.049,0.139-0.071l-41.487-19.471a12.481,12.481,0,0,0-9.1.084l-125.143,55a3.83,3.83,0,0,0-1.926,1.545" transform="translate(-69.938 -367.125)"></path><path id="Shape_45_copy_копия_17" data-name="Shape 45 copy копия 17" class="cls-11" d="M203.4,555.52c-0.385.775,0.033,1.6,1.285,2.182l39,18.241a10.583,10.583,0,0,0,7.7-.068l6.351-2.819h0l93.175-40.743h0l6.352-2.82c2.225-.986,2.384-2.557.354-3.506l-3.729-1.744-0.287-.018c0.04-.02.078-0.042,0.118-0.061l-35.1-16.418a10.583,10.583,0,0,0-7.7.069L205.04,554.2a3.241,3.241,0,0,0-1.629,1.3" transform="translate(-69.938 -367.125)"></path><path id="Shape_45_copy_копия_18" data-name="Shape 45 copy копия 18" class="cls-3" d="M269.542,528.221c-0.347.693,0.03,1.428,1.159,1.952l35.181,16.306a9.621,9.621,0,0,0,6.948-.062l5.73-2.52h0l24.53-10.57h0l5.73-2.52c2.007-.882,2.15-2.285.32-3.134l-3.365-1.559c-0.087-.007-0.171-0.011-0.259-0.017l0.107-.054-31.664-14.676a9.631,9.631,0,0,0-6.948.062l-35.99,15.61a2.913,2.913,0,0,0-1.47,1.164" transform="translate(-69.938 -367.125)"></path><path id="Shape_45_copy_копия_19" data-name="Shape 45 copy копия 19" class="cls-3" d="M241.305,541.422c-0.347.694,0.03,1.429,1.159,1.952l35.181,16.3a9.626,9.626,0,0,0,6.948-.061l5.73-2.518h0l6.342-2.871h0l5.73-2.52c2.007-.881,2.15-2.285.32-3.135l-3.365-1.557c-0.086-.006-0.171-0.013-0.258-0.018,0.036-.018.07-0.036,0.106-0.053l-31.664-14.678a9.637,9.637,0,0,0-6.948.062l-17.8,7.91a2.914,2.914,0,0,0-1.47,1.165" transform="translate(-69.938 -367.125)"></path><path id="Прямоугольник_скругл._углы_881_копия_6" data-name="Прямоугольник, скругл. углы 881 копия 6" class="cls-3" d="M238.809,545.064L264.958,558.2c0.83,0.418.542,1.246-.644,1.856a4.7,4.7,0,0,1-3.65.345l-26.149-13.134c-0.83-.418-0.541-1.248.644-1.858A4.693,4.693,0,0,1,238.809,545.064Z" transform="translate(-69.938 -367.125)"></path><path id="Прямоугольник_скругл._углы_881_копия_10" data-name="Прямоугольник, скругл. углы 881 копия 10" class="cls-5" d="M212.33,566.617l8.908,4.514c0.83,0.417.541,1.247-.644,1.854a4.691,4.691,0,0,1-3.65.347l-8.907-4.514c-0.83-.417-0.542-1.248.644-1.855A4.683,4.683,0,0,1,212.33,566.617Z" transform="translate(-69.938 -367.125)"></path><path id="Прямоугольник_скругл._углы_881_копия_7" data-name="Прямоугольник, скругл. углы 881 копия 7" class="cls-3" d="M232.035,548.142l33.539,16.831c0.83,0.417.541,1.248-.644,1.855a4.689,4.689,0,0,1-3.65.345l-33.538-16.83c-0.83-.417-0.542-1.246.644-1.854A4.688,4.688,0,0,1,232.035,548.142Z" transform="translate(-69.938 -367.125)"></path><path id="Прямоугольник_скругл._углы_881_копия_8" data-name="Прямоугольник, скругл. углы 881 копия 8" class="cls-3" d="M224.646,551.222l33.538,16.829c0.83,0.418.542,1.249-.644,1.856a4.687,4.687,0,0,1-3.649.346l-33.539-16.829c-0.829-.419-0.541-1.249.644-1.856A4.69,4.69,0,0,1,224.646,551.222Z" transform="translate(-69.938 -367.125)"></path><path id="Прямоугольник_скругл._углы_881_копия_9" data-name="Прямоугольник, скругл. углы 881 копия 9" class="cls-11" d="M267.468,535.165L293.616,548.3c0.831,0.415.542,1.246-.643,1.854a4.7,4.7,0,0,1-3.65.347l-26.149-13.136c-0.83-.417-0.542-1.246.644-1.855A4.676,4.676,0,0,1,267.468,535.165Z" transform="translate(-69.938 -367.125)"></path><path id="Shape_45_copy_копия_20" data-name="Shape 45 copy копия 20" class="cls-6" d="M347.342,519.365s-1.269-.247-2.463-0.615a4.624,4.624,0,0,0-3.694,0l-2.111.976a3.706,3.706,0,0,1-1.772.221c-0.241.018-.484,0.034-0.736,0.034-2.55,0-4.618-.964-4.618-2.155a1.055,1.055,0,0,1,.06-0.279,0.393,0.393,0,0,1-.009-0.361l0-.008a1.1,1.1,0,0,1,.554-0.438l0.085-.037a4.954,4.954,0,0,1,1.805-.782l0.58-.251c0.756-.33.952-1.243-1.232-2.462l8.045,3.278-0.04.02,0.1,0,1.268,0.588C343.855,517.419,352.614,520.164,347.342,519.365Z" transform="translate(-69.938 -367.125)"></path></svg> 