<svg xmlns="http://www.w3.org/2000/svg" viewBox="0 0 112.196 112.196"><circle cx="56.098" cy="56.098" r="56.098" fill="#4176fa"/><path d="M76.209 46.341c-16.203 0-16.224 16.142-16.224 16.225 0 0-1.11 16.162 16.224 16.162 0 0 14.456.822 14.456-11.248h-7.423s.246 4.544-6.786 4.544c0 0-7.423.494-7.423-7.341h21.879s2.406-18.342-14.703-18.342zM68.95 59.028s.905-6.498 7.424-6.498c6.539 0 6.436 6.498 6.436 6.498H68.95zm-18.546-4.153s6.436-.473 6.436-8.04c0-7.546-5.264-11.248-11.947-11.248H22.91v42.256h21.981s13.428.412 13.428-12.481c.001 0 .577-10.487-7.915-10.487zM32.596 43.092h12.296s2.982 0 2.982 4.4-1.748 5.038-3.743 5.038H32.596v-9.438zm11.68 27.246h-11.68v-11.31h12.296s4.463-.041 4.442 5.819c0 4.936-3.31 5.45-5.058 5.491zM67.12 38.075v5.203h17.438v-5.203H67.12z" fill="#f1f2f2"/></svg>