<svg xmlns="http://www.w3.org/2000/svg" xmlns:xlink="http://www.w3.org/1999/xlink" height="26" viewBox="0 0 43 26" width="43"><linearGradient id="a"><stop offset="0" stop-color="#6a11cb"/><stop offset="1" stop-color="#2575fc"/></linearGradient><linearGradient id="b" x1="-16.107%" x2="220.081%" xlink:href="#a" y1="68.352%" y2="-20.281%"/><linearGradient id="c" x1="-103.848%" x2="112.534%" xlink:href="#a" y1="86.311%" y2="20.812%"/><g fill="none"><path d="M14.057.958v9.748c0 1.577-.29 2.724-1.018 3.44-.582.718-1.745 1.148-3.2 1.148-1.454 0-2.472-.287-3.2-1.004-.581-.717-1.017-1.863-1.017-3.584V.958H.24v9.748c0 2.867.582 5.018 1.746 6.595.145.143.29.43.581.573 1.6 1.577 3.927 2.294 7.272 2.294 3.2 0 5.673-.717 7.127-2.294.145-.143.29-.43.582-.573 1.163-1.577 1.745-3.728 1.745-6.595V.958z" fill="url(#b)"/><path d="M22.784 25.329V.958h5.236v3.01c.727-1.29 1.6-2.15 2.617-2.723s2.182-.86 3.637-.86c2.617 0 4.8.86 6.253 2.58s2.328 4.157 2.328 7.311c0 3.01-.728 5.448-2.327 7.311-1.455 1.864-3.491 2.724-5.964 2.724-1.454 0-2.763-.286-3.781-.86-1.018-.573-1.89-1.433-2.618-2.58 0 .43.145 1.003.145 1.577v7.024h-5.526zm5.09-15.196c0 1.72.436 3.01 1.31 3.87.872 1.004 2.035 1.434 3.49 1.434 1.454 0 2.618-.43 3.49-1.433.873-1.004 1.31-2.294 1.31-3.871 0-1.72-.437-3.01-1.31-4.014s-2.036-1.434-3.49-1.434c-1.455 0-2.618.43-3.49 1.434-1.019 1.003-1.31 2.294-1.31 4.014z" fill="url(#c)"/><path d="M17.839 25.185c-.146-.143-.291-.43-.582-.573-1.6-1.577-3.927-2.294-7.272-2.294-3.2 0-5.672.717-7.127 2.294-.145.143-.29.43-.582.573z" fill="#3a3a3a"/></g></svg>