<?xml version="1.0" encoding="UTF-8"?> <svg xmlns="http://www.w3.org/2000/svg" width="160" height="36" viewBox="0 0 160 36" fill="none"><path fill-rule="evenodd" clip-rule="evenodd" d="M54.417 0.128906H158.836C159.144 0.129961 159.44 0.252936 159.658 0.471001C159.876 0.689065 159.999 0.98452 160 1.29291V34.7089C159.999 35.0173 159.876 35.3128 159.658 35.5308C159.44 35.7489 159.144 35.8719 158.836 35.8729H1.165C0.85644 35.8721 0.560727 35.7493 0.342447 35.5312C0.124167 35.3131 0.00105571 35.0175 0 34.7089V1.29291C0.00105571 0.984347 0.124167 0.688742 0.342447 0.47065C0.560727 0.252557 0.85644 0.129697 1.165 0.128906H54.417Z" fill="#63A444"></path><path fill-rule="evenodd" clip-rule="evenodd" d="M158.837 0.128906H54.418V35.8739H158.837C159.146 35.8729 159.441 35.7497 159.659 35.5315C159.877 35.3132 160 35.0175 160.001 34.7089V1.29291C160 0.98452 159.877 0.689065 159.659 0.471001C159.441 0.252936 159.145 0.129961 158.837 0.128906Z" fill="#186DB6"></path><path d="M11.9557 21.6252C11.9557 19.8992 14.5437 19.6532 16.1707 19.6532H16.7377V19.9992C16.7377 21.5272 15.5797 23.2992 13.8537 23.2992C13.6169 23.3236 13.3777 23.2986 13.151 23.226C12.9244 23.1534 12.7152 23.0346 12.5368 22.8771C12.3583 22.7197 12.2143 22.527 12.114 22.3112C12.0136 22.0954 11.959 21.8611 11.9537 21.6232M8.84766 21.9432C8.84766 24.2852 10.7707 25.6902 13.0137 25.6902C13.8045 25.7162 14.5871 25.5227 15.2746 25.131C15.9622 24.7393 16.5278 24.1648 16.9087 23.4712H16.9577V24.0132C16.9577 24.7522 17.3767 25.3942 18.5357 25.3942H21.3707V22.7592H20.3847C20.3116 22.7669 20.2377 22.7582 20.1685 22.7337C20.0992 22.7092 20.0363 22.6695 19.9843 22.6175C19.9324 22.5656 19.8927 22.5027 19.8682 22.4334C19.8437 22.3641 19.8349 22.2903 19.8427 22.2172V17.5332C19.8427 14.6742 18.6107 12.5332 14.3207 12.5332C13.1127 12.5332 9.78465 12.8042 9.78465 15.1222V16.4532H12.7187V15.7872C12.7187 15.0972 13.8277 14.9492 14.3947 14.9492C15.9947 14.9492 16.7117 15.6152 16.7117 17.3402V17.5122H16.3187C14.2727 17.5082 8.84966 17.7302 8.84966 21.9462L8.84766 21.9432Z" fill="white"></path><path d="M27.2074 19.1861C27.2074 16.4011 28.7354 15.2172 30.3874 15.2172C32.2114 15.2172 33.4934 16.7702 33.4934 19.1612C33.4934 21.6512 32.0634 23.0611 30.3384 23.0611C28.2674 23.0611 27.2074 21.1381 27.2074 19.1911M24.1754 30.3331H27.3064V25.1332C27.3064 24.4922 27.2574 24.0481 27.2574 24.0481H27.3064C27.7349 24.5865 28.284 25.0166 28.9094 25.3036C29.5348 25.5905 30.2189 25.7264 30.9064 25.7001C34.2064 25.7001 36.6504 23.1121 36.6504 19.1181C36.6504 15.2181 34.4804 12.5362 31.0794 12.5362C30.2965 12.4867 29.5144 12.6458 28.813 12.9972C28.1115 13.3485 27.5158 13.8795 27.0864 14.5362H27.0364V14.0431C27.0364 13.3531 26.6174 12.8351 25.4584 12.8351H22.6484V15.4971H23.6344C23.7079 15.4873 23.7827 15.4945 23.853 15.5182C23.9233 15.5419 23.9871 15.5816 24.0396 15.634C24.092 15.6865 24.1317 15.7503 24.1554 15.8206C24.1791 15.8908 24.1863 15.9656 24.1764 16.0391L24.1754 30.3331Z" fill="white"></path><path d="M42.5502 19.1861C42.5502 16.4011 44.0782 15.2172 45.7302 15.2172C47.5542 15.2172 48.8362 16.7702 48.8362 19.1612C48.8362 21.6512 47.4062 23.0611 45.6812 23.0611C43.6102 23.0611 42.5502 21.1381 42.5502 19.1911M39.5182 30.3331H42.6492V25.1332C42.6492 24.4922 42.6002 24.0481 42.6002 24.0481H42.6492C43.0777 24.5865 43.6268 25.0166 44.2521 25.3036C44.8775 25.5905 45.5616 25.7264 46.2492 25.7001C49.5492 25.7001 51.9932 23.1121 51.9932 19.1181C51.9932 15.2181 49.8242 12.5362 46.4222 12.5362C45.6392 12.4867 44.8572 12.6458 44.1557 12.9972C43.4543 13.3485 42.8585 13.8795 42.4292 14.5362H42.3802V14.0431C42.3802 13.3531 41.9612 12.8351 40.8022 12.8351H37.9922V15.4971H38.9782C39.0517 15.4873 39.1265 15.4945 39.1968 15.5182C39.267 15.5419 39.3309 15.5816 39.3833 15.634C39.4358 15.6865 39.4754 15.7503 39.4991 15.8206C39.5229 15.8908 39.5301 15.9656 39.5202 16.0391L39.5182 30.3331Z" fill="white"></path><path d="M59.9719 19.1124C60.0071 18.3819 60.2558 17.6778 60.6871 17.0872C61.1184 16.4966 61.7134 16.0455 62.3985 15.7897C63.0836 15.5338 63.8287 15.4845 64.5416 15.6478C65.2544 15.8111 65.9037 16.1799 66.4091 16.7085C66.9145 17.2371 67.2538 17.9023 67.385 18.6217C67.5161 19.3412 67.4334 20.0833 67.1471 20.7562C66.8608 21.4292 66.3834 22.0034 65.7741 22.4078C65.1648 22.8121 64.4502 23.029 63.7189 23.0314C63.2125 23.0305 62.7114 22.9272 62.2459 22.7278C61.7803 22.5283 61.3599 22.2368 61.0099 21.8707C60.6599 21.5046 60.3875 21.0716 60.2092 20.5976C60.0308 20.1236 59.9501 19.6184 59.9719 19.1124ZM56.8159 19.1124C56.7524 20.4896 57.1029 21.8542 57.8222 23.0303C58.5414 24.2065 59.5966 25.1402 60.8515 25.711C62.1064 26.2819 63.5035 26.4638 64.8628 26.2332C66.222 26.0025 67.481 25.3701 68.4774 24.4172C69.4738 23.4644 70.1619 22.2349 70.453 20.8874C70.7441 19.5398 70.6249 18.1359 70.1107 16.8568C69.5965 15.5776 68.7108 14.4818 67.568 13.7107C66.4252 12.9395 65.0776 12.5284 63.6989 12.5304C62.8095 12.4895 61.9211 12.6295 61.0874 12.942C60.2537 13.2544 59.4921 13.7328 58.8486 14.3481C58.2051 14.9635 57.6932 15.703 57.3438 16.5219C56.9944 17.3408 56.8149 18.222 56.8159 19.1124Z" fill="white"></path><path d="M73.6013 23.7205C73.6013 24.9035 74.0943 25.3965 75.2533 25.3965H78.2363V22.7595H77.2503C77.1772 22.7672 77.1034 22.7585 77.0341 22.734C76.9648 22.7095 76.9019 22.6698 76.85 22.6179C76.798 22.5659 76.7584 22.503 76.7338 22.4337C76.7093 22.3645 76.7006 22.2906 76.7083 22.2175V9.57053C76.7083 8.41253 76.2153 7.89453 75.0563 7.89453H72.0703V10.5565H73.0563C73.1299 10.5467 73.2047 10.5539 73.275 10.5776C73.3453 10.6014 73.4092 10.641 73.4617 10.6934C73.5142 10.7458 73.5539 10.8096 73.5778 10.8799C73.6017 10.9502 73.609 11.025 73.5993 11.0985L73.6013 23.7205Z" fill="white"></path><path d="M81.2428 23.7214C81.2428 24.9044 81.7358 25.3974 82.8948 25.3974H85.8778V22.7604H84.8918C84.8188 22.7681 84.7449 22.7594 84.6756 22.7349C84.6064 22.7104 84.5435 22.6707 84.4915 22.6187C84.4396 22.5668 84.3999 22.5038 84.3754 22.4346C84.3509 22.3653 84.3421 22.2915 84.3498 22.2184V14.5004C84.3498 13.3424 83.8568 12.8244 82.6978 12.8244H79.7148V15.4864H80.7008C80.7744 15.4765 80.8491 15.4837 80.9194 15.5074C80.9897 15.5312 81.0535 15.5708 81.106 15.6233C81.1584 15.6757 81.1981 15.7395 81.2218 15.8098C81.2455 15.8801 81.2527 15.9549 81.2428 16.0284V23.7214ZM81.3908 10.7794H84.0988V7.90039H81.3868L81.3908 10.7794Z" fill="white"></path><path d="M87.3468 19.1121C87.329 20.0024 87.4953 20.8868 87.8354 21.7098C88.1755 22.5328 88.682 23.2766 89.3231 23.8946C89.9642 24.5126 90.7261 24.9915 91.561 25.3011C92.3959 25.6108 93.2858 25.7446 94.1748 25.6941C95.1635 25.7042 96.1435 25.5077 97.0518 25.1172C97.9602 24.7266 98.777 24.1506 99.4498 23.4261L98.1678 21.2571C97.1773 22.2606 95.8529 22.8656 94.4458 22.9571C93.4398 22.9437 92.478 22.542 91.7612 21.836C91.0445 21.1299 90.6283 20.1743 90.5996 19.1686C90.571 18.1629 90.932 17.1851 91.6074 16.4394C92.2828 15.6937 93.2202 15.2379 94.2238 15.1671C94.9878 15.1671 96.0478 15.4671 96.0478 16.1531V16.8431H98.7838V15.3651C98.7838 13.1961 95.8508 12.5301 94.2228 12.5301C93.3302 12.4745 92.4357 12.6043 91.5957 12.9115C90.7557 13.2186 89.9885 13.6964 89.3423 14.3148C88.6961 14.9332 88.1851 15.6787 87.8413 16.5043C87.4975 17.33 87.3285 18.2179 87.3448 19.1121" fill="white"></path><path d="M102.576 23.7214C102.576 24.9044 103.069 25.3974 104.228 25.3974H107.211V22.7604H106.225C106.152 22.7683 106.078 22.7597 106.008 22.7352C105.939 22.7108 105.876 22.6711 105.824 22.6191C105.772 22.5672 105.732 22.5042 105.707 22.4349C105.683 22.3655 105.674 22.2916 105.682 22.2184V14.5004C105.682 13.3424 105.189 12.8244 104.03 12.8244H101.047V15.4864H102.033C102.106 15.4765 102.181 15.4837 102.251 15.5074C102.322 15.5312 102.386 15.5708 102.438 15.6233C102.49 15.6757 102.53 15.7395 102.554 15.8098C102.578 15.8801 102.585 15.9549 102.575 16.0284L102.576 23.7214ZM102.724 10.7794H105.436V7.90039H102.724V10.7794Z" fill="white"></path><path d="M111.601 19.1103C111.636 18.3799 111.885 17.6758 112.316 17.0852C112.747 16.4946 113.342 16.0435 114.027 15.7876C114.713 15.5318 115.458 15.4825 116.17 15.6458C116.883 15.8091 117.533 16.1779 118.038 16.7064C118.543 17.235 118.883 17.9002 119.014 18.6197C119.145 19.3391 119.062 20.0812 118.776 20.7542C118.49 21.4271 118.012 22.0013 117.403 22.4057C116.794 22.8101 116.079 23.0269 115.348 23.0293C114.841 23.0284 114.34 22.9252 113.875 22.7257C113.409 22.5263 112.989 22.2347 112.639 21.8687C112.289 21.5026 112.016 21.0695 111.838 20.5955C111.66 20.1215 111.579 19.6163 111.601 19.1103ZM108.445 19.1103C108.381 20.4877 108.732 21.8526 109.451 23.0288C110.171 24.2051 111.226 25.1388 112.482 25.7095C113.737 26.2802 115.134 26.4618 116.494 26.2308C117.853 25.9998 119.112 25.3668 120.108 24.4134C121.104 23.4601 121.792 22.2302 122.083 20.8823C122.373 19.5344 122.253 18.1303 121.738 16.8512C121.223 15.5722 120.337 14.4767 119.193 13.7062C118.05 12.9357 116.702 12.5254 115.323 12.5283C114.434 12.4877 113.545 12.628 112.712 12.9406C111.878 13.2531 111.117 13.7315 110.474 14.3468C109.831 14.9621 109.319 15.7015 108.97 16.5203C108.62 17.3391 108.441 18.2202 108.442 19.1103H108.445Z" fill="white"></path><path d="M125.151 20.9102C125.151 24.3362 126.803 25.6922 129.49 25.6922C130.386 25.7105 131.269 25.4748 132.037 25.0124C132.804 24.55 133.425 23.8798 133.828 23.0792H133.877C133.877 23.0792 133.852 23.3502 133.852 23.6462V23.9912C133.852 24.8782 134.419 25.3962 135.504 25.3962H138.388V22.7592H137.401C137.328 22.7669 137.254 22.7582 137.185 22.7337C137.116 22.7092 137.053 22.6695 137.001 22.6175C136.949 22.5656 136.909 22.5027 136.885 22.4334C136.86 22.3642 136.851 22.2903 136.859 22.2172V12.8242H133.728V18.5922C133.728 20.8352 132.471 22.8322 130.203 22.8322C128.675 22.8322 128.256 21.7972 128.256 20.2682V14.4762C128.256 13.3422 127.763 12.8242 126.604 12.8242H123.621V15.4862H124.607C124.681 15.4765 124.755 15.4839 124.825 15.5077C124.896 15.5315 124.959 15.5711 125.012 15.6235C125.064 15.6759 125.104 15.7397 125.128 15.8099C125.151 15.88 125.159 15.9548 125.149 16.0282L125.151 20.9102Z" fill="white"></path><path d="M139.969 23.4493C140.63 24.1734 141.438 24.7481 142.34 25.1349C143.241 25.5217 144.214 25.7117 145.195 25.6923C147.932 25.6923 150.027 24.2133 150.027 21.8463C150.027 17.6553 143.371 18.0463 143.371 16.0783C143.371 15.3383 144.135 14.9443 145.22 14.9443C145.91 14.9443 146.82 15.2443 146.82 15.8313V16.4473H149.556V15.1423C149.556 13.0963 146.869 12.5293 145.143 12.5293C142.555 12.5293 140.287 13.6883 140.287 16.2023C140.287 20.2703 146.894 20.2453 146.894 22.0203C146.894 22.8583 146.154 23.2533 145.218 23.2533C143.769 23.1456 142.418 22.4833 141.446 21.4043L139.969 23.4493Z" fill="white"></path><path d="M150.338 11.3387H149.698V9.12469H148.898V8.67969H151.058V9.12469H150.338V11.3387Z" fill="white"></path><path d="M153.16 10.0096L153.84 8.68359H154.57V11.3386H153.97V9.69559L153.42 10.6536H152.88L152.34 9.6926V11.3386H151.73V8.68359H152.47L153.15 10.0096H153.16Z" fill="white"></path></svg> 