<?xml version="1.0" encoding="UTF-8"?> <!-- Generator: Adobe Illustrator 24.0.3, SVG Export Plug-In . SVG Version: 6.00 Build 0) --> <svg xmlns="http://www.w3.org/2000/svg" xmlns:xlink="http://www.w3.org/1999/xlink" id="Layer_1" x="0px" y="0px" viewBox="0 0 106.9 105" style="enable-background:new 0 0 106.9 105;" xml:space="preserve"> <style type="text/css"> .st0{fill:#3D3D3D;} </style> <title>logo_NETcore</title> <g> <path class="st0" d="M50.7,72.7c-0.9,0-1.8,0.3-2.4,1c-0.6,0.8-0.9,1.8-0.9,2.8c-0.1,1,0.3,1.9,0.9,2.7c0.6,0.7,1.5,1,2.4,1 c0.9,0.1,1.7-0.3,2.3-1c0.6-0.8,0.9-1.8,0.8-2.8c0.1-1-0.2-2-0.8-2.8C52.4,73,51.6,72.6,50.7,72.7z"></path> <path class="st0" d="M68.3,72.7c-0.7,0-1.4,0.3-1.9,0.8c-0.5,0.6-0.9,1.3-1,2l5.2,0c0-0.7-0.2-1.5-0.6-2.1 C69.6,72.9,69,72.6,68.3,72.7z"></path> <path class="st0" d="M53.5,1C24.9,1,1.8,24.1,1.8,52.6s23.1,51.6,51.6,51.6s51.6-23.1,51.6-51.6S82,1,53.5,1z M15.4,60.4 c-0.4,0.4-1,0.7-1.6,0.7c-0.6,0-1.2-0.2-1.6-0.7c-0.4-0.4-0.7-1-0.7-1.6c0-0.6,0.2-1.2,0.7-1.6c0.4-0.4,1-0.7,1.6-0.7 c0.6,0,1.2,0.2,1.6,0.7c0.4,0.4,0.7,1,0.7,1.6C16.1,59.4,15.8,60,15.4,60.4z M53.5,31.3h14.9v3.1H57v9.8h10.6v3.1H57v10.2h12.1 l0,3.2H53.5V31.3z M44,69.7c-1-0.5-2.1-0.8-3.2-0.8c-1.4,0-2.8,0.5-3.8,1.6c-1,1.1-1.5,2.6-1.5,4.2c-0.1,1.4,0.4,2.9,1.4,4 c0.9,1,2.2,1.5,3.6,1.5c1.2,0,2.5-0.3,3.5-0.9l0,1.5c-1.2,0.6-2.4,0.8-3.7,0.8c-1.7,0.1-3.4-0.6-4.6-1.9c-1.2-1.3-1.8-3.1-1.7-4.8 c-0.1-1.9,0.6-3.8,2-5.3c1.3-1.3,3.1-2.1,5-2c1.1,0,2.2,0.2,3.2,0.6V69.7z M45.8,60.7h-4.2L26.5,37.2c-0.4-0.6-0.7-1.2-0.9-1.8 h-0.1c0.1,1.3,0.2,2.7,0.2,4v21.3h-3.4V31.3h4.5l14.7,23c0.6,1,1,1.6,1.2,2h0.1c-0.2-1.4-0.2-2.9-0.2-4.3V31.3h3.4V60.7z M54.1,80 c-0.9,1-2.2,1.5-3.5,1.5c-1.3,0-2.6-0.5-3.4-1.4c-0.9-1-1.3-2.3-1.3-3.6c-0.1-1.4,0.4-2.8,1.3-3.8c1-0.9,2.3-1.4,3.6-1.4 c1.3-0.1,2.5,0.4,3.4,1.3c0.9,1,1.3,2.4,1.2,3.7C55.4,77.7,55,79,54.1,80z M62.9,73.1c-0.3-0.2-0.8-0.3-1.2-0.3 c-0.7,0-1.3,0.4-1.6,0.9c-0.5,0.8-0.7,1.7-0.7,2.5v4.9h-1.6v-9.7h1.6v2c0.2-0.6,0.5-1.2,1-1.6c0.4-0.4,1-0.6,1.5-0.6 c0.3,0,0.6,0,0.9,0.1V73.1z M66.4,79.3c0.6,0.6,1.4,0.9,2.3,0.9c1.1,0,2.2-0.4,3-1.1v1.5c-1,0.7-2.2,1-3.4,0.9 c-1.2,0.1-2.4-0.4-3.2-1.3c-0.8-1-1.3-2.4-1.2-3.7c-0.1-1.3,0.4-2.7,1.3-3.7c0.8-0.9,2-1.5,3.2-1.4c1.1-0.1,2.2,0.4,2.9,1.2 c0.7,1,1.1,2.2,1,3.4l0,0.8h-6.8C65.5,77.7,65.8,78.6,66.4,79.3z M83.6,34.4v26.3h-3.4V34.4h-8.5v-3.1h20.4v3.1H83.6z"></path> </g> </svg> 