<?xml version="1.0" encoding="UTF-8"?> <svg xmlns="http://www.w3.org/2000/svg" xmlns:xlink="http://www.w3.org/1999/xlink" id="Layer_1" x="0px" y="0px" viewBox="0 0 270 100" style="enable-background:new 0 0 270 100;" xml:space="preserve"> <style type="text/css"> .st0{fill:#F2A900;} </style> <g> <g> <path class="st0" d="M34.8,35.7c0,0-8.7,4.8-11.5,6.5L34.8,35.7z"></path> <polygon class="st0" points="61,20.7 72.8,14.2 69.3,12.1 57.4,18.7 "></polygon> <path class="st0" d="M67.3,47.3l-5.4-3L17.3,18.9l-6,3.4c1.8-0.8,3.7-0.7,5.3,0.3l43,24.5l4.2,2.4c2.4,1.3,3.9,3.9,3.9,6.6v29.1 c0,2.3-1.2,4.4-3.2,5.5l6.5-3.9v-33C71,51.2,69.6,48.7,67.3,47.3"></path> <path class="st0" d="M84.4,36.7L73,30.3L37.5,10.1c-1.4-0.8-3.1-0.8-4.5,0l-1.3,0.7L70.8,33l10.6,6c2.2,1.3,3.4,3.5,3.4,6v33.7 L86,78c1.3-0.8,2.2-2.4,2.2-3.9V43.2C88.2,40.9,86.4,37.9,84.4,36.7"></path> <path class="st0" d="M73,43.8l-7.4-4.2L23.3,15.5l-3.5,2l43.7,24.8l6.5,3.8c2.2,1.3,3.4,3.5,3.4,6v33.4l3.4-2V50.3 C76.7,47.6,75.3,45.1,73,43.8"></path> <path class="st0" d="M78.7,40.3l-9.4-5.4l-40-22.8l-3.5,2l41.4,23.6l8.6,4.9c2.2,1.3,3.4,3.5,3.4,6v33.6l3.4-2V46.7 C82.4,44,81,41.6,78.7,40.3"></path> <polygon class="st0" points="66.9,24.1 78.8,17.5 75.2,15.5 63.4,22.1 "></polygon> <path class="st0" d="M66.8,10.7L65.5,10c-1.4-0.8-3.1-0.8-4.5,0l-9.6,5.3l3.5,2L66.8,10.7z"></path> <path class="st0" d="M65.3,73.9l-18.1-11L33,54.4c0,0.2-0.1,0.3-0.1,0.5s0,0.5,0,0.5v3.2l12,7.2L65.3,78V73.9z"></path> <polygon class="st0" points="32.9,61.3 32.9,65.5 41.1,70.5 65.3,85 65.3,80.8 43.4,67.6 "></polygon> <path class="st0" d="M37.7,50.3l-3,1.7c-0.2,0.1-0.3,0.3-0.5,0.3l14.4,8.6l16.7,10.2v-4.2l-14.4-8.6L37.7,50.3z"></path> <polygon class="st0" points="65.3,61.2 62.9,62.6 65.3,64.1 "></polygon> <polygon class="st0" points="32.9,81 32.9,84.9 41,80.1 37.5,78 33.3,80.6 32.9,80.8 "></polygon> <path class="st0" d="M33.4,87.5c0.3,0.5,0.8,0.9,1.3,1.3c1.2,0.7,2.5,0.7,3.7-0.1l8.4-5l-3.5-2.1L33.4,87.5z"></path> <path class="st0" d="M39.7,72.4l-6.8-4.1v4.2l4.6,2.8l22.3,13.4c1.2,0.7,2.5,0.7,3.7,0.1c0.6-0.3,1-0.8,1.3-1.3L39.7,72.4z"></path> <path class="st0" d="M88,26.8c-0.3-0.9-0.8-1.7-1.7-2.2c-0.5-0.3-1-0.4-1.5-0.4v10.1l2.3,1.3c0.4,0.3,0.8,0.5,1.1,0.8v-7.1V28 C88.2,27.5,88.1,27.2,88,26.8"></path> <path class="st0" d="M65.3,56.5c0-0.6-0.1-1.3-0.3-1.8l-7.6,4.6l3.3,1.9l4.7-2.8L65.3,56.5L65.3,56.5z"></path> <path class="st0" d="M60.7,50.4l-7,4.2l-2.1,1.3l0.8,0.4l2.6,1.6l8.8-5.3c-0.4-0.5-0.9-0.9-1.5-1.3L60.7,50.4z"></path> <path class="st0" d="M15.7,45.9L15.7,45.9L15.7,45.9C15.8,45.8,15.7,45.8,15.7,45.9"></path> <polygon class="st0" points="79.1,31 82.4,32.9 82.4,24.8 79.1,26.7 "></polygon> <polygon class="st0" points="76.7,28 75.3,28.9 76.7,29.7 "></polygon> <path class="st0" d="M72.9,27.5l8.9-4.9c1.7-0.9,3.6-1,5.3-0.3l-6-3.4l-11.8,6.5L72.9,27.5z"></path> <path class="st0" d="M19.1,49.8V82l-3.4-2c0,0-0.2-24.5,0-34.2c0-1.5,1.3-4.1,2.8-5c3-1.8,12.7-7.3,12.7-7.3l3.5,2 c0,0-11.6,6.5-11.5,6.5C18.9,44.4,19.1,47.7,19.1,49.8"></path> <path class="st0" d="M30.5,85.5v-1.4c0,0-0.1-21.4,0-28.5c0-2.5,1.7-4.7,3-5.5c3.4-2.1,13.2-7.5,13.2-7.5l-3.5-2l-12.3,6.9 c-2.3,1.3-3.7,3.8-3.7,6.4v33.2l0.8,0.4l5.7,3.4C31.7,89.6,30.5,87.7,30.5,85.5"></path> <path class="st0" d="M28.8,32.2l-3.5-2l-11.2,6.4c-2.5,1.4-4,4.1-4,7v14.9V74c0,1.6,0.8,3.1,2.3,3.9l1.1,0.7V45 c0-2.4,1.3-4.7,3.4-5.9L28.8,32.2z"></path> <polygon class="st0" points="32.9,78 35.2,76.6 32.9,75.3 "></polygon> <path class="st0" d="M13.4,34.2v-10c-0.5,0.1-1,0.2-1.5,0.4c-1.2,0.7-1.8,1.8-1.8,3.2v8.7c0.5-0.6,1.2-1,1.8-1.4L13.4,34.2z"></path> <polygon class="st0" points="21.4,29.6 22.8,28.9 21.4,28 "></polygon> <polygon class="st0" points="15.7,24.8 15.7,32.9 19.1,31 19.1,26.7 "></polygon> <path class="st0" d="M29,45.7L29,45.7L40.7,39l-3.5-2l-4.6,2.6l0,0l-7.4,4.2l-0.1,0.1l-0.6,0.4c-1.9,1.4-3.1,3.6-3.1,6v33.2l3.4,2 l0,0V52.9v-0.8c0-2.4,1.3-4.7,3.4-6L29,45.7z"></path> </g> <g> <g> <path class="st0" d="M123,21.6c2.6,0,4.6,0.7,6.1,1.9c1.4,1.3,2.2,3.2,2.2,5.6c0,2.9-1,4.9-3.1,6.1v0.2c1.3,0.4,2.4,1.3,3,2.4 c0.8,1.2,1.1,2.7,1.1,4.5c0,1.3-0.3,2.4-0.7,3.4s-1.1,1.8-1.8,2.5c-0.8,0.7-1.8,1.2-2.9,1.5s-2.4,0.5-3.7,0.5h-11.4 c-0.5,0-0.9-0.1-1.1-0.3s-0.3-0.6-0.3-1.1V23.1c0-0.5,0.1-0.8,0.3-1.1c0.2-0.2,0.6-0.3,1.1-0.3H123V21.6z M126.1,29.9 c0-2.4-1.3-3.5-3.7-3.5h-6.9v7.1h6.9c1.2,0,2.1-0.3,2.8-0.8C125.8,32,126.1,31.2,126.1,29.9z M126.9,42c0-2.5-1.3-3.8-3.9-3.8 h-7.6v7.6h7.6C125.7,45.6,126.9,44.4,126.9,42z"></path> <path class="st0" d="M137.9,23.9c2-1.8,4.9-2.9,8.6-2.9c3,0,5.4,0.6,7.1,1.8c1.8,1.2,3,2.9,3.9,5c0.2,0.5,0.3,0.8,0.1,1.1 s-0.4,0.5-0.9,0.7l-2.3,0.8c-0.5,0.2-0.8,0.2-1.1,0.1s-0.4-0.4-0.7-0.9c-0.4-1.3-1.2-2.2-2.2-2.8c-1-0.6-2.4-0.9-4-0.9 c-2.1,0-3.7,0.5-4.8,1.5s-1.7,2.4-1.7,4.3v8.9c0,1.8,0.6,3.3,1.7,4.3c1.1,1,2.7,1.5,4.8,1.5c1.7,0,3-0.3,4-0.9 c1-0.7,1.7-1.6,2.2-2.8c0.3-0.5,0.4-0.8,0.7-0.9c0.3-0.1,0.6-0.1,1.1,0.1l2.2,0.8c0.5,0.2,0.8,0.4,0.9,0.7c0.2,0.3,0.1,0.6,0,1.1 c-0.8,2.2-2.1,3.9-3.9,5c-1.8,1.2-4.2,1.8-7.2,1.8c-3.8,0-6.6-0.9-8.6-2.9c-2-1.8-2.9-4.4-2.9-7.7v-9 C134.8,28.4,135.8,25.7,137.9,23.9z"></path> </g> <g> <path class="st0" d="M188.6,22c0.2,0.2,0.3,0.6,0.3,1.1v2c0,0.5-0.1,0.8-0.3,1.1c-0.2,0.2-0.6,0.3-1.1,0.3h-7v22.6 c0,0.5-0.1,0.8-0.3,1.1c-0.2,0.2-0.6,0.3-1.1,0.3h-2.4c-0.5,0-0.8-0.1-1.1-0.3c-0.2-0.2-0.3-0.6-0.3-1.1V26.4h-6.8 c-0.5,0-0.9-0.1-1.1-0.3c-0.2-0.2-0.3-0.6-0.3-1.1v-2c0-0.5,0.1-0.8,0.3-1.1c0.2-0.2,0.6-0.3,1.1-0.3h19 C188.1,21.6,188.4,21.7,188.6,22z"></path> <path class="st0" d="M209.9,22c0.2,0.2,0.3,0.6,0.3,1.1v2c0,0.5-0.1,0.8-0.3,1.1c-0.2,0.2-0.6,0.3-1.1,0.3h-12.3v7.1H207 c0.5,0,0.8,0.1,1.1,0.3c0.2,0.2,0.3,0.6,0.3,1.1v2c0,0.5-0.1,0.8-0.3,1.1c-0.2,0.2-0.6,0.3-1.1,0.3h-10.5v7.5h12.8 c0.5,0,0.9,0.1,1.1,0.3c0.2,0.2,0.3,0.6,0.3,1.1v2c0,0.5-0.1,0.8-0.3,1.1c-0.2,0.2-0.6,0.3-1.1,0.3h-16.5c-0.5,0-0.9-0.1-1.1-0.3 c-0.2-0.2-0.3-0.6-0.3-1.1V23.1c0-0.5,0.1-0.8,0.3-1.1c0.2-0.2,0.6-0.3,1.1-0.3h16C209.3,21.6,209.7,21.7,209.9,22z"></path> </g> <g> <path class="st0" d="M215.3,23.9c2-1.8,4.9-2.9,8.6-2.9c3,0,5.4,0.6,7.1,1.8c1.8,1.2,3,2.9,3.9,5c0.2,0.5,0.3,0.8,0.1,1.1 c-0.2,0.3-0.4,0.5-0.9,0.7l-2.3,0.8c-0.5,0.2-0.8,0.2-1.1,0.1s-0.4-0.4-0.7-0.9c-0.4-1.3-1.2-2.2-2.2-2.8c-1-0.6-2.4-0.9-4-0.9 c-2.1,0-3.7,0.5-4.8,1.5s-1.7,2.4-1.7,4.3v8.9c0,1.8,0.6,3.3,1.7,4.3c1.1,1,2.7,1.5,4.8,1.5c1.7,0,3-0.3,4-0.9 c1-0.7,1.7-1.6,2.2-2.8c0.3-0.5,0.4-0.8,0.7-0.9c0.3-0.1,0.6-0.1,1.1,0.1l2.2,0.8c0.5,0.2,0.8,0.4,0.9,0.7s0.1,0.6,0,1.1 c-0.8,2.2-2.1,3.9-3.9,5c-1.8,1.2-4.2,1.8-7.2,1.8c-3.8,0-6.6-0.9-8.6-2.9c-2-1.8-2.9-4.4-2.9-7.7v-9 C212.3,28.4,213.3,25.7,215.3,23.9z"></path> <path class="st0" d="M259.7,22c0.2,0.2,0.3,0.6,0.3,1.1V49c0,0.5-0.1,0.8-0.3,1.1c-0.2,0.2-0.6,0.3-1.1,0.3h-2.3 c-0.5,0-0.8-0.1-1.1-0.3c-0.2-0.2-0.3-0.6-0.3-1.1V38.2h-12V49c0,0.5-0.1,0.8-0.3,1.1c-0.2,0.2-0.6,0.3-1.1,0.3h-2.3 c-0.5,0-0.9-0.1-1.1-0.3c-0.2-0.2-0.3-0.6-0.3-1.1V23.1c0-0.5,0.1-0.8,0.3-1.1c0.2-0.2,0.6-0.3,1.1-0.3h2.3 c0.5,0,0.8,0.1,1.1,0.3c0.2,0.2,0.3,0.6,0.3,1.1v10.4h12V23.1c0-0.5,0.1-0.8,0.3-1.1c0.2-0.2,0.6-0.3,1.1-0.3h2.3 C259.1,21.6,259.5,21.7,259.7,22z"></path> </g> <g> <path class="st0" d="M110.8,67.1c0.5-0.9,1.2-1.7,2.2-2.2c0.9-0.5,2.1-0.8,3.5-0.8c1.2,0,2.1,0.2,2.8,0.4 c0.8,0.3,1.3,0.7,1.8,1.3c0.4,0.5,0.8,1.1,0.9,1.8c0.2,0.7,0.3,1.4,0.3,2.2v7.5c0,0.5-0.1,0.8-0.3,1.1c-0.2,0.2-0.4,0.4-0.8,0.6 c-0.5,0.3-1.2,0.4-1.9,0.5c-0.8,0.2-1.7,0.2-2.8,0.2c-1.3,0-2.3-0.1-3-0.3c-0.8-0.2-1.4-0.5-1.8-0.8c-0.4-0.4-0.8-0.8-0.9-1.3 c-0.2-0.5-0.3-1.2-0.3-1.8c0-0.8,0.1-1.5,0.3-2.1c0.3-0.6,0.6-1,1.1-1.3s1.2-0.6,1.9-0.8c0.8-0.2,1.8-0.3,2.9-0.3 c0.8,0,1.6,0,2.3,0.1c0.7,0.1,1.2,0.2,1.4,0.2V70c0-0.6-0.1-1.1-0.2-1.5c-0.1-0.5-0.3-0.9-0.6-1.3c-0.3-0.3-0.7-0.6-1.2-0.8 c-0.5-0.2-1.1-0.3-1.9-0.3c-1,0-1.8,0.2-2.4,0.5c-0.7,0.3-1.2,0.8-1.5,1.5c-0.1,0.2-0.3,0.3-0.3,0.3c-0.1,0.1-0.3,0-0.4-0.1 l-0.7-0.3C110.7,67.6,110.7,67.4,110.8,67.1z M120.3,72.5c-0.2,0-0.3-0.1-0.6-0.1s-0.6-0.1-0.9-0.1s-0.8-0.1-1.2-0.1 s-0.8,0-1.3,0c-1.5,0-2.6,0.3-3.2,0.7s-0.9,1.2-0.9,2.1c0,0.4,0.1,0.8,0.2,1.2c0.1,0.3,0.3,0.7,0.6,0.8c0.3,0.3,0.8,0.4,1.3,0.6 s1.2,0.2,2,0.2s1.4,0,2-0.1s1-0.2,1.4-0.3c0.2-0.1,0.3-0.2,0.4-0.3c0.1-0.1,0.1-0.3,0.1-0.5L120.3,72.5L120.3,72.5z"></path> <path class="st0" d="M126.5,68.3c0-1.3,0.5-2.4,1.4-3.1c0.9-0.8,2.4-1.2,4.2-1.2c1.6,0,2.9,0.3,3.8,0.8c0.9,0.6,1.6,1.3,2,2.3 c0.2,0.3,0.1,0.6-0.3,0.8l-0.7,0.3c-0.2,0.1-0.3,0.1-0.4,0.1c-0.1-0.1-0.2-0.2-0.3-0.3c-0.2-0.3-0.3-0.6-0.5-0.8 c-0.2-0.3-0.5-0.5-0.8-0.7s-0.7-0.3-1.2-0.4c-0.4-0.1-1-0.2-1.6-0.2c-2.5,0-3.7,0.8-3.7,2.4c0,0.6,0.1,1,0.3,1.3s0.5,0.6,0.9,0.8 c0.4,0.2,0.8,0.3,1.3,0.4s1.1,0.2,1.7,0.2c0.8,0.1,1.5,0.2,2.2,0.3s1.3,0.3,1.8,0.7c0.5,0.3,0.9,0.7,1.2,1.3 c0.3,0.5,0.4,1.2,0.4,2c0,1.3-0.5,2.4-1.4,3.2c-0.9,0.8-2.4,1.2-4.4,1.2c-1.6,0-2.9-0.3-3.9-0.8c-1-0.6-1.8-1.4-2.3-2.7 c-0.2-0.3-0.1-0.6,0.3-0.7l0.8-0.3c0.2-0.1,0.3-0.1,0.4,0c0.1,0,0.2,0.2,0.3,0.3c0.3,0.9,0.8,1.5,1.6,1.9 c0.8,0.3,1.7,0.6,2.8,0.6c1.3,0,2.4-0.3,3-0.7c0.7-0.4,1-1.1,1-1.9c0-0.5-0.1-0.9-0.3-1.3c-0.2-0.3-0.5-0.6-0.8-0.8 c-0.3-0.2-0.8-0.3-1.3-0.4s-1.1-0.2-1.7-0.3c-0.8-0.1-1.4-0.2-2.1-0.3c-0.7-0.1-1.3-0.3-1.8-0.6c-0.5-0.3-1-0.7-1.3-1.3 C126.7,70,126.5,69.2,126.5,68.3z"></path> <path class="st0" d="M142,68.3c0-1.3,0.5-2.4,1.4-3.1c0.9-0.8,2.4-1.2,4.2-1.2c1.6,0,2.9,0.3,3.8,0.8c0.9,0.6,1.6,1.3,2,2.3 c0.2,0.3,0.1,0.6-0.3,0.8l-0.7,0.3c-0.2,0.1-0.3,0.1-0.4,0.1c-0.1-0.1-0.2-0.2-0.3-0.3c-0.2-0.3-0.3-0.6-0.5-0.8 c-0.2-0.3-0.5-0.5-0.8-0.7s-0.7-0.3-1.2-0.4c-0.4-0.1-1-0.2-1.6-0.2c-2.5,0-3.7,0.8-3.7,2.4c0,0.6,0.1,1,0.3,1.3s0.5,0.6,0.9,0.8 c0.4,0.2,0.8,0.3,1.3,0.4s1.1,0.2,1.7,0.2c0.8,0.1,1.5,0.2,2.2,0.3c0.7,0.2,1.3,0.3,1.8,0.7c0.5,0.3,0.9,0.7,1.2,1.3 c0.3,0.5,0.4,1.2,0.4,2c0,1.3-0.5,2.4-1.4,3.2c-0.9,0.8-2.4,1.2-4.4,1.2c-1.6,0-2.9-0.3-3.9-0.8s-1.8-1.4-2.3-2.7 c-0.2-0.3-0.1-0.6,0.3-0.7l0.8-0.3c0.2-0.1,0.3-0.1,0.4,0c0.1,0,0.2,0.2,0.3,0.3c0.3,0.9,0.8,1.5,1.6,1.9 c0.8,0.3,1.6,0.6,2.8,0.6c1.3,0,2.4-0.3,3-0.7c0.7-0.4,1-1.1,1-1.9c0-0.5-0.1-0.9-0.3-1.3c-0.2-0.3-0.5-0.6-0.8-0.8 c-0.3-0.2-0.8-0.3-1.3-0.4s-1.1-0.2-1.7-0.3c-0.8-0.1-1.4-0.2-2.1-0.3c-0.7-0.1-1.3-0.3-1.8-0.6c-0.5-0.3-1-0.7-1.3-1.3 C142.1,70,142,69.2,142,68.3z"></path> <path class="st0" d="M157.6,69.3c0-1.6,0.6-2.9,1.7-3.9s2.6-1.4,4.5-1.4s3.5,0.5,4.6,1.4s1.7,2.2,1.7,3.9v5 c0,1.6-0.6,2.9-1.7,3.8c-1.1,0.9-2.7,1.3-4.6,1.3s-3.4-0.4-4.5-1.3s-1.7-2.2-1.7-3.8V69.3z M168.2,69.3c0-1.1-0.4-1.9-1.2-2.6 c-0.8-0.6-1.8-0.9-3.2-0.9s-2.4,0.3-3.1,0.9c-0.8,0.6-1.2,1.5-1.2,2.6v5c0,1.1,0.4,1.9,1.2,2.5s1.8,0.9,3.1,0.9s2.4-0.3,3.2-0.9 s1.2-1.4,1.2-2.5V69.3z"></path> </g> <g> <path class="st0" d="M175.5,65.6c1-1,2.6-1.5,4.7-1.5c1.8,0,3.1,0.3,4,1s1.6,1.6,1.9,2.8c0.1,0.2,0.1,0.3,0,0.5 c-0.1,0.1-0.2,0.2-0.3,0.3L185,69c-0.2,0.1-0.3,0.1-0.4,0c-0.1-0.1-0.2-0.2-0.3-0.3c-0.3-0.9-0.8-1.7-1.4-2.1s-1.6-0.7-2.8-0.7 c-1.4,0-2.5,0.3-3.2,1s-1.1,1.6-1.1,2.8v4.4c0,1.2,0.3,2.1,1.1,2.9c0.7,0.7,1.8,1,3.2,1c1.2,0,2.1-0.3,2.8-0.8s1.2-1.3,1.4-2.2 c0.1-0.2,0.2-0.3,0.3-0.3s0.3,0,0.4,0l0.8,0.3c0.2,0.1,0.3,0.2,0.4,0.3c0.1,0.1,0.1,0.3-0.1,0.5c-0.4,1.3-1.2,2.3-2.1,2.9 s-2.3,1-4,1c-2,0-3.6-0.5-4.5-1.5c-1-1-1.5-2.4-1.5-4.1v-4.2C174,68,174.5,66.6,175.5,65.6z"></path> <path class="st0" d="M191.7,59.2c0.4,0,0.7,0.1,0.8,0.3c0.2,0.2,0.3,0.4,0.3,0.8v0.2c0,0.4-0.1,0.7-0.3,0.8 c-0.2,0.2-0.4,0.3-0.8,0.3h-0.2c-0.4,0-0.7-0.1-0.8-0.3c-0.2-0.2-0.3-0.4-0.3-0.8v-0.2c0-0.4,0.1-0.7,0.3-0.8 c0.2-0.2,0.4-0.3,0.8-0.3H191.7z M192.1,64.5c0.2,0,0.3,0,0.4,0.1c0.1,0.1,0.1,0.2,0.1,0.4v13.5c0,0.2,0,0.3-0.1,0.4 s-0.2,0.1-0.4,0.1h-0.9c-0.2,0-0.3,0-0.4-0.1c-0.1-0.1-0.1-0.2-0.1-0.4V65c0-0.2,0-0.3,0.1-0.4s0.2-0.1,0.4-0.1H192.1z"></path> </g> <g> <path class="st0" d="M197.3,67.1c0.5-0.9,1.2-1.7,2.2-2.2c0.9-0.5,2.1-0.8,3.5-0.8c1.2,0,2.1,0.2,2.8,0.4 c0.8,0.3,1.3,0.7,1.8,1.3c0.4,0.5,0.8,1.1,0.9,1.8c0.2,0.7,0.3,1.4,0.3,2.2v7.5c0,0.5-0.1,0.8-0.3,1.1c-0.2,0.2-0.4,0.4-0.8,0.6 c-0.5,0.3-1.2,0.4-1.9,0.5c-0.8,0.2-1.7,0.2-2.8,0.2c-1.3,0-2.3-0.1-3-0.3c-0.8-0.2-1.4-0.5-1.8-0.8c-0.4-0.4-0.8-0.8-0.9-1.3 s-0.3-1.2-0.3-1.8c0-0.8,0.1-1.5,0.3-2.1s0.6-1,1.1-1.3s1.2-0.6,1.9-0.8s1.8-0.3,2.9-0.3c0.8,0,1.6,0,2.3,0.1s1.2,0.2,1.4,0.2V70 c0-0.6-0.1-1.1-0.2-1.5c-0.1-0.5-0.3-0.9-0.6-1.3c-0.3-0.3-0.7-0.6-1.2-0.8c-0.5-0.2-1.1-0.3-1.9-0.3c-1,0-1.8,0.2-2.4,0.5 c-0.7,0.3-1.2,0.8-1.5,1.5c-0.1,0.2-0.3,0.3-0.3,0.3c-0.1,0.1-0.3,0-0.4-0.1l-0.7-0.3C197.2,67.6,197.1,67.4,197.3,67.1z M206.8,72.5c-0.2,0-0.3-0.1-0.6-0.1s-0.6-0.1-0.9-0.1c-0.3,0-0.8-0.1-1.2-0.1s-0.8,0-1.3,0c-1.5,0-2.6,0.3-3.2,0.7 s-0.9,1.2-0.9,2.1c0,0.4,0.1,0.8,0.2,1.2c0.1,0.3,0.3,0.7,0.6,0.8c0.3,0.3,0.8,0.4,1.3,0.6s1.2,0.2,2,0.2s1.4,0,2-0.1 s1-0.2,1.4-0.3c0.2-0.1,0.3-0.2,0.4-0.3c0.1-0.1,0.1-0.3,0.1-0.5L206.8,72.5L206.8,72.5z"></path> <path class="st0" d="M216.2,61.2c0.1,0.1,0.1,0.2,0.1,0.4v2.9h4.1c0.2,0,0.3,0,0.4,0.1c0.1,0.1,0.1,0.2,0.1,0.4v0.8 c0,0.3-0.2,0.5-0.5,0.5h-4.1v7.4c0,0.8,0.1,1.5,0.2,2.1c0.2,0.5,0.3,0.9,0.7,1.3c0.3,0.3,0.8,0.5,1.3,0.6s1.2,0.2,1.9,0.2 c0.2,0,0.3,0,0.4,0.1c0.1,0.1,0.1,0.3,0.1,0.4v0.8c0,0.2,0,0.3-0.1,0.4s-0.2,0.1-0.4,0.1c-1.1,0-2-0.1-2.8-0.3 c-0.8-0.2-1.3-0.5-1.8-0.9s-0.8-1-1-1.8s-0.3-1.7-0.3-2.9v-7.5h-2.7c-0.3,0-0.5-0.2-0.5-0.5V65c0-0.2,0-0.3,0.1-0.4 s0.2-0.1,0.4-0.1h2.7v-2.9c0-0.2,0-0.3,0.1-0.4c0.1-0.1,0.2-0.1,0.4-0.1h0.8C216,61.1,216.1,61.2,216.2,61.2z"></path> </g> <g> <path class="st0" d="M225.9,59.2c0.4,0,0.7,0.1,0.8,0.3c0.2,0.2,0.3,0.4,0.3,0.8v0.2c0,0.4-0.1,0.7-0.3,0.8 c-0.2,0.2-0.4,0.3-0.8,0.3h-0.2c-0.4,0-0.7-0.1-0.8-0.3c-0.2-0.2-0.3-0.4-0.3-0.8v-0.2c0-0.4,0.1-0.7,0.3-0.8 c0.2-0.2,0.4-0.3,0.8-0.3H225.9z M226.3,64.5c0.2,0,0.3,0,0.4,0.1c0.1,0.1,0.1,0.2,0.1,0.4v13.5c0,0.2,0,0.3-0.1,0.4 s-0.2,0.1-0.4,0.1h-0.9c-0.2,0-0.3,0-0.4-0.1c-0.1-0.1-0.1-0.2-0.1-0.4V65c0-0.2,0-0.3,0.1-0.4s0.2-0.1,0.4-0.1H226.3z"></path> <path class="st0" d="M231.2,69.3c0-1.6,0.6-2.9,1.7-3.9s2.6-1.4,4.5-1.4s3.5,0.5,4.6,1.4s1.7,2.2,1.7,3.9v5 c0,1.6-0.6,2.9-1.7,3.8c-1.1,0.9-2.7,1.3-4.6,1.3c-1.9,0-3.4-0.4-4.5-1.3s-1.7-2.2-1.7-3.8V69.3z M241.8,69.3 c0-1.1-0.4-1.9-1.2-2.6c-0.8-0.6-1.8-0.9-3.2-0.9c-1.3,0-2.4,0.3-3.1,0.9c-0.8,0.6-1.2,1.5-1.2,2.6v5c0,1.1,0.4,1.9,1.2,2.5 s1.8,0.9,3.1,0.9s2.4-0.3,3.2-0.9s1.2-1.4,1.2-2.5V69.3z"></path> </g> <g> <path class="st0" d="M248.8,65c0.6-0.3,1.3-0.4,2.1-0.7c0.8-0.2,1.9-0.3,3.2-0.3c1.9,0,3.4,0.5,4.3,1.4c0.8,0.9,1.3,2.4,1.3,4.1 v9c0,0.2,0,0.3-0.1,0.4s-0.2,0.1-0.4,0.1h-0.8c-0.2,0-0.3,0-0.4-0.1s-0.1-0.2-0.1-0.4v-8.8c0-1.3-0.3-2.3-0.9-2.9 c-0.7-0.7-1.7-1-3-1c-0.8,0-1.5,0.1-2.2,0.2c-0.7,0.2-1.2,0.3-1.6,0.4c-0.2,0.1-0.3,0.2-0.3,0.3c-0.1,0.1-0.1,0.3-0.1,0.4v11.4 c0,0.2,0,0.3-0.1,0.4s-0.2,0.1-0.4,0.1h-0.9c-0.2,0-0.3,0-0.4-0.1c-0.1-0.1-0.1-0.2-0.1-0.4V66.6c0-0.4,0.1-0.8,0.3-1 C248.2,65.5,248.4,65.2,248.8,65z"></path> </g> </g> </g> </svg> 