<?xml version="1.0" encoding="UTF-8"?> <!-- Generator: Adobe Illustrator 24.0.1, SVG Export Plug-In . SVG Version: 6.00 Build 0) --> <svg xmlns="http://www.w3.org/2000/svg" xmlns:xlink="http://www.w3.org/1999/xlink" id="Layer_1" x="0px" y="0px" viewBox="0 0 651.1 121.9" style="enable-background:new 0 0 651.1 121.9;" xml:space="preserve"> <style type="text/css"> .st0{fill:#00716B;} </style> <g id="Слой_x0020_1"> <g id="_778855712"> <polygon class="st0" points="625.5,4.2 625.5,117.7 651.1,117.7 651.1,4.2 "></polygon> <polygon class="st0" points="548.9,84.3 548.8,84.4 548.8,84.3 517.4,4 490.2,4 490.2,117.7 515.7,117.7 515.7,86.9 514.6,67.2 535.7,118 547.6,118 548.8,118 562,118 583.1,67.2 582,86.9 582,117.7 607.6,117.7 607.6,4 580.4,4 "></polygon> <path class="st0" d="M426.4,0c-11.2,0-27,3.1-38.1,18.2c-4.8,6.3-7.3,14.2-7.3,23.3v39.1c0,12.7,5.7,24.5,15.3,31.6 c9.1,6.4,19.6,9.7,30.3,9.7c10.6,0,21.3-3.5,30.3-9.7c9.6-7,15.3-18.8,15.3-31.6V41.4C472.2,11,444.8,0,426.4,0z M446.2,76.5 L446.2,76.5c0,12.1-8.1,20.6-19.5,20.6c-11.5,0-19.6-8.5-19.6-20.6V45.4c0-12.1,8-20.6,19.4-20.6c11.4,0,19.7,8.7,19.7,20.6V76.5z "></path> <path class="st0" d="M289.2,72.3c10.3-6.3,16.7-19.6,16.7-31.6c0-19.1-15.6-36.6-34.8-36.6h-56.6V118h25.5V77.4h22.4l0.1,0.3 l17.2,40.3h28.1l-19.7-45.1L289.2,72.3z M271,51.9L271,51.9h-31.1V29.7H271c4.9,0,9.1,6.1,9.1,11C280.1,45.8,276.1,51.9,271,51.9z "></path> <path class="st0" d="M150.7,0c-11.2,0-27,3.1-38.1,18.2c-4.8,6.3-7.3,14.2-7.3,23.3v39.1c0,12.7,5.7,24.5,15.3,31.6 c9.1,6.4,19.6,9.7,30.3,9.7c10.6,0,21.3-3.5,30.3-9.7c9.5-7,15.3-18.8,15.3-31.6V41.4C196.4,11,169,0,150.7,0z M170.4,76.5 L170.4,76.5c0,12.1-8.1,20.6-19.6,20.6s-19.5-8.5-19.5-20.6V45.4c0-12.1,8-20.6,19.4-20.6s19.7,8.7,19.7,20.6V76.5z"></path> <path class="st0" d="M79.9,60.4c0,0,10.7-7.9,10.7-21.7c0-19.4-15.8-35.3-35.3-35.3H0v115.1h56.5c19.5,0,35.3-15.8,35.3-35.1 C91.8,69,79.9,60.4,79.9,60.4z M25.9,29.5L25.9,29.5h29.4c5,0,9.2,4.2,9.2,9.2c0,5.2-4.2,9.4-9.2,9.4H25.9V29.5z M56.5,92.6 L56.5,92.6H25.9V73.9h30.2c5.3,0,9.6,4.2,9.6,9.4C65.7,88.4,61.5,92.6,56.5,92.6z"></path> <path class="st0" d="M337.5,83.7c0,9-2.4,12.6-11.4,12.6c-3.3,0-6.1-0.2-8.5-0.3v23.4c3.8,0.7,7.9,1.1,11.2,1.1 c23.1,0,34.3-10.5,34.3-33.6V4.2h-25.6V83.7z"></path> </g> </g> </svg> 