<?xml version="1.0" encoding="UTF-8"?> <svg xmlns="http://www.w3.org/2000/svg" width="2542pt" height="470pt" viewBox="0 0 2542 470" version="1.1"><g id="#0a1b5fff"><path fill="#0a1b5f" opacity="1.00" d=" M 225.61 0.00 L 244.38 0.00 C 282.24 1.83 319.76 12.34 352.54 31.50 C 402.59 60.34 441.32 108.23 458.71 163.34 C 474.80 213.55 473.34 269.20 454.48 318.44 C 432.87 375.79 387.74 423.71 331.86 448.84 C 312.77 457.51 292.51 463.57 271.80 466.83 C 262.39 468.38 252.85 468.99 243.37 470.00 L 224.74 470.00 C 217.86 468.99 210.91 468.60 204.02 467.68 C 174.16 463.78 145.09 454.01 118.93 439.10 C 92.25 423.94 68.62 403.47 49.73 379.29 C 26.80 350.00 11.01 315.17 4.16 278.61 C 1.72 266.34 0.74 253.86 0.00 241.40 L 0.00 227.62 C 0.32 223.40 0.60 219.19 0.93 214.98 C 4.58 169.71 21.95 125.69 50.03 90.01 C 79.94 51.76 121.94 23.09 168.58 9.50 C 187.10 3.94 206.34 1.15 225.61 0.00 M 88.31 113.32 C 80.46 114.65 74.23 121.99 74.30 129.97 C 74.16 175.66 74.42 221.36 74.33 267.05 C 74.18 298.65 94.42 329.25 123.55 341.45 C 130.98 344.11 139.82 340.43 143.59 333.60 C 146.94 327.86 146.85 319.81 142.22 314.79 C 138.64 310.79 133.52 308.78 129.21 305.74 C 116.59 297.17 108.65 282.22 108.60 266.96 C 108.51 221.31 108.69 175.65 108.51 129.99 C 108.78 119.75 98.31 111.12 88.31 113.32 M 269.87 178.97 C 262.84 180.87 257.43 187.65 257.45 194.98 C 257.32 219.98 257.57 244.98 257.31 269.97 C 256.97 286.79 248.25 304.08 233.01 312.01 C 222.95 317.31 210.33 317.12 200.40 311.60 C 188.01 304.90 180.08 291.75 177.67 278.11 C 176.29 271.17 176.97 264.07 176.65 257.05 C 176.15 248.64 168.41 241.54 160.01 241.59 C 151.78 241.30 143.96 247.84 142.97 256.04 C 141.93 272.18 143.41 288.86 150.23 303.72 C 157.87 321.13 171.67 336.06 189.13 343.87 C 204.71 350.98 223.00 351.85 239.17 346.20 C 253.26 341.43 265.39 331.87 274.36 320.11 C 281.96 329.79 291.42 338.14 302.64 343.36 C 317.39 350.36 334.68 351.85 350.37 347.28 C 367.01 342.57 381.46 331.38 391.14 317.15 C 401.00 302.80 406.06 285.36 406.06 267.99 C 406.11 244.32 406.05 220.64 406.09 196.97 C 406.14 193.08 405.40 189.07 403.12 185.85 C 399.13 179.77 391.02 176.84 384.08 179.08 C 376.86 181.15 371.72 188.43 372.01 195.92 C 371.98 216.61 372.01 237.31 372.00 258.00 C 371.94 265.27 372.44 272.65 370.81 279.80 C 368.00 293.22 359.73 305.97 347.27 312.20 C 337.59 317.15 325.59 317.08 315.94 312.07 C 300.27 304.07 291.62 286.21 291.43 269.07 C 291.35 244.37 291.46 219.67 291.38 194.98 C 291.59 184.30 280.04 175.70 269.87 178.97 M 145.35 182.25 C 139.00 183.22 132.36 184.37 126.85 187.86 C 119.03 193.23 117.63 205.16 123.50 212.48 C 126.71 217.04 132.52 219.17 137.96 218.58 C 143.01 218.05 147.87 216.29 152.96 216.03 C 167.05 214.90 181.45 220.59 191.05 230.95 C 202.01 242.34 206.58 259.44 202.67 274.77 C 201.25 279.64 199.24 284.83 201.11 289.88 C 203.98 299.86 216.75 305.04 225.72 299.76 C 231.90 296.72 234.24 289.86 235.69 283.61 C 241.08 263.25 237.89 240.86 227.29 222.69 C 219.16 208.58 206.71 197.01 192.07 189.88 C 177.69 182.79 161.22 180.36 145.35 182.25 Z"></path><path fill="#0a1b5f" opacity="1.00" d=" M 575.88 43.74 C 581.50 43.62 587.13 43.56 592.75 43.80 C 592.88 78.02 592.52 112.26 592.92 146.48 C 599.64 137.76 606.96 129.35 616.12 123.09 C 646.02 101.84 688.14 100.14 720.09 117.85 C 738.48 128.06 752.84 145.07 760.25 164.72 C 771.62 195.00 768.90 230.87 751.12 258.17 C 740.69 274.13 725.07 286.63 707.15 293.16 C 676.04 304.59 638.86 300.12 612.64 279.34 C 604.52 273.13 597.90 265.26 592.04 256.94 C 590.92 269.76 590.39 282.62 589.38 295.45 C 584.94 295.55 580.50 295.53 576.06 295.54 C 575.52 273.04 575.98 250.51 575.83 228.00 C 575.86 166.58 575.75 105.16 575.88 43.74 M 662.46 122.68 C 647.99 124.08 633.84 129.40 622.30 138.30 C 607.74 149.34 597.64 165.84 593.82 183.65 C 589.79 202.35 591.71 222.51 600.27 239.71 C 605.85 251.08 614.25 261.08 624.62 268.37 C 652.66 288.45 693.99 287.58 720.92 265.92 C 734.93 254.78 744.39 238.39 747.91 220.91 C 751.79 201.65 749.66 180.93 740.62 163.36 C 733.87 150.14 723.11 138.98 710.05 131.92 C 695.64 124.01 678.75 121.10 662.46 122.68 Z"></path><path fill="#0a1b5f" opacity="1.00" d=" M 2403.05 115.12 C 2434.07 99.70 2473.66 101.78 2502.11 121.92 C 2515.61 131.50 2526.28 144.90 2532.88 160.06 C 2538.39 172.19 2540.64 185.45 2542.00 198.61 L 2542.00 207.35 C 2541.62 210.11 2541.11 212.84 2540.72 215.59 C 2490.48 215.66 2440.24 215.49 2390.00 215.67 C 2391.56 225.43 2395.15 234.95 2401.12 242.89 C 2408.76 253.26 2420.51 260.25 2433.09 262.75 C 2450.49 266.25 2469.83 263.18 2483.91 251.90 C 2489.25 247.84 2493.21 242.37 2497.05 236.95 C 2510.39 236.90 2523.73 236.81 2537.07 237.01 C 2530.87 253.80 2520.24 269.07 2506.14 280.16 C 2482.63 298.91 2450.04 304.33 2421.22 296.77 C 2403.60 292.18 2387.40 282.29 2375.39 268.59 C 2353.04 243.56 2346.26 206.90 2354.89 174.86 C 2361.53 149.33 2379.30 126.79 2403.05 115.12 M 2412.30 150.32 C 2401.18 158.41 2393.96 171.02 2390.97 184.30 C 2428.36 184.48 2465.76 184.47 2503.15 184.30 C 2499.31 167.18 2487.82 151.42 2471.41 144.51 C 2452.48 136.56 2429.08 138.03 2412.30 150.32 Z"></path><path fill="#0a1b5f" opacity="1.00" d=" M 1000.00 114.00 C 1015.71 106.37 1033.73 104.71 1050.94 106.42 C 1066.57 108.09 1082.49 113.86 1093.32 125.68 C 1101.85 134.79 1106.27 147.21 1106.82 159.57 C 1101.46 159.62 1096.10 159.65 1090.74 159.52 C 1089.96 149.51 1085.84 139.53 1078.01 133.01 C 1066.74 123.47 1051.32 120.95 1036.98 121.18 C 1022.99 121.49 1008.04 124.68 997.57 134.58 C 988.92 142.59 986.02 155.91 990.22 166.87 C 993.02 174.23 999.81 179.15 1006.86 182.06 C 1020.73 187.67 1035.78 189.02 1050.38 191.75 C 1064.87 194.38 1079.84 197.43 1092.32 205.68 C 1100.51 211.00 1106.72 219.25 1109.37 228.68 C 1113.62 243.86 1111.77 261.30 1102.09 274.10 C 1092.23 287.40 1076.22 294.68 1060.27 297.54 C 1044.43 300.26 1027.89 299.97 1012.35 295.67 C 998.26 291.74 984.98 283.41 977.10 270.86 C 971.75 262.48 968.94 252.68 968.23 242.81 C 973.74 242.69 979.26 242.64 984.78 242.86 C 985.97 253.76 990.90 264.48 999.67 271.32 C 1012.59 281.62 1029.90 284.05 1045.95 283.30 C 1060.33 282.54 1075.61 278.59 1085.87 267.88 C 1097.70 255.75 1098.03 233.43 1084.85 222.16 C 1075.12 213.95 1062.24 211.16 1050.09 208.66 C 1032.97 205.32 1015.31 203.59 999.05 196.90 C 989.08 192.81 979.73 185.76 975.45 175.59 C 971.07 165.08 970.73 152.94 974.16 142.11 C 978.21 129.55 988.28 119.66 1000.00 114.00 Z"></path><path fill="#0a1b5f" opacity="1.00" d=" M 1246.97 115.98 C 1265.72 105.51 1288.63 103.05 1309.26 108.83 C 1323.12 112.72 1335.63 121.29 1344.07 132.97 C 1354.79 147.62 1359.24 166.06 1359.33 184.00 C 1359.33 215.34 1359.33 246.67 1359.33 278.00 C 1359.25 283.85 1359.57 289.71 1359.09 295.55 C 1353.54 295.49 1348.00 295.55 1342.46 295.48 C 1342.33 264.99 1342.45 234.49 1342.41 204.00 C 1342.32 192.18 1342.98 180.21 1340.51 168.57 C 1337.57 153.31 1329.47 138.38 1315.94 130.10 C 1299.78 120.27 1279.00 119.01 1261.34 125.34 C 1235.96 134.45 1217.83 160.06 1217.22 186.97 C 1217.08 223.11 1217.27 259.26 1217.12 295.41 C 1211.46 295.56 1205.81 295.60 1200.16 295.38 C 1200.17 233.49 1200.15 171.60 1200.17 109.71 C 1204.40 109.50 1208.64 109.48 1212.88 109.73 C 1213.99 121.99 1214.97 134.26 1216.16 146.51 C 1223.75 134.02 1234.02 122.98 1246.97 115.98 Z"></path><path fill="#0a1b5f" opacity="1.00" d=" M 1437.31 113.28 C 1468.75 99.92 1507.92 104.33 1534.10 126.86 C 1557.52 146.59 1568.87 178.33 1566.59 208.51 C 1510.34 208.56 1454.09 208.39 1397.84 208.60 C 1398.80 224.80 1404.23 240.89 1414.21 253.78 C 1424.82 267.78 1440.73 277.48 1457.92 280.95 C 1476.92 284.78 1497.51 282.23 1514.31 272.28 C 1526.77 265.05 1536.62 253.92 1543.41 241.32 C 1549.33 241.19 1555.27 241.20 1561.20 241.29 C 1553.99 257.99 1542.41 273.02 1527.42 283.45 C 1501.27 301.66 1465.58 304.01 1436.56 291.46 C 1419.14 283.92 1404.33 270.65 1394.73 254.31 C 1377.26 224.58 1376.39 185.87 1392.17 155.26 C 1401.78 136.63 1417.95 121.41 1437.31 113.28 M 1421.10 143.10 C 1407.71 156.10 1399.88 174.18 1398.11 192.64 C 1448.76 192.70 1499.40 192.65 1550.05 192.67 C 1548.35 169.35 1536.18 146.44 1516.23 133.77 C 1487.34 115.10 1445.64 118.69 1421.10 143.10 Z"></path><path fill="#0a1b5f" opacity="1.00" d=" M 1596.20 126.21 C 1607.13 114.20 1623.27 108.41 1639.07 106.52 C 1656.03 104.71 1673.85 106.05 1689.41 113.51 C 1701.41 119.23 1711.45 129.39 1716.00 141.99 C 1718.13 147.61 1719.08 153.58 1719.60 159.54 C 1714.21 159.65 1708.83 159.60 1703.46 159.59 C 1702.62 149.88 1698.86 140.14 1691.38 133.64 C 1680.20 123.64 1664.51 120.99 1649.99 121.17 C 1638.46 121.39 1626.60 123.52 1616.65 129.63 C 1609.37 134.04 1603.52 141.18 1601.74 149.62 C 1600.09 157.69 1601.21 166.83 1606.73 173.25 C 1612.52 179.93 1621.14 183.12 1629.45 185.38 C 1648.36 190.29 1668.12 191.29 1686.79 197.24 C 1696.36 200.31 1705.82 204.78 1712.78 212.24 C 1723.40 223.44 1725.85 240.21 1723.21 254.94 C 1720.58 269.42 1710.56 281.80 1697.82 288.83 C 1681.55 297.93 1662.31 300.21 1643.96 298.94 C 1627.16 297.73 1609.89 292.37 1597.59 280.40 C 1587.37 270.66 1581.81 256.78 1580.93 242.82 C 1586.45 242.70 1591.99 242.58 1597.53 242.93 C 1598.63 254.38 1604.22 265.53 1613.66 272.33 C 1627.14 282.25 1644.72 284.25 1660.99 283.15 C 1675.32 282.02 1690.60 277.53 1700.11 266.10 C 1707.88 256.84 1709.40 243.19 1704.88 232.13 C 1701.36 223.69 1693.39 218.13 1685.15 214.82 C 1666.84 207.63 1646.90 206.85 1627.96 202.06 C 1613.47 198.58 1597.70 192.69 1589.89 179.06 C 1580.93 162.47 1583.20 140.10 1596.20 126.21 Z"></path><path fill="#0a1b5f" opacity="1.00" d=" M 1764.37 117.37 C 1779.63 107.73 1798.26 105.04 1816.01 105.98 C 1831.75 106.87 1847.97 111.41 1859.97 122.07 C 1870.68 131.39 1876.78 145.49 1877.02 159.61 C 1871.74 159.61 1866.48 159.59 1861.22 159.62 C 1860.17 150.48 1857.04 141.23 1850.23 134.77 C 1839.43 124.19 1823.60 121.14 1809.00 121.16 C 1796.88 121.22 1784.33 123.33 1773.93 129.88 C 1766.69 134.35 1760.92 141.59 1759.30 150.05 C 1757.79 157.86 1758.92 166.63 1764.11 172.91 C 1769.24 179.14 1776.98 182.40 1784.53 184.65 C 1803.55 190.09 1823.57 190.94 1842.53 196.64 C 1856.43 200.66 1870.67 208.29 1877.11 221.93 C 1885.31 239.81 1883.10 262.83 1869.59 277.58 C 1857.91 290.59 1840.43 296.73 1823.43 298.59 C 1806.42 300.30 1788.65 299.05 1772.85 292.12 C 1760.75 286.85 1750.20 277.58 1744.49 265.57 C 1740.99 258.49 1739.12 250.67 1738.60 242.81 C 1744.15 242.77 1749.72 242.44 1755.26 243.06 C 1756.22 253.87 1761.30 264.38 1769.85 271.20 C 1782.96 281.74 1800.63 284.13 1816.95 283.26 C 1831.26 282.42 1846.44 278.32 1856.53 267.54 C 1865.38 258.13 1867.39 243.40 1862.32 231.68 C 1859.08 224.26 1852.30 219.08 1845.09 215.82 C 1827.34 208.07 1807.69 207.20 1789.02 202.87 C 1775.84 199.85 1761.94 195.72 1752.37 185.60 C 1743.38 176.14 1741.01 162.17 1742.72 149.61 C 1744.52 136.25 1753.05 124.44 1764.37 117.37 Z"></path><path fill="#0a1b5f" opacity="1.00" d=" M 2296.86 121.85 C 2307.43 113.63 2320.74 109.58 2334.00 108.77 C 2341.32 108.36 2348.68 108.46 2356.02 108.53 C 2358.05 108.18 2357.46 110.81 2357.63 112.00 C 2357.55 122.88 2357.61 133.76 2357.59 144.64 C 2349.05 144.81 2340.51 144.41 2332.00 144.90 C 2322.28 145.50 2312.35 148.41 2304.91 154.91 C 2297.46 161.32 2293.23 170.72 2291.43 180.24 C 2289.46 190.04 2290.10 200.07 2290.00 210.00 C 2289.92 238.52 2290.16 267.05 2289.88 295.56 C 2277.24 295.47 2264.60 295.50 2251.97 295.54 C 2251.43 275.71 2251.89 255.84 2251.74 236.00 C 2251.78 193.88 2251.66 151.77 2251.80 109.66 C 2260.45 109.63 2269.13 109.29 2277.79 109.84 C 2279.83 118.06 2281.77 126.31 2284.09 134.46 C 2288.12 130.04 2292.02 125.43 2296.86 121.85 Z"></path><path fill="#0a1b5f" opacity="1.00" d=" M 788.57 110.30 L 789.16 109.71 C 794.54 109.35 799.95 109.62 805.35 109.66 C 805.52 139.10 805.37 168.55 805.42 198.00 C 805.53 210.69 804.70 223.59 807.75 236.04 C 810.96 250.24 818.79 263.77 830.95 272.11 C 845.26 282.06 863.68 284.42 880.62 281.83 C 894.29 279.73 907.44 272.99 916.16 262.12 C 923.37 253.32 927.66 242.42 929.54 231.28 C 931.28 221.62 930.85 211.76 930.91 202.00 C 930.94 171.22 930.85 140.44 930.95 109.66 C 936.57 109.52 942.20 109.49 947.83 109.69 C 947.85 138.80 947.83 167.90 947.84 197.00 C 947.68 212.51 948.85 228.34 944.64 243.47 C 940.57 259.43 931.48 274.30 918.15 284.15 C 903.31 295.29 884.34 299.68 866.02 299.26 C 849.02 299.00 831.71 294.32 818.01 283.97 C 806.27 275.21 797.74 262.55 793.23 248.67 C 789.77 238.16 788.37 227.04 788.48 216.00 C 788.56 180.77 788.37 145.53 788.57 110.30 Z"></path><path fill="#0a1b5f" opacity="1.00" d=" M 1142.80 109.66 C 1148.42 109.57 1154.07 109.37 1159.70 109.81 C 1159.66 171.62 1159.62 233.42 1159.72 295.23 C 1154.09 295.77 1148.43 295.49 1142.80 295.41 C 1142.70 233.49 1142.70 171.58 1142.80 109.66 Z"></path><path fill="#0a1b5f" opacity="1.00" d=" M 1886.05 109.66 C 1899.10 109.45 1912.16 109.66 1925.21 109.55 C 1939.67 150.98 1953.05 192.80 1967.32 234.30 C 1975.17 217.32 1982.25 199.97 1989.80 182.85 C 2000.21 159.12 2010.19 135.19 2020.85 111.57 C 2024.90 111.55 2028.96 111.54 2033.03 111.64 C 2049.20 148.31 2065.06 185.13 2081.12 221.85 C 2083.11 226.31 2084.77 230.93 2087.26 235.15 C 2101.55 193.33 2115.35 151.33 2129.84 109.58 C 2142.54 109.62 2155.24 109.47 2167.95 109.66 C 2153.94 152.01 2139.64 194.27 2125.54 236.59 C 2118.87 256.22 2112.55 275.96 2105.68 295.52 C 2095.36 295.42 2085.03 295.68 2074.72 295.38 C 2058.75 257.83 2043.02 220.18 2026.90 182.70 C 2010.81 220.17 1995.21 257.86 1979.30 295.41 C 1968.97 295.65 1958.64 295.43 1948.32 295.53 C 1927.42 233.62 1906.71 171.65 1886.05 109.66 Z"></path><path fill="#0a1b5f" opacity="1.00" d=" M 2183.24 109.73 C 2194.83 109.37 2206.45 109.69 2218.06 109.55 C 2219.20 109.71 2221.79 109.12 2221.50 111.14 C 2221.52 172.59 2221.50 234.05 2221.51 295.51 C 2208.77 295.53 2196.04 295.48 2183.31 295.53 C 2183.16 233.60 2183.29 171.67 2183.24 109.73 Z"></path><path fill="#0a1b5f" opacity="1.00" d=" M 1975.13 360.16 C 1988.30 354.99 2004.43 356.35 2015.65 365.34 C 2021.60 370.01 2025.72 376.69 2027.92 383.89 C 2025.28 383.94 2022.66 383.92 2020.05 383.94 C 2017.32 378.36 2013.81 372.89 2008.35 369.65 C 1996.82 362.50 1980.67 363.46 1970.25 372.22 C 1957.33 383.07 1955.73 404.11 1965.44 417.55 C 1975.38 431.49 1997.25 434.04 2010.58 423.61 C 2015.18 420.25 2017.84 415.12 2020.36 410.17 C 2022.85 409.27 2025.62 409.87 2028.26 409.82 C 2025.73 419.62 2019.19 428.42 2010.17 433.15 C 1994.65 441.30 1973.59 438.54 1961.55 425.47 C 1951.25 414.44 1948.76 397.60 1953.35 383.50 C 1956.69 373.01 1964.86 364.17 1975.13 360.16 Z"></path><path fill="#0a1b5f" opacity="1.00" d=" M 2073.41 357.62 C 2082.50 356.24 2092.10 357.51 2100.30 361.79 C 2108.67 366.11 2115.30 373.68 2118.51 382.54 C 2123.79 396.85 2121.11 414.27 2110.43 425.45 C 2096.05 440.86 2069.51 441.91 2053.54 428.40 C 2039.40 416.72 2035.92 395.11 2043.88 378.92 C 2049.32 367.43 2060.89 359.38 2073.41 357.62 M 2075.31 365.21 C 2066.61 366.39 2058.38 371.19 2053.47 378.53 C 2044.58 391.36 2046.14 410.60 2057.68 421.33 C 2070.19 433.33 2092.35 432.91 2104.27 420.26 C 2116.00 408.14 2115.99 386.84 2104.31 374.69 C 2097.01 366.93 2085.73 363.64 2075.31 365.21 Z"></path><path fill="#0a1b5f" opacity="1.00" d=" M 579.15 358.26 C 581.89 358.67 586.35 356.96 587.22 360.72 C 597.73 386.03 608.96 411.07 619.17 436.50 C 616.39 436.43 613.52 436.91 610.83 436.15 C 607.41 429.90 605.89 422.60 601.97 416.70 C 589.04 416.49 576.09 416.53 563.17 416.71 C 560.34 423.32 557.86 430.07 554.78 436.57 C 552.12 436.52 549.47 436.53 546.83 436.50 C 552.69 420.77 559.59 405.43 565.86 389.85 C 570.34 379.34 574.36 368.63 579.15 358.26 M 566.46 409.15 C 577.37 409.32 588.29 409.31 599.20 409.15 C 593.95 395.92 588.34 382.82 582.70 369.74 C 576.98 382.74 571.64 395.92 566.46 409.15 Z"></path><path fill="#0a1b5f" opacity="1.00" d=" M 663.03 358.38 C 673.69 358.47 684.36 358.31 695.02 358.46 C 703.82 358.65 712.57 364.68 714.45 373.53 C 716.53 382.03 712.30 391.01 705.14 395.73 C 709.55 398.23 713.62 401.73 715.45 406.60 C 718.41 413.70 717.37 422.44 712.33 428.34 C 707.91 433.74 700.87 436.51 693.98 436.49 C 683.61 436.48 673.24 436.60 662.88 436.41 C 662.89 410.40 662.59 384.38 663.03 358.38 M 670.75 366.11 C 670.60 374.75 670.62 383.39 670.73 392.02 C 677.84 392.13 684.94 392.07 692.05 392.09 C 695.36 392.12 698.85 391.60 701.55 389.51 C 706.12 386.28 708.08 379.95 706.15 374.69 C 704.39 369.71 699.36 366.22 694.10 366.16 C 686.32 365.97 678.53 366.12 670.75 366.11 M 670.74 399.89 C 670.68 409.48 670.47 419.09 670.85 428.68 C 678.57 428.64 686.29 428.72 694.01 428.66 C 698.11 428.67 702.25 427.12 705.06 424.08 C 709.79 419.33 710.22 411.12 706.22 405.79 C 703.46 401.95 698.75 399.76 694.05 399.85 C 686.28 399.81 678.51 399.80 670.74 399.89 Z"></path><path fill="#0a1b5f" opacity="1.00" d=" M 736.86 358.32 C 751.28 358.34 765.70 358.33 780.12 358.33 C 780.23 360.85 780.26 363.37 780.24 365.90 C 768.38 366.00 756.53 365.84 744.67 365.97 C 744.53 374.78 744.55 383.60 744.66 392.41 C 755.47 392.58 766.29 392.48 777.11 392.44 C 777.30 394.90 777.37 397.36 777.29 399.83 C 766.41 399.90 755.54 399.75 744.67 399.89 C 744.54 409.56 744.52 419.23 744.68 428.90 C 756.94 428.97 769.19 428.83 781.45 428.95 C 781.48 431.44 781.49 433.93 781.47 436.42 C 766.56 436.55 751.64 436.57 736.73 436.41 C 736.71 410.38 736.45 384.34 736.86 358.32 Z"></path><path fill="#0a1b5f" opacity="1.00" d=" M 799.99 358.33 C 809.67 358.35 819.36 358.29 829.05 358.35 C 835.78 358.36 842.71 360.63 847.48 365.52 C 854.49 372.37 855.89 383.85 851.45 392.46 C 848.41 398.56 842.32 402.32 836.00 404.31 C 842.06 415.11 848.82 425.51 854.73 436.40 C 851.83 436.52 848.93 436.51 846.05 436.46 C 839.85 426.06 833.67 415.66 827.64 405.17 C 821.04 404.70 814.42 404.95 807.81 404.98 C 807.67 415.43 807.78 425.89 807.78 436.34 C 805.14 436.49 802.50 436.53 799.87 436.45 C 799.87 410.41 799.64 384.36 799.99 358.33 M 807.81 365.98 C 807.71 376.43 807.71 386.88 807.81 397.33 C 814.53 397.47 821.26 397.41 827.99 397.41 C 832.64 397.42 837.54 396.28 841.04 393.04 C 847.03 387.75 847.57 377.64 842.36 371.65 C 839.12 367.77 834.01 365.92 829.06 365.94 C 821.97 365.89 814.89 365.89 807.81 365.98 Z"></path><path fill="#0a1b5f" opacity="1.00" d=" M 873.22 358.32 C 875.78 358.32 878.35 358.31 880.93 358.30 C 881.31 369.61 880.95 380.93 881.11 392.24 C 884.40 392.32 887.70 392.49 891.00 392.30 C 892.44 392.42 893.24 390.98 894.13 390.10 C 902.53 379.52 910.68 368.74 919.26 358.32 C 922.53 358.32 925.80 358.30 929.08 358.36 C 919.47 371.03 909.26 383.24 899.68 395.93 C 910.05 409.58 921.29 422.57 931.47 436.37 C 928.28 436.53 925.10 436.52 921.92 436.53 C 912.52 425.40 903.71 413.79 894.56 402.45 C 891.73 397.78 885.57 400.32 881.12 399.84 C 881.01 412.04 881.17 424.25 881.05 436.45 C 878.41 436.50 875.78 436.49 873.16 436.41 C 873.20 410.38 873.08 384.35 873.22 358.32 Z"></path><path fill="#0a1b5f" opacity="1.00" d=" M 944.39 364.40 C 950.06 358.91 958.32 357.20 965.98 357.41 C 973.14 357.54 980.71 359.88 985.46 365.52 C 989.00 369.53 990.34 374.94 990.48 380.19 C 987.89 380.21 985.31 380.15 982.75 379.91 C 982.21 376.91 981.72 373.71 979.74 371.27 C 976.51 367.14 971.18 365.23 966.07 365.03 C 960.40 364.75 954.22 365.96 950.05 370.07 C 945.35 374.53 945.32 383.37 950.94 387.10 C 961.80 394.00 976.35 392.16 986.55 400.48 C 993.08 405.83 993.90 415.59 991.05 423.08 C 988.28 430.37 981.11 435.11 973.68 436.64 C 964.41 438.53 954.00 437.49 946.20 431.79 C 940.18 427.47 937.22 420.08 937.04 412.84 C 939.65 412.74 942.28 412.74 944.90 412.81 C 945.58 417.87 947.44 423.20 952.01 426.02 C 959.89 431.06 971.04 431.16 978.79 425.80 C 985.23 421.50 986.77 410.64 980.19 405.79 C 973.87 401.28 965.83 400.71 958.56 398.62 C 951.69 396.87 943.97 394.17 940.57 387.40 C 937.08 379.96 938.46 370.23 944.39 364.40 Z"></path><path fill="#0a1b5f" opacity="1.00" d=" M 1010.99 358.31 C 1013.55 358.32 1016.13 358.32 1018.72 358.33 C 1018.86 369.64 1018.64 380.95 1018.82 392.26 C 1033.22 392.39 1047.62 392.38 1062.03 392.27 C 1062.20 380.95 1061.93 369.63 1062.15 358.31 C 1064.73 358.32 1067.31 358.31 1069.91 358.29 C 1070.11 384.35 1069.96 410.40 1069.99 436.46 C 1067.34 436.50 1064.71 436.49 1062.08 436.43 C 1062.01 424.28 1062.18 412.13 1062.01 399.98 C 1047.61 399.88 1033.21 399.88 1018.81 399.99 C 1018.67 412.10 1018.78 424.23 1018.78 436.35 C 1016.14 436.50 1013.50 436.52 1010.87 436.46 C 1010.87 410.41 1010.64 384.35 1010.99 358.31 Z"></path><path fill="#0a1b5f" opacity="1.00" d=" M 1094.09 358.30 C 1096.67 358.31 1099.25 358.32 1101.85 358.31 C 1102.02 384.35 1101.89 410.39 1101.91 436.43 C 1099.27 436.49 1096.64 436.50 1094.02 436.46 C 1094.03 410.40 1093.89 384.35 1094.09 358.30 Z"></path><path fill="#0a1b5f" opacity="1.00" d=" M 1126.07 358.31 C 1135.73 358.36 1145.39 358.29 1155.06 358.35 C 1162.03 358.33 1169.21 360.77 1174.03 365.97 C 1180.66 372.89 1181.91 384.10 1177.49 392.52 C 1174.45 398.60 1168.37 402.34 1162.06 404.30 C 1168.16 415.10 1174.94 425.51 1180.81 436.43 C 1177.89 436.53 1174.99 436.52 1172.08 436.41 C 1165.94 425.99 1159.75 415.61 1153.69 405.14 C 1147.09 404.73 1140.48 404.93 1133.89 404.99 C 1133.75 415.46 1133.88 425.93 1133.84 436.41 C 1131.20 436.49 1128.57 436.50 1125.95 436.45 C 1125.96 410.41 1125.73 384.36 1126.07 358.31 M 1133.89 365.99 C 1133.80 376.43 1133.80 386.88 1133.89 397.33 C 1140.59 397.47 1147.29 397.41 1154.00 397.41 C 1158.66 397.45 1163.56 396.30 1167.09 393.08 C 1172.01 388.78 1173.30 381.23 1170.74 375.33 C 1168.36 369.57 1162.15 366.12 1156.07 365.98 C 1148.68 365.84 1141.28 365.90 1133.89 365.99 Z"></path><path fill="#0a1b5f" opacity="1.00" d=" M 1199.28 358.34 C 1213.79 358.32 1228.29 358.34 1242.80 358.33 C 1242.82 360.84 1242.84 363.36 1242.85 365.88 C 1230.96 366.06 1219.07 365.76 1207.18 366.02 C 1207.15 374.80 1207.17 383.58 1207.17 392.36 C 1218.08 392.64 1228.99 392.46 1239.91 392.44 C 1239.97 394.90 1239.99 397.36 1240.00 399.83 C 1229.06 399.92 1218.13 399.70 1207.20 399.93 C 1207.14 409.58 1207.17 419.23 1207.18 428.88 C 1219.49 429.00 1231.79 428.80 1244.10 428.96 C 1244.09 431.49 1244.04 434.03 1243.92 436.56 C 1229.05 436.46 1214.17 436.51 1199.31 436.53 C 1199.19 410.47 1199.24 384.40 1199.28 358.34 Z"></path><path fill="#0a1b5f" opacity="1.00" d=" M 1294.22 358.32 C 1296.78 358.32 1299.35 358.31 1301.93 358.30 C 1302.31 369.61 1301.95 380.93 1302.11 392.25 C 1316.54 392.40 1330.97 392.36 1345.40 392.27 C 1345.61 380.97 1345.43 369.66 1345.48 358.36 C 1348.03 358.34 1350.58 358.31 1353.15 358.30 C 1353.53 384.34 1353.29 410.40 1353.27 436.45 C 1350.70 436.49 1348.13 436.49 1345.57 436.46 C 1345.41 424.35 1345.49 412.23 1345.55 400.11 C 1331.08 399.72 1316.59 399.95 1302.11 399.99 C 1302.02 412.14 1302.17 424.30 1302.05 436.45 C 1299.41 436.50 1296.78 436.49 1294.16 436.41 C 1294.20 410.38 1294.08 384.35 1294.22 358.32 Z"></path><path fill="#0a1b5f" opacity="1.00" d=" M 1401.35 358.40 C 1403.49 358.20 1405.67 358.30 1407.85 358.26 C 1415.61 375.33 1422.58 392.76 1430.05 409.97 C 1433.68 418.85 1437.83 427.52 1441.11 436.54 C 1438.29 436.55 1435.49 436.51 1432.70 436.41 C 1429.79 429.82 1427.36 423.03 1424.17 416.57 C 1411.15 416.67 1398.13 416.46 1385.11 416.68 C 1382.35 423.25 1379.69 429.86 1376.93 436.43 C 1374.17 436.51 1371.41 436.51 1368.68 436.41 C 1378.42 411.80 1388.95 387.49 1398.87 362.93 C 1399.59 361.39 1400.03 359.58 1401.35 358.40 M 1404.46 369.77 C 1399.05 382.88 1393.46 395.91 1388.37 409.15 C 1399.30 409.31 1410.23 409.31 1421.15 409.15 C 1415.73 395.97 1410.46 382.69 1404.46 369.77 Z"></path><path fill="#0a1b5f" opacity="1.00" d=" M 1440.47 358.37 C 1459.29 358.27 1478.12 358.39 1496.94 358.31 C 1496.97 360.81 1496.99 363.32 1496.99 365.83 C 1488.90 365.90 1480.82 365.75 1472.74 365.89 C 1472.54 389.44 1472.77 412.98 1472.63 436.53 C 1470.09 436.52 1467.57 436.53 1465.06 436.56 C 1464.50 413.03 1465.01 389.47 1464.80 365.93 C 1456.68 365.68 1448.56 365.99 1440.44 365.76 C 1440.46 363.29 1440.47 360.83 1440.47 358.37 Z"></path><path fill="#0a1b5f" opacity="1.00" d=" M 1512.35 358.34 C 1514.92 358.33 1517.50 358.32 1520.10 358.31 C 1520.48 369.60 1520.14 380.90 1520.26 392.19 C 1534.70 392.37 1549.17 392.55 1563.61 392.10 C 1563.59 380.87 1563.51 369.63 1563.63 358.40 C 1566.22 358.35 1568.82 358.34 1571.44 358.39 C 1571.53 384.41 1571.56 410.44 1571.42 436.46 C 1568.82 436.49 1566.23 436.49 1563.65 436.45 C 1563.49 424.33 1563.59 412.21 1563.62 400.09 C 1549.17 399.78 1534.70 399.87 1520.25 400.05 C 1520.11 412.22 1520.56 424.40 1520.03 436.56 C 1517.47 436.53 1514.92 436.52 1512.37 436.53 C 1512.29 410.47 1512.33 384.40 1512.35 358.34 Z"></path><path fill="#0a1b5f" opacity="1.00" d=" M 1619.19 358.26 C 1621.91 358.69 1626.42 356.97 1627.27 360.71 C 1635.47 380.15 1643.78 399.55 1652.02 418.98 C 1654.41 424.83 1657.24 430.50 1659.19 436.52 C 1656.37 436.55 1653.58 436.52 1650.80 436.37 C 1648.42 430.69 1646.08 424.99 1643.69 419.33 C 1643.09 418.23 1642.65 416.33 1641.02 416.63 C 1629.67 416.50 1618.31 416.66 1606.96 416.56 C 1605.61 416.80 1603.37 416.09 1602.85 417.81 C 1599.96 423.97 1597.87 430.49 1594.80 436.57 C 1592.14 436.51 1589.49 436.53 1586.85 436.50 C 1593.34 419.43 1600.76 402.71 1607.61 385.78 C 1611.52 376.63 1615.00 367.29 1619.19 358.26 M 1606.50 409.14 C 1617.41 409.32 1628.33 409.31 1639.25 409.15 C 1633.99 395.92 1628.43 382.80 1622.74 369.76 C 1617.05 382.76 1611.71 395.94 1606.50 409.14 Z"></path><path fill="#0a1b5f" opacity="1.00" d=" M 1662.24 358.32 C 1665.02 358.31 1667.82 358.33 1670.63 358.38 C 1677.66 379.92 1684.09 401.66 1691.39 423.09 C 1698.39 404.20 1705.49 385.34 1712.46 366.43 C 1713.58 363.76 1713.96 359.73 1717.75 360.00 C 1726.41 380.67 1733.51 401.99 1742.18 422.65 C 1749.41 401.40 1755.53 379.76 1762.39 358.38 C 1765.15 358.33 1767.93 358.31 1770.73 358.33 C 1762.38 384.40 1754.39 410.59 1745.78 436.57 C 1743.59 436.53 1741.41 436.53 1739.25 436.57 C 1731.38 417.10 1724.37 397.29 1716.62 377.77 C 1708.59 397.13 1702.13 417.13 1694.23 436.55 C 1692.05 436.52 1689.89 436.51 1687.76 436.55 C 1678.89 410.60 1670.75 384.39 1662.24 358.32 Z"></path><path fill="#0a1b5f" opacity="1.00" d=" M 1806.18 358.26 C 1808.55 358.31 1810.95 358.36 1813.36 358.46 C 1821.54 377.96 1829.88 397.39 1838.15 416.86 C 1840.76 423.43 1844.02 429.75 1846.19 436.50 C 1843.42 436.42 1840.55 436.93 1837.89 436.14 C 1834.78 429.98 1832.79 423.32 1829.63 417.19 C 1828.34 416.15 1826.51 416.75 1825.03 416.56 C 1814.01 416.68 1803.00 416.48 1791.99 416.64 C 1790.22 416.32 1789.69 418.01 1789.18 419.28 C 1786.68 425.03 1784.63 430.96 1781.82 436.57 C 1779.15 436.52 1776.50 436.53 1773.87 436.50 C 1780.48 419.17 1787.99 402.18 1794.96 384.98 C 1798.75 376.10 1802.16 367.05 1806.18 358.26 M 1793.51 409.14 C 1804.42 409.32 1815.34 409.31 1826.26 409.15 C 1821.03 395.92 1815.46 382.81 1809.77 369.77 C 1804.05 382.76 1798.75 395.95 1793.51 409.14 Z"></path><path fill="#0a1b5f" opacity="1.00" d=" M 1845.73 358.37 C 1848.95 358.77 1853.74 356.77 1855.52 360.52 C 1863.17 372.97 1870.89 385.39 1878.51 397.87 C 1887.00 384.84 1894.85 371.41 1903.28 358.34 C 1906.13 358.33 1908.99 358.30 1911.87 358.30 C 1905.28 369.20 1898.44 379.94 1891.77 390.78 C 1888.85 395.92 1885.03 400.59 1882.73 406.03 C 1882.35 416.19 1882.75 426.37 1882.57 436.54 C 1879.87 436.52 1877.19 436.51 1874.52 436.48 C 1874.32 426.33 1874.73 416.17 1874.36 406.03 C 1872.07 400.56 1868.25 395.84 1865.34 390.68 C 1858.88 379.87 1851.86 369.38 1845.73 358.37 Z"></path><path fill="#0a1b5f" opacity="1.00" d=" M 2146.62 358.40 C 2148.94 358.34 2151.28 358.18 2153.64 358.38 C 2155.67 360.58 2156.36 363.68 2157.71 366.31 C 2165.55 383.68 2173.01 401.22 2181.14 418.46 C 2190.60 398.61 2199.12 378.31 2208.34 358.35 C 2210.83 358.34 2213.34 358.31 2215.86 358.29 C 2220.44 384.31 2224.74 410.38 2229.07 436.44 C 2226.38 436.51 2223.71 436.50 2221.05 436.41 C 2217.46 415.21 2213.88 394.02 2210.26 372.83 C 2200.66 392.96 2191.78 413.44 2182.56 433.75 C 2181.97 433.84 2180.79 434.01 2180.20 434.09 C 2170.72 413.77 2161.90 393.13 2152.30 372.87 C 2148.42 394.06 2145.23 415.38 2141.16 436.54 C 2138.56 436.50 2135.96 436.50 2133.39 436.46 C 2137.58 410.41 2142.24 384.43 2146.62 358.40 Z"></path><path fill="#0a1b5f" opacity="1.00" d=" M 2247.28 358.34 C 2256.53 358.34 2265.79 358.28 2275.06 358.36 C 2282.24 358.39 2289.51 361.27 2294.28 366.74 C 2301.61 374.87 2302.24 388.04 2295.98 396.97 C 2291.69 403.26 2284.27 407.01 2276.75 407.41 C 2269.55 407.73 2262.35 407.28 2255.17 407.64 C 2255.02 417.28 2255.47 426.93 2254.94 436.56 C 2252.38 436.53 2249.84 436.52 2247.31 436.54 C 2247.18 410.47 2247.24 384.40 2247.28 358.34 M 2255.17 366.05 C 2255.18 377.30 2255.13 388.55 2255.20 399.80 C 2262.40 399.75 2269.62 400.05 2276.82 399.66 C 2284.47 399.08 2291.39 392.80 2292.06 385.04 C 2293.45 376.50 2287.12 367.90 2278.64 366.49 C 2270.86 365.49 2262.98 366.16 2255.17 366.05 Z"></path><path fill="#0a1b5f" opacity="1.00" d=" M 2335.37 358.41 C 2337.50 358.20 2339.66 358.30 2341.84 358.26 C 2348.13 371.81 2353.59 385.73 2359.58 399.43 C 2364.67 411.83 2370.37 424.00 2375.11 436.54 C 2372.29 436.55 2369.49 436.51 2366.71 436.39 C 2363.79 429.82 2361.37 423.02 2358.17 416.57 C 2345.15 416.68 2332.13 416.45 2319.12 416.69 C 2316.24 423.28 2313.80 430.06 2310.73 436.56 C 2308.07 436.52 2305.42 436.53 2302.81 436.50 C 2304.53 430.67 2307.27 425.21 2309.49 419.56 C 2317.46 400.21 2325.54 380.90 2333.47 361.52 C 2334.00 360.46 2334.28 359.10 2335.37 358.41 M 2338.45 369.80 C 2333.04 382.90 2327.46 395.93 2322.39 409.15 C 2333.30 409.31 2344.23 409.31 2355.16 409.15 C 2352.41 401.92 2349.22 394.88 2346.29 387.72 C 2343.61 381.77 2341.56 375.54 2338.45 369.80 Z"></path><path fill="#0a1b5f" opacity="1.00" d=" M 2390.48 358.33 C 2392.83 358.33 2395.21 358.35 2397.61 358.36 C 2413.12 379.36 2428.15 400.73 2443.91 421.55 C 2444.18 400.46 2443.81 379.37 2444.09 358.29 C 2446.61 358.31 2449.16 358.33 2451.72 358.33 C 2451.76 384.41 2451.82 410.49 2451.68 436.57 C 2449.53 436.52 2447.40 436.53 2445.30 436.55 C 2429.33 415.52 2414.33 393.76 2398.31 372.77 C 2398.05 394.03 2398.59 415.31 2398.04 436.56 C 2395.50 436.53 2392.99 436.51 2390.49 436.52 C 2390.48 410.45 2390.51 384.39 2390.48 358.33 Z"></path><path fill="#0a1b5f" opacity="1.00" d=" M 2468.03 358.33 C 2470.89 358.30 2473.77 358.33 2476.66 358.36 C 2484.90 371.41 2492.73 384.72 2501.11 397.68 C 2509.51 384.77 2517.46 371.55 2525.57 358.45 C 2528.43 358.32 2531.31 358.29 2534.21 358.35 C 2525.02 374.25 2514.63 389.47 2505.44 405.35 C 2504.64 415.71 2505.66 426.17 2504.94 436.55 C 2502.31 436.52 2499.71 436.53 2497.12 436.57 C 2496.61 426.15 2497.51 415.67 2496.70 405.30 C 2487.45 389.48 2477.40 374.09 2468.03 358.33 Z"></path></g></svg> 