<?xml version="1.0" encoding="UTF-8"?> <svg xmlns="http://www.w3.org/2000/svg" style="color: rgb(252, 83, 86);" viewBox="0 0 2651 719"><path d="M2637 572c-130.8 142.4-299.2 81.1-307.7-123H2643c11-89-25-269-205-269-149 0-242 121-242 265 0 155 106 274 246 274 79 0 169-56 209-130l-14-17zm-211-343c51 0 82 64 86 176h-182.2c6.1-101.9 45.1-176 96.2-176zM397 345v-2c79-22 142-82 142-167C539 80 459 9 309 9H1v32c61 5 68 8 68 42v554c0 33-7 36-69 40v32h338c150 0 231-74 231-180 0-81-47-157-172-184zM214 51h69c79 0 109 59 109 134 0 83-37 138-117 138l-61-1V51zm201 478c0 71-23 139-121 139h-80V370h64c96 0 138 62 137 159zM1303 281c0-49 45-76 88-76 51 0 104 37 116 114h33l-9-130c-43-19-106-31-160-31-125 0-190 62-190 143 0 186 261 189 261 299 0 49-45 73-92 73-55 0-122-33-143-150h-31l12 161c41 20 108 35 172 35 128 0 208-59 208-153 0-171-265-174-265-285zM1094 598V172h-16l-200 44v29c70 5 77 8 77 46v287c-25 23-76 50-121 50-46 0-56-28-56-73V172h-16l-180 44v28c50 5 57 8 57 47v279c0 109 62 149 131 149 80 0 148-54 185-104h5v102h17l166-42-4-27c-27 3-45-16-45-50zM1840 654c-36 0-54-29-54-87V240h121v-51h-121V38h-36c-13 58-59 144-171 165v38h68v359c0 84 44 119 127 119 58 0 98-17 140-78l-21-22c-19 23-33 35-53 35zM2125 639V0h-16l-200 44v29c70 5 77 8 77 46v520c0 33-7 36-49 41v29h236v-29c-41-5-48-8-48-41z"></path></svg> 