<?xml version="1.0" encoding="UTF-8"?> <svg xmlns="http://www.w3.org/2000/svg" width="513" height="513" viewBox="0 0 513 513" fill="none"><path d="M180.935 274.777C180.935 250.43 193.98 236.516 216.589 236.516C222.096 236.516 226.444 237.096 231.661 238.833V310.433C225.285 311.301 221.225 311.591 216.3 311.591C193.4 311.591 180.935 298.548 180.935 274.777Z" fill="#1D1D1B"></path><path fill-rule="evenodd" clip-rule="evenodd" d="M99.85 56.5784H412.35C436.512 56.5784 456.1 76.1659 456.1 100.328V412.828C456.1 436.991 436.512 456.578 412.35 456.578H99.85C75.6875 456.578 56.1 436.991 56.1 412.828V100.328C56.1 76.1659 75.6875 56.5784 99.85 56.5784ZM347.314 307.241V203.762H302.676V291.88C302.676 330.721 300.646 345.504 294.267 358.258C288.181 370.726 278.616 378.84 258.905 388.115L300.356 407.826C320.065 397.97 329.632 388.986 336.88 374.78C344.705 359.997 347.314 342.896 347.314 307.241ZM276.301 341.448V134.826H231.661V202.892C224.993 201.153 219.486 200.576 212.24 200.576C165.573 200.576 135.426 230.14 135.426 275.649C135.426 322.899 163.832 347.535 218.328 347.535C236.589 347.535 253.401 345.796 276.301 341.448ZM347.314 180.863V135.064H302.676V180.863H347.314Z" fill="#1D1D1B"></path></svg> 