<?xml version="1.0" encoding="UTF-8"?> <svg xmlns="http://www.w3.org/2000/svg" width="450" height="114" viewBox="0 0 450 114" fill="none"><g clip-path="url(#clip0_502_112)"><path d="M144.147 53.2194C144.147 62.1153 149.352 68.6022 156.406 68.6022C163.351 68.6022 168.442 62.2465 168.442 53.5658C168.442 45.0006 163.236 38.6387 156.179 38.6387C149.24 38.6387 144.147 44.7689 144.147 53.2194ZM169.483 28.347H189.851V39.7949H187.3C185.914 39.7949 184.639 41.7595 184.639 43.9667V75.3158C184.639 86.4121 183.954 89.8861 181.17 93.4798C176.543 99.3757 167.394 103.076 157.564 103.076C148.423 103.076 139.863 100.071 135.118 95.3287C132.929 93.0137 131.646 90.1205 130.731 85.4929H147.499C149.352 89.7741 152.592 92.0866 156.876 92.0866C163.351 92.0866 167.634 86.9954 167.634 79.3601V74.7377C162.655 78.7871 158.718 80.1725 152.943 80.1725C138.588 80.1725 128.41 68.9486 128.41 53.2194C128.41 37.597 138.248 26.6074 152.244 26.6074C158.606 26.6074 163.119 28.4522 169.483 33.5423V28.347Z" fill="black"></path><path d="M192.805 72.8819H195.694C197.892 72.8819 198.818 72.4199 198.818 69.648V43.0371C198.818 41.1855 197.892 39.7948 195.694 39.7948H187.016V28.347H215.249V69.648C215.249 73.1188 215.592 72.8819 218.596 72.8819H221.725V85.0371H192.805V72.8819Z" fill="black"></path><path d="M238.086 53.2194C238.086 62.1153 243.299 68.6022 250.359 68.6022C257.297 68.6022 262.386 62.2465 262.386 53.5658C262.386 45.0006 257.185 38.6387 250.126 38.6387C243.185 38.6387 238.086 44.7689 238.086 53.2194ZM263.43 28.347H283.79V39.7949H281.25C279.858 39.7949 278.587 41.7595 278.587 43.9667V75.3158C278.587 86.4121 277.895 89.8861 275.113 93.4798C270.485 99.3757 261.343 103.076 251.517 103.076C242.373 103.076 233.813 100.071 229.07 95.3287C226.871 93.0137 225.594 90.1205 224.673 85.4929H241.449C243.299 89.7741 246.531 92.0866 250.817 92.0866C257.297 92.0866 261.573 86.9954 261.573 79.3601V74.7377C256.602 78.7871 252.67 80.1725 246.89 80.1725C232.541 80.1725 222.359 68.9486 222.359 53.2194C222.359 37.597 232.191 26.6074 246.191 26.6074C252.553 26.6074 257.062 28.4522 263.43 33.5423V28.347Z" fill="black"></path><path d="M290.305 72.8819C292.278 72.8819 292.735 72.1907 292.735 69.648V43.9667C292.735 41.1855 291.921 39.7948 289.613 39.7948H286.725V28.347H309.85V32.8574C315.985 27.9887 319.235 26.7142 324.554 26.7142C330.798 26.7142 334.611 28.6891 339.821 34.4746C346.763 27.9887 350.35 26.2585 356.946 26.2585C368.515 26.2585 376.494 34.0058 376.494 45.235V69.648C376.494 70.9199 377.542 72.8819 380.083 72.8819L383.211 72.9079V85.0371H353.134V72.8819H356.607C358.339 72.8819 359.141 71.485 359.141 68.485V50.7767C359.141 44.1907 356.367 40.024 351.974 40.024C347.113 40.024 342.954 45.0006 342.954 50.7767V69.648C342.954 72.7672 343.069 72.8819 345.495 72.8819H349.313V85.0371H319.578V72.8819H323.511C325.589 72.8819 326.053 72.0787 326.053 68.485V50.7767C326.053 44.4251 322.706 39.6699 318.074 39.6699C313.33 39.6699 309.85 44.662 309.85 51.472V68.9486C309.85 71.8366 310.553 72.8819 312.402 72.8819H315.985V85.0371H286.725V72.8819H290.305Z" fill="black"></path><path d="M378.883 72.9079H387.564C389.76 72.9079 390.683 72.4459 390.683 69.671V43.9902C390.683 42.1448 389.76 39.8183 387.564 39.8183H384.671V28.347H407.116V69.671C407.116 73.1439 407.456 72.9079 410.472 72.9079H413.589V85.0371H378.883V72.9079Z" fill="black"></path><path d="M413.873 28.347H421.282V11.3585H438.169V28.347H448.698V39.8183H438.518V67.361C438.518 71.4016 439.792 72.9079 442.457 72.9079H449.509V85.0371H437.589C425.442 85.0371 421.282 81.235 421.282 69.783V39.8183H413.873V28.347Z" fill="black"></path><path d="M59.9151 47.1731H38.2693C35.4807 44.3763 33.7021 40.5143 33.5068 36.2097C35.9521 35.9805 43.012 35.3867 49.3083 35.3841C55.9912 35.3867 62.8917 35.9206 64.6917 36.069C64.5303 40.4283 62.738 44.3477 59.9151 47.1731ZM58.7855 54.4518L56.4749 94.2695L49.0849 90.5195L41.7177 94.2591L39.4079 54.4518H39.4099L38.2328 49.8113L59.9593 49.8165L58.7823 54.4518H58.7855ZM49.0953 19.1185C57.0375 19.1185 63.5869 25.3086 64.5765 33.3165C62.3161 33.1341 55.7145 32.655 49.3083 32.6523C43.1631 32.655 36.3369 33.2096 33.5921 33.457C34.5271 25.3788 41.1052 19.1185 49.0953 19.1185ZM49.1005 0.00125035L0 28.3487V85.043L49.1005 113.387L98.1953 85.0403V28.3451L49.1005 0.00125035Z" fill="#35A8DF"></path></g><defs><clipPath id="clip0_502_112"><rect width="449.507" height="113.387" fill="white"></rect></clipPath></defs></svg> 