<?xml version="1.0" encoding="UTF-8"?> <svg xmlns="http://www.w3.org/2000/svg" width="150" height="28" viewBox="0 0 150 28" fill="none"><g clip-path="url(#clip0_528_15479)"><path fill-rule="evenodd" clip-rule="evenodd" d="M104.67 13.5989C104.67 8.81868 108.544 4.94506 113.324 4.94506C118.104 4.94506 121.978 8.81868 121.978 13.5989C121.978 18.3791 118.104 22.2527 113.324 22.2527C108.544 22.2527 104.67 18.3791 104.67 13.5989ZM99.7253 13.5989C99.7253 21.1096 105.813 27.1978 113.324 27.1978C120.835 27.1978 126.923 21.1096 126.923 13.5989C126.923 6.08819 120.835 0 113.324 0C105.813 0 99.7253 6.08819 99.7253 13.5989ZM16.3558 22.9566C17.1558 22.7583 17.9331 22.4774 18.675 22.1184V17.2788H15.4088C15.0956 17.2788 14.85 17.1898 14.6695 17.0118C14.5817 16.9276 14.5123 16.8262 14.4656 16.7138C14.4189 16.6015 14.396 16.4807 14.3984 16.3591V13.5626H23.0769V24.3264C22.4262 24.8108 21.7352 25.2387 21.0115 25.6055C20.2953 25.9681 19.5321 26.2657 18.7203 26.4973C17.9077 26.7321 17.039 26.9052 16.1126 27.0231C15.1189 27.1433 14.1186 27.2016 13.1176 27.1978C11.217 27.1978 9.46648 26.8599 7.86758 26.1849C6.26703 25.5099 4.88407 24.5728 3.71786 23.3695C2.55 22.1679 1.63929 20.7321 0.984066 19.0632C0.327198 17.3959 0 15.5736 0 13.5989C0 11.6003 0.31978 9.76566 0.957692 8.0967C1.59396 6.42857 2.49973 4.99286 3.67253 3.79121C4.84615 2.58791 6.26703 1.65659 7.93846 0.993956C9.61154 0.331319 11.4874 0 13.5692 0C15.6981 0 17.5401 0.321429 19.0995 0.965934C20.6563 1.61126 21.9766 2.4478 23.0596 3.47802L21.6519 5.72308C21.3742 6.17637 21.0091 6.40385 20.5516 6.40385C20.2632 6.40385 19.9681 6.30659 19.6665 6.10962C19.2749 5.8726 18.881 5.63963 18.4846 5.41071C18.0592 5.16761 17.6122 4.96427 17.1495 4.8033C16.6632 4.63187 16.1151 4.49011 15.5077 4.38049C14.9003 4.27006 14.2006 4.21484 13.406 4.21484C12.1187 4.21484 10.9558 4.43571 9.91484 4.87747C8.89694 5.30243 7.98727 5.95018 7.25275 6.77308C6.52006 7.59396 5.95549 8.58132 5.55742 9.73434C5.16181 10.8882 4.96154 12.1755 4.96154 13.5989C4.96154 15.1327 5.17335 16.4975 5.59286 17.6934C6.01484 18.8901 6.6033 19.8989 7.36154 20.7206C8.11518 21.5393 9.03904 22.183 10.0681 22.6063C11.1148 23.0431 12.258 23.2591 13.4967 23.2591C14.5912 23.2591 15.5448 23.1585 16.3558 22.9566ZM84.2266 16.5709V27.1978H79.1209V0H87.4912C89.3637 0 90.9692 0.190385 92.3028 0.571978C93.6379 0.95522 94.7324 1.49176 95.5863 2.18159C96.4409 2.8706 97.0665 3.6956 97.4654 4.65412C97.8635 5.61346 98.0629 6.67006 98.0629 7.82473C98.0629 8.73956 97.9269 9.60412 97.6549 10.4192C97.3909 11.2201 96.9933 11.9705 96.4788 12.6387C95.946 13.3215 95.3048 13.9123 94.5808 14.3876C93.8283 14.8904 92.9703 15.2909 92.0093 15.5926C92.6538 15.9552 93.211 16.4761 93.6783 17.1536L100.549 27.1978H95.9563C95.5137 27.1978 95.1379 27.1096 94.828 26.9341C94.5082 26.7506 94.2376 26.4924 94.0393 26.1816L88.2701 17.4725C88.0541 17.147 87.8168 16.9146 87.5571 16.7777C87.2992 16.6401 86.9151 16.5709 86.4107 16.5709H84.2266ZM84.2266 12.9404H87.4162C88.3772 12.9404 89.2162 12.8209 89.9308 12.5827C90.6453 12.3437 91.2338 12.0157 91.6953 11.5937C92.1514 11.1829 92.5055 10.6716 92.7297 10.1003C92.958 9.52335 93.0717 8.89038 93.0717 8.20055C93.0717 6.82088 92.6126 5.76181 91.6953 5.0217C90.7772 4.28077 89.3777 3.91154 87.492 3.91154H84.2266V12.9404ZM31.3187 13.5989C31.3187 8.81868 35.1923 4.94506 39.9725 4.94506C44.7527 4.94506 48.6264 8.81868 48.6264 13.5989C48.6264 18.3791 44.7527 22.2527 39.9725 22.2527C35.1923 22.2527 31.3187 18.3791 31.3187 13.5989ZM26.3736 13.5989C26.3736 21.1096 32.4618 27.1978 39.9725 27.1978C47.4832 27.1978 53.5714 21.1096 53.5714 13.5989C53.5714 6.08819 47.4832 0 39.9725 0C32.4618 0 26.3736 6.08819 26.3736 13.5989Z" fill="#00BFC2"></path><path fill-rule="evenodd" clip-rule="evenodd" d="M56.3312 25.8577C57.3278 24.5267 58.071 23.0236 58.5235 21.4236C59.6804 21.9714 60.9448 22.2546 62.2249 22.2527C67.0051 22.2527 70.8787 18.3791 70.8787 13.5989C70.8787 8.81868 67.0051 4.94506 62.2249 4.94506C57.4455 4.94506 53.571 8.81868 53.571 13.5989H48.626C48.626 6.08819 54.7142 0 62.2249 0C69.7356 0 75.8238 6.08819 75.8238 13.5989C75.8238 21.1096 69.7356 27.1978 62.2249 27.1978C60.1133 27.1978 58.1139 26.7165 56.3312 25.8577ZM129.683 25.8577C130.679 24.5267 131.423 23.0236 131.875 21.4236C133.032 21.9714 134.296 22.2546 135.577 22.2527C140.357 22.2527 144.23 18.3791 144.23 13.5989C144.23 8.81868 140.357 4.94506 135.577 4.94506C130.797 4.94506 126.923 8.81868 126.923 13.5989H121.978C121.978 6.08819 128.066 0 135.577 0C143.087 0 149.175 6.08819 149.175 13.5989C149.175 21.1096 143.087 27.1978 135.577 27.1978C133.465 27.1978 131.466 26.7165 129.683 25.8577Z" fill="#00BFC2"></path></g><defs><clipPath id="clip0_528_15479"><rect width="150" height="27.1978" fill="white"></rect></clipPath></defs></svg> 