<?xml version="1.0" encoding="UTF-8"?> <svg xmlns="http://www.w3.org/2000/svg" width="850pt" height="500pt" viewBox="0 0 850 500" version="1.1"><g id="#4c8c2bff"><path fill="#4c8c2b" opacity="1.00" d=" M 430.10 0.00 L 444.09 0.00 C 470.21 0.95 496.26 5.80 520.69 15.21 C 552.91 27.48 583.32 45.43 607.90 69.78 C 615.60 62.15 623.16 54.38 630.91 46.81 C 634.75 42.88 642.36 45.52 642.86 51.02 C 645.95 81.69 648.83 112.39 651.73 143.08 C 652.39 147.62 647.88 151.87 643.39 150.90 C 615.92 145.65 588.50 140.13 561.04 134.83 C 558.87 134.42 556.51 133.82 555.12 131.95 C 552.67 129.06 553.06 124.44 555.88 121.94 C 562.38 115.37 568.96 108.87 575.47 102.29 C 550.26 78.56 520.15 59.80 487.25 48.83 C 448.67 36.19 406.79 35.54 367.20 43.63 C 303.04 56.98 245.17 95.81 206.50 148.46 C 205.49 149.79 204.58 151.23 203.29 152.32 C 201.07 153.61 198.21 150.81 199.64 148.61 C 225.31 97.66 267.65 55.54 318.16 29.18 C 352.64 11.16 391.25 1.35 430.10 0.00 Z"></path><path fill="#4c8c2b" opacity="1.00" d=" M 193.51 183.76 C 208.61 181.50 225.13 181.34 238.76 189.16 C 249.37 195.08 256.51 206.13 258.67 217.97 C 261.53 232.04 258.13 246.28 255.70 260.14 C 252.55 276.19 246.14 292.60 233.21 303.28 C 220.43 313.95 203.21 317.16 186.97 317.10 C 173.93 317.20 160.09 313.86 150.49 304.56 C 141.46 295.96 137.59 283.21 137.52 271.00 C 137.17 261.16 139.55 251.56 141.12 241.92 C 143.83 227.00 149.09 211.90 159.69 200.71 C 168.51 191.26 180.89 185.79 193.51 183.76 M 197.38 219.63 C 188.30 222.54 184.14 232.27 182.42 240.89 C 180.87 249.87 178.77 258.84 178.59 267.98 C 178.41 272.97 180.90 278.46 185.96 280.03 C 193.19 282.30 202.28 281.51 207.58 275.57 C 212.58 269.93 214.25 262.29 215.57 255.08 C 216.83 247.06 218.77 239.06 218.70 230.90 C 218.69 226.62 216.81 221.92 212.65 220.14 C 207.87 218.07 202.31 218.20 197.38 219.63 Z"></path><path fill="#4c8c2b" opacity="1.00" d=" M 70.34 184.27 C 84.86 183.87 99.43 184.20 113.90 185.60 C 120.13 186.40 126.57 187.08 132.35 189.70 C 134.82 190.87 134.08 193.93 133.74 196.07 C 126.34 236.68 119.02 277.30 111.64 317.91 C 109.73 328.31 106.16 338.90 98.70 346.69 C 91.76 354.00 81.98 357.80 72.25 359.64 C 59.30 362.05 46.05 361.97 32.94 361.48 C 23.36 360.95 13.64 360.25 4.41 357.44 C 2.39 356.97 0.83 355.54 0.00 353.67 L 0.00 351.65 C 1.06 344.18 1.53 336.60 3.02 329.21 C 3.55 326.57 6.63 326.71 8.68 327.06 C 21.69 328.92 34.78 330.78 47.96 330.40 C 53.86 330.24 60.43 330.19 65.23 326.26 C 69.06 323.04 69.70 317.78 70.54 313.17 C 59.28 315.12 47.52 315.49 36.43 312.39 C 24.64 309.27 14.05 301.18 8.93 289.98 C 3.06 277.81 3.64 263.74 6.40 250.83 C 9.13 233.63 12.90 215.36 25.10 202.15 C 36.46 189.53 53.92 184.93 70.34 184.27 M 52.88 224.82 C 48.52 231.57 47.72 239.80 46.24 247.51 C 44.99 255.45 42.57 263.63 44.59 271.65 C 45.68 276.32 50.40 279.07 54.98 279.11 C 62.26 279.32 69.54 278.64 76.79 278.07 C 80.23 258.46 83.67 238.86 87.09 219.25 C 80.06 218.61 73.01 218.01 65.95 218.19 C 60.88 218.24 55.68 220.45 52.88 224.82 Z"></path><path fill="#4c8c2b" opacity="1.00" d=" M 278.30 184.55 C 290.55 184.30 302.81 184.48 315.06 184.46 C 317.67 184.20 319.38 186.83 319.24 189.20 C 320.10 216.72 320.90 244.24 321.74 271.77 C 321.84 273.21 321.90 275.27 323.88 275.16 C 325.61 274.54 326.60 272.89 327.22 271.25 C 337.62 243.95 348.00 216.64 358.40 189.34 C 359.28 186.53 361.92 184.17 364.99 184.44 C 376.68 184.42 388.37 184.46 400.06 184.42 C 401.55 184.46 403.34 184.28 404.41 185.57 C 405.73 186.93 404.98 188.86 404.30 190.32 C 389.12 223.76 373.96 257.21 358.79 290.66 C 354.88 299.39 349.24 307.94 340.62 312.59 C 331.60 317.49 320.95 317.36 310.99 316.86 C 303.35 316.40 295.10 314.07 290.31 307.67 C 286.63 302.88 285.19 296.80 284.63 290.89 C 281.31 257.23 277.94 223.57 274.65 189.91 C 274.15 187.50 275.86 184.92 278.30 184.55 Z"></path></g><g id="#ffa300ff"><path fill="#ffa300" opacity="1.00" d=" M 426.46 142.47 C 428.40 141.22 430.82 141.65 433.01 141.54 C 443.70 141.67 454.40 141.38 465.08 141.68 C 467.65 141.92 468.23 144.89 467.59 146.95 C 458.00 201.29 448.43 255.64 438.82 309.99 C 438.60 312.45 436.94 315.18 434.14 315.01 C 423.09 315.15 412.03 315.00 400.97 315.08 C 399.32 315.00 397.30 315.24 396.11 313.83 C 394.90 312.51 395.45 310.64 395.65 309.08 C 405.20 255.05 414.73 201.01 424.25 146.97 C 424.54 145.32 424.94 143.45 426.46 142.47 Z"></path><path fill="#ffa300" opacity="1.00" d=" M 517.48 183.83 C 532.39 181.54 548.66 181.28 562.28 188.70 C 573.01 194.36 580.43 205.22 582.81 217.01 C 586.01 231.33 582.55 245.91 580.06 260.05 C 576.88 276.39 570.27 293.13 556.92 303.80 C 543.00 314.98 524.34 317.67 507.00 316.99 C 492.97 316.45 478.25 310.92 470.06 298.99 C 460.61 285.44 460.55 267.77 463.67 252.16 C 466.21 235.46 469.98 218.11 480.69 204.57 C 489.53 193.02 503.29 186.10 517.48 183.83 M 523.28 219.20 C 518.94 220.17 515.09 222.90 512.53 226.52 C 507.43 233.66 506.41 242.62 504.94 251.03 C 503.89 257.61 502.36 264.29 503.19 270.99 C 503.68 275.43 506.97 279.35 511.36 280.38 C 518.29 282.10 526.69 281.31 531.76 275.75 C 536.62 270.40 538.40 263.10 539.71 256.18 C 541.00 248.16 542.86 240.17 543.05 232.02 C 543.16 227.87 541.97 223.15 538.22 220.83 C 533.78 218.17 528.22 218.22 523.28 219.20 Z"></path><path fill="#ffa300" opacity="1.00" d=" M 649.51 183.72 C 664.15 181.56 680.06 181.38 693.45 188.56 C 703.77 193.95 711.16 204.10 713.84 215.35 C 717.17 228.12 714.89 241.39 712.56 254.11 C 709.79 271.48 704.09 289.59 690.71 301.77 C 677.40 313.99 658.53 317.41 641.02 317.09 C 626.76 316.99 611.52 312.19 602.58 300.48 C 592.26 287.12 591.81 268.92 594.94 253.00 C 597.51 236.18 601.13 218.66 611.83 204.92 C 620.79 193.00 634.95 185.93 649.51 183.72 M 653.41 219.55 C 644.17 222.34 639.91 232.16 638.18 240.88 C 636.64 249.86 634.51 258.83 634.35 267.98 C 634.16 273.01 636.70 278.52 641.80 280.07 C 648.86 282.22 657.63 281.55 662.98 275.95 C 667.98 270.62 669.78 263.22 671.12 256.23 C 672.41 248.19 674.28 240.19 674.47 232.02 C 674.59 227.79 673.32 222.95 669.42 220.69 C 664.59 218.01 658.61 218.15 653.41 219.55 Z"></path><path fill="#ffa300" opacity="1.00" d=" M 753.15 185.53 C 770.02 183.70 787.06 184.08 803.98 185.02 C 816.54 185.72 829.74 188.99 839.05 197.96 C 846.23 204.74 849.51 214.66 850.00 224.34 L 850.00 229.82 C 849.57 237.91 847.71 245.82 846.38 253.78 C 845.06 261.55 843.48 269.32 840.75 276.73 C 836.11 289.91 827.41 302.13 814.89 308.80 C 798.56 317.62 779.20 318.15 761.17 316.02 C 758.98 328.68 756.73 341.34 754.55 354.00 C 754.17 355.58 753.99 357.48 752.56 358.52 C 750.92 359.59 748.85 359.31 747.00 359.43 C 736.29 359.32 725.58 359.53 714.87 359.33 C 712.00 359.61 710.53 356.60 711.40 354.18 C 720.71 301.11 730.09 248.05 739.38 194.98 C 739.82 192.63 740.35 189.96 742.45 188.49 C 745.55 186.29 749.50 186.07 753.15 185.53 M 778.23 219.02 C 774.66 239.59 771.05 260.15 767.47 280.71 C 773.60 281.22 779.76 281.73 785.92 281.53 C 791.18 281.28 796.14 278.46 799.22 274.22 C 805.09 266.33 805.50 256.15 807.41 246.87 C 808.42 240.05 810.64 233.03 808.94 226.15 C 807.69 221.33 802.73 218.69 798.06 218.33 C 791.45 217.90 784.79 218.14 778.23 219.02 Z"></path><path fill="#ffa300" opacity="1.00" d=" M 650.70 349.56 C 651.59 348.46 652.36 346.87 654.00 346.86 C 655.91 346.77 657.49 349.01 656.55 350.73 C 628.76 405.90 581.48 450.81 525.35 476.45 C 470.07 501.42 405.50 507.12 347.45 488.51 C 310.68 476.41 275.83 457.04 248.20 429.71 C 241.47 436.45 234.73 443.18 228.01 449.94 C 226.03 451.91 224.03 454.43 220.99 454.55 C 217.19 454.96 213.39 451.92 213.15 448.07 C 210.19 418.02 207.39 387.95 204.45 357.89 C 202.90 352.41 208.42 346.87 213.89 348.78 C 241.61 354.26 269.36 359.59 297.07 365.13 C 302.19 366.06 304.46 373.15 300.83 376.89 C 294.18 383.74 287.33 390.41 280.62 397.21 C 305.56 420.68 335.28 439.28 367.76 450.31 C 406.71 463.32 449.11 464.04 489.14 455.81 C 553.82 442.30 612.05 402.88 650.70 349.56 Z"></path></g></svg> 