<?xml version="1.0" encoding="UTF-8"?> <svg xmlns="http://www.w3.org/2000/svg" width="985" height="405" viewBox="0 0 985 405" fill="none"><path d="M0.667969 0H78.3346C78.3346 56 78.3346 112 78.3346 168C319.015 168.027 559.695 167.96 800.361 168.027C812.055 168.12 824.228 164.707 832.921 156.627C842.668 147.787 846.241 133.973 845.588 121.2C844.695 104.787 835.588 88.6533 820.895 80.8133C810.988 75.4267 799.481 73.8267 788.335 74.3067C613.228 74.3733 438.121 74.3067 263.001 74.3333C263.001 49.56 263.001 24.7733 263.001 0H805.935C829.641 1.66667 853.015 9.84 871.855 24.4667C892.081 39.8267 906.641 62.0133 913.948 86.2267C919.628 105.6 922.041 126.4 917.388 146.253C908.961 187.653 877.708 223.427 837.828 237.347C833.015 239.053 828.095 240.4 823.148 241.667C857.815 277.053 893.135 311.773 928.055 346.893C946.801 365.827 965.961 384.36 984.335 403.653V404C951.188 403.987 918.041 404.013 884.895 404C831.148 351.373 777.655 298.493 724.121 245.653C508.855 245.693 293.601 245.653 78.3346 245.667C78.3346 298.44 78.3346 351.213 78.3346 403.987C52.4546 404.013 26.5613 404 0.667969 404C0.667969 269.333 0.667969 134.667 0.667969 0Z" fill="#050708"></path><path d="M263 332.999C360.333 332.986 457.68 333.026 555.013 332.972C556.92 332.919 559.013 333.039 560.347 334.639C584.453 357.786 608.613 380.879 632.747 403.999C509.493 403.986 386.253 403.999 263 403.999C263 380.332 263 356.666 263 332.999Z" fill="#050708"></path></svg> 