<?xml version="1.0" encoding="UTF-8"?> <svg xmlns="http://www.w3.org/2000/svg" width="1500pt" height="507pt" viewBox="0 0 1500 507" version="1.1"><g id="#000000ff"><path fill="#000000" opacity="1.00" d=" M 1377.28 57.32 C 1380.33 53.22 1386.01 52.82 1390.62 53.90 C 1394.33 55.02 1396.51 58.49 1398.36 61.65 C 1419.41 98.36 1440.41 135.10 1461.42 171.84 C 1463.30 174.90 1464.23 178.88 1462.25 182.14 C 1458.53 188.94 1450.91 192.16 1443.95 194.58 C 1432.90 198.32 1421.25 199.61 1409.77 201.23 C 1410.84 211.02 1406.17 219.98 1402.75 228.82 C 1399.21 237.72 1394.71 246.35 1392.91 255.83 C 1390.87 264.59 1389.00 273.38 1386.94 282.14 C 1384.29 271.32 1382.20 260.38 1379.52 249.57 C 1375.51 237.65 1369.69 226.41 1365.88 214.41 C 1364.34 210.19 1364.06 205.68 1364.28 201.24 C 1351.78 199.66 1339.13 198.19 1327.19 193.96 C 1321.05 191.73 1314.62 188.81 1310.83 183.24 C 1308.39 179.90 1308.90 175.20 1310.84 171.75 C 1329.74 139.00 1348.67 106.26 1367.55 73.50 C 1370.90 68.17 1373.55 62.40 1377.28 57.32 M 1371.02 114.17 C 1367.83 119.85 1365.61 126.02 1362.57 131.79 C 1361.55 134.10 1359.88 136.50 1360.56 139.15 C 1362.17 142.03 1365.85 142.27 1368.72 143.01 C 1381.45 145.00 1394.56 145.04 1407.21 142.49 C 1410.30 141.97 1414.03 139.79 1412.47 136.09 C 1408.95 128.08 1405.29 120.09 1401.20 112.35 C 1393.25 113.23 1385.15 114.61 1377.20 112.93 C 1375.10 112.60 1372.11 111.63 1371.02 114.17 Z"></path><path fill="#000000" opacity="1.00" d=" M 776.04 210.17 C 781.23 207.69 787.24 205.88 792.96 207.50 C 798.67 208.63 804.20 211.44 807.83 216.09 C 811.80 221.10 813.53 227.64 813.66 233.96 C 813.65 290.98 813.66 347.99 813.65 405.00 C 813.51 412.02 814.36 419.26 811.96 426.01 C 810.05 432.35 805.36 437.83 799.20 440.35 C 788.71 444.85 775.90 443.12 766.87 436.19 C 762.73 433.25 759.98 428.92 756.91 424.99 C 727.43 386.48 697.96 347.98 668.48 309.47 C 666.49 306.69 664.37 304.00 661.90 301.63 C 661.68 317.10 661.91 332.58 661.79 348.05 C 661.67 367.64 658.28 387.58 649.41 405.19 C 641.70 420.73 628.61 433.29 613.31 441.29 C 597.53 449.55 579.62 452.69 561.98 453.49 C 544.62 453.81 526.96 451.61 510.74 445.17 C 492.46 437.82 476.67 424.09 467.53 406.56 C 458.38 389.55 455.18 370.04 454.51 350.94 C 454.47 313.62 454.51 276.31 454.49 239.00 C 454.74 230.85 457.49 222.32 463.68 216.71 C 468.91 212.07 475.95 209.64 482.89 209.46 C 491.12 210.06 499.70 213.43 504.63 220.33 C 509.20 226.52 510.58 234.46 510.43 241.99 C 510.38 276.31 510.42 310.62 510.41 344.94 C 510.67 358.71 512.91 373.30 521.39 384.59 C 528.06 393.75 539.20 398.67 550.24 399.86 C 561.23 401.11 572.87 400.10 582.88 395.09 C 591.39 390.80 597.79 383.01 601.20 374.20 C 605.06 364.61 605.84 354.17 606.25 343.95 C 606.27 307.97 606.19 271.99 606.28 236.02 C 606.11 226.85 609.93 216.94 618.16 212.20 C 624.96 207.90 633.32 207.81 641.07 208.46 C 649.67 209.45 657.79 214.09 662.99 221.02 C 693.30 260.67 723.61 300.31 753.91 339.97 C 756.90 343.79 759.57 347.89 763.03 351.33 C 763.26 311.57 763.09 271.81 763.16 232.04 C 763.33 223.23 767.97 214.20 776.04 210.17 Z"></path><path fill="#000000" opacity="1.00" d=" M 310.27 220.26 C 316.64 212.33 326.89 208.00 336.98 208.22 C 344.70 207.84 352.69 209.42 359.10 213.90 C 364.79 217.57 368.73 223.36 371.47 229.45 C 398.69 291.03 425.89 352.61 453.14 414.17 C 459.10 426.87 452.80 444.23 439.63 449.53 C 429.91 453.66 417.75 452.35 409.78 445.19 C 404.00 440.28 401.44 432.94 398.61 426.15 C 394.49 416.65 390.76 406.97 386.41 397.56 C 353.65 397.68 320.89 397.55 288.13 397.63 C 283.23 409.63 278.08 421.52 273.14 433.49 C 270.45 440.09 265.69 446.07 259.19 449.22 C 254.83 451.46 249.85 452.00 245.01 452.23 C 187.01 452.26 129.01 452.20 71.01 452.26 C 63.23 452.40 55.04 451.13 48.60 446.46 C 41.27 441.16 37.75 431.89 37.64 423.07 C 37.67 365.38 37.64 307.69 37.65 250.00 C 37.75 241.94 36.79 233.52 40.24 225.96 C 45.34 212.75 62.08 206.13 75.04 211.35 C 85.61 214.53 92.81 225.12 92.92 236.00 C 92.97 280.99 92.92 325.99 92.94 370.99 C 92.74 380.79 93.71 390.56 93.40 400.36 C 138.71 400.34 184.02 400.32 229.33 400.37 C 253.56 345.51 277.68 290.59 301.85 235.70 C 304.23 230.34 306.47 224.80 310.27 220.26 M 337.32 280.52 C 327.99 302.76 318.52 324.95 309.27 347.23 C 327.90 347.25 346.53 347.25 365.16 347.23 C 364.64 345.39 364.10 343.55 363.35 341.80 C 356.52 325.52 349.72 309.22 342.93 292.92 C 341.11 288.77 339.73 284.40 337.32 280.52 Z"></path><path fill="#000000" opacity="1.00" d=" M 966.40 208.54 C 991.88 210.23 1018.30 216.89 1037.97 234.00 C 1050.24 244.72 1049.39 266.46 1036.43 276.27 C 1029.19 281.53 1019.46 283.55 1010.81 280.99 C 1004.06 279.76 999.31 274.47 993.49 271.32 C 978.19 262.69 959.71 259.22 942.46 263.03 C 930.39 265.49 919.08 271.71 910.74 280.81 C 889.85 302.89 886.35 338.27 899.75 365.09 C 906.95 379.01 918.86 390.88 933.82 396.14 C 957.81 404.88 986.32 399.33 1005.44 382.44 C 1017.69 372.03 1039.28 376.58 1045.71 391.47 C 1050.15 400.47 1049.05 411.86 1042.67 419.65 C 1033.71 429.46 1022.56 437.19 1010.38 442.46 C 994.21 449.61 976.51 452.36 958.98 453.45 C 927.59 453.80 895.27 443.82 872.00 422.18 C 857.50 409.11 846.29 392.44 839.81 374.02 C 827.62 339.31 830.37 299.11 849.26 267.29 C 858.77 251.41 871.89 237.64 887.49 227.65 C 910.77 212.85 939.03 206.82 966.40 208.54 Z"></path><path fill="#000000" opacity="1.00" d=" M 1068.17 223.12 C 1072.76 214.51 1082.54 209.94 1091.98 209.42 C 1098.84 209.97 1105.96 212.07 1111.06 216.92 C 1117.13 222.47 1119.88 230.94 1119.77 239.02 C 1119.68 260.26 1119.87 281.50 1119.67 302.74 C 1128.74 303.83 1137.91 302.97 1147.02 303.24 C 1167.73 303.21 1188.45 303.31 1209.17 303.19 C 1209.16 282.11 1209.16 261.03 1209.17 239.96 C 1209.08 232.25 1211.42 224.34 1216.53 218.46 C 1221.66 212.72 1229.44 209.97 1236.97 209.44 C 1243.42 209.81 1250.00 211.79 1255.06 215.94 C 1261.55 221.23 1264.84 229.76 1264.77 238.01 C 1264.73 297.34 1264.77 356.66 1264.76 415.99 C 1264.71 420.00 1264.96 424.03 1264.49 428.03 C 1263.14 436.47 1258.52 444.99 1250.44 448.65 C 1238.42 454.99 1221.47 451.72 1214.09 439.89 C 1210.95 434.86 1209.22 428.95 1209.19 423.02 C 1209.00 400.81 1209.42 378.59 1209.00 356.39 C 1179.25 356.18 1149.49 356.18 1119.74 356.39 C 1119.79 378.27 1119.73 400.15 1119.77 422.03 C 1119.92 429.90 1117.48 438.09 1112.01 443.88 C 1101.36 454.59 1081.98 454.42 1071.61 443.39 C 1064.96 436.04 1063.41 425.58 1064.10 416.02 C 1064.20 358.69 1064.15 301.35 1064.15 244.01 C 1063.81 236.86 1064.54 229.44 1068.17 223.12 Z"></path></g></svg> 