<?xml version="1.0" encoding="UTF-8"?> <svg xmlns="http://www.w3.org/2000/svg" width="148" height="77" viewBox="0 0 148 77" fill="none"><g clip-path="url(#clip0_618_14)"><path fill-rule="evenodd" clip-rule="evenodd" d="M83.3015 20H83.7445C83.5735 23.9833 83.5215 27.9708 83.5895 31.9572C83.8285 31.8153 84.0715 31.6751 84.3195 31.5365C86.5075 30.5765 88.7885 30.2591 91.1625 30.5843C92.3865 30.7924 93.5305 31.2131 94.5945 31.8465C96.8105 33.3735 98.3315 35.4401 99.1555 38.0465C100.261 42.1022 99.9585 46.0362 98.2475 49.8486C96.8125 52.6852 94.6135 54.6928 91.6495 55.8715C90.9815 56.1124 90.3015 56.3193 89.6125 56.4915C88.7535 56.6541 87.8895 56.787 87.0215 56.8901H83.3895C82.1695 56.7834 80.9515 56.6505 79.7365 56.4915C78.4435 56.2842 77.1585 56.0331 75.8835 55.7386C76.0675 47.0599 76.1115 38.3788 76.0165 29.6986C75.9625 28.575 75.9105 27.4457 75.8615 26.3108C75.7405 25.5396 75.4825 24.8236 75.0865 24.1629C74.7422 23.7832 74.3215 23.5175 73.8242 23.3658C73.3268 23.2636 72.8241 23.1897 72.3185 23.1443C72.3145 22.7613 72.3145 22.3848 72.3185 22.0151C75.9255 21.3732 79.5345 20.7311 83.1465 20.0886C83.2205 20.0838 83.2725 20.0543 83.3015 20ZM85.4275 33.2858C86.4775 33.178 87.4515 33.3921 88.3495 33.9279C88.7405 34.2442 89.1165 34.5766 89.4795 34.9243C90.1815 35.8354 90.7065 36.8466 91.0515 37.9579C91.5235 39.6194 91.7595 41.317 91.7595 43.0508C91.7475 45.0547 91.5045 47.0255 91.0295 48.9629C90.8475 49.426 90.6915 49.8992 90.5645 50.3801C90.3395 50.9299 90.0815 51.476 89.7895 52.0186C89.3925 52.6987 88.9085 53.324 88.3495 53.8786C88.0915 54.0534 87.8405 54.238 87.5975 54.4322C87.2645 54.628 86.9075 54.7771 86.5345 54.8751C85.7985 54.944 85.0585 54.9588 84.3195 54.9193C84.1195 54.9074 83.9275 54.8705 83.7445 54.8086C83.6395 52.4332 83.5735 50.0562 83.5445 47.6786C83.5155 43.6339 83.5155 39.5891 83.5445 35.5443C83.5525 34.9533 83.5745 34.3628 83.6115 33.7729C84.2015 33.5397 84.8065 33.3773 85.4275 33.2858Z" fill="white"></path><path fill-rule="evenodd" clip-rule="evenodd" d="M0 22.2587V22.1702C0.0368 21.6759 0.0588997 21.174 0.0664997 20.6645C0.0847997 20.6442 0.106898 20.6295 0.132898 20.6202C10.0526 20.7087 19.9728 20.7382 29.8929 20.7087C29.9157 23.4102 29.9453 26.1116 29.9815 28.813C29.9826 29.4308 30.0122 30.0434 30.07 30.6509C30.0282 30.7163 29.9692 30.7606 29.8929 30.7837C29.3655 30.9522 28.8339 31.1072 28.2986 31.2487C27.9104 30.3132 27.5266 29.3758 27.1472 28.4366C26.7046 27.6202 26.2167 26.8292 25.6858 26.0673C25.4108 25.8172 25.1589 25.543 24.9329 25.248L24.8 25.2037C24.0808 24.5103 23.2468 24.001 22.2979 23.6759C21.74 23.5172 21.1696 23.4061 20.5929 23.3437C18.3344 23.3216 16.0758 23.3142 13.8172 23.3216C13.6896 25.948 13.5936 28.5758 13.5293 31.2045C13.512 33.3155 13.4899 35.4265 13.4629 37.5373C15.0882 37.5001 16.7124 37.4262 18.3343 37.3159C18.7131 37.1851 19.0829 37.0298 19.4415 36.8509C19.5954 36.7488 19.7433 36.6379 19.8843 36.5187C19.9236 36.4822 19.9383 36.4379 19.9286 36.3859C19.9806 36.3956 20.0249 36.3808 20.0615 36.3416C20.1504 36.192 20.2625 36.0575 20.3936 35.943C20.4152 35.8866 20.4228 35.8258 20.4158 35.7659H20.5486C20.5495 35.6968 20.5642 35.6304 20.5929 35.5666C20.9072 35.1367 21.1213 34.657 21.235 34.1273C21.3142 34.0607 21.3364 33.9869 21.3015 33.9059C21.4571 33.4437 21.5756 32.9698 21.6558 32.4887C22.2001 32.4853 22.7389 32.4853 23.2722 32.4887C23.3017 36.504 23.3017 40.5192 23.2722 44.5345C22.7346 44.5783 22.195 44.5931 21.6558 44.5787C21.5704 44.0551 21.4521 43.5374 21.3015 43.0287C21.1179 42.5393 20.911 42.059 20.6815 41.5895C20.4983 41.3049 20.2987 41.0314 20.0836 40.7702C19.8327 40.5293 19.5582 40.3142 19.2643 40.128C18.8502 39.9481 18.4203 39.8073 17.98 39.7073C16.4754 39.6326 14.9694 39.5884 13.4629 39.5745C13.4888 41.0949 13.5109 42.6154 13.5293 44.1359C13.5984 45.3529 13.65 46.5709 13.6843 47.7895C13.7382 48.8492 13.8416 49.9058 13.9943 50.9559C14.1387 51.7413 14.4044 52.4794 14.7915 53.1702C14.9624 53.3749 15.1396 53.5743 15.3229 53.768C15.725 54.1012 16.19 54.3152 16.7179 54.4102C17.5396 54.5359 18.3589 54.6614 19.1758 54.7866C19.2268 55.2647 19.2343 55.7464 19.1979 56.2259C12.8135 56.2701 6.4289 56.2849 0.0442982 56.2702V54.7645C0.760598 54.6484 1.4765 54.5303 2.1922 54.4102C3.0323 54.2528 3.6892 53.8247 4.1629 53.1259C4.6146 52.2352 4.9024 51.2905 5.0265 50.2916C5.1505 48.936 5.2391 47.5775 5.2922 46.2173C5.4376 40.7564 5.4376 35.2925 5.2922 29.8316C5.2302 28.752 5.1416 27.674 5.0265 26.5987C4.9115 25.6241 4.6236 24.7089 4.1629 23.853C4.0202 23.6791 3.8725 23.5092 3.72 23.3437C3.4477 23.0871 3.1377 22.8805 2.79 22.7237C2.5316 22.6204 2.265 22.5389 1.9929 22.4802C1.3273 22.4186 0.6629 22.3448 0 22.2587Z" fill="white"></path><path fill-rule="evenodd" clip-rule="evenodd" d="M70.4148 30.0531C71.4843 29.9635 72.5179 30.1038 73.5148 30.4738C73.6711 30.5997 73.8482 30.6883 74.0462 30.7395C74.0958 30.8938 74.0887 31.0488 74.0241 31.2045C73.1506 33.3853 72.287 35.5701 71.4333 37.7588C71.3877 37.827 71.3284 37.8491 71.2562 37.8252C71.0738 37.6791 70.8814 37.5459 70.6805 37.4266C70.3258 37.3098 69.9936 37.1548 69.6841 36.9616C69.6415 37.0595 69.5902 37.0521 69.5291 36.9395C68.3612 36.5683 67.1655 36.4649 65.9419 36.6295C65.089 36.7287 64.3361 37.0461 63.6833 37.5816C63.5996 37.6558 63.5318 37.7462 63.4841 37.8474C63.4482 39.7742 63.3964 41.7006 63.3291 43.6266C63.3928 45.878 63.4593 48.1291 63.5283 50.3802C63.5873 51.1594 63.6834 51.9352 63.8162 52.7052C63.9194 52.9855 64.023 53.266 64.1262 53.5466C64.3021 53.8081 64.5104 54.0462 64.7462 54.2552C64.9898 54.3758 65.2404 54.4791 65.4991 54.5652C66.3307 54.6957 67.1722 54.7621 68.0233 54.7645V56.2702C62.768 56.2776 57.513 56.2702 52.2576 56.2481C52.2138 55.7548 52.199 55.2595 52.2133 54.7645C52.7772 54.7254 53.3388 54.6589 53.8962 54.5652C54.669 54.3089 55.1933 53.7996 55.4683 53.0374C55.6647 52.36 55.7763 51.6608 55.8005 50.9559C55.9679 47.1941 56.0122 43.4278 55.9333 39.6631C55.9016 38.3226 55.7981 36.9847 55.6233 35.6552C55.4728 34.8262 55.037 34.2136 54.3169 33.8174C54.1083 33.7652 53.9016 33.7061 53.6969 33.6402C53.2076 33.5438 52.7116 33.4845 52.2133 33.4631V32.3116C55.9001 31.6011 59.5905 30.8852 63.2848 30.1638C63.4021 30.1418 63.5199 30.1344 63.6391 30.1416C63.6094 31.9809 63.5505 33.8187 63.4619 35.6552C63.4765 35.6921 63.4916 35.729 63.5062 35.7659C64.2675 34.0989 65.3454 32.6891 66.7391 31.5366C67.3653 31.1091 68.0329 30.7456 68.7319 30.4516C69.286 30.2914 69.8476 30.1583 70.4148 30.0531Z" fill="white"></path><path fill-rule="evenodd" clip-rule="evenodd" d="M40.3888 56.8904H37.466C35.9678 56.7488 34.5211 56.4019 33.126 55.8497C30.7225 54.7378 28.9215 53.0033 27.7231 50.6461C26.6862 48.4263 26.1843 46.0791 26.2174 43.6047C26.1738 40.382 27.0816 37.4739 28.941 34.8804C30.747 32.6179 33.0868 31.1491 35.9603 30.474C38.7061 29.9057 41.4222 30.009 44.1088 30.784C45.5313 31.2643 46.8156 31.9803 47.9617 32.9318C48.0011 32.9684 48.0157 33.0126 48.006 33.0647C48.0682 33.0609 48.13 33.0764 48.1831 33.109C48.5985 33.5315 49.0042 33.9596 49.401 34.3933C50.8274 36.3574 51.6985 38.5569 52.0138 40.9918C52.2109 42.9646 52.1516 44.9279 51.8367 46.8818C51.3491 49.0516 50.412 50.9854 49.0245 52.6833C48.5002 53.2296 47.9535 53.7541 47.386 54.2554C45.7709 55.4605 43.9625 56.2651 41.961 56.669C41.4342 56.7223 40.9098 56.7962 40.3888 56.8904ZM38.4403 31.9133C39.581 31.8501 40.5553 32.2044 41.3631 32.9761C42.0642 33.7407 42.5956 34.619 42.9574 35.6111C43.2521 36.5381 43.5106 37.4762 43.7324 38.4233C43.8769 39.3934 43.9876 40.3683 44.0645 41.3461C44.2033 44.0306 44.1 46.6951 43.7545 49.3397C43.5939 50.01 43.4389 50.6817 43.2895 51.3547C43.0446 52.1543 42.6867 52.9148 42.2267 53.6133C41.2924 54.821 40.0598 55.3007 38.5288 55.0525C38.0628 54.8856 37.6347 54.6568 37.2445 54.3661L36.6688 53.7904C36.5089 53.5347 36.3314 53.2906 36.1374 53.0597C35.9152 52.6134 35.7011 52.1631 35.4953 51.709C34.9137 50.0816 34.5447 48.3988 34.3881 46.6604C34.3195 45.5689 34.2678 44.4764 34.2331 43.3833C34.2386 41.2852 34.4014 39.1905 34.7203 37.1168C34.942 36.1106 35.252 35.1363 35.6503 34.194C35.7704 33.9535 35.9112 33.7238 36.071 33.5075C36.2649 33.2989 36.4421 33.0775 36.6024 32.8433C36.8132 32.7037 37.0131 32.5482 37.2003 32.3783C37.6077 32.1808 38.021 32.0258 38.4403 31.9133Z" fill="white"></path><path fill-rule="evenodd" clip-rule="evenodd" d="M116.25 56.8904H113.548C112.408 56.7505 111.282 56.5135 110.183 56.1819C106.977 55.0004 104.63 52.8747 103.141 49.8047C102.285 47.8515 101.857 45.807 101.857 43.6711C101.868 40.8926 102.562 38.3092 103.938 35.9211C104.123 35.6925 104.278 35.4489 104.403 35.1904L104.536 35.1018C104.784 34.7502 105.05 34.4107 105.333 34.0833C105.467 33.9353 105.615 33.8017 105.776 33.6847C105.851 33.6076 105.903 33.5191 105.931 33.419C105.977 33.4258 106.023 33.418 106.064 33.3968C106.4 33.0909 106.739 32.7809 107.083 32.4668C107.702 32.0959 108.322 31.7268 108.943 31.3597C111.258 30.3578 113.679 29.9592 116.206 30.164C118.333 30.3623 120.208 31.1226 121.83 32.4447V32.5776C121.875 32.5708 121.922 32.5785 121.963 32.5997C122.096 32.7529 122.243 32.8932 122.406 33.0204C122.732 33.4395 123.057 33.8528 123.38 34.2604C124.599 36.2571 125.278 38.4345 125.417 40.7926C125.451 41.3159 125.465 41.8403 125.461 42.3647H109.784C109.679 44.373 110.004 46.3068 110.758 48.1661C111.814 50.5483 113.601 52.0983 116.117 52.8161C117.844 53.2295 119.571 53.2295 121.298 52.8161C122.375 52.4758 123.357 51.974 124.243 51.3104C124.334 51.2576 124.423 51.2576 124.509 51.3104C124.711 51.5517 124.903 51.8027 125.085 52.0633C125.092 52.1002 125.099 52.1371 125.107 52.174C125.025 52.2717 124.959 52.3824 124.908 52.5061C123.661 53.9982 122.133 55.1201 120.324 55.8719C119.014 56.4026 117.656 56.7421 116.25 56.8904ZM113.858 31.9133C114.497 31.8684 115.073 32.0234 115.586 32.3783C115.71 32.5615 115.867 32.7193 116.051 32.8433C116.274 33.1877 116.48 33.542 116.671 33.9061C116.822 34.403 116.977 34.8975 117.136 35.3897C117.251 35.978 117.354 36.5684 117.446 37.1611C117.501 38.1873 117.56 39.2133 117.623 40.239C115.011 40.3316 112.398 40.3907 109.784 40.4161C109.78 40.0758 109.795 39.7363 109.828 39.3976C110.019 37.4824 110.543 35.6667 111.401 33.9504C111.59 33.7772 111.741 33.5659 111.843 33.3304C111.919 33.2922 111.97 33.2331 111.998 33.1533C112.035 33.114 112.079 33.0993 112.131 33.109C112.126 33.0211 112.156 32.9473 112.22 32.8876C112.481 32.6938 112.732 32.4868 112.973 32.2676C113.273 32.1082 113.569 31.9901 113.858 31.9133Z" fill="white"></path><path fill-rule="evenodd" clip-rule="evenodd" d="M147.073 47.1916V49.3173C146.823 51.1066 146.085 52.664 144.858 53.9895C144.781 54.0645 144.693 54.1162 144.593 54.1445V54.2773C144.547 54.2706 144.501 54.2783 144.46 54.2995C144.296 54.4549 144.133 54.6099 143.973 54.7645C142.574 55.7088 141.031 56.3435 139.345 56.6688C138.804 56.7309 138.266 56.8047 137.728 56.8902H134.451C133.311 56.7775 132.174 56.6372 131.041 56.4695C130.208 56.306 129.381 56.114 128.561 55.8938C128.111 55.7185 127.653 55.5634 127.188 55.4288C127.166 53.4063 127.137 51.3839 127.1 49.3616C127.099 48.9026 127.07 48.4441 127.011 47.9888C127.071 47.9434 127.101 47.8844 127.1 47.8116C127.219 47.8084 127.337 47.7937 127.454 47.7673C127.742 47.6697 128.022 47.5959 128.296 47.5459C128.53 48.0643 128.752 48.5885 128.96 49.118C129.489 50.3037 130.168 51.3887 130.997 52.373C131.093 52.4657 131.196 52.5395 131.307 52.5945C131.303 52.6567 131.319 52.7186 131.351 52.7716C131.874 53.2048 132.435 53.5886 133.034 53.923C133.308 54.0376 133.589 54.1409 133.876 54.233C135.135 54.5677 136.383 54.5234 137.618 54.1002C137.853 54.0049 138.07 53.8701 138.26 53.7016C138.34 53.6464 138.429 53.6169 138.526 53.613V53.4802C138.715 53.3935 138.877 53.2754 139.013 53.1259C139.006 53.0804 139.014 53.0339 139.035 52.993C139.714 52.1418 139.987 51.1675 139.854 50.0702C139.77 49.4877 139.541 48.971 139.168 48.5202C138.954 48.3062 138.739 48.0921 138.526 47.878C137.908 47.4808 137.272 47.1114 136.621 46.7709C135.435 46.3018 134.239 45.8588 133.034 45.4423C132.574 45.233 132.117 45.0189 131.661 44.8002C130.7 44.2882 129.837 43.6534 129.071 42.8959C128.831 42.4927 128.572 42.101 128.296 41.7223C128.205 41.4558 128.094 41.1966 127.963 40.9473C127.013 37.745 127.714 34.992 130.067 32.6881C131.359 31.6221 132.82 30.884 134.451 30.4738C136.117 30.1243 137.8 30.0209 139.5 30.1638C140.819 30.2704 142.128 30.4702 143.419 30.7616C143.775 30.8843 144.137 30.9878 144.504 31.0716C144.861 31.2087 145.215 31.3416 145.567 31.4702C145.633 33.6653 145.691 35.8648 145.744 38.0688C145.73 38.1426 145.685 38.1869 145.611 38.2016C145.217 38.3217 144.818 38.4251 144.416 38.5116C143.954 36.9324 143.245 35.4857 142.29 34.1716C142.187 34.0908 142.091 34.0019 142.002 33.9059C141.981 33.865 141.973 33.8186 141.98 33.7731H141.847C141.862 33.6402 141.803 33.5812 141.67 33.5959V33.4631C141.624 33.4698 141.578 33.4621 141.537 33.4409C141.306 33.2264 141.062 33.0268 140.806 32.8431C139.592 32.1559 138.293 31.9492 136.909 32.2231C135.285 32.8125 134.465 33.9787 134.451 35.7216C134.415 36.5053 134.643 37.1991 135.138 37.8031C135.689 38.347 136.294 38.8194 136.953 39.2202C138.432 39.9448 139.939 40.6096 141.471 41.213C142.574 41.6376 143.615 42.2059 144.593 42.918C144.901 43.1851 145.203 43.4583 145.501 43.7373C146.062 44.3769 146.482 45.1002 146.763 45.9073C146.875 46.3333 146.978 46.7615 147.073 47.1916Z" fill="white"></path></g><defs><clipPath id="clip0_618_14"><rect width="147.073" height="76.8904" fill="white"></rect></clipPath></defs></svg> 