<svg xmlns="http://www.w3.org/2000/svg" width="1078.667" height="240" viewBox="0 0 1078.667 240"><defs><clipPath clipPathUnits="userSpaceOnUse" id="a"><path d="M0 180h809V0H0z"/></clipPath></defs><g clip-path="url(#a)" transform="matrix(1.33333 0 0 -1.33333 0 240)" fill="#f89e33"><path d="M74.74 57.342c3.374-9.165 8.081-17.592 13.938-25.547-1.118-.19-2.139-.39-3.167-.532-4.46-.622-8.945-.941-13.449-.765-19.145.749-35.64 7.764-49.348 21.147-9.996 9.76-16.682 21.492-20.178 35.023C.541 94.39-.093 102.238.462 110.19c.658 9.426 3.03 18.396 7.101 26.92 9.875 20.675 29.23 35.959 51.55 40.69 6.716 1.423 13.501 1.913 20.351 1.416 18.65-1.352 34.72-8.491 47.967-21.702 10.412-10.382 16.991-22.908 20.082-37.274a76.91 76.91 0 001.661-19.58c-.439-10.102-2.932-19.695-7.377-28.781a77.777 77.777 0 00-6.292-10.596c-1.617-2.296-3.204-4.614-4.355-7.187-2.185-4.885-2.792-9.978-1.822-15.232.444-2.405 1.488-4.602 2.732-6.697 2.02-3.401 4.595-6.347 7.468-9.043 5.172-4.856 11.022-8.758 17.204-12.19 4.658-2.586 9.482-4.825 14.415-6.832.29-.117.576-.245 1.01-.43L168.65-1c-.342.064-.682.109-1.014.19-5.938 1.449-11.6 3.659-17.09 6.308-11.25 5.427-21.698 12.13-31.36 20.034-7.314 5.984-13.384 13.105-18.649 20.926-3.264 4.848-6.173 9.899-8.58 15.23-.139.307-.256.626-.413 1.014.743.078 1.372.116 1.991.214 3.926.624 7.27 2.482 10.306 4.948 4.54 3.69 7.866 8.32 10.378 13.564 2.504 5.225 3.972 10.742 4.604 16.494.405 3.689.506 7.382.151 11.076-1.195 12.416-5.845 23.239-15.004 31.89-6.247 5.9-13.679 9.516-22.183 10.778-9.358 1.387-18.455.397-27.103-3.577-8.234-3.785-14.324-9.865-18.526-17.855-2.804-5.334-4.452-11.033-5.239-16.995-.57-4.314-.723-8.64-.359-12.98.92-10.96 4.712-20.713 12.334-28.782 6.972-7.381 15.53-11.884 25.536-13.581 1.785-.303 3.614-.344 5.423-.503.282-.026.566-.033.886-.051m443.626 32.881a26.944 26.944 0 011.034-7.628c2.155-7.48 6.687-12.88 14.045-15.679 4.676-1.778 9.523-2.06 14.395-1.012 8.157 1.755 14.087 6.39 17.326 14.14 2.687 6.43 2.71 13.034.598 19.64-1.535 4.802-4.264 8.83-8.294 11.888-5.659 4.294-12.08 5.75-19.04 4.655-8.006-1.258-13.796-5.632-17.357-12.906-1.94-3.966-2.698-8.208-2.707-13.098m48.44-34.38c-.175-.156-.374-.29-.523-.469-5.657-6.739-12.958-10.485-21.584-11.733-9.246-1.337-18.206-.258-26.707 3.69-10.46 4.856-17.564 12.893-21.744 23.572-1.92 4.903-2.954 10.01-3.333 15.26-.512 7.097.08 14.08 2.163 20.9 2.867 9.385 7.983 17.258 15.86 23.217 5.68 4.297 12.077 6.922 19.117 7.977 6.687 1.002 13.29.67 19.768-1.345 5.821-1.809 10.805-4.954 14.932-9.45.258-.282.446-.748 1.094-.54v52.218h25.186V44.688h-23.97c-.084.895-.029 1.81-.038 2.717-.01.925-.002 1.85-.002 2.775v5.539l-.219.123M341.916 90.574c-.05 3.804-.65 7.493-2.05 11.038-3.838 9.722-12.947 16.207-24.368 14.75-8.34-1.064-14.512-5.441-18.074-13.06-3.599-7.7-3.734-15.67-.719-23.608 1.911-5.03 5.283-8.912 10.042-11.495 4.294-2.332 8.912-3.194 13.762-2.735 7.266.687 12.991 4.05 17.088 10.092 3.07 4.526 4.256 9.625 4.32 15.018m23.63-45.88h-23.435c-.007 1.23-.016 2.459-.019 3.687-.003 1.212 0 2.424 0 3.637v3.856c-.313-.103-.546-.115-.673-.236-.274-.263-.492-.585-.737-.878-4.657-5.55-10.552-9.154-17.608-10.608-12.15-2.504-23.615-.648-34.058 6.218-7.755 5.1-12.928 12.286-16.125 20.935-1.85 5-2.82 10.182-3.151 15.497-.444 7.105.237 14.08 2.37 20.882 2.708 8.637 7.357 16.016 14.41 21.778 5.81 4.746 12.452 7.654 19.866 8.793 6.265.963 12.459.708 18.548-1.154 5.877-1.796 10.849-5.003 14.918-9.612.252-.286.424-.755 1.092-.584.057 1.11.016 2.246.024 3.377.008 1.149.002 2.297.002 3.446v3.485h24.539c.187-.67.235-91.333.038-92.518m20.138 92.545h25.999c.075-.98.027-1.956.036-2.928.008-.988.002-1.977.002-2.966v-5.898c.561-.13.713.262.929.493 2.107 2.24 4.422 4.233 6.983 5.936 5.46 3.63 11.464 5.784 17.966 6.56 6.176.74 12.296.419 18.297-1.246 10.203-2.832 16.824-9.45 20.188-19.413 1.333-3.948 2.076-8.02 2.339-12.171.145-2.29.21-4.587.212-6.881.016-17.573.009-35.147.009-52.72v-1.3h-26.054c-.013.355-.037.724-.037 1.092-.002 9.823-.001 19.647-.001 29.47 0 6.315.034 12.63-.013 18.945-.029 3.996-.366 7.968-1.693 11.779a20.988 20.988 0 01-1.434 3.226c-1.911 3.459-4.882 5.604-8.674 6.543-4.729 1.17-9.488 1.189-14.174-.227-6.525-1.971-10.728-6.39-13.032-12.713-1.325-3.64-1.806-7.422-1.807-11.272-.01-15.182-.004-30.363-.004-45.545v-1.297h-25.966c-.2.639-.288 90.768-.071 92.533m-221.374 0h25.901v-1.233c0-16.235-.013-32.469.011-48.704.005-3.705.257-7.403 1.318-10.978a23.008 23.008 0 011.678-4.15c1.472-2.802 3.777-4.74 6.789-5.696 4.842-1.537 9.733-1.662 14.556.055 5.322 1.894 9.028 5.625 11.518 10.615 1.713 3.435 2.632 7.106 2.949 10.918.15 1.808.2 3.63.202 5.445.016 14.13.009 28.26.009 42.388v1.21c.755.195 24.92.243 26.088.061V44.797c-.684-.195-24.736-.253-26.085-.049V55.98c-.55.02-.705-.347-.922-.588a36.298 36.298 0 00-9.817-7.689c-4.932-2.647-10.2-4.13-15.784-4.478-5.777-.358-11.474.138-17.015 1.868-9.492 2.967-15.679 9.316-18.864 18.67-1.312 3.854-2.048 7.83-2.306 11.885a115.014 115.014 0 00-.217 7.168c-.017 17.702-.009 35.404-.009 53.106zm619.997-46.277a28.845 28.845 0 01-1.004 7.945c-1.644 6.017-4.891 10.91-10.254 14.23-4.55 2.819-9.543 3.82-14.846 3.294-7.58-.75-13.414-4.346-17.407-10.845-2.14-3.483-3.261-7.311-3.667-11.365-.493-4.942.062-9.738 1.983-14.34 4.196-10.045 13.816-15.715 24.517-14.343 6.896.885 12.326 4.293 16.227 10.048 3.139 4.63 4.44 9.825 4.45 15.376m-23.553-47.858c-7.664.042-14.98 1.285-21.874 4.443-12.69 5.814-20.822 15.57-24.65 28.94-1.755 6.13-2.233 12.403-1.76 18.757.513 6.89 2.212 13.453 5.474 19.56 5.58 10.45 14.1 17.459 25.275 21.253 6.85 2.325 13.917 3.054 21.124 2.613 5.87-.36 11.568-1.51 16.986-3.82 13.822-5.89 22.592-16.202 26.233-30.725 2.704-10.787 2.259-21.55-1.76-31.971-5.171-13.415-14.874-22.136-28.491-26.56-5.412-1.76-10.997-2.454-16.557-2.49m-84.029 46.542c-.001 4.077-.303 6.646-.987 9.177-1.59 5.882-4.712 10.716-9.881 14.065-4.642 3.007-9.775 4.084-15.251 3.541-7.777-.77-13.816-4.455-17.617-11.278-4.544-8.154-4.893-16.75-1.398-25.354 4.019-9.89 13.41-15.293 23.6-14.339 6.676.625 12.09 3.603 16.184 8.894 3.777 4.88 5.303 10.522 5.35 15.294m-23.365 49.152c7.468-.032 14.99-1.357 22.063-4.683 12.734-5.988 20.81-15.904 24.432-29.454 1.748-6.54 2.099-13.202 1.37-19.927-.8-7.368-2.985-14.274-6.971-20.551-5.617-8.85-13.51-14.817-23.38-18.208-6.964-2.392-14.146-3.181-21.486-2.737-5.84.353-11.506 1.495-16.893 3.79-13.26 5.647-21.795 15.512-25.812 29.298-1.831 6.28-2.29 12.715-1.777 19.229.545 6.922 2.3 13.504 5.637 19.609 5.859 10.716 14.774 17.7 26.38 21.312 5.245 1.632 10.64 2.307 16.437 2.322"/></g></svg>