<?xml version="1.0" encoding="UTF-8"?> <svg xmlns="http://www.w3.org/2000/svg" xmlns:xlink="http://www.w3.org/1999/xlink" version="1.1" width="976px" height="128px" style="shape-rendering:geometricPrecision; text-rendering:geometricPrecision; image-rendering:optimizeQuality; fill-rule:evenodd; clip-rule:evenodd"><g><path style="opacity:0.99" fill="#fefefe" d="M 2.5,2.5 C 20.1792,2.16714 37.8459,2.50047 55.5,3.5C 54.1797,11.0301 54.1797,18.5301 55.5,26C 51.9765,27.0958 48.3098,27.9291 44.5,28.5C 50.332,50.4944 56.1653,72.4944 62,94.5C 67.8568,72.4054 74.0234,50.4054 80.5,28.5C 76.959,27.8 73.459,27.1334 70,26.5C 69.5003,18.5069 69.3336,10.5069 69.5,2.5C 85.8333,2.5 102.167,2.5 118.5,2.5C 118.5,10.8333 118.5,19.1667 118.5,27.5C 115.5,27.5 112.5,27.5 109.5,27.5C 99.8356,59.4939 90.1689,91.4939 80.5,123.5C 66.9208,123.823 53.4208,123.49 40,122.5C 30.008,90.8606 20.1747,59.1939 10.5,27.5C 7.83333,27.5 5.16667,27.5 2.5,27.5C 2.5,19.1667 2.5,10.8333 2.5,2.5 Z"></path></g><g><path style="opacity:0.992" fill="#fefefe" d="M 628.5,2.5 C 651.169,2.33337 673.836,2.50004 696.5,3C 719.259,6.3075 729.093,19.4742 726,42.5C 723.124,51.5432 717.291,57.8765 708.5,61.5C 722.784,66.5402 730.117,76.7069 730.5,92C 729.018,107.808 720.685,117.808 705.5,122C 679.867,123.433 654.2,123.933 628.5,123.5C 628.5,115.167 628.5,106.833 628.5,98.5C 632.167,98.5 635.833,98.5 639.5,98.5C 639.5,74.8333 639.5,51.1667 639.5,27.5C 635.833,27.5 632.167,27.5 628.5,27.5C 628.5,19.1667 628.5,10.8333 628.5,2.5 Z M 672.5,26.5 C 678.732,25.9386 684.732,26.772 690.5,29C 696.848,37.5946 695.514,44.5946 686.5,50C 681.845,50.4992 677.179,50.6658 672.5,50.5C 672.5,42.5 672.5,34.5 672.5,26.5 Z M 672.5,74.5 C 679.391,73.9013 686.058,74.7346 692.5,77C 699.482,84.1625 699.149,90.8292 691.5,97C 685.243,98.3173 678.909,98.8173 672.5,98.5C 672.5,90.5 672.5,82.5 672.5,74.5 Z"></path></g><g><path style="opacity:0.984" fill="#fefefe" d="M 337.5,6.5 C 339.472,15.4401 340.139,24.7734 339.5,34.5C 344.5,34.5 349.5,34.5 354.5,34.5C 354.5,42.8333 354.5,51.1667 354.5,59.5C 349.5,59.5 344.5,59.5 339.5,59.5C 339.059,72.2414 339.559,84.908 341,97.5C 341.903,98.7014 343.069,99.5348 344.5,100C 347.482,100.498 350.482,100.665 353.5,100.5C 353.814,108.087 353.481,115.587 352.5,123C 341.479,126.17 330.479,126.17 319.5,123C 312.979,120.794 309.146,116.294 308,109.5C 307.5,92.8367 307.333,76.17 307.5,59.5C 304.833,59.5 302.167,59.5 299.5,59.5C 299.5,51.1667 299.5,42.8333 299.5,34.5C 302.833,34.5 306.167,34.5 309.5,34.5C 309.17,27.4684 309.503,20.4684 310.5,13.5C 319.654,11.2959 328.654,8.96255 337.5,6.5 Z"></path></g><g><path style="opacity:0.987" fill="#fefefe" d="M 954.5,6.5 C 955.5,6.5 956.5,6.5 957.5,6.5C 957.5,15.8333 957.5,25.1667 957.5,34.5C 962.167,34.5 966.833,34.5 971.5,34.5C 971.5,42.8333 971.5,51.1667 971.5,59.5C 966.833,59.5 962.167,59.5 957.5,59.5C 957.333,71.8378 957.5,84.1712 958,96.5C 958.5,98.3333 959.667,99.5 961.5,100C 964.429,100.777 967.263,100.61 970,99.5C 970.5,107.493 970.666,115.493 970.5,123.5C 961.895,125.091 953.228,125.591 944.5,125C 933.905,124.055 927.405,118.555 925,108.5C 924.5,92.1701 924.333,75.8367 924.5,59.5C 921.833,59.5 919.167,59.5 916.5,59.5C 916.5,51.1667 916.5,42.8333 916.5,34.5C 920.167,34.5 923.833,34.5 927.5,34.5C 927.334,27.4921 927.5,20.4921 928,13.5C 936.944,11.2237 945.777,8.89035 954.5,6.5 Z"></path></g><g><path style="opacity:0.983" fill="#fefefe" d="M 262.5,31.5 C 272.782,31.3916 280.949,35.3916 287,43.5C 287.822,45.7885 288.489,48.1218 289,50.5C 289.5,66.4965 289.667,82.4965 289.5,98.5C 292.167,98.5 294.833,98.5 297.5,98.5C 297.816,106.752 297.482,114.919 296.5,123C 283.171,123.5 269.837,123.667 256.5,123.5C 256.976,103.075 256.476,82.7413 255,62.5C 252.083,60.6067 248.916,60.1067 245.5,61C 243.333,61.8333 241.833,63.3333 241,65.5C 239.569,76.4225 239.069,87.4225 239.5,98.5C 241.5,98.5 243.5,98.5 245.5,98.5C 245.5,106.833 245.5,115.167 245.5,123.5C 230.167,123.5 214.833,123.5 199.5,123.5C 199.5,115.167 199.5,106.833 199.5,98.5C 202.167,98.5 204.833,98.5 207.5,98.5C 207.5,85.5 207.5,72.5 207.5,59.5C 204.833,59.5 202.167,59.5 199.5,59.5C 199.5,51.1667 199.5,42.8333 199.5,34.5C 211.5,34.5 223.5,34.5 235.5,34.5C 236.108,38.4724 236.608,42.4724 237,46.5C 243.399,37.7241 251.899,32.7241 262.5,31.5 Z"></path></g><g><path style="opacity:0.985" fill="#fefefe" d="M 141.5,32.5 C 178.759,30.426 196.426,48.0927 194.5,85.5C 176.5,85.5 158.5,85.5 140.5,85.5C 140.234,89.6049 140.734,93.6049 142,97.5C 145.748,103.542 150.915,105.042 157.5,102C 160.288,99.4768 161.621,96.3101 161.5,92.5C 172.187,92.168 182.854,92.5013 193.5,93.5C 189.801,111.7 178.801,122.2 160.5,125C 119.301,127.123 101.801,107.623 108,66.5C 112.023,47.9779 123.19,36.6446 141.5,32.5 Z M 150.5,54.5 C 158.593,54.9947 162.26,59.328 161.5,67.5C 154.492,67.6663 147.492,67.4996 140.5,67C 141.168,63.6795 142.335,60.5128 144,57.5C 146.166,56.2685 148.333,55.2685 150.5,54.5 Z"></path></g><g><path style="opacity:0.985" fill="#fefefe" d="M 568.5,32.5 C 605.745,30.4115 623.412,48.0782 621.5,85.5C 603.164,85.3334 584.83,85.5001 566.5,86C 567.188,90.1606 568.021,94.3273 569,98.5C 573.248,103.596 578.415,104.763 584.5,102C 587.076,99.349 588.409,96.1823 588.5,92.5C 598.833,92.5 609.167,92.5 619.5,92.5C 617.919,109.255 608.919,119.755 592.5,124C 552.021,130.516 532.521,113.349 534,72.5C 536.122,50.8901 547.622,37.5568 568.5,32.5 Z M 577.5,54.5 C 585.475,55.1438 589.141,59.4772 588.5,67.5C 581.468,67.8303 574.468,67.497 567.5,66.5C 568.079,59.9151 571.413,55.9151 577.5,54.5 Z"></path></g><g><path style="opacity:0.991" fill="#fefefe" d="M 769.5,32.5 C 806.763,30.4296 824.43,48.0963 822.5,85.5C 804.164,85.3334 785.83,85.5001 767.5,86C 767.947,90.6735 769.114,95.1735 771,99.5C 775.2,103.714 780.034,104.548 785.5,102C 788.076,99.349 789.409,96.1823 789.5,92.5C 800.187,92.168 810.854,92.5013 821.5,93.5C 817.92,111.247 807.253,121.747 789.5,125C 754.366,129.521 736.032,114.187 734.5,79C 734.022,54.0461 745.688,38.5461 769.5,32.5 Z M 774.5,55.5 C 784.301,53.6429 789.301,57.6429 789.5,67.5C 782.833,67.5 776.167,67.5 769.5,67.5C 769.019,62.4772 770.686,58.4772 774.5,55.5 Z"></path></g><g><path style="opacity:0.993" fill="#fefefe" d="M 855.5,32.5 C 869.696,30.6385 883.03,33.1385 895.5,40C 901.558,44.7224 905.058,50.8891 906,58.5C 906.5,71.8292 906.667,85.1625 906.5,98.5C 908.833,98.5 911.167,98.5 913.5,98.5C 913.5,106.833 913.5,115.167 913.5,123.5C 900.833,123.5 888.167,123.5 875.5,123.5C 875.665,120.482 875.498,117.482 875,114.5C 865.28,125.179 853.447,128.346 839.5,124C 832.572,121.406 828.072,116.573 826,109.5C 821.188,89.6788 828.354,76.5122 847.5,70C 856.465,68.2594 865.298,67.4261 874,67.5C 875.683,61.2039 873.85,56.3705 868.5,53C 861.338,52.6642 858.005,56.1642 858.5,63.5C 848.167,63.5 837.833,63.5 827.5,63.5C 827.465,51.7287 832.465,42.8954 842.5,37C 846.846,35.164 851.179,33.664 855.5,32.5 Z M 864.5,84.5 C 867.833,84.5 871.167,84.5 874.5,84.5C 874.725,89.248 874.225,93.9147 873,98.5C 869.433,105.013 864.766,106.013 859,101.5C 855.787,94.0826 857.62,88.4159 864.5,84.5 Z"></path></g><g><path style="opacity:0.997" fill="#fefefe" d="M 512.5,33.5 C 517.233,33.2232 521.9,33.5565 526.5,34.5C 527.833,44.1667 527.833,53.8333 526.5,63.5C 517.48,61.0464 509.647,63.0464 503,69.5C 502.027,71.3921 501.36,73.3921 501,75.5C 500.5,83.1594 500.334,90.8261 500.5,98.5C 503.833,98.5 507.167,98.5 510.5,98.5C 510.5,106.833 510.5,115.167 510.5,123.5C 494.167,123.5 477.833,123.5 461.5,123.5C 461.5,115.167 461.5,106.833 461.5,98.5C 463.833,98.5 466.167,98.5 468.5,98.5C 468.5,85.5 468.5,72.5 468.5,59.5C 466.167,59.5 463.833,59.5 461.5,59.5C 461.5,51.1667 461.5,42.8333 461.5,34.5C 473.167,34.5 484.833,34.5 496.5,34.5C 496.577,38.8766 497.077,43.2099 498,47.5C 500.115,39.8829 504.948,35.2162 512.5,33.5 Z"></path></g><g><path style="opacity:0.994" fill="#fefefe" d="M 358.5,34.5 C 371.833,34.5 385.167,34.5 398.5,34.5C 398.036,54.5675 398.536,74.5675 400,94.5C 405.4,99.8242 410.066,99.1575 414,92.5C 414.5,81.505 414.667,70.505 414.5,59.5C 412.5,59.5 410.5,59.5 408.5,59.5C 408.5,51.1667 408.5,42.8333 408.5,34.5C 421.5,34.5 434.5,34.5 447.5,34.5C 447.5,55.8333 447.5,77.1667 447.5,98.5C 449.833,98.5 452.167,98.5 454.5,98.5C 454.5,106.833 454.5,115.167 454.5,123.5C 442.167,123.5 429.833,123.5 417.5,123.5C 417.665,120.482 417.498,117.482 417,114.5C 410.801,122.298 402.635,125.965 392.5,125.5C 376.062,125.229 367.229,116.896 366,100.5C 365.5,86.8374 365.333,73.1707 365.5,59.5C 363.167,59.5 360.833,59.5 358.5,59.5C 358.5,51.1667 358.5,42.8333 358.5,34.5 Z"></path></g></svg> 