<?xml version="1.0" encoding="UTF-8"?> <svg xmlns="http://www.w3.org/2000/svg" width="1994pt" height="254pt" viewBox="0 0 1994 254" version="1.1"><g id="#000000ff"><path fill="#000000" opacity="1.00" d=" M 1421.37 2.51 C 1431.67 -0.61 1444.33 4.13 1448.65 14.31 C 1451.84 21.63 1449.76 30.58 1444.30 36.25 C 1437.11 44.02 1424.50 45.97 1415.30 40.74 C 1408.64 37.13 1404.03 29.65 1404.64 21.99 C 1405.20 12.73 1412.61 4.91 1421.37 2.51 Z"></path><path fill="#000000" opacity="1.00" d=" M 1117.19 81.17 C 1121.40 58.34 1125.51 35.50 1129.73 12.68 C 1154.80 13.43 1179.87 14.74 1204.96 14.45 C 1223.87 14.51 1242.77 14.33 1261.68 14.41 C 1228.94 73.34 1196.15 132.25 1163.42 191.19 C 1179.27 191.19 1195.27 191.82 1210.94 188.98 C 1220.83 187.25 1230.51 182.84 1237.15 175.13 C 1247.49 163.16 1253.03 148.09 1259.34 133.81 C 1261.45 133.80 1263.56 133.80 1265.70 133.80 C 1261.04 156.62 1256.49 179.48 1251.76 202.29 C 1227.18 201.63 1202.61 200.42 1178.01 200.55 C 1155.91 200.51 1133.80 200.62 1111.70 200.61 C 1144.42 141.62 1177.19 82.66 1209.91 23.67 C 1194.27 23.89 1178.35 23.05 1163.01 26.74 C 1154.53 28.64 1147.04 34.08 1142.53 41.50 C 1134.69 53.99 1129.83 68.03 1123.40 81.25 C 1121.32 81.21 1119.24 81.19 1117.19 81.17 Z"></path><path fill="#000000" opacity="1.00" d=" M 1500.62 37.59 C 1506.72 30.35 1511.62 22.18 1515.80 13.70 C 1517.28 13.70 1518.78 13.71 1520.29 13.71 C 1520.31 28.35 1520.29 42.98 1520.30 57.62 C 1530.66 57.62 1541.02 57.61 1551.39 57.62 C 1550.54 61.69 1549.66 65.74 1548.80 69.79 C 1539.30 69.83 1529.80 69.76 1520.30 69.83 C 1520.29 97.90 1520.30 125.97 1520.30 154.04 C 1520.36 161.83 1521.30 170.25 1526.32 176.56 C 1529.52 180.69 1535.01 182.41 1540.09 181.67 C 1546.75 181.32 1552.75 177.97 1557.75 173.76 C 1558.86 175.06 1559.98 176.36 1561.12 177.67 C 1555.48 186.06 1548.18 193.61 1539.04 198.14 C 1525.94 204.50 1508.97 205.11 1496.85 196.24 C 1487.67 189.63 1483.22 178.14 1483.15 167.09 C 1483.05 134.67 1483.15 102.24 1483.10 69.81 C 1476.07 69.79 1469.04 69.83 1462.01 69.79 C 1462.47 67.77 1462.93 65.75 1463.45 63.75 C 1477.90 58.59 1490.87 49.44 1500.62 37.59 Z"></path><path fill="#000000" opacity="1.00" d=" M 2.52 15.33 C 32.94 15.31 63.37 15.37 93.79 15.30 C 93.80 17.34 93.80 19.38 93.80 21.42 C 86.17 22.75 76.83 23.06 71.88 29.96 C 67.72 36.84 68.30 45.26 68.03 52.99 C 67.96 99.39 68.01 145.79 68.01 192.19 C 82.06 192.01 96.68 193.20 110.08 188.09 C 119.20 184.65 126.01 177.04 130.58 168.64 C 138.25 154.73 142.89 139.45 148.27 124.57 C 150.13 124.92 152.00 125.28 153.86 125.63 C 152.13 151.58 150.34 177.53 148.46 203.47 C 120.31 202.51 92.16 201.37 63.98 201.38 C 43.49 201.38 22.99 201.38 2.49 201.38 C 2.50 199.34 2.50 197.30 2.51 195.26 C 9.85 194.02 18.47 193.62 23.72 187.59 C 28.29 181.46 27.89 173.29 28.22 166.02 C 28.40 129.36 28.24 92.69 28.30 56.03 C 28.14 49.33 28.41 42.51 26.85 35.94 C 25.93 31.94 23.69 28.08 20.04 26.02 C 14.70 22.97 8.44 22.42 2.49 21.37 C 2.50 19.36 2.50 17.34 2.52 15.33 Z"></path><path fill="#000000" opacity="1.00" d=" M 481.79 54.80 C 496.71 53.02 513.21 55.87 524.56 66.36 C 536.37 77.29 540.62 94.17 539.77 109.80 C 513.18 109.81 486.59 109.79 459.99 109.81 C 460.62 125.95 464.01 142.81 474.12 155.84 C 480.12 163.52 489.13 169.11 498.96 169.91 C 508.25 170.86 517.94 168.19 525.16 162.20 C 530.39 158.02 534.31 152.46 537.35 146.55 C 538.96 147.09 540.57 147.64 542.19 148.19 C 538.88 164.05 531.90 179.69 519.87 190.85 C 511.07 199.07 499.10 204.06 486.97 203.43 C 471.40 203.18 456.65 194.90 447.33 182.60 C 434.94 166.26 430.32 145.16 431.12 124.94 C 431.80 107.80 436.01 90.23 446.22 76.18 C 454.52 64.60 467.57 56.47 481.79 54.80 M 468.57 68.55 C 461.70 78.31 460.52 90.71 459.90 102.29 C 474.46 102.37 489.01 102.30 503.57 102.33 C 504.33 92.62 504.01 82.54 500.49 73.35 C 498.49 68.28 494.98 63.30 489.64 61.42 C 482.04 58.85 473.08 61.93 468.57 68.55 Z"></path><path fill="#000000" opacity="1.00" d=" M 868.86 54.81 C 882.70 53.17 897.76 55.37 909.03 64.09 C 922.80 74.69 927.94 93.04 927.00 109.80 C 900.39 109.79 873.78 109.83 847.18 109.79 C 847.89 127.64 851.99 146.85 865.02 159.94 C 875.72 170.89 893.62 173.17 906.96 165.86 C 914.87 161.67 920.66 154.40 924.66 146.52 C 926.27 147.08 927.89 147.65 929.52 148.22 C 926.14 163.88 919.32 179.29 907.52 190.42 C 898.87 198.68 887.06 203.86 874.99 203.46 C 859.83 203.42 845.22 195.85 835.77 184.13 C 823.06 168.50 817.99 147.86 818.24 128.01 C 818.50 109.44 822.77 90.16 834.20 75.14 C 842.45 64.11 855.15 56.50 868.86 54.81 M 855.25 69.30 C 848.84 79.01 847.79 91.01 847.16 102.32 C 861.75 102.32 876.34 102.35 890.94 102.30 C 891.55 92.07 891.36 81.37 887.13 71.85 C 884.87 66.76 880.73 61.96 875.02 60.89 C 867.48 59.22 859.39 62.88 855.25 69.30 Z"></path><path fill="#000000" opacity="1.00" d=" M 1311.69 58.73 C 1322.63 53.61 1335.25 52.85 1347.02 55.05 C 1355.68 56.61 1364.00 60.53 1370.33 66.71 C 1381.59 77.67 1385.57 94.09 1384.79 109.38 C 1358.21 109.38 1331.62 109.40 1305.03 109.37 C 1305.65 127.35 1309.86 146.72 1323.10 159.80 C 1333.93 170.65 1351.95 172.77 1365.18 165.18 C 1372.82 160.94 1378.48 153.85 1382.33 146.11 C 1383.93 146.67 1385.55 147.23 1387.18 147.79 C 1384.12 162.63 1377.82 177.17 1367.20 188.17 C 1359.05 196.64 1347.89 202.53 1336.03 203.00 C 1320.73 203.92 1305.39 197.23 1295.32 185.74 C 1281.87 170.63 1276.23 149.95 1276.04 130.04 C 1275.93 111.90 1279.59 93.10 1289.79 77.81 C 1295.24 69.69 1302.75 62.83 1311.69 58.73 M 1312.13 70.19 C 1306.56 79.70 1305.40 91.00 1305.01 101.81 C 1319.58 101.76 1334.15 101.83 1348.72 101.78 C 1349.41 90.58 1349.17 78.56 1343.48 68.56 C 1340.41 63.10 1334.29 59.28 1327.92 60.07 C 1321.31 60.37 1315.35 64.52 1312.13 70.19 Z"></path><path fill="#000000" opacity="1.00" d=" M 1555.72 72.20 C 1573.04 66.07 1590.36 59.92 1607.69 53.81 C 1607.72 83.20 1607.70 112.59 1607.70 141.98 C 1607.58 151.10 1607.69 160.70 1612.01 168.98 C 1614.68 174.46 1619.77 178.98 1625.94 179.90 C 1634.69 181.48 1643.70 176.32 1647.88 168.70 C 1648.18 142.49 1647.87 116.26 1648.04 90.04 C 1647.83 86.42 1648.27 82.20 1645.73 79.26 C 1642.53 76.55 1637.98 77.16 1634.10 76.89 C 1633.65 75.32 1633.23 73.76 1632.82 72.19 C 1650.15 66.09 1667.44 59.85 1684.82 53.86 C 1684.79 83.25 1684.81 112.65 1684.80 142.05 C 1684.87 150.65 1684.67 159.28 1685.62 167.84 C 1686.17 171.48 1686.89 175.59 1689.98 178.00 C 1692.81 180.16 1696.55 180.09 1699.94 180.38 C 1700.25 181.76 1700.58 183.15 1700.94 184.53 C 1685.60 190.21 1670.19 195.68 1654.83 201.29 C 1653.57 192.60 1652.39 183.91 1651.23 175.21 C 1644.80 187.98 1633.01 198.28 1619.04 201.82 C 1607.87 204.47 1595.31 202.13 1586.45 194.64 C 1578.57 188.00 1574.04 178.13 1572.21 168.14 C 1570.77 161.18 1571.15 154.06 1571.11 147.01 C 1571.09 128.03 1571.15 109.05 1571.08 90.07 C 1570.80 86.47 1571.19 82.29 1568.72 79.35 C 1565.53 76.52 1560.90 77.16 1556.98 76.90 C 1556.55 75.34 1556.12 73.77 1555.72 72.20 Z"></path><path fill="#000000" opacity="1.00" d=" M 1704.50 71.00 C 1720.77 65.30 1737.00 59.47 1753.30 53.87 C 1754.52 62.38 1755.60 70.90 1756.90 79.39 C 1760.75 73.25 1764.03 66.48 1769.80 61.82 C 1777.19 55.37 1787.43 53.44 1796.99 53.88 C 1806.12 54.19 1815.27 57.76 1821.66 64.40 C 1829.60 72.53 1833.33 83.90 1834.18 95.05 C 1834.71 121.81 1834.12 148.59 1834.49 175.36 C 1834.74 179.97 1834.49 184.98 1836.97 189.08 C 1839.43 192.41 1843.86 192.88 1847.60 193.75 C 1847.60 195.88 1847.59 198.00 1847.62 200.13 C 1825.58 200.15 1803.55 200.12 1781.51 200.14 C 1781.48 198.00 1781.48 195.85 1781.49 193.71 C 1785.88 192.89 1790.96 192.62 1794.26 189.21 C 1797.61 184.92 1797.09 179.09 1797.41 173.96 C 1797.59 151.97 1797.44 129.98 1797.49 107.99 C 1797.44 99.06 1795.47 89.51 1789.20 82.78 C 1784.71 77.80 1777.54 75.45 1770.99 76.95 C 1765.41 78.05 1760.71 81.69 1757.18 86.00 C 1757.23 112.67 1757.19 139.34 1757.20 166.01 C 1757.22 172.01 1757.08 178.05 1757.95 184.00 C 1758.34 186.71 1759.43 189.64 1761.91 191.12 C 1764.53 192.71 1767.64 193.11 1770.60 193.74 C 1770.60 195.87 1770.59 197.99 1770.62 200.13 C 1748.62 200.13 1726.62 200.15 1704.62 200.12 C 1704.60 197.98 1704.60 195.85 1704.61 193.72 C 1709.34 192.77 1715.26 192.56 1718.18 188.07 C 1720.79 183.17 1720.31 177.40 1720.55 172.03 C 1720.67 145.69 1720.63 119.36 1720.57 93.02 C 1720.26 88.22 1720.84 82.97 1718.40 78.63 C 1715.55 75.06 1710.46 75.98 1706.45 75.67 C 1705.79 74.11 1705.13 72.56 1704.50 71.00 Z"></path><path fill="#000000" opacity="1.00" d=" M 155.48 73.21 C 172.82 67.08 190.15 60.92 207.49 54.80 C 207.53 86.21 207.49 117.61 207.51 149.02 C 207.53 156.70 208.63 164.67 212.54 171.41 C 215.36 176.33 220.22 180.23 225.92 181.04 C 234.65 182.50 243.51 177.28 247.70 169.73 C 247.94 143.14 247.71 116.54 247.82 89.94 C 247.54 86.38 247.96 81.81 244.63 79.52 C 241.38 77.66 237.48 78.11 233.90 77.90 C 233.45 76.33 233.02 74.76 232.58 73.20 C 249.93 67.11 267.24 60.88 284.61 54.84 C 284.63 86.23 284.61 117.62 284.61 149.01 C 284.72 155.96 284.60 162.96 285.58 169.86 C 286.14 173.22 287.00 176.98 289.93 179.10 C 292.76 181.22 296.48 181.07 299.84 181.38 C 300.11 182.78 300.39 184.19 300.68 185.59 C 285.33 191.19 269.98 196.73 254.61 202.27 C 253.39 193.59 252.20 184.90 251.01 176.21 C 245.13 188.03 234.60 197.57 222.08 201.87 C 209.96 205.94 195.51 203.81 185.80 195.25 C 175.60 186.25 171.21 172.29 170.95 159.01 C 170.82 136.06 171.02 113.10 170.85 90.15 C 170.59 86.64 170.83 82.43 167.99 79.87 C 164.71 77.68 160.54 78.14 156.79 77.89 C 156.35 76.33 155.92 74.77 155.48 73.21 Z"></path><path fill="#000000" opacity="1.00" d=" M 550.88 72.03 C 566.91 66.21 582.97 60.50 598.99 54.69 C 600.73 65.55 602.36 76.42 604.10 87.28 C 608.38 76.79 613.94 66.01 623.77 59.72 C 631.43 54.73 641.01 54.04 649.84 55.54 C 654.11 73.60 658.19 91.72 662.40 109.79 C 660.46 110.66 658.52 111.53 656.59 112.40 C 649.75 104.28 642.72 96.18 634.23 89.74 C 629.54 86.36 624.00 83.11 617.99 83.87 C 612.04 84.90 607.81 90.06 605.20 95.15 C 604.93 118.41 605.16 141.69 605.09 164.96 C 605.24 171.46 604.68 178.11 606.35 184.47 C 607.20 187.65 609.78 190.11 612.83 191.23 C 618.71 193.44 625.04 193.84 631.21 194.71 C 631.20 196.83 631.20 198.95 631.20 201.08 C 604.50 201.07 577.81 201.13 551.11 201.05 C 551.10 198.92 551.11 196.79 551.12 194.66 C 555.73 193.85 561.36 193.56 564.42 189.47 C 567.24 184.86 566.76 179.20 567.03 174.02 C 567.19 147.69 567.08 121.37 567.10 95.04 C 566.86 90.16 567.30 84.74 564.44 80.49 C 561.78 76.97 557.00 76.89 553.00 76.62 C 552.28 75.09 551.58 73.56 550.88 72.03 Z"></path><path fill="#000000" opacity="1.00" d=" M 666.41 72.00 C 682.67 66.26 698.93 60.52 715.19 54.80 C 716.42 63.47 717.59 72.15 718.79 80.82 C 723.01 72.88 727.76 64.58 735.77 59.89 C 744.23 54.90 754.59 54.02 764.15 55.45 C 774.13 56.92 783.14 63.10 788.46 71.62 C 793.99 80.33 796.21 90.78 796.28 101.00 C 796.34 125.34 796.24 149.68 796.33 174.02 C 796.60 179.17 796.18 184.68 798.52 189.44 C 800.73 193.37 805.63 193.88 809.60 194.74 C 809.61 196.87 809.61 199.00 809.62 201.13 C 787.58 201.15 765.54 201.12 743.50 201.14 C 743.49 199.00 743.49 196.85 743.49 194.71 C 747.89 193.89 753.00 193.62 756.29 190.18 C 759.43 186.18 759.09 180.75 759.39 175.95 C 759.63 154.28 759.42 132.61 759.50 110.94 C 759.59 102.97 758.48 94.65 754.22 87.75 C 750.93 82.37 745.35 78.11 738.92 77.61 C 731.16 76.76 723.76 81.04 719.07 86.97 C 719.15 116.32 718.99 145.68 719.15 175.03 C 719.34 179.69 719.19 184.56 721.00 188.95 C 723.06 193.27 728.31 193.93 732.50 194.69 C 732.50 196.82 732.50 198.94 732.53 201.07 C 710.53 201.22 688.52 201.08 666.52 201.15 C 666.49 199.00 666.49 196.85 666.49 194.71 C 671.06 193.85 676.59 193.61 679.71 189.64 C 682.68 185.04 682.13 179.27 682.43 174.05 C 682.53 146.71 682.54 119.38 682.43 92.04 C 682.05 87.53 682.76 82.13 679.37 78.58 C 676.16 76.37 672.02 76.89 668.34 76.66 C 667.69 75.10 667.05 73.55 666.41 72.00 Z"></path><path fill="#000000" opacity="1.00" d=" M 938.22 72.00 C 954.23 66.28 970.23 60.51 986.26 54.84 C 988.09 65.65 989.65 76.49 991.42 87.30 C 995.67 76.92 1001.11 66.17 1010.82 59.90 C 1018.52 54.78 1028.25 53.97 1037.17 55.58 C 1041.37 73.64 1045.43 91.74 1049.61 109.81 C 1047.66 110.67 1045.72 111.54 1043.79 112.40 C 1036.43 103.75 1028.97 94.94 1019.57 88.43 C 1015.30 85.51 1010.20 83.16 1004.91 83.91 C 999.07 85.11 994.87 90.15 992.40 95.27 C 992.15 118.17 992.37 141.10 992.30 164.01 C 992.40 170.37 991.97 176.80 993.21 183.08 C 993.80 186.17 995.65 189.08 998.57 190.43 C 1004.71 193.45 1011.74 193.54 1018.38 194.63 C 1018.37 196.75 1018.38 198.87 1018.39 200.99 C 991.72 201.00 965.05 201.01 938.38 200.99 C 938.37 198.85 938.38 196.71 938.39 194.57 C 942.92 193.71 948.39 193.53 951.52 189.62 C 954.58 185.04 954.00 179.21 954.35 173.97 C 954.43 147.31 954.36 120.65 954.39 93.99 C 954.16 89.42 954.44 84.34 951.68 80.42 C 949.03 76.93 944.24 76.90 940.28 76.63 C 939.58 75.09 938.89 73.54 938.22 72.00 Z"></path><path fill="#000000" opacity="1.00" d=" M 1394.14 72.91 C 1411.68 66.68 1429.24 60.49 1446.80 54.32 C 1446.82 93.86 1446.77 133.40 1446.83 172.94 C 1447.10 178.30 1446.60 184.05 1449.09 188.99 C 1451.94 193.66 1457.98 193.85 1462.79 194.80 C 1462.78 196.72 1462.78 198.63 1462.80 200.56 C 1439.90 200.56 1417.01 200.54 1394.11 200.56 C 1394.10 198.65 1394.09 196.74 1394.11 194.83 C 1398.75 193.86 1404.53 193.79 1407.51 189.49 C 1410.23 184.84 1409.76 179.19 1410.04 174.01 C 1410.15 147.33 1410.16 120.66 1410.04 93.99 C 1409.77 89.44 1410.27 84.33 1407.60 80.36 C 1404.49 77.07 1399.49 77.73 1395.39 77.52 C 1394.96 75.98 1394.54 74.45 1394.14 72.91 Z"></path><path fill="#000000" opacity="1.00" d=" M 1879.08 66.15 C 1895.06 54.79 1916.40 52.55 1935.02 57.83 C 1938.56 58.88 1942.28 58.54 1945.94 58.56 C 1959.86 58.55 1973.78 58.55 1987.70 58.56 C 1986.84 62.60 1985.97 66.65 1985.10 70.69 C 1975.56 71.02 1966.06 70.05 1956.57 69.28 C 1960.35 72.95 1963.82 77.01 1966.34 81.66 C 1975.72 98.59 1972.28 121.77 1957.74 134.73 C 1944.92 146.45 1926.78 149.71 1909.96 149.11 C 1902.78 152.62 1895.95 156.91 1888.98 160.83 C 1897.39 166.53 1907.72 168.03 1917.54 169.63 C 1935.67 171.98 1954.64 171.78 1971.64 179.37 C 1979.11 182.59 1986.25 188.53 1987.71 196.95 C 1989.75 210.99 1982.71 225.05 1971.95 233.82 C 1956.15 246.81 1935.56 252.28 1915.51 254.00 L 1901.07 254.00 C 1890.05 253.15 1878.87 251.66 1868.68 247.16 C 1862.59 244.50 1856.80 240.55 1853.24 234.83 C 1848.88 227.83 1848.75 218.33 1853.36 211.41 C 1858.57 203.46 1867.51 198.88 1876.46 196.43 C 1872.48 194.67 1868.62 192.51 1865.50 189.45 C 1859.55 183.80 1856.04 176.22 1852.81 168.82 C 1867.02 161.37 1881.28 153.98 1895.50 146.54 C 1885.94 143.60 1876.69 138.72 1870.17 130.96 C 1862.84 122.52 1859.49 111.06 1860.09 99.98 C 1860.59 86.50 1868.15 73.86 1879.08 66.15 M 1908.42 62.61 C 1902.71 64.20 1899.52 69.89 1898.16 75.27 C 1895.59 85.47 1896.49 96.13 1897.78 106.44 C 1898.89 114.75 1900.61 123.08 1904.17 130.72 C 1906.25 135.02 1909.15 139.30 1913.60 141.43 C 1918.93 143.99 1925.90 142.23 1929.36 137.41 C 1933.66 131.56 1934.40 124.02 1934.71 117.00 C 1934.89 107.34 1933.71 97.69 1931.80 88.24 C 1929.91 80.41 1927.66 72.10 1921.87 66.17 C 1918.50 62.57 1913.13 61.04 1908.42 62.61 M 1886.44 200.18 C 1881.96 203.32 1879.65 208.70 1878.95 213.97 C 1878.03 219.85 1878.33 226.27 1881.70 231.38 C 1886.50 238.87 1895.44 242.30 1903.87 243.68 C 1914.62 245.18 1925.99 244.43 1935.97 239.90 C 1942.28 237.03 1948.12 231.99 1949.99 225.09 C 1951.16 220.83 1951.08 215.61 1947.79 212.29 C 1943.64 208.22 1937.61 207.22 1932.12 206.25 C 1918.35 204.24 1904.50 202.70 1890.82 200.14 C 1889.37 200.08 1887.63 199.02 1886.44 200.18 Z"></path><path fill="#000000" opacity="1.00" d=" M 317.82 56.28 C 352.44 58.35 387.14 57.42 421.79 57.60 C 397.50 102.87 373.12 148.09 348.84 193.37 C 359.86 193.23 370.93 193.85 381.91 192.56 C 388.92 191.77 395.98 189.12 400.84 183.81 C 408.28 175.78 412.17 165.30 416.11 155.27 C 418.07 155.29 420.03 155.31 422.00 155.34 C 419.00 170.92 416.10 186.53 413.08 202.11 C 377.17 200.10 341.19 201.00 305.25 200.81 C 329.58 155.53 353.97 110.29 378.28 65.00 C 365.07 65.55 351.11 63.35 338.58 68.59 C 325.23 75.10 319.91 90.19 314.82 103.11 C 312.88 103.12 310.94 103.13 309.00 103.14 C 311.92 87.51 314.84 71.89 317.82 56.28 Z"></path></g></svg> 