<?xml version="1.0" encoding="UTF-8"?> <svg xmlns="http://www.w3.org/2000/svg" xmlns:xlink="http://www.w3.org/1999/xlink" class="brand" viewBox="0 0 179 53"><title>moneycab</title><desc>moneycab Logo. Typografischer Schriftzug in blau und gelb.</desc><path d="m57.6192395.06645735-52.83232856 5.53846142c-3.72229344.57363157-4.78691094 2.85081927-4.78691094 7.25854593v9.7475236 7.7780551 9.7475236c0 4.4075646 1.0646175 6.6849144 4.78691094 7.2583839l52.83232856 5.5386234c6.2354096.5835162 8.3807605-2.732528 8.3807605-7.7764347v-14.7680962-7.7780551-14.76809619c0-5.04390674-2.1453509-8.36011298-8.3807605-7.77643476" transform="translate(113)" fill="#ffdf00" class="brand-door"></path><path d="m13.098 23.05c2.128 0 3.61.95 4.218 2.736 1.862-1.748 3.42-2.736 5.662-2.736 2.964 0 4.522 1.862 4.522 5.282v11.704l2.128.38v2.584h-7.486v-12.806c0-1.938-.494-2.736-1.862-2.736-.95 0-1.824.38-2.66 1.026v11.4l1.938.38v2.736h-7.334v-12.806c0-1.938-.456-2.736-1.824-2.736-.95 0-1.824.38-2.698 1.026v11.4l1.976.38v2.736h-9.462v-2.736l2.128-.38v-12.578l-2.128-.532v-3.23h6.764l.494 2.166c1.862-1.672 3.344-2.66 5.624-2.66zm27.472 20.444c-5.358 0-8.588-3.002-8.588-10.298s3.23-10.146 8.588-10.146 8.588 2.964 8.588 10.26c0 7.334-3.23 10.184-8.588 10.184zm.038-3.268c2.242 0 2.812-1.862 2.812-7.106 0-4.94-.608-6.726-2.85-6.726s-2.812 1.786-2.812 6.84c0 5.168.608 6.992 2.85 6.992zm23.482 2.774v-12.882c0-1.938-.456-2.698-1.824-2.698-1.064 0-2.09.494-2.964 1.102v11.362l2.014.38v2.736h-9.5v-2.736l2.128-.38v-12.578l-2.128-.532v-3.23h6.764l.494 2.166c1.862-1.71 3.496-2.66 5.89-2.66 2.964 0 4.522 1.862 4.522 5.282v11.552l2.09.38v2.736zm18.846.494c-5.966 0-9.006-2.926-9.006-10.26 0-7.106 3.116-10.184 8.436-10.184 4.94 0 7.676 2.47 7.676 9.462v2.166h-10.374c.038 3.534.95 5.016 4.066 5.016 2.052 0 3.154-.532 4.788-1.52l1.444 3.04c-1.9 1.444-3.99 2.28-7.03 2.28zm-.532-17.214c-1.672 0-2.546.988-2.698 5.168h5.092c0-4.104-.532-5.168-2.394-5.168zm22.874.646-1.71-.266v-3.116h7.372v3.23l-1.52.304-5.206 15.922c-1.786 5.51-4.484 7.03-8.816 7.828l-1.254-3.762c3.724-.57 5.244-1.862 6.042-4.066h-1.406l-5.244-15.96-1.52-.266v-3.23h8.816v3.116l-1.786.304 2.166 7.752c.418 1.52.684 2.888.874 4.446h.038c.19-1.52.532-2.888.95-4.37z" fill="#0986b8" class="brand-money"></path><path d="m126.676667 43.494c-5.016 0-8.436-2.964-8.436-10.26 0-7.752 3.838-10.184 8.702-10.184 2.508 0 4.56.57 5.928 1.748v4.712h-3.572l-.57-2.774c-.342-.228-1.026-.342-1.634-.342-1.976 0-3.116 1.026-3.116 6.422 0 5.928 1.33 6.84 3.914 6.84 1.558 0 2.85-.57 4.066-1.368l1.444 2.964c-1.558 1.406-3.838 2.242-6.726 2.242zm16.850889-3.572c1.102 0 1.786-.418 2.394-.988v-4.712h-1.14c-2.318 0-3.344.608-3.344 3.04 0 1.9.646 2.66 2.09 2.66zm9.576.038.228 2.66c-.684.418-1.9.874-3.382.874-1.748 0-3.04-.494-3.572-2.09-1.102 1.14-2.166 2.09-4.674 2.09-3.23 0-5.586-1.748-5.586-5.928 0-4.37 2.546-6.194 8.778-6.194h1.026v-.95c0-2.09-.494-3.078-2.66-3.078-1.9 0-3.496.532-5.244 1.406l-1.52-3.42c2.128-1.444 4.75-2.28 7.904-2.28 4.484 0 6.878 1.672 6.878 6.384v9.006c0 1.292.228 1.558 1.824 1.52zm4.196888 3.04v-24.206l-2.128-.532v-3.078h7.486v10.298c.988-1.064 2.736-2.432 5.016-2.432 3.458 0 6.27 2.204 6.27 9.804 0 8.854-2.812 10.64-6.84 10.64-2.242 0-3.99-1.178-5.13-2.432l-.532 1.938zm7.98-3.154c2.242 0 2.888-1.862 2.888-6.688 0-4.446-.684-6.004-2.736-6.004-1.14 0-2.052.418-2.774 1.026v10.564c.57.532 1.52 1.102 2.622 1.102z" fill="#fff" class="brand-cab"></path></svg> 