<?xml version="1.0" encoding="UTF-8"?> <svg xmlns="http://www.w3.org/2000/svg" xmlns:xlink="http://www.w3.org/1999/xlink" id="Layer_1" x="0px" y="0px" viewBox="0 0 524 135.7" style="enable-background:new 0 0 524 135.7;" xml:space="preserve"> <style type="text/css"> .st0{fill-rule:evenodd;clip-rule:evenodd;fill:#4797EC;} .st1{fill:#4797EC;} </style> <path class="st0" d="M55.9,77.1c-9.5,0-17.2-7.4-17.8-16.7c2,0.4,4,0.8,6,1.1c1.1,5.6,5.9,9.8,11.8,9.8c1.2,0,2.4-0.2,3.5-0.5 L59,62.8l6.1,4.2c1.3-1.6,2.3-3.5,2.7-5.6c2-0.3,4-0.7,6-1.1C73.1,69.7,65.3,77.1,55.9,77.1z M79.5,52.8L79.5,52.8 c-0.3,0.1-0.5,0.2-0.8,0.3c-1.8,0.6-3.7,1.1-5.6,1.5c-1.9,0.4-3.8,0.8-5.7,1.1c-3.7,0.6-7.6,0.9-11.5,0.9c-3.9,0-7.7-0.3-11.5-0.9 c-1.9-0.3-3.8-0.7-5.7-1.1c-1.9-0.4-3.8-0.9-5.6-1.5c-0.3-0.1-0.5-0.2-0.8-0.3h0c0,0,0,6.3,0,6.4c0,13.1,10.6,23.6,23.6,23.6 c13.1,0,23.6-10.6,23.6-23.6V52.8z"></path> <path class="st0" d="M95.6,88.4L84,80.3l0.9,16.6c-8.5,5.2-18.4,8.1-29,8.1c-10.6,0-20.6-3-29-8.1l0.9-16.6l-11.6,8.1 c-4-4.1-7.4-8.7-10-13.8c0.6-2.6,1.5-5.1,2.5-7.5c0.9-2.2,2-4.4,3.3-6.5c-1-2.2-1.8-4.5-2.4-6.9c-1.1-4-1.6-8.2-1.6-12.5 c0-2.3,0.2-4.6,0.5-6.8l16.6,11.6c1.7-1.3,3.4-2.4,5.2-3.5c7.6-4.4,16.4-6.9,25.7-6.9c9.4,0,18.2,2.5,25.7,6.9 c1.8,1,3.5,2.2,5.2,3.5l16.6-11.6c0.3,2.2,0.5,4.5,0.5,6.8c0,4.3-0.6,8.5-1.6,12.5c-0.6,2.4-1.4,4.7-2.4,6.9 c1.2,2.1,2.3,4.2,3.3,6.5c1,2.4,1.8,4.9,2.5,7.5C103,79.7,99.6,84.4,95.6,88.4z M109.1,66.3c-0.8-2.1-1.7-4.1-2.8-6 c2.2-5.9,3.4-12.3,3.4-19c0-3.5-0.3-7-1-10.3c0,0,0-0.1,0-0.1c-0.4-2-0.9-4-1.5-6L86.8,39.1C77.9,33.3,67.3,30,55.9,30 s-22,3.3-30.9,9.1L4.6,24.9c-0.6,2-1.1,4-1.5,6c0,0,0,0.1,0,0.1c-0.6,3.3-1,6.8-1,10.3c0,6.7,1.2,13.1,3.4,19c-1,1.9-2,4-2.8,6 c-1.1,2.9-2,5.9-2.7,9c1.4,2.9,2.9,5.7,4.7,8.3c2,2.9,4.2,5.7,6.6,8.2c1.4,1.4,2.8,2.8,4.3,4.1l5.7-4l-0.4,8.1 c1.8,1.2,3.7,2.4,5.6,3.5c8.7,4.7,18.7,7.4,29.4,7.4c10.6,0,20.6-2.7,29.4-7.4c1.9-1.1,3.8-2.2,5.6-3.5l-0.4-8l5.7,4 c1.5-1.3,2.9-2.7,4.3-4.1c2.4-2.5,4.6-5.3,6.6-8.2c1.8-2.6,3.3-5.4,4.7-8.3C111.1,72.2,110.2,69.2,109.1,66.3z"></path> <path class="st1" d="M177.2,66.3l1.1-10.4h-0.4l-3.2,8.4l-11.1,19.5h-3.3l-11.7-19.6l-3.3-8.3h-0.4l1.5,10.3v27.2h-9.7V41.2h9.3 l14,23.9l2.5,6h0.3l2.2-6.1l13.2-23.8h9.3v52.3h-10.2V66.3z M193.6,74.8c0-6.3,1.5-11.2,4.6-14.6c3.1-3.4,7.4-5.2,13-5.2 c3,0,5.6,0.5,7.8,1.4c2.2,0.9,4,2.3,5.5,4c1.4,1.7,2.5,3.8,3.2,6.2c0.7,2.4,1.1,5.1,1.1,8.1c0,6.3-1.5,11.2-4.6,14.6 c-3,3.4-7.3,5.1-12.9,5.1c-3,0-5.6-0.5-7.8-1.4c-2.2-0.9-4-2.3-5.5-4c-1.4-1.7-2.5-3.8-3.3-6.3C193.9,80.4,193.6,77.7,193.6,74.8z M203.6,74.8c0,1.6,0.1,3.2,0.4,4.6c0.3,1.4,0.7,2.6,1.3,3.7c0.6,1,1.4,1.9,2.3,2.5c1,0.5,2.2,0.8,3.5,0.8c2.5,0,4.4-0.9,5.7-2.8 c1.2-1.8,1.9-4.8,1.9-8.7c0-3.4-0.6-6.2-1.7-8.3c-1.1-2.1-3.1-3.2-5.8-3.2c-2.4,0-4.3,0.9-5.6,2.7C204.3,67.8,203.6,70.7,203.6,74.8 z M257.6,93.5V72.2c0-3-0.4-5.2-1.3-6.6c-0.8-1.3-2.3-2-4.4-2c-1.8,0-3.4,0.5-4.7,1.6c-1.2,1-2.1,2.4-2.7,4v24.2h-9.7V56.1h7.7 l1.1,4.9h0.3c1.1-1.6,2.7-3,4.6-4.2c1.9-1.2,4.3-1.8,7.3-1.8c1.8,0,3.5,0.2,4.9,0.7c1.4,0.5,2.7,1.3,3.7,2.5c1,1.1,1.7,2.7,2.2,4.7 c0.5,1.9,0.7,4.4,0.7,7.2v23.2H257.6z M290.2,83.2c0-1-0.4-1.8-1.3-2.4c-0.8-0.6-1.9-1.1-3.1-1.6c-1.2-0.5-2.6-1-4.1-1.5 c-1.5-0.5-2.9-1.3-4.1-2.2c-1.2-0.9-2.3-2.1-3.1-3.5c-0.8-1.4-1.3-3.3-1.3-5.5c0-3.7,1.1-6.5,3.3-8.4c2.2-1.9,5.4-2.9,9.5-2.9 c2.8,0,5.4,0.3,7.7,0.9c2.3,0.6,4.1,1.3,5.4,2l-2.2,7c-1.1-0.4-2.6-0.9-4.3-1.4c-1.7-0.5-3.5-0.7-5.3-0.7c-2.9,0-4.3,1.1-4.3,3.4 c0,0.9,0.4,1.6,1.3,2.2c0.8,0.5,1.9,1.1,3.1,1.6c1.2,0.4,2.6,0.9,4.1,1.5s2.9,1.3,4.1,2.2c1.2,0.8,2.3,2,3.1,3.4 c0.8,1.4,1.3,3.2,1.3,5.4c0,3.8-1.2,6.8-3.7,9c-2.4,2.1-6,3.2-10.8,3.2c-2.6,0-5.1-0.3-7.5-1c-2.3-0.6-4.2-1.4-5.6-2.3l2.7-7.2 c1.1,0.6,2.7,1.3,4.6,1.9c1.9,0.6,3.8,0.9,5.8,0.9c1.4,0,2.6-0.3,3.4-0.8C289.7,85.4,290.2,84.5,290.2,83.2z M301.6,56.1h5.2v-7 l9.7-2.8v9.8h9.1v8.2h-9.1v14.3c0,2.6,0.2,4.5,0.7,5.6c0.5,1.1,1.5,1.6,3,1.6c1,0,1.8-0.1,2.5-0.3c0.7-0.2,1.6-0.5,2.5-0.9l1.7,7.5 c-1.3,0.6-2.9,1.2-4.7,1.6c-1.8,0.4-3.6,0.7-5.5,0.7c-3.4,0-6-0.9-7.6-2.6c-1.6-1.8-2.4-4.7-2.4-8.7V64.3h-5.2V56.1z M360.3,90.3 c-1.5,1.2-3.5,2.2-6.1,3.1c-2.5,0.8-5.3,1.2-8.1,1.2c-6,0-10.4-1.7-13.2-5.2c-2.8-3.5-4.2-8.4-4.2-14.5c0-6.6,1.6-11.5,4.7-14.8 s7.5-4.9,13.2-4.9c1.9,0,3.7,0.2,5.5,0.7c1.8,0.5,3.4,1.3,4.8,2.5c1.4,1.1,2.5,2.7,3.4,4.6c0.8,1.9,1.3,4.4,1.3,7.2 c0,1-0.1,2.2-0.2,3.4c-0.1,1.2-0.3,2.4-0.5,3.7h-22.4c0.1,3.1,0.9,5.5,2.4,7.1c1.5,1.6,3.9,2.4,7.2,2.4c2,0,3.9-0.3,5.5-0.9 c1.6-0.6,2.9-1.3,3.7-1.9L360.3,90.3z M346.4,62.8c-2.5,0-4.4,0.8-5.7,2.3c-1.2,1.5-1.9,3.5-2.2,6.1h13.9c0.2-2.7-0.2-4.8-1.3-6.2 C350.2,63.6,348.6,62.8,346.4,62.8z M388.2,65.2c-1.5-0.5-2.9-0.8-4.2-0.8c-1.7,0-3.2,0.5-4.4,1.4c-1.1,0.9-1.9,2.1-2.3,3.5v24.1 h-9.7V56.1h7.5l1.1,4.9h0.3c0.8-1.8,2-3.3,3.4-4.3c1.4-1,3.1-1.5,5.1-1.5c1.3,0,2.8,0.3,4.4,0.8L388.2,65.2z"></path> <path class="st1" d="M393.3,42.1c2.1-0.4,4.4-0.7,6.9-0.9c2.5-0.2,5.1-0.4,7.5-0.4c2.6,0,5.2,0.2,7.8,0.7c2.6,0.4,5,1.2,7.1,2.5 c2.1,1.2,3.8,3,5.1,5.3c1.3,2.2,2,5.2,2,8.8c0,3.3-0.6,6.1-1.7,8.4c-1.1,2.2-2.7,4.1-4.6,5.5c-1.9,1.4-4.1,2.5-6.5,3.1 c-2.4,0.6-4.9,1-7.5,1c-0.2,0-0.6,0-1.2,0c-0.5,0-1.1,0-1.7,0c-0.6,0-1.2-0.1-1.8-0.1c-0.5,0-0.9-0.1-1.2-0.1v18h-10.2V42.1z M408.5,49.6c-1,0-1.9,0-2.8,0.1c-0.9,0-1.6,0.1-2.2,0.2v17c0.2,0,0.5,0.1,0.9,0.1c0.4,0,0.8,0.1,1.3,0.1c0.4,0,0.9,0,1.3,0 c0.4,0,0.8,0,1,0c1.3,0,2.7-0.1,4-0.4c1.3-0.2,2.5-0.7,3.6-1.3c1-0.7,1.9-1.6,2.5-2.8c0.6-1.2,1-2.8,1-4.7c0-1.6-0.3-3-0.9-4 c-0.6-1.1-1.4-2-2.4-2.6c-0.9-0.6-2-1.1-3.3-1.3C411.1,49.7,409.8,49.6,408.5,49.6z M430.6,75.2c0-6.3,1.5-11.2,4.6-14.6 c3.1-3.4,7.4-5.2,13-5.2c3,0,5.6,0.5,7.8,1.4c2.2,0.9,4,2.3,5.5,4c1.4,1.7,2.5,3.8,3.2,6.2c0.7,2.4,1.1,5.1,1.1,8.1 c0,6.3-1.5,11.2-4.6,14.6c-3,3.4-7.3,5.1-12.9,5.1c-3,0-5.6-0.5-7.8-1.4c-2.2-0.9-4-2.3-5.5-4c-1.4-1.7-2.5-3.8-3.3-6.3 C430.9,80.8,430.6,78.1,430.6,75.2z M440.6,75.2c0,1.6,0.1,3.2,0.4,4.6c0.3,1.4,0.7,2.6,1.3,3.7c0.6,1,1.4,1.9,2.3,2.5 c1,0.5,2.2,0.8,3.5,0.8c2.5,0,4.4-0.9,5.7-2.8c1.2-1.8,1.9-4.8,1.9-8.7c0-3.4-0.6-6.2-1.7-8.3c-1.1-2.1-3.1-3.2-5.8-3.2 c-2.4,0-4.3,0.9-5.6,2.7C441.3,68.1,440.6,71.1,440.6,75.2z M487.2,83.5c0-1-0.4-1.8-1.3-2.4c-0.8-0.6-1.9-1.1-3.1-1.6 c-1.2-0.5-2.6-1-4.1-1.5c-1.5-0.5-2.9-1.3-4.1-2.2c-1.2-0.9-2.3-2.1-3.1-3.5c-0.8-1.4-1.3-3.3-1.3-5.5c0-3.7,1.1-6.5,3.3-8.4 c2.2-1.9,5.4-2.9,9.5-2.9c2.8,0,5.4,0.3,7.7,0.9c2.3,0.6,4.1,1.3,5.4,2l-2.2,7c-1.1-0.4-2.6-0.9-4.3-1.4c-1.7-0.5-3.5-0.7-5.3-0.7 c-2.9,0-4.3,1.1-4.3,3.4c0,0.9,0.4,1.6,1.3,2.2c0.8,0.5,1.9,1.1,3.1,1.6c1.2,0.4,2.6,0.9,4.1,1.5c1.5,0.5,2.9,1.3,4.1,2.2 c1.2,0.8,2.3,2,3.1,3.4c0.8,1.4,1.3,3.2,1.3,5.4c0,3.8-1.2,6.8-3.7,9c-2.4,2.1-6,3.2-10.8,3.2c-2.6,0-5.1-0.3-7.5-1 c-2.3-0.6-4.2-1.4-5.6-2.3l2.7-7.2c1.1,0.6,2.7,1.3,4.6,1.9c1.9,0.6,3.8,0.9,5.8,0.9c1.4,0,2.6-0.3,3.4-0.8 C486.8,85.7,487.2,84.8,487.2,83.5z M498.6,56.5h5.2v-7l9.7-2.8v9.8h9.1v8.2h-9.1V79c0,2.6,0.2,4.5,0.7,5.6c0.5,1.1,1.5,1.6,3,1.6 c1,0,1.8-0.1,2.5-0.3c0.7-0.2,1.6-0.5,2.5-0.9l1.7,7.5c-1.3,0.6-2.9,1.2-4.7,1.6s-3.6,0.7-5.5,0.7c-3.4,0-6-0.9-7.6-2.6 c-1.6-1.8-2.4-4.7-2.4-8.7V64.7h-5.2V56.5z"></path> </svg> 