<?xml version="1.0" encoding="UTF-8"?> <svg xmlns="http://www.w3.org/2000/svg" width="151" height="34"><path fill-rule="evenodd" fill="#0053d8" d="M141.771 25.92c-3.097 0-5.689-1.346-6.632-3.366h-.101c.067.437.101.943.101 1.818v8.753h-2.693V8.111h2.525v1.178c0 .808-.034 1.313-.101 1.818h.101c1.144-1.952 3.635-3.534 6.935-3.534 5.151 0 8.82 3.871 8.82 9.156 0 5.32-3.703 9.191-8.955 9.191zm-.236-15.957c-3.77 0-6.497 2.861-6.497 6.766 0 3.906 2.727 6.768 6.497 6.768 3.67 0 6.431-2.862 6.431-6.768 0-3.905-2.761-6.766-6.431-6.766zm-27.739 7.945c.471 3.333 2.929 5.589 6.329 5.589 2.323 0 4.141-.977 5.488-2.66l1.582 1.616c-1.683 2.256-4.141 3.467-7.103 3.467-5.252 0-9.124-3.938-9.124-9.191 0-5.251 3.872-9.156 9.089-9.156 5.051 0 8.518 3.938 8.518 9.156 0 .337-.034.909-.067 1.179h-14.712zm6.228-7.945c-3.333 0-5.791 2.289-6.228 5.656h12.086c-.202-3.266-2.525-5.656-5.858-5.656zm-16.126 13.028h4.815v2.391h-7.508V10.468h-1.986V8.111h1.986V3.499h2.693v4.612h5.32v2.357h-5.32v12.523zM92.79 16.09c2.221 1.01 3.736 2.356 3.736 4.881 0 2.896-2.289 4.949-5.891 4.949-3.468 0-5.521-2.087-6.06-4.511l2.121-1.145a4.112 4.112 0 004.107 3.299c1.784 0 3.03-.908 3.03-2.592 0-1.212-.842-2.02-2.626-2.828l-2.121-.976c-2.222-1.009-3.771-2.289-3.771-4.881 0-2.693 2.256-4.714 5.387-4.714 3.097 0 5.016 1.717 5.824 3.906l-2.02 1.111c-.539-1.549-1.851-2.727-3.737-2.727-1.683 0-2.827 1.01-2.827 2.39 0 1.279.807 1.986 2.558 2.794l2.29 1.044zm-14.644 9.292h-2.694V8.111h7.743v2.39h-5.049v14.881zm-21.345-7.474c.472 3.333 2.929 5.589 6.33 5.589 2.323 0 4.141-.977 5.487-2.66l1.583 1.616c-1.684 2.256-4.141 3.467-7.104 3.467-5.252 0-9.123-3.938-9.123-9.191 0-5.251 3.871-9.156 9.089-9.156 5.05 0 8.518 3.938 8.518 9.156 0 .337-.034.909-.067 1.179H56.801zm6.229-7.945c-3.333 0-5.79 2.289-6.229 5.656h12.087c-.202-3.266-2.525-5.656-5.858-5.656zM47.444 23.968c0-.774.033-1.347.101-1.852h-.101c-1.179 2.491-3.804 3.804-6.835 3.804-5.386 0-8.921-3.871-8.921-9.19 0-5.287 3.569-9.158 8.955-9.158 2.794 0 5.521 1.212 6.599 3.232h.1a22.81 22.81 0 01-.066-1.851V.132h2.659v25.25h-2.491v-1.414zM40.912 9.963c-3.703 0-6.463 2.861-6.463 6.767 0 3.871 2.76 6.733 6.463 6.733 3.771 0 6.464-2.862 6.464-6.733 0-3.906-2.693-6.767-6.464-6.767zM25.191 25.382h-2.694V8.111h7.743v2.39h-5.049v14.881zm-15.822.539c-5.286 0-9.124-3.939-9.124-9.191 0-5.252 3.905-9.158 9.124-9.158 5.218 0 9.123 3.906 9.123 9.158 0 5.252-3.872 9.191-9.123 9.191zm0-15.958c-3.704 0-6.363 2.861-6.363 6.767 0 3.871 2.659 6.766 6.363 6.766 3.703 0 6.396-2.895 6.396-6.766 0-3.906-2.693-6.767-6.396-6.767z"></path></svg> 