<?xml version="1.0" encoding="UTF-8"?> <svg xmlns="http://www.w3.org/2000/svg" width="560" height="434" viewBox="0 0 560 434" fill="none"><rect x="126" width="434" height="434" fill="#EB002E"></rect><path fill-rule="evenodd" clip-rule="evenodd" d="M504.2 184.368H439.773V108.084C440.097 101.107 436.612 96.8161 429.601 97.0654C422.681 96.8161 419.2 101.107 419.428 108.084V325.068C419.2 333.605 422.681 337.179 429.601 336.935C436.612 337.179 440.097 333.605 439.773 325.068V241.157H504.2V322.526C504.2 358.642 486.782 384.4 432.144 384.4C378.085 384.4 351.61 362.928 351.61 322.526V111.475C351.61 71.0633 378.085 49.6001 432.144 49.6001C486.782 49.6001 504.2 75.354 504.2 111.475V184.368ZM338.046 193.691C338.046 233.894 319.203 255.379 274.467 255.566H255.817V383.553H188V51.2954H274.467C319.203 51.2954 338.046 72.7784 338.046 113.17V193.691ZM253.276 203.862V96.2179C265.91 96.2179 271.078 100.494 271.078 114.865V185.215C271.078 199.587 265.91 203.862 253.276 203.862Z" fill="white"></path><rect x="116" y="430" width="112" height="426" transform="rotate(180 116 430)" fill="#292929" stroke="#292929" stroke-width="8"></rect><path d="M86 364.96C86 365.173 85.8667 365.28 85.6 365.28L76.24 365.28L76.24 382.56C76.24 382.773 76.1067 382.88 75.84 382.88L67.04 382.88L30.64 365.44C30.4267 365.333 30.32 365.173 30.32 364.96L30.32 355.92C30.32 355.76 30.4267 355.68 30.64 355.68L66.72 355.6L66.72 350C66.72 349.733 66.8533 349.6 67.12 349.6L75.84 349.6C76.1067 349.6 76.24 349.707 76.24 349.92L76.24 355.6L85.6 355.6C85.8667 355.6 86 355.707 86 355.92L86 364.96ZM66.72 373.44L66.72 365.28L49.28 365.28L66.72 373.44ZM86.8 318.306C86.8 321.72 86.08 324.733 84.64 327.346C83.1467 329.96 81.2 332.013 78.8 333.506C76.3467 334.946 73.6533 335.666 70.72 335.666L45.36 335.586C42.4267 335.586 39.76 334.866 37.36 333.426C34.96 331.933 33.04 329.88 31.6 327.266C30.16 324.653 29.44 321.666 29.44 318.306C29.44 314.893 30.16 311.906 31.6 309.346C33.04 306.786 34.96 304.786 37.36 303.346C39.76 301.853 42.4267 301.106 45.36 301.106L70.72 301.026C73.6533 301.026 76.3467 301.773 78.8 303.266C81.2 304.706 83.1467 306.733 84.64 309.346C86.08 311.906 86.8 314.893 86.8 318.306ZM70.72 310.706L45.36 310.786C43.4933 310.786 41.9733 311.48 40.8 312.866C39.6267 314.253 39.04 316.066 39.04 318.306C39.04 320.6 39.6267 322.44 40.8 323.826C41.9733 325.213 43.4933 325.906 45.36 325.906L70.72 325.906C72.6933 325.906 74.2667 325.213 75.44 323.826C76.56 322.44 77.12 320.6 77.12 318.306C77.12 316.066 76.56 314.253 75.44 312.866C74.2667 311.426 72.6933 310.706 70.72 310.706ZM86 255.626C86 255.786 85.8933 255.866 85.68 255.866L62.96 255.786L30.64 266.506C30.4267 266.559 30.32 266.479 30.32 266.266L30.32 257.386C30.32 257.119 30.4267 256.959 30.64 256.906L52.16 250.986L30.64 244.986C30.4267 244.932 30.32 244.799 30.32 244.586L30.32 235.626C30.32 235.412 30.4267 235.332 30.64 235.386L62.64 246.186L85.68 246.106C85.8933 246.106 86 246.212 86 246.426L86 255.626ZM86 220.636C86 220.85 85.8667 220.956 85.6 220.956L30.64 220.876C30.4267 220.876 30.32 220.77 30.32 220.556L30.32 194.876C30.32 194.663 30.4533 194.556 30.72 194.556L39.68 194.556C39.8933 194.556 40 194.663 40 194.876L40 211.276L52.48 211.276L52.48 194.876C52.48 194.663 52.5867 194.556 52.8 194.556L61.84 194.476C62.0533 194.476 62.16 194.583 62.16 194.796L62.16 211.276L76.16 211.276L76.16 194.796C76.16 194.583 76.2933 194.476 76.56 194.476L85.68 194.476C85.8933 194.476 86 194.583 86 194.796L86 220.636ZM85.6 180.864L30.64 170.944C30.4267 170.89 30.32 170.757 30.32 170.544L30.32 158.944C30.32 158.73 30.4267 158.597 30.64 158.544L85.6 149.024C85.8667 148.97 86 149.077 86 149.344L86 158.224C86 158.437 85.8667 158.57 85.6 158.624L79.76 159.504L79.76 170.384L85.6 171.264C85.8667 171.317 86 171.45 86 171.664L86 180.544C86 180.757 85.8667 180.864 85.6 180.864ZM71.2 168.784L71.2 161.104L48.72 164.384L45.76 164.864L48.72 165.184L71.2 168.784ZM86 133.683C86 133.896 85.8667 134.003 85.6 134.003L30.64 133.843C30.4267 133.843 30.32 133.736 30.32 133.523L30.32 117.363C30.32 114.483 31.04 111.843 32.48 109.443C33.8667 106.99 35.76 105.043 38.16 103.603C40.5067 102.163 43.1733 101.443 46.16 101.443C48.1333 101.443 49.92 101.736 51.52 102.323C53.0667 102.91 54.4 103.603 55.52 104.403C56.5867 105.203 57.3867 105.923 57.92 106.563C61.12 103.683 64.88 102.243 69.2 102.243L85.6 102.163C85.8667 102.163 86 102.296 86 102.563L86 111.603C86 111.816 85.92 111.923 85.76 111.923L69.2 111.923C67.28 111.923 65.6267 112.616 64.24 114.003C62.8 115.336 62.08 116.99 62.08 118.963L62.08 124.243L85.6 124.323C85.8667 124.323 86 124.43 86 124.643L86 133.683ZM52.48 124.243L52.48 117.363C52.48 115.71 51.8667 114.243 50.64 112.963C49.4133 111.683 47.92 111.043 46.16 111.043C44.4533 111.043 42.9867 111.683 41.76 112.963C40.5333 114.19 39.92 115.656 39.92 117.363L39.92 124.243L52.48 124.243ZM86.8 72.0438C86.8 74.9238 86.08 77.5638 84.64 79.9638C83.1467 82.3104 81.2 84.2038 78.8 85.6438C76.3467 87.0304 73.6533 87.7238 70.72 87.7238L67.04 87.7238C66.7733 87.7238 66.64 87.5904 66.64 87.3238L66.64 78.3637C66.64 78.1504 66.7733 78.0438 67.04 78.0438L70.72 78.0438C72.48 78.0438 74 77.4571 75.28 76.2838C76.5067 75.1104 77.12 73.6971 77.12 72.0438C77.12 70.3904 76.48 68.9771 75.2 67.8037C73.92 66.6304 72.4267 66.0437 70.72 66.0437C68.7467 66.0437 67.04 67.3237 65.6 69.8837C65.12 70.7371 64.3733 72.0704 63.36 73.8838C62.3467 75.6971 61.3867 77.4037 60.48 79.0038C58.7733 81.9371 56.64 84.1238 54.08 85.5638C51.4667 86.9504 48.5333 87.6438 45.28 87.6438C42.2933 87.6438 39.6267 86.9238 37.28 85.4837C34.88 84.0437 32.9867 82.1504 31.6 79.8037C30.2133 77.4037 29.52 74.8171 29.52 72.0437C29.52 69.2171 30.24 66.6304 31.68 64.2837C33.0667 61.8837 34.96 59.9904 37.36 58.6037C39.7067 57.1637 42.3467 56.4437 45.28 56.4437L51.84 56.4437C52.0533 56.4437 52.16 56.5504 52.16 56.7637L52.16 65.7238C52.16 65.9371 52.0533 66.0437 51.84 66.0437L45.28 66.1237C43.4133 66.1237 41.8933 66.7104 40.72 67.8837C39.5467 69.0571 38.96 70.4437 38.96 72.0437C38.96 73.6971 39.6 75.1104 40.88 76.2837C42.1067 77.4571 43.5733 78.0437 45.28 78.0437C47.04 78.0437 48.5067 77.6704 49.68 76.9238C50.8533 76.1771 51.9733 74.8171 53.04 72.8438C53.2 72.5771 53.4933 72.0704 53.92 71.3237C54.2933 70.5237 54.7467 69.6704 55.28 68.7637C55.76 67.8571 56.1867 67.0571 56.56 66.3637C56.9333 65.6171 57.1733 65.1637 57.28 65.0037C58.7733 62.3371 60.6133 60.2304 62.8 58.6838C64.9333 57.1371 67.5733 56.3637 70.72 56.3637C73.76 56.3637 76.5067 57.0837 78.96 58.5238C81.36 59.9104 83.28 61.8037 84.72 64.2037C86.1067 66.5504 86.8 69.1638 86.8 72.0438Z" fill="white"></path><rect x="120" width="6" height="434" fill="white"></rect></svg> 