<?xml version="1.0" encoding="UTF-8"?> <svg xmlns="http://www.w3.org/2000/svg" width="512" height="513" viewBox="0 0 512 513" fill="none"><path d="M327.868 27.1421C336.14 25.3489 344.43 23.5519 352.881 22.8693C355.224 22.9218 357.576 22.8829 359.93 22.8439C365.837 22.746 371.751 22.6481 377.535 23.9969C398.888 27.1439 418.919 36.1751 437.329 47.154C457.042 59.2297 472.327 80.4391 473.054 104.068C473.782 106.323 473.885 108.701 473.885 111.059C473.867 112.848 473.877 114.639 473.887 116.432V116.437C473.924 122.904 473.961 129.382 472.685 135.754C468.8 159.116 463.08 182.16 456.027 204.754C448.708 227.931 440.466 250.914 429.364 272.585C428.45 274.359 427.546 276.143 426.641 277.929L426.639 277.933C421.914 287.254 417.167 296.621 410.81 304.947C410.193 304.092 409.589 303.227 408.987 302.366L408.934 302.29C408.721 301.985 408.508 301.68 408.294 301.376L408.001 300.96C409.028 298.44 410.195 295.976 411.363 293.51L411.364 293.509C411.607 292.996 411.85 292.483 412.091 291.969C413.035 289.253 413.916 286.516 414.757 283.779C415.064 282.426 415.392 281.073 415.741 279.73C415.785 279.572 415.828 279.414 415.872 279.257L416.058 278.581L416.059 278.579C416.33 277.596 416.601 276.61 416.889 275.629C416.942 275.129 416.995 274.628 417.049 274.127C417.112 273.547 417.175 272.966 417.237 272.385C418.315 262.424 419.398 252.408 418.621 242.375C418.458 240.255 418.475 238.123 418.493 235.993C418.52 232.787 418.546 229.583 417.955 226.424C417.642 224.943 417.576 223.426 417.51 221.912C417.421 219.854 417.331 217.8 416.622 215.845C416.346 212.575 416.356 209.295 416.602 206.025C418.186 201.016 418.751 195.8 419.316 190.59C419.544 188.485 419.772 186.381 420.067 184.292C421.645 167.614 423.101 150.495 418.867 134.062C418.027 131.305 417.114 128.578 416.202 125.861C414.295 121.669 412.245 117.558 410.01 113.54C400.815 99.5368 391.425 85.6261 380.867 72.6176C378.448 69.322 375.537 66.4716 372.627 63.6217C371.419 62.4382 370.21 61.2548 369.037 60.0395C363.979 54.4706 357.775 50.2301 351.585 45.9999C349.457 44.5458 347.331 43.0929 345.255 41.5877C344.448 41.1123 343.65 40.6256 342.853 40.1393C341.948 39.5876 341.044 39.036 340.129 38.5021C339.415 38.0978 338.702 37.6906 337.99 37.2834C334.982 35.5636 331.976 33.8454 328.843 32.3617C326.331 31.1316 323.82 29.8912 321.38 28.5278C323.543 28.0795 325.705 27.6109 327.868 27.1421Z" fill="#1D1D1B"></path><path d="M123.289 27.6973C129.451 26.363 135.641 26.9207 141.835 27.4787C144.872 27.7523 147.91 28.026 150.946 28.0766C167.286 29.7065 183.421 33.7762 198.501 40.3061C186.753 48.8657 177.466 60.3572 169.675 72.5149L169.524 72.7733C167.411 76.3879 165.296 80.0063 163.493 83.791C162.458 85.9028 161.412 88.0247 160.305 90.1057C160.223 90.5772 160.059 91.5101 159.967 91.9816C159.529 92.9965 159.104 94.0185 158.679 95.0419C158.22 96.1479 157.76 97.2556 157.281 98.3578L156.871 100.203C156.471 101.228 156.072 102.263 155.692 103.299C154.155 108.711 152.781 114.165 151.592 119.659C151.277 121.35 150.956 123.04 150.636 124.732L150.634 124.742C148.405 136.515 146.17 148.322 145.462 160.284C144.614 165.11 144.69 169.991 144.766 174.869V174.87C144.802 177.183 144.838 179.496 144.775 181.801C144.429 188.792 145.127 195.746 145.824 202.696C146.697 211.389 147.568 220.074 146.395 228.813C146.113 230.559 145.96 232.319 145.807 234.079C145.627 236.161 145.446 238.243 145.052 240.304C143.801 252.144 146.118 264.025 149.152 275.434C149.89 277.167 150.557 278.92 151.192 280.693C153.037 284.906 155.129 289.007 157.332 293.056C165.39 305.337 175.374 317.279 189.008 323.501C186.123 327.073 183.177 330.593 180.231 334.113L180.226 334.12C177.279 337.64 174.333 341.16 171.448 344.731C170.112 346.354 168.815 348.013 167.518 349.672C164.17 353.955 160.821 358.24 156.779 361.912C149.931 369.057 141.208 375.915 130.782 375.669C121.905 376.489 114.555 370.328 108.732 364.393C97.8149 353.865 89.2655 340.867 83.7812 326.741C78.4938 312.906 74.0019 298.794 69.5115 284.686L69.5107 284.683C68.212 280.603 66.9135 276.524 65.5959 272.451C60.5332 258.57 57.1728 244.199 53.8141 229.835L53.8138 229.834L53.8137 229.833C52.7724 225.38 51.7313 220.928 50.6396 216.491C47.0825 201.237 44.1712 185.84 41.5162 170.412C41.3629 169.314 41.2078 168.216 41.0527 167.117L41.0521 167.113L41.0519 167.111C39.4331 155.647 37.8087 144.142 38.1641 132.535C37.6208 117.989 40.6243 103.535 44.6222 89.6239C51.3059 67.1741 67.4411 47.5126 88.7837 37.6101C99.6909 32.6281 111.162 28.2099 123.289 27.6973Z" fill="#1D1D1B"></path><path d="M256.46 36.4108C247.767 37.4871 239.32 40.0499 231.324 43.5865C229.247 44.6798 227.154 45.7165 225.058 46.7541L224.272 47.1436C208.577 56.0518 195.569 69.3474 186.445 84.8777C184.518 88.0021 183.005 91.3367 181.493 94.6702C180.946 95.8756 180.4 97.0807 179.834 98.2758C179.721 98.7269 179.505 99.629 179.403 100.07C176.634 106.244 175.107 112.825 173.586 119.386C173.316 120.548 173.047 121.71 172.771 122.868C172.412 124.685 172.03 126.499 171.648 128.314C170.631 133.143 169.613 137.975 169.039 142.878C168.648 144.944 168.505 147.04 168.363 149.134C168.17 151.974 167.978 154.812 167.163 157.568C168.044 156.91 168.917 156.242 169.791 155.574C172.773 153.294 175.757 151.012 179.024 149.141C179.298 149.007 179.572 148.873 179.846 148.738C181.623 147.866 183.402 146.993 185.205 146.158C185.557 145.969 186.133 145.668 186.651 145.398L187.124 145.15C187.237 145.091 187.34 145.037 187.43 144.99C187.788 144.926 188.426 144.8 188.914 144.704C189.053 144.677 189.18 144.652 189.285 144.631C189.682 144.482 190.08 144.331 190.479 144.18C191.122 143.937 191.767 143.692 192.412 143.452C193.596 143.141 194.778 142.816 195.962 142.49C200.811 141.157 205.673 139.821 210.699 139.393C216.13 137.814 221.755 139.006 227.165 140.152C227.586 140.242 228.005 140.331 228.423 140.418C228.895 140.541 229.859 140.797 230.33 140.93C238.193 143.801 244.528 149.644 249.09 156.543C249.3 156.898 249.512 157.253 249.724 157.609L249.724 157.61C250.922 159.621 252.122 161.637 253.21 163.718C254.092 165.53 254.877 167.384 255.663 169.238L255.664 169.24C256.212 170.534 256.76 171.828 257.342 173.108C257.444 173.59 257.639 174.554 257.731 175.036C258.141 176.061 258.551 177.096 258.941 178.142C259.234 179.238 259.499 180.347 259.765 181.459L259.765 181.461L259.766 181.463L259.767 181.465L259.847 181.803C259.88 181.939 259.913 182.075 259.945 182.211C262.795 194.482 264.118 207.121 263.656 219.72C262.846 228.843 261.893 237.957 259.966 246.926C259.361 249.663 258.695 252.39 257.895 255.076C256.993 258.233 255.968 261.349 254.697 264.384C254.635 264.667 254.541 265.12 254.452 265.541L254.452 265.542C254.394 265.822 254.338 266.088 254.297 266.28C253.764 267.405 253.219 268.524 252.673 269.644L252.672 269.646L252.672 269.647C251.394 272.271 250.115 274.896 248.987 277.597C248.333 279.205 247.704 280.832 247.075 282.458C246.906 282.895 246.737 283.332 246.568 283.768C246.219 284.794 245.861 285.819 245.502 286.844C243.288 295.25 242.129 303.963 242.129 312.646C244.415 313.168 246.67 313.825 248.915 314.522C251.888 316.613 254.348 319.391 255.886 322.692C256.614 324.721 257.29 326.761 257.926 328.822C259.402 333.712 259.658 338.806 259.761 343.87C260.795 350.728 260.706 357.646 260.617 364.562V364.564C260.575 367.862 260.532 371.16 260.612 374.449C260.694 379.486 260.651 384.528 260.607 389.571V389.572C260.516 400.251 260.424 410.931 261.524 421.563C261.329 435.392 263.4 449.313 268.095 462.352C272.083 472.88 278.9 483.52 289.991 487.477C297.977 490.06 306.721 491.475 314.983 489.281C329.858 486.083 344.599 479.143 354.47 467.262C361.205 458.2 364.137 446.975 365.921 435.996C366.184 433.443 366.529 430.895 366.874 428.348L366.874 428.347C367.592 423.052 368.309 417.759 368.289 412.409C368.529 406.976 369.213 401.587 369.896 396.199V396.199L369.896 396.198C370.645 390.302 371.393 384.408 371.559 378.457C372.032 374.548 372.455 370.633 372.878 366.718L372.878 366.716L372.878 366.715L372.878 366.714C373.563 360.374 374.247 354.036 375.147 347.725C375.207 347.107 375.266 346.488 375.325 345.869C376.103 337.697 376.894 329.393 380.2 321.79L380.411 321.326C382.731 316.203 385.105 310.962 388.986 306.803L386.32 306.721C385.254 306.157 384.198 305.613 383.132 305.08C377.843 302.702 374.532 297.833 371.538 293.097C370.048 289.721 368.358 286.441 366.67 283.164L366.668 283.161L366.474 282.784C366.352 282.535 366.229 282.286 366.107 282.037C365.185 280.165 364.265 278.295 363.296 276.449C363.184 275.988 362.958 275.076 362.845 274.614C362.46 273.351 362.118 272.074 361.777 270.798C361.074 268.171 360.372 265.545 359.288 263.041C359.277 262.995 359.264 262.944 359.25 262.889C359.236 262.833 359.22 262.773 359.204 262.71C359.144 262.477 359.074 262.206 359.007 261.949L359.006 261.948L359.002 261.93L358.996 261.908C358.931 261.659 358.87 261.425 358.827 261.257C357.423 258.693 356.285 256.009 355.146 253.324L355.145 253.322L355.144 253.32C354.653 252.163 354.162 251.006 353.65 249.858C352.188 247.161 350.99 244.338 349.793 241.517L349.792 241.515C349.538 240.916 349.284 240.317 349.027 239.72C348.361 238.227 347.744 236.713 347.128 235.2L347.126 235.197C346.765 234.311 346.404 233.425 346.034 232.544C345.882 232.276 345.656 231.874 345.428 231.469L345.419 231.452C345.188 231.042 344.957 230.632 344.804 230.361C344.767 230.15 344.716 229.845 344.663 229.531L344.661 229.516C344.597 229.132 344.531 228.736 344.486 228.485C343.603 226.818 342.884 225.08 342.166 223.343L342.166 223.342C341.709 222.237 341.253 221.132 340.754 220.048L340.385 218.203C339.934 217.17 339.503 216.131 339.072 215.092L339.071 215.091L339.071 215.089L339.07 215.087L339.07 215.087C338.62 214.002 338.17 212.919 337.7 211.847C337.659 211.66 337.604 211.403 337.546 211.131L337.544 211.121L337.536 211.085C337.45 210.684 337.359 210.26 337.3 209.992C336.869 208.967 336.459 207.931 336.07 206.896C335.762 205.543 335.434 204.19 335.106 202.847C334.835 201.897 334.568 200.942 334.303 199.993C334.188 199.579 334.073 199.167 333.958 198.757C333.566 196.812 333.464 194.839 333.362 192.868C333.267 191.026 333.172 189.185 332.841 187.368C331.713 180.161 332.338 172.801 334.081 165.748C334.159 165.485 334.278 165.061 334.391 164.662C334.471 164.378 334.548 164.105 334.604 163.913C334.86 163.391 335.113 162.866 335.367 162.341C335.621 161.815 335.875 161.289 336.131 160.766C341.277 151.284 350.8 145.051 360.539 140.961L360.926 140.835L360.927 140.835C362.498 140.324 364.063 139.814 365.654 139.331C376.613 136.522 388.422 136.481 399.308 139.649C399.011 138.06 398.714 136.471 398.314 134.903C398.248 134.678 398.146 134.342 398.044 134.005L398.042 134.001C397.94 133.663 397.837 133.324 397.771 133.099C395.608 128.199 393.045 123.483 389.929 119.116C387.787 115.991 385.69 112.821 383.591 109.647L383.59 109.644L383.589 109.643C375.561 97.5051 367.5 85.3167 356.767 75.3955C349.605 67.5939 340.693 61.7706 331.885 56.0155L330.811 55.3137C328.463 53.858 326.075 52.4844 323.604 51.244C317.966 48.3635 312.123 45.9135 306.219 43.6377C305.183 43.3097 304.158 42.9817 303.154 42.6434C300.734 41.9976 298.336 41.321 295.957 40.5829C283.174 36.8618 269.745 35.3754 256.46 36.4108Z" fill="#1D1D1B"></path><path fill-rule="evenodd" clip-rule="evenodd" d="M368.576 160.941C376.315 158.45 384.783 158.491 392.522 160.941C392.599 160.961 392.688 160.985 392.786 161.01C392.921 161.046 393.073 161.086 393.23 161.127L393.235 161.128C393.64 161.234 394.077 161.349 394.347 161.422C396.561 162.571 398.786 163.688 401.061 164.733C401.246 177.619 399.278 190.515 396.192 203.011C396.725 204.354 397.279 205.686 397.883 206.999C397.65 212.184 398.308 217.309 398.967 222.432C399.636 227.639 400.305 232.845 400.036 238.11C399.918 241.286 399.993 244.48 400.069 247.674V247.675C400.203 253.316 400.337 258.961 399.401 264.517C399.134 265.399 398.888 266.291 398.652 267.193C398.27 268.702 398.001 270.228 397.731 271.763L397.73 271.767L397.72 271.823C397.689 271.998 397.658 272.173 397.627 272.349C396.838 276.716 396.018 281.073 394.726 285.327L393.301 285.286C392.757 284.336 392.199 283.4 391.642 282.466C391.099 281.555 390.558 280.646 390.031 279.73C389.337 278.371 388.621 277.021 387.905 275.67L387.904 275.669C385.076 270.337 382.245 264.999 380.764 259.094C380.662 258.633 380.457 257.7 380.364 257.239C379.878 256.176 379.434 255.093 378.99 254.011C378.266 252.246 377.542 250.48 376.633 248.802C376.551 248.341 376.397 247.408 376.326 246.947C376.172 246.67 375.939 246.255 375.705 245.84L375.691 245.814C375.462 245.407 375.236 245.004 375.085 244.733C374.654 243.722 374.238 242.705 373.821 241.687L373.821 241.686C373.257 240.308 372.693 238.929 372.092 237.567C371.595 236.492 371.139 235.4 370.684 234.308C370.002 232.674 369.321 231.042 368.504 229.469C367.427 227.247 366.519 224.951 365.61 222.654C364.583 220.055 363.555 217.456 362.282 214.964L362.279 214.946C362.206 214.469 362.065 213.543 361.984 213.077C361.533 212.311 361.088 211.538 360.644 210.769L360.16 209.93L359.832 208.085C358.225 204.466 357.065 200.679 355.908 196.904C355.662 196.102 355.417 195.301 355.167 194.503C354.132 187.399 353.107 180.079 354.358 172.955C355.803 166.927 361.585 163.872 366.72 161.412C367.182 161.289 368.114 161.053 368.576 160.941ZM360.006 171.694C359.9 172.134 359.746 172.576 359.591 173.019C359.234 174.042 358.872 175.078 359.094 176.143C359.949 178.47 361.875 180.083 363.738 181.644C363.878 181.761 364.018 181.879 364.157 181.996C364.295 182.112 364.432 182.228 364.568 182.345C369.078 184.303 373.609 182.263 377.187 179.433C378.098 177.92 379.025 176.42 379.953 174.917L379.954 174.916C380.132 174.628 380.31 174.34 380.487 174.052C380.528 172.863 380.569 171.684 380.631 170.505C373.906 167.85 366.649 169.828 360.006 171.694Z" fill="#1D1D1B"></path><path fill-rule="evenodd" clip-rule="evenodd" d="M224.241 164.836C218.449 162.14 211.796 163.206 205.81 164.6C203.422 165.359 201.024 166.025 198.626 166.691L198.625 166.691L198.624 166.692C197.58 167.029 196.546 167.357 195.512 167.684L195.507 167.686C194.916 167.966 194.327 168.249 193.738 168.531L193.722 168.539L193.717 168.541L193.705 168.547C192.907 168.929 192.111 169.31 191.315 169.685C181.607 175.19 172.873 182.601 166.241 191.602C166.275 195.507 166.793 199.404 167.31 203.298C168.172 209.789 169.033 216.272 167.655 222.775C167.276 228.608 166.456 234.4 165.492 240.161C164.888 248.925 164.908 257.854 167.573 266.311C167.953 267.326 168.332 268.351 168.701 269.376C169.008 270.412 169.306 271.447 169.603 272.493C169.774 272.818 169.945 273.143 170.116 273.467L170.126 273.485C170.475 274.146 170.823 274.806 171.171 275.476C171.684 276.552 172.197 277.628 172.699 278.715C174.113 281.473 175.579 284.199 177.22 286.834C182.786 295.906 191.376 302.528 200.592 307.592C203.042 308.494 205.451 309.489 207.829 310.596C208.854 310.934 209.89 311.283 210.915 311.641C211.824 311.89 212.737 312.129 213.65 312.368L213.652 312.369C215.64 312.89 217.631 313.412 219.597 314.03C219.505 310.237 219.618 306.444 220.366 302.733C221.074 295.25 221.976 287.726 224.467 280.601C224.533 280.366 224.633 280.01 224.733 279.654L224.888 279.101C224.93 278.951 224.969 278.815 225 278.705C225.08 278.459 225.16 278.213 225.24 277.966C225.325 277.708 225.409 277.449 225.493 277.19L225.515 277.122C225.682 276.61 225.848 276.098 226.015 275.588C226.527 274.574 227.05 273.559 227.593 272.544C228.553 270.403 229.421 268.229 230.288 266.06L230.576 265.337C232.278 262.375 233.836 259.33 234.81 256.04C234.923 255.578 235.148 254.646 235.261 254.174C235.593 253.03 235.9 251.878 236.206 250.728L236.207 250.725L236.208 250.721L236.209 250.718C236.373 250.099 236.538 249.48 236.706 248.864C237.034 247.48 237.362 246.096 237.752 244.733C241.155 229.356 242.334 213.416 239.833 197.814C239.441 196.325 239.157 194.814 238.874 193.306C238.832 193.079 238.789 192.853 238.746 192.627C238.401 191.401 238.129 190.16 237.857 188.923L237.854 188.906C237.82 188.752 237.786 188.598 237.752 188.444L237.605 187.936C236.65 184.638 235.69 181.323 234.267 178.193C232.175 173.016 229.469 167.471 224.241 164.836ZM210.673 178.527C211.068 178.468 211.463 178.409 211.725 178.368C214.441 177.353 217.383 177.517 220.161 178.152C220.679 178.378 221.194 178.606 221.708 178.834C222.224 179.062 222.739 179.29 223.257 179.516L225.102 179.885C225.465 180.029 226.042 180.264 226.569 180.48C226.906 180.617 227.222 180.746 227.45 180.838C229.346 181.894 231.571 183.801 230.761 186.24C229.11 189.244 226.23 191.233 223.319 192.863C221.924 193.119 220.551 193.406 219.187 193.713C217.424 193.426 215.661 193.139 213.898 192.893C213.729 192.745 213.559 192.596 213.389 192.447C210.564 189.972 207.614 187.387 206.261 183.79C207.03 181.873 208.311 180.243 209.623 178.685C209.884 178.644 210.279 178.585 210.673 178.527Z" fill="#1D1D1B"></path><path d="M393.64 349.344C394.121 337.084 399.708 325.706 407.386 316.357C412.881 320.852 420.145 320.427 426.903 320.031C427.912 319.972 428.909 319.914 429.887 319.873C434.99 318.887 440.149 318.557 445.308 318.226C450.026 317.923 454.744 317.621 459.421 316.818C459.635 317.129 459.928 317.434 460.226 317.745C461.068 318.622 461.957 319.549 461.276 320.806C458.283 327.869 452.358 333.127 446.586 337.935C432.952 349.027 414.47 352.85 397.279 350.523C396.281 350.259 395.309 349.922 394.343 349.587L394.342 349.587C394.107 349.506 393.874 349.424 393.64 349.344Z" fill="#1D1D1B"></path><path d="M237.69 337.638C233.508 337.73 229.367 337.248 225.276 336.408C221.35 341.123 216.471 344.855 210.976 347.551C209.51 348.237 208.065 348.965 206.64 349.724C206.168 349.785 205.225 349.908 204.754 349.96C204.004 350.396 203.254 350.839 202.508 351.278C202.203 351.458 201.899 351.637 201.596 351.815C201.115 351.887 200.161 352.02 199.68 352.082C198.644 352.522 197.609 352.943 196.563 353.332C196.146 353.433 195.728 353.534 195.311 353.634C194.376 353.858 193.442 354.082 192.514 354.316C191.451 354.594 190.381 354.847 189.315 355.1C189.004 355.173 188.693 355.247 188.383 355.321C187.866 355.469 187.35 355.619 186.833 355.769C184.96 356.313 183.083 356.858 181.187 357.34C179.013 358.007 176.83 358.663 174.636 359.309C174.175 360.323 173.714 361.338 173.263 362.363C178.491 369.59 187.348 372.717 195.548 375.249C199.739 376.384 204.046 376.525 208.351 376.666C209.49 376.704 210.629 376.741 211.766 376.797L211.916 376.791C216.735 376.619 221.563 376.446 226.271 375.28C228.096 374.337 229.958 373.466 231.822 372.595C234.332 371.421 236.845 370.247 239.269 368.893C239.121 366.201 239.128 363.502 239.135 360.802C239.145 357.138 239.155 353.474 238.777 349.826C238.252 346.967 238.085 344.067 237.918 341.166C237.85 339.989 237.782 338.812 237.69 337.638Z" fill="#1D1D1B"></path></svg> 