<?xml version="1.0" encoding="UTF-8"?> <svg xmlns="http://www.w3.org/2000/svg" id="Layer_1" data-name="Layer 1" viewBox="0 0 121.94 91.98"><defs><style>.cls-1{fill:none}.cls-2{fill:#004066}</style></defs><path class="cls-1" d="M59.52 20.42L36.48 6.98v.04l22.98 13.4L77.1 30.66l.03-.02-17.61-10.22zm11.12 14.07L36.48 54.45v.32l5.34-3.18 28.82-17.1zM39 61.32l.11-.05 49.54-29 .1-.07z"></path><path class="cls-2" d="M88.63 29.18L65.68 15.86l-5.23-3L39.1.36c-1.44-.84-2.61-.16-2.61 1.5V7l23 13.44 17.64 10.2-6.5 3.8-28.81 17.15-5.34 3.18v5c0 1.62 1.12 2.29 2.5 1.55l49.75-29.16c1.33-.84 1.27-2.16-.1-2.98z"></path><path d="M36.48 16.7l7.04-4.58-7.04-4.1v8.68zm0 28.87l7.39 3.36V13.05l-7.39 4.81v27.71z" fill="#ef4135"></path><path class="cls-1" d="M88.63 29.18L65.68 15.86l-5.23-3L39.1.36c-1.44-.84-2.61-.16-2.61 1.5V7l23 13.44 17.64 10.2-6.5 3.8-28.81 17.15-5.34 3.18v5c0 1.62 1.12 2.29 2.5 1.55l36.15-21.19-6.91-3.95 9.1-5.45 7 4 4.4-2.58c1.34-.83 1.28-2.15-.09-2.97z"></path><path fill="#00a0d9" d="M44.93 12.91v20.36l.01-.01 6.29-3.68v-6.17l5.26 3.08 5.31-3.11.5-.29-17.37-10.18z"></path><path fill="#8dc63f" d="M51.13 38.14l5.68 3.33 6.58-3.86v-6.67l5.69 3.33 6.14-3.6-11.93-7-6.01 3.52v6.95l-5.92-3.47-6.43 3.77v13.99l6.2-3.63v-6.66z"></path><path class="cls-2" d="M14.52 80.36c3.11-.91 4.69-2.87 4.69-5.81 0-4.12-2.94-5.77-6.31-6.18a30.81 30.81 0 00-3.65-.17H0v23.3h6.08v-8.84h3.27c1.55.1 2.57 1.59 2.87 4.15a23.22 23.22 0 001.08 4.69h6.62a12.36 12.36 0 01-1.76-5.67c-.33-2.83-1.16-4.59-3.64-5.47zm-4.63-2.13H6.08v-5.3h3.98c1.55.13 2.8.67 2.8 2.63s-1.41 2.54-2.97 2.67zM30.72 73a9.18 9.18 0 00-9.62 9.56c0 6.35 4.12 9.42 9.29 9.42 4.63 0 8-2.3 9-6.38h-6a2.72 2.72 0 01-3 2.26c-1.72 0-3-.84-3.34-3.85h12.62a16.3 16.3 0 00.1-1.76c0-4.66-3.04-9.25-9.05-9.25zm-3.41 7.29c.41-2.23 1.52-3.17 3.11-3.17s2.67 1 3 3.17zm23.31 7.57c-2.06 0-3.21-1.69-3.21-5.54 0-3.48 1.11-5.2 3.14-5.2 1.52 0 2.7.88 3 3.24h5.85C59.23 76.31 56 73 50.69 73s-9.49 3.48-9.49 9.69c0 5.94 3.92 9.29 9.08 9.29 4.9 0 8.51-2.43 9.19-7.09h-6c-.31 1.95-1.47 2.97-2.85 2.97zm18.54-13.27l-1.28 2.53v-3.65H61.8v18h6.08v-6.58c0-5.44 1.66-7.12 6.21-6.82v-5a8.32 8.32 0 00-1.38-.1 5 5 0 00-3.55 1.62zm18.52 9.08c0 2.4-1.15 4.19-3.07 4.19s-2.74-1-2.94-2.74a24.24 24.24 0 01-.13-2.46v-9.19h-6.08V84a23.8 23.8 0 00.17 3.41C76 89.88 78.3 92 82 92a7.51 7.51 0 004.05-1l1.62-2.46v3h6.08v-18h-6.07zm12.55-17.53a3 3 0 103.14 3 2.87 2.87 0 00-3.14-3zm-3.04 7.33h6.08V91.5h-6.08zm16.72-4.52h-6.08v4.66H105v3.78h2.87v7.53c0 1 0 1.86.07 2.9.2 2.77 1.55 4.15 6 4.15a20.51 20.51 0 003.58-.3v-3.78c-2.87.13-3.44-.27-3.58-2.09v-8.41h4v-3.78h-4zm8.03 1.7a1.7 1.7 0 11-1.7-1.7 1.63 1.63 0 011.7 1.7zm-.39 0a1.31 1.31 0 10-1.31 1.35 1.27 1.27 0 001.31-1.35zm-.68.36a1.42 1.42 0 00.11.44h-.46a2.62 2.62 0 01-.06-.36c0-.15-.11-.19-.23-.19H120v.55h-.4V69.8h.78c.32 0 .54.16.54.45a.44.44 0 01-.35.4c.22.04.28.18.3.35zm-.35-.67a.18.18 0 00-.16-.2H120v.43h.31a.19.19 0 00.21-.23z"></path></svg> 