<?xml version="1.0" encoding="UTF-8"?> <svg xmlns="http://www.w3.org/2000/svg" width="1667" height="454" viewBox="0 0 1667 454" fill="none"><g clip-path="url(#clip0_514_270)"><path d="M869.346 47.8401C876.106 47.8267 882.879 47.8267 889.653 47.8401C889.666 100 889.679 152.16 889.653 204.32C882.879 204.347 876.106 204.333 869.346 204.333C869.333 152.16 869.333 100 869.346 47.8401Z" fill="#27398E"></path><path d="M909.668 47.8541C916.441 47.8141 923.215 47.8407 929.988 47.8407C930.015 100.001 930.015 152.174 929.988 204.334C923.215 204.334 916.441 204.347 909.668 204.321C909.668 152.174 909.668 100.014 909.668 47.8541Z" fill="#27398E"></path><path d="M1285.35 47.8401C1292.16 47.8267 1298.99 47.8267 1305.83 47.8401C1305.84 54.3867 1305.83 60.9334 1305.84 67.4801C1299 67.5201 1292.17 67.4801 1285.35 67.5067C1285.32 60.9467 1285.33 54.4001 1285.35 47.8401Z" fill="#25408E"></path><path d="M559.893 57.3339C572.359 54.9472 586.119 56.0405 596.973 63.0939C609.359 71.0672 616.813 85.7472 616.053 100.467C609.466 100.534 602.879 100.481 596.306 100.507C596.159 91.0539 593.026 80.6405 584.653 75.3205C576.666 70.5605 565.906 70.5339 557.893 75.2272C547.106 82.1072 544.479 98.8272 552.453 108.761C558.106 115.441 566.466 118.921 574.479 121.881C584.773 125.201 595.079 129.374 603.346 136.547C621.386 151.214 621.786 183.347 602.706 197.321C593.666 204.254 581.946 206.667 570.733 206.347C556.626 206.187 542.346 200.401 532.933 189.734C526.186 182.054 523.799 171.534 524.146 161.534C530.719 161.467 537.293 161.534 543.866 161.467C544.146 168.614 545.253 176.307 550.146 181.867C556.813 189.561 567.866 191.894 577.586 190.374C584.026 189.507 590.133 185.801 593.319 180.067C599.293 169.067 596.679 153.201 585.679 146.307C576.106 139.547 564.173 137.947 553.866 132.667C545.933 128.694 538.053 123.707 533.093 116.174C527.079 106.974 526.226 95.1339 528.839 84.6672C532.626 70.4405 545.706 60.0005 559.893 57.3339Z" fill="#27398E"></path><path d="M1001.51 58.3331C1015.65 58.3464 1029.79 58.3064 1043.93 58.3464C1055.29 58.5331 1067.4 61.3864 1075.72 69.5998C1084.4 78.0264 1086.56 91.0531 1085.37 102.64C1084.19 113.626 1076.64 123.493 1066.43 127.653C1078.6 130.226 1087.21 141.253 1089.41 153.133C1091.52 165.146 1090.43 178.533 1083.33 188.8C1076.03 199.266 1062.95 203.946 1050.59 204.213C1034.23 204.493 1017.87 204.266 1001.51 204.333C1001.49 155.666 1001.49 107 1001.51 58.3331ZM1021.84 73.8398C1021.93 89.7464 1021.63 105.68 1021.99 121.586C1030.24 121.293 1038.51 121.76 1046.75 121.346C1053.16 120.96 1059.37 117.333 1062.33 111.546C1065.96 104.333 1065.97 95.6931 1063.96 88.0131C1062.19 81.2131 1056.29 75.9731 1049.44 74.6931C1040.33 73.0664 1031.03 74.1331 1021.84 73.8398ZM1021.83 136.346C1021.84 153.786 1021.81 171.226 1021.84 188.666C1031.87 188.48 1041.91 189.04 1051.91 188.386C1060.53 187.6 1067.51 180.453 1069.09 172.106C1070.88 162.746 1070.49 152.293 1065.37 143.986C1062.33 138.986 1056.45 136.306 1050.72 136.346C1041.09 136.293 1031.45 136.346 1021.83 136.346Z" fill="#27398E"></path><path d="M668.213 95.1193C676.507 92.6926 686.32 93.2126 693.24 98.866C697.933 102.493 700.6 107.986 702.68 113.399C706.2 105.906 711.76 98.8526 719.64 95.706C729.44 91.946 741.813 93.466 749.147 101.439C757.453 110.253 759.44 122.933 759.96 134.573C760.04 157.826 759.973 181.079 759.987 204.333C753.213 204.333 746.44 204.346 739.68 204.319C739.627 181.999 739.707 159.666 739.64 137.346C739.32 129.973 739.12 122.026 735.04 115.613C730.693 108.759 720.293 107.946 714.253 112.973C709.68 116.813 707.013 122.546 705.627 128.266C705.693 153.599 705.667 178.973 705.653 204.319C698.88 204.346 692.107 204.333 685.347 204.333C685.333 181.986 685.347 159.653 685.347 137.319C685.16 130.519 684.693 123.426 681.547 117.279C679.253 112.786 674.48 109.586 669.373 109.773C659.68 109.173 650.347 118.319 651.307 128.039C651.36 153.466 651.333 178.893 651.32 204.333C644.547 204.333 637.773 204.346 631 204.319C631 168.159 631 132.013 631 95.8526C637.213 95.8126 643.427 95.8393 649.64 95.8393C650.027 100.599 650.4 105.373 650.693 110.146C654.627 103.386 660.547 97.3993 668.213 95.1193Z" fill="#27398E"></path><path d="M787.985 102.68C796.919 94.7071 809.652 92.6671 821.212 94.2671C830.239 95.5071 838.932 100.32 844.092 107.947C848.599 114.547 850.065 122.734 850.012 130.614C849.985 147.094 850.012 163.587 849.985 180.067C849.959 188.254 850.932 196.454 853.185 204.334C846.332 204.334 839.465 204.32 832.612 204.347C831.239 199.734 830.292 195 829.892 190.214C825.225 197.36 818.439 203.667 809.945 205.68C800.225 207.694 788.985 205.48 782.225 197.787C774.505 189.147 773.172 176.48 775.425 165.507C777.545 155.574 785.465 147.627 794.879 144.267C805.972 139.96 818.052 141.44 829.665 141.147C829.425 132.894 830.812 123.854 826.319 116.427C821.119 107.44 806.532 106.88 800.452 115.187C797.785 118.44 796.879 122.654 796.719 126.747C790.132 126.627 783.559 126.68 776.985 126.654C776.332 117.374 780.985 108.52 787.985 102.68ZM800.705 188.574C811.385 194.907 825.545 186.627 829.545 175.88C829.879 168.547 829.559 161.187 829.665 153.84C822.905 154.014 816.079 153.32 809.385 154.414C794.732 157.174 789.652 179.147 800.705 188.574Z" fill="#27398E"></path><path d="M1218.7 95.987C1229.06 92.747 1240.76 92.8803 1250.82 97.1203C1262.54 102.134 1270.44 114.707 1269.36 127.494C1262.8 127.52 1256.25 127.467 1249.69 127.534C1249.36 123.294 1248.57 118.947 1246.05 115.427C1240.3 105.974 1224.12 106.64 1219.02 116.4C1215.97 121.934 1216.88 129.894 1222.09 133.827C1234.05 143.294 1250.32 145.214 1261.54 155.814C1270.18 163.36 1272.08 176.507 1268.13 186.92C1264.04 197.24 1253.56 203.747 1242.93 205.547C1234.13 206.96 1224.84 206.747 1216.41 203.587C1203.6 198.827 1194.01 185.587 1195.12 171.68C1201.46 171.654 1207.81 171.667 1214.17 171.667C1214.7 177.307 1215.84 183.614 1220.62 187.28C1227.68 192.774 1238.98 193.227 1245.86 187.227C1252.17 181.374 1251.12 170.107 1244.34 165.014C1233.72 156.507 1219.58 154.187 1208.89 145.734C1201.8 140.947 1197.26 132.64 1197.62 124.027C1197.1 111.2 1206.89 99.8403 1218.7 95.987Z" fill="#27398E"></path><path d="M1344.84 111.427C1348.85 104.307 1354.8 97.8 1362.75 95.16C1372.87 91.9866 1385.21 94.0666 1392.33 102.373C1400.31 111.547 1401.49 124.36 1401.77 136C1401.91 158.773 1401.8 181.547 1401.83 204.32C1394.99 204.347 1388.16 204.333 1381.35 204.333C1381.32 181.547 1381.35 158.747 1381.33 135.96C1381.09 129.227 1380.84 122 1377.17 116.12C1372.32 108.68 1361.05 107.893 1354.2 112.907C1350.41 115.747 1347.29 119.64 1345.63 124.067C1345.32 150.813 1345.6 177.573 1345.49 204.32C1338.72 204.347 1331.95 204.347 1325.17 204.32C1325.16 168.16 1325.16 132 1325.17 95.84C1331.37 95.8266 1337.57 95.8266 1343.79 95.84C1344.17 101.027 1344.55 106.227 1344.84 111.427Z" fill="#27398E"></path><path d="M1436.13 100.134C1445.96 93.0407 1459.27 92.2541 1470.57 95.8141C1481.09 99.1207 1488.63 108.467 1492.04 118.667C1496.09 130.094 1495.27 142.401 1495.31 154.334C1475.92 154.347 1456.53 154.321 1437.13 154.347C1436.91 164.974 1438.32 176.641 1445.85 184.761C1451.08 190.547 1459.52 191.641 1466.85 190.374C1474.39 189.534 1480.99 185.321 1486.51 180.347C1488.61 184.627 1490.77 188.894 1492.99 193.134C1484.33 202.534 1471.21 206.734 1458.67 206.361C1448.55 206.401 1438.24 202.867 1431.01 195.627C1421.4 186.441 1416.99 172.987 1416.91 159.907C1416.87 150.534 1416.4 141.094 1417.72 131.787C1419.55 119.441 1425.91 107.507 1436.13 100.134ZM1446.08 114.121C1439.77 121.001 1437.73 130.614 1437.21 139.654C1449.8 139.681 1462.4 139.667 1474.99 139.667C1475.32 130.841 1474.56 121.081 1468.53 114.107C1462.87 107.747 1451.72 107.734 1446.08 114.121Z" fill="#27398E"></path><path d="M1515.41 103.507C1525.59 93.5334 1541.33 92.0667 1554.63 95.2667C1568.92 98.64 1579.61 112.693 1578.55 127.453C1571.96 127.547 1565.39 127.467 1558.83 127.52C1558.4 122.987 1557.49 118.293 1554.56 114.653C1548.63 106.307 1534.15 106.867 1528.69 115.427C1524.83 121.053 1525.72 129.8 1531.33 133.973C1543.05 143.16 1558.87 145.133 1570.01 155.267C1580.04 163.573 1581.83 179.227 1575.56 190.307C1570.51 198.92 1561.03 204.173 1551.32 205.667C1541.79 207.04 1531.63 206.64 1522.81 202.453C1511.31 196.987 1503.24 184.6 1504.11 171.693C1510.49 171.64 1516.89 171.667 1523.29 171.68C1523.73 176.813 1524.63 182.387 1528.45 186.187C1535 192.453 1546.17 193.347 1553.65 188.28C1560.93 183.16 1560.8 171.36 1554.23 165.707C1544.65 157.413 1531.67 155.053 1521.29 148.027C1514.91 144.12 1509.05 138.44 1507.45 130.853C1504.99 121.16 1508 110.293 1515.41 103.507Z" fill="#27398E"></path><path d="M1592.63 124.067C1592.03 110.281 1603.27 98.4008 1616.17 95.2408C1626.16 92.8675 1637.16 93.1341 1646.6 97.4808C1657.92 102.681 1665.36 115.001 1664.37 127.481C1657.8 127.521 1651.24 127.481 1644.68 127.521C1644.35 123.187 1643.49 118.747 1640.87 115.174C1634.97 105.921 1618.88 106.761 1613.95 116.561C1611.01 122.014 1611.91 129.747 1616.93 133.707C1628.59 143.054 1644.41 145.014 1655.64 155.014C1668.23 165.134 1668.13 186.734 1655.92 197.107C1645.17 206.587 1629.48 207.974 1615.97 205.014C1601 201.774 1588.89 187.281 1590.07 171.694C1596.43 171.641 1602.79 171.681 1609.16 171.654C1609.69 176.667 1610.47 182.134 1614.15 185.921C1620.55 192.387 1631.71 193.334 1639.31 188.494C1646.92 183.414 1646.81 171.121 1639.89 165.494C1629.45 156.694 1615.25 154.481 1604.48 146.174C1597.13 141.374 1592.21 132.961 1592.63 124.067Z" fill="#27398E"></path><path d="M1104.84 95.8401C1111.61 95.8267 1118.39 95.8267 1125.16 95.8401C1125.23 118.973 1125.04 142.12 1125.25 165.253C1125.84 173.213 1126.24 182.813 1133.11 188.173C1144.8 195.547 1163.49 184.787 1161.36 170.613C1161.31 145.68 1161.35 120.76 1161.35 95.8401C1168.11 95.8267 1174.88 95.8267 1181.65 95.8401C1181.68 132 1181.68 168.16 1181.65 204.32C1175.6 204.333 1169.55 204.347 1163.49 204.32C1163.05 199.587 1162.6 194.853 1162.28 190.12C1157.84 198.013 1150.39 204.667 1141.16 205.96C1131.04 207.76 1119.73 204.373 1113.57 195.827C1105.24 184.427 1104.79 169.56 1104.83 155.987C1104.85 135.933 1104.81 115.893 1104.84 95.8401Z" fill="#27398E"></path><path d="M1285.35 95.8401C1292.16 95.8267 1298.99 95.8267 1305.83 95.8401C1305.84 132 1305.84 168.16 1305.83 204.32C1298.99 204.347 1292.16 204.333 1285.35 204.333C1285.33 168.16 1285.33 132 1285.35 95.8401Z" fill="#27398E"></path><path d="M1237.04 249.066C1248.28 240.12 1263.31 238.04 1277.25 238.4C1290.65 238.826 1305.19 241.866 1314.75 252C1323.37 260.96 1325.57 274 1325.19 285.986C1313.09 286.013 1301 285.986 1288.92 286C1288.59 280.56 1288.63 274.8 1286.05 269.853C1281.64 261.333 1267.76 261.666 1262.49 269.12C1257.15 277.733 1258.81 290.573 1267.52 296.4C1281.25 306 1298.95 308.053 1312.2 318.56C1321.27 325.306 1326.8 336.106 1327.71 347.306C1328.75 360.906 1327.24 375.653 1319.08 387.053C1312.08 396.826 1300.31 401.88 1288.73 403.64C1276.19 405.386 1263.21 405.253 1250.87 402.266C1240.17 399.72 1229.79 393.333 1225.04 383.093C1220.28 373.693 1220.96 362.893 1221 352.68C1233.11 352.64 1245.21 352.693 1257.32 352.666C1257.35 360.56 1256.55 369.946 1262.72 375.973C1270.25 382.146 1284.05 380.4 1288.27 371.013C1291.21 364.146 1291.41 355.466 1286.92 349.213C1282.81 343.56 1276.17 340.64 1269.95 338C1256.91 332.733 1242.53 328.586 1232.73 317.893C1223.4 307.84 1221.01 293.346 1222.07 280.106C1222.85 268.4 1227.61 256.453 1237.04 249.066Z" fill="#3E5F9E"></path><path d="M519.347 241.506C554.174 241.506 589.001 241.506 623.827 241.506C623.827 251.719 623.827 261.933 623.827 272.159C612.654 272.173 601.494 272.159 590.334 272.173C590.321 315.333 590.334 358.493 590.334 401.653C577.827 401.679 565.334 401.666 552.841 401.653C552.827 358.493 552.841 315.333 552.841 272.173C541.667 272.146 530.507 272.173 519.347 272.159C519.321 261.946 519.334 251.719 519.347 241.506Z" fill="#3E5F9E"></path><path d="M654.506 241.507C675.946 241.52 697.386 241.48 718.813 241.52C729.959 241.64 741.839 244.56 749.786 252.84C757.559 260.627 760.386 271.987 760.493 282.694C760.506 292.627 759.026 303.28 752.613 311.267C747.893 317.307 740.626 320.574 733.386 322.48C741.319 323.68 749.986 326.52 754.279 333.867C759.733 343.36 758.959 354.774 759.413 365.334C759.893 375.067 759.346 385.04 761.853 394.534C762.426 397.667 766.333 398.467 766.853 401.6C753.159 401.747 739.466 401.627 725.773 401.667C718.986 384.027 724.199 364.627 720.146 346.494C719.213 342.08 716.666 337.307 711.933 336.187C705.439 334.854 698.746 335.747 692.173 335.507C692.159 357.56 692.173 379.6 692.159 401.654C679.613 401.667 667.053 401.68 654.506 401.654C654.493 348.28 654.493 294.894 654.506 241.507ZM692.173 268.174C692.159 281.774 692.159 295.387 692.173 309C699.519 308.694 707.559 310.214 714.253 306.347C720.559 302.667 722.893 294.907 722.853 288C722.853 281.747 721.373 274.48 715.626 270.974C708.546 266.707 699.973 268.56 692.173 268.174Z" fill="#3E5F9E"></path><path d="M800.492 241.52C831.279 241.493 862.052 241.493 892.839 241.52C892.839 251.693 892.786 261.88 892.866 272.067C874.639 272.293 856.399 272.093 838.172 272.173C838.159 282.787 838.159 293.387 838.172 304C855.279 304.027 872.386 304 889.492 304.013C889.492 314.227 889.506 324.44 889.492 334.653C872.386 334.667 855.279 334.64 838.172 334.667C838.159 346.773 838.159 358.893 838.172 371C857.212 371 876.266 371 895.319 371C895.346 381.227 895.332 391.44 895.319 401.667C863.719 401.667 832.119 401.667 800.519 401.667C800.479 348.28 800.519 294.893 800.492 241.52Z" fill="#3E5F9E"></path><path d="M930.014 241.506C944.387 241.506 958.774 241.493 973.161 241.506C983.507 276.279 993.721 311.093 1004.12 345.839C1004.24 311.066 1004.13 276.279 1004.17 241.506C1015.83 241.506 1027.49 241.506 1039.16 241.506C1039.16 294.893 1039.17 348.279 1039.16 401.666C1025.01 401.693 1010.88 401.626 996.747 401.693C985.534 364.759 974.827 327.679 963.574 290.759C963.387 327.733 963.561 364.693 963.494 401.666C952.321 401.666 941.161 401.666 930.014 401.666C930.001 348.279 930.001 294.893 930.014 241.506Z" fill="#3E5F9E"></path><path d="M1080.17 241.507C1099.24 241.52 1118.29 241.48 1137.36 241.52C1149.09 241.654 1161.6 243.987 1170.65 251.987C1179.81 260.04 1184.03 272.107 1186.21 283.787C1188.25 294.814 1188.8 306.08 1188.68 317.294C1188.65 334.28 1188.44 351.534 1184.07 368.054C1181.17 379.054 1174.81 389.774 1164.44 395.134C1150.85 402.414 1134.93 401.667 1120 401.667C1106.72 401.667 1093.44 401.68 1080.17 401.667C1080.17 348.28 1080.17 294.894 1080.17 241.507ZM1117.83 269.507C1117.84 304.227 1117.81 338.947 1117.85 373.667C1124.72 373.4 1131.97 374.614 1138.52 371.92C1144.52 369.307 1147.04 362.654 1148.4 356.707C1151.05 344.24 1150.91 331.4 1151.15 318.72C1150.88 307.16 1151.25 295.427 1148.59 284.094C1147.29 278.867 1144.47 273.48 1139.27 271.307C1132.48 268.494 1124.96 269.774 1117.83 269.507Z" fill="#3E5F9E"></path><circle cx="226.838" cy="226.496" r="226.838" fill="url(#paint0_linear_514_270)"></circle></g><defs><linearGradient id="paint0_linear_514_270" x1="356.665" y1="73.99" x2="110.005" y2="425.396" gradientUnits="userSpaceOnUse"><stop stop-color="#6199DC"></stop><stop offset="1" stop-color="#25408E"></stop></linearGradient><clipPath id="clip0_514_270"><rect width="1666.67" height="453.333" fill="white"></rect></clipPath></defs></svg> 