<svg xmlns="http://www.w3.org/2000/svg" width="1120" height="736" viewBox="0 0 1120 736"><defs><clipPath clipPathUnits="userSpaceOnUse" id="a"><path d="M0 552h840V0H0z"/></clipPath></defs><g clip-path="url(#a)" transform="matrix(1.33333 0 0 -1.33333 0 736)"><path d="M104.916 335.176a231.258 231.258 0 01-8.55-6.116c-7.299 6.165-19.728 11.221-32.49 18.303a209.489 209.489 0 0011.969 7.48c20.691 11.97 41.931 21.317 60.927 28.437 9.192-6.327 17.795-14.256 23.887-24.817-20.292-5.147-40.02-12.575-55.743-23.287m53.816 106.653l-2.396-19.155c-16.67 3.867-31.22 7.023-42.758 8.2 19.272 5.575 35.788 9.13 45.154 10.955M92.847 303.482c5.892 1.05 9.103 4.48 9.897 10.451 3.475 3.4 7.33 6.94 11.601 10.623 13.25 11.427 31.108 19.991 50 26.406 3.292-7.974 5.244-17.252 5.244-28.168 0-47.29-25.749-75.288-74.975-75.288-5.55 0-10.768.175-15.75.5-6.052 7.498-12.639 24.882 13.983 55.476m-22.1 1.254c-22.854-30.034-3.68-49.457 5.92-56.575-18.82 1.414-34.187 5.077-50.21 10.316l4.164 56.372c16.646-4.82 29.136-8.252 40.126-10.113m17.27 117.967c-.629-1.656-.976-3.545-.976-5.704 0-8.978 14.824-14.492 31.907-23.277-16.494-5.44-34.752-13.547-54.104-25.508-5.922-3.66-11.303-7.373-16.207-11.105-10.767 8.131-20.253 18.821-25.13 34.23.421.29.842.58 1.265.868 18.725 12.768 41.477 22.813 63.244 30.496m-67.886-11.59a94.451 94.451 0 00-.112 4.373c0 44.265 27.264 74.532 73.84 74.532 23.476 0 49.982-3.027 70.051-6.81l-5.038-40.274c-21.124-1.37-80.284-7.265-138.74-31.822m244.87 21.4h-9.087v-59.778h10.602c14.388 0 17.418 8.324 17.418 29.51 0 21.187-3.409 30.267-18.934 30.267m8.331-104.42h-17.418V251.29h-63.616v107.602c40.397 9.51 77.62 10.896 77.62 10.896s-36.165 1.312-77.62-5.004v35.588c5.886 1.407 9.263 2.062 9.263 2.062s-3.269.732-9.263 1.243v82.558h76.87c53.011 0 79.896-21.943 79.896-79.45 0-58.263-25.749-78.693-75.732-78.693m172.66 88.53h-2.653l-13.253-83.99h29.158zm20.446-128.255h-44.682l-7.194-37.077h-60.208l43.168 234.945h96.18l43.167-234.945h-63.237zm258.234-37.077v122.58h-3.408l-22.34-122.58h-60.965l-21.206 122.58h-3.786V251.29h-58.692l7.952 234.945h85.198l21.205-127.12h3.03l20.447 127.12h84.062l7.953-234.945z" fill="#f45252" fill-rule="evenodd"/><path d="M222.16 250.684c-.118 4.302-.664 9.1-1.626 14.408-.968 5.302-2.59 10.279-4.873 14.934-2.282 4.65-5.265 8.567-8.939 11.748-3.68 3.176-8.39 4.69-14.128 4.533-6.766-.185-11.8-1.812-15.1-4.872-3.303-3.065-5.612-6.871-6.92-11.414-1.314-4.547-2-9.486-2.057-14.816-.06-5.334-.129-10.358-.202-15.073a706.175 706.175 0 01-.42-29.532c.062-9.84.128-19.782.202-29.822l-32.772-5.818c.19 8 .38 15.948.577 23.848.193 7.895.178 15.94-.046 24.138l-.569 20.74c-.21 7.682-1.333 14.926-3.367 21.74-2.033 6.81-5.37 12.46-10.005 16.947-4.639 4.485-11.367 6.607-20.18 6.366-6.357-.174-11.076-2.047-14.157-5.615-3.085-3.573-5.223-7.883-6.416-12.937-1.198-5.06-1.767-10.455-1.71-16.19.051-5.741.035-10.762-.049-15.07a990.877 990.877 0 01.613-39.19c.458-13.008.66-25.966.605-38.882a733.352 733.352 0 00-1.145-36.778 436.374 436.374 0 01-.53-36.761c.101-3.688.616-7.57 1.55-11.643.93-4.078 2.368-7.776 4.306-11.106 1.938-3.33 4.474-6.028 7.608-8.094 3.134-2.067 7.056-3.036 11.775-2.906 7.583.207 13.464 2.828 17.635 7.862 4.171 5.034 7.238 11.009 9.203 17.934 1.964 6.92 3.2 14.127 3.715 21.627.511 7.495 1.004 13.913 1.472 19.259l30.363 3.907a333.88 333.88 0 01-1.286-20.485 341.165 341.165 0 01-.054-20.45c.113-4.1.836-8.025 2.17-11.78 1.334-3.76 3.166-7.091 5.506-9.996 2.335-2.906 5.222-5.24 8.655-6.99 3.434-1.75 7.304-2.567 11.61-2.45 4.92.135 9.028 1.838 12.323 5.105 3.296 3.27 5.952 7.436 7.967 12.517 2.015 5.077 3.448 10.703 4.307 16.877a289.82 289.82 0 011.96 18.35c.45 6.058.702 11.705.766 16.934.06 5.229.151 9.383.274 12.46a2117.564 2117.564 0 011.672 51.247c.347 17.124.293 34.189-.174 51.194zm91.446-51.924c2.44-3.01 4.497-6.85 6.164-11.517 1.667-4.672 2.983-9.711 3.954-15.113.965-5.408 1.515-10.365 1.638-14.87.136-4.915-.027-10.2-.488-15.85-.46-5.652-1.347-10.851-2.65-15.6-1.307-4.754-3.098-8.696-5.369-11.832-2.275-3.138-5.054-4.751-8.33-4.841-3.076-.084-5.839 1.426-8.28 4.54-2.448 3.108-4.556 7.048-6.327 11.819-1.775 4.766-3.198 10.007-4.278 15.719-1.08 5.707-1.687 11.024-1.823 15.94-.106 3.889.177 8.46.856 13.708.673 5.246 1.72 10.243 3.128 15 1.408 4.75 3.244 8.799 5.514 12.143 2.265 3.339 4.94 5.055 8.015 5.14 3.075.084 5.833-1.378 8.276-4.386m21.447-125.49c8.046 5.756 14.615 13.109 19.707 22.065 5.088 8.95 8.866 19 11.33 30.139 2.465 11.137 3.856 22.14 4.173 33.016.345 9.85-.662 20.278-3.012 31.284-2.355 11.005-6.119 21.097-11.295 30.287-5.177 9.184-11.9 16.788-20.169 22.817-8.274 6.025-18.148 8.882-29.627 8.569-11.893-.327-22.06-3.632-30.506-9.908-8.445-6.28-15.305-14.257-20.579-23.933-5.275-9.677-9.089-20.342-11.433-31.987-2.35-11.648-3.373-22.9-3.076-33.755.281-10.246 1.897-20.604 4.854-31.08 2.952-10.48 7.212-19.943 12.782-28.4 5.565-8.458 12.318-15.346 20.264-20.663 7.941-5.317 17.142-7.833 27.598-7.547 11.273.309 20.938 3.34 28.99 9.097m184.671 106.224c-.453 5.316-1.225 10.984-2.313 17.004a209.876 209.876 0 01-4.196 18.335c-1.71 6.204-3.814 11.782-6.306 16.74-2.498 4.952-5.532 8.968-9.103 12.051-3.575 3.078-7.617 4.558-12.125 4.434-3.281-.089-6.235-.94-8.854-2.548a22.283 22.283 0 01-6.602-6.178c-1.778-2.509-3.14-5.314-4.078-8.414-.944-3.1-1.37-6.188-1.285-9.26.05-1.844.19-3.276.425-4.294a976.29 976.29 0 014.113-26.486 189.862 189.862 0 002.574-26.529c.112-4.1.029-8.609-.244-13.537-.28-4.927-1.123-9.563-2.543-13.907-1.42-4.344-3.681-7.995-6.778-10.948-3.103-2.958-7.316-4.505-12.645-4.65-4.103-.114-7.312.976-9.631 3.271-2.323 2.291-4.142 5.162-5.468 8.614a43.053 43.053 0 00-2.606 10.845c-.411 3.78-.66 7.21-.743 10.281-.17 6.146.018 12.301.57 18.466a1115.72 1115.72 0 001.8 18.5 650.563 650.563 0 011.936 13.583c.593 4.523.828 9.142.698 13.856-.084 3.074-.385 6.496-.898 10.278-.516 3.776-1.538 7.338-3.062 10.68-1.53 3.338-3.553 6.1-6.075 8.288-2.523 2.184-5.835 3.223-9.935 3.111-4.305-.118-8.2-2.276-11.671-6.47-3.477-4.199-6.52-9.149-9.133-14.856-2.614-5.713-4.715-11.507-6.294-17.393-1.584-5.886-2.636-10.479-3.162-13.77a157.695 157.695 0 01-3.303-36.684c.31-11.268 1.689-22.3 4.14-33.097 2.45-10.8 6.408-20.427 11.872-28.887 5.464-8.46 12.675-15.182 21.635-20.164 8.957-4.983 19.999-7.294 33.122-6.935 13.325.365 24.376 3.334 33.148 8.902 8.773 5.57 15.703 12.78 20.797 21.634 5.09 8.851 8.61 18.84 10.566 29.964a167.416 167.416 0 012.464 33.585c-.084 3.072-.353 7.265-.807 12.585m123.669-99.012c4.076 4.618 7.559 10.557 10.438 17.813 2.878 7.252 5.323 15.262 7.342 24.033 2.015 8.766 3.574 17.318 4.683 25.651 1.103 8.333 1.87 15.936 2.298 22.818.426 6.877.592 12.057.496 15.542-.191 6.962-.712 14.742-1.563 23.33-.851 8.584-2.762 16.576-5.736 23.98-2.973 7.4-7.45 13.528-13.431 18.39-5.98 4.857-14.2 7.145-24.655 6.86-5.536-.153-10.44-.902-14.712-2.249-4.271-1.347-8.124-3.096-11.552-5.236-3.431-2.146-6.49-4.589-9.185-7.325-2.694-2.74-5.031-5.572-7-8.494-.677 2.235-1.624 4.875-2.833 7.917a42.546 42.546 0 01-4.541 8.487c-1.818 2.611-3.88 4.813-6.183 6.595-2.31 1.782-4.895 2.633-7.764 2.555-6.358-.174-11.12-2.457-14.278-6.849-3.164-4.39-5.381-9.63-6.647-15.71a86.107 86.107 0 01-1.797-18.654c.068-6.354.164-11.579.276-15.675.208-7.58.57-15.157 1.085-22.725.516-7.573.88-15.25 1.094-23.033l.395-14.442c.068-2.458.107-5.79.12-9.99.01-4.204.243-8.81.688-13.819a203.186 203.186 0 011.959-15.322c.859-5.204 2.166-9.886 3.924-14.037 1.754-4.156 4-7.53 6.74-10.117 2.736-2.587 6.155-3.829 10.259-3.717 3.69.102 6.845 1.01 9.467 2.72 2.617 1.71 4.866 3.871 6.747 6.488 1.876 2.612 3.385 5.628 4.52 9.041a59.589 59.589 0 012.479 10.677 102.68 102.68 0 011.533 11.42c.302 3.9.506 7.701.61 11.394l-.488 17.822c-.13 4.71-.31 9.37-.537 13.976a599.09 599.09 0 00-.53 13.67c-.05 1.844.537 4.675 1.768 8.505a90.528 90.528 0 004.609 11.504c1.842 3.841 3.849 7.278 6.026 10.312 2.173 3.03 4.184 4.574 6.029 4.624 2.662.073 4.837-.689 6.526-2.282 1.683-1.596 2.918-3.662 3.709-6.202.787-2.544 1.322-5.244 1.607-8.104.28-2.866.46-5.523.527-7.98a159.248 159.248 0 00-.571-18.467 576.335 576.335 0 00-1.954-18.504 564.77 564.77 0 01-1.955-18.503 158.15 158.15 0 01-.57-18.466c.06-2.256.303-5.479.726-9.666a72.826 72.826 0 012.34-12.39c1.137-4.072 2.774-7.66 4.913-10.782 2.134-3.117 4.945-4.63 8.434-4.535 5.329.145 10.034 2.533 14.115 7.151m125.995 68.641a143.125 143.125 0 00-5.525-6.147 59.958 59.958 0 00-6.606-6.024 36.603 36.603 0 00-7.416-4.508c-2.637-1.201-5.288-1.836-7.95-1.909-3.488-.096-6.307 1.672-8.455 5.304-2.153 3.631-3.861 7.888-5.121 12.774a104.831 104.831 0 00-2.707 14.532c-.545 4.8-.847 8.434-.914 10.892-.074 2.66-.006 5.843.2 9.538.206 3.695.775 7.142 1.717 10.349.936 3.201 2.5 5.959 4.697 8.277 2.19 2.314 5.136 3.524 8.826 3.624 3.276.09 6.378-.748 9.302-2.513 2.919-1.765 5.597-3.998 8.03-6.699a47.164 47.164 0 006.243-8.746 229.9 229.9 0 004.545-8.64c-.077-4.72.05-9.329.38-13.827.325-4.503.558-9.109.687-13.819zm45.462 154.689c-.448 5.11-1.501 9.847-3.16 14.212-1.658 4.361-4.17 7.93-7.527 10.711-3.36 2.776-8.012 4.085-13.957 3.923-5.535-.152-9.695-1.909-12.474-5.262-2.783-3.358-4.774-7.41-5.976-12.156-1.206-4.752-1.94-9.74-2.205-14.974-.27-5.236-.452-9.805-.548-13.7l-1.427-48.931c-3.663 6.251-8.931 11.44-15.815 15.556-6.884 4.117-14.017 6.075-21.397 5.872-6.766-.185-12.721-1.885-17.865-5.101-5.144-3.217-9.544-7.441-13.194-12.662-3.656-5.227-6.621-11.098-8.904-17.617a147.168 147.168 0 01-5.453-19.984c-1.353-6.803-2.247-13.491-2.682-20.061-.435-6.576-.582-12.422-.442-17.539.197-7.174 1.506-15.642 3.928-25.416a124.82 124.82 0 0110.617-27.999c4.654-8.897 10.4-16.427 17.24-22.591 6.834-6.165 14.869-9.126 24.095-8.873 8.61.236 16.537 3.018 23.777 8.339 7.24 5.32 12.706 11.725 16.4 19.207 1.182-5.71 3.836-10.812 7.96-15.312 4.125-4.499 9.263-6.665 15.414-6.496 4.714.129 8.309 1.765 10.79 4.907 2.478 3.144 4.222 6.881 5.234 11.214a64.163 64.163 0 011.63 13.421c.077 4.615.075 8.56-.015 11.839a598.266 598.266 0 01-2.063 35.921 592.815 592.815 0 00-2.062 35.922c-.41 14.95-.256 29.82.469 44.6.719 14.779.879 29.646.469 44.601-.124 4.503-.41 9.315-.857 14.429" fill="#59cc9f"/></g></svg>