<?xml version="1.0" encoding="UTF-8"?> <svg xmlns="http://www.w3.org/2000/svg" xmlns:xlink="http://www.w3.org/1999/xlink" version="1.1" id="layer" x="0px" y="0px" viewBox="0 0 652 652" style="enable-background:new 0 0 652 652;" xml:space="preserve"> <style type="text/css"> .st0{fill-rule:evenodd;clip-rule:evenodd;fill:#EC1C24;} .st1{fill-rule:evenodd;clip-rule:evenodd;} </style> <path class="st0" d="M542.8,311.1h-27.5l-1.5,8.4h25.5l-1.9,10.7H512l-1.8,10.4h28.3l-2.1,11.9h-44.7l9.3-52.6h43.9L542.8,311.1z M499.5,299.8h-49.7l-2.3,13h16.7l-7,39.6h16.4l7-39.6h16.7L499.5,299.8z M448.5,299.8h-15.4l-5.2,29.1l-14.8-29.1h-15.3l-9.3,52.6 h15.4l5.1-28.9l14.7,28.9h15.4L448.5,299.8z M392.9,299.8h-16.3l-5.7,32.1c-0.5,2.9-1.7,5.2-3.6,6.8c-1.9,1.6-4.2,2.4-7,2.4 c-2.8,0-4.9-0.8-6.2-2.4c-1.3-1.6-1.7-3.9-1.2-6.7l5.7-32.1h-16.3l-5.6,31.4c-0.5,2.6-0.5,5.5-0.1,8.9c0.3,2.1,1.1,4.1,2.4,6.1 c1.4,2,3,3.5,4.8,4.5c1.8,1.1,4.3,1.8,7.3,2.1c3,0.4,5.8,0.5,8.3,0.5c4.5,0,8.4-0.6,11.8-1.8c2.4-0.8,4.9-2.3,7.3-4.4 c2.5-2.1,4.4-4.5,5.9-7.2c1.5-2.8,2.5-5.7,3-8.8L392.9,299.8z M337.1,299.8h-16.4l-3.3,18.4h-17.9l3.3-18.4h-16.4l-9.3,52.6h16.4 l3.8-21.3h17.9l-3.8,21.3h16.4L337.1,299.8z M593.9,314.4c0.6-3.3,0.3-6.2-0.9-8.5c-1.2-2.3-3.1-3.9-5.6-4.8 c-2.5-0.9-6.3-1.3-11.4-1.3h-27.3l-9.3,52.6h16.4l3.8-21.3h1.4c1.5,0,2.8,0.4,3.8,1.2c0.8,0.6,1.5,2,2.2,4.1l5.9,16.1h18.5 l-5.2-15.2c-0.3-0.8-0.8-1.9-1.7-3.3c-0.9-1.4-1.6-2.3-2.1-2.8c-0.8-0.6-2.1-1.3-3.9-1.9c2.5-0.6,4.6-1.2,6.1-2.1 c2.4-1.3,4.4-3,6.1-5.1C592.3,319.9,593.4,317.3,593.9,314.4 M576.3,311.8c0.9,0.9,1.2,2.2,0.9,3.9c-0.2,1.1-0.7,2.2-1.6,3.1 c-0.8,0.9-1.8,1.4-2.9,1.7c-2.2,0.5-3.7,0.7-4.5,0.7h-6.9l1.9-10.7h7.2C573.5,310.4,575.4,310.9,576.3,311.8 M149.1,251.1 c-20,0-38.2,8.3-51.3,21.9c-5.7,5.9-10.3,12.6-13.9,20h14.6c2.4-4,5.2-7.7,8.4-11.1c10.7-11.1,25.8-17.9,42.1-17.9 c16.6,0,31.5,6.8,42.2,17.9c3.3,3.4,6.1,7.1,8.4,11.1h14.5c-3.4-7.4-8.2-14.1-13.8-20C187.4,259.4,169.1,251.1,149.1,251.1 M148.5,400.7c20.1,0.2,38.4-8.1,51.4-21.5c5.9-5.7,10.4-12.5,14.1-19.8l-14.4-0.2c-2.6,4-5.5,7.7-8.7,11 c-10.8,11-25.7,17.8-42.2,17.7c-16.5-0.1-31.3-7.1-42.1-18.3c-3.1-3.3-6-7.1-8.4-11.1l-14.6-0.1c3.5,7.5,8.3,14.2,14,20.1 C110.4,392.1,128.3,400.6,148.5,400.7"></path> <path class="st1" d="M220.4,352.4H205l-14.7-28.9l-5.1,28.9h-15.4l9.3-52.6h15.3l14.8,29.1l5.2-29.1h15.4L220.4,352.4z M175.3,299.8 h-43.9l-9.3,52.6h44.7l2.1-11.9h-28.3l1.8-10.4H168l1.9-10.7h-25.5l1.5-8.4h27.5L175.3,299.8z M78.4,299.8H28.6l-2.3,13H43l-7,39.6 h16.4l7-39.6h16.7L78.4,299.8z M279,325.9c0.6-3.6,0.8-7,0.5-10.2c-0.3-3.2-1.2-6-2.7-8.4c-1.5-2.4-3.6-4.3-6.3-5.6 c-2.7-1.3-6.5-1.9-11.3-1.9h-24.3l-9.3,52.6h24.3c2.9,0,6.2-0.5,10-1.4c2.7-0.7,5.4-2.1,8.1-4.2c2.7-2.1,4.9-4.7,6.7-7.8 C276.6,335.9,278,331.6,279,325.9 M261.8,314.8c1.5,2.1,1.7,5.9,0.7,11.4c-0.7,4.2-1.7,7.3-2.8,9.1c-1.2,1.9-2.5,3.2-4.1,4 c-1.6,0.7-4.1,1.1-7.5,1.1h-4l5.1-28.7h4.1C257.5,311.7,260.4,312.8,261.8,314.8 M603.5,310.7h3.1l2.2-8.4h3.3l0.7-2.7h-9.7 l-0.7,2.7h3.3L603.5,310.7z M611.6,310.7h3l1.7-6.3l1.6,4.3h0.1l4-4.3l-1.7,6.4h3.1l3-11.1h-3.4l-3.8,4.3l-1.5-4.3h-3.1L611.6,310.7 z M125.3,314.4c0.6-3.3,0.3-6.2-0.9-8.5c-1.2-2.3-3.1-3.9-5.6-4.8c-2.5-0.9-6.3-1.3-11.4-1.3H80.1l-9.3,52.6h16.4l3.8-21.3h1.4 c1.5,0,2.8,0.4,3.8,1.2c0.8,0.6,1.5,2,2.2,4.1l5.9,16.1h18.5l-5.2-15.2c-0.2-0.8-0.8-1.9-1.7-3.3c-0.9-1.4-1.6-2.3-2.1-2.8 c-0.8-0.6-2.1-1.3-3.9-1.9c2.5-0.6,4.6-1.2,6.1-2.1c2.4-1.3,4.5-3,6.1-5.1C123.7,319.9,124.8,317.3,125.3,314.4 M107.7,311.8 c0.9,0.9,1.2,2.2,0.9,3.9c-0.2,1.1-0.7,2.2-1.6,3.1c-0.8,0.9-1.8,1.4-2.9,1.7c-2.2,0.5-3.7,0.7-4.5,0.7h-6.9l1.9-10.7h7.2 C104.8,310.4,106.8,310.9,107.7,311.8"></path> </svg> 