<?xml version="1.0" encoding="UTF-8"?> <svg xmlns:cc="http://creativecommons.org/ns#" xmlns:dc="http://purl.org/dc/elements/1.1/" xmlns:inkscape="http://www.inkscape.org/namespaces/inkscape" xmlns:rdf="http://www.w3.org/1999/02/22-rdf-syntax-ns#" xmlns:sodipodi="http://sodipodi.sourceforge.net/DTD/sodipodi-0.dtd" xmlns:svg="http://www.w3.org/2000/svg" xmlns="http://www.w3.org/2000/svg" xmlns:xlink="http://www.w3.org/1999/xlink" version="1.1" id="svg582" inkscape:version="0.92.3 (2405546, 2018-03-11)" sodipodi:docname="4.svg" x="0px" y="0px" viewBox="0 0 933.3 340.7" style="enable-background:new 0 0 933.3 340.7;" xml:space="preserve"> <style type="text/css"> .st0{fill-rule:evenodd;clip-rule:evenodd;fill:#231F20;} </style> <path id="path602" inkscape:connector-curvature="0" class="st0" d="M309.3,118.7C331.1,51.3,382.5,0,468.6,0 c79.6,0,138.7,52.6,159.9,120C606,57.1,543.1,11.5,468.6,11.5C394.8,11.5,332.5,56.4,309.3,118.7"></path> <path id="path606" inkscape:connector-curvature="0" class="st0" d="M627.9,221.4c-21.2,67.4-82.2,119.4-159.3,119.4 c-81.6,0-136.8-51.3-158.6-118.1c23.1,62.2,85.4,106.5,158.6,106.5C542.5,329.2,605.4,284.3,627.9,221.4"></path> <path id="path610" inkscape:connector-curvature="0" class="st0" d="M511.7,115.5c-3.2,1.3-7.1,0-10.3,2.6c0-0.6-0.6-1.9-1.9-1.3 h-1.3c3.2-2.6-1.9-5.1,3.2-5.1C505.3,111.7,508.5,114.3,511.7,115.5"></path> <path id="path614" inkscape:connector-curvature="0" class="st0" d="M818.7,196.9v-16.6l-4.5,3.9H784v-44.3l3.9-5.1h-25.7l3.9,5.1 v52.6l-3.9,4.5L818.7,196.9L818.7,196.9z"></path> <path id="path618" inkscape:connector-curvature="0" class="st0" d="M744.8,196.9l-30.2-62.2h-21.2l2.6,5.1l-28.3,57.1h23.1 l-3.9-4.5l3.2-6.4h29.5l3.2,6.4l-4.5,4.5C718.3,196.9,744.8,196.9,744.8,196.9z M715.3,174.5h-20.5l10.3-21.8L715.3,174.5z"></path> <path id="path622" inkscape:connector-curvature="0" class="st0" d="M652.4,179c0-10.3-8.4-15.4-19.9-19.2c-7.1-2.6-18-3.9-18-9 c0-2.6,3.2-3.8,8.3-3.8c6.4,0,17.3,2.6,26.3,6.4v-20.5l-5.1,4.5c-5.1-1.9-14.1-3.8-20.5-3.8c-21.2,0-27.6,9-27.6,17.3 c0,11.5,7.1,16.7,19.3,21.2c9,3.2,17.3,3.2,17.3,8.3c0,4.5-5.1,5.1-7.7,5.1c-6.4,0-18.6-2.6-28.9-9.6v23l5.1-5.1 c4.5,1.9,15.4,5.1,24.4,5.1C644,198.9,652.4,190.6,652.4,179"></path> <path id="path626" inkscape:connector-curvature="0" class="st0" d="M573.3,196.9l-16.7-24.3c8.3-3.2,14.1-9.6,14.1-18.6 c0-10.9-6.4-19.3-24.4-19.3h-38.5l3.9,5.1v52.6l-3.9,4.5h25.7l-3.9-4.5v-18h7.7l12.2,18l-3.9,4.5 C545.6,196.9,573.3,196.9,573.3,196.9z M552.1,155.2c0,4.5-4.5,7.7-10.3,7.7h-12.1v-15.4h14.1C548.3,147.5,552.1,150.1,552.1,155.2"></path> <path id="path630" inkscape:connector-curvature="0" class="st0" d="M484.1,196.9v-16.6l-4.5,3.9h-32.1V172h20.6l4.5,3.8v-19.9 l-4.5,3.8h-20.6v-12.2h32.1l4.5,4.5v-17.3h-58.4l3.9,5.1v52.6l-3.9,4.5C425.7,196.9,484.1,196.9,484.1,196.9z"></path> <path id="path634" inkscape:connector-curvature="0" class="st0" d="M410.3,134.7h-22.5l3.9,5.1l-15.4,34l-15.4-34l4.5-5.1H339 l28.9,62.2h12.8L410.3,134.7z"></path> <path id="path638" inkscape:connector-curvature="0" class="st0" d="M322.9,196.9l-3.9-4.5v-52.6l3.9-5.1h-26.3l3.9,5.1v52.6 l-3.9,4.5H322.9z"></path> <path id="path642" inkscape:connector-curvature="0" class="st0" d="M272.1,134.7h-21.8l3.9,5.1v30.8L222,134.7h-19.2l3.9,5.1v52.6 l-3.9,4.5h21.8l-3.9-4.5v-32.1l33.4,36.6h14.1v-57.1L272.1,134.7z"></path> <path id="path646" inkscape:connector-curvature="0" class="st0" d="M181.6,134.7h-26.3l3.9,5.1v34c0,7.7-5.1,10.9-12.8,10.9 s-13-3.1-13-10.8v-34l3.9-5.1H111l3.9,5.1v34.6c0,17.3,9.6,23.7,31.5,23.7c21.2,0,30.8-6.4,30.8-23.7v-34.6L181.6,134.7z"></path> <path id="path650" inkscape:connector-curvature="0" class="st0" d="M519.3,117.4c-0.6,0.6-1.3,1.3-2.6,1.3v-2.6 C517.4,116.1,518.1,116.8,519.3,117.4"></path> <path id="path654" inkscape:connector-curvature="0" class="st0" d="M584.9,217.5c-1.3-1.9,0-4.5,0-4.5h-93.7l10.3,9 c2.6,1.3,5.1,3.2,6.4,7.1c3.2,8.3-1.3,1.3-1.3,14.1c0,11.6-3.2,9.6-3.2,9.6s-0.7,13.4-7.7,21.8c-4.5,4.5-1.3,8.3-1.3,8.3 s-1.3,1.3-3.9,10.9c-0.6,3.2,3.9,8.3,7.1,7.1c2.6-1.3-6.4-1.9,3.9-6.4c3.9-1.3,0.6-4.5,0.6-4.5s6.4-0.6,9.6-10.3 c6.4,1.3,4.5-2.6,17.3-5.8c3.9-0.6,4.5-1.9,3.9-5.1s4.5,0.6,17.3-12.8c10.3-10.3,6.4-12.8,13.5-16.7c7.7-3.8,8.3,0.6,10.9-2.6 c5.8-7.7,3.9-7.1,6.4-12.2l1.3-2.6C582.4,222,586.2,218.8,584.9,217.5"></path> <path id="path658" inkscape:connector-curvature="0" class="st0" d="M428.8,109.1c-3.9-5.1-1.3-12.2,2.6-19.2 c3.2-4.5,10.9-7.1,17.3-4.5c7.7-5.8,9.6,0.6,16.1-2.6c8.3-3.2,3.9,10.3,12.2,13.5c3.2-9-7.7-16-0.6-20.5c5.1-3.2,9-5.1,10.9-9 c3.2-5.8,3.9-10.3,6.4-10.9c5.1-1.9,3.9-7.1,3.9-7.1s5.8,1.9,10.3-2.6c-3.2-1.9-8.3-3.2-7.1-7.1c1.9-3.9,12.8,4.5,16.7-2.6 c-7.1-2.6-14.1-9-18-10.9c-3.2,3.2-4.5,1.9-8.3-0.6c-6.4-5.1-6.4-0.6-10.3-3.9c-3.2,6.4,1.3,5.8,2.6,7.1c3.9,4.5-3.9-3.8-3.2,7.7 c0,2.6-3.9,3.2-7.1-3.2c-1.9-3.2-14.8-2.6-16.7-5.8c1.9-3.2,17.3-16,41.1-12.8C462.9,0,416,14.7,416,19.9c-5.1,3.2-3.2,6.4-5.8,7.1 c-3.9,1.9-8.3,14.1-8.3,14.1s2.6,1.3-5.1,10.3c-6.4,7.1-8.3,18-8.3,18s4.5,7.7,3.2,16.7c-0.6,7.1-0.6,1.9,2.6,6.4 c1.3,3.2,3.2,13.5,4.5,9.6c1.9-7.7-3.9-14.8-3.2-22.5c0.6,1.3,2.6-2.6,2.6,0.6c0,9.6,11.6,26.9,11.6,26.9s-4.5,4.5,0,4.5l-1.3,2.6 c0,0,3.2,0,5.8,1.9c1.9,1.9,3.9,3.8,5.8,3.8h33.4c0,0,2.6-10.3,4.5-11.5c1.9-1.9-3.9,0-5.8-1.9s-2.6,1.3-3.9,3.2 c-0.6,1.9-1.9,4.5-4.5,5.8c-2.6,0.6-8.3,1.3-9.6,1.3C432.7,116.8,428.8,109.1,428.8,109.1"></path> <path id="path662" inkscape:connector-curvature="0" class="st0" d="M472.5,103.3c0.6-1.9,3.9-0.6,6.4-0.6s1.9,4.5,5.8,3.8 c4.5-1.3,4.5,3.8,10.3,3.2c5.8,0-1.3,2.6-1.3,2.6s-3.9-1.9-5.8-0.6c-1.3,0.6,0-0.6-1.9-1.9c-3.2-3.2-2.6,0-7.7-4.5 C474.5,102,470.6,105.9,472.5,103.3"></path> </svg> 