<?xml version="1.0" encoding="UTF-8"?> <svg xmlns="http://www.w3.org/2000/svg" width="64" height="65" viewBox="0 0 64 65" fill="none"><g clip-path="url(#clip0_45_9)"><path d="M4.54877 32C4.54877 42.8662 10.8636 52.2568 20.0207 56.7068L6.92552 20.8277C5.40231 24.2419 4.54877 28.0201 4.54877 32Z" fill="#111111"></path><path d="M50.5334 30.6147C50.5334 27.222 49.3148 24.8724 48.2695 23.0436C46.8779 20.7823 45.5736 18.8673 45.5736 16.606C45.5736 14.0824 47.4875 11.7334 50.1835 11.7334C50.3052 11.7334 50.4206 11.7485 50.5392 11.7553C45.6551 7.28073 39.148 4.54877 32.001 4.54877C22.4104 4.54877 13.9727 9.46943 9.06403 16.9225C9.7081 16.9418 10.3151 16.9554 10.8307 16.9554C13.7021 16.9554 18.1469 16.607 18.1469 16.607C19.6267 16.5198 19.8012 18.6933 18.3229 18.8683C18.3229 18.8683 16.8358 19.0433 15.1809 19.13L25.1779 48.8656L31.1856 30.8477L26.9085 19.129C25.4302 19.0423 24.0297 18.8673 24.0297 18.8673C22.5504 18.7806 22.7238 16.5187 24.2032 16.606C24.2032 16.606 28.7368 16.9544 31.4343 16.9544C34.3052 16.9544 38.7505 16.606 38.7505 16.606C40.2314 16.5187 40.4053 18.6923 38.9265 18.8673C38.9265 18.8673 37.4362 19.0423 35.7845 19.129L45.7052 48.6394L48.4435 39.4892C49.6303 35.6921 50.5334 32.9648 50.5334 30.6147Z" fill="#111111"></path><path d="M32.4827 34.4013L24.246 58.3355C26.7053 59.0584 29.3062 59.4539 32.001 59.4539C35.1979 59.4539 38.2637 58.9012 41.1173 57.8977C41.0437 57.7802 40.9768 57.6554 40.922 57.5196L32.4827 34.4013Z" fill="#111111"></path><path d="M56.0893 18.8291C56.2074 19.7035 56.2743 20.6422 56.2743 21.652C56.2743 24.4377 55.754 27.5693 54.1869 31.4849L45.8014 55.7294C53.9628 50.9701 59.4523 42.1281 59.4523 32.0005C59.4528 27.2277 58.2336 22.7395 56.0893 18.8291Z" fill="#111111"></path><path d="M32.001 0C14.3561 0 0 14.3551 0 32C0 49.647 14.3561 64.0016 32.001 64.0016C49.6454 64.0016 64.0037 49.647 64.0037 32C64.0031 14.3551 49.6454 0 32.001 0ZM32.001 62.5348C15.1653 62.5348 1.46732 48.8368 1.46732 32C1.46732 15.1642 15.1647 1.46732 32.001 1.46732C48.8363 1.46732 62.5332 15.1642 62.5332 32C62.5332 48.8368 48.8363 62.5348 32.001 62.5348Z" fill="#111111"></path></g><defs><clipPath id="clip0_45_9"><rect width="64" height="64.0016" fill="white"></rect></clipPath></defs></svg> 