<?xml version="1.0" encoding="UTF-8"?> <svg xmlns="http://www.w3.org/2000/svg" id="Layer_1" data-name="Layer 1" viewBox="0 0 457.19 475"><defs><style>.cls-1{fill:#f6f6f6;}.cls-2{fill:#3796c7;}.cls-12,.cls-3{fill:#82b5d2;}.cls-4{fill:#7ed5ff;}.cls-5{fill:#005e8d;}.cls-6{fill:#088ed5;}.cls-16,.cls-7{fill:#fff;}.cls-8{fill:#00608b;}.cls-9{isolation:isolate;}.cls-10{fill:#89b9d6;}.cls-11{fill:#cfd3f6;}.cls-12{opacity:0.5;}.cls-13{fill:#d8e5ea;}.cls-14{fill:#eb293a;}.cls-15{fill:#ff4152;}.cls-16{opacity:0.4;}.cls-17{fill:#433d6f;}.cls-18{fill:#dcbae8;}.cls-19{fill:#ffddca;}.cls-20{fill:#ffd6d6;}</style></defs><title>e-learning_pic</title><path class="cls-1" d="M36.66,302.24S34.57,262.92,31.78,200c-2.93-66.22,0-108.83,93.39-123.87C251.31,55.8,216.88,13.85,310.54,14.51c52.37.36,115.58,42.6,106.63,167.13-7.8,108.58,38.44,84.69,59.93,115.36,20.21,28.84,20.91,75.37-65.51,102.25-73.29,22.79-95.68,137-208.37,68.82-18.91-11.44-51.05-47.46-99.66-47.85C21.33,419.56,38.75,323.22,36.66,302.24Z" transform="translate(-31.12 -14.5)"></path><path class="cls-2" d="M199.33,368.9l-10.52-1.65s-4.55,0-4.38,2.89,3.33,4.12,6.84,5.15,10.48,3.23,12.78,2.26c6.57-2.77,13.74-5.13,13.74-5.13Z" transform="translate(-31.12 -14.5)"></path><path class="cls-2" d="M215.71,367.15,205.2,365.5s-4.56,0-4.38,2.89,3.33,4.12,6.83,5.15,10.27,3.77,12.27,2.27c2.59-1.95-.3-7.88-.3-7.88Z" transform="translate(-31.12 -14.5)"></path><path class="cls-3" d="M199.33,366.9l-10.52-1.65s-4.55,0-4.38,2.89,3.33,4.12,6.84,5.15,11.21,4.53,12.26,2.27-.29-7.88-.29-7.88Z" transform="translate(-31.12 -14.5)"></path><path class="cls-3" d="M215.71,365.15,205.2,363.5s-4.56,0-4.38,2.89,3.33,4.12,6.83,5.15,11.22,4.54,12.27,2.27-.3-7.88-.3-7.88Z" transform="translate(-31.12 -14.5)"></path><path class="cls-2" d="M448.46,307.49c-.91.84-42.77,25.23-42.77,25.23S354.58,304.49,356.37,305s78.24,1,89.74,1.25A5.54,5.54,0,0,1,448.46,307.49Z" transform="translate(-31.12 -14.5)"></path><polygon class="cls-4" points="417.01 292.09 368.21 263.94 325.56 288.58 368.43 313.33 380.42 313.21 417.01 292.09"></polygon><polygon class="cls-2" points="375.5 309.81 381.12 313.3 367.85 314.29 375.5 309.81"></polygon><polyline class="cls-2" points="259.06 163.6 274.45 154.61 281.44 162.54 275.75 167.39 270.59 169.53 266.61 169.16"></polyline><polyline class="cls-5" points="261.43 165.06 274.04 157.8 283.81 164 278.12 168.85 272.96 170.99 268.97 170.61"></polyline><path class="cls-2" d="M302.64,287.61l62.67,37.73c8.08,4.88,15,1.13,15.4-8.34l2.3-82.92c.39-9.55-5.91-21.46-14-26.47l-63.09-38.22-.28.62Z" transform="translate(-31.12 -14.5)"></path><path class="cls-6" d="M302.2,287.21l62.67,37.73c8.08,4.88,16.46.54,16.84-8.93l1.75-83.46c0-7.54-2.95-18.68-12.89-24.14L305.49,169Z" transform="translate(-31.12 -14.5)"></path><path class="cls-5" d="M301.08,289.21l62.67,37.73c8.09,4.88,15,1.13,15.41-8.34l2.29-82.92c.4-9.55-5.9-21.46-13.33-25.25L305,172.21Z" transform="translate(-31.12 -14.5)"></path><path class="cls-7" d="M365.05,313.45l-.65,2.64-.85,10.18,10.51-5.89.33-.33c2.68-1.36,1.61-2.6,1.79-7.08l2.13-76.82c.36-8.85-5.47-19.88-13-24.52l-58.45-35.42-8.11,4.41Z" transform="translate(-31.12 -14.5)"></path><path class="cls-2" d="M289.24,295.05l62.67,37.73c8.08,4.88,15,1.13,15.4-8.35l2.3-82.91c.39-9.55-5.9-21.46-14-26.47l-63.09-38.22-2.35,1.27Z" transform="translate(-31.12 -14.5)"></path><path class="cls-6" d="M287.32,296.58,350,334.32c8.09,4.88,15,1.12,15.41-8.35l2.29-82.91c.4-9.55-5.9-21.46-14-26.47l-63.09-38.22Z" transform="translate(-31.12 -14.5)"></path><path class="cls-8" d="M286.89,296.31,349.56,334c8.08,4.88,15,1.13,15.41-8.34l2.29-82.91c.39-9.56-5.9-21.47-14-26.47L290.18,178.1Z" transform="translate(-31.12 -14.5)"></path><path class="cls-2" d="M134.69,299.38l57.83-33.65a16.87,16.87,0,0,1,15.34,0l22,13c4.27,2.46,4.32,6.44.09,8.9l-57.84,33.65c-4.2,2.44-11.1,2.44-15.37,0l-22-13C130.48,305.81,130.49,301.83,134.69,299.38Z" transform="translate(-31.12 -14.5)"></path><path class="cls-5" d="M134.74,308.27l22,13a15.81,15.81,0,0,0,7.68,1.85,15.46,15.46,0,0,0,7.69-1.83L230,287.61c2.09-1.22,3.14-2.81,3.14-4.4v4.42c0,1.6-1.05,3.19-3.14,4.4l-57.84,33.66a17.05,17.05,0,0,1-15.37,0l-22-13c-2.15-1.23-3.21-2.85-3.2-4.47V303.8C131.53,305.41,132.6,307,134.74,308.27Z" transform="translate(-31.12 -14.5)"></path><g class="cls-9"><polygon class="cls-10" points="132.08 294.58 124.42 290.13 124.33 258.67 131.99 263.12 132.08 294.58"></polygon><polygon class="cls-11" points="178.46 236.21 131.99 263.12 124.33 258.67 170.8 231.76 178.46 236.21"></polygon><polygon class="cls-4" points="178.54 267.67 132.08 294.58 131.99 263.12 178.46 236.21 178.54 267.67"></polygon></g><path class="cls-10" d="M74.53,332.39c-1.58-.91-6-6.36-6-8.19l-.26-160.82a17,17,0,0,1,8.55-14.71L259.63,44A16.23,16.23,0,0,1,270.87,42c5.18,1.19,10,2.82,10,7.36l.28,169.9-16.08,9.5" transform="translate(-31.12 -14.5)"></path><path class="cls-2" d="M81.67,333.89l194.61-111a10.06,10.06,0,0,0,5.07-8.7l.41-163.71a6.37,6.37,0,0,0-9.53-5.54L80.74,154.6A13.43,13.43,0,0,0,74,166.22l-.29,163A5.34,5.34,0,0,0,81.67,333.89Z" transform="translate(-31.12 -14.5)"></path><polygon class="cls-7" points="241.6 40.65 51.49 149.77 51.1 309.37 241.6 200.01 241.6 40.65"></polygon><polygon class="cls-12" points="88.69 271.08 71.24 281.15 71.24 285.9 88.69 275.83 88.69 271.08"></polygon><polygon class="cls-3" points="104.61 261.88 92 269.17 92 273.92 104.61 266.63 104.61 261.88"></polygon><polygon class="cls-12" points="116.45 255.05 107.92 259.97 107.92 264.73 116.45 259.8 116.45 255.05"></polygon><polygon class="cls-12" points="77.13 266.9 71.24 270.3 71.24 275.05 77.13 271.65 77.13 266.9"></polygon><polygon class="cls-12" points="88.23 260.49 80.44 264.99 80.44 269.74 88.23 265.24 88.23 260.49"></polygon><polygon class="cls-12" points="133.78 234.06 91.53 258.58 91.53 263.33 133.78 238.81 133.78 234.06"></polygon><polygon class="cls-12" points="89.29 249.02 71.24 259.44 71.24 264.2 89.29 253.77 89.29 249.02"></polygon><polygon class="cls-12" points="109.52 237.34 92.6 247.11 92.6 251.86 109.52 242.1 109.52 237.34"></polygon><polygon class="cls-3" points="118.11 232.38 112.82 235.44 112.82 240.19 118.11 237.13 118.11 232.38"></polygon><polygon class="cls-12" points="126.37 227.62 121.07 230.67 121.07 235.42 126.37 232.37 126.37 227.62"></polygon><polygon class="cls-12" points="82.06 242.34 71.24 248.59 71.24 253.34 82.06 247.1 82.06 242.34"></polygon><polygon class="cls-12" points="118.84 253.72 142.3 240.13 142.3 244.88 118.84 258.47 118.84 253.72"></polygon><polygon class="cls-12" points="136.41 232.67 142.3 229.27 142.3 234.02 136.41 237.43 136.41 232.67"></polygon><polygon class="cls-12" points="130.88 225.01 142.3 218.42 142.3 223.17 130.88 229.76 130.88 225.01"></polygon><polygon class="cls-12" points="131.48 213.81 142.3 207.56 142.3 212.31 131.48 218.56 131.48 213.81"></polygon><polygon class="cls-12" points="89.96 237.78 85.36 240.44 85.36 245.19 89.96 242.53 89.96 237.78"></polygon><polygon class="cls-12" points="128.87 215.08 93.27 235.87 93.27 240.62 128.87 219.83 128.87 215.08"></polygon><polygon class="cls-3" points="172.59 222.82 155.14 232.9 155.14 237.65 172.59 227.57 172.59 222.82"></polygon><polygon class="cls-12" points="188.52 213.63 175.9 220.91 175.9 225.67 188.52 218.38 188.52 213.63"></polygon><polygon class="cls-12" points="212.85 199.39 191.82 211.72 191.82 216.47 212.85 204.15 212.85 199.39"></polygon><polygon class="cls-12" points="161.03 218.64 155.14 222.04 155.14 226.8 161.03 223.39 161.03 218.64"></polygon><polygon class="cls-12" points="172.13 212.24 164.34 216.73 164.34 221.49 172.13 216.99 172.13 212.24"></polygon><polygon class="cls-3" points="215.38 187.4 175.43 210.33 175.43 215.08 215.38 192.15 215.38 187.4"></polygon><polygon class="cls-12" points="173.19 200.77 155.14 211.19 155.14 215.94 173.19 205.52 173.19 200.77"></polygon><polygon class="cls-12" points="193.42 189.09 176.5 198.86 176.5 203.61 193.42 193.84 193.42 189.09"></polygon><polygon class="cls-12" points="202.01 184.13 196.72 187.18 196.72 191.93 202.01 188.88 202.01 184.13"></polygon><polygon class="cls-12" points="210.27 179.36 204.97 182.42 204.97 187.17 210.27 184.11 210.27 179.36"></polygon><polygon class="cls-12" points="165.96 194.09 155.14 200.34 155.14 205.09 165.96 198.84 165.96 194.09"></polygon><polygon class="cls-12" points="215.38 198.12 226.2 191.87 226.2 196.62 215.38 202.87 215.38 198.12"></polygon><polygon class="cls-12" points="220.31 184.42 226.2 181.02 226.2 185.77 220.31 189.17 220.31 184.42"></polygon><polygon class="cls-12" points="214.78 176.76 226.2 170.16 226.2 174.91 214.78 181.51 214.78 176.76"></polygon><polygon class="cls-12" points="189.93 180.38 226.2 159.31 226.2 164.06 189.93 185.13 189.93 180.38"></polygon><polygon class="cls-3" points="173.86 189.53 169.26 192.18 169.26 196.94 173.86 194.28 173.86 189.53"></polygon><polygon class="cls-12" points="187.52 181.64 177.17 187.62 177.17 192.37 187.52 186.39 187.52 181.64"></polygon><polygon class="cls-12" points="92.87 225.18 71.24 237.67 71.24 242.43 92.87 229.93 92.87 225.18"></polygon><polygon class="cls-12" points="103.97 218.78 96.18 223.27 96.18 228.03 103.97 223.53 103.97 218.78"></polygon><polygon class="cls-12" points="124.98 206.7 107.27 216.87 107.27 221.62 124.98 211.46 124.98 206.7"></polygon><polygon class="cls-12" points="83.03 220.01 71.24 226.82 71.24 231.57 83.03 224.76 83.03 220.01"></polygon><polygon class="cls-12" points="100.78 209.76 86.33 218.11 86.33 222.86 100.78 214.52 100.78 209.76"></polygon><polygon class="cls-12" points="109.38 204.8 104.08 207.86 104.08 212.61 109.38 209.55 109.38 204.8"></polygon><polygon class="cls-12" points="127.3 194.27 112.27 203.13 112.27 207.88 127.3 199.02 127.3 194.27"></polygon><polygon class="cls-12" points="79.77 211.04 71.24 215.97 71.24 220.72 79.77 215.79 79.77 211.04"></polygon><polygon class="cls-12" points="85.99 207.45 83.07 209.13 83.07 213.88 85.99 212.2 85.99 207.45"></polygon><polygon class="cls-12" points="108.38 194.27 89.29 205.54 89.29 210.29 108.38 199.02 108.38 194.27"></polygon><polygon class="cls-12" points="102.72 186.94 71.24 205.11 71.24 209.86 102.72 191.69 102.72 186.94"></polygon><polygon class="cls-12" points="124.98 173.8 106.03 185.03 106.03 189.78 124.98 178.55 124.98 173.8"></polygon><polygon class="cls-12" points="79.77 189.33 71.24 194.26 71.24 199.01 79.77 194.09 79.77 189.33"></polygon><polygon class="cls-12" points="99.78 177.78 83.07 187.43 83.07 192.18 99.78 182.53 99.78 177.78"></polygon><polygon class="cls-12" points="131.48 159.65 103.09 175.87 103.09 180.62 131.48 164.4 131.48 159.65"></polygon><polygon class="cls-12" points="88.69 173.33 71.24 183.41 71.24 188.16 88.69 178.08 88.69 173.33"></polygon><polygon class="cls-12" points="104.61 164.13 92 171.42 92 176.17 104.61 168.88 104.61 164.13"></polygon><polygon class="cls-12" points="116.45 157.3 107.92 162.22 107.92 166.98 116.45 162.05 116.45 157.3"></polygon><polygon class="cls-12" points="77.13 169.15 71.24 172.55 71.24 177.3 77.13 173.9 77.13 169.15"></polygon><polygon class="cls-12" points="88.23 162.74 80.44 167.24 80.44 171.99 88.23 167.49 88.23 162.74"></polygon><polygon class="cls-12" points="133.01 136.71 91.53 160.83 91.53 165.59 133.01 141.46 133.01 136.71"></polygon><polygon class="cls-12" points="89.29 151.27 71.24 161.7 71.24 166.45 89.29 156.02 89.29 151.27"></polygon><polygon class="cls-12" points="109.52 139.6 92.6 149.36 92.6 154.12 109.52 144.35 109.52 139.6"></polygon><polygon class="cls-12" points="118.11 134.63 112.82 137.69 112.82 142.44 118.11 139.38 118.11 134.63"></polygon><polygon class="cls-12" points="126.37 129.87 121.07 132.92 121.07 137.68 126.37 134.62 126.37 129.87"></polygon><polygon class="cls-12" points="82.06 144.6 71.24 150.84 71.24 155.59 82.06 149.35 82.06 144.6"></polygon><polygon class="cls-12" points="127.3 205.31 142.3 196.65 142.3 201.4 127.3 210.06 127.3 205.31"></polygon><polygon class="cls-12" points="130.51 192.6 142.3 185.79 142.3 190.54 130.51 197.35 130.51 192.6"></polygon><polygon class="cls-12" points="112.82 191.8 142.3 174.94 142.3 179.69 112.82 196.55 112.82 191.8"></polygon><polygon class="cls-12" points="129.89 171.25 142.3 164.08 142.3 168.84 129.89 176 129.89 171.25"></polygon><polygon class="cls-12" points="133.77 158.16 142.3 153.23 142.3 157.98 133.77 162.91 133.77 158.16"></polygon><polygon class="cls-12" points="118.84 155.69 142.3 142.38 142.3 147.13 118.84 160.44 118.84 155.69"></polygon><polygon class="cls-12" points="136.41 134.93 142.3 131.52 142.3 136.27 136.41 139.68 136.41 134.93"></polygon><polygon class="cls-12" points="130.88 127.26 142.3 120.67 142.3 125.42 130.88 132.01 130.88 127.26"></polygon><polygon class="cls-12" points="123.72 120.89 142.3 109.81 142.3 114.57 123.72 125.64 123.72 120.89"></polygon><polygon class="cls-12" points="89.96 140.03 85.36 142.69 85.36 147.44 89.96 144.78 89.96 140.03"></polygon><polygon class="cls-12" points="121.07 122.18 93.27 138.13 93.27 142.88 121.07 126.93 121.07 122.18"></polygon><polygon class="cls-12" points="176.77 176.93 155.14 189.42 155.14 194.17 176.77 181.68 176.77 176.93"></polygon><polygon class="cls-12" points="187.87 170.52 180.08 175.02 180.08 179.77 187.87 175.28 187.87 170.52"></polygon><polygon class="cls-12" points="208.06 159.13 191.17 168.62 191.17 173.37 208.06 163.89 208.06 159.13"></polygon><polygon class="cls-12" points="166.93 171.76 155.14 178.57 155.14 183.32 166.93 176.51 166.93 171.76"></polygon><polygon class="cls-12" points="184.68 161.51 170.23 169.85 170.23 174.6 184.68 166.26 184.68 161.51"></polygon><polygon class="cls-12" points="193.28 156.55 187.98 159.6 187.98 164.35 193.28 161.3 193.28 156.55"></polygon><polygon class="cls-12" points="211.2 146.02 196.17 154.88 196.17 159.63 211.2 150.77 211.2 146.02"></polygon><polygon class="cls-12" points="163.67 162.79 155.14 167.71 155.14 172.46 163.67 167.54 163.67 162.79"></polygon><polygon class="cls-12" points="169.89 159.2 166.97 160.88 166.97 165.63 169.89 163.95 169.89 159.2"></polygon><polygon class="cls-12" points="178.49 154.23 173.19 157.29 173.19 162.04 178.49 158.98 178.49 154.23"></polygon><polygon class="cls-12" points="186.62 138.68 155.14 156.86 155.14 161.61 186.62 143.43 186.62 138.68"></polygon><polygon class="cls-12" points="210.27 125.37 189.93 136.77 189.93 141.53 210.27 130.12 210.27 125.37"></polygon><polygon class="cls-12" points="163.67 141.08 155.14 146 155.14 150.76 163.67 145.83 163.67 141.08"></polygon><polygon class="cls-12" points="183.69 129.52 166.97 139.17 166.97 143.92 183.69 134.27 183.69 129.52"></polygon><polygon class="cls-12" points="192.28 124.56 186.99 127.61 186.99 132.37 192.28 129.31 192.28 124.56"></polygon><polygon class="cls-12" points="172.59 125.08 155.14 135.15 155.14 139.9 172.59 129.83 172.59 125.08"></polygon><polygon class="cls-12" points="188.52 115.88 175.9 123.17 175.9 127.92 188.52 120.63 188.52 115.88"></polygon><polygon class="cls-12" points="212.51 101.84 191.82 113.97 191.82 118.72 212.51 106.59 212.51 101.84"></polygon><polygon class="cls-12" points="161.03 120.89 155.14 124.3 155.14 129.05 161.03 125.64 161.03 120.89"></polygon><polygon class="cls-12" points="172.13 114.49 164.34 118.98 164.34 123.74 172.13 119.24 172.13 114.49"></polygon><polygon class="cls-12" points="198.81 99.47 175.43 112.58 175.43 117.33 198.81 104.22 198.81 99.47"></polygon><polygon class="cls-12" points="173.19 103.02 155.14 113.44 155.14 118.19 173.19 107.77 173.19 103.02"></polygon><polygon class="cls-12" points="193.42 91.34 176.5 101.11 176.5 105.86 193.42 96.09 193.42 91.34"></polygon><polygon class="cls-12" points="202.01 86.38 196.72 89.43 196.72 94.19 202.01 91.13 202.01 86.38"></polygon><polygon class="cls-12" points="210.27 81.61 204.97 84.67 204.97 89.42 210.27 86.36 210.27 81.61"></polygon><polygon class="cls-12" points="165.96 96.34 155.14 102.59 155.14 107.34 165.96 101.09 165.96 96.34"></polygon><polygon class="cls-12" points="211.2 157.05 226.2 148.39 226.2 153.14 211.2 161.81 211.2 157.05"></polygon><polygon class="cls-12" points="214.41 144.34 226.2 137.54 226.2 142.29 214.41 149.1 214.41 144.34"></polygon><polygon class="cls-12" points="181.71 152.72 226.2 126.69 226.2 131.44 181.71 157.47 181.71 152.72"></polygon><polygon class="cls-12" points="213.79 122.99 226.2 115.83 226.2 120.58 213.79 127.75 213.79 122.99"></polygon><polygon class="cls-12" points="195.41 122.99 226.2 104.98 226.2 109.73 195.41 127.75 195.41 122.99"></polygon><polygon class="cls-12" points="215.38 100.37 226.2 94.12 226.2 98.87 215.38 105.12 215.38 100.37"></polygon><polygon class="cls-12" points="201.46 97.96 226.2 83.27 226.2 88.02 201.46 102.71 201.46 97.96"></polygon><polygon class="cls-12" points="214.78 79.01 226.2 72.42 226.2 77.17 214.78 83.76 214.78 79.01"></polygon><polygon class="cls-12" points="206.2 73.34 226.2 61.56 226.2 66.31 206.2 78.09 206.2 73.34"></polygon><polygon class="cls-12" points="173.86 91.78 169.26 94.44 169.26 99.19 173.86 96.53 173.86 91.78"></polygon><polygon class="cls-12" points="203.95 74.17 177.17 89.87 177.17 94.62 203.95 78.92 203.95 74.17"></polygon><polyline class="cls-5" points="349.08 303.29 349.08 330.52 338.06 326.31 336.27 317.98 336.9 311.66 339.43 307.86"></polyline><polyline class="cls-5" points="346.34 304.88 346.34 332.1 335.32 327.89 333.53 319.57 334.16 313.24 336.69 309.45"></polyline><path class="cls-2" d="M263.46,282.05l-71.62,42.48c-9.25,5.47-9.23,14.45.06,19.94l81.88,47c9.36,5.55,24.7,5.65,34.08.24l72.34-42.63v-1.83Z" transform="translate(-31.12 -14.5)"></path><path class="cls-5" d="M263.46,279,191.84,321.5c-9.25,5.47-9.23,14.45.06,19.95l81.88,47c9.36,5.55,24.7,5.66,34.08.24l72.34-42.63v-1.83Z" transform="translate(-31.12 -14.5)"></path><path class="cls-5" d="M263.46,276.16l-71.62,42.48c-9.25,5.48-9.23,14.45.06,19.95l81.88,47c9.36,5.54,24.7,5.65,34.08.25L380.2,343.2Z" transform="translate(-31.12 -14.5)"></path><path class="cls-7" d="M204.14,319.87l-2.3-2.08-9.75-6.33v17.25h0c-.08,3.42,2.07,6.87,6.46,9.47l75.86,43.54c8.68,5.14,22.89,5.24,31.58.23l67-39.5V325.06Z" transform="translate(-31.12 -14.5)"></path><path class="cls-5" d="M263.46,253.79l-71.62,42.48c-9.25,5.48-9.23,14.45.06,20l81.88,47c9.36,5.55,24.7,5.65,34.08.25l72.34-42.64v-3Z" transform="translate(-31.12 -14.5)"></path><path class="cls-2" d="M263.46,250.75l-71.62,42.49c-9.25,5.47-9.23,14.44.06,19.95l81.88,47c9.36,5.55,24.7,5.66,34.08.25l72.34-42.64Z" transform="translate(-31.12 -14.5)"></path><path class="cls-13" d="M305.61,375.32a.62.62,0,0,1-.53-.3.61.61,0,0,1,.23-.83l63-36.11a.61.61,0,0,1,.61,1.05l-63,36.11A.54.54,0,0,1,305.61,375.32Z" transform="translate(-31.12 -14.5)"></path><path class="cls-13" d="M305.61,378.62a.6.6,0,0,1-.53-.3.61.61,0,0,1,.23-.83l63-36.11a.6.6,0,0,1,.83.23.59.59,0,0,1-.22.82l-63,36.11A.54.54,0,0,1,305.61,378.62Z" transform="translate(-31.12 -14.5)"></path><path class="cls-13" d="M249.43,354a.64.64,0,0,1-.3-.08l-52.64-29.76a.61.61,0,0,1-.22-.83.6.6,0,0,1,.82-.23l52.63,29.76a.62.62,0,0,1,.24.84A.63.63,0,0,1,249.43,354Z" transform="translate(-31.12 -14.5)"></path><path class="cls-13" d="M269,372a.58.58,0,0,1-.3-.09l-72.18-41.21a.61.61,0,0,1-.22-.83.6.6,0,0,1,.82-.23l72.19,41.22A.61.61,0,0,1,269,372Z" transform="translate(-31.12 -14.5)"></path><polyline class="cls-14" points="329.55 268.36 329.55 291.61 320.15 288.01 318.62 280.9 319.15 275.5 321.32 272.26"></polyline><polyline class="cls-14" points="327.21 269.71 327.21 292.96 317.8 289.37 316.27 282.26 316.82 276.85 318.98 273.62"></polyline><path class="cls-14" d="M261,249.74,199.81,286c-7.9,4.68-7.88,12.34.05,17l69.93,40.14c8,4.73,21.09,4.83,29.11.21L360.67,307v-1.56Z" transform="translate(-31.12 -14.5)"></path><path class="cls-14" d="M260.63,247.63l-61.16,36.28c-7.91,4.67-7.89,12.33,0,17l69.93,40.14c8,4.73,21.09,4.83,29.11.21l61.77-36.42Z" transform="translate(-31.12 -14.5)"></path><path class="cls-14" d="M261,247.3l-61.17,36.29c-7.9,4.67-7.88,12.33.05,17l69.93,40.14c8,4.73,21.09,4.83,29.11.21l61.77-36.41Z" transform="translate(-31.12 -14.5)"></path><path class="cls-7" d="M210.31,284.63l-2-1.77L200,277.45v14.74h0c-.07,2.92,1.77,5.85,5.53,8.07l64.78,37.2c7.41,4.38,19.54,4.47,27,.19l57.23-33.74V289.06Z" transform="translate(-31.12 -14.5)"></path><path class="cls-14" d="M261,228.2l-61.17,36.28c-7.9,4.67-7.88,12.33.05,17l69.93,40.14c8,4.74,21.09,4.83,29.11.21l61.77-36.41v-2.59Z" transform="translate(-31.12 -14.5)"></path><path class="cls-14" d="M260.54,225.85l-61.16,36.28c-7.9,4.67-7.88,12.34.05,17l69.93,40.14c8,4.74,21.09,4.84,29.1.21l61.78-36.41Z" transform="translate(-31.12 -14.5)"></path><path class="cls-15" d="M261,225.61l-61.17,36.27c-7.9,4.68-7.88,12.34.05,17l69.93,40.14c8,4.74,21.09,4.83,29.11.21l61.77-36.41Z" transform="translate(-31.12 -14.5)"></path><path class="cls-13" d="M297,332.08a.61.61,0,0,1-.3-1.13l53.81-30.85a.61.61,0,0,1,.6,1.06L297.27,332A.61.61,0,0,1,297,332.08Z" transform="translate(-31.12 -14.5)"></path><path class="cls-13" d="M297,334.89a.58.58,0,0,1-.52-.3.61.61,0,0,1,.22-.83l53.81-30.84a.61.61,0,0,1,.6,1.06l-53.81,30.84A.6.6,0,0,1,297,334.89Z" transform="translate(-31.12 -14.5)"></path><path class="cls-13" d="M249,313.84a.56.56,0,0,1-.3-.08l-44.94-25.42a.6.6,0,1,1,.59-1l44.95,25.42a.6.6,0,0,1,.23.82A.6.6,0,0,1,249,313.84Z" transform="translate(-31.12 -14.5)"></path><path class="cls-13" d="M265.69,329.26a.54.54,0,0,1-.3-.08L203.74,294a.61.61,0,1,1,.61-1.05L266,328.13a.61.61,0,0,1-.3,1.13Z" transform="translate(-31.12 -14.5)"></path><path class="cls-13" d="M271.27,334.89a.59.59,0,0,1-.29-.07l-67.23-38a.61.61,0,0,1-.24-.83.62.62,0,0,1,.83-.23l67.23,38a.6.6,0,0,1-.3,1.13Z" transform="translate(-31.12 -14.5)"></path><polygon class="cls-14" points="329.55 290.82 327.21 292.06 327.21 284.95 329.55 284.95 329.55 290.82"></polygon><polyline class="cls-2" points="312.13 240.65 312.12 259.56 304.69 256.21 303.48 250.58 303.9 246.3 305.61 243.74"></polyline><polyline class="cls-5" points="310.28 241.72 310.28 260.13 302.83 257.28 301.62 251.65 302.05 247.37 303.76 244.81"></polyline><path class="cls-2" d="M264.33,228.94l-48.42,28.72c-6.26,3.7-6.24,9.76,0,13.48l55.36,31.78c6.33,3.75,16.7,3.82,23,.17l48.9-28.83v-.41Z" transform="translate(-31.12 -14.5)"></path><path class="cls-5" d="M264.33,227l-48.42,28.72c-6.26,3.7-6.24,9.77,0,13.49L271.31,301c6.33,3.75,16.7,3.82,22,.16l48.14-28.42Z" transform="translate(-31.12 -14.5)"></path><path class="cls-7" d="M224.22,256.56l-1.56-1.41-6.58-4.28v11.66h0c-.05,2.32,1.4,4.64,4.38,6.4l51.28,29.45c5.87,3.47,15.48,3.54,21.35.15l45.32-26.71V260.06Z" transform="translate(-31.12 -14.5)"></path><path class="cls-2" d="M264.33,211.88,215.91,240.6c-6.26,3.7-6.24,9.77,0,13.48l55.36,31.78c6.33,3.75,16.7,3.83,23,.17l48.9-28.83v-2Z" transform="translate(-31.12 -14.5)"></path><path class="cls-6" d="M264,210l-48.42,28.72c-6.25,3.7-6.23,9.77,0,13.49L271,284c6.33,3.76,16.7,3.83,23,.17l48.91-28.83Z" transform="translate(-31.12 -14.5)"></path><path class="cls-4" d="M264.33,209.83l-48.42,28.72c-6.26,3.7-6.24,9.77,0,13.48l55.36,31.78c6.33,3.75,16.7,3.82,23,.17l48.9-28.83Z" transform="translate(-31.12 -14.5)"></path><path class="cls-13" d="M292.83,294.11a.48.48,0,0,1-.42-.23.49.49,0,0,1,.17-.66l42.6-24.42a.48.48,0,1,1,.48.84l-42.6,24.41A.38.38,0,0,1,292.83,294.11Z" transform="translate(-31.12 -14.5)"></path><path class="cls-13" d="M292.83,296.35a.49.49,0,0,1-.25-.9L335.18,271a.48.48,0,1,1,.48.84l-42.6,24.42A.46.46,0,0,1,292.83,296.35Z" transform="translate(-31.12 -14.5)"></path><path class="cls-13" d="M261.85,285.88a.55.55,0,0,1-.24-.07L219,261.73a.49.49,0,0,1-.18-.66.48.48,0,0,1,.65-.18L262.09,285a.49.49,0,0,1,.18.66A.48.48,0,0,1,261.85,285.88Z" transform="translate(-31.12 -14.5)"></path><path class="cls-13" d="M268.06,291.89a.5.5,0,0,1-.24-.06L219,264a.48.48,0,0,1-.18-.65.49.49,0,0,1,.66-.18L268.29,291a.47.47,0,0,1,.19.65A.48.48,0,0,1,268.06,291.89Z" transform="translate(-31.12 -14.5)"></path><path class="cls-13" d="M272.48,296.35a.46.46,0,0,1-.23-.06L219,266.19a.49.49,0,0,1-.18-.66.48.48,0,0,1,.65-.18l53.23,30.1a.48.48,0,0,1-.24.9Z" transform="translate(-31.12 -14.5)"></path><path class="cls-2" d="M165.53,407.4l3.08.9L211,383.53a11.42,11.42,0,0,1,10.43,0l90,52.73,2.88-1.18v4.74h0a3.79,3.79,0,0,1-2.13,3l-42.66,25.34a11.41,11.41,0,0,1-10.38.08l-91.49-53.3a3.67,3.67,0,0,1-2.17-3.12h0Z" transform="translate(-31.12 -14.5)"></path><path class="cls-10" d="M165.53,406.11l3.08.9L211,382.24a11.39,11.39,0,0,1,10.43,0l90,52.73,2.88-1.18v4.73h0a3.76,3.76,0,0,1-2.13,3l-42.66,25.35a11.38,11.38,0,0,1-10.38.07l-91.49-53.3a3.64,3.64,0,0,1-2.17-3.11h0Z" transform="translate(-31.12 -14.5)"></path><path class="cls-7" d="M211,377.5a11.45,11.45,0,0,1,10.43,0l90.81,53.18c2.82,1.67,2.81,4.4,0,6.08l-42.66,25.35a11.44,11.44,0,0,1-10.38.07l-91.49-53.3c-2.9-1.67-2.9-4.42,0-6.11Z" transform="translate(-31.12 -14.5)"></path><path class="cls-4" d="M213.48,382.66a9.46,9.46,0,0,1,8.62,0l81,47.27c2.34,1.38,2.33,3.64,0,5l-35.3,21a9.4,9.4,0,0,1-8.59.06l-81.59-47.36c-2.4-1.39-2.4-3.66,0-5.06Z" transform="translate(-31.12 -14.5)"></path><path class="cls-7" d="M215.51,391a5.19,5.19,0,0,1,4.76,0l41.5,24.29a1.48,1.48,0,0,1,0,2.78l-19.49,11.58a5.23,5.23,0,0,1-4.75,0l-41.8-24.36c-1.33-.76-1.33-2,0-2.79Z" transform="translate(-31.12 -14.5)"></path><path class="cls-2" d="M195.72,405.37c-1.33-.76-1.33-2,0-2.79L215.51,391a5.19,5.19,0,0,1,4.76,0l2.63,1.54-25,14.09Z" transform="translate(-31.12 -14.5)"></path><path class="cls-15" d="M237.91,408.7c0,3.13-5.49,5.68-12.27,5.68s-12.26-2.55-12.26-5.68,5.49-5.68,12.26-5.68S237.91,405.56,237.91,408.7Z" transform="translate(-31.12 -14.5)"></path><path class="cls-4" d="M229.85,421.52a.57.57,0,0,1,0-1.07l16.06-9.23a2,2,0,0,1,1.84,0l1,.6-18,10.21Z" transform="translate(-31.12 -14.5)"></path><path class="cls-4" d="M234.8,424.12a.57.57,0,0,1,0-1.08l7.84-4.53a2,2,0,0,1,1.83,0l1,.6-9.83,5.51Z" transform="translate(-31.12 -14.5)"></path><path class="cls-16" d="M263.29,449.22c-1.63-.94-1.62-2.48,0-3.44l25.12-14.54a6.46,6.46,0,0,1,5.87,0h0a2.15,2.15,0,0,1,0,3.73l-27.14,15.23a2.18,2.18,0,0,1-2.14,0Z" transform="translate(-31.12 -14.5)"></path><path class="cls-4" d="M238.91,426.26a.57.57,0,0,1,0-1.08l7.84-4.53a2,2,0,0,1,1.83,0l1,.59-9.83,5.52Z" transform="translate(-31.12 -14.5)"></path><path class="cls-2" d="M316,241.85c-2.11,1.78-3.9-2.39-4.05-2.23a76.51,76.51,0,0,1-7,6c-1.32,1.08-3.37,2.52-3,4.58.67,3.7,6.35,2.56,8.5,1.43s3.9-3,5.93-4.31c1.45-.94,2.87-1.42,3.1-3.32C319.65,242.88,316.37,241.8,316,241.85Z" transform="translate(-31.12 -14.5)"></path><path class="cls-2" d="M315.85,243c-.28,1.82,1.95,2.54.52,3.47-2.07,1.33-3.88,3.25-6,4.38-2,1.05-6.93,2.08-8.32-.55.76,3.56,6.35,2.44,8.47,1.32s3.9-3,5.93-4.31c1.45-.94,2.87-1.42,3.1-3.32C319.54,243.84,315.88,243.35,315.85,243Z" transform="translate(-31.12 -14.5)"></path><path class="cls-2" d="M309.61,245.87a4,4,0,0,0-2.81-1.68.71.71,0,0,0-.77.62,5.32,5.32,0,0,1,3,1.66C309.37,246.89,310,246.28,309.61,245.87Z" transform="translate(-31.12 -14.5)"></path><path class="cls-2" d="M311.21,244.56a4,4,0,0,0-2.81-1.68.72.72,0,0,0-.77.63,5.19,5.19,0,0,1,3,1.65C311,245.58,311.54,245,311.21,244.56Z" transform="translate(-31.12 -14.5)"></path><path class="cls-2" d="M312.8,243.24a4,4,0,0,0-2.81-1.68.71.71,0,0,0-.77.62,5.26,5.26,0,0,1,3,1.66C312.56,244.25,313.13,243.65,312.8,243.24Z" transform="translate(-31.12 -14.5)"></path><path class="cls-2" d="M325.15,247.29c-2.1,1.79-3.33-2.52-3.48-2.36a76.64,76.64,0,0,1-7,6c-1.31,1.08-3.36,2.51-3,4.58.66,3.69,6.35,2.56,8.5,1.43s3.89-3,5.93-4.32c1.44-.93,2.87-1.42,3.09-3.32C329.37,248.18,325.53,247.25,325.15,247.29Z" transform="translate(-31.12 -14.5)"></path><path class="cls-2" d="M329,249c-.28,1.82-1.48,1.93-2.92,2.86-2.06,1.33-3.88,3.25-6,4.38-2,1-6.93,2.08-8.32-.56.76,3.56,6.34,2.45,8.47,1.33s3.89-3,5.93-4.32c1.44-.93,2.87-1.42,3.09-3.32C329.26,249.15,329,249.28,329,249Z" transform="translate(-31.12 -14.5)"></path><path class="cls-2" d="M319.33,251.18a4,4,0,0,0-2.81-1.68.71.71,0,0,0-.77.62,5.21,5.21,0,0,1,3,1.66C319.09,252.19,319.66,251.59,319.33,251.18Z" transform="translate(-31.12 -14.5)"></path><path class="cls-2" d="M320.93,249.87a4,4,0,0,0-2.81-1.68.71.71,0,0,0-.77.62,5.26,5.26,0,0,1,3,1.66C320.69,250.88,321.26,250.28,320.93,249.87Z" transform="translate(-31.12 -14.5)"></path><path class="cls-2" d="M322.52,248.55a4,4,0,0,0-2.81-1.68.71.71,0,0,0-.77.62,5.28,5.28,0,0,1,3,1.65C322.28,249.56,322.85,249,322.52,248.55Z" transform="translate(-31.12 -14.5)"></path><path class="cls-2" d="M433.94,342.32l-.18-.4-.78.26-.93.31-1.88.61-1.87.62-.93.31-1,.33h0c-.29.1-8.52,2.59-9.64,3h0l-.06,0h-.05L310.35,406.13l-1.53,2.06,1.39,3.81,2.92,1.77L419.49,355l.06-.08c2.91-2.43,6.05-5.67,8.94-8.08Z" transform="translate(-31.12 -14.5)"></path><g class="cls-9"><path class="cls-5" d="M434.05,339.63l-.78.25-.93.31-1.88.62-1.87.61-.94.31-1,.33,2.13,2.48,5.45-4.52Z" transform="translate(-31.12 -14.5)"></path><path class="cls-7" d="M426.65,342.06c-.31.1-9.37,2.85-9.75,3.06.19.36.33.4.93.75a5.71,5.71,0,0,1,2.75,4.4,4.79,4.79,0,0,1-.86,2.46c2.94-2.44,6.12-5.75,9.06-8.19C429.1,343.79,427.33,342,426.65,342.06Z" transform="translate(-31.12 -14.5)"></path><path class="cls-17" d="M420.58,350.27c0,1.68-1.19,2.36-2.62,1.52a5.72,5.72,0,0,1-2.56-4.55c0-1.67,1.18-2.36,2.61-1.52A5.79,5.79,0,0,1,420.58,350.27Z" transform="translate(-31.12 -14.5)"></path></g><g class="cls-9"><polygon class="cls-5" points="283.82 394.92 390.19 336.15 388.66 338.21 282.29 396.97 283.82 394.92"></polygon><polygon class="cls-2" points="282.44 391.1 388.8 332.33 390.19 336.15 283.82 394.92 282.44 391.1"></polygon><polygon class="cls-4" points="279.52 389.34 385.88 330.57 388.8 332.33 282.44 391.1 279.52 389.34"></polygon><polygon class="cls-5" points="282.44 391.1 283.82 394.92 282.29 396.97 279.38 395.21 277.99 391.39 279.52 389.34 282.44 391.1"></polygon></g><ellipse class="cls-2" cx="101.52" cy="374.46" rx="27.98" ry="15.31"></ellipse><path class="cls-7" d="M142,327.6l-36.71,12.33v46.2c0,9.35,12.44,16.93,27.79,16.93s27.8-7.58,27.8-16.93v-46.2Z" transform="translate(-31.12 -14.5)"></path><ellipse class="cls-18" cx="101.96" cy="325.43" rx="27.8" ry="16.93"></ellipse><path class="cls-2" d="M109.42,348.81c4.9,4.83,13.66,8.05,23.66,8.05s18.77-3.22,23.67-8.05a9.25,9.25,0,0,0,.52-3c0-8.14-10.83-14.73-24.19-14.73s-24.18,6.59-24.18,14.73A9.25,9.25,0,0,0,109.42,348.81Z" transform="translate(-31.12 -14.5)"></path><path class="cls-4" d="M133.08,323c-15.35,0-27.79,7.59-27.79,16.94s12.44,16.93,27.79,16.93,27.8-7.58,27.8-16.93S148.44,323,133.08,323Z" transform="translate(-31.12 -14.5)"></path><path class="cls-5" d="M133.08,326.15c-12.48,0-22.6,6.17-22.6,13.78s10.12,13.77,22.6,13.77,22.61-6.17,22.61-13.77-10.12-13.78-22.61-13.78Z" transform="translate(-31.12 -14.5)"></path><path class="cls-5" d="M151.22,268.65c3.11-3.44,3.85-2,3.57.05a67,67,0,0,0-.42,9.29l0,18.42c0,7,0,14.09-1.89,20.82s-6,13.15-12.26,16.26c-3.1,1.54-7,2.14-9.93.3a10.39,10.39,0,0,1-3.12-3.34c-7.06-11.06-.53-25.92,4.54-36.54C136.56,283.85,143.73,276.92,151.22,268.65Z" transform="translate(-31.12 -14.5)"></path><path class="cls-2" d="M103.94,312.4c-1.49-19.63-.85-39.57-4.16-58.9A2.15,2.15,0,0,1,103.7,252,92.57,92.57,0,0,1,118,311.33c5.08-15.85,10.21-32,10.11-48.67,0-5,1.93-14.41,3.36-20.61a1.31,1.31,0,0,1,2.56.07c.93,5.24,2.37,12.75,3.82,18.2A123.25,123.25,0,0,1,141,280.54l1.59,27.76c5.62-17,18.27-38.78,24.36-48.78a1.4,1.4,0,0,1,2.58.91c-2,15.8-7.42,56.31-10.57,67.28-4.47,15.55-19,26.13-35.71,22.45C108.08,346.82,104.89,325,103.94,312.4Z" transform="translate(-31.12 -14.5)"></path><path class="cls-3" d="M116.26,339.82c-3.17-8.72-.71-23.12,1.27-32.18s3-18.34,1.83-27.44c-.1-.85,1-5,3.67-.24,8.11,14.7,11.8,17.53,17.21,41.94,1,4.71,1.68,14,.79,18.75-1.61,8.56-9.22,12-14.4,10.69C122.55,350.33,117.65,343.65,116.26,339.82Z" transform="translate(-31.12 -14.5)"></path><path class="cls-15" d="M336.29,143.78c-.29-2.19.39-5.61-1-7.36-8.73,5.68-7.13,16.76-8.24,24.9-3.65,3.82-9.94,9.11-12,10a.89.89,0,0,0-.5,1,10.68,10.68,0,0,0,1.77,4c4.85-2.1,10.08-2.41,16.14-8.16.24-.23.59-.29.69-.6C334.87,162.44,336.79,147.57,336.29,143.78Z" transform="translate(-31.12 -14.5)"></path><path class="cls-7" d="M317.63,238c-2.06,1.68-5.9.81-6.05,1a72.31,72.31,0,0,1-6.81,5.67c-1.28,1-3.29,2.37-2.92,4.31.64,3.47,6.21,2.41,8.3,1.34s3.81-2.82,5.8-4c1.42-.88,2.81-1.34,3-3.13C319.11,242,318,237.91,317.63,238Z" transform="translate(-31.12 -14.5)"></path><path class="cls-2" d="M319,242.33c-.27,1.71-1.65,2.19-3.05,3.06-2,1.25-3.8,3.06-5.89,4.12-1.94,1-6.77,2-8.14-.52.74,3.35,6.21,2.29,8.28,1.24s3.81-2.82,5.8-4c1.42-.88,2.81-1.34,3-3.13A3.12,3.12,0,0,0,319,242.33Z" transform="translate(-31.12 -14.5)"></path><path class="cls-2" d="M309.29,244.79a3.93,3.93,0,0,0-2.74-1.58.68.68,0,0,0-.75.58,5.23,5.23,0,0,1,2.93,1.56C309.06,245.74,309.62,245.18,309.29,244.79Z" transform="translate(-31.12 -14.5)"></path><path class="cls-2" d="M310.86,243.56a3.94,3.94,0,0,0-2.75-1.58.68.68,0,0,0-.75.58,5.2,5.2,0,0,1,2.93,1.56C310.62,244.51,311.18,244,310.86,243.56Z" transform="translate(-31.12 -14.5)"></path><path class="cls-2" d="M312.41,242.31a3.94,3.94,0,0,0-2.75-1.57.69.69,0,0,0-.75.58,5.23,5.23,0,0,1,2.94,1.56C312.18,243.27,312.74,242.7,312.41,242.31Z" transform="translate(-31.12 -14.5)"></path><path class="cls-2" d="M345.55,178.39c-5.51.71-10.09-5.21-15-7.45.09,1.71-1.42,8.19-1.42,8.19-6.58,4.65-19.4,12.65-20.26,18.05.86,17.06,1.87,41.08,2.5,41.61,2.07,1.75,5.61.69,6.59-.3,0,0,3.73-14.14,2.53-35.35,0,0,23-10.19,24.52-15.77.86-3.2.69-3.61.63-6.93C345.67,179.75,345.61,179.07,345.55,178.39Z" transform="translate(-31.12 -14.5)"></path><path class="cls-7" d="M326.87,243.72c-2.06,1.68-5.9.81-6.05,1a72.31,72.31,0,0,1-6.81,5.67c-1.28,1-3.29,2.37-2.92,4.31.64,3.47,6.21,2.4,8.3,1.34s3.81-2.82,5.8-4.05c1.42-.88,2.81-1.34,3-3.13C328.35,247.74,327.24,243.68,326.87,243.72Z" transform="translate(-31.12 -14.5)"></path><path class="cls-2" d="M328.19,248.1c-.27,1.71-1.64,2.18-3.05,3.06-2,1.25-3.79,3.06-5.89,4.12-1.94,1-6.77,2-8.14-.52.74,3.34,6.21,2.29,8.28,1.24s3.81-2.82,5.8-4.05c1.42-.88,2.81-1.34,3-3.13A3.12,3.12,0,0,0,328.19,248.1Z" transform="translate(-31.12 -14.5)"></path><path class="cls-2" d="M318.53,250.56a3.93,3.93,0,0,0-2.74-1.58.69.69,0,0,0-.75.58,5.23,5.23,0,0,1,2.93,1.56C318.3,251.51,318.86,251,318.53,250.56Z" transform="translate(-31.12 -14.5)"></path><path class="cls-2" d="M320.1,249.33a3.94,3.94,0,0,0-2.75-1.58.68.68,0,0,0-.75.58,5.26,5.26,0,0,1,2.94,1.56C319.87,250.28,320.43,249.72,320.1,249.33Z" transform="translate(-31.12 -14.5)"></path><path class="cls-2" d="M321.65,248.08a4,4,0,0,0-2.75-1.58.7.7,0,0,0-.75.59,5.15,5.15,0,0,1,2.94,1.55C321.42,249,322,248.47,321.65,248.08Z" transform="translate(-31.12 -14.5)"></path><path class="cls-4" d="M351.23,172.14c-4.56,2.13-11.23,4.24-16.38,3.71.06,2.28,3.95,9.21,3.95,9.21-6.58,4.65-19.79,12.49-20.65,17.89C319,220,320,244,320.65,244.56c2.07,1.75,5.61.69,6.59-.3,0,0,3.74-14.14,2.53-35.35,0-.4,19.73-10.11,22.23-12.68,2.68-2.76,3-6.39,2.92-10C354.86,182.79,352.68,175.49,351.23,172.14Z" transform="translate(-31.12 -14.5)"></path><path class="cls-14" d="M356.59,147a12.48,12.48,0,0,0-3.54-7.1c-2.16-2.15-5.07-3.15-7.93-4a13,13,0,0,0-8.58,0c-4.23,1.58-7.25,12.27-7.7,16.36-.13.1,2,20.75,2,20.75,1.9,3.45,10.11,5.09,22.44-1.94-.47-1.87,1.22,1.61.44-.49-.52-1.42-2.65-1.91-2.15-3.34C353.26,162.39,357.12,150.93,356.59,147Z" transform="translate(-31.12 -14.5)"></path><path class="cls-15" d="M356.59,147a12.45,12.45,0,0,0-2.63-6.07c-4.9,4.81-5,17.52-6.12,25.66-4.32,4.53-12.12,8.32-12.12,8.32a14,14,0,0,0,1.07,3.71,2.47,2.47,0,0,0,3.28,1.31,49.73,49.73,0,0,0,14.81-9.55c.24-.22.89-.72,1-1C357.6,164.12,357.09,150.75,356.59,147Z" transform="translate(-31.12 -14.5)"></path><path class="cls-8" d="M333.1,135.43c.93,1.39,3.79,2.73,5.95,3.28.65.17.7-.29,1.31-.05.34-.52,1.5-2.38,1.48-3.06,0-1.28-2.4.08-3.18-.41a.43.43,0,0,1,0-.11,5.09,5.09,0,0,0-1.28-3.24,13.49,13.49,0,0,0-3-2.89h0A8.43,8.43,0,0,1,333.1,135.43Z" transform="translate(-31.12 -14.5)"></path><path class="cls-19" d="M339.19,133.48s.18,4.8.19,4.85c0,2.7,4,2.93,7.48-1.58v-8.53C346.86,127.86,339.19,133.06,339.19,133.48Z" transform="translate(-31.12 -14.5)"></path><path class="cls-19" d="M348.85,113.77a8.23,8.23,0,0,0-6-1.74,11,11,0,0,0-5.63,2.61,12.61,12.61,0,0,0-3.5,4.8,11.86,11.86,0,0,0-.61,5.9c.77,6.57,3.2,9.86,4.67,11a1.66,1.66,0,0,0,1.18.32,10.14,10.14,0,0,0,6.91-3.75c1.22-1.83,2.28-1.23,4-2.64.14-.12.59-2.58.7-2.69C353.18,124.77,354,118.22,348.85,113.77Z" transform="translate(-31.12 -14.5)"></path><path class="cls-2" d="M320.7,183.61a2.74,2.74,0,0,1-1.36-1.59L312,163.25c-.36-1.17,1.9-2.62,3-2.09l12.69,6a1.41,1.41,0,0,1,.74.88l5.78,19.89c.34,1.19-1.87,3.25-3,2.66Z" transform="translate(-31.12 -14.5)"></path><path class="cls-8" d="M346.25,127.58l.13,0c.32-1,1.83-1.7,2.41-.52s-.29,3.73-1.54,3.4a.58.58,0,0,0-.68.26,12.75,12.75,0,0,0-.77,3.5,23.93,23.93,0,0,0,.89,6.24c5.14-.25,11-3.6,14.16-7.65a18.47,18.47,0,0,1-3.23-7.76,24.2,24.2,0,0,0-2.33-7.91,12.14,12.14,0,0,0-4.64-5.09,13,13,0,0,0-12.29-.07c-5.05,2.69-7.26,9.36-5.21,13.94-.92-4.83,3.56-5.2,6.2-5.86a.57.57,0,0,0,0,.26C340.19,123.88,343.23,125.85,346.25,127.58Z" transform="translate(-31.12 -14.5)"></path><path class="cls-5" d="M319.41,184.62a2.76,2.76,0,0,1-1.35-1.59l-6.28-19.17a1.4,1.4,0,0,1,1.94-1.69l12.7,6a1.41,1.41,0,0,1,.74.88l5.77,19.89a1.4,1.4,0,0,1-2,1.63Z" transform="translate(-31.12 -14.5)"></path><path class="cls-19" d="M338,176.7a1.66,1.66,0,0,0-2.22-1.09c-1,.29-2.62,1-3.62.67a6.8,6.8,0,0,1-1.89-1.22,3.81,3.81,0,0,0-1.59-.44c.05.28.41,1.92.41,1.92s-4.45-.17-4.9-.27a.75.75,0,0,0-.71,1.24l-.3,0c-.92-.21-1.31,1.2-.39,1.4.25.06.5.08.74.12-.59.23-.74,1.21,0,1.36l.23,0a.62.62,0,0,0,.33.05l.14,0a.8.8,0,0,0,.67,1c2.18.28,5.39,1.15,7.36-.65a18.94,18.94,0,0,0,4.89-1.43C338.43,178.72,338.38,178,338,176.7Z" transform="translate(-31.12 -14.5)"></path><path class="cls-19" d="M318.8,174.87l-.24-.06a.61.61,0,0,0-.15-1.14c-.37-.07-3.91-1.48-3.91-1.48l-.43-1.4c0-.09-.44,0-.46,0a2.51,2.51,0,0,0-1.43,1.64,4,4,0,0,0,.56,3A3.67,3.67,0,0,0,315,177l1.24.3a.66.66,0,0,0,.8-.5l.11,0a.57.57,0,0,0,.26.06l.18,0c.62.13.81-.65.44-1a5.63,5.63,0,0,0,.59.14C319.41,176.17,319.55,175,318.8,174.87Z" transform="translate(-31.12 -14.5)"></path><path class="cls-20" d="M172.82,196.29c-.17-4.7,1.06-6.21,1.18-8.34s-.88-1.85-1.26-.64-.61,2-.93,1.52c-.12-.18-1-.9.53-4.28s.74-6-.28-4.26-.78,3.46-2.51,4.5-3.53.79-3.08,3.76a40.21,40.21,0,0,0,2.15,7.12Z" transform="translate(-31.12 -14.5)"></path><path class="cls-5" d="M183.86,281.31l2.75,54.62,7.19,32.84a4.72,4.72,0,0,0,4.5,3.71h0a4.71,4.71,0,0,0,4.76-5.4l-4.65-31.74,4.26-33.43.82,32.45,7,33.6a4.72,4.72,0,0,0,4.66,4h.18a4.71,4.71,0,0,0,4.69-5.16l-3.22-33.73.58-44.44a12.37,12.37,0,0,0-.43-3.37l-.8-3Z" transform="translate(-31.12 -14.5)"></path><path class="cls-14" d="M172.56,194.73a1.8,1.8,0,0,1,1.84,1.63l2.1,21.25c.21,2,12.35,19.22,13.83,20.62l-.69-.22,6.74-.89c4.19.17,3.73-.14,7.62-1.7,0,0,1.63.23,3,.31,1.83.11,5.85.69,7.31,3.15l.38.77.43,12c-1.7,6.53-3.24,15.12-.45,21.28l2.2,12.15-.45.22A49.09,49.09,0,0,1,188,289.49l-3.76-.58c-1.7-12.56-4.48-27.47-2.68-42.54l-13.28-21.7a7.6,7.6,0,0,1-2.1-5.16l.13-22.9a1.83,1.83,0,0,1,1.79-1.81Z" transform="translate(-31.12 -14.5)"></path><path class="cls-20" d="M195,214.83l-3.33,11.54a3.45,3.45,0,0,0,2,4.5l2.08.41.05,6.07,1.74.33a8.31,8.31,0,0,0,7-2h0l.55-15.49Z" transform="translate(-31.12 -14.5)"></path><path class="cls-2" d="M202.09,232.85s-2.33-3.91-2-6.94c0,0,4.22-1.86,2.63-3.53s-3.55,1-3.55,1,.91-4.09.39-5.32c0,0-7.6-.66-6-4.93,0,0,2.28-1.7,7.08-1.56s6.74,8.27,6.74,8.27Z" transform="translate(-31.12 -14.5)"></path><path class="cls-2" d="M197.08,213.34s2-3.08,8.32-2.53,9.07,5.24,8.74,9.39-7,13.22-7,13.22l-5.06-.57s1.52-4.93,1.16-6.11.19-6.47,1.06-6.72S197.08,213.34,197.08,213.34Z" transform="translate(-31.12 -14.5)"></path><path class="cls-14" d="M214.69,239.65s14.52,23.43,14.85,25.07-13.84,17-13.84,17l-4-8.11,6.56-9.1s-5.25-8.6-5.9-9.26S212,240.8,214.69,239.65Z" transform="translate(-31.12 -14.5)"></path></svg> 