<svg xmlns="http://www.w3.org/2000/svg" id="Layer_1" data-name="Layer 1" viewBox="0 0 1067.8 496.34"><defs><style>.cls-1{fill:#d2d3d5}.cls-2{fill:#82b5d2}.cls-3{fill:#d2edfe}.cls-4{fill:#7ed5ff}.cls-5{fill:#3796c7}.cls-7{fill:#ff4152}.cls-9{fill:#fff}</style></defs><path class="cls-1" d="M422.92 453.32H414v-3h9.92l.17 3c-.39-.01-.78 0-1.17 0zm-14.92 0h-10v-3h10zm-16 0h-10v-3h10zm38.39-1.42l-1.11-2.79a17.33 17.33 0 007.27-5.45l2.37 1.84a20.35 20.35 0 01-8.53 6.4zm11.64-12l-2.83-1a17.19 17.19 0 001-5.79v-3.58h3v3.58a20.37 20.37 0 01-1.2 6.74zm1.16-16.38h-3v-10h3zm0-16h-3v-10h3zm0-16h-3v-10h3zm0-16h-3v-10h3zm0-16h-3v-10h3zm0-16h-3v-10h3zm0-16h-3v-10h3zm368.37 128.93h-10v-3h10zm-16 0h-10v-3h10zm-16 0h-10v-3h10zm-16 0h-10v-3h10zm-16 0h-10v-3h10zm-16 0h-10.08l.17-3h9.92zM715.18 455a20.23 20.23 0 01-8.53-6.4l2.36-1.84a17.39 17.39 0 007.27 5.45zm-11.64-12a20 20 0 01-1.17-6.79v-3.61h3v3.58a17.24 17.24 0 001 5.79zm1.83-16.37h-3v-10h3zm0-16h-3v-10h3zm0-16h-3v-10h3zm0-16h-3v-10h3zm0-16h-3v-10h3zm0-16h-3v-10h3zm0-16h-3v-10h3zM443 197.72h-3v-3.44h3zm0-9.44h-3v-10h3zm0-16h-3v-10h3zm0-16h-3v-10h3zm0-16h-3v-10h3zm0-16h-3v-10h3zm0-16h-3v-3.58a17.27 17.27 0 00-1-5.79l2.83-1a20.31 20.31 0 011.16 6.79zm-6.63-14.19a17.27 17.27 0 00-7.27-5.46l1.11-2.79a20.35 20.35 0 018.53 6.4zm-12.64-6.64H414v-3h10.08zm-15.91 0H398v-3h10zm-16 0H382v-3h10zm-16 0H366v-3h10zm-16 0H350v-3h10zm-16 0H334v-3h10z" transform="translate(-39.4 -45.31)"/><circle class="cls-1" cx="771.73" cy="40.2" r="6.56"/><path class="cls-1" d="M705.14 163.26h-3v-1h3zm0-7h-3v-10h3zm0-16h-3v-10h3zm0-16h-3v-10h3zm0-16h-3v-3.59a20.08 20.08 0 011.17-6.79l2.82 1a17.27 17.27 0 00-1 5.79zm3.64-14.19l-2.37-1.85a20.32 20.32 0 018.54-6.4l1.1 2.79a17.27 17.27 0 00-7.27 5.48zm12.64-6.64l-.17-3h10.08v3h-8.92q-.49-.01-.99.02zm89.91 0h-10v-3h10zm-16 0h-10v-3h10zm-16 0h-10v-3h10zm-16 0h-10v-3h10zm-16 0h-10v-3h10z" transform="translate(-39.4 -45.31)"/><path class="cls-1" d="M921.25 210.21h5v3h-5z"/><path class="cls-1" d="M954.87 258.53h-9.63v-3h9.63zm-15.4 0h-9.62v-3h9.62zm-15.4 0h-9.62v-3h9.62zm-15.39 0h-9.63v-3h9.63zm-15.4 0h-9.62v-3h9.62zm-15.4 0h-9.62v-3h9.62zm-15.39 0h-9.63v-3h9.63zm-15.4 0h-9.63v-3h9.63zm-15.4 0h-9.62v-3h9.62zm-15.4 0h-9.62v-3h9.62zm-15.39 0h-9.63v-3h9.63zm-15.4 0h-9.62v-3h9.62z" transform="translate(-39.4 -45.31)"/><path class="cls-1" d="M725.71 210.21h5v3h-5z"/><circle class="cls-1" cx="926.04" cy="212.12" r="6.56"/><path class="cls-1" d="M539.87 332.33h3v5h-3z"/><path class="cls-1" d="M582.27 371.42h-3v-10.36h3zm0-16.57h-3v-10.36h3zm0-16.58h-3v-10.36h3z" transform="translate(-39.4 -45.31)"/><path class="cls-1" d="M539.87 271.38h3v5h-3z"/><circle class="cls-1" cx="540.96" cy="337.12" r="6.56"/><path class="cls-1" d="M168.45 211.03h5v3h-5z"/><path class="cls-1" d="M386.47 259.35h-9.87v-3h9.87zm-15.79 0h-9.86v-3h9.86zm-15.78 0H345v-3h9.87zm-15.78 0h-9.87v-3h9.87zm-15.79 0h-9.86v-3h9.86zm-15.78 0h-9.87v-3h9.87zm-15.79 0h-9.86v-3h9.86zm-15.78 0h-9.86v-3H276zm-15.78 0h-9.87v-3h9.87zm-15.79 0h-9.86v-3h9.86zm-15.78 0h-9.86v-3h9.86z" transform="translate(-39.4 -45.31)"/><path class="cls-1" d="M352.99 211.03h5v3h-5z"/><rect class="cls-2" x="165.37" y="362.3" width="128.62" height="89.41" rx="10.94"/><rect class="cls-3" x="174.66" y="371.56" width="109.79" height="69.61" rx="3.61"/><path class="cls-4" d="M799.32 39.21h9.6a6.29 6.29 0 016.29 6.29V90H793V45.5a6.29 6.29 0 016.32-6.29z"/><path class="cls-5" d="M857.59 2.46h10.71a6.29 6.29 0 016.29 6.29V90H851.3V8.76a6.29 6.29 0 016.29-6.29z"/><path d="M828.54 17.61h9.92a6.29 6.29 0 016.29 6.29V90h-22.5V23.91a6.29 6.29 0 016.29-6.3z" fill="#4bb1e4"/><rect class="cls-3" x="794.19" y="365.5" width="86.97" height="89.41" rx="18.35"/><rect class="cls-5" x="233.27" y="396.63" width="85.23" height="61.77" rx="10.94"/><rect class="cls-7" x="205.87" y="445.56" width="75.82" height="42.26" rx="10.94" transform="rotate(90 246.74 424.34)"/><path class="cls-5" d="M908.44 500.85h-62.73a16.36 16.36 0 01-16.33-16.34v-59.69a16.35 16.35 0 0116.33-16.33h62.73a16.35 16.35 0 0116.33 16.33v59.69a16.36 16.36 0 01-16.33 16.34zm-62.73-84.36a8.34 8.34 0 00-8.33 8.33v59.69a8.35 8.35 0 008.33 8.34h62.73a8.35 8.35 0 008.33-8.34v-59.69a8.34 8.34 0 00-8.33-8.33z" transform="translate(-39.4 -45.31)"/><path class="cls-1" d="M716.84 315.42h-4.63v-3h4.49l2.09-.2c1.08 0 2.17-.09 3.24-.2l.31 3c-1.13.12-2.29.19-3.43.21zm-10.63 0h-10v-3h10zm-16 0h-10v-3h10zm-16 0h-10v-3h10zm-16 0h-10v-3h10zm-16 0h-10v-3h10zm-16 0h-10v-3h10zm-16 0h-10v-3h10zm-16 0h-10v-3h10zm-16 0h-10v-3h10zm-16 0h-10v-3h10zm-16 0h-10v-3h10zm-16 0h-10v-3h10zm-16 0h-10v-3h10zm-16 0h-10v-3h10zm-16 0h-10v-3h10zm-16 0h-10v-3h10zm-16 0a52.59 52.59 0 01-10.2-1.14l.62-2.93a50.54 50.54 0 009.63 1.07zm278.28-1.5l-.74-2.9a41.19 41.19 0 009-3.49l1.41 2.65a43.66 43.66 0 01-9.7 3.73zM434 312.64a52.13 52.13 0 01-9.35-4.25l1.5-2.59a48.93 48.93 0 008.82 4zm309.33-5.76l-1.76-2.43a43.86 43.86 0 007.15-6.48l2.25 2a46.37 46.37 0 01-7.62 6.91zM419.52 305a54.58 54.58 0 01-7.6-6.91l2.22-2a50.89 50.89 0 007.18 6.52zm335.25-9.94l-2.48-1.67a44.07 44.07 0 004.47-8.55l2.79 1.09a46.21 46.21 0 01-4.78 9.13zM408 293.31a57.43 57.43 0 01-5.24-8.82l2.71-1.29a53.88 53.88 0 005 8.35zM761.39 280l-2.92-.69a40.39 40.39 0 001.11-9.4 50 50 0 00-1-9.65l2.94-.58a52.88 52.88 0 011 10.23 43.55 43.55 0 01-1.13 10.09zm-361-1.21a59.19 59.19 0 01-2.55-9.92l3-.5a55.88 55.88 0 002.42 9.42zm-3.25-16c0-.39-.05-.79-.06-1.18a75.58 75.58 0 01-.08-3.66c0-1.81.06-3.62.18-5.35l3 .21c-.11 1.67-.17 3.4-.17 5.14 0 1.15 0 2.34.07 3.53l.06 1.12zm360-8.14a49.71 49.71 0 00-3.82-8.92l2.63-1.44a52.54 52.54 0 014 9.45zM400.89 247l-3-.48a56.29 56.29 0 012.54-9.92l2.82 1a54.24 54.24 0 00-2.36 9.4zm349.36-6.18a42.59 42.59 0 00-6.49-7.12l2-2.27a45.38 45.38 0 017 7.63zm-344.67-8.53l-2.68-1.36a46.89 46.89 0 015.61-8.62l2.32 1.9a43.74 43.74 0 00-5.25 8.06zm333.55-2a34 34 0 00-8.71-3.91l.83-2.89a37.19 37.19 0 019.47 4.25zm-14.33-5a34.28 34.28 0 00-3.52-.19h-1.5v-1.5a1.52 1.52 0 01.5-1.12 14.48 14.48 0 00.13-1.82c0-.5 0-.93-.08-1.41s-.09-1-.11-1.69l3-.12c0 .63.07 1.12.11 1.55s.09 1.06.09 1.67 0 .95-.08 1.5c.6 0 1.2.08 1.79.14zm-310-5.3l-2.06-2.18a52.57 52.57 0 018.15-6.27l1.59 2.54a50 50 0 00-7.7 5.92zm305.2-8.42a65.48 65.48 0 00-1.39-9.67l2.93-.64a70 70 0 011.46 10.1zm-292.46-.37l-1.32-2.69a69.29 69.29 0 019.49-3.8l.91 2.86a66.35 66.35 0 00-9.05 3.63zm14.76-5.2l-.69-2.92a84.76 84.76 0 0110.05-1.74l.33 3a80.75 80.75 0 00-9.66 1.66zm17.74-2.1h-2.17v-1.8l-.39-.11a28.71 28.71 0 00.83-6.34c0-.74 0-1.48.07-2.22l3 .14c0 .71-.06 1.42-.07 2.13a31.55 31.55 0 01-.93 7.08zm257.06-7.66a68 68 0 00-3.61-9.09l2.7-1.3a71.52 71.52 0 013.77 9.49zm-255.24-8.51l-3-.4a73.15 73.15 0 012.05-10l2.89.81a70.18 70.18 0 00-1.91 9.59zM710.74 182a71.37 71.37 0 00-5.55-8.07l2.36-1.86a74.93 74.93 0 015.77 8.4zm-245.07-9.42l-2.81-1a76.62 76.62 0 014.18-9.3l2.65 1.42a71.35 71.35 0 00-4.02 8.86zm235.7-3.12a76.94 76.94 0 00-7.12-6.74l1.92-2.31a80.39 80.39 0 017.39 7zm-101.62-6.83l-1.07-1.45c-1.64-2.2-3.29-4.3-4.92-6.25l2.3-1.93c1.31 1.57 2.64 3.24 4 5 .05 0 .11-.1.16-.16l2.12 2.13c-.45.44-.89.9-1.32 1.36zm89.84-3.51a78.19 78.19 0 00-8.34-5.18l1.42-2.65a80.07 80.07 0 018.66 5.39zm-216.93-.53l-2.52-1.63a76 76 0 016.08-8.18l2.28 2a72.74 72.74 0 00-5.84 7.79zm134-2.47l-1.82-2.38a49.69 49.69 0 018.78-5.37l1.29 2.71a46.54 46.54 0 00-8.25 5.02zm69.34-4.78a72.15 72.15 0 00-9.21-3.35l.83-2.88a76.55 76.55 0 019.59 3.48zm-86.13-.87a93.64 93.64 0 00-7.08-6.82l2-2.27a94.15 94.15 0 017.31 7.05zm30.46-1.61l-1-2.83a64.1 64.1 0 019.91-2.52l.52 3a61.7 61.7 0 00-9.46 2.35zm40.76-2.24a63.49 63.49 0 00-8.11-1.07l-1.6-.09.16-3 1.63.1a67.78 67.78 0 018.5 1.11zm-178.56-.21l-2.11-2.13a75 75 0 017.72-6.67l1.8 2.4a71.43 71.43 0 00-7.44 6.4zm153.09-.72l-.29-3c3-.28 6.15-.43 9.43-.43h.71v3h-.69c-3.24.01-6.31.15-9.19.43zM578.16 140a68.22 68.22 0 00-8.26-5.2l1.4-2.65a72.41 72.41 0 018.64 5.43zm-83.4-3.29l-1.59-2.55a71.39 71.39 0 019-4.76l1.21 2.75a68 68 0 00-8.62 4.55zm69.85-4.42a69 69 0 00-9.26-3.14l.76-2.9a73.08 73.08 0 019.66 3.27zM508.88 130l-1-2.84a72.68 72.68 0 019.87-2.58l.55 3a69.43 69.43 0 00-9.42 2.42zm40.73-2.14a93.69 93.69 0 00-9.75-1.22l.22-3a96.8 96.8 0 0110.07 1.26zm-25.47-1.16l-.3-3a84.39 84.39 0 0110.17-.35l-.06 3a82.54 82.54 0 00-9.81.36z" transform="translate(-39.4 -45.31)"/><path class="cls-4" d="M750.66 266.69A38.62 38.62 0 00712 228.08h-.2a66 66 0 00-113.78-54.35 68.36 68.36 0 00-130.72 27.94 69.7 69.7 0 00.71 9.87 47.71 47.71 0 10-11.88 93.92h256.71l-.07-.18a38.61 38.61 0 0037.89-38.59z" transform="translate(-39.4 -45.31)"/><path d="M222.69 93.54l11.06 3.75a37.07 37.07 0 003.49 12.2l-7.4 9 3.53 4.45 3.54 4.45 10.48-5.16a36.93 36.93 0 0011.1 6.14l1.16 11.63 5.65.65 5.64.64 3.76-11.07a36.92 36.92 0 0011.87-3.34l9.15 7.49 4.45-3.54 4.45-3.54-5.17-10.48a36.72 36.72 0 006.32-11.28l11.64-1.16.64-5.65.65-5.65-11.06-3.75a36.93 36.93 0 00-3.49-12.2l7.4-9-3.55-4.45-3.53-4.46L294 64.38a37.18 37.18 0 00-11.1-6.15l-1.16-11.62-5.65-.61-5.65-.65-3.75 11.08A36.85 36.85 0 00254.27 60l-9-7.4-4.45 3.54-4.46 3.53 5.23 10.61a36.78 36.78 0 00-5.93 10.81L224 82.24l-.64 5.65-.65 5.65zm29.17 14.75a24.05 24.05 0 1133.8 3.86 24.06 24.06 0 01-33.8-3.86z" transform="translate(-39.4 -45.31)" fill-rule="evenodd" fill="#ff4152"/><path class="cls-2" d="M323.32 122.83a20 20 0 016.34-6.2l-44-25.72c0 2.57-2.12 6.61-3.47 9s-3.94 5.75-6.12 7.11l45.1 23.68a17.06 17.06 0 012.15-7.87z" transform="translate(-39.4 -45.31)"/><path class="cls-5" d="M280.12 98.49a18.91 18.91 0 01-6.48 6.8l9.87 5.53a23.49 23.49 0 006.24-7.08 19.73 19.73 0 002.67-8.8l-9.87-5.53a18.84 18.84 0 01-2.43 9.08z" transform="translate(-39.4 -45.31)"/><path class="cls-2" d="M334 119l-8.22-4.61c0 2.56-1.62 5.7-3 8.1a17.9 17.9 0 01-5.78 5.91l8.59 4.68c3.88-1.9 7.9-6.21 8.41-14.08zm-73.63-40l11.95 6.7a1.41 1.41 0 01.54 1.92l-6 10.72a1.41 1.41 0 01-1.92.54l-12-6.71A16.92 16.92 0 10260.37 79z" transform="translate(-39.4 -45.31)"/><circle class="cls-5" cx="284.37" cy="77.59" r="3.18"/><path class="cls-5" d="M869.22 378.74l-22.15 3.49 18.65 18.65 3.5-22.14z"/><path class="cls-7" d="M887.84 22.43l-28.33 6.11 25.41 22.72 2.92-28.83z"/><circle class="cls-9" cx="539.16" cy="404.68" r="47.61"/><path class="cls-5" d="M495.31 389.53l28.84-11.35-30.76-19.59 1.92 30.94z"/><path class="cls-4" d="M577.67 425.45l-29.54 9.41 29.39 21.59.15-31z"/><path class="cls-5" d="M554.15 420.65a38.16 38.16 0 0160 43.14l14.47 4.21a53.19 53.19 0 00-90.84-52.16z" transform="translate(-39.4 -45.31)"/><path class="cls-4" d="M598.6 482.47A38.15 38.15 0 01540.37 450a38.35 38.35 0 011.27-9.76L527.22 436a53.19 53.19 0 0088.93 51.61z" transform="translate(-39.4 -45.31)"/><circle class="cls-5" cx="540.27" cy="374.22" r="3.69"/><circle class="cls-5" cx="540.27" cy="434.69" r="3.69"/><circle class="cls-5" cx="570.5" cy="404.46" r="3.69"/><circle class="cls-5" cx="510.04" cy="404.46" r="3.69"/><path class="cls-7" transform="rotate(-45 499.068 476.85)" d="M570.01 442.14h6.93v19.64h-6.93z"/><path class="cls-7" transform="rotate(45 620.955 378.368)" d="M582.49 434.24h6.93v28.68h-6.93z"/><path class="cls-5" transform="rotate(-42.06 812.163 469.12)" d="M871.71 436.54h38.12v8h-38.12z"/><path class="cls-5" d="M987.72 227.34l13.18-18.13h-26.37l13.19 18.13z"/><path class="cls-5" d="M983.79 181.96h8v38.13h-8z"/><rect class="cls-7" x="789.68" y="402.61" width="52.92" height="52.92" rx="9.69"/><path class="cls-9" d="M550.85 225.65a1.65 1.65 0 01-.47.55 1 1 0 01-.61.18 1.64 1.64 0 01-.83-.28c-.3-.19-.66-.4-1.07-.64a9.13 9.13 0 00-1.46-.63 6.05 6.05 0 00-2-.28 5.76 5.76 0 00-1.8.25 3.77 3.77 0 00-1.29.68 2.83 2.83 0 00-.77 1.05 3.49 3.49 0 00-.26 1.35 2.31 2.31 0 00.52 1.55 4.29 4.29 0 001.38 1.06 12.31 12.31 0 002 .79c.73.23 1.48.48 2.25.74a20 20 0 012.25.92 7.72 7.72 0 012 1.31 6 6 0 011.31 1.95 6.73 6.73 0 01.52 2.8 9.11 9.11 0 01-.61 3.36 7.7 7.7 0 01-1.8 2.72 8.17 8.17 0 01-2.88 1.83 10.47 10.47 0 01-3.89.67 12.23 12.23 0 01-2.49-.25 13 13 0 01-2.35-.7 12.39 12.39 0 01-2.11-1.1 10 10 0 01-1.76-1.43l1.44-2.36a1.81 1.81 0 01.48-.43 1.26 1.26 0 01.62-.17 1.74 1.74 0 011 .38c.35.25.77.52 1.26.83a10.48 10.48 0 001.71.83 6.58 6.58 0 002.35.38 4.85 4.85 0 003.26-1 3.58 3.58 0 001.15-2.86 2.66 2.66 0 00-.52-1.71 4.39 4.39 0 00-1.38-1.1 10.4 10.4 0 00-2-.76c-.73-.21-1.47-.43-2.23-.68a16.92 16.92 0 01-2.23-.88 7.14 7.14 0 01-2-1.33 6.21 6.21 0 01-1.38-2.06 7.8 7.8 0 01-.52-3.05 7.07 7.07 0 01.58-2.81 7.23 7.23 0 011.67-2.44 8.29 8.29 0 012.71-1.7 10 10 0 013.69-.64 12.55 12.55 0 014.32.73 9.79 9.79 0 013.36 2zm29.03 21.64h-3.81a1.65 1.65 0 01-1-.32 2 2 0 01-.6-.8l-2-5.4h-11l-2 5.4a1.78 1.78 0 01-.57.77 1.59 1.59 0 01-1 .35h-3.84l10.41-26.45h5zm-8.69-10L568 228.5c-.16-.39-.32-.85-.49-1.39s-.34-1.12-.52-1.74c-.15.62-.32 1.21-.49 1.75s-.33 1-.49 1.42l-3.2 8.76zm35.01 10h-3.8a1.66 1.66 0 01-1-.32 2.06 2.06 0 01-.6-.8l-2-5.4h-11l-2 5.4a1.76 1.76 0 01-.56.77 1.62 1.62 0 01-1 .35h-3.84l10.41-26.45h5zm-8.69-10l-3.22-8.8c-.16-.39-.32-.85-.49-1.39s-.34-1.12-.51-1.74c-.16.62-.33 1.21-.5 1.75s-.33 1-.49 1.42l-3.2 8.76zM624 225.65a1.77 1.77 0 01-.47.55 1 1 0 01-.61.18 1.67 1.67 0 01-.84-.28c-.29-.19-.65-.4-1.07-.64a9 9 0 00-1.45-.63 6.12 6.12 0 00-2-.28 5.69 5.69 0 00-1.79.25 3.77 3.77 0 00-1.29.68 2.75 2.75 0 00-.78 1.05 3.49 3.49 0 00-.25 1.35 2.31 2.31 0 00.52 1.55 4.29 4.29 0 001.38 1.06 11.93 11.93 0 002 .79c.73.23 1.48.48 2.25.74a20 20 0 012.25.92 7.5 7.5 0 012 1.31 5.91 5.91 0 011.39 1.95 6.89 6.89 0 01.52 2.8 9.12 9.12 0 01-.62 3.36 7.54 7.54 0 01-1.79 2.72 8.26 8.26 0 01-2.88 1.83 10.49 10.49 0 01-3.9.67 12.06 12.06 0 01-2.48-.25 13 13 0 01-2.35-.7 12.88 12.88 0 01-2.12-1.1 9.91 9.91 0 01-1.75-1.43l1.44-2.36a1.54 1.54 0 01.48-.43 1.23 1.23 0 01.62-.17 1.79 1.79 0 011 .38c.35.25.77.52 1.26.83a10.48 10.48 0 001.71.83 6.58 6.58 0 002.35.38 4.87 4.87 0 003.26-1 3.61 3.61 0 001.01-2.86 2.72 2.72 0 00-.52-1.71 4.39 4.39 0 00-1.38-1.1 10.67 10.67 0 00-2-.76c-.73-.21-1.48-.43-2.23-.68a16.92 16.92 0 01-2.23-.88 7 7 0 01-2-1.33 6.06 6.06 0 01-1.38-2.06 7.8 7.8 0 01-.52-3.05 7.28 7.28 0 012.25-5.25 8.35 8.35 0 012.7-1.7 10.14 10.14 0 013.7-.64 12.55 12.55 0 014.32.73 10 10 0 013.36 2z" transform="translate(-39.4 -45.31)"/><path class="cls-2" d="M242.06 158.39V163h5.87v2.4h-5.87v4.75h7.45v2.5h-10.58V155.9h10.58v2.49zm10 4.05a7 7 0 014.95-1.88 4.83 4.83 0 011.87.34 4 4 0 011.39.95 4 4 0 01.86 1.46 5.5 5.5 0 01.3 1.86v7.52h-1.3a1.23 1.23 0 01-.63-.13.83.83 0 01-.34-.49l-.26-.86c-.3.27-.6.51-.88.72a5.76 5.76 0 01-.9.51 4.59 4.59 0 01-1 .32 5.94 5.94 0 01-1.16.11 4.78 4.78 0 01-1.4-.2 3.19 3.19 0 01-1.1-.61 2.74 2.74 0 01-.72-1 3.57 3.57 0 01-.25-1.4 2.74 2.74 0 01.15-.9 2.58 2.58 0 01.49-.86 4 4 0 01.89-.76 5.77 5.77 0 011.34-.63 12.31 12.31 0 011.85-.44 18.31 18.31 0 012.41-.2v-.69a2.6 2.6 0 00-.51-1.77 1.84 1.84 0 00-1.47-.58 3.77 3.77 0 00-1.16.16 4.58 4.58 0 00-.8.37l-.64.36a1.21 1.21 0 01-.63.17.86.86 0 01-.51-.16 1.16 1.16 0 01-.33-.37zm6.57 5.16a15.27 15.27 0 00-2.09.22 5.47 5.47 0 00-1.35.4 1.69 1.69 0 00-.73.57 1.2 1.2 0 00-.23.7 1.23 1.23 0 00.45 1.08 1.93 1.93 0 001.17.33 3.41 3.41 0 001.52-.32 4.54 4.54 0 001.26-1zm13.37-4.5a.78.78 0 01-.25.26.61.61 0 01-.32.08 1 1 0 01-.45-.12l-.55-.26a5.3 5.3 0 00-.71-.26 3.38 3.38 0 00-.95-.12 2.19 2.19 0 00-1.33.36 1.12 1.12 0 00-.48.94.9.9 0 00.25.65 2.39 2.39 0 00.66.45 6.37 6.37 0 00.94.36l1.06.34c.36.12.71.27 1.06.42a3.48 3.48 0 01.93.61 2.74 2.74 0 01.67.87 2.87 2.87 0 01.25 1.23 4.13 4.13 0 01-.31 1.59 3.51 3.51 0 01-.91 1.25 4.47 4.47 0 01-1.49.83 7.08 7.08 0 01-3.25.18 7 7 0 01-1.13-.31 6.1 6.1 0 01-1-.46 5 5 0 01-.8-.58l.66-1.09a.86.86 0 01.3-.3.82.82 0 01.44-.11.89.89 0 01.5.15l.56.33a5.12 5.12 0 00.73.32 3.26 3.26 0 001.08.15 2.77 2.77 0 00.87-.12 1.85 1.85 0 00.61-.32 1.18 1.18 0 00.36-.42 1.24 1.24 0 00.11-.54 1 1 0 00-.25-.68 2 2 0 00-.66-.46 6 6 0 00-.94-.36c-.35-.1-.71-.22-1.08-.34a9.8 9.8 0 01-1.08-.44 3.52 3.52 0 01-.94-.63 2.94 2.94 0 01-.66-.94 3.37 3.37 0 01-.25-1.34 3.51 3.51 0 01.29-1.4 3.31 3.31 0 01.86-1.15 4.2 4.2 0 011.4-.79 5.77 5.77 0 011.94-.3 6 6 0 012.24.41 5 5 0 011.69 1.07zm6.85-5.79a1.58 1.58 0 01-.15.69 2 2 0 01-.4.57 1.69 1.69 0 01-.59.39 1.72 1.72 0 01-.72.15 1.66 1.66 0 01-.7-.15 1.87 1.87 0 01-1-1 1.58 1.58 0 01-.15-.69 1.72 1.72 0 01.15-.72 1.56 1.56 0 01.39-.58 1.92 1.92 0 01.57-.39 1.65 1.65 0 01.7-.14 1.71 1.71 0 01.72.14 2 2 0 01.59.39 1.87 1.87 0 01.4.58 1.72 1.72 0 01.19.76zm-.4 3.47v11.91h-2.87v-11.91zm5.71 6.31a5.87 5.87 0 00.33 1.59 3.24 3.24 0 00.67 1.1 2.63 2.63 0 001 .65 3.74 3.74 0 001.28.21 3.92 3.92 0 001.2-.16 6.17 6.17 0 00.88-.36l.66-.36a1.08 1.08 0 01.55-.16.61.61 0 01.54.27l.82 1a4.71 4.71 0 01-1.07.93 5.42 5.42 0 01-1.23.61 7.47 7.47 0 01-1.32.32 9.54 9.54 0 01-1.29.09 6.45 6.45 0 01-2.31-.41 5.28 5.28 0 01-1.86-1.22 5.75 5.75 0 01-1.24-2 7.73 7.73 0 01-.45-2.75 6.69 6.69 0 01.39-2.3 5.52 5.52 0 011.14-1.86 5.37 5.37 0 011.79-1.26 5.94 5.94 0 012.4-.47 5.86 5.86 0 012.08.36 4.49 4.49 0 011.63 1.05 4.85 4.85 0 011.08 1.7 6.28 6.28 0 01.39 2.29 2 2 0 01-.14.88.59.59 0 01-.54.22zm5.47-1.73a3.3 3.3 0 00-.16-1.05 2.4 2.4 0 00-.47-.86 2.13 2.13 0 00-.79-.59 2.8 2.8 0 00-1.12-.21 2.67 2.67 0 00-2 .7 3.55 3.55 0 00-.91 2zm8.01-2.52a5 5 0 011.32-1.67 2.81 2.81 0 011.81-.61 2.2 2.2 0 011.32.36l-.18 2.14a.61.61 0 01-.17.3.45.45 0 01-.3.09 3.31 3.31 0 01-.51-.06 3.88 3.88 0 00-.67-.06 2.48 2.48 0 00-.85.14 2.12 2.12 0 00-.66.4 3.28 3.28 0 00-.53.63 6.12 6.12 0 00-.42.85v7.34h-2.87v-11.91h1.69a.88.88 0 01.61.16.84.84 0 01.23.56zM208 192.73a.59.59 0 01.45.2l1.23 1.33a6.83 6.83 0 01-2.51 1.94 8.67 8.67 0 01-3.58.67 8.36 8.36 0 01-3.36-.64 7.21 7.21 0 01-2.55-1.77 8 8 0 01-1.62-2.72 10.32 10.32 0 01-.56-3.45 9.63 9.63 0 01.6-3.46 8 8 0 011.7-2.71 7.59 7.59 0 012.62-1.77 8.67 8.67 0 013.36-.63 8.31 8.31 0 013.26.6 7.75 7.75 0 012.42 1.58l-1 1.45a.88.88 0 01-.23.24.68.68 0 01-.4.11.7.7 0 01-.36-.1c-.13-.06-.26-.15-.41-.24l-.51-.32a4.18 4.18 0 00-.67-.32 5 5 0 00-.89-.24 5.87 5.87 0 00-1.17-.1 5.12 5.12 0 00-2.06.4 4.28 4.28 0 00-1.6 1.16 5.29 5.29 0 00-1 1.85 7.73 7.73 0 00-.37 2.5 7.24 7.24 0 00.4 2.52 5.63 5.63 0 001.08 1.86 4.62 4.62 0 001.62 1.15 4.92 4.92 0 002 .41 10 10 0 001.16-.07 5.29 5.29 0 00.95-.22 4.75 4.75 0 00.82-.39 5.72 5.72 0 00.78-.59.81.81 0 01.24-.17.6.6 0 01.16-.06zm14.07-7.95v11.91h-1.75a.68.68 0 01-.72-.53l-.2-.95a6.15 6.15 0 01-1.61 1.2 4.4 4.4 0 01-2.08.46 4.22 4.22 0 01-1.72-.33 3.45 3.45 0 01-1.26-.93 4.07 4.07 0 01-.77-1.44 5.84 5.84 0 01-.26-1.82v-7.57h2.86v7.57a2.5 2.5 0 00.51 1.68 1.85 1.85 0 001.51.6 3 3 0 001.39-.33 4.56 4.56 0 001.23-.91v-8.61zm10.68 2.32a.78.78 0 01-.25.26.61.61 0 01-.32.08 1 1 0 01-.45-.12l-.55-.26a5.3 5.3 0 00-.71-.26 3.38 3.38 0 00-.95-.12 2.19 2.19 0 00-1.33.36 1.12 1.12 0 00-.48.94.9.9 0 00.25.65 2.39 2.39 0 00.66.45 6.37 6.37 0 00.94.36l1.06.34c.36.12.71.27 1.06.42a3.48 3.48 0 01.93.61 2.74 2.74 0 01.67.87 2.87 2.87 0 01.25 1.23 4.13 4.13 0 01-.31 1.59 3.51 3.51 0 01-.91 1.25 4.47 4.47 0 01-1.49.83 7.08 7.08 0 01-3.25.18 7 7 0 01-1.13-.31 6.1 6.1 0 01-1-.46 5 5 0 01-.8-.58l.66-1.09a.86.86 0 01.3-.3.82.82 0 01.44-.11.89.89 0 01.5.15l.56.33a5.12 5.12 0 00.73.32 3.31 3.31 0 001.08.15 2.77 2.77 0 00.87-.12 1.85 1.85 0 00.61-.32 1.18 1.18 0 00.34-.46 1.24 1.24 0 00.11-.54 1 1 0 00-.25-.68 2 2 0 00-.66-.46 5.6 5.6 0 00-.94-.36c-.35-.1-.71-.22-1.08-.34a9.8 9.8 0 01-1.08-.44 3.52 3.52 0 01-.94-.63 2.94 2.94 0 01-.66-.94 3.37 3.37 0 01-.25-1.34 3.51 3.51 0 01.29-1.4 3.31 3.31 0 01.86-1.15 4.2 4.2 0 011.4-.79 5.79 5.79 0 011.95-.3 5.94 5.94 0 012.23.41 5 5 0 011.69 1.07zm7.48 9.77a3.13 3.13 0 01-2.38-.87 3.37 3.37 0 01-.83-2.42v-6.65h-1.22a.51.51 0 01-.39-.16.58.58 0 01-.17-.45v-1.14l1.92-.31.6-3.25a.67.67 0 01.22-.36.7.7 0 01.42-.13h1.48v3.75h3.18v2.05h-3.18v6.45a1.3 1.3 0 00.28.87.93.93 0 00.75.31 1.42 1.42 0 00.44-.06 1.92 1.92 0 00.32-.14l.23-.13a.42.42 0 01.21-.06.33.33 0 01.21.06 1.12 1.12 0 01.18.19l.85 1.39a4.08 4.08 0 01-1.43.79 5.38 5.38 0 01-1.69.27zm10.42-12.28a6.59 6.59 0 012.41.43 5.28 5.28 0 011.86 1.22 5.47 5.47 0 011.19 1.93 7.92 7.92 0 010 5.09 5.51 5.51 0 01-1.19 1.94 5.3 5.3 0 01-1.86 1.23 6.39 6.39 0 01-2.41.43 6.48 6.48 0 01-2.42-.43 5.21 5.21 0 01-1.86-1.23 5.39 5.39 0 01-1.2-1.94 7.92 7.92 0 010-5.09 5.35 5.35 0 011.2-1.93 5.19 5.19 0 011.86-1.22 6.68 6.68 0 012.42-.43zm0 10.06a2.52 2.52 0 002.2-1 6.32 6.32 0 000-5.86 2.49 2.49 0 00-2.2-1 2.57 2.57 0 00-2.23 1 5 5 0 00-.73 2.93 5 5 0 00.73 2.92 2.56 2.56 0 002.23 1.01zm8.65 2.04v-11.91h1.75a.7.7 0 01.73.52l.19.88a8 8 0 01.66-.64 3.59 3.59 0 01.73-.49 4.38 4.38 0 01.83-.34 3.81 3.81 0 011-.12 2.8 2.8 0 011.85.61 3.67 3.67 0 011.09 1.62 3.68 3.68 0 01.69-1 3.52 3.52 0 01.92-.69 4.37 4.37 0 011.06-.4 5.54 5.54 0 011.14-.13 4.79 4.79 0 011.75.3 3.47 3.47 0 011.29.89 4 4 0 01.79 1.41 6.27 6.27 0 01.27 1.92v7.58h-2.86v-7.58a2.55 2.55 0 00-.5-1.71 1.81 1.81 0 00-1.46-.58 2.18 2.18 0 00-.82.15 2 2 0 00-1.11 1.15 2.78 2.78 0 00-.16 1v7.58h-2.88v-7.58a2.58 2.58 0 00-.48-1.74 1.76 1.76 0 00-1.41-.55 2.28 2.28 0 00-1.17.31 3.7 3.7 0 00-1 .84v8.72zm23.38-15.38a1.58 1.58 0 01-.15.69 1.78 1.78 0 01-.4.57 1.65 1.65 0 01-.58.39 1.79 1.79 0 01-.72.15 1.87 1.87 0 01-1.28-.54 1.92 1.92 0 01-.39-.57 1.74 1.74 0 01-.14-.69 1.89 1.89 0 01.14-.72 1.85 1.85 0 01.39-.58 2 2 0 01.58-.39 1.65 1.65 0 01.7-.14 1.78 1.78 0 01.72.14 2 2 0 01.58.39 1.82 1.82 0 01.55 1.3zm-.39 3.47v11.91h-2.88v-11.91zm12.06 1.22a1.71 1.71 0 01-.11.59 1.24 1.24 0 01-.28.48l-5.65 7.45h5.86v2.21H285v-1.2a1.32 1.32 0 01.1-.47 2 2 0 01.27-.52l5.71-7.53h-5.74v-2.19h9zm2.41.44a7 7 0 014.95-1.88 4.78 4.78 0 011.86.34 3.86 3.86 0 012.26 2.41 5.5 5.5 0 01.3 1.86v7.52h-1.3a1.23 1.23 0 01-.63-.13.83.83 0 01-.35-.49l-.25-.86c-.31.27-.6.51-.89.72a5.25 5.25 0 01-.89.51 4.59 4.59 0 01-1 .32 6 6 0 01-1.17.11 4.76 4.76 0 01-1.39-.2 3.1 3.1 0 01-1.1-.61 2.74 2.74 0 01-.72-1 3.57 3.57 0 01-.26-1.4 2.74 2.74 0 01.15-.9 2.61 2.61 0 01.5-.86 4 4 0 01.88-.76 6.19 6.19 0 011.34-.63 12.17 12.17 0 011.86-.44 18.16 18.16 0 012.41-.2v-.69a2.6 2.6 0 00-.51-1.77 1.84 1.84 0 00-1.47-.58 3.77 3.77 0 00-1.16.16 4.69 4.69 0 00-.81.37l-.63.36a1.24 1.24 0 01-.63.17.86.86 0 01-.51-.16 1.33 1.33 0 01-.34-.37zm6.57 5.16a15.1 15.1 0 00-2.09.22 5.56 5.56 0 00-1.36.4 1.76 1.76 0 00-.73.57 1.19 1.19 0 00-.22.7 1.23 1.23 0 00.45 1.08 1.9 1.9 0 001.16.33 3.45 3.45 0 001.53-.32 4.54 4.54 0 001.26-1zm17.92 5.09h-2.87v-9.76h-5.52v6.45a1.29 1.29 0 00.27.87.93.93 0 00.75.31 1.44 1.44 0 00.45-.06 1.8 1.8 0 00.31-.14l.24-.13a.42.42 0 01.21-.06.32.32 0 01.2.06.83.83 0 01.18.19l.86 1.39a4.21 4.21 0 01-1.44.79 5.28 5.28 0 01-1.68.27 3.14 3.14 0 01-2.39-.87 3.42 3.42 0 01-.83-2.42v-6.65h-1.22a.53.53 0 01-.39-.16.58.58 0 01-.16-.45v-1.14l1.91-.32.6-3.24a.73.73 0 01.22-.36.7.7 0 01.42-.13h1.49v3.75h8.39zm.5-15.43a1.66 1.66 0 01-.15.7 2 2 0 01-.4.58 2.07 2.07 0 01-.6.39 1.92 1.92 0 01-.72.14 1.82 1.82 0 01-.7-.14 2.22 2.22 0 01-.57-.39 1.77 1.77 0 01-.38-.58 1.66 1.66 0 01-.15-.7 1.71 1.71 0 01.15-.71 1.77 1.77 0 01.38-.58 2 2 0 01.57-.4 1.82 1.82 0 01.7-.14 1.85 1.85 0 011.32.54 2 2 0 01.4.58 1.71 1.71 0 01.15.71zm8.25 3.33a6.63 6.63 0 012.41.43 5.37 5.37 0 011.86 1.22 5.47 5.47 0 011.19 1.93 8.1 8.1 0 010 5.09 5.51 5.51 0 01-1.19 1.94 5.4 5.4 0 01-1.86 1.23 7 7 0 01-4.83 0 5.34 5.34 0 01-1.87-1.23 5.51 5.51 0 01-1.19-1.94 7.75 7.75 0 010-5.09 5.47 5.47 0 011.19-1.93 5.32 5.32 0 011.89-1.24 6.64 6.64 0 012.4-.41zm0 10.06a2.52 2.52 0 002.2-1 6.32 6.32 0 000-5.86 2.49 2.49 0 00-2.2-1 2.57 2.57 0 00-2.23 1 5 5 0 00-.73 2.93 4.9 4.9 0 00.73 2.92 2.56 2.56 0 002.23 1.01zm11.35-8.41a8.09 8.09 0 01.76-.67 5 5 0 01.85-.52 5.32 5.32 0 011-.34 4.93 4.93 0 011.12-.12 4.3 4.3 0 011.73.33 3.45 3.45 0 011.26.93 4.17 4.17 0 01.76 1.43 5.87 5.87 0 01.26 1.83v7.58h-2.86v-7.58a2.58 2.58 0 00-.5-1.69 1.87 1.87 0 00-1.52-.6 3 3 0 00-1.4.34 5.14 5.14 0 00-1.23.91v8.62h-2.86v-11.91h1.75a.7.7 0 01.73.52zm447.07-17.51a.62.62 0 01.46.2l1.23 1.33a6.78 6.78 0 01-2.52 1.94 8.6 8.6 0 01-3.58.67 8.42 8.42 0 01-3.36-.64 7.27 7.27 0 01-2.54-1.77 7.66 7.66 0 01-1.62-2.72 10.07 10.07 0 01-.57-3.45 9.63 9.63 0 01.61-3.46 8 8 0 011.7-2.71 7.59 7.59 0 012.62-1.77 8.67 8.67 0 013.36-.63 8.35 8.35 0 013.26.6 7.86 7.86 0 012.42 1.58l-1 1.45a.78.78 0 01-.24.24.66.66 0 01-.4.11.76.76 0 01-.36-.1c-.12-.06-.26-.15-.4-.24l-.51-.32a4.31 4.31 0 00-.68-.32 4.65 4.65 0 00-.88-.24 5.87 5.87 0 00-1.17-.1 5.12 5.12 0 00-2.06.4 4.4 4.4 0 00-1.61 1.16 5.28 5.28 0 00-1 1.85 7.73 7.73 0 00-.37 2.5 7.24 7.24 0 00.4 2.52 5.3 5.3 0 001.08 1.86 4.67 4.67 0 001.61 1.15 5 5 0 002 .41 10 10 0 001.16-.07 5.29 5.29 0 001-.22 4.75 4.75 0 00.82-.39 5.1 5.1 0 00.77-.59 1 1 0 01.25-.17.58.58 0 01.12-.06zm8.99-8.14a6.57 6.57 0 012.4.43 5.19 5.19 0 011.86 1.22 5.33 5.33 0 011.19 1.93 7.92 7.92 0 010 5.09 5.37 5.37 0 01-1.19 1.94 5.21 5.21 0 01-1.86 1.23 6.37 6.37 0 01-2.4.43 6.53 6.53 0 01-2.43-.43 5.21 5.21 0 01-1.86-1.23 5.53 5.53 0 01-1.2-1.94 7.92 7.92 0 010-5.09 5.49 5.49 0 011.2-1.93A5.19 5.19 0 01795 161a6.74 6.74 0 012.41-.41zm0 10.06a2.54 2.54 0 002.2-1 6.4 6.4 0 000-5.86 2.5 2.5 0 00-2.2-1 2.59 2.59 0 00-2.24 1 5.05 5.05 0 00-.72 2.93 5 5 0 00.72 2.92 2.58 2.58 0 002.24 1.01zm15.91-7.55a.78.78 0 01-.25.26.61.61 0 01-.32.08 1 1 0 01-.45-.12l-.55-.26a5.3 5.3 0 00-.71-.26 3.38 3.38 0 00-.95-.12 2.19 2.19 0 00-1.33.36 1.12 1.12 0 00-.48.94.9.9 0 00.25.65 2.39 2.39 0 00.66.45 6.37 6.37 0 00.94.36l1.06.34c.36.12.71.27 1.06.42a3.48 3.48 0 01.93.61 2.58 2.58 0 01.66.87 2.73 2.73 0 01.25 1.23 4.13 4.13 0 01-.3 1.59 3.51 3.51 0 01-.91 1.25 4.42 4.42 0 01-1.5.83 6.65 6.65 0 01-2 .29 7 7 0 01-1.21-.11 6.85 6.85 0 01-1.12-.31 6.1 6.1 0 01-1-.46 5 5 0 01-.8-.58l.66-1.09a.86.86 0 01.3-.3.82.82 0 01.44-.11.89.89 0 01.5.15l.56.33a5.12 5.12 0 00.73.32 3.26 3.26 0 001.08.15 2.77 2.77 0 00.87-.12 1.85 1.85 0 00.61-.32 1.18 1.18 0 00.34-.46 1.24 1.24 0 00.11-.54 1 1 0 00-.25-.68 2 2 0 00-.66-.46 6 6 0 00-.94-.36c-.35-.1-.71-.22-1.08-.34a9.8 9.8 0 01-1.08-.44 3.52 3.52 0 01-.94-.63 2.94 2.94 0 01-.66-.94 3.37 3.37 0 01-.25-1.34 3.51 3.51 0 01.29-1.4 3.31 3.31 0 01.86-1.15 4.2 4.2 0 011.4-.79 5.77 5.77 0 011.94-.3 6 6 0 012.24.41 5 5 0 011.69 1.07zm7.48 9.77a3.13 3.13 0 01-2.38-.87 3.37 3.37 0 01-.83-2.42v-6.65h-1.22a.54.54 0 01-.4-.16.61.61 0 01-.16-.45v-1.14l1.92-.31.6-3.25a.67.67 0 01.22-.36.7.7 0 01.42-.13h1.48v3.75h3.18v2.05h-3.18v6.45a1.25 1.25 0 00.28.87.93.93 0 00.75.31 1.42 1.42 0 00.44-.06 1.92 1.92 0 00.32-.14l.23-.13a.42.42 0 01.21-.06.33.33 0 01.21.06 1.12 1.12 0 01.18.19l.85 1.39a4 4 0 01-1.44.79 5.28 5.28 0 01-1.68.27zm15.05-14.48V163h5.88v2.4h-5.88v4.75h7.45v2.5h-10.58V155.9h10.58v2.49zm10.75 14.3v-9.75l-1-.17a1.12 1.12 0 01-.54-.23.6.6 0 01-.21-.48v-1.18h1.78v-.67a5 5 0 01.31-1.83 3.64 3.64 0 01.88-1.38 3.78 3.78 0 011.4-.87 5.17 5.17 0 011.85-.31 5.4 5.4 0 011.54.22l-.06 1.43a.54.54 0 01-.09.27.48.48 0 01-.22.15.94.94 0 01-.31.07 2.17 2.17 0 01-.37 0 3.6 3.6 0 00-.91.11 1.54 1.54 0 00-.68.39 1.84 1.84 0 00-.42.71 3.55 3.55 0 00-.15 1.11v.58h4.75v-1a5.07 5.07 0 01.31-1.84 3.7 3.7 0 012.28-2.25 5.42 5.42 0 011.86-.3 6.53 6.53 0 01.78.05 6.69 6.69 0 01.75.16l-.07 1.44a.43.43 0 01-.31.42 2.22 2.22 0 01-.67.09 3.6 3.6 0 00-.91.11 1.58 1.58 0 00-.68.38 1.81 1.81 0 00-.42.72 3.55 3.55 0 00-.15 1.11v1H860V163h-3v9.76h-2.87V163h-4.65v9.76zm17.48-5.6a5.88 5.88 0 00.32 1.59 3.26 3.26 0 00.68 1.1 2.55 2.55 0 001 .65 3.68 3.68 0 001.27.21 3.92 3.92 0 001.2-.16 5.72 5.72 0 00.88-.36l.66-.36a1.11 1.11 0 01.55-.16.59.59 0 01.54.27l.82 1a4.51 4.51 0 01-1.07.93 5.42 5.42 0 01-1.23.61 7.58 7.58 0 01-1.31.32 9.8 9.8 0 01-1.3.09 6.53 6.53 0 01-2.31-.41 5.15 5.15 0 01-1.85-1.22 5.61 5.61 0 01-1.24-2 7.51 7.51 0 01-.46-2.75 6.47 6.47 0 01.4-2.3 5.5 5.5 0 011.13-1.86 5.31 5.31 0 011.8-1.26 5.89 5.89 0 012.39-.47 5.79 5.79 0 012.05.45 4.53 4.53 0 011.64 1.05 5 5 0 011.07 1.7 6.28 6.28 0 01.39 2.29 2 2 0 01-.14.88.57.57 0 01-.53.22zm5.46-1.73a3.6 3.6 0 00-.15-1.05 2.56 2.56 0 00-.47-.86 2.17 2.17 0 00-.8-.59 2.76 2.76 0 00-1.12-.21 2.63 2.63 0 00-2 .7 3.49 3.49 0 00-.91 2zm13.84-2.06a1.47 1.47 0 01-.25.25.59.59 0 01-.36.1.81.81 0 01-.43-.14c-.13-.09-.3-.19-.49-.3a4.46 4.46 0 00-.69-.3 3.17 3.17 0 00-1-.14 3.05 3.05 0 00-1.32.28 2.56 2.56 0 00-1 .78 3.63 3.63 0 00-.56 1.24 6.8 6.8 0 00-.18 1.64 6.22 6.22 0 00.2 1.69 3.62 3.62 0 00.58 1.25 2.63 2.63 0 00.93.77 2.91 2.91 0 001.23.26 3.08 3.08 0 001.11-.17 4 4 0 00.72-.37l.5-.37a.71.71 0 01.48-.17.57.57 0 01.52.27l.83 1a5 5 0 01-1 .93 5.1 5.1 0 01-1.15.61 6.55 6.55 0 01-1.23.32 8.9 8.9 0 01-1.26.09 5.4 5.4 0 01-2.08-.41 5.06 5.06 0 01-1.7-1.2 5.83 5.83 0 01-1.16-1.94 7.5 7.5 0 01-.42-2.6 7.29 7.29 0 01.38-2.43 5.38 5.38 0 011.11-1.94 5 5 0 011.8-1.28 6.25 6.25 0 012.49-.47 6 6 0 012.34.43 5.77 5.77 0 011.8 1.23zm15.25 9.39h-2.87v-9.76h-5.52v6.45a1.29 1.29 0 00.27.87.93.93 0 00.75.31 1.37 1.37 0 00.44-.06 1.92 1.92 0 00.32-.14l.24-.13a.39.39 0 01.2-.06.33.33 0 01.21.06.83.83 0 01.18.19l.86 1.39a4.21 4.21 0 01-1.44.79 5.29 5.29 0 01-1.69.27 3.13 3.13 0 01-2.38-.87 3.42 3.42 0 01-.83-2.42v-6.65h-1.22a.53.53 0 01-.39-.16.58.58 0 01-.17-.45v-1.14l1.92-.32.6-3.24a.67.67 0 01.22-.36.7.7 0 01.42-.13h1.49v3.75h8.39zm.5-15.43a1.53 1.53 0 01-.16.7 1.82 1.82 0 01-.4.58 1.9 1.9 0 01-.59.39 2 2 0 01-.72.14 1.82 1.82 0 01-.7-.14 2.06 2.06 0 01-.57-.39 2 2 0 01-.39-.58 1.82 1.82 0 01-.14-.7 1.87 1.87 0 01.14-.71 2 2 0 01.4-.55 1.9 1.9 0 01.57-.4 1.82 1.82 0 01.7-.14 2 2 0 01.72.14 1.76 1.76 0 01.59.4 1.82 1.82 0 01.4.58 1.57 1.57 0 01.15.68zm13.74 3.52l-4.73 11.91h-2.6l-4.72-11.91h2.37a1 1 0 01.54.15.75.75 0 01.28.38l2.3 6.36a20.669 20.669 0 01.57 2.16c.08-.35.16-.71.25-1.07s.21-.72.34-1.09l2.34-6.36a.83.83 0 01.29-.38.84.84 0 01.5-.15zm3.93 6.31a5.87 5.87 0 00.33 1.59 3.24 3.24 0 00.67 1.1 2.63 2.63 0 001 .65 3.68 3.68 0 001.27.21 3.83 3.83 0 001.2-.16 5.72 5.72 0 00.88-.36l.67-.36a1.08 1.08 0 01.55-.16.58.58 0 01.53.27l.83 1a4.93 4.93 0 01-1.07.93 5.71 5.71 0 01-1.24.61 7.58 7.58 0 01-1.31.32 9.66 9.66 0 01-1.29.09 6.45 6.45 0 01-2.31-.41 5.28 5.28 0 01-1.86-1.22 5.61 5.61 0 01-1.24-2 7.73 7.73 0 01-.45-2.75 6.69 6.69 0 01.39-2.3 5.5 5.5 0 011.13-1.86 5.31 5.31 0 011.8-1.26 5.94 5.94 0 012.4-.47 5.77 5.77 0 012.07.36 4.53 4.53 0 011.64 1.05 4.7 4.7 0 011.07 1.7 6.28 6.28 0 01.39 2.29 1.82 1.82 0 01-.14.88.57.57 0 01-.53.22zm5.47-1.73a3.6 3.6 0 00-.16-1.05 2.4 2.4 0 00-.47-.86 2.13 2.13 0 00-.79-.59 2.83 2.83 0 00-1.12-.21 2.67 2.67 0 00-2 .7 3.49 3.49 0 00-.91 2zm7.98-3.12a8.09 8.09 0 01.76-.67 5 5 0 01.85-.52 5.73 5.73 0 011-.34 4.84 4.84 0 011.11-.12 4.27 4.27 0 011.73.33 3.45 3.45 0 011.26.93 4.17 4.17 0 01.76 1.43 5.86 5.86 0 01.27 1.83v7.58h-2.87v-7.58a2.58 2.58 0 00-.5-1.69 1.86 1.86 0 00-1.52-.6 2.89 2.89 0 00-1.39.34 4.78 4.78 0 00-1.23.91v8.62h-2.87v-11.91h1.75a.7.7 0 01.73.52zm13.2 4.85a5.52 5.52 0 00.32 1.59 3.41 3.41 0 00.67 1.1 2.59 2.59 0 001 .65 3.64 3.64 0 001.27.21 3.92 3.92 0 001.2-.16 5.72 5.72 0 00.88-.36l.66-.36a1.11 1.11 0 01.55-.16.61.61 0 01.54.27l.82 1a4.71 4.71 0 01-1.07.93 5.42 5.42 0 01-1.23.61 7.58 7.58 0 01-1.31.32 9.8 9.8 0 01-1.3.09 6.45 6.45 0 01-2.31-.41 5.15 5.15 0 01-1.85-1.22 5.77 5.77 0 01-1.25-2 7.73 7.73 0 01-.45-2.75 6.47 6.47 0 01.4-2.3 5.5 5.5 0 011.13-1.86 5.31 5.31 0 011.8-1.26 6.25 6.25 0 014.47-.11A4.62 4.62 0 01950 162a5 5 0 011.07 1.7 6.28 6.28 0 01.39 2.29 2 2 0 01-.14.88.57.57 0 01-.53.22zm5.46-1.73a3.6 3.6 0 00-.15-1.05 2.75 2.75 0 00-.47-.86 2.17 2.17 0 00-.8-.59 2.76 2.76 0 00-1.12-.21 2.63 2.63 0 00-2 .7 3.56 3.56 0 00-.92 2zm12.57-2.26a.88.88 0 01-.24.26.67.67 0 01-.33.08.94.94 0 01-.44-.12l-.56-.26a4.44 4.44 0 00-.71-.26 3.33 3.33 0 00-1-.12 2.16 2.16 0 00-1.32.36 1.1 1.1 0 00-.49.94.94.94 0 00.25.65 2.31 2.31 0 00.67.45 5.83 5.83 0 00.93.36c.35.1.7.22 1.06.34s.72.27 1.06.42a3.71 3.71 0 01.94.61 2.64 2.64 0 01.91 2.1 4 4 0 01-.31 1.59 3.39 3.39 0 01-.91 1.25 4.37 4.37 0 01-1.49.83 7.08 7.08 0 01-3.25.18 7 7 0 01-1.13-.31 6.1 6.1 0 01-1-.46 5 5 0 01-.8-.58l.66-1.09a1.07 1.07 0 01.3-.3.84.84 0 01.44-.11 1 1 0 01.51.15l.55.33a5.28 5.28 0 00.74.32 3.24 3.24 0 001.07.15 2.88 2.88 0 00.88-.12 1.9 1.9 0 00.6-.32 1.2 1.2 0 00.35-.46 1.41 1.41 0 00.11-.54 1 1 0 00-.25-.68 2.21 2.21 0 00-.66-.46 6.37 6.37 0 00-.94-.36c-.36-.1-.72-.22-1.08-.34a8.43 8.43 0 01-1.08-.44 3.37 3.37 0 01-.94-.63 2.66 2.66 0 01-.66-.94 3.21 3.21 0 01-.25-1.34 3.35 3.35 0 01.29-1.4 3.16 3.16 0 01.85-1.15 4.3 4.3 0 011.4-.79 5.83 5.83 0 012-.3 6 6 0 012.24.41 5.1 5.1 0 011.68 1.07zm10.78 0a.88.88 0 01-.24.26.64.64 0 01-.33.08 1 1 0 01-.44-.12l-.55-.26a5 5 0 00-.72-.26 3.3 3.3 0 00-.94-.12 2.17 2.17 0 00-1.33.36 1.12 1.12 0 00-.48.94.93.93 0 00.24.65 2.31 2.31 0 00.67.45 5.83 5.83 0 00.93.36c.35.1.7.22 1.06.34s.72.27 1.06.42a3.71 3.71 0 01.94.61 2.86 2.86 0 01.66.87 2.73 2.73 0 01.25 1.23 4 4 0 01-.31 1.59 3.39 3.39 0 01-.91 1.25 4.37 4.37 0 01-1.49.83 7.08 7.08 0 01-3.25.18 7 7 0 01-1.13-.31 5.63 5.63 0 01-1-.46 4.67 4.67 0 01-.81-.58l.66-1.09a1.07 1.07 0 01.3-.3.87.87 0 01.44-.11 1 1 0 01.51.15l.55.33a5.28 5.28 0 00.74.32 3.24 3.24 0 001.07.15 2.88 2.88 0 00.88-.12 1.9 1.9 0 00.6-.32 1.2 1.2 0 00.35-.46 1.41 1.41 0 00.11-.54 1 1 0 00-.25-.68 2.21 2.21 0 00-.66-.46 6.37 6.37 0 00-.94-.36c-.35-.1-.71-.22-1.08-.34a8.43 8.43 0 01-1.08-.44 3.37 3.37 0 01-.94-.63 2.66 2.66 0 01-.66-.94 3.21 3.21 0 01-.25-1.34 3.35 3.35 0 01.29-1.4 3.28 3.28 0 01.85-1.15 4.25 4.25 0 011.41-.79 5.73 5.73 0 011.94-.3 6 6 0 012.24.41 5.1 5.1 0 011.68 1.07zM42.53 308.16v4.65h5.87v2.4h-5.87V320H50v2.5H39.4v-16.83H50v2.49zm10 4.05a7 7 0 014.95-1.88 4.83 4.83 0 011.87.34 4 4 0 011.39.95 4 4 0 01.86 1.46 5.48 5.48 0 01.3 1.85v7.53h-1.3a1.35 1.35 0 01-.63-.13.83.83 0 01-.35-.49l-.25-.86a10.16 10.16 0 01-.88.71 5.11 5.11 0 01-.9.52 4.59 4.59 0 01-1 .32 6 6 0 01-1.17.11 4.76 4.76 0 01-1.39-.2 3.19 3.19 0 01-1.1-.61 2.74 2.74 0 01-.72-1 3.58 3.58 0 01-.26-1.41 2.59 2.59 0 01.16-.9 2.64 2.64 0 01.49-.85 4 4 0 01.89-.76 5.77 5.77 0 011.34-.63 12 12 0 011.85-.44 18.31 18.31 0 012.41-.2v-.7a2.59 2.59 0 00-.51-1.76 1.84 1.84 0 00-1.47-.58 3.49 3.49 0 00-1.16.16 4.58 4.58 0 00-.8.37l-.64.36a1.24 1.24 0 01-.63.17.86.86 0 01-.51-.16 1.33 1.33 0 01-.34-.37zm6.57 5.16a15.1 15.1 0 00-2.09.22 5.27 5.27 0 00-1.36.4 1.76 1.76 0 00-.73.57 1.26 1.26 0 00-.22.7 1.23 1.23 0 00.45 1.08 1.93 1.93 0 001.17.33 3.44 3.44 0 001.52-.32 4.54 4.54 0 001.26-1zm13.34-4.5a.78.78 0 01-.25.26.61.61 0 01-.32.08 1 1 0 01-.45-.12l-.55-.26a4.2 4.2 0 00-.71-.26 3.38 3.38 0 00-1-.12 2.17 2.17 0 00-1.33.36 1.12 1.12 0 00-.48.94.86.86 0 00.25.64 2.09 2.09 0 00.66.46 6.23 6.23 0 00.93.36c.35.1.71.22 1.07.34a10.61 10.61 0 011.06.42 3.48 3.48 0 01.93.61 2.58 2.58 0 01.66.87 2.73 2.73 0 01.25 1.23 4.13 4.13 0 01-.3 1.59 3.42 3.42 0 01-.92 1.25 4.11 4.11 0 01-1.49.82 6.35 6.35 0 01-2 .3 6.64 6.64 0 01-2.33-.42 6.1 6.1 0 01-1-.46 5.09 5.09 0 01-.81-.58l.66-1.09a1 1 0 01.31-.3.82.82 0 01.44-.11.91.91 0 01.5.15l.55.33a5.85 5.85 0 00.74.32 3.24 3.24 0 001.07.15 2.84 2.84 0 00.88-.12 1.79 1.79 0 00.6-.32 1.11 1.11 0 00.35-.46 1.24 1.24 0 00.11-.54 1 1 0 00-.25-.68 2.15 2.15 0 00-.66-.47 6 6 0 00-.94-.35c-.35-.1-.71-.22-1.08-.34a10.18 10.18 0 01-1.08-.44 3.52 3.52 0 01-.94-.63 2.94 2.94 0 01-.66-.94 3.22 3.22 0 01-.25-1.35 3.5 3.5 0 01.34-1.39 3.41 3.41 0 01.85-1.15 4.35 4.35 0 011.41-.79 5.77 5.77 0 011.94-.3 6 6 0 012.24.41 4.89 4.89 0 011.69 1.07zm6.88-5.79a1.58 1.58 0 01-.15.69 2 2 0 01-.4.57 2.16 2.16 0 01-.59.39 1.72 1.72 0 01-.72.15 1.66 1.66 0 01-.7-.15 2.11 2.11 0 01-.58-.39 1.73 1.73 0 01-.38-.57 1.58 1.58 0 01-.15-.69 1.72 1.72 0 01.15-.72 1.67 1.67 0 01.38-.58 2.11 2.11 0 01.58-.39 1.66 1.66 0 01.7-.15 1.72 1.72 0 01.72.15 2.16 2.16 0 01.59.39 1.87 1.87 0 01.4.58 1.72 1.72 0 01.15.72zm-.4 3.47v11.91H76v-11.91zm5.71 6.31a5.87 5.87 0 00.33 1.59 3.24 3.24 0 00.67 1.1 2.75 2.75 0 001 .65 3.72 3.72 0 001.27.21 3.83 3.83 0 001.2-.16 5.86 5.86 0 00.89-.36l.66-.36a1.08 1.08 0 01.55-.16.59.59 0 01.53.26l.83 1.05a4.93 4.93 0 01-1.07.93 5.71 5.71 0 01-1.24.61 7.37 7.37 0 01-1.31.32 9.54 9.54 0 01-1.29.09 6.45 6.45 0 01-2.31-.41 5.28 5.28 0 01-1.87-1.22 5.75 5.75 0 01-1.24-2 7.73 7.73 0 01-.45-2.75 6.69 6.69 0 01.39-2.3 5.66 5.66 0 011.13-1.86 5.31 5.31 0 011.8-1.26 5.94 5.94 0 012.4-.47 5.86 5.86 0 012.08.36 4.49 4.49 0 011.63 1 4.85 4.85 0 011.08 1.7 6.29 6.29 0 01.38 2.29 1.91 1.91 0 01-.13.87.58.58 0 01-.54.23zm5.47-1.73a3.3 3.3 0 00-.16-1.05 2.32 2.32 0 00-.47-.86 2.13 2.13 0 00-.79-.59 2.8 2.8 0 00-1.12-.21 2.67 2.67 0 00-2 .7 3.55 3.55 0 00-.91 2zm8.01-2.52a5 5 0 011.32-1.67 2.79 2.79 0 011.81-.61 2.2 2.2 0 011.32.36l-.18 2.14a.61.61 0 01-.17.3.45.45 0 01-.3.09 3.19 3.19 0 01-.51-.06 3.88 3.88 0 00-.67-.06 2.48 2.48 0 00-.85.14 2.17 2.17 0 00-.67.4 3 3 0 00-.52.63 6.12 6.12 0 00-.42.85v7.34H95.4v-11.91h1.68a1 1 0 01.62.15 1 1 0 01.23.57zm30.89-6.94v16.79h-2.75v-10.84c0-.44 0-.91.07-1.41l-5.07 9.53a1.16 1.16 0 01-1.1.68h-.44a1.17 1.17 0 01-1.11-.68l-5.13-9.56q0 .38.06.75t0 .69v10.84h-2.75v-16.79h2.71a.76.76 0 01.27.05.48.48 0 01.22.15 1.69 1.69 0 01.2.28l5 9.32c.13.25.25.51.37.77l.33.81c.11-.29.22-.56.33-.83s.24-.52.38-.77l5-9.3a1.26 1.26 0 01.2-.28.62.62 0 01.22-.15.87.87 0 01.28-.05h.36zm3.31 6.54a7 7 0 014.94-1.88 4.8 4.8 0 011.87.34 3.91 3.91 0 011.39.95 4.11 4.11 0 01.87 1.46 5.74 5.74 0 01.29 1.85v7.53h-1.3a1.27 1.27 0 01-.62-.13.79.79 0 01-.35-.49l-.26-.86a8.84 8.84 0 01-.88.71 5 5 0 01-.89.52 4.5 4.5 0 01-1 .32 5.94 5.94 0 01-1.16.11 4.71 4.71 0 01-1.39-.2 3.14 3.14 0 01-1.11-.61 2.74 2.74 0 01-.72-1 3.59 3.59 0 01-.25-1.41 2.83 2.83 0 01.15-.9 2.64 2.64 0 01.49-.85 4.27 4.27 0 01.89-.76 5.77 5.77 0 011.34-.63 12.31 12.31 0 011.85-.44 18.47 18.47 0 012.42-.2v-.7a2.54 2.54 0 00-.52-1.76 1.84 1.84 0 00-1.47-.58 3.43 3.43 0 00-1.15.16 4.37 4.37 0 00-.81.37l-.63.36a1.25 1.25 0 01-.64.17.86.86 0 01-.51-.16 1.16 1.16 0 01-.33-.37zm6.57 5.16a14.93 14.93 0 00-2.09.22 5 5 0 00-1.36.4 1.69 1.69 0 00-.73.57 1.19 1.19 0 00-.22.7 1.25 1.25 0 00.44 1.08 1.93 1.93 0 001.17.33 3.45 3.45 0 001.53-.32 4.54 4.54 0 001.26-1zm8.75-5.37a8.09 8.09 0 01.76-.67 4.88 4.88 0 01.84-.52 5.73 5.73 0 011-.34 4.84 4.84 0 011.11-.12 4.27 4.27 0 011.73.33 3.29 3.29 0 011.26.93 4.18 4.18 0 01.77 1.43 6.18 6.18 0 01.26 1.83v7.58h-2.87v-7.58a2.53 2.53 0 00-.5-1.69 1.86 1.86 0 00-1.52-.6 2.92 2.92 0 00-1.39.34 5.14 5.14 0 00-1.23.91v8.62h-2.87v-11.9h1.76a.7.7 0 01.73.52zm10.71.21a7 7 0 014.94-1.88 4.8 4.8 0 011.87.34 3.91 3.91 0 011.39.95 4.11 4.11 0 01.87 1.46 5.74 5.74 0 01.29 1.85v7.53h-1.3a1.27 1.27 0 01-.62-.13.79.79 0 01-.35-.49l-.26-.86a8.84 8.84 0 01-.88.71 5 5 0 01-.89.52 4.5 4.5 0 01-1 .32 5.94 5.94 0 01-1.16.11 4.71 4.71 0 01-1.39-.2 3.14 3.14 0 01-1.11-.61 2.74 2.74 0 01-.72-1 3.59 3.59 0 01-.25-1.41 2.83 2.83 0 01.15-.9 2.64 2.64 0 01.49-.85 4.27 4.27 0 01.89-.76 5.77 5.77 0 011.34-.63 12.31 12.31 0 011.85-.44 18.47 18.47 0 012.42-.2v-.7a2.59 2.59 0 00-.51-1.76 1.88 1.88 0 00-1.48-.58 3.43 3.43 0 00-1.15.16 4.37 4.37 0 00-.81.37l-.63.36a1.25 1.25 0 01-.64.17.86.86 0 01-.51-.16 1.16 1.16 0 01-.33-.37zm6.57 5.16a14.93 14.93 0 00-2.09.22 5 5 0 00-1.36.4 1.69 1.69 0 00-.73.57 1.19 1.19 0 00-.22.7 1.25 1.25 0 00.44 1.08 1.93 1.93 0 001.17.33 3.45 3.45 0 001.53-.32 4.54 4.54 0 001.26-1zm16.51-6.37v1c0 .34-.21.55-.62.63l-1.06.2a3.85 3.85 0 01-.11 2.94 3.71 3.71 0 01-1 1.21 4.73 4.73 0 01-1.48.77 6.11 6.11 0 01-1.84.27h-.68c-.22 0-.43-.05-.63-.09-.38.22-.56.47-.56.75a.56.56 0 00.33.53 2.84 2.84 0 00.88.24c.36 0 .77.07 1.24.08s.94 0 1.42.08a13 13 0 011.43.2 4.14 4.14 0 011.24.46 2.39 2.39 0 01.88.85 2.65 2.65 0 01.33 1.39 3.22 3.22 0 01-.39 1.53 4.13 4.13 0 01-1.12 1.33 6.16 6.16 0 01-1.81.93 7.71 7.71 0 01-2.45.35 9 9 0 01-2.34-.26 5.42 5.42 0 01-1.66-.69 3.06 3.06 0 01-1-1 2.41 2.41 0 01-.32-1.18 2.05 2.05 0 01.5-1.4 3.64 3.64 0 011.39-.9 1.91 1.91 0 01-.75-.65 1.83 1.83 0 01-.28-1.07 1.86 1.86 0 01.09-.55 2.55 2.55 0 01.3-.56 2.35 2.35 0 01.48-.53 4 4 0 01.68-.45 3.64 3.64 0 01-1.42-1.3 3.49 3.49 0 01-.52-1.9 3.55 3.55 0 011.34-2.81 4.35 4.35 0 011.5-.77 6.35 6.35 0 011.89-.27 6.05 6.05 0 011.44.16 5 5 0 011.26.48zm-2.86 12a.8.8 0 00-.2-.57 1.34 1.34 0 00-.57-.34 4.4 4.4 0 00-.84-.18c-.33 0-.67-.07-1-.09l-1.11-.05c-.38 0-.76-.05-1.12-.09a2.53 2.53 0 00-.77.62 1.27 1.27 0 00-.3.84 1.18 1.18 0 00.16.58 1.2 1.2 0 00.5.47 2.64 2.64 0 00.89.31 6.3 6.3 0 001.33.11 6.88 6.88 0 001.38-.12 3.07 3.07 0 001-.34 1.44 1.44 0 00.55-.51 1.18 1.18 0 00.1-.64zm-3.23-6.78a2.93 2.93 0 00.93-.14 1.84 1.84 0 00.65-.4 1.74 1.74 0 00.4-.62 2.47 2.47 0 00.13-.79 1.88 1.88 0 00-.53-1.4 2.72 2.72 0 00-3.17 0 1.88 1.88 0 00-.53 1.4 2.21 2.21 0 00.14.78 1.72 1.72 0 00.39.62 2 2 0 00.66.41 2.93 2.93 0 00.93.13zm10.48.64a5.52 5.52 0 00.32 1.59 3.26 3.26 0 00.68 1.1 2.59 2.59 0 001 .65 3.64 3.64 0 001.27.21 3.92 3.92 0 001.2-.16 5.72 5.72 0 00.88-.36l.66-.36a1.11 1.11 0 01.55-.16.62.62 0 01.54.26l.82 1.05a4.71 4.71 0 01-1.07.93 5.42 5.42 0 01-1.23.61 7.58 7.58 0 01-1.31.32 9.8 9.8 0 01-1.3.09 6.45 6.45 0 01-2.31-.41 5.15 5.15 0 01-1.85-1.22 5.77 5.77 0 01-1.25-2 7.73 7.73 0 01-.45-2.75 6.47 6.47 0 01.4-2.3 5.5 5.5 0 011.13-1.86 5.31 5.31 0 011.8-1.26 6.25 6.25 0 014.47-.11 4.53 4.53 0 011.64 1 5 5 0 011.07 1.7 6.28 6.28 0 01.39 2.29 1.87 1.87 0 01-.14.87.55.55 0 01-.53.23zm5.46-1.73a3.6 3.6 0 00-.15-1.05 2.64 2.64 0 00-.47-.86 2.17 2.17 0 00-.8-.59 2.76 2.76 0 00-1.12-.21 2.63 2.63 0 00-1.95.7 3.56 3.56 0 00-.92 2zm5.31 7.33v-11.91h1.75a.7.7 0 01.73.52l.19.88a6.55 6.55 0 01.65-.64 4.49 4.49 0 01.73-.5 5.24 5.24 0 01.84-.33 3.76 3.76 0 011-.12 2.8 2.8 0 011.85.61 3.65 3.65 0 011.08 1.62 3.71 3.71 0 01.7-1 3.8 3.8 0 01.92-.7 4.62 4.62 0 011.06-.39 4.84 4.84 0 011.13-.13 4.75 4.75 0 011.75.3 3.47 3.47 0 011.29.89A3.74 3.74 0 01213 313a6.27 6.27 0 01.27 1.92v7.58h-2.87v-7.58a2.5 2.5 0 00-.5-1.71 1.81 1.81 0 00-1.46-.58 2.25 2.25 0 00-.82.15 2 2 0 00-.66.44 1.82 1.82 0 00-.44.71 2.74 2.74 0 00-.17 1v7.58h-2.85v-7.58a2.58 2.58 0 00-.48-1.74 1.76 1.76 0 00-1.41-.55 2.27 2.27 0 00-1.16.31 3.74 3.74 0 00-1 .84v8.72zm22.22-5.6a5.87 5.87 0 00.33 1.59 3.24 3.24 0 00.67 1.1 2.75 2.75 0 001 .65 3.68 3.68 0 001.27.21 3.83 3.83 0 001.2-.16 5.72 5.72 0 00.88-.36l.67-.36a1.08 1.08 0 01.55-.16.59.59 0 01.53.26l.83 1.05a4.93 4.93 0 01-1.07.93 5.71 5.71 0 01-1.24.61 7.58 7.58 0 01-1.31.32 9.66 9.66 0 01-1.29.09 6.45 6.45 0 01-2.31-.41 5.28 5.28 0 01-1.86-1.22 5.61 5.61 0 01-1.24-2 7.73 7.73 0 01-.45-2.75 6.69 6.69 0 01.39-2.3 5.5 5.5 0 011.13-1.86 5.31 5.31 0 011.8-1.26 5.94 5.94 0 012.4-.47 5.77 5.77 0 012.07.36 4.53 4.53 0 011.64 1 4.83 4.83 0 011.07 1.7 6.28 6.28 0 01.39 2.29 1.75 1.75 0 01-.14.87.55.55 0 01-.53.23zm5.47-1.73a3.6 3.6 0 00-.16-1.05 2.32 2.32 0 00-.47-.86 2.13 2.13 0 00-.79-.59 2.83 2.83 0 00-1.12-.21 2.67 2.67 0 00-2 .7 3.49 3.49 0 00-.91 2zm7.98-3.13a8.09 8.09 0 01.76-.67 5 5 0 01.85-.52 5.73 5.73 0 011-.34 4.84 4.84 0 011.11-.12 4.27 4.27 0 011.73.33 3.45 3.45 0 011.26.93 4.17 4.17 0 01.76 1.43 5.86 5.86 0 01.27 1.83v7.58h-2.87v-7.58a2.58 2.58 0 00-.5-1.69 1.86 1.86 0 00-1.52-.6 2.89 2.89 0 00-1.39.34 4.78 4.78 0 00-1.23.91v8.62h-2.87v-11.9h1.75a.7.7 0 01.73.52zm14.8 10.64a3.13 3.13 0 01-2.39-.88 3.38 3.38 0 01-.83-2.42v-6.65h-1.22a.56.56 0 01-.39-.15.58.58 0 01-.16-.45V311l1.91-.31.61-3.25a.61.61 0 01.22-.36.65.65 0 01.41-.13h1.49v3.75h3.18v2h-3.18v6.46a1.29 1.29 0 00.27.87.93.93 0 00.75.31 1.44 1.44 0 00.45-.06l.31-.14.24-.13a.42.42 0 01.21-.06.37.37 0 01.21.06 1.12 1.12 0 01.17.19l.86 1.39a4.21 4.21 0 01-1.44.79 5.28 5.28 0 01-1.68.26zm-134.25 7.03a9.65 9.65 0 012.91.4 5.55 5.55 0 012 1.1 4.31 4.31 0 011.19 1.7 6.22 6.22 0 010 4.39 4.6 4.6 0 01-1.2 1.74 5.67 5.67 0 01-2 1.14 9.13 9.13 0 01-2.86.41h-2.33v5.91h-3.13v-16.79zm0 8.44a4.85 4.85 0 001.5-.21 2.91 2.91 0 001.06-.62 2.55 2.55 0 00.63-1 3.75 3.75 0 00.21-1.29 3.43 3.43 0 00-.21-1.22 2.37 2.37 0 00-.63-.92 2.82 2.82 0 00-1-.59 5.21 5.21 0 00-1.51-.2h-2.33v6zm11.56-1.5a5 5 0 011.32-1.67 2.79 2.79 0 011.81-.61 2.2 2.2 0 011.32.36l-.18 2.14a.61.61 0 01-.17.3.45.45 0 01-.3.09 3.31 3.31 0 01-.51-.06 3.88 3.88 0 00-.67-.06 2.48 2.48 0 00-.85.14 2.12 2.12 0 00-.66.4 2.73 2.73 0 00-.53.63 6.12 6.12 0 00-.42.85v7.34h-2.87v-11.91h1.69a.68.68 0 01.84.72zm11.46-2.25a6.63 6.63 0 012.41.43 5.37 5.37 0 011.86 1.22 5.47 5.47 0 011.19 1.93 7.92 7.92 0 010 5.09 5.51 5.51 0 01-1.19 1.94 5.4 5.4 0 01-1.86 1.23 7 7 0 01-4.83 0 5.34 5.34 0 01-1.87-1.23 5.51 5.51 0 01-1.19-1.94 7.92 7.92 0 010-5.09 5.47 5.47 0 011.19-1.93 5.32 5.32 0 011.87-1.22 6.64 6.64 0 012.42-.43zm0 10.06a2.52 2.52 0 002.2-1 6.32 6.32 0 000-5.86 2.49 2.49 0 00-2.2-1 2.54 2.54 0 00-2.23 1 5 5 0 00-.73 2.93 4.9 4.9 0 00.73 2.92 2.56 2.56 0 002.23 1.01zm17.18-7.35a2 2 0 01-.25.25.58.58 0 01-.35.09.75.75 0 01-.43-.13l-.5-.3a4.46 4.46 0 00-.69-.3 3.17 3.17 0 00-1-.14 2.91 2.91 0 00-1.32.28 2.45 2.45 0 00-.94.78 3.46 3.46 0 00-.57 1.24 6.8 6.8 0 00-.18 1.64 6.22 6.22 0 00.2 1.69 3.45 3.45 0 00.59 1.25 2.52 2.52 0 00.92.77 2.91 2.91 0 001.23.26 3.08 3.08 0 001.11-.17 4 4 0 00.72-.37l.5-.37a.71.71 0 01.48-.17.59.59 0 01.52.26l.83 1.05a5.26 5.26 0 01-1 .93 5.39 5.39 0 01-1.16.61 6.55 6.55 0 01-1.23.32 8.9 8.9 0 01-1.26.09 5.4 5.4 0 01-2.08-.41 5.06 5.06 0 01-1.7-1.2 5.83 5.83 0 01-1.16-1.94 8.11 8.11 0 010-5 5.38 5.38 0 011.11-1.94 5 5 0 011.81-1.28 6.2 6.2 0 012.48-.47 6 6 0 012.34.43 5.77 5.77 0 011.8 1.23zm5.23 3.79a5.87 5.87 0 00.33 1.59 3.24 3.24 0 00.67 1.1 2.75 2.75 0 001 .65 3.72 3.72 0 001.27.21 3.83 3.83 0 001.2-.16 5.86 5.86 0 00.89-.36l.66-.36a1.08 1.08 0 01.55-.16.59.59 0 01.53.26l.83 1.05a4.93 4.93 0 01-1.07.93 5.49 5.49 0 01-1.24.61 7.37 7.37 0 01-1.31.32 9.54 9.54 0 01-1.29.09 6.45 6.45 0 01-2.31-.41 5.28 5.28 0 01-1.86-1.22 5.75 5.75 0 01-1.24-2 7.73 7.73 0 01-.45-2.75 6.69 6.69 0 01.39-2.3 5.66 5.66 0 011.13-1.86 5.41 5.41 0 011.8-1.26 5.94 5.94 0 012.4-.47 5.86 5.86 0 012.08.36 4.49 4.49 0 011.63 1 4.85 4.85 0 011.08 1.7 6.29 6.29 0 01.38 2.29 1.91 1.91 0 01-.13.87.58.58 0 01-.54.23zm5.47-1.73a3.3 3.3 0 00-.16-1.05 2.32 2.32 0 00-.47-.86 2.13 2.13 0 00-.79-.59 2.8 2.8 0 00-1.12-.21 2.67 2.67 0 00-2 .7 3.55 3.55 0 00-.91 2zm12.57-2.26a.78.78 0 01-.25.26.61.61 0 01-.32.08 1 1 0 01-.45-.12l-.55-.26a4.2 4.2 0 00-.71-.26 3.38 3.38 0 00-1-.12 2.19 2.19 0 00-1.33.36 1.12 1.12 0 00-.48.94.86.86 0 00.25.64 2.21 2.21 0 00.66.46 6.37 6.37 0 00.94.36l1.06.34a10.61 10.61 0 011.06.42 3.48 3.48 0 01.93.61 2.74 2.74 0 01.67.87 2.87 2.87 0 01.24 1.23 4.13 4.13 0 01-.3 1.59 3.51 3.51 0 01-.91 1.25 4.24 4.24 0 01-1.5.82 6.35 6.35 0 01-2 .3 6.78 6.78 0 01-1.2-.11 6.7 6.7 0 01-1.13-.31 6.1 6.1 0 01-1-.46 5 5 0 01-.8-.58l.66-1.09a.86.86 0 01.3-.3.82.82 0 01.44-.11.89.89 0 01.5.15l.56.33a5.12 5.12 0 00.73.32 3.26 3.26 0 001.08.15 2.77 2.77 0 00.87-.12 1.85 1.85 0 00.61-.32 1.18 1.18 0 00.34-.46 1.24 1.24 0 00.11-.54 1 1 0 00-.25-.68 2.15 2.15 0 00-.66-.47 6 6 0 00-.94-.35c-.35-.1-.71-.22-1.08-.34s-.72-.27-1.08-.44a3.52 3.52 0 01-.94-.63 2.94 2.94 0 01-.66-.94 3.39 3.39 0 01-.25-1.35 3.5 3.5 0 01.29-1.39 3.31 3.31 0 01.86-1.15 4.2 4.2 0 011.4-.79 5.77 5.77 0 011.94-.3 6 6 0 012.24.41 4.89 4.89 0 011.69 1.07zm10.78 0a.78.78 0 01-.25.26.61.61 0 01-.32.08 1 1 0 01-.45-.12l-.55-.26a4.2 4.2 0 00-.71-.26 3.33 3.33 0 00-1-.12 2.19 2.19 0 00-1.33.36 1.12 1.12 0 00-.48.94.86.86 0 00.25.64 2.21 2.21 0 00.66.46 6.37 6.37 0 00.94.36c.35.1.7.22 1.06.34a10.61 10.61 0 011.13.45 3.71 3.71 0 01.94.61 2.64 2.64 0 01.91 2.1 4.13 4.13 0 01-.31 1.59 3.51 3.51 0 01-.91 1.25 4.2 4.2 0 01-1.49.82 6.46 6.46 0 01-2.05.3 6.78 6.78 0 01-1.2-.11 7 7 0 01-1.13-.31 6.1 6.1 0 01-1-.46 5 5 0 01-.8-.58l.66-1.09a.86.86 0 01.3-.3.84.84 0 01.44-.11 1 1 0 01.51.15l.55.33a5.67 5.67 0 00.73.32 3.31 3.31 0 001.08.15 2.77 2.77 0 00.87-.12 1.85 1.85 0 00.61-.32 1.09 1.09 0 00.34-.46 1.25 1.25 0 00.12-.54 1 1 0 00-.25-.68 2.34 2.34 0 00-.67-.47 5.63 5.63 0 00-.94-.35c-.35-.1-.71-.22-1.08-.34a10.94 10.94 0 01-1.07-.44 3.23 3.23 0 01-.94-.63 2.82 2.82 0 01-.67-.94 3.39 3.39 0 01-.25-1.35 3.5 3.5 0 01.29-1.39 3.31 3.31 0 01.86-1.15 4.2 4.2 0 011.4-.79 5.79 5.79 0 011.95-.3 6 6 0 012.24.41 4.94 4.94 0 011.68 1.07zm770.23-31.2v16.79h-3.13v-7.34h-7.88v7.34h-3.14v-16.79h3.14v7.22h7.88v-7.22zm7.07 1.41a1.58 1.58 0 01-.15.69 2 2 0 01-.4.57 2.16 2.16 0 01-.59.39 1.72 1.72 0 01-.72.15 1.66 1.66 0 01-.7-.15 2.11 2.11 0 01-.58-.39 1.73 1.73 0 01-.38-.57 1.58 1.58 0 01-.15-.69 1.72 1.72 0 01.15-.72 1.67 1.67 0 01.38-.58 2.11 2.11 0 01.58-.39 1.66 1.66 0 01.7-.15 1.72 1.72 0 01.72.15 2.16 2.16 0 01.59.39 1.87 1.87 0 01.4.58 1.72 1.72 0 01.15.72zm-.4 3.47v11.91h-2.88v-11.91zm13.95.45v1c0 .34-.2.55-.61.63l-1.07.2a3.85 3.85 0 01-.11 2.94 3.59 3.59 0 01-1 1.21 4.62 4.62 0 01-1.48.77 6.06 6.06 0 01-1.84.27h-.67c-.21 0-.43-.05-.64-.09-.37.22-.56.47-.56.75a.56.56 0 00.33.53 2.84 2.84 0 00.88.24c.36 0 .77.07 1.24.08s.94 0 1.43.08a13.12 13.12 0 011.42.2 4.31 4.31 0 011.25.46 2.44 2.44 0 01.87.85 2.65 2.65 0 01.33 1.39 3.22 3.22 0 01-.39 1.53 4.13 4.13 0 01-1.12 1.33 6.16 6.16 0 01-1.81.93 7.71 7.71 0 01-2.45.35 9.1 9.1 0 01-2.34-.26 5.53 5.53 0 01-1.66-.69 3.06 3.06 0 01-1-1 2.41 2.41 0 01-.32-1.18 2 2 0 01.51-1.4 3.52 3.52 0 011.38-.9 1.91 1.91 0 01-.75-.65 1.83 1.83 0 01-.28-1.07 1.6 1.6 0 01.1-.55 2.14 2.14 0 01.29-.56 3 3 0 01.48-.53 4 4 0 01.68-.45 3.71 3.71 0 01-1.42-1.3 3.48 3.48 0 01-.51-1.9 3.47 3.47 0 011.34-2.81 4.3 4.3 0 011.49-.77 6.35 6.35 0 011.89-.27 6.05 6.05 0 011.44.16 4.73 4.73 0 011.23.45zm-2.85 12a.8.8 0 00-.21-.57 1.34 1.34 0 00-.57-.34 4.4 4.4 0 00-.84-.18q-.48-.06-1-.09l-1.12-.05c-.38 0-.75-.05-1.12-.09a2.66 2.66 0 00-.77.62 1.26 1.26 0 00-.29.84 1.17 1.17 0 00.15.58 1.27 1.27 0 00.5.47 2.72 2.72 0 00.89.31 6.36 6.36 0 001.33.11 6.81 6.81 0 001.38-.12 3.07 3.07 0 001-.34 1.37 1.37 0 00.55-.51 1.19 1.19 0 00.12-.64zm-3.24-6.78a2.89 2.89 0 00.93-.14 1.84 1.84 0 00.65-.4 1.62 1.62 0 00.4-.62 2.22 2.22 0 00.13-.79 1.85 1.85 0 00-.53-1.4 2.19 2.19 0 00-1.58-.51 2.22 2.22 0 00-1.59.51 1.88 1.88 0 00-.52 1.4 2.2 2.2 0 00.13.78 1.72 1.72 0 00.39.62 2 2 0 00.67.41 2.82 2.82 0 00.92.13zm11.35-4.4a6.12 6.12 0 011.53-1.05 4.46 4.46 0 012-.41 4.27 4.27 0 011.73.33 3.45 3.45 0 011.26.93 4.18 4.18 0 01.77 1.43 6.18 6.18 0 01.26 1.83v7.58h-2.91v-7.58a2.58 2.58 0 00-.5-1.69 1.86 1.86 0 00-1.52-.6 2.92 2.92 0 00-1.39.34 5.14 5.14 0 00-1.23.91v8.62h-2.87v-17.25h2.87zm30.58 10.64h-2.82a1.23 1.23 0 01-1.16-.63l-3.53-5.37a1.12 1.12 0 00-.44-.43 1.43 1.43 0 00-.7-.13h-1.33v6.56h-3.12v-16.79h5.11a10.42 10.42 0 012.93.36 5.4 5.4 0 012 1 3.93 3.93 0 011.16 1.53 5.13 5.13 0 01.37 1.95 5.21 5.21 0 01-.25 1.6 4.72 4.72 0 01-.72 1.37 4.8 4.8 0 01-1.16 1.08 6 6 0 01-1.57.73 3.74 3.74 0 01.55.41 3 3 0 01.47.57zm-8-8.8a5.06 5.06 0 001.54-.22 3.14 3.14 0 001.08-.61 2.52 2.52 0 00.63-.92 3.22 3.22 0 00.21-1.18 2.39 2.39 0 00-.84-2 4.1 4.1 0 00-2.58-.68h-2v5.57zm11.38 3.2a5.52 5.52 0 00.32 1.59 3.24 3.24 0 00.67 1.1 2.71 2.71 0 001 .65 3.64 3.64 0 001.27.21 3.92 3.92 0 001.2-.16 6.17 6.17 0 00.88-.36l.66-.36a1.11 1.11 0 01.55-.16.62.62 0 01.54.26l.82 1.05a4.71 4.71 0 01-1.07.93 5.42 5.42 0 01-1.23.61 7.58 7.58 0 01-1.31.32 9.8 9.8 0 01-1.3.09 6.45 6.45 0 01-2.31-.41A5.15 5.15 0 011016 321a5.77 5.77 0 01-1.25-2 7.73 7.73 0 01-.45-2.75 6.47 6.47 0 01.4-2.3 5.5 5.5 0 011.13-1.86 5.31 5.31 0 011.8-1.26 6.25 6.25 0 014.47-.11 4.62 4.62 0 011.64 1 5 5 0 011.07 1.7 6.28 6.28 0 01.39 2.29 1.87 1.87 0 01-.14.87.55.55 0 01-.53.23zm5.46-1.73a3.3 3.3 0 00-.16-1.05 2.45 2.45 0 00-.46-.86 2.17 2.17 0 00-.8-.59 2.76 2.76 0 00-1.12-.21 2.67 2.67 0 00-2 .7 3.62 3.62 0 00-.91 2zm12.57-2.26a.88.88 0 01-.24.26.67.67 0 01-.33.08 1 1 0 01-.45-.12l-.55-.26a3.65 3.65 0 00-.71-.26 3.33 3.33 0 00-.95-.12 2.21 2.21 0 00-1.33.36 1.12 1.12 0 00-.48.94.9.9 0 00.25.64 2.21 2.21 0 00.66.46 6.37 6.37 0 00.94.36c.35.1.7.22 1.06.34a10.61 10.61 0 011.06.42 3.71 3.71 0 01.94.61 2.64 2.64 0 01.91 2.1 4 4 0 01-.31 1.59 3.39 3.39 0 01-.91 1.25 4.2 4.2 0 01-1.49.82 6.41 6.41 0 01-2 .3 6.78 6.78 0 01-1.2-.11 7 7 0 01-1.13-.31 6.1 6.1 0 01-1-.46 5 5 0 01-.8-.58l.66-1.09a1.07 1.07 0 01.3-.3.84.84 0 01.44-.11 1 1 0 01.51.15l.55.33a5.28 5.28 0 00.74.32 3.24 3.24 0 001.07.15 2.88 2.88 0 00.88-.12 1.9 1.9 0 00.6-.32 1.2 1.2 0 00.35-.46 1.41 1.41 0 00.11-.54 1 1 0 00-.25-.68 2.43 2.43 0 00-.66-.47 6.38 6.38 0 00-.94-.35c-.36-.1-.72-.22-1.08-.34a10.18 10.18 0 01-1.08-.44 3.23 3.23 0 01-.94-.63 2.66 2.66 0 01-.66-.94 3.22 3.22 0 01-.25-1.35 3.33 3.33 0 01.29-1.39 3.16 3.16 0 01.85-1.15 4.2 4.2 0 011.4-.79 5.79 5.79 0 012-.3 6 6 0 012.24.41 4.94 4.94 0 011.68 1.07zm6.85-5.79a1.58 1.58 0 01-.15.69 1.78 1.78 0 01-.4.57 2 2 0 01-.59.39 1.72 1.72 0 01-.72.15 1.69 1.69 0 01-.7-.15 1.87 1.87 0 01-1-1 1.58 1.58 0 01-.14-.69 1.71 1.71 0 01.14-.72 1.85 1.85 0 01.39-.58 1.92 1.92 0 01.57-.39 1.69 1.69 0 01.7-.15 1.72 1.72 0 01.72.15 2 2 0 01.59.39 1.82 1.82 0 01.55 1.3zm-.39 3.47v11.91h-2.88v-11.91zm6.39-5.34v17.25h-2.86v-17.25zm6.86 1.87a1.58 1.58 0 01-.15.69 2 2 0 01-1 1 1.79 1.79 0 01-.72.15 1.66 1.66 0 01-.7-.15 2 2 0 01-.58-.39 1.92 1.92 0 01-.39-.57 1.74 1.74 0 01-.14-.69 1.89 1.89 0 01.14-.72 1.85 1.85 0 01.39-.58 2 2 0 01.58-.39 1.66 1.66 0 01.7-.15 1.79 1.79 0 01.72.15 2 2 0 01.58.39 1.9 1.9 0 01.41.58 1.72 1.72 0 01.16.68zm-.4 3.47v11.91h-2.88v-11.91zm5.71 6.31a5.87 5.87 0 00.33 1.59 3.24 3.24 0 00.67 1.1 2.75 2.75 0 001 .65 3.68 3.68 0 001.27.21 3.83 3.83 0 001.2-.16 5.72 5.72 0 00.88-.36l.67-.36a1.08 1.08 0 01.55-.16.59.59 0 01.53.26l.83 1.05a4.93 4.93 0 01-1.07.93 5.71 5.71 0 01-1.24.61 7.37 7.37 0 01-1.31.32 9.66 9.66 0 01-1.29.09 6.45 6.45 0 01-2.31-.41A5.28 5.28 0 011059 321a5.61 5.61 0 01-1.24-2 7.73 7.73 0 01-.45-2.75 6.69 6.69 0 01.39-2.3 5.5 5.5 0 011.13-1.86 5.31 5.31 0 011.8-1.26 5.94 5.94 0 012.4-.47 5.77 5.77 0 012.07.36 4.53 4.53 0 011.64 1 4.7 4.7 0 011.07 1.7 6.28 6.28 0 01.39 2.29 1.75 1.75 0 01-.14.87.55.55 0 01-.53.23zm5.47-1.73a3.6 3.6 0 00-.16-1.05 2.32 2.32 0 00-.47-.86 2.13 2.13 0 00-.79-.59 2.83 2.83 0 00-1.12-.21 2.67 2.67 0 00-2 .7 3.49 3.49 0 00-.91 2zm7.98-3.13a8.09 8.09 0 01.76-.67 5 5 0 01.85-.52 5.73 5.73 0 011-.34 4.84 4.84 0 011.11-.12 4.27 4.27 0 011.73.33 3.45 3.45 0 011.26.93 4 4 0 01.76 1.43 5.86 5.86 0 01.27 1.83v7.58h-2.87v-7.58a2.58 2.58 0 00-.5-1.69 1.86 1.86 0 00-1.52-.6 2.89 2.89 0 00-1.39.34 4.78 4.78 0 00-1.23.91v8.62h-2.87v-11.9h1.75a.7.7 0 01.73.52zm19.52 1.07a1.47 1.47 0 01-.25.25.58.58 0 01-.35.09.77.77 0 01-.43-.13l-.5-.3a3.75 3.75 0 00-.69-.3 3.15 3.15 0 00-1-.14 2.93 2.93 0 00-1.33.28 2.45 2.45 0 00-.94.78 3.64 3.64 0 00-.57 1.24 6.8 6.8 0 00-.18 1.64 6.64 6.64 0 00.2 1.69 3.63 3.63 0 00.59 1.25 2.47 2.47 0 00.93.77 2.85 2.85 0 001.23.26 3.06 3.06 0 001.1-.17 3.43 3.43 0 00.72-.37l.5-.37a.75.75 0 01.49-.17.6.6 0 01.52.26l.82 1.05a5.26 5.26 0 01-1 .93 5.16 5.16 0 01-1.16.61 6.17 6.17 0 01-1.23.32 8.9 8.9 0 01-1.26.09 5.35 5.35 0 01-2.07-.41 5.1 5.1 0 01-1.71-1.2 5.65 5.65 0 01-1.15-1.94 7.27 7.27 0 01-.43-2.6 7.55 7.55 0 01.38-2.43 5.38 5.38 0 011.11-1.94 5 5 0 011.81-1.28 6.23 6.23 0 012.48-.47 6 6 0 012.34.43 5.93 5.93 0 011.81 1.23zm14.06-2.52l-6.49 15.18a1.27 1.27 0 01-.33.46 1.07 1.07 0 01-.62.15h-2.14l2.23-4.78-4.82-11h2.52a.78.78 0 01.53.16 1 1 0 01.28.37l2.53 6.18a4.57 4.57 0 01.22.62c.06.21.11.42.17.64l.21-.64a4.88 4.88 0 01.23-.64l2.39-6.16a.86.86 0 01.79-.53zM219 533.8a.62.62 0 01.45.2l1.23 1.34a6.83 6.83 0 01-2.51 1.94 8.83 8.83 0 01-3.58.67 8.36 8.36 0 01-3.36-.64 7.37 7.37 0 01-2.55-1.78 7.68 7.68 0 01-1.62-2.71 10.07 10.07 0 01-.56-3.45 9.63 9.63 0 01.6-3.46 8 8 0 011.7-2.71 7.59 7.59 0 012.62-1.77 8.67 8.67 0 013.36-.63 8.31 8.31 0 013.26.6 7.75 7.75 0 012.42 1.58l-1.05 1.45a1 1 0 01-.23.24.68.68 0 01-.4.11.81.81 0 01-.36-.1l-.41-.25-.51-.32a4.19 4.19 0 00-.67-.31 6 6 0 00-.89-.25 6.72 6.72 0 00-1.17-.1 5.29 5.29 0 00-2.06.4 4.64 4.64 0 00-1.61 1.16 5.59 5.59 0 00-1 1.86 7.73 7.73 0 00-.37 2.5 7.24 7.24 0 00.4 2.52 5.73 5.73 0 001.08 1.86 4.75 4.75 0 001.62 1.15 4.91 4.91 0 002 .4 8.22 8.22 0 001.16-.07 4.56 4.56 0 001-.22 4.11 4.11 0 00.82-.39 5.61 5.61 0 00.78-.58.81.81 0 01.24-.17.6.6 0 01.17-.07zm9-8.13a6.46 6.46 0 012.41.43 5.21 5.21 0 013 3.14 8 8 0 010 5.1 5.46 5.46 0 01-1.19 1.94 5.26 5.26 0 01-1.85 1.23 6.67 6.67 0 01-2.41.43 6.74 6.74 0 01-2.43-.43 5.4 5.4 0 01-1.86-1.23 5.61 5.61 0 01-1.19-1.94 7.78 7.78 0 010-5.1 5.43 5.43 0 011.19-1.92 5.37 5.37 0 011.86-1.22 6.53 6.53 0 012.47-.43zm0 10.06a2.52 2.52 0 002.2-1 5 5 0 00.71-2.92 5.12 5.12 0 00-.71-2.94 2.52 2.52 0 00-2.2-1 2.57 2.57 0 00-2.24 1 5 5 0 00-.72 2.93 5 5 0 00.72 2.92 2.58 2.58 0 002.24 1.01zm8.6 2.03v-11.9h1.76a.7.7 0 01.73.52l.18.88a6.61 6.61 0 01.66-.64 4.49 4.49 0 01.73-.5 3.87 3.87 0 01.84-.33 3.7 3.7 0 011-.12 2.77 2.77 0 011.85.61 3.68 3.68 0 011.08 1.62 3.76 3.76 0 01.7-1 3.93 3.93 0 012-1.08 5.14 5.14 0 012.87.18 3.45 3.45 0 011.29.88 3.85 3.85 0 01.79 1.42 5.91 5.91 0 01.28 1.91v7.58h-2.87v-7.58a2.58 2.58 0 00-.5-1.71 1.83 1.83 0 00-1.46-.57 2.21 2.21 0 00-.82.15 1.93 1.93 0 00-.66.43 2 2 0 00-.45.72 2.69 2.69 0 00-.16 1v7.58h-2.88v-7.58a2.62 2.62 0 00-.48-1.74 1.79 1.79 0 00-1.41-.54 2.28 2.28 0 00-1.17.31 3.7 3.7 0 00-1 .84v8.71zm22.74-10.28a6.2 6.2 0 011.66-1.33 4.45 4.45 0 012.18-.52 3.92 3.92 0 011.82.37 4 4 0 011.39 1.18 5.42 5.42 0 01.91 1.9 9.74 9.74 0 01.32 2.6 8.15 8.15 0 01-.36 2.47 6 6 0 01-1 2 4.61 4.61 0 01-3.73 1.78 4.42 4.42 0 01-1.71-.31 4.31 4.31 0 01-1.26-.85v4.87h-2.87v-15.78h1.76a.7.7 0 01.73.52zm.15 7.2a2.8 2.8 0 001.06.83 3.2 3.2 0 001.25.24 2.78 2.78 0 001.17-.24 2.26 2.26 0 00.89-.74 3.67 3.67 0 00.56-1.26 7.24 7.24 0 00.2-1.79 8 8 0 00-.17-1.77 3.3 3.3 0 00-.48-1.18 1.91 1.91 0 00-.76-.66 2.38 2.38 0 00-1-.21 2.84 2.84 0 00-1.52.38 4.61 4.61 0 00-1.18 1.06zm10.62-7.17a7.08 7.08 0 014.94-1.88 4.8 4.8 0 011.87.35 3.91 3.91 0 011.39.95 4 4 0 01.87 1.46 5.48 5.48 0 01.29 1.85v7.52h-1.3a1.28 1.28 0 01-.62-.12.79.79 0 01-.35-.49l-.26-.86a8.84 8.84 0 01-.88.71 4.7 4.7 0 01-.89.52 5.21 5.21 0 01-1 .32 6 6 0 01-1.17.16 4.71 4.71 0 01-1.39-.2 3.14 3.14 0 01-1.11-.61 2.84 2.84 0 01-.71-1 3.62 3.62 0 01-.26-1.41 2.83 2.83 0 01.15-.9 2.72 2.72 0 01.49-.85 4.29 4.29 0 01.89-.77 5.56 5.56 0 011.34-.62 11.2 11.2 0 011.85-.44 18.47 18.47 0 012.42-.2v-.7a2.63 2.63 0 00-.51-1.77 1.89 1.89 0 00-1.48-.57 3.43 3.43 0 00-1.15.16 4.37 4.37 0 00-.81.37l-.63.36a1.23 1.23 0 01-.63.16.83.83 0 01-.51-.15 1.32 1.32 0 01-.34-.37zm6.57 5.17a16.83 16.83 0 00-2.09.21 5.89 5.89 0 00-1.36.4 1.93 1.93 0 00-.73.57 1.41 1.41 0 00.23 1.79 1.88 1.88 0 001.16.33 3.45 3.45 0 001.53-.32 4.74 4.74 0 001.26-1zm17.92 5.08h-2.87V528h-5.52v6.46a1.29 1.29 0 00.27.87 1 1 0 00.75.31 1.42 1.42 0 00.44-.06 3.37 3.37 0 00.32-.14l.23-.13a.44.44 0 01.21-.07.33.33 0 01.21.07.83.83 0 01.18.19l.86 1.39a4.39 4.39 0 01-1.44.79 5.38 5.38 0 01-1.69.27 3.1 3.1 0 01-2.38-.88 3.38 3.38 0 01-.83-2.42V528h-1.22a.54.54 0 01-.39-.15.58.58 0 01-.17-.45v-1.14l1.92-.32.6-3.24a.6.6 0 01.22-.36.64.64 0 01.42-.13h1.49V526h8.39zm.49-15.42a1.66 1.66 0 01-.15.7 1.94 1.94 0 01-.4.58 1.71 1.71 0 01-.59.38 1.79 1.79 0 01-.72.15 1.66 1.66 0 01-.7-.15 1.73 1.73 0 01-.57-.38 2.11 2.11 0 01-.39-.58 1.85 1.85 0 010-1.41 2.16 2.16 0 01.43-.63 1.92 1.92 0 01.57-.39 1.65 1.65 0 01.7-.14 1.78 1.78 0 01.72.14 1.9 1.9 0 01.59.39 2 2 0 01.4.59 1.67 1.67 0 01.11.75zm5.91 4.98a5.65 5.65 0 011.59-1.2 4.33 4.33 0 012-.45 4.24 4.24 0 011.87.41 4 4 0 011.41 1.16 5.55 5.55 0 01.9 1.84 8.67 8.67 0 01.32 2.43 9 9 0 01-.36 2.63 6.16 6.16 0 01-1 2 4.7 4.7 0 01-1.61 1.3 4.62 4.62 0 01-2.09.47 4.46 4.46 0 01-1-.11 4.08 4.08 0 01-.83-.31 3.1 3.1 0 01-.7-.48 4.65 4.65 0 01-.61-.64l-.13.81a.71.71 0 01-.24.42.7.7 0 01-.46.13h-1.96v-17.21h2.9zm0 7.36a2.8 2.8 0 001.06.83 3.11 3.11 0 001.21.24 2.84 2.84 0 001.19-.23 2.3 2.3 0 00.9-.75 3.52 3.52 0 00.57-1.28 7.91 7.91 0 00.2-1.88 4.88 4.88 0 00-.65-2.84 2.21 2.21 0 00-1.87-.87 2.63 2.63 0 00-1.44.38 4.57 4.57 0 00-1.17 1.06zm14.22-12.29a1.62 1.62 0 01-.15.69 2 2 0 01-.4.57 2.16 2.16 0 01-.59.39 1.71 1.71 0 01-.72.14 1.65 1.65 0 01-.7-.14 2.11 2.11 0 01-.58-.39 1.73 1.73 0 01-.38-.57 1.62 1.62 0 01-.15-.69 1.72 1.72 0 01.15-.72 1.67 1.67 0 01.38-.58 1.74 1.74 0 01.58-.39 1.66 1.66 0 01.7-.15 1.72 1.72 0 01.72.15 1.79 1.79 0 01.59.39 1.87 1.87 0 01.4.58 1.72 1.72 0 01.15.72zm-.4 3.47v11.9H312v-11.9zm6.41-5.34v17.24h-2.87v-17.24zm6.77 1.87a1.62 1.62 0 01-.15.69 1.78 1.78 0 01-.4.57 2 2 0 01-.59.39 1.71 1.71 0 01-.72.14 1.68 1.68 0 01-.7-.14 1.87 1.87 0 01-1-1 1.62 1.62 0 01-.15-.69 1.72 1.72 0 01.15-.72 1.85 1.85 0 01.39-.58 1.61 1.61 0 01.57-.39 1.69 1.69 0 01.7-.15 1.72 1.72 0 01.72.15 1.69 1.69 0 01.59.39 1.82 1.82 0 01.55 1.3zm-.39 3.47v11.9h-2.88v-11.9zm7.51 12.14a3.09 3.09 0 01-2.38-.88 3.34 3.34 0 01-.83-2.42V528h-1.22a.57.57 0 01-.4-.15.58.58 0 01-.16-.45v-1.14L332 526l.61-3.25a.6.6 0 01.22-.36.64.64 0 01.42-.13h1.48V526H338v2h-3.18v6.46a1.29 1.29 0 00.27.87 1 1 0 00.75.31 1.44 1.44 0 00.45-.06l.31-.14.24-.13a.44.44 0 01.21-.07.35.35 0 01.21.07.83.83 0 01.17.19l.86 1.39a4.39 4.39 0 01-1.44.79 5.28 5.28 0 01-1.73.32zm16.06-12.14L344.69 541a1 1 0 01-.33.45 1 1 0 01-.62.16h-2.13l2.23-4.78-4.82-11h2.52a.8.8 0 01.53.16 1.1 1.1 0 01.28.37l2.53 6.17a5.25 5.25 0 01.22.63c0 .21.11.42.16.64l.21-.65c.07-.21.15-.42.23-.63l2.4-6.16a.8.8 0 01.3-.38.85.85 0 01.48-.15zm170.92 11.9h-2.41a1.07 1.07 0 01-.67-.2 1.29 1.29 0 01-.38-.51l-1.25-3.42h-6.95l-1.26 3.42a1 1 0 01-.36.49 1 1 0 01-.66.22h-2.44l6.61-16.76h3.18zm-5.51-6.33l-2.05-5.59c-.1-.24-.2-.54-.31-.88s-.22-.71-.32-1.1c-.1.39-.21.76-.32 1.11s-.21.64-.31.9l-2 5.56zm17.41-5.57v11.9h-1.75a.67.67 0 01-.72-.52l-.2-1a6.62 6.62 0 01-1.61 1.2 4.52 4.52 0 01-2.08.46 4.22 4.22 0 01-1.72-.33 3.37 3.37 0 01-1.26-.94 4 4 0 01-.77-1.43 5.86 5.86 0 01-.27-1.83v-7.56h2.87v7.56a2.53 2.53 0 00.51 1.69 1.85 1.85 0 001.51.6 3 3 0 001.39-.33 4.78 4.78 0 001.23-.91v-8.61zm7.34 12.14a3.09 3.09 0 01-2.38-.88 3.34 3.34 0 01-.83-2.42V528h-1.22a.57.57 0 01-.4-.15.58.58 0 01-.16-.45v-1.14l1.92-.31.6-3.25a.6.6 0 01.22-.36.64.64 0 01.42-.13H541V526h3.18v2H541v6.46a1.25 1.25 0 00.28.87 1 1 0 00.74.31 1.44 1.44 0 00.45-.06l.31-.14.24-.13a.44.44 0 01.21-.07.33.33 0 01.21.07.83.83 0 01.17.19l.86 1.39a4.39 4.39 0 01-1.44.79 5.28 5.28 0 01-1.69.32zm10.42-12.33a6.42 6.42 0 012.41.43 5.37 5.37 0 011.86 1.22 5.43 5.43 0 011.19 1.92 8.13 8.13 0 010 5.1 5.61 5.61 0 01-1.19 1.94 5.4 5.4 0 01-1.86 1.23 7 7 0 01-4.83 0 5.34 5.34 0 01-1.87-1.23 5.61 5.61 0 01-1.19-1.94 7.78 7.78 0 010-5.1 5.43 5.43 0 011.19-1.92 5.32 5.32 0 011.87-1.22 6.44 6.44 0 012.42-.43zm0 10.06a2.51 2.51 0 002.2-1 5 5 0 00.71-2.92 5 5 0 00-.71-2.94 2.51 2.51 0 00-2.2-1 2.55 2.55 0 00-2.23 1 5 5 0 00-.73 2.93 4.9 4.9 0 00.73 2.92 2.56 2.56 0 002.23 1.01zm22.07-.49a4.11 4.11 0 001.62-.3 3.16 3.16 0 001.2-.85 3.56 3.56 0 00.75-1.32 5.3 5.3 0 00.26-1.74V521h3.13v10a7.57 7.57 0 01-.49 2.77 6.17 6.17 0 01-3.56 3.63 8.4 8.4 0 01-5.82 0 6.15 6.15 0 01-3.57-3.63 7.79 7.79 0 01-.48-2.77v-10H570v10a5.58 5.58 0 00.26 1.74 3.86 3.86 0 00.76 1.33 3.28 3.28 0 001.21.85 4.09 4.09 0 001.6.32zm12.94-7.76a6.36 6.36 0 011.66-1.33 4.49 4.49 0 012.19-.52 3.92 3.92 0 011.78.41 4 4 0 011.39 1.18 5.79 5.79 0 01.91 1.9 9.76 9.76 0 01.31 2.6 8.15 8.15 0 01-.36 2.47 5.94 5.94 0 01-1 2 4.78 4.78 0 01-1.62 1.31 4.71 4.71 0 01-2.11.47 4.35 4.35 0 01-1.71-.31 4.31 4.31 0 01-1.26-.85v4.87h-2.87v-15.82h1.75a.7.7 0 01.73.52zm.16 7.2a2.73 2.73 0 001.06.83 3.2 3.2 0 001.25.24 2.78 2.78 0 001.17-.24 2.23 2.23 0 00.88-.74 3.49 3.49 0 00.57-1.26 7.24 7.24 0 00.2-1.79 8 8 0 00-.17-1.77 3.71 3.71 0 00-.48-1.18 2 2 0 00-.76-.66 2.38 2.38 0 00-1-.21 2.81 2.81 0 00-1.52.38 4.45 4.45 0 00-1.18 1.06zm21.23-14.16v17.24h-1.75a.67.67 0 01-.72-.52l-.24-1.15a5.94 5.94 0 01-1.66 1.34 4.43 4.43 0 01-2.17.51 3.9 3.9 0 01-3.19-1.59 5.55 5.55 0 01-.9-1.91 9.3 9.3 0 01-.32-2.6 8.13 8.13 0 01.36-2.46 6.06 6.06 0 011-2 5 5 0 011.61-1.31 4.72 4.72 0 012.12-.47 4.16 4.16 0 011.7.32 4.49 4.49 0 011.27.85v-6.28zm-2.86 8.38a2.77 2.77 0 00-1.07-.84 3.14 3.14 0 00-1.23-.24 2.75 2.75 0 00-1.17.24 2.36 2.36 0 00-.9.74 3.81 3.81 0 00-.57 1.25 7.33 7.33 0 00-.19 1.79 8.1 8.1 0 00.16 1.77 3.65 3.65 0 00.49 1.19 1.91 1.91 0 00.76.66 2.53 2.53 0 001 .2 2.88 2.88 0 001.52-.37 4.64 4.64 0 001.19-1.06zm6-1.39a7.07 7.07 0 014.94-1.88 4.8 4.8 0 011.87.35 3.91 3.91 0 011.39.95 4 4 0 01.87 1.46 5.74 5.74 0 01.29 1.85v7.52h-1.3a1.28 1.28 0 01-.62-.12.79.79 0 01-.35-.49l-.26-.86a8.84 8.84 0 01-.88.71 5 5 0 01-.89.52 5.09 5.09 0 01-1 .32 5.94 5.94 0 01-1.16.11 4.78 4.78 0 01-1.4-.2 3.19 3.19 0 01-1.1-.61 2.74 2.74 0 01-.72-1 3.62 3.62 0 01-.25-1.41 2.83 2.83 0 01.15-.9 2.54 2.54 0 01.49-.85 4.29 4.29 0 01.89-.77 5.39 5.39 0 011.34-.62 11.2 11.2 0 011.85-.44 18.47 18.47 0 012.42-.2v-.7a2.63 2.63 0 00-.52-1.77 1.87 1.87 0 00-1.47-.57 3.43 3.43 0 00-1.15.16 4.37 4.37 0 00-.81.37l-.63.36a1.24 1.24 0 01-.64.16.85.85 0 01-.51-.15 1.28 1.28 0 01-.33-.37zm6.57 5.17a16.83 16.83 0 00-2.09.21 5.89 5.89 0 00-1.36.4 1.86 1.86 0 00-.73.57 1.24 1.24 0 00-.22.71 1.27 1.27 0 00.44 1.08 1.93 1.93 0 001.17.33 3.45 3.45 0 001.53-.32 4.74 4.74 0 001.26-1zm9.87 5.32a3.09 3.09 0 01-2.38-.88 3.34 3.34 0 01-.83-2.42V528h-1.22a.57.57 0 01-.4-.15.58.58 0 01-.16-.45v-1.14l1.92-.31.6-3.25a.6.6 0 01.22-.36.64.64 0 01.42-.13h1.48V526h3.18v2h-3.18v6.46a1.25 1.25 0 00.28.87 1 1 0 00.74.31 1.44 1.44 0 00.45-.06l.31-.14.24-.13a.44.44 0 01.21-.07.33.33 0 01.21.07.83.83 0 01.17.19l.86 1.39a4.29 4.29 0 01-1.44.79 5.28 5.28 0 01-1.68.32zm7.36-5.83a5.73 5.73 0 00.32 1.58 3.21 3.21 0 00.68 1.11 2.6 2.6 0 001 .64 3.46 3.46 0 001.27.22 3.92 3.92 0 001.2-.16 5.72 5.72 0 00.88-.36c.25-.13.48-.25.66-.36a1.11 1.11 0 01.56-.16.58.58 0 01.53.26l.82 1a4.66 4.66 0 01-1.06.93 6.47 6.47 0 01-2.55.92 8.41 8.41 0 01-1.3.1 6.32 6.32 0 01-2.31-.42 5.13 5.13 0 01-1.85-1.21 5.7 5.7 0 01-1.24-2 7.53 7.53 0 01-.46-2.76 6.68 6.68 0 01.4-2.29 5.54 5.54 0 011.13-1.87 5.31 5.31 0 011.8-1.26 5.92 5.92 0 012.39-.46 5.79 5.79 0 012.03.38 4.53 4.53 0 011.64 1.05 5 5 0 011.07 1.69 6.34 6.34 0 01.39 2.3 1.87 1.87 0 01-.14.87.57.57 0 01-.53.23zm5.46-1.73a3.6 3.6 0 00-.15-1.05 2.61 2.61 0 00-.47-.87 2.26 2.26 0 00-.8-.58 2.76 2.76 0 00-1.12-.22 2.65 2.65 0 00-1.95.71 3.43 3.43 0 00-.91 2zm12.57-2.26a.76.76 0 01-.24.26.65.65 0 01-.33.07 1.1 1.1 0 01-.44-.11l-.55-.26a4 4 0 00-.72-.26 3.25 3.25 0 00-.94-.12 2.17 2.17 0 00-1.33.36 1.12 1.12 0 00-.48.94.87.87 0 00.25.64 2 2 0 00.66.46 5.85 5.85 0 00.93.35c.35.11.7.22 1.06.35a10.78 10.78 0 011.07.42 4.11 4.11 0 01.93.6 2.87 2.87 0 01.66.88 2.73 2.73 0 01.25 1.23 4 4 0 01-.31 1.59 3.39 3.39 0 01-.91 1.25 4.2 4.2 0 01-1.49.82 6.37 6.37 0 01-2.05.3 6.78 6.78 0 01-1.2-.11 8 8 0 01-1.12-.31 6.58 6.58 0 01-1-.46 5.27 5.27 0 01-.81-.58l.66-1.1a1.07 1.07 0 01.3-.3.87.87 0 01.44-.1 1 1 0 01.51.15c.16.1.34.21.55.32a4.67 4.67 0 00.74.33 3.24 3.24 0 001.07.15 2.88 2.88 0 00.88-.12 1.9 1.9 0 00.6-.32 1.18 1.18 0 00.35-.46 1.41 1.41 0 00.11-.54.94.94 0 00-.25-.68 2.23 2.23 0 00-.66-.47 6.38 6.38 0 00-.94-.35l-1.08-.34a10.18 10.18 0 01-1.08-.44 3.87 3.87 0 01-.94-.63 3.06 3.06 0 01-.66-.94 3.22 3.22 0 01-.25-1.35 3.46 3.46 0 01.29-1.39 3.32 3.32 0 01.85-1.16 4.34 4.34 0 011.41-.78 5.77 5.77 0 011.94-.3 6 6 0 012.24.41 5.08 5.08 0 011.68 1.06zM763.57 524a1.27 1.27 0 01-.3.36.67.67 0 01-.39.11 1 1 0 01-.53-.18c-.19-.12-.41-.26-.68-.4a5.29 5.29 0 00-.92-.4 3.88 3.88 0 00-1.25-.18 3.82 3.82 0 00-1.13.15 2.37 2.37 0 00-.82.44 1.74 1.74 0 00-.5.67 2.34 2.34 0 00-.16.85 1.52 1.52 0 00.33 1 2.92 2.92 0 00.88.67 9.13 9.13 0 001.24.5c.46.14.94.3 1.43.47a12.59 12.59 0 011.43.58 5.27 5.27 0 011.24.83 3.85 3.85 0 01.87 1.24 4.3 4.3 0 01.33 1.77 6 6 0 01-.38 2.13 4.83 4.83 0 01-1.14 1.73 5.21 5.21 0 01-1.83 1.16 6.56 6.56 0 01-2.47.43 7.56 7.56 0 01-1.58-.16 7.35 7.35 0 01-1.49-.45 7.7 7.7 0 01-1.34-.69 6.27 6.27 0 01-1.12-.91l.92-1.49a1.15 1.15 0 01.3-.28.83.83 0 01.4-.11 1.08 1.08 0 01.62.24l.8.53a6.92 6.92 0 001.09.53 4.13 4.13 0 001.49.23 3.09 3.09 0 002.07-.63 2.28 2.28 0 00.73-1.81 1.68 1.68 0 00-.33-1.08 2.48 2.48 0 00-.88-.7 6.41 6.41 0 00-1.24-.49c-.47-.13-.94-.27-1.42-.43a12.1 12.1 0 01-1.41-.55 4.48 4.48 0 01-1.24-.85 3.73 3.73 0 01-.88-1.31 5 5 0 01-.33-1.93 4.56 4.56 0 011.43-3.33 5.1 5.1 0 011.71-1.08 6.36 6.36 0 012.35-.4 7.84 7.84 0 012.74.46 6.19 6.19 0 012.13 1.3zm12.43 4.37a1.25 1.25 0 01-.25.26.58.58 0 01-.35.09.77.77 0 01-.43-.13l-.5-.3a2.76 2.76 0 00-.69-.3 3.15 3.15 0 00-1-.14 3 3 0 00-1.32.27 2.6 2.6 0 00-1 .79 3.48 3.48 0 00-.56 1.23 6.39 6.39 0 00-.19 1.65 6.64 6.64 0 00.2 1.69 3.63 3.63 0 00.59 1.25 2.44 2.44 0 00.93.76 2.71 2.71 0 001.23.26 3.18 3.18 0 001.11-.16 3.59 3.59 0 00.71-.38c.19-.13.36-.25.51-.37a.75.75 0 01.48-.16.58.58 0 01.52.26l.82 1a5 5 0 01-1 .93 5.74 5.74 0 01-1.15.6 5.31 5.31 0 01-1.23.32 7.82 7.82 0 01-1.26.1 5.19 5.19 0 01-2.08-.42 4.83 4.83 0 01-1.71-1.2 5.76 5.76 0 01-1.15-1.93 7.5 7.5 0 01-.43-2.6 7.66 7.66 0 01.38-2.44 5.42 5.42 0 011.11-1.93 5.07 5.07 0 011.81-1.29 6.23 6.23 0 012.48-.46 5.85 5.85 0 012.34.43 5.93 5.93 0 011.81 1.23zm2.94-.86a7.09 7.09 0 014.95-1.88 4.74 4.74 0 011.86.35 4 4 0 011.4.95 4 4 0 01.86 1.46 5.48 5.48 0 01.3 1.85v7.52H787a1.36 1.36 0 01-.63-.12.83.83 0 01-.35-.49l-.25-.86a10.16 10.16 0 01-.88.71 5.11 5.11 0 01-.9.52 5.21 5.21 0 01-1 .32 6 6 0 01-1.17.11 4.76 4.76 0 01-1.39-.2 3.1 3.1 0 01-1.1-.61 2.74 2.74 0 01-.72-1 3.62 3.62 0 01-.26-1.41 2.83 2.83 0 01.15-.9 2.57 2.57 0 01.5-.85 4 4 0 01.89-.77 5.39 5.39 0 011.34-.62 11 11 0 011.85-.44 18.31 18.31 0 012.41-.2v-.7a2.63 2.63 0 00-.51-1.77 1.87 1.87 0 00-1.47-.57 3.49 3.49 0 00-1.16.16 5.07 5.07 0 00-.81.37l-.63.36a1.23 1.23 0 01-.63.16.85.85 0 01-.51-.15 1.48 1.48 0 01-.34-.37zm6.57 5.17a17 17 0 00-2.09.21 6 6 0 00-1.36.4 1.93 1.93 0 00-.73.57 1.32 1.32 0 00-.22.71 1.25 1.25 0 00.45 1.08 1.92 1.92 0 001.16.33 3.45 3.45 0 001.53-.32 4.74 4.74 0 001.26-1zm8.97-12.16v17.24h-2.87v-17.24zm3.17 6.99a7.08 7.08 0 014.94-1.88 4.8 4.8 0 011.87.35 3.91 3.91 0 011.39.95 4 4 0 01.87 1.46 5.48 5.48 0 01.29 1.85v7.52h-1.3a1.31 1.31 0 01-.62-.12.83.83 0 01-.35-.49l-.26-.86a8.84 8.84 0 01-.88.71 4.7 4.7 0 01-.89.52 5.21 5.21 0 01-1 .32 6 6 0 01-1.17.11 4.71 4.71 0 01-1.39-.2 3.1 3.1 0 01-1.1-.61 2.74 2.74 0 01-.72-1 3.62 3.62 0 01-.26-1.41 2.83 2.83 0 01.15-.9 2.72 2.72 0 01.49-.85 4.29 4.29 0 01.89-.77 5.56 5.56 0 011.34-.62 11.2 11.2 0 011.85-.44 18.47 18.47 0 012.42-.2v-.7a2.63 2.63 0 00-.51-1.77 1.88 1.88 0 00-1.48-.57 3.43 3.43 0 00-1.15.16 4.37 4.37 0 00-.81.37l-.63.36a1.23 1.23 0 01-.63.16.85.85 0 01-.51-.15 1.48 1.48 0 01-.34-.37zm6.57 5.17a16.83 16.83 0 00-2.09.21 5.89 5.89 0 00-1.36.4 1.93 1.93 0 00-.73.57 1.41 1.41 0 00.23 1.79 1.88 1.88 0 001.16.33 3.45 3.45 0 001.53-.32 4.74 4.74 0 001.26-1zm8.93-5.36a5.69 5.69 0 011.6-1.2 4.3 4.3 0 012-.45 4.17 4.17 0 011.86.41 4 4 0 011.42 1.16 5.55 5.55 0 01.9 1.84 8.68 8.68 0 01.31 2.43 9 9 0 01-.36 2.63 6.15 6.15 0 01-1 2 4.7 4.7 0 01-1.61 1.3 4.65 4.65 0 01-2.09.47 4.46 4.46 0 01-1-.11 4.41 4.41 0 01-.84-.31 3.63 3.63 0 01-.7-.48 6.25 6.25 0 01-.61-.64l-.12.81a.71.71 0 01-.24.42.72.72 0 01-.46.13h-1.89v-17.21h2.86zm0 7.36a2.83 2.83 0 001.07.83 3.07 3.07 0 001.21.24 2.84 2.84 0 001.19-.23 2.3 2.3 0 00.9-.75 3.89 3.89 0 00.57-1.28 8 8 0 00.19-1.88 4.8 4.8 0 00-.65-2.84 2.18 2.18 0 00-1.87-.87 2.61 2.61 0 00-1.43.38 4.78 4.78 0 00-1.18 1.06zm14.25-12.29a1.62 1.62 0 01-.15.69 1.78 1.78 0 01-.4.57 2 2 0 01-.58.39 1.78 1.78 0 01-.72.14 1.65 1.65 0 01-.7-.14 2 2 0 01-.58-.39 1.92 1.92 0 01-.39-.57 1.77 1.77 0 01-.14-.69 1.89 1.89 0 01.14-.72 1.85 1.85 0 01.39-.58 1.87 1.87 0 011.28-.54 1.79 1.79 0 01.72.15 1.65 1.65 0 01.58.39 1.82 1.82 0 01.55 1.3zm-.39 3.47v11.9h-2.88v-11.9zm6.41-5.34v17.24h-2.87v-17.24zm6.81 1.87a1.62 1.62 0 01-.15.69 2 2 0 01-.4.57 2.16 2.16 0 01-.59.39 1.71 1.71 0 01-.72.14 1.65 1.65 0 01-.7-.14 2.11 2.11 0 01-.58-.39 1.73 1.73 0 01-.38-.57 1.62 1.62 0 01-.15-.69 1.72 1.72 0 01.15-.72 1.67 1.67 0 01.38-.58 1.74 1.74 0 01.58-.39 1.66 1.66 0 01.7-.15 1.72 1.72 0 01.72.15 1.79 1.79 0 01.59.39 1.87 1.87 0 01.4.58 1.72 1.72 0 01.15.72zm-.4 3.47v11.9H837v-11.9zm7.48 12.14a3.13 3.13 0 01-2.39-.88 3.38 3.38 0 01-.83-2.42V528h-1.22a.56.56 0 01-.39-.15.58.58 0 01-.16-.45v-1.14l1.91-.31.6-3.25a.61.61 0 01.23-.36.59.59 0 01.41-.13H847V526h3.18v2H847v6.46a1.29 1.29 0 00.27.87 1 1 0 00.75.31 1.44 1.44 0 00.45-.06l.31-.14.24-.13a.44.44 0 01.21-.07.38.38 0 01.21.07.83.83 0 01.17.19l.86 1.39a4.39 4.39 0 01-1.44.79 5.28 5.28 0 01-1.72.32zm16.06-12.14L856.88 541a1 1 0 01-.33.45 1 1 0 01-.62.16h-2.14l2.23-4.78-4.81-11h2.51a.76.76 0 01.53.16 1 1 0 01.29.37l2.53 6.17q.12.32.21.63c.06.21.12.42.17.64l.21-.65c.07-.21.15-.42.23-.63l2.39-6.16a.82.82 0 01.31-.38.81.81 0 01.48-.15zm22.95 11.9h-2.8a2 2 0 01-.72-.1 1.62 1.62 0 01-.57-.44l-1.16-1.2a8.47 8.47 0 01-2.48 1.42 8.35 8.35 0 01-3 .51 5.63 5.63 0 01-1.9-.33 5.24 5.24 0 01-1.67-1 4.86 4.86 0 01-1.18-1.51 4.53 4.53 0 01-.44-2 4.36 4.36 0 01.25-1.49 5 5 0 01.71-1.3 5.31 5.31 0 011.08-1.09 7.57 7.57 0 011.37-.83 6.11 6.11 0 01-.9-1.7 5 5 0 01-.28-1.65 4.27 4.27 0 01.32-1.66 4 4 0 01.92-1.36 4.42 4.42 0 011.48-.92 5.48 5.48 0 012-.34 5 5 0 011.83.31 4.61 4.61 0 011.38.83 4 4 0 01.9 1.2 3.86 3.86 0 01.39 1.39l-1.82.39a.61.61 0 01-.74-.45 2.51 2.51 0 00-.28-.57 2.28 2.28 0 00-.39-.48 2 2 0 00-.55-.32 2 2 0 00-.72-.12 2 2 0 00-.87.17 1.89 1.89 0 00-.65.45 2.2 2.2 0 00-.4.66 2.34 2.34 0 00-.13.79 3 3 0 00.07.68 2.54 2.54 0 00.23.65 4.51 4.51 0 00.42.66 9.56 9.56 0 00.64.74l4.46 4.63a8.26 8.26 0 00.62-1.54 9.21 9.21 0 00.3-1.65.74.74 0 01.18-.43.54.54 0 01.42-.16h1.79a10.36 10.36 0 01-.44 2.92 9.67 9.67 0 01-1.23 2.57zm-11.17-7.84a3.88 3.88 0 00-1.35 1.36 3.23 3.23 0 00-.43 1.63 3 3 0 00.22 1.15 2.55 2.55 0 00.6.86 2.67 2.67 0 00.88.55 3 3 0 001.08.19 5 5 0 001.86-.32 5.46 5.46 0 001.54-.88zm23.05-6.46v5h6.29v2.5h-6.29v6.83h-3.14V521h10.59v2.48zm12.8-2.94v17.24h-2.86v-17.24zm5.69 11.65a5.71 5.71 0 00.33 1.58 3.19 3.19 0 00.67 1.11 2.6 2.6 0 001 .64 3.51 3.51 0 001.28.22 3.92 3.92 0 001.2-.16 6.17 6.17 0 00.88-.36l.66-.36a1.08 1.08 0 01.55-.16.6.6 0 01.54.26l.82 1a4.71 4.71 0 01-1.07.93 5.83 5.83 0 01-1.23.6 6.05 6.05 0 01-1.32.32 8.19 8.19 0 01-1.29.1 6.24 6.24 0 01-2.31-.42 5.25 5.25 0 01-1.86-1.21 5.85 5.85 0 01-1.24-2 7.75 7.75 0 01-.45-2.76 6.68 6.68 0 01.39-2.29 5.57 5.57 0 011.14-1.87 5.37 5.37 0 011.79-1.26 5.94 5.94 0 012.4-.46 5.86 5.86 0 012.08.36 4.49 4.49 0 011.63 1.05 4.9 4.9 0 011.08 1.69 6.34 6.34 0 01.39 2.3 1.87 1.87 0 01-.14.87.59.59 0 01-.54.23zm5.47-1.73a3.3 3.3 0 00-.16-1.05 2.44 2.44 0 00-.47-.87 2.14 2.14 0 00-.79-.58 2.8 2.8 0 00-1.12-.22 2.68 2.68 0 00-2 .71 3.49 3.49 0 00-.91 2zm15.76 7.32h-2.76a.76.76 0 01-.51-.16 1.89 1.89 0 01-.32-.37l-2.51-4.14c0 .13-.09.25-.14.37a2 2 0 01-.17.32l-2.22 3.45a1.8 1.8 0 01-.32.36.63.63 0 01-.46.17h-2.57l4.09-6.14-3.92-5.76h2.76a.92.92 0 01.46.08.85.85 0 01.27.29l2.49 4a3.93 3.93 0 01.36-.78l2-3.13a.75.75 0 01.66-.43h2.64l-3.91 5.64zm5.43-15.37a1.62 1.62 0 01-.15.69 1.78 1.78 0 01-.4.57 2 2 0 01-.59.39 1.71 1.71 0 01-.72.14 1.68 1.68 0 01-.7-.14 1.87 1.87 0 01-1-1 1.62 1.62 0 01-.15-.69 1.72 1.72 0 01.15-.72 1.85 1.85 0 01.39-.58 1.61 1.61 0 01.57-.39 1.69 1.69 0 01.7-.15 1.72 1.72 0 01.72.15 1.69 1.69 0 01.59.39 1.82 1.82 0 01.55 1.3zm-.39 3.47v11.9h-2.88v-11.9zm6.37 1.46a5.65 5.65 0 011.59-1.2 4.37 4.37 0 012-.45 4.2 4.2 0 011.86.41 4.16 4.16 0 011.42 1.16 5.53 5.53 0 01.89 1.84 8.67 8.67 0 01.32 2.43 9 9 0 01-.36 2.63 6 6 0 01-1 2 4.64 4.64 0 01-3.7 1.77 4.53 4.53 0 01-1-.11 4.08 4.08 0 01-.83-.31 3.1 3.1 0 01-.7-.48 4.65 4.65 0 01-.61-.64l-.13.81a.71.71 0 01-.24.42.7.7 0 01-.46.13h-1.89v-17.21h2.87zm0 7.36a2.8 2.8 0 001.06.83 3.11 3.11 0 001.21.24 2.84 2.84 0 001.19-.23 2.3 2.3 0 00.9-.75 3.52 3.52 0 00.57-1.28 7.91 7.91 0 00.2-1.88 4.88 4.88 0 00-.65-2.84 2.19 2.19 0 00-1.87-.87 2.63 2.63 0 00-1.44.38 4.57 4.57 0 00-1.17 1.06zm14.25-12.29a1.62 1.62 0 01-.15.69 2 2 0 01-.4.57 2 2 0 01-.59.39 1.71 1.71 0 01-.72.14 1.65 1.65 0 01-.7-.14 1.92 1.92 0 01-.57-.39 1.82 1.82 0 01-.54-1.26 1.72 1.72 0 01.15-.72 1.56 1.56 0 01.39-.58 1.61 1.61 0 01.57-.39 1.66 1.66 0 01.7-.15 1.72 1.72 0 01.72.15 1.69 1.69 0 01.59.39 1.87 1.87 0 01.4.58 1.72 1.72 0 01.15.72zm-.4 3.47v11.9h-2.87v-11.9zm6.41-5.34v17.24h-2.87v-17.24zm6.81 1.87a1.62 1.62 0 01-.15.69 1.78 1.78 0 01-.4.57 2.11 2.11 0 01-.58.39 1.78 1.78 0 01-.72.14 1.7 1.7 0 01-.71-.14 1.87 1.87 0 01-1-1 1.61 1.61 0 01-.14-.69 1.71 1.71 0 01.14-.72 1.85 1.85 0 01.39-.58 1.61 1.61 0 01.57-.39 1.71 1.71 0 01.71-.15 1.79 1.79 0 01.72.15 1.74 1.74 0 01.58.39 1.82 1.82 0 01.55 1.3zm-.39 3.47v11.9h-2.88v-11.9zm7.47 12.14a3.1 3.1 0 01-2.38-.88 3.34 3.34 0 01-.83-2.42V528h-1.22a.57.57 0 01-.4-.15.61.61 0 01-.16-.45v-1.14l1.92-.31.6-3.25a.6.6 0 01.22-.36.64.64 0 01.42-.13h1.48V526h3.18v2h-3.18v6.46a1.25 1.25 0 00.28.87 1 1 0 00.75.31 1.42 1.42 0 00.44-.06 3.37 3.37 0 00.32-.14l.23-.13a.44.44 0 01.21-.07.33.33 0 01.21.07.83.83 0 01.18.19l.85 1.39a4.19 4.19 0 01-1.44.79 5.28 5.28 0 01-1.68.32zm16.06-12.14L993.06 541a1.15 1.15 0 01-.33.45 1 1 0 01-.63.16H990l2.23-4.78-4.82-11h2.52a.8.8 0 01.53.16 1 1 0 01.28.37l2.53 6.17a5.25 5.25 0 01.22.63c0 .21.11.42.17.64.06-.22.13-.43.2-.65s.15-.42.24-.63l2.39-6.16a.8.8 0 01.3-.38.86.86 0 01.49-.15z" transform="translate(-39.4 -45.31)"/><path class="cls-7" d="M783.91 81.07l36.52-36.97L843 62.59l28.63-31.47 9.21 9.14-36.97 41.03-23.06-19.36-27.84 28.49-9.06-9.35z"/><circle class="cls-4" cx="105.25" cy="176.33" r="18.24"/><path class="cls-4" d="M97.2 192.69h16.3a18.92 18.92 0 0118.92 18.92v17.12a6.46 6.46 0 01-6.46 6.46H84.74a6.46 6.46 0 01-6.46-6.46v-17.12a18.92 18.92 0 0118.92-18.92z"/><circle class="cls-5" cx="71.67" cy="207.62" r="10.28"/><path class="cls-5" d="M71.73 216.83A15.25 15.25 0 0187 232.08v8.69H56.48v-8.69a15.25 15.25 0 0115.25-15.25z"/><circle class="cls-5" cx="138.99" cy="207.62" r="10.28"/><path class="cls-5" d="M139 216.83a15.25 15.25 0 0115.25 15.25v8.69H123.8v-8.69a15.25 15.25 0 0115.2-15.25z"/><circle class="cls-5" cx="105.3" cy="207.62" r="10.28"/><path class="cls-5" d="M105.35 216.83a15.25 15.25 0 0115.25 15.25v8.69H90.1v-8.69a15.25 15.25 0 0115.25-15.25z"/><rect class="cls-4" x="241.78" y="404.46" width="69.13" height="45.64" rx="4"/><rect class="cls-9" x="191.01" y="391.5" width="26.77" height="59.75" rx="2.51"/><rect class="cls-4" x="1022.41" y="238.43" width="9.77" height="82.75" rx="4.88" transform="rotate(90 1030.255 237.455)"/><rect class="cls-5" x="1019.91" y="184.55" width="14.77" height="82.75" rx="5.89" transform="rotate(90 1030.255 183.565)"/><rect class="cls-5" x="1019.91" y="166.7" width="14.77" height="82.75" rx="5.89" transform="rotate(90 1030.255 165.725)"/><path class="cls-3" transform="rotate(-45 247.42 506.625)" d="M318.36 471.9h6.93v19.64h-6.93z"/><path class="cls-3" transform="rotate(45 369.311 408.144)" d="M330.85 464.01h6.93v28.68h-6.93z"/><path class="cls-4" transform="rotate(-45 172.12 507.466)" d="M243.06 472.75h6.93v19.64h-6.93z"/><path class="cls-4" transform="rotate(45 294.001 408.99)" d="M255.54 464.86h6.93v28.68h-6.93z"/><circle class="cls-1" cx="168.66" cy="212.12" r="6.56"/><circle class="cls-1" cx="294.81" cy="40.2" r="6.56"/><circle class="cls-1" cx="339.73" cy="406.92" r="6.56"/><circle class="cls-1" cx="771.96" cy="410.04" r="6.56"/></svg>