<?xml version="1.0" encoding="UTF-8"?> <svg xmlns="http://www.w3.org/2000/svg" xmlns:xlink="http://www.w3.org/1999/xlink" width="164px" height="30px" viewBox="0 0 164 30"><!-- Generator: Sketch 52.6 (67491) - http://www.bohemiancoding.com/sketch --><title>open-teams-logo_white</title><desc>Created with Sketch.</desc><g id="Symbols" stroke="none" stroke-width="1" fill="none" fill-rule="evenodd"><g id="Header_logined" transform="translate(-24.000000, -11.000000)" fill="#FFFFFF"><g id="Header"><g id="open-teams-logo_white" transform="translate(24.000000, 11.000000)"><path fill="cadetblue" d="M159.083933,14.4608451 C160.460432,14.9476056 161.482974,15.3735211 162.11223,15.7385915 C162.741487,16.1239437 163.213429,16.5498592 163.528058,17.0366197 C163.842686,17.5233803 164,18.0912676 164,18.7402817 C164,20.0585915 163.469065,21.0523944 162.426859,21.7622535 C161.384652,22.4721127 159.890168,22.8169014 157.96307,22.8169014 C155.898321,22.8169014 154.266187,22.5126761 153.066667,21.9042254 L153.066667,20.4642254 C154.620144,21.1943662 156.252278,21.5594366 157.96307,21.5594366 C159.477218,21.5594366 160.63741,21.3160563 161.423981,20.8292958 C162.210552,20.3425352 162.603837,19.7138028 162.603837,18.9228169 C162.603837,18.1926761 162.289209,17.5639437 161.659952,17.0569014 C161.030695,16.5498592 160.008153,16.0630986 158.572662,15.576338 C157.038849,15.0490141 155.957314,14.6028169 155.328058,14.2174648 C154.698801,13.8321127 154.226859,13.4061972 153.91223,12.9194366 C153.597602,12.4326761 153.440288,11.844507 153.440288,11.1549296 C153.440288,10.0597183 153.931894,9.20788732 154.895444,8.55887324 C155.858993,7.93014085 157.215827,7.6056338 158.946283,7.6056338 C160.598082,7.6056338 162.171223,7.88957746 163.665707,8.49802817 L163.134772,9.71492958 C161.620624,9.12676056 160.22446,8.82253521 158.926619,8.82253521 C157.668106,8.82253521 156.684892,9.02535211 155.93765,9.41070423 C155.190408,9.79605634 154.836451,10.343662 154.836451,11.0535211 C154.836451,11.8242254 155.111751,12.4326761 155.682014,12.8788732 C156.311271,13.3859155 157.41247,13.8929577 159.083933,14.4608451 Z M150.819915,22.77666 L150.819915,13.2595573 C150.819915,11.8511066 150.518688,10.804829 149.916234,10.1609658 C149.313781,9.51710262 148.4101,9.19517103 147.165028,9.19517103 C145.558485,9.19517103 144.373659,9.59758551 143.590468,10.4225352 C142.807278,11.2474849 142.425724,12.5352113 142.425724,14.2857143 L142.425724,22.7967807 L140.979835,22.7967807 L140.979835,12.8772636 C140.979835,10.4225352 139.774927,9.21529175 137.34503,9.21529175 C135.698322,9.21529175 134.493415,9.65794769 133.750388,10.5432596 C132.98728,11.4285714 132.625808,12.8571429 132.625808,14.7887324 L132.625808,22.7967807 L131.2,22.7967807 L131.2,8.28973843 L132.384826,8.28973843 L132.686053,10.2816901 L132.76638,10.2816901 C133.188098,9.55734406 133.810634,8.99396378 134.613905,8.61167002 C135.417177,8.20925553 136.300776,8.02816901 137.264703,8.02816901 C139.734764,8.02816901 141.321225,8.89336016 142.024088,10.6036217 L142.084334,10.6036217 C142.586379,9.77867203 143.289242,9.13480885 144.152759,8.69215292 C145.016276,8.24949698 146.000284,8.02816901 147.084701,8.02816901 C148.791654,8.02816901 150.076889,8.45070423 150.940406,9.29577465 C151.803923,10.1408451 152.225641,11.4889336 152.225641,13.3199195 L152.225641,22.8169014 L150.819915,22.77666 Z M128.096215,20.2862092 L127.976068,20.2862092 C127.195116,21.1956767 126.374115,21.8481208 125.553114,22.2435415 C124.732112,22.6191911 123.750916,22.8169014 122.609524,22.8169014 C121.067643,22.8169014 119.886203,22.4610228 119.025153,21.7294946 C118.164103,21.0177374 117.74359,20.0094148 117.74359,18.7440687 C117.74359,17.3600964 118.384371,16.2726896 119.64591,15.5016193 C120.927473,14.7305491 122.749695,14.3153574 125.17265,14.2758153 L128.156288,14.1967312 L128.156288,13.2477216 C128.156288,11.8835204 127.855922,10.8751977 127.255189,10.1832116 C126.654457,9.49122543 125.67326,9.15511787 124.331624,9.15511787 C122.889866,9.15511787 121.388034,9.53076749 119.826129,10.2622957 L119.28547,9.13534684 C121.00757,8.40381863 122.709646,8.02816901 124.391697,8.02816901 C126.113797,8.02816901 127.39536,8.4433607 128.236386,9.25397304 C129.077411,10.0645854 129.517949,11.3299315 129.517949,13.0697823 L129.517949,22.559878 L128.456654,22.559878 L128.096215,20.2862092 Z M127.835897,15.2112676 L125.098759,15.3099908 C122.901056,15.408714 121.342685,15.7246281 120.403666,16.2577333 C119.464648,16.7908385 119.005128,17.6003686 119.005128,18.7258128 C119.005128,19.6143214 119.304815,20.3053837 119.904188,20.7989996 C120.503562,21.2926155 121.342685,21.5492958 122.441536,21.5492958 C124.099803,21.5492958 125.418424,21.1149138 126.377422,20.2461498 C127.33642,19.3773858 127.815918,18.172963 127.815918,16.6328814 L127.815918,15.2112676 L127.835897,15.2112676 Z M107.673692,20.0921416 C108.642585,21.1188627 110.046491,21.6322232 111.845864,21.6322232 C112.735664,21.6322232 113.506824,21.5729893 114.179117,21.4545215 C114.851411,21.3360537 115.701664,21.0991181 116.710104,20.72397 L116.710104,21.9086482 C115.840077,22.2640516 115.029371,22.5009872 114.297757,22.619455 C113.566144,22.7576675 112.735664,22.8169014 111.845864,22.8169014 C109.591705,22.8169014 107.851652,22.1850731 106.586159,20.9016717 C105.320666,19.6182704 104.707692,17.8412531 104.707692,15.5508753 C104.707692,13.2802422 105.320666,11.4637357 106.526839,10.0816112 C107.733012,8.71923128 109.374198,8.02816901 111.430625,8.02816901 C113.249771,8.02816901 114.693224,8.6205081 115.741211,9.78544162 C116.789197,10.9503751 117.323077,12.5496907 117.323077,14.5636435 L117.323077,15.6101093 L106.190692,15.6101093 C106.210465,17.5845729 106.704799,19.0654206 107.673692,20.0921416 Z M116.061538,14.3661972 C116.061538,12.6380756 115.66105,11.3008387 114.880098,10.3339136 C114.099145,9.36698845 112.997802,8.87323944 111.616117,8.87323944 C110.114286,8.87323944 108.892796,9.34641557 107.991697,10.2927678 C107.090598,11.2391201 106.549939,12.5969299 106.389744,14.3661972 L116.061538,14.3661972 Z M103.37505,22.3943662 L101.875202,22.3943662 L101.875202,4.24016263 L95.0358974,4.24016263 L95.0358974,2.95774648 L110.174359,2.95774648 L110.174359,4.24016263 L103.355052,4.24016263 L103.355052,22.3943662 L103.37505,22.3943662 Z M96.2890771,8.03467381 C96.9867169,8.33677113 97.5049635,8.71942773 97.8637497,9.20278343 C98.2225359,9.68613914 98.4617267,10.2097745 98.6012546,10.8139691 C98.7407826,11.4181637 98.8205128,12.2640362 98.8205128,13.3918662 L98.8205128,22.3742264 L95.0532581,22.3742264 L95.0532581,15.0030519 C95.0532581,13.4321458 94.9735278,12.4251548 94.8140673,11.9820787 C94.6546068,11.5188628 94.3954834,11.1764859 94.0167647,10.9146682 C93.6579785,10.6528505 93.2194621,10.5320116 92.7012154,10.5320116 C92.0434408,10.5320116 91.4454638,10.71327 90.9272171,11.0757868 C90.4089704,11.4383036 90.0501843,11.9216593 89.8508586,12.5258539 C89.651533,13.1300485 89.5518701,14.2377387 89.5518701,15.8489244 L89.5518701,22.3943662 L85.7846154,22.3943662 L85.7846154,7.93397471 L89.2728142,7.93397471 L89.2728142,10.0486559 C90.5285658,8.43747023 92.0833059,7.61173757 93.9968321,7.61173757 C94.8339998,7.57145793 95.5914373,7.7325765 96.2890771,8.03467381 Z M83.6657219,16.2614481 L74.6060225,16.2614481 L74.5660238,16.4220796 C74.5260251,16.582711 74.4460278,16.9039739 74.5860231,17.4260262 C74.7260185,17.9480784 75.1060059,18.650841 75.6659873,19.1327354 C76.2459681,19.5945508 77.0059428,19.835498 77.965911,19.9358926 C78.9058798,20.0362873 80.0258427,19.9961294 81.0658082,19.7351033 C81.7657849,19.5543929 82.425763,19.253209 83.0657418,18.931946 L83.0657418,21.7630754 C82.7257531,21.9638648 82.365765,22.1445752 81.9657783,22.3052066 C81.1258062,22.6063906 80.1258393,22.767022 78.9258791,22.8071799 C74.046041,22.9678114 70.6861525,21.1607075 70.6461538,15.6791591 C70.6461538,14.5547389 70.7261512,13.5106344 70.9861426,12.5267668 C71.2461339,11.5228202 71.66612,10.5791104 72.2661001,9.79603202 C72.8660802,9.01295368 73.6460543,8.41058572 74.6660205,8.04916494 C75.6859866,7.66766524 76.9659442,7.52711271 78.1259057,7.6475863 C79.2858672,7.7680599 80.345832,8.1495596 81.1658048,8.6515329 C81.9857776,9.1535062 82.5857577,9.73579522 82.9657451,10.4787157 C83.3457325,11.2015573 83.5257265,12.0649513 83.6057239,13.048819 C83.7057206,14.0326867 83.6857212,15.1571068 83.6657219,16.2614481 Z M80.5750272,12.5535645 C80.4122654,12.0965461 80.0460513,11.6395277 79.3543137,11.3348488 C78.662576,11.0301699 77.6453148,10.8968729 76.8315058,11.0492124 C76.0176968,11.2015518 75.3869948,11.6204853 75.0207808,12.1536734 C74.6545667,12.6868615 74.5324954,13.3152617 74.4307692,13.943662 L80.737789,13.943662 C80.737789,13.4676012 80.7581342,13.0105828 80.5750272,12.5535645 Z M63.0024636,23.3955299 C62.2169774,23.3955299 61.5120539,23.2350227 60.8675524,22.8939449 C60.2230509,22.5729305 59.5584087,21.9910919 58.8534852,21.1885558 L58.8534852,28.7323944 L55.0871795,28.7323944 L55.0871795,7.92664821 L58.5916564,7.92664821 L58.5916564,10.1336222 C59.0548919,9.37121303 59.6591121,8.76931102 60.4445983,8.30785281 C61.2300845,7.84639461 62.0759927,7.6056338 63.0226043,7.6056338 C64.6741394,7.6056338 66.0839865,8.28778941 67.2320048,9.67216404 C68.3800231,11.0364753 68.9641026,12.9625617 68.9641026,15.4102965 C68.9641026,17.938285 68.3800231,19.8844348 67.2320048,21.2888728 C66.0638458,22.6933109 64.6741394,23.3955299 63.0024636,23.3955299 Z M64.2726305,12.1084984 C63.6680593,11.3601098 62.9425739,10.9859155 62.0558696,10.9859155 C61.1288605,10.9859155 60.3630704,11.3601098 59.7786516,12.088804 C59.1740804,12.8371926 58.8717949,13.9203867 58.8717949,15.3777751 C58.8717949,17.0518023 59.1942328,18.2728575 59.8189563,19.0803294 C60.4436799,19.8681069 61.2296223,20.2816901 62.1364791,20.2816901 C63.003031,20.2816901 63.7285164,19.9074958 64.3129352,19.1788016 C64.897354,18.4501074 65.1794872,17.2487467 65.1794872,15.5747195 C65.1794872,14.0188589 64.8772016,12.8568871 64.2726305,12.1084984 Z M43.963593,22.3943662 C41.0631214,22.3943662 38.7427441,21.5108074 37.0424676,19.723609 C35.3221879,17.9564914 34.4820513,15.5066239 34.4820513,12.3740064 C34.4820513,10.3859992 34.7821001,8.69920513 35.3821976,7.35378608 C35.8222692,6.34974202 36.4223668,5.46618324 37.2024936,4.66294798 C37.9626172,3.87979361 38.8027538,3.27736717 39.7229035,2.89583043 C40.9431019,2.37372751 42.3433295,2.11267606 43.9235865,2.11267606 C46.8040549,2.11267606 49.1044289,3.01631572 50.8247086,4.80351415 C52.5449883,6.59071259 53.4051282,9.08074188 53.4051282,12.273602 C53.4051282,15.4463813 52.5449883,17.9163297 50.8447119,19.7035281 C49.1244322,21.5108074 46.8240581,22.3943662 43.963593,22.3943662 Z M47.7072571,7.16546672 C46.7188192,6.05717764 45.4076261,5.49295775 43.7535055,5.49295775 C42.1195572,5.49295775 40.7881919,6.05717764 39.7795818,7.16546672 C38.7709717,8.29390651 38.2666667,9.98656619 38.2666667,12.2434458 C38.2666667,14.4600239 38.7911439,16.1526836 39.8199262,17.3012741 C40.8487085,18.4498646 42.1599016,19.0140845 43.7535055,19.0140845 C45.3471095,19.0140845 46.6381304,18.4498646 47.6669127,17.3012741 C48.6755228,16.1526836 49.2,14.4600239 49.2,12.1628429 C49.2,9.94626477 48.695695,8.2737558 47.7072571,7.16546672 Z M27.7538462,17.7464789 C26.3478567,17.7464789 25.2307692,16.6046662 25.2307692,15.2112676 C25.2307692,13.817869 26.3671169,12.6760563 27.7538462,12.6760563 C29.1598356,12.6760563 30.2769231,13.817869 30.2769231,15.2112676 C30.2769231,16.6046662 29.1598356,17.7464789 27.7538462,17.7464789 Z M24.6322347,10.8665057 C23.6197403,11.9135016 23.2349925,12.416865 22.9919938,12.8598248 C22.769245,13.3229191 22.6882455,13.7457444 22.6679956,14.067897 C22.6274958,14.3900496 22.6477457,14.5913949 22.6477457,14.7927403 C22.6477457,14.9940857 22.6477457,15.195431 22.6679956,15.5175836 C22.7084954,15.8397362 22.769245,16.2625615 22.9919938,16.7256558 C23.2147426,17.1887502 23.6197403,17.671979 24.6322347,18.7189749 C25.6447291,19.7659708 27.28497,21.3968683 28.1354653,22.3029224 C28.9859606,23.2089766 29.0467103,23.3901874 29.0062105,23.5713982 C28.8239615,24.6989323 27.4064694,23.6519364 27.0419714,23.4103219 C25.8674779,22.625075 23.8019893,21.0344466 22.1212486,19.6250291 C20.4405079,18.2156115 19.164765,17.0276739 18.435769,16.3430996 C17.7067731,15.6585254 17.5245241,15.4974491 17.4232746,15.3363728 C17.180276,15.0142202 17.180276,14.5913949 17.4232746,14.2491078 C17.544774,14.0880315 17.727023,13.9269552 18.435769,13.242381 C19.164765,12.5578068 20.4405079,11.3497346 22.1212486,9.96045156 C23.8019893,8.551034 25.8674779,6.94027108 27.0419714,6.1751587 C28.2164649,5.38991178 28.4797134,5.45031539 28.6822123,5.55098807 C28.8847112,5.65166075 28.9859606,5.83287158 29.0062105,6.01408241 C29.0264604,6.19529324 28.9657107,6.37650406 28.1354653,7.28255821 C27.2647202,8.18861235 25.6447291,9.79937526 24.6322347,10.8665057 Z M19.9436327,7.95900266 C18.540961,9.59031705 17.3386711,10.8285436 16.6774116,11.5164473 C15.9961139,12.2240054 15.8358086,12.4008949 15.6755033,12.4991668 C15.3348545,12.7350195 14.914053,12.7350195 14.5934423,12.4991668 C14.433137,12.3812405 14.2728317,12.204351 13.591534,11.5164473 C12.9102364,10.8088893 11.7079464,9.57066266 10.325313,7.95900266 C8.92264133,6.32768826 7.31958805,4.32294044 6.55813774,3.1829858 C6.31767974,2.82920678 5.27569511,1.43374506 6.39783241,1.27650994 C6.5781759,1.25685555 6.7585194,1.31581872 7.66023687,2.12164873 C8.56195434,2.94713312 10.1850458,4.51948435 11.2270304,5.50220386 C12.2690151,6.48492338 12.7699692,6.8583568 13.2108089,7.09420948 C13.6716867,7.31040778 14.0924882,7.38902534 14.4130988,7.40867973 C14.7337095,7.44798851 14.9340911,7.42833412 15.1344728,7.42833412 C15.3348545,7.42833412 15.5352361,7.42833412 15.8558468,7.40867973 C16.1764574,7.36937095 16.5972589,7.31040778 17.0581367,7.09420948 C17.5190146,6.87801119 17.9999305,6.48492338 19.0419152,5.50220386 C20.0838998,4.51948435 21.7069913,2.92747873 22.6087087,2.12164873 C23.5104262,1.29616433 23.6907697,1.23720116 23.8711132,1.27650994 C24.0514567,1.29616433 24.211762,1.41409067 24.331991,1.59098019 C24.4321819,1.78752409 24.4922963,2.04303116 23.7108079,3.1829858 C22.9493576,4.32294044 21.3463043,6.32768826 19.9436327,7.95900266 Z M15.1383409,5.07042254 C13.7324187,5.07042254 12.6153846,3.92860983 12.6153846,2.53521127 C12.6153846,1.14181271 13.7516779,0 15.1383409,0 C16.5442631,0 17.6612972,1.14181271 17.6612972,2.53521127 C17.6805564,3.94796258 16.5442631,5.07042254 15.1383409,5.07042254 Z M2.52307692,12.6760563 C3.92906635,12.6760563 5.04615385,13.817869 5.04615385,15.2112676 C5.04615385,16.6046662 3.90980622,17.7464789 2.52307692,17.7464789 C1.11708749,17.7464789 0,16.6046662 0,15.2112676 C-3.42128622e-16,13.817869 1.13634762,12.6760563 2.52307692,12.6760563 Z M12.2616669,13.242381 C12.9906628,13.9269552 13.1729118,14.0880315 13.2741613,14.2491078 C13.5171599,14.5913949 13.5171599,15.0142202 13.2741613,15.3363728 C13.1526619,15.4974491 12.9704129,15.6585254 12.2616669,16.3430996 C11.5326709,17.0276739 10.256928,18.235746 8.57618727,19.6250291 C6.89544657,21.0344466 4.829958,22.6452095 3.6554645,23.4103219 C3.29096652,23.6519364 1.85322448,24.6989323 1.69122538,23.5713982 C1.67097549,23.3901874 1.73172515,23.2089766 2.56197056,22.3029224 C3.41246585,21.3968683 5.05270677,19.7659708 6.06520117,18.7189749 C7.07769556,17.671979 7.46244343,17.1686156 7.70544209,16.7256558 C7.92819085,16.2625615 8.00919041,15.8397362 8.02944029,15.5175836 C8.06994007,15.195431 8.04969018,14.9940857 8.04969018,14.7927403 C8.04969018,14.5913949 8.04969018,14.3900496 8.02944029,14.067897 C7.98894052,13.7457444 7.92819085,13.3229191 7.70544209,12.8598248 C7.48269332,12.3967305 7.07769556,11.9135016 6.06520117,10.8665057 C5.05270677,9.8195098 3.41246585,8.18861235 2.56197056,7.28255821 C1.71147526,6.37650406 1.6507256,6.19529324 1.69122538,6.01408241 C1.71147526,5.83287158 1.83297459,5.67179529 2.01522358,5.55098807 C2.21772246,5.45031539 2.480971,5.38991178 3.6554645,6.1751587 C4.829958,6.96040562 6.89544657,8.551034 8.57618727,9.96045156 C10.256928,11.3698691 11.5326709,12.5779413 12.2616669,13.242381 Z M10.325313,22.0409973 C11.7279846,20.4096829 12.9302745,19.1714564 13.591534,18.4835527 C14.2728317,17.7759946 14.433137,17.5991051 14.5934423,17.5008332 C14.914053,17.2649805 15.3348545,17.2649805 15.6755033,17.5008332 C15.8358086,17.6187595 15.9961139,17.795649 16.6774116,18.4835527 C17.3587092,19.1911107 18.5609992,20.4293373 19.9436327,22.0409973 C21.3463043,23.6723117 22.9493576,25.6770596 23.7108079,26.8170142 C24.4922963,27.9569688 24.4321819,28.2124759 24.331991,28.4090198 C24.2318002,28.6055637 24.0514567,28.7038357 23.8711132,28.7234901 C23.6907697,28.7431444 23.5104262,28.6841813 22.6087087,27.8783513 C21.7069913,27.0528669 20.0838998,25.4805157 19.0419152,24.4977961 C17.9999305,23.5150766 17.4989764,23.1416432 17.0581367,22.9057905 C16.5972589,22.6895922 16.1764574,22.6109747 15.8558468,22.5913203 C15.5352361,22.5520115 15.3348545,22.5716659 15.1344728,22.5716659 C14.9340911,22.5716659 14.7337095,22.5716659 14.4130988,22.5913203 C14.0924882,22.6306291 13.6716867,22.6895922 13.2108089,22.9057905 C12.749931,23.1219888 12.2690151,23.5150766 11.2270304,24.4977961 C10.1850458,25.4805157 8.56195434,27.0725213 7.66023687,27.8783513 C6.7585194,28.7038357 6.5781759,28.7627988 6.39783241,28.7234901 C5.27569511,28.5466005 6.31767974,27.1707932 6.55813774,26.8170142 C7.31958805,25.6770596 8.92264133,23.6723117 10.325313,22.0409973 Z M15.1384615,24.9295775 C16.544451,24.9295775 17.6615385,26.0713902 17.6615385,27.4647887 C17.6615385,28.8581873 16.5251908,30 15.1384615,30 C13.7324721,30 12.6153846,28.8581873 12.6153846,27.4647887 C12.6153846,26.0520374 13.7517322,24.9295775 15.1384615,24.9295775 Z" style="&#10; fill: cadetblue;&#10;"></path></g></g></g></g></svg> 